<svg id="Layer_1" data-name="Layer 1" xmlns="http://www.w3.org/2000/svg" viewBox="0 0 500 500"><title>Artboard 4</title><g id="Shape_2" data-name="Shape 2"><path d="M272.5,0c-.21,2.57,2,4.84,4.48,5.59s5.13.34,7.68-.07l7.6-1.23a5.63,5.63,0,0,0,3.11-1.18c.81-.78,1-2.34,0-2.93l1.9,0c1.12,1.7.21,4.14-1.43,5.35S292.08,7,290,7.22q-4.22.45-8.45.7c-2.66.16-5.47.22-7.81-1.06s-3.87-4.39-2.55-6.7Z"/><path d="M444.34,198.51a26.31,26.31,0,0,1,6.81-.91q0,1.51,0,3a38.31,38.31,0,0,1-15-.57c-1.44-.35-3.23-1.62-2.46-2.88a50.82,50.82,0,0,1,9.74-.51A2.83,2.83,0,0,0,444.34,198.51Z"/><path d="M451.2,192.57c-1.82.38-3,2.17-4.65,3-2.31,1.15-5.07.25-7.49-.66a.88.88,0,0,1-.06-1.48c4.58-1.26,8.38-4.37,12-7.41Z"/><path d="M440.3,40.93l10.85-.58v2L438.45,43c-.53-.33-.41-1.2.07-1.6A3,3,0,0,1,440.3,40.93Z"/><path d="M171.82,0q.74,6.32.93,12.69c0,.84-.38,2-1.18,1.78q-.8-7.21-1.34-14.45Z"/><path d="M254,73.93a1.5,1.5,0,0,1-2.14.56,4.34,4.34,0,0,1-1.52-2,6.5,6.5,0,0,1-.92-3,2.23,2.23,0,0,1,1.84-2.24l2.43,5.07A2.18,2.18,0,0,1,254,73.93Z"/><path d="M156.91,390.08a6.34,6.34,0,0,1,3.45-1.95c1.34-.11,2.84,1.09,2.47,2.38l-5.81.76A1,1,0,0,1,156.91,390.08Z"/><path d="M309.1,162.56a1.52,1.52,0,0,1,.53-2.16,3,3,0,0,1,2.45-.07c.71,1,1.39,2.54.46,3.38s-2.54-.12-3.46-1.11Z"/><path d="M282.53,91.8a2.31,2.31,0,0,1-.54-1.75,3.11,3.11,0,0,1,1.79-.22A2,2,0,0,1,283.4,92c-.11.42-.9.3-.88-.14Z"/><path d="M210.87,18.42a47.16,47.16,0,0,0-6.39,2.13L190.32,26c-2.18.85-4.84,2.63-4.05,4.84.31.87-.84,1.68-1.74,1.44a3.88,3.88,0,0,1-2-1.85l-8.4,4.6a2.16,2.16,0,0,1-1.89.36,2,2,0,0,1-.85-1.75,18.56,18.56,0,0,1,25.44-19c2.37,1,5.17-.38,6.69-2.44s2.06-4.65,2.56-7.16c2.77-.75,5.64.64,8.08,2.15A62.52,62.52,0,0,1,226.31,17c-5.11.82-10.4.29-15.44,1.45m6.33-4.71-7.25-4.93c-.73-.49-1.55.48-1.89,1.29l-2.6,6.18c1.24,1,3-.2,4.25-1.21s3.53-1.6,4.1-.1a5.53,5.53,0,0,1,3.4-1.23m-25.91,2.15c.37.77-.58,1.59-1.44,1.58s-1.64-.46-2.49-.54a2.91,2.91,0,0,0-2.77,1.53c2.46-1.42,5.42.39,8.15,1.15a11.07,11.07,0,0,0,8.25-1,35,35,0,0,1-9.7-2.77M182.52,19c-.74-.19-.48,1.15.13,1.61l2.29,1.74c1-.56,2.28.15,3.39.54s2.82.08,2.81-1.1A10.41,10.41,0,0,1,182.52,19Z"/><path d="M368.71,45c-.22-1.08,1.28-1.59,2.38-1.63l65-2.48c.76.93-.91,1.91-2.11,2Q401.38,44.47,368.71,45Z"/><path d="M419.31,124.87a7.12,7.12,0,0,1-4.78,4.57c-.68,1.24-2.18,1.73-3.54,2.12-3.77,1.08-8.33,2-11.2-.68-.52-1.43.69-3,2.16-3.46a7.35,7.35,0,0,1,4.46.52,12.08,12.08,0,0,0,4.41,1.08,5.31,5.31,0,0,0,4.75-3.63A5.54,5.54,0,0,1,419.31,124.87Z"/><path d="M200.54,47.41a5.46,5.46,0,0,1,.41-6.52c1.64.6,3.32-.66,4.61-1.84a24.37,24.37,0,0,0-6.47.92c-1.17-.75-.12-2.71,1.23-3s2.78.22,4.15,0,2.55-2.09,1.47-3c.43-.89,1.91-.66,2.44.18a4.26,4.26,0,0,1,.26,2.9,7.89,7.89,0,0,1-1.12,3.54,2.71,2.71,0,0,1-3.27,1.05,2.52,2.52,0,0,1-2,.88A3,3,0,0,1,200.54,47.41Z"/><path d="M157.19,40.64l1.31-.21.69-1.71c1.44,1.3,3.71,0,5.06-1.34s3-3.09,4.89-2.53c.53,2.13-2,3.63-4.09,4.35.89,1.39,1.55,3.66,0,4.32a6.14,6.14,0,0,0-6.15-2.28,5,5,0,0,1-4.73,5.07A9,9,0,0,1,157.19,40.64Z"/><path d="M315.77,246.78c-1.07-.44-.2-2.1.85-2.6s2.45-1.3,2-2.39l4.47,1.86c.68.61.21,1.84-.61,2.22a4.19,4.19,0,0,1-2.67,0l7.22,3.29c.68.5-.39,1.54-1.21,1.32s-1.46-1-2.31-1c-1.41-.07-2.75,1.8-3.92,1A5.06,5.06,0,0,0,315.77,246.78Z"/><path d="M289.22,276.11a3.73,3.73,0,1,1,5.14-1.32A3.88,3.88,0,0,1,289.22,276.11Z"/><path d="M263.78,210.49a2.75,2.75,0,0,1-.22-1.92l18.2.64a1,1,0,0,1-.15,1.52,2.92,2.92,0,0,1-1.63.52A54.55,54.55,0,0,1,263.78,210.49Z"/><path d="M345.62,108.8h2l.46,2.5h5.5c.51.31.38,1.09.06,1.6a3.68,3.68,0,0,1-5.8.18l-.79-1.25-1.46,0A4.07,4.07,0,0,1,345.62,108.8Z"/><path d="M251.46,277.2c.35,1.16,1,2.27,1,3.48s-1.53,2.38-2.47,1.6l-1.43-7.51c.43-.69,1.57-.48,2.08.15a6.41,6.41,0,0,1,.85,2.27Z"/><path d="M327.14,97.23a2.76,2.76,0,0,1,2.15,1.26,1.58,1.58,0,0,1-.65,2.19c-2.08.78-3.59-4-5.43-2.73a2.22,2.22,0,0,1,2.45-3.08l1.51,2.46Z"/><path d="M427.47,136.71c-.91.53-1.65-.86-2.16-1.78a4,4,0,0,0-2.54-1.92,1.54,1.54,0,0,1,.7-2.07,3.23,3.23,0,0,1,2.4-.06A5.36,5.36,0,0,1,427.47,136.71Z"/><path d="M246,276.27a1.59,1.59,0,0,1-.49.48.81.81,0,0,1-.81,0,5.28,5.28,0,0,1,.52-4.81c1-1.32,3.32-1.65,4.36-.33Z"/><path d="M210.41,33.52c.75-.5,1.76.1,2.3.82s1,1.61,1.77,2a1.83,1.83,0,0,0,1.44,0c.75.9-.51,2.21-1.68,2.3A4,4,0,0,1,210.41,33.52Z"/><path d="M291.53,93.54a1.61,1.61,0,0,1,2.28-1c-.36,1.66-1,3.61-2.62,4.06.36-1.21-1.2-2-2.4-2.43s-2.55-1.77-1.69-2.69A4.85,4.85,0,0,1,291.53,93.54Z"/><path d="M386.53,252.91c.39.31.21,1-.21,1.25a2.36,2.36,0,0,1-1.44.21l-7.82-.51c-.53-.38-.3-1.29.26-1.63a3,3,0,0,1,1.91-.19Z"/><path d="M374.12,122.25c-.44.78-1.63.57-2.37.07a5.55,5.55,0,0,1-2.23-5.75c1.76.62,3,2.2,4.07,3.69C374,120.85,374.48,121.62,374.12,122.25Z"/><path d="M333.39,109.54a10.22,10.22,0,0,0-6.06,1.06,2.79,2.79,0,0,1-.43-2.15,24.17,24.17,0,0,1,8.73-.6c.6.31.36,1.32-.24,1.62A3.41,3.41,0,0,1,333.39,109.54Z"/><path d="M342,112.4a1.23,1.23,0,0,1-.82,2.11,6,6,0,0,1-3-2.47c-.55-1.19.1-3,1.41-3s2.06,1.79,2.25,3.22Z"/><path d="M183.66,41.4a3.7,3.7,0,0,1,1.69,1.31,1.28,1.28,0,0,1-.5,1.83,1.85,1.85,0,0,1-1.19-.16l-4.5-1.69.23-1.8,4.31.15Z"/><path d="M190.27,42l.44-4.45.27-2.71c1.16.34,2.44.81,3,1.9s-.58,2.75-1.66,2.21A2.62,2.62,0,0,1,190.27,42Z"/><path d="M269.09,291c.4,1.3-1.47,2.15-2.81,1.88s-2.74-1-4-.44a2.68,2.68,0,0,1-.26-1.82A12.41,12.41,0,0,1,269.09,291Z"/><path d="M298.64,94.85c.64,1.2,1.31,2.56.93,3.87s-2.42,2-3.1.85q0-2.26,0-4.53Z"/><path d="M203.57,28A1.74,1.74,0,0,1,201,29.35a6.31,6.31,0,0,0-2.8-2.64V25A6.14,6.14,0,0,1,203.57,28Z"/><path d="M241,68.89c-1,1-2.8.1-3.76-1-.55-.64-1.07-1.55-.64-2.28a6,6,0,0,1,3.58.26C241.28,66.42,241.88,68,241,68.89Z"/><path d="M374.38,4.15c0,1.08-1.43,1.43-2.51,1.42l-7.29-.09a1.82,1.82,0,0,1-.26-1.33A73.75,73.75,0,0,1,374.38,4.15Z"/><path d="M267.74,78.91a1.6,1.6,0,0,1-1.41,2.87,4.73,4.73,0,0,1-.4-6c1.18.37,1.51,1.86,1.63,3.09Z"/><path d="M201.46,295c-1.17-.92-2.33-1.84-3.47-2.79a7.45,7.45,0,0,1,3.33-.75,2.55,2.55,0,0,1,2.41,2.05C203.83,294.66,202.36,295.71,201.46,295Z"/><path d="M170.33,48.13a4.59,4.59,0,0,1-5.86,2.12l-.32-1.66A10.06,10.06,0,0,1,170.33,48.13Z"/><path d="M311,97.89a3.86,3.86,0,0,1-5.21,2.76,1.66,1.66,0,0,1-.3-1.59A7.17,7.17,0,0,1,311,97.89Z"/><path d="M436.27,189.11c.69-.45,1.67.44,1.47,1.24a1.67,1.67,0,0,1-2,1,3.72,3.72,0,0,1-2-1.42,4.75,4.75,0,0,1-1.2-2.69,3.22,3.22,0,0,1,3.31,1.4Z"/><path d="M325.73,262.2a4.05,4.05,0,0,1-1.86-1.21,2,2,0,0,1-.37-1.05c1.2-.51,2.55-1,3.76-.57s1.78,2.43.63,3A2.61,2.61,0,0,1,325.73,262.2Z"/><path d="M321.2,288.82c-1.1.48-2.09-.94-3.27-1.14v-2.54a3.13,3.13,0,0,1,3.73,1.38C322.06,287.29,322,288.47,321.2,288.82Z"/><path d="M221,48.41l.3-1.93c1.2-.64,2.62.45,3.28,1.64s.41,3-.8,2.86-1.42-2.44-2.7-2.5Z"/><path d="M171.68,42.77A3.47,3.47,0,0,1,169.82,46a5.09,5.09,0,0,1-2.84.37,1.5,1.5,0,0,1-.1-1.59A8.26,8.26,0,0,1,171.68,42.77Z"/><path d="M197.33,32.39c.56,1.68.93,3.93-.58,4.85a2,2,0,0,1-1.27.27,6.63,6.63,0,0,1-.39-3.19A2.28,2.28,0,0,1,197.33,32.39Z"/><path d="M305.53,96c.39.89-.43,1.93-1.38,2.13a5,5,0,0,1-2.81-.53,1.26,1.26,0,0,1-.35-1.51,4.31,4.31,0,0,1,4.62-.29Z"/><path d="M284.44,80.61c-.4.83-1.68.61-2.42.05s-1.42-1.37-2.35-1.37l-.21-1.2a4.42,4.42,0,0,1,4.32.76A1.58,1.58,0,0,1,284.44,80.61Z"/><path d="M389.5,113.39c.74.76-.4,2-1.46,2s-2-.64-3.11-.61l-.19-1.78A7.07,7.07,0,0,1,389.5,113.39Z"/><path d="M299.46,87.76a5.17,5.17,0,0,1-4.76,3.62,2.26,2.26,0,0,1-.16-1.73A7.6,7.6,0,0,1,299.46,87.76Z"/><path d="M335.58,257.9a10.76,10.76,0,0,1,1.76.21c.56.12,1.25.63.92,1.09a4.62,4.62,0,0,1-3,1.53c-1.14,0-2.19-1.44-1.46-2.31A2.1,2.1,0,0,1,335.58,257.9Z"/><path d="M337.39,250.43l-4.22.06c-.56-.31-.41-1.24.12-1.59a2.84,2.84,0,0,1,1.86-.25l6.24.61a17.93,17.93,0,0,0-4.1.71Z"/><path d="M375.42,125.5a2,2,0,0,1-2.78,1.65,4.4,4.4,0,0,1-1.37-3.33,6.87,6.87,0,0,1,4,1.69Z"/><path d="M439,178.42a1.6,1.6,0,0,1,1.53,2.18,4,4,0,0,1-3.08-.25c-.89-.58-1.21-2-.36-2.68l1.93.2Z"/><path d="M273.49,281.16a2.67,2.67,0,0,1,3.08-.45,4,4,0,0,1-2.85,3.74,9.56,9.56,0,0,1-.2-3.24Z"/><path d="M312.94,274.21q0-1.5,0-3a2.58,2.58,0,0,1,1.74-.23,3.56,3.56,0,0,1,.67,3.09c-.42,1-2.25,1.2-2.46.12Z"/><path d="M191.94,293.88a1.12,1.12,0,0,1-1.16-.22,2.16,2.16,0,0,1,.84-2.72,1.75,1.75,0,0,1,2.46,1.08,1.46,1.46,0,0,1-2,1.54Z"/><path d="M438.48,142.29a2.55,2.55,0,0,1-2.09.43,2.39,2.39,0,0,1,.38-2.68,1.78,1.78,0,0,1,2.56.1,1.42,1.42,0,0,1-.91,2.19Z"/><path d="M284,209.83a1.66,1.66,0,0,1,.23-1.33l3,.58a1.8,1.8,0,1,1-3.43.76Z"/><path d="M319.19,96.78l1.83.78a1.86,1.86,0,1,1-3.47-.93,1,1,0,0,1,1.58.2Z"/><path d="M205.1,46.67a5.42,5.42,0,0,1,.81-2.23l2,0a2.76,2.76,0,0,1-2.56,3.52,1.7,1.7,0,0,1-.23-1.25Z"/><path d="M325.18,252.9a1.32,1.32,0,0,1,1,2,1.67,1.67,0,0,1-2.47.06,2.25,2.25,0,0,1-.16-2.63.91.91,0,0,1,1.53.18Z"/><path d="M255.29,64.32a2.94,2.94,0,0,1,2.56,1.11,1.6,1.6,0,0,1-.73,2.38c-1.52.36-2.11-1.89-2-3.44Z"/><path d="M334.92,106.54a1.31,1.31,0,0,1,.21-1.21,5.22,5.22,0,0,1,3.73.72c.39.85-.6,1.81-1.53,1.79a4.22,4.22,0,0,1-2.45-1.27Z"/><path d="M345.18,104.81c.41.87-.86,1.58-1.83,1.6s-2.24.05-2.5,1a1.9,1.9,0,0,1-.49-1.9A8.14,8.14,0,0,1,345.18,104.81Z"/><path d="M443,187.17a1.29,1.29,0,0,1,1.46.49,5.05,5.05,0,0,1-4.61.91,1.65,1.65,0,0,1,3-1.35Z"/><path d="M309.24,90.76l1.93,1a4.58,4.58,0,0,1-4.58,1A1.71,1.71,0,0,1,309.07,91Z"/><path d="M358.14,111.09c.85.31.77,1.68,0,2.23a3.87,3.87,0,0,1-2.63.46c-.85-1.31,1.13-3.22,2.41-2.32Z"/><path d="M291.36,288.88a2.37,2.37,0,0,1-2.65,3,2.15,2.15,0,0,1,2.5-2.85Z"/><path d="M346.77,484.08a3.58,3.58,0,0,1,1.9,1.6c.32.78-.26,1.92-1.09,1.76a1.79,1.79,0,0,1-1-.73c-.73-.88-1.1-2.69,0-2.74Z"/><path d="M282.22,86.35A3,3,0,0,1,282,84.6a2.57,2.57,0,0,1,2.17,0,1.34,1.34,0,1,1-1.67,1.7Z"/><path d="M296.5,294.2a3.57,3.57,0,0,1,3.61-.52,2.84,2.84,0,0,1-3.65,2v-1.51Z"/><path d="M344.71,481.64a1.44,1.44,0,0,1-2.08-.57,4.15,4.15,0,0,1-.23-2.44,2.16,2.16,0,0,1,2.24,2.92Z"/><path d="M432.12,195.65a1.43,1.43,0,0,1-.85,1.89,4.14,4.14,0,0,1-2.32,0,1.71,1.71,0,0,1,0-1.93h3.24Z"/><path d="M311.82,247.19a1.92,1.92,0,0,1,2.61-1,9,9,0,0,1-1.31,3.32c-.44.28-1.06-.1-1.22-.6a2.58,2.58,0,0,1,.17-1.53Z"/><path d="M241.46,64.27a6.85,6.85,0,0,1,4.8,0,3.46,3.46,0,0,1-4.81.54Z"/><path d="M411.47,122.18a1.45,1.45,0,1,0,2.5.17A1.53,1.53,0,0,0,411.47,122.18Z"/><path d="M428.5,130.29a1.79,1.79,0,0,1-2.77-1.75,2,2,0,0,1,3,1.75Z"/><path d="M431.19,178.9a4.57,4.57,0,0,1,.25-2.25h2a2.81,2.81,0,0,1,0,2.49,4.57,4.57,0,0,1-2.25-.25Z"/><path d="M299.67,82.35a1.61,1.61,0,1,1-3.05,0l3.09,0Z"/><path d="M230.49,57.62a1.8,1.8,0,0,1,2.34-1.17,2.6,2.6,0,0,1,0,2.45h-2a1.64,1.64,0,0,1-.23-1.24Z"/><path d="M195,40.18a1.4,1.4,0,0,1,.29,2,4.06,4.06,0,0,1-1.9,1.23,7,7,0,0,1-.21-2.75,2.45,2.45,0,0,1,1.73-.2Z"/><path d="M163.48,46.9a1.43,1.43,0,0,1-1.25-.22V45.15a6.69,6.69,0,0,1,2.76-.22,1.33,1.33,0,0,1-1.48,1.92Z"/><path d="M195.68,45.92l0-2.21a1.39,1.39,0,1,1,.11,2Z"/><path d="M325.38,286.77l-3.22-.36a1.87,1.87,0,0,1-.25-1.28,10.27,10.27,0,0,1,3.25-.2,2.17,2.17,0,0,1,.23,1.49Z"/><path d="M427.44,215.05a1.43,1.43,0,0,1-1.25-.22v-1.53a6.69,6.69,0,0,1,2.76-.22,1.33,1.33,0,0,1-1.48,1.92Z"/><path d="M227.91,55.46a2.28,2.28,0,0,1-2,.42,3.81,3.81,0,0,1-.23-2.2c1-.9,2.92.54,2.33,1.77Z"/><path d="M290.51,87.58a1.66,1.66,0,0,1-2.25,1.69,3.39,3.39,0,0,1-.29-2.19,1.86,1.86,0,0,1,2.49.51Z"/><path d="M322.26,100.94a1.9,1.9,0,0,1,3.21.65,3.08,3.08,0,0,1-2.85.68l-.29-1.19Z"/><path d="M212.64,286.18v-1.51a4.15,4.15,0,0,1,3,0,3.08,3.08,0,0,1-3.3,1.95Z"/><path d="M289.72,296.43a1.77,1.77,0,0,1-.11-1.67,1.33,1.33,0,1,1,0,1.74Z"/><path d="M235.79,64.43a3.07,3.07,0,0,1-.66-2.8,2.16,2.16,0,0,1,1.67-.2,2.07,2.07,0,0,1-.93,3Z"/><path d="M271,228.4l-2.25.19a1.56,1.56,0,0,1-.22-1.24,6.22,6.22,0,0,1,3.25-.85,1.27,1.27,0,0,1-.81,1.68Z"/><path d="M305,91.59a2.22,2.22,0,0,1-2.27.71,2.81,2.81,0,0,1-.24-1.76,6.77,6.77,0,0,1,2.74-.21.78.78,0,0,1-.27,1.2Z"/><path d="M170.75,47.16a1.58,1.58,0,0,1,.23-1.3l2.74.26a1.94,1.94,0,0,1-3.17,1.23Z"/><path d="M191.7,28.92a1.33,1.33,0,1,1-2.16-.84c.75-.35,1.94.06,1.83.89Z"/><path d="M401.25,124.37l2.84-.18a1.46,1.46,0,1,1-2.75.33Z"/><path d="M437.94,171.42c.7.1.69,1.26.09,1.63a2.65,2.65,0,0,1-2.06,0,1.67,1.67,0,0,1,0-2l2,.31Z"/><path d="M274.94,83.07a1,1,0,0,1-1.42.53V81.09a2.89,2.89,0,0,1,1.8-.25,1.82,1.82,0,0,1-.42,2.12Z"/><path d="M447.43,52.93a1.58,1.58,0,0,1,1.43.33,2.81,2.81,0,0,1-3.41,1.05,1,1,0,0,1,0-1.41h2Z"/><path d="M433.94,165.18l1.54,0c.64,1.08-.91,2.59-2,1.92a1.19,1.19,0,0,1,.43-2Z"/><path d="M413.73,130.75l1.68.09a1.21,1.21,0,1,1-1.49.11Z"/><path d="M255.39,72.09c.29-.91,1.89-.78,2.13.15a1.46,1.46,0,0,1-1.74,1.63,2.75,2.75,0,0,1-.21-1.74Z"/><path d="M331.64,105.27a1.44,1.44,0,0,1-1.24-.21,1.79,1.79,0,0,1,.25-1.32l2.77.25a1.37,1.37,0,0,1-1.74,1.25Z"/><path d="M291.48,76.12a1.71,1.71,0,0,1-2.05,1.53l.24-2.26c.75-.15,1.84,0,1.85.72Z"/><path d="M436.92,153.2c.67-.22.93.93.52,1.51h-2a1.17,1.17,0,0,1,0-1.5h1.49Z"/><path d="M171.72,18.23v-1.5a1.73,1.73,0,0,1,1.27-.24,2.3,2.3,0,0,1,.08,1.94c-.35.57-1.51.44-1.44-.23Z"/><path d="M274,86.73l-1.76.15a1.9,1.9,0,0,1-.24-1.28,4.29,4.29,0,0,1,2.24-.25.8.8,0,0,1-.27,1.21Z"/><path d="M447.67,187l-1.76.15a1.92,1.92,0,0,1-.25-1.28l1.75-.76a2.46,2.46,0,0,1,.21,1.74Z"/><path d="M291.87,101.12a1.56,1.56,0,0,1-1.14,2.19,4.46,4.46,0,0,1-.25-2.25,1.28,1.28,0,0,1,1.52,0Z"/><path d="M321.17,242a1.23,1.23,0,0,1,0-1.54l2.29.24a1.6,1.6,0,0,1-2.23,1.21Z"/><path d="M408.77,126.5a1.21,1.21,0,0,1,.22-1.19,1.19,1.19,0,0,1,1.61,1.3c-.27.84-1.8.74-1.89-.13Z"/><path d="M407.76,486.31a2.63,2.63,0,0,1-2.42.73,1.25,1.25,0,1,1,2.38-.74Z"/><path d="M254.29,270.12c-1-.3-.84-1.72-.5-2.68a1.34,1.34,0,0,1,.49,2.45Z"/><path d="M375.74,490.86l.6.84a1.81,1.81,0,0,1-1.79.81,1.73,1.73,0,0,1-.24-1.25,1.62,1.62,0,0,1,1.24-.23Z"/><path d="M420,3a1.61,1.61,0,0,1,1.28.21,1.4,1.4,0,0,1-1.77,1.23A.85.85,0,0,1,420,3Z"/><path d="M420.23,484.37l-1.26.19a2.05,2.05,0,0,1-.26-1.31,2.71,2.71,0,0,1,1.75-.21.77.77,0,0,1-.27,1.19Z"/><path d="M210.65,26.22c-.24-.55.67-.83,1.27-.74a1.32,1.32,0,0,1-1.09,2l-.25-1.25Z"/><path d="M431,135.74c-.56.24-.83-.68-.74-1.28a2.89,2.89,0,0,1,1.76-.22,1,1,0,0,1-1,1.47Z"/><path d="M432.19,195.62q0-.87,0-1.75a1.76,1.76,0,0,1,1.25-.24,1.31,1.31,0,0,1-1.25,2Z"/><path d="M431,201.11c-.56.24-.83-.68-.74-1.28a2.89,2.89,0,0,1,1.76-.22,1,1,0,0,1-1,1.47Z"/><path d="M49.92,145.49a183.73,183.73,0,0,1,3.93,23.44c.1,1,.07,2.23-.81,2.7a1.75,1.75,0,0,1-2.11-.68,4.94,4.94,0,0,1-.71-2.29A98.64,98.64,0,0,1,49.92,145.49Z"/><path d="M95.55,268.72c-.31,1.49-2.52,1.26-3.92.65-1.13-.49-.39-2.47.84-2.59s2.28.85,3.08,1.79Z"/><path d="M155.76,260.39c.33,1.07-.76,2.16-1.88,2.26a5.74,5.74,0,0,1-3.16-1c-.14-.92,1.1-1.43,2-1.31s1.92.52,2.75.09Z"/><path d="M163.4,261.41c-1.2,1.44-4.09.07-3.73-1.78a6.67,6.67,0,0,1,3.78.43,1,1,0,0,1,0,1.44Z"/><path d="M85.76,274.68a.72.72,0,0,1-1.2.43,3,3,0,0,1,1.72-4.24,6.27,6.27,0,0,1-.35,3.85Z"/><path d="M104.67,267.63a3.22,3.22,0,0,1-4.28,1l0-1.56a10.63,10.63,0,0,1,3.94.53Z"/><path d="M161.25,272.36l-2.75.13a2.07,2.07,0,0,1-.25-1.33,10.07,10.07,0,0,1,3.25-.19.78.78,0,0,1-.27,1.2Z"/><path d="M51.41,252a1.52,1.52,0,0,1-1.71,2,2.84,2.84,0,0,1-.22-1.76,3.33,3.33,0,0,1,2-.2Z"/><path d="M182.45,244.49a1.43,1.43,0,0,1-1.25-.22v-1.52a2.78,2.78,0,0,1,1.77-.23,1.31,1.31,0,0,1-.54,1.93Z"/><path d="M111.35,265.47l.49,1.24a1.8,1.8,0,0,1-1.77.76,2.84,2.84,0,0,1-.21-1.76,2.17,2.17,0,0,1,1.49-.23Z"/><path d="M105.83,423.92a1.36,1.36,0,0,1-1.25,1.71,2.63,2.63,0,0,1-.2-1.72,1.22,1.22,0,0,1,1.5,0Z"/><path d="M108.61,269.47c-.56.24-.83-.68-.74-1.28a2.89,2.89,0,0,1,1.76-.21,1,1,0,0,1-1,1.47Z"/><path d="M60,263.72a1.55,1.55,0,0,1,.22-1.28l1.78.15a1.35,1.35,0,0,1-2,1.18Z"/><path d="M262,161.08a2.76,2.76,0,0,1-2.28-.73,57.17,57.17,0,0,1-9.37-8.39c2.1-1.11,4.51.74,6.14,2.47s4,3.64,6.12,2.62C263.18,158.48,263.46,160.62,262,161.08Z"/><path d="M274.93,144.5a46.11,46.11,0,0,1,8.63-.75,4.56,4.56,0,0,1-4.66,3,3.88,3.88,0,0,0,4,.92,2.15,2.15,0,0,1-3.63,1,2.21,2.21,0,0,1-2.46,1Z"/><path d="M299.82,155.06a1.89,1.89,0,0,1-2.52-2.81,4.73,4.73,0,0,1,5.19-2.47,41.56,41.56,0,0,1-1.74,4A3.64,3.64,0,0,1,299.82,155.06Z"/><path d="M264.4,151.37l1.53-2.85c.6-1.11,2.53-.39,2.77.84s-.56,2.42-1.37,3.38-2.5,1.92-3.23.85C263.65,152.95,264,152.07,264.4,151.37Z"/><path d="M324.49,162.54c-.19-1.35-1.61-2.08-2.78-2.78s-2.35-2-1.75-3.26a4,4,0,0,1,4.53,6Z"/><path d="M238.73,134.32a1.59,1.59,0,0,1,.85-.38,13,13,0,0,1,4.37-.18,2.84,2.84,0,0,1-5.31,2A1.33,1.33,0,0,1,238.73,134.32Z"/><path d="M304.62,157.51a1.33,1.33,0,0,1,.45,1c-.07,1-1.48,1.11-2.46.93l-3.9-.74c-.84-.49.34-1.63,1.29-1.81C301.6,156.59,303.48,156.37,304.62,157.51Z"/><path d="M238.38,152.27a3.36,3.36,0,0,1,1.95,0,1.16,1.16,0,0,1,.61,1.61,1.67,1.67,0,0,1-.69.47c-1.7.79-3.77,1.56-5.36.56a9.53,9.53,0,0,1,3.45-2.75Z"/><path d="M252.08,156.75l-4.26,1.61,1.46-3.18,3.75,0C253.57,155.71,252.76,156.49,252.08,156.75Z"/><path d="M314.42,154l-3.24-.4A1.93,1.93,0,0,1,311,152a4.19,4.19,0,0,1,2.88-.3c.92.36,1.41,1.78.6,2.35Z"/><path d="M318.2,159.7a1.34,1.34,0,0,1-2,0,3.87,3.87,0,0,1-.73-2.22,4.07,4.07,0,0,1,2.23-.23,2.7,2.7,0,0,1,.64,2.51Z"/><path d="M246.32,154.7h-2.5a2.8,2.8,0,0,1-.24-1.78,6.91,6.91,0,0,1,2.75-.21,1.92,1.92,0,0,1,0,2Z"/><path d="M314.65,148.31a.86.86,0,0,1,.51,1.31,3.85,3.85,0,0,1-2.35,0c-.73-.32-1.19-1.35-.66-1.94a4.08,4.08,0,0,1,2.5.57Z"/><path d="M263.05,148.57l-1.26.17a4.31,4.31,0,0,1-.26-2.29,2.75,2.75,0,0,1,1.77-.23,1.85,1.85,0,0,1-.24,2.27Z"/><path d="M193.49,148.25a2.79,2.79,0,0,1,2.53-.51,1.53,1.53,0,0,1-2.1,1.86l-.33-1.11Z"/><path d="M200.67,155v-2a2.24,2.24,0,0,1,1.71-.19c.91,1-.55,2.91-1.76,2.29Z"/><path d="M282.51,141.49a2.23,2.23,0,0,1-2.27.72,2.33,2.33,0,0,1-.2-1.7,1.6,1.6,0,0,1,2.47,1Z"/><path d="M307.5,155.46a1.45,1.45,0,0,1-1.8,1.22,1.76,1.76,0,0,1,0-1.94c.73-.16,1.82,0,1.76.72Z"/><path d="M310,144.48a2.16,2.16,0,0,1-2.25.71,1,1,0,0,1,0-1.41c.88-.19,2.1-.19,2.33.68Z"/><path d="M288.93,149l.2-1.26a1.11,1.11,0,0,1,1.4,1.24c-.21.73-1.51.79-1.7,0Z"/><path d="M185.06,139.16a22.72,22.72,0,0,1,.2,3.1c0,.89-.43,2.1-1.31,1.93l-2.7-5.65a2.73,2.73,0,0,1-.38-1.93c.34-1.09,2-1.26,2.87-.53a4.64,4.64,0,0,1,1.33,3.08Z"/><path d="M186.46,135.31c-.75,0-.87-1.05-.71-1.78a3,3,0,0,1,2.17-.78,1.63,1.63,0,0,1-1.47,2.51Z"/><path d="M341.68,159.75a2.51,2.51,0,0,1,2.45-.51,1.23,1.23,0,1,1-2.21.69Z"/><path d="M341.39,158a2.23,2.23,0,0,1-2.27.72,2.33,2.33,0,0,1-.2-1.7,1.6,1.6,0,0,1,2.47,1Z"/><path d="M343.35,154.48c.6.16.56,1.12.06,1.48a2.51,2.51,0,0,1-1.8.21,1.88,1.88,0,0,1,0-2l1.76.09Z"/><path d="M175.84,231.12a24.25,24.25,0,0,0-.81-7.76l1.78-.65a6.08,6.08,0,0,1-.89-9c-.12,2.67,2.34,4.63,3.71,6.92s1.7,5.27,1.82,8a3.9,3.9,0,0,1-.28,2C180.23,232.47,177.64,231.92,175.84,231.12Z"/><path d="M187.06,232.63c-.33.68-1.44.55-1.89,0a3.38,3.38,0,0,1-.43-2.18l.18-5.72a5.59,5.59,0,0,1,3.22,10.14,2.94,2.94,0,0,1-.1-3.06c0-.31-.53-.3-.7,0S187.2,232.35,187.06,232.63Z"/><path d="M190.89,201.9l1.43,13.86c.13,1.22-.27,3-1.48,2.78l-1.47-12.8C189.2,204.23,189.39,202.18,190.89,201.9Z"/><path d="M189,219.12c.08.65.1,1.45-.45,1.82a.92.92,0,0,1-1,0,4.52,4.52,0,0,1,.81-7.29Z"/><path d="M191.18,222.31v-1.5a1.55,1.55,0,0,1,1.22-.22,6.14,6.14,0,0,1-.22,6.74,10.72,10.72,0,0,1-1-5Z"/><path d="M183.57,204.8a1.92,1.92,0,0,1,2.47-1.15l.26,3.18a2,2,0,0,1-.12,1.08c-.43.82-1.8.54-2.26-.26a3.94,3.94,0,0,1-.09-2.71Z"/><path d="M180.19,215.84a2.52,2.52,0,0,1-1.39,2.76,6.56,6.56,0,0,1-.54-4.26,1.49,1.49,0,0,1,1.2-.25l.75,1.74Z"/><path d="M188.69,196.86v-3a1.38,1.38,0,0,1,1.17-.21,4.8,4.8,0,0,1-.7,5.18,2,2,0,0,1-.43-2Z"/><path d="M185.21,214.47l-1.78.15a3.13,3.13,0,0,1-.23-1.83,2.07,2.07,0,0,1,2.16.37.62.62,0,0,1-.18,1.09Z"/><path d="M188.43,222.5c.63,0,1,.86.65,1.4a1.75,1.75,0,0,1-1.67.67,2.84,2.84,0,0,1-.21-1.76,1.56,1.56,0,0,1,1.23-.23Z"/><path d="M281.07,234.71a1.69,1.69,0,0,1-.33,2.43,5.9,5.9,0,0,1-2.6.92,18.57,18.57,0,0,0-4.62,1.62c-2.15,1.09-4.5,2.65-6.75,1.8-.73-.82.53-1.91,1.56-2.27Z"/><path d="M311.16,236.9a1.32,1.32,0,0,1-.18,1.88,3.84,3.84,0,0,1-2,.73l-9.31,1.59a1.74,1.74,0,0,1-.12-1.59A33.52,33.52,0,0,1,311.16,236.9Z"/><path d="M286.23,240c.58.43.26,1.44-.38,1.76a3.45,3.45,0,0,1-2.12.06,29,29,0,0,0-7.45-.31c-.48-.15-.47-.9-.09-1.22a2.13,2.13,0,0,1,1.43-.33Z"/><path d="M311.13,235.68l-2.24-.88.27-2.07,3.32,1.48a1.28,1.28,0,0,1-1.28,1.27Z"/><path d="M296.12,229.56l-.19-1.27a2.05,2.05,0,0,1,2.07,0,1.39,1.39,0,0,1-1.76,1.21Z"/><path d="M126.29,409.74c.57-.69-.11-1.74-.87-2.2s-1.74-.81-2.06-1.65a1.48,1.48,0,0,1,0-1.13,8.91,8.91,0,0,1,3.44.58,3,3,0,0,1,1.9,2.7A1.87,1.87,0,0,1,126.29,409.74Z"/><path d="M130.53,405.63c-.75.38-1.66-.43-1.71-1.27l2.25-.22a1,1,0,0,1-.52,1.47Z"/><path d="M165,404.64l1.71.16a1.45,1.45,0,0,1-1.17,1.9,2.41,2.41,0,0,1-.64-2Z"/><path d="M309.44,113.78l-1.65-.08a2.13,2.13,0,0,1-.13-2.79,1.79,1.79,0,0,1,2.67.06,1.54,1.54,0,0,1-1,2.34Z"/><path d="M346.89,230.75,333,219.31a104.93,104.93,0,0,1,28.19,38,16.93,16.93,0,0,1-14.37,4c4.16-3.13-.52-9.43-4.89-12.25-8.26-5.31-18.47-10.79-27.35-6.61-25.23,11.88-54.88,3.29-81.36-5.44,14.37-9,33.68-3.69,49.48-9.87,13.57-5.3,24.13-18.89,38.7-19.12,1.77,0,4,.55,4.26,2.3s-3.51,1.71-2.59.2a6.22,6.22,0,0,0,6.73,1.18,17.81,17.81,0,0,0-19.41-6.59l5.91,2.83-48.9-8.31-2.83-34.52c-4.48,6-1.4,14.34.4,21.6s.11,17.48-7.32,18.33a122.53,122.53,0,0,0-47,15.47l32.79-8.87a33.69,33.69,0,0,1-16.07,12.57,299.68,299.68,0,0,1,72-12.69,46.07,46.07,0,0,1-25.3,15.65l5.68-5.37c-32.56-.71-65.07,15.06-84.65,41.09-7.94,10.56-12.92,27.52-2.38,35.48-1.88.88-1.68-3.4.39-3.33s3.34,2.21,4.81,3.67c4.36,4.32,13.08,2.12,14.88-3.74.59-1.94.63-4.25,2.18-5.56s4.75.74,3.31,2.16c-4.23-4.77,3.06-13.52,8.52-10.23-6-3.77-6-14,0-17.77,3.56-2.27,9.07-6.83,5.28-8.69.14,2.49-3.55,4.11-5.28,2.31l6.51-6c9.76,10.28,7.23,26.7,4.06,40.51,1.74,2.18,5.38.59,7-1.69s2.61-5.24,5.12-6.47,6.32,2,4.27,3.91a4.81,4.81,0,0,0-6.42,2.26,45.52,45.52,0,0,1,35.13,23.74c-8.48-3.73-14-12.12-22.07-16.73s-21.68-2-21.86,7.22l19.63-5.91a157.74,157.74,0,0,1,22,28.3l-5.11-12.12,13.66,3.68a71,71,0,0,1-2.37-23.17c3,5.1,11.18,5.94,15.1,1.53,2.92,3.44-3.72,9-6.59,5.5.58,4.88,9.45,2,9-2.93s-5.55-7.81-10-9.84a22.66,22.66,0,0,1,19.63,7.76,36.79,36.79,0,0,1,15.18-12.35c-9-6.44-21.2-2.17-32.09-.4s-25.78-3.1-24.91-14.09c3.4,9.63,16.48,10.49,26.65,9.6L350.74,275a21.47,21.47,0,0,1-20.49-3,7.61,7.61,0,0,1-8.82,3.41,18.52,18.52,0,0,1,13-9.09,129.52,129.52,0,0,1-48.23-5.59c2.84-2.51,7.21-1.42,10.85-.39a105.69,105.69,0,0,0,50.67,1.64l-10.55,4.54a258.89,258.89,0,0,0,52.52-8.67c-2.47,11.52-14.77,20-26.41,18.17l4.45,46.58c1,11-13.14,16-24.07,17.26l-72.1,8.48a543.18,543.18,0,0,0,60.76-4.92C331,358.55,341.72,373.87,356.4,378c8,2.23,8,14.19,3.14,20.88S346.9,410,343.13,417.39s.68,19.49,8.8,17.86c7.85-1.57,15.59,5.72,16.28,13.69s-4.25,15.63-10.8,20.23-14.52,6.65-22.36,8.27c-17.39,3.58-36.09,5.28-52.36-1.8l1.8,24.36H247.1a769.13,769.13,0,0,0-7.18-184.69,82.76,82.76,0,0,0-14.16,45.18c-.19,16.76-11,32.14-25,41.3s-30.94,12.89-47.62,14.54a220.08,220.08,0,0,1-82.57-7.6c-2.16-.63-4.6-1.55-5.35-3.67-.86-2.44,1-4.92,2.73-6.84l18.69-20.76,70.49-31.14,7.8-3.45c-1.61-7.2-.49-14.7.64-22l3.14-20.22c3.25-20.95,6.69-42.45,17.35-60.77a67.28,67.28,0,0,0-19.25,3.28l13-1c1.33,6.69-4.33,13.17-10.84,15.21s-13.54.81-20.25-.43l-4.91-5.56q3.68,20,6.25,40.23c.29,2.27.51,4.77-.79,6.65-1.07,1.55-2.92,2.31-4.68,3q-46.81,18.07-95.08,32l.19-58.25,80.94,10.26-7.29-36.71a40.6,40.6,0,0,0,2,21.41l-6.87-9.08-2,6.08c-3.63,2.11-7.19-5.38-3.26-6.86-3.78-.33-7.19,3.85-6.1,7.49l-5.2-5.89-5.23,5.19a28.08,28.08,0,0,0-11.49-2.61l6.72,7.69a11.83,11.83,0,0,1-9.47-6.59,8.19,8.19,0,0,1-2.16,7.8L76.61,260.5l-6.54,15.57-3-10.55-6.47,2.35,4.12-7.31L57.2,262.4A6.07,6.07,0,0,1,58.81,255l-6.26-3.23c-3.78-28.74-7.38-59,3.47-85.88,2.31-5.71,5.3-11.47,5-17.62s-5.7-12.56-11.71-11.2L49.48,127a10.85,10.85,0,0,0,6.84-1.44A596.57,596.57,0,0,1,49.66,0h99l4.18,40.71c1.6,15.58-28.1,17.82-29.34,33.44a96.71,96.71,0,0,1,34.86-20c.91.63-1.34,1.47-1.5.37s1.06-1.83,2.09-2.23a84.14,84.14,0,0,1,41-5L198.55,57.6l5.32-8.2c1.72,2.61,6.74-.5,5.17-3.2a7.8,7.8,0,0,1,6,5.49l-4.32-11.63A43.77,43.77,0,0,1,225.77,60.4a2.69,2.69,0,1,1,1.79,3.5,6.88,6.88,0,0,0,6.56,1.24,13.71,13.71,0,0,1-4.29,12.14,5.52,5.52,0,0,1,8,3.54L235.13,69c1.91,1.91,5.07,1.29,7.71.75s6.06-.5,7.25,1.92-3.91,4.69-3.88,2l5.45,6.87c-.83-2.34,2.14-5,4.35-3.85a10.3,10.3,0,0,0,1.33,10.24A14.07,14.07,0,0,1,261.55,74a6.41,6.41,0,0,1-1,8.78c4.92-1.26,9.57,5.53,6.63,9.66.67,3.22,5.58,4.46,7.69,1.94-2.48,1.36-5.64-2.47-3.84-4.65,1.78-3.05,5.64,1.58,6.22,5.07s6.16,6.77,6.34,3.24c-2.6,2.94-5.36-3.48-4.12-7.2a33.72,33.72,0,0,1,13.35,7.34l-7.43,2.52c.13,3.72,6.77,4.44,7.7.84a55.4,55.4,0,0,1,27.52,6.08l-4.91-6.17a22,22,0,0,1,10.9,5.33,10.42,10.42,0,0,1-5.35,7.11l-6-3.69a11.85,11.85,0,0,0,15.6,5.16c-1.85,2.38-5.38-2.46-3.06-4.39s5.93-.4,8,1.81,3.53,5.09,6.18,6.52l2.46-6.77a30.94,30.94,0,0,0,20.68,10.9,20.27,20.27,0,0,0-12-5.42,16.45,16.45,0,0,1,17,4.11l.18,7.69a18.7,18.7,0,0,1,13.24-4.52,15.82,15.82,0,0,1-10-9.13c8.25,7.38,22.27,7,30.12-.8a9.48,9.48,0,0,1-11.22,6.56,9.79,9.79,0,0,0,8,4.2c.23,2.09-2.6,3.42-4.55,2.62s-3.1-2.78-4.1-4.63l-8.93,5.22,31.76,4.2c2.53.33,5.75,1.4,5.75,4s-5.27.37-2.91-.62l18.23,1.33c-2.9,2.27.83,7.94,4.06,6.17a6.52,6.52,0,0,1-8.39,1.91,10.2,10.2,0,0,1-2,11.4l6.37,4.26-12.3,3.61,10.74,7.89a13.84,13.84,0,0,1-7.43.84,5.78,5.78,0,0,1,.87,7.12,10,10,0,0,1,12,3.27l-11.25-2,3.44,8.28-8.17-1,1.19,16.61c.12,1.69,0,3.84-1.65,4.39s-2.09-3.06-.58-2.31q0,3.45,0,6.91l-8.43-6.73a32.08,32.08,0,0,1,7.89,15.37c-6.79-14.15-26.23-15.11-41.89-14l-37.94,2.66a42.8,42.8,0,0,0,4.62,17.87M260.06,86.4l-2,.69a4.27,4.27,0,0,1,1.77,1.26,4.09,4.09,0,0,0,.27-1.89l1.52-.74a1.88,1.88,0,0,0-1.32-.87,2.16,2.16,0,0,0-.22,1.49M220.62,60.89a2.2,2.2,0,0,0,2.51.83,3.42,3.42,0,0,0-2.54-.84c.14-1.1.16-2.45-.77-3a1.92,1.92,0,0,0,.82,3M162.38,165.9l4.6-6.56a2,2,0,0,0,.53-1.7,28.41,28.41,0,0,0-5.13,8.26M349.81,438.27l7.7,2a3.17,3.17,0,0,0,1.86.11,20.67,20.67,0,0,0-9.56-2.15M331.9,194.12h-5.73c-.69.45.48,1.29,1.3,1.23a24.79,24.79,0,0,0,6.88-1.57,3.59,3.59,0,0,0-1.69-1.17l-.75,1.5M272,100.94a45.38,45.38,0,0,0-8.42-5.83l3,4a2,2,0,0,1,2.66.32c.48.58.6,1.4,1.12,1.94s1.77.33,1.63-.41m-11.31-8.51c1.77-.16,3.64-1.59,3.37-3.34l2-1.19a6.5,6.5,0,0,0-5.21.9c1-.1,1.59,1.22,1.11,2.06a2.26,2.26,0,0,1-2.55.83A6.61,6.61,0,0,1,257,90.15l-.55,2.66a7,7,0,0,0-.07,3.79c.44,1.2,1.86,2.15,3,1.6-2.28-.71-2.18-3.94-1.61-6.26a5.86,5.86,0,0,0,2.89.47m50.45,20.38-.79-4.24,2.19-.64a4.08,4.08,0,0,0-5.15.07l.06,2a2.52,2.52,0,0,0,.77,4.94,5.72,5.72,0,0,1,4.69-1.21,1.47,1.47,0,0,0-1.76-.92M152.33,388.68a4.41,4.41,0,0,0-2.29.2c-.69.35-1.11,1.36-.58,1.93a9.56,9.56,0,0,0,13.73-.78,3.1,3.1,0,0,0,.83-2.28c-.12-.82-1.06-1.53-1.8-1.14a18.76,18.76,0,0,1-9.88,2.07m167.57,80.7a10.65,10.65,0,0,0-2.51,2.22c-.83.75-2.21,1.21-3,.44-1.61-1.51-4.24,2-6.15.92a1.65,1.65,0,0,1,.26-2.23l-1.17-.58a2,2,0,0,1-.9,2.82,5.93,5.93,0,0,1-3.29.41l-7.55-.51c-.1.63.66,1,1.28,1.19a26.17,26.17,0,0,0,13.42-.08,10.73,10.73,0,0,1,3.79-.65,66.37,66.37,0,0,0,29.57-3.9l-8.17-.7c.65,1.33-1.32,2.35-2.78,2.54l-7.49,1a2,2,0,0,1-.26-1.37l4.11-1.58-6.74-.19a5.54,5.54,0,0,0-2.4.29M197.48,398.62c-14.08,8.68-30.52,13-47,14.48s-33.07.28-49.52-1.42q-7.07-.73-14.13-1.58c18.79,3.07,37.76,5.9,56.78,5.05s38.28-5.6,53.87-16.53m120-273.77c-21.22-17-50.23-22.92-77.06-18.38s-51.44,18.84-71,37.79c3.52.73,5.09-5.58,8.68-5.52,2.65,0,3.76,3.79,2.5,6.12s-3.79,3.6-6,5.11-4.3,3.79-3.95,6.42l2.33,1.34,1.72-2.28c-.83.6-2-.49-1.9-1.51a4.06,4.06,0,0,1,1.76-2.42c.58-.79,1.74.44,1.62,1.41a5,5,0,0,0,4.24-4.14l2.73.34c1.38-2.93,4-5.06,6.61-7,18.57-13.73,40.9-22.85,64-23.88s46.81,6.41,63.82,22a156.46,156.46,0,0,1,12.09,12.91L342.46,168a2.85,2.85,0,0,0,3.42,3.24l-.74,3,6.31,10a4.22,4.22,0,0,0,2-2.69,3.66,3.66,0,0,1-2.79-4.39l-3-.82a5.27,5.27,0,0,1,3.14-3.3l-6.72-9.42a14.68,14.68,0,0,1,5.62,2.38c7.72,5.4,8.68,16.77,15.43,23.34-7.2-16-17.17-30.73-28.26-44.38-5.89-7.24-12.15-14.25-19.43-20.1m9.43,42.59,9.05,4.93a5.33,5.33,0,0,1-3.72,1.91c2,.45,4,.94,5.5,2.32s2,3.94.65,5.39c-1.72,1.79-5.68,1.54-5.81,4l6.88-.77a3.41,3.41,0,0,1-.3-3.09l3.85-.32c-12.6-19.7-26.59-39.89-47.41-50.56-17.28-8.86-37.85-10.12-56.76-5.74s-36.28,14.1-51.57,26.06l11.23,1.19,1.37,6.24a3.2,3.2,0,0,1-3.41-2.82l-4.8.32a14,14,0,0,1,4.23,4c1,1.69,1.15,4-.17,5.5a8.25,8.25,0,0,0,4.2,3.41,42.21,42.21,0,0,1-12.2,2l7.95,2.95a42.31,42.31,0,0,1,27.57-13.46,4,4,0,0,0-4.79-1.62,3.34,3.34,0,0,1,.45-3.62h4a2.66,2.66,0,0,0,2.46,2.54l.51-2.55c4-1.14,7.4,3,9.57,6.6,1.22,2,3.33,4.31,5.47,3.35a5.14,5.14,0,0,0,2,4,5.85,5.85,0,0,1-.53-4.18,25.09,25.09,0,0,0,13.47-1,2,2,0,1,1-.23,3.74,2.11,2.11,0,0,1-.28,2.65,3.34,3.34,0,0,0,3.89-3.81c-.55-2.3,1.49-4.57,3.78-5.16s4.7,0,7,.66L271.57,188c.18,2.85.41,5.84,2,8.22s5,3.78,7.38,2.22,2.48-4.91,2.35-7.73l-1-22.21c-.09-2-.43-4.35-2.23-5.18-2.8-1.3-7.34,2-8.61-.85a30.33,30.33,0,0,1,13.56-.94c1.13.18,2.59,1.24,1.84,2.12-.44.51-1.51.61-1.42,1.28A136.36,136.36,0,0,1,286.49,193c-.18,2.81,1.9,5.37,4.42,6.61s5.41,1.44,8.22,1.58q14,.72,28,.47a17.94,17.94,0,0,0-9.36-2.36,5.29,5.29,0,0,1,4.72-1.44,88.17,88.17,0,0,0-37.92-40.52c-2.76-1.49-5.7-2.86-8.83-2.93s-6.49,1.47-7.69,4.36l10.79-2.37c1.87-.41,4.86.57,3.89,2.21l-11.14,2.17c-2.34.45-5.49.48-6.27-1.77-1.16-3.33,4.73-5.52,4.5-9A28.15,28.15,0,0,0,285,150a1.43,1.43,0,0,1-1.28,2.21,16.19,16.19,0,0,0,9.15,4.38c1.22.15,2.57.22,3.43,1.09s.43,2.84-.79,2.7l10.08,2c2.87.56,6.32,1.65,6.92,4.52a44.07,44.07,0,0,1-9.76-2.77c.38,2.53,2.8,4.35,5.3,4.86s5.09,0,7.59-.53a4.34,4.34,0,0,0,2,4.24,30.91,30.91,0,0,0-3.78-11c4.78-.95,9,5.63,6.12,9.57a25.15,25.15,0,0,1,6.28-.6,4,4,0,0,0-3.93-2c-.34-1,.63-2,1.64-2.07a5.11,5.11,0,0,1,2.86.88M173,231.45c.51,2.56,2.34,5.89,4.73,4.84a3.44,3.44,0,0,1-2.53-3.37,11,11,0,0,1,10.13,2.88c1.32,1.32,3.48-.12,4.75-1.48a158,158,0,0,1,49.28-35.6,102.71,102.71,0,0,0-10.5-32c-1.32-2.52-5.07-2.22-7.64-1s-5.23,3.06-8,2.39c-5.42-1.31-10.37,3.2-14,7.45a209.78,209.78,0,0,0-22.49,32.23c-2.15,3.8-4.22,7.78-4.77,12.11-.48,3.85.27,7.74,1,11.55m127.65.62a5.67,5.67,0,0,1-5.56,1.3L309.78,221A71.56,71.56,0,0,0,279.08,232a30.1,30.1,0,0,1-21.44,4.37c-6.13-1.09-13-3.93-18.08-.31q12,3.69,24.28,6.45c9.57,2.15,19.38,3.86,29.15,3s19.6-4.58,26.19-11.84a19.5,19.5,0,0,0-12.06-4.65l-2.23,1.16c1.66-.23,1.81,2.82.25,3.42s-3.26-.46-4.51-1.57M178.28,336.67a1.72,1.72,0,0,0,1.38-2.19l1.78-.18a7.11,7.11,0,0,1-.14,5c-.75,1.52-2.68,2.53-4.21,1.8l.45-2.14a8.81,8.81,0,0,0-5,1.2c4.47,3.48,10.18,4.85,15.7,6.14a19.82,19.82,0,0,0,6.51.77,19.83,19.83,0,0,0,6.68-2.4l6.84-3.44-5.18-3c-2.35-1.37-4.82-2.78-7.53-2.88-1.15,0-2.52.06-3.21-.86a6,6,0,0,0-6.65-2c-.34-.26-.82.41-.46.64l2.55,1.09a2.05,2.05,0,0,1-2.8,1.12,3.47,3.47,0,0,0-6.7,1.44M287,389.45l0-1.49c1.34-.65,2.89.05,4.34.38a8.74,8.74,0,0,0,9.44-4.49,16.2,16.2,0,0,0-9.94-3.09c-2,.06-4.07.51-6.11.46a6.77,6.77,0,0,1-5.42-2.36,18.47,18.47,0,0,0-4.61,2.4c-4.22,3.33-4.51,10.41-.79,14.29a5,5,0,0,0,2.8,1.64,2.51,2.51,0,0,0,2.71-1.43l-3.49-.16c-.12-1.75,1.52-3.2,3.22-3.63a21.26,21.26,0,0,1,5.25-.15c1.76,0,3.68-.37,4.79-1.74l-2.19-.62M132.42,403.86a15.74,15.74,0,0,1-2.06-4.26,5.34,5.34,0,0,0-4.51,1c1.15.54,2.46,2,1.49,2.79a1.79,1.79,0,0,1-1,.32,13.73,13.73,0,0,1-9.22-2.51c-.5,1.4-2.26,1.83-3.74,1.87s-3.16,0-4.24,1a12.17,12.17,0,0,1-10.23,3.11c.26,1,1.54,1.39,2.61,1.54a225.64,225.64,0,0,0,35.71,2.32,7.58,7.58,0,0,1-1.5-4.66,3.17,3.17,0,0,1,2.86.37,2.41,2.41,0,0,1,1.71-2.34,4.87,4.87,0,0,0-3.91-.63c.47.9-.63,2-1.63,1.85a3.62,3.62,0,0,1-2.33-1.79M191,359.92a18.83,18.83,0,0,0,5-.58,1.56,1.56,0,0,0-.58-1.34q-9.85-2.71-19.44-6.26a1.36,1.36,0,0,0,1.75,1.59c.5,1.47-1.46,2.61-3,2.57s-3.28-.55-4.55.36a78.6,78.6,0,0,0,19.5,7.5c3.86.92,8.33,1.42,11.44-1a6,6,0,0,0-3-2.3,3.63,3.63,0,0,1-7.06-.49m91.38-32.52a3.15,3.15,0,0,0,1.21,3.46,8.15,8.15,0,0,0,3.66,1.34c9.39,1.66,19,.36,28.47-.93l25.8-3.55c1.55-.21,3.38-.64,3.93-2.1-6.51,1.91-13.35,2.34-20.13,2.76L292,330.45c-3.57.22-7.91.05-9.66-3.06M156.49,407.18a2.65,2.65,0,0,1-.22-1.75l1.38-.52c.37-.73-.78-1.4-1.55-1.11s-1.28,1-2,1.38c-1.51.71-3.2-.4-4.61-1.29s-3.53-1.49-4.55-.16a6,6,0,0,0,5.08.87,6.52,6.52,0,0,0,2,2.55,3.08,3.08,0,0,1,3.12-1c.45,1-.8,1.92-1.83,2.34-2.13.86-4.37,1.73-6.64,1.44-1.33-.17-2.59-.72-3.93-.85s-2.89.35-3.4,1.59a78,78,0,0,0,22.5-1.87c3.1-.72,6.16-1.63,9.21-2.54l9.19-2.74a13.5,13.5,0,0,0-7.83.6c-1,.37-2.07.85-2.93.29a5.94,5.94,0,0,0-6.61.22,2.32,2.32,0,0,1,1.37,2.19,3.23,3.23,0,0,1-4.37-1.14c-.54-.15-.7.71-.57,1.26a7.71,7.71,0,0,1-2.8.2M233,297.67c-1-.65-2.38,0-3.41.62A33.27,33.27,0,0,0,218,311.1c-.28.54-.44,1.38.12,1.62a1.15,1.15,0,0,0,.94-.17l6.25-3.17c1.76-.89,3.82-2.36,3.42-4.29-.29-1.44,1.23-2.59,2.63-3s3-.64,3.92-1.81a2.93,2.93,0,0,1-2.29-2.58m168.4-93.83c-.69-1-2.19-.89-3.39-.66-.05-.75-.88-1.17-1.59-1.43a43.5,43.5,0,0,0-23.38-1.58,3.65,3.65,0,0,1-4.6,3.72l9.06,1a6.27,6.27,0,0,1-2.85-4.38c1.95-.36,3.55,1.4,5.07,2.67s4.27,1.92,5.14.14c.31-.62.25-1.37.51-2s1.16-1.13,1.63-.62l.48,2.87a23.43,23.43,0,0,1,9.48-.91c.61.32-.14,1.19-.81,1.35s-1.57.74-1.14,1.27l6.37-1.45M365.28,323.32a71.86,71.86,0,0,1-10.07,4.25c-14.2,4.75-29.46,5-44.23,7.41-1.23.21-2.65.56-3.17,1.7,17.18-1.51,34.62-3.07,50.76-9.18,2.5-.95,5.06-2.08,6.71-4.17M77.81,35.41,84.1,84.55c.3,2.33.67,4.81,2.24,6.55Q83.54,63.93,79,37c-.12-.7-.45-1.59-1.16-1.57m27.83,52c-.79,1.56-3.71-.1-4.78,1.28A2.08,2.08,0,0,1,99.43,92c-.67,0-.34,1,0,1.63a4.94,4.94,0,0,1,.17,3,4.19,4.19,0,0,0,.34,3c.58.85,2.11,1,2.53.09A7.58,7.58,0,0,1,105.25,90a27.56,27.56,0,0,0,3-1.56,2.69,2.69,0,0,0,1.18-2.89,1,1,0,0,1,1.61.69l6.45-7-2.19-1a20.44,20.44,0,0,0-9.62,9.25M344.53,236.11a24.55,24.55,0,0,1,3.71,6.54c.45,1.39.64,2.85,1,4.28a22.75,22.75,0,0,0,5.4,10.22,5.58,5.58,0,0,0-.25-3.17c-1.53-5.36-3.44-10.68-6.59-15.27s-7.68-8.42-13.06-9.85c4,2.69,4.9,8.61,9,11.05a8.93,8.93,0,0,1-.94-3.65,2.14,2.14,0,0,1,1.72-.16M148.5,360.5a3.28,3.28,0,0,1-4-1.16c.67,1.71,2.06,3.78,3.8,3.19a3.64,3.64,0,0,0,1.25-.86l10.83-10c-1.22-.47-2.57,0-3.78.54l-9.75,4.06,1.62,4.24m124,46.62a2.47,2.47,0,0,0,1.41-.16,17.94,17.94,0,0,1,5.74-1.13,6.25,6.25,0,0,1,5.09,2.45c.55-2.57-2.06-4.71-4.52-5.65-3-1.16-7.25-1.11-8.52,1.85-.41,1-.21,2.34.79,2.63m64.4-103.82a4.22,4.22,0,0,1-2.11-4.9c.57-1.8,2.35-3.14,2.51-5a3.22,3.22,0,0,0-2.64-3.34c-2.56,1.84-3,5.63-1.91,8.57s3.47,5.22,5.8,7.35a5.15,5.15,0,0,0,3.06-2.57,9.68,9.68,0,0,0-4.7-.09m-205.82-5.72a2.79,2.79,0,0,0-1.32.22l-13.59,4.62c4,1.08,8.18.51,12.23-.22a5.48,5.48,0,0,0,3.44-1.53c.81-1,.51-2.88-.75-3.09m91.86,28.91a1.31,1.31,0,0,0,1.1,1.38,5,5,0,0,1,2.35-4.93c1-.55.78-2.14-.12-2.79a3.42,3.42,0,0,0-3.18-.13A4,4,0,0,1,216.2,324a17.16,17.16,0,0,0,.92,10.43,4.17,4.17,0,0,0,.58-4.55c-.59-1.14.27-2.6,1.44-3.12a7.17,7.17,0,0,1,3.79-.24M80.62,284.1c-.17-1-.6-2.18-1.58-2.21a93.44,93.44,0,0,0,2.49,15.58,7.45,7.45,0,0,1,.23,4.32c-.51,1.37-2.33,2.34-3.49,1.44-.42.29-.12,1,.31,1.26,1.47,1,3.56-.16,4.26-1.77s.41-3.45.11-5.18L80.62,284.1m214.14,57.72a2.54,2.54,0,0,1,.57-3.31,4.61,4.61,0,0,0-5.71.61c-.82.85-1.71,2.17-2.81,1.74-.55.32-.41,1.23.1,1.6a2.94,2.94,0,0,0,1.83.38l6.81-.09c1.57,0,3.73-.71,3.42-2.25a6.32,6.32,0,0,1-4.21,1.31m47.77,51.92a13.09,13.09,0,0,1,7.15-5.76,7.82,7.82,0,0,0-11.39,7.36,1.58,1.58,0,0,0,.14.66c.5,1,2.09.13,2.26-.93s-.35-2.13-.26-3.2,1.46-2.11,2.17-1.3l-.07,3.17m-21.1-214.88a4.1,4.1,0,0,0,3.69-3.71l1.56,0c-2.72-2.39-7.16-.94-9.68,1.65l6.39-1.9c.29,1-.56,2-1.46,2.46a8.67,8.67,0,0,0-2.63,1.59c-.67.79-.56,2.32.45,2.53a2.5,2.5,0,0,1,2.45-.8,5,5,0,0,0,3,4,5.59,5.59,0,0,0-3.45-4.72.81.81,0,0,1-.31-1m-132.22-15.6a5.49,5.49,0,0,0,2.11,2.83,4.86,4.86,0,0,1-5.35-.92c1.55,2.23,4.08,4.75,6.53,3.58,2.2-1,2.22-4.11,1.91-6.52a5.33,5.33,0,0,1-5.19,1m23.51,187.81a2.67,2.67,0,0,0,0,1.42,1.37,1.37,0,0,0,1.12.84c.38-6.32,4-12.41,2.89-18.64a108.65,108.65,0,0,0-4,16.38M143.3,374.83a5.56,5.56,0,0,1,4.47,1.82,3,3,0,0,0,.77,3.61c1-2.33-.29-5.15-2.32-6.67s-4.62-2.06-7.11-2.56c-.5-.1-1.21-.06-1.27.45.92.78,2.18,1,3.25,1.51s2,1.81,1.48,2.88c-.33.64-1.1,1.42-.54,1.87a3.93,3.93,0,0,0,1.27-2.92m2.62-179.57c.69.34,1.35-.48,1.68-1.18l6.47-13.73c-1.74,1-3.63,2.2-4.09,4.15a44.08,44.08,0,0,1-4.06,10.77M258.75,304.4c.06,1.57-1.69,2.79-3.25,2.58a5,5,0,0,1-3.54-2.85c-.42-.8-1-1.84-1.87-1.69.69,2.47,1.85,5.07,4.16,6.18s5.8-.4,5.62-3l-1.13-1.25m-49.37,30.46,1.91-8.81c.15-.67.11-1.63-.57-1.75.07,1-.08,2.33-1.07,2.54-1.46.31-2.9-2.32-3.93-1.25a21.49,21.49,0,0,1,3.65,9.26m58.43,48.26a168.53,168.53,0,0,0-14.13,16.39c-.61.81-1.14,2.16-.26,2.67a49.76,49.76,0,0,1,9-11.83c2.19-2.13,4.7-4.26,5.43-7.23M76.36,259.52l.47-3a22.77,22.77,0,0,0-6.36,6,3.6,3.6,0,0,0-.85,2c0,.75.63,1.53,1.37,1.44a13.22,13.22,0,0,1,5.37-6.44M73.7,281.41c-.91.73-.76,2.14-.53,3.28L76.86,303c1-.78.42-2.29-.09-3.41s-.7-2.82.46-3.24a80,80,0,0,1-3.53-15m87.67,98.95a10.41,10.41,0,0,0,5.08.21l3.67-.46a4.2,4.2,0,0,1,2.82.31c.81.53,1,1.95.17,2.39.46.78,1.83.23,2-.66a2.53,2.53,0,0,0-1.29-2.22c-3.53-2.5-8.37-1.07-12.42.44m97.94-57.93c-.15-2.88-3.93-3.85-5.77-6.06a3.69,3.69,0,0,0-1.15-1.14,2.72,2.72,0,0,0-1.12-.16l-7.35,0c2.41,1.75,5.66,1.58,8.52,2.4a12.48,12.48,0,0,1,6.88,5m67.68,125c-1.53-.74-3.32,0-4.94.46s-3.72.65-4.7-.73c-.14,1.55-1.82,2.59-3.38,2.58a9.51,9.51,0,0,1-4.37-1.51,1.91,1.91,0,0,0,1.21,2,5.2,5.2,0,0,0,2.54.22A52.08,52.08,0,0,0,327,447.42M262.61,199.81c0-.95-1.33-1.14-2.27-1l-17.22,2.62a3.55,3.55,0,0,0,2.83.45l16.66-2.07M139.88,211.6a100.8,100.8,0,0,0-7.07,17.71,2.22,2.22,0,0,0,.52,2.12l6.54-19.84M354,450a5.19,5.19,0,0,0-5.27-.61,8.2,8.2,0,0,0-3.9,3.84c-1,2-1.4,4.66.1,6.33a16.13,16.13,0,0,1,.86-5.43,5.47,5.47,0,0,1,3.95-3.51c1.44-.22,3.12.3,4.26-.62m-68.34-128.5a6,6,0,0,0,1.47,5,4.37,4.37,0,0,0,4.91,1c.72-.35.32-1.56-.42-1.87a12.1,12.1,0,0,0-2.38-.3c-.79-.16-1.58-1-1.19-1.69a3.45,3.45,0,0,1-2.39-2.11M392.85,207.36a31.17,31.17,0,0,0,14.61.71,35.81,35.81,0,0,0-14.61-.71m-92.13,115c.66-.58-.6-1.37-1.48-1.35-3.68.11-7.45.24-10.84,1.67a46.37,46.37,0,0,1,8.44.64.93.93,0,0,0,.87-1h3M254.51,184.52l.08-2.22a3,3,0,0,0,3.12-1.36,2.43,2.43,0,0,1-1.85-1.81,1.21,1.21,0,0,0-.3,1.71,1.27,1.27,0,0,1-1.66.65,2.53,2.53,0,0,1-.91-3.58,7.37,7.37,0,0,0-3.76-1.23l5.29,7.84M350.1,209q6-.58,12-1.72a5.33,5.33,0,0,0,3.22-1.44c-1.47-.41-2.93.57-4.39,1s-3.62-.25-3.42-1.76c0,1.5-1.84,2.25-3.34,2.41s-3.26.25-4.08,1.51m-140,159.67a50.62,50.62,0,0,1,1.22-13.19,12.36,12.36,0,0,0-1.22,13.19M404.83,140.9l-5.59-.57a5.26,5.26,0,0,1-5.4,1.35c.28,1.67,2.68,1.64,4.31,1.17l6.69-1.95M241.33,71.59a20.07,20.07,0,0,0,4.43,10.22,1.67,1.67,0,0,0,2.14.31c-3.93-1.62-3.15-8-6.57-10.53M240.74,307c3.2,2.37,7.25,4.85,10.88,3.22l-1.62-.83a7.07,7.07,0,0,1-7.36-3.65,4,4,0,0,1-1.9,1.26M432.15,143.06a7.54,7.54,0,0,0-8.26-2.76,12.82,12.82,0,0,1,6.59,3.9l1.67-1.14M138.23,384a2.06,2.06,0,0,0,1.48.24,9.18,9.18,0,0,1,1.22-5.65,2.71,2.71,0,0,0-1.89-.31l-.6-2a5.67,5.67,0,0,1-1,3.74,4.55,4.55,0,0,1,.76,4m87.56-55.56a.59.59,0,0,0-.93.33,9.21,9.21,0,0,0-.69,3.46A3.13,3.13,0,0,0,226,335a6.27,6.27,0,0,1,1.76-5.37,2.39,2.39,0,0,1-2-1.23m59.7,89.49a17.92,17.92,0,0,1-11.1,2.92,8.75,8.75,0,0,0,11.1-2.92M135.13,365.27a3.18,3.18,0,0,1-3.45,2.35,8.45,8.45,0,0,0,8.08-.2,5.26,5.26,0,0,1-4.63-2.15m111.22-191.1a15.88,15.88,0,0,0,5.7-.79,1.79,1.79,0,0,1-1.26-1.28,5.86,5.86,0,0,1-2.42,1.16,9.24,9.24,0,0,0-4.23-3.12,11.25,11.25,0,0,1,2.21,4M210.54,61.44l-.39-9.8A10.34,10.34,0,0,0,210,61l.55.41M380.83,207.7a10.25,10.25,0,0,0-8.36.32,11,11,0,0,0,8.36-.32m-150.72-.79a4.18,4.18,0,0,0,3.73,0,15,15,0,0,0,4.76-2.83,40,40,0,0,0-8.49,2.81M74.6,247.5c-.18,2.66-3.42,3.72-5.62,5.22-.43.3-.78,1.06-.28,1.22a19.49,19.49,0,0,0,5.49-3.35c1-.84,1.65-2.75.41-3.09m185.09-74.11-.68-1-.56-.83a6.68,6.68,0,0,0-2.53,2.52,2.3,2.3,0,0,0,1,3.08c.28-1.7,1.09-3.85,2.81-3.76m-124,211.29-1.37-2.4a22.8,22.8,0,0,1,.82,6.44l2.68-1.73a2,2,0,0,1-.44-2,3.37,3.37,0,0,0-1.69-.29M237.4,268.74a16.72,16.72,0,0,0-1.93,4.79,9.76,9.76,0,0,0-.13,4.44,24.28,24.28,0,0,0,2.06-9.23M57.49,310.83q4.08-.86,8.1-2a2.72,2.72,0,0,0,1.68-1,20,20,0,0,0-9.78,3m83,46.6a4,4,0,0,0-3.26,1.32,9.46,9.46,0,0,0,6.67-1,5.67,5.67,0,0,0-3.4-.4M274,232.68a48,48,0,0,0-10.56,1.09A19.7,19.7,0,0,0,274,232.68M303.2,337.79a4.26,4.26,0,0,0-3.22,1.77,7.53,7.53,0,0,0,5.68-.43l-2.47-1.29M140.5,245.06a8.79,8.79,0,0,0-2.61-8.12l2.61,8.12m73.28,72.64a2.33,2.33,0,0,0,.37-1.31,1.17,1.17,0,0,0-.67-.9,12.61,12.61,0,0,0-2.16,7l2.47-4.83M94.91,99a2,2,0,0,0,1.39,1c.25-1.67.07-4-1.6-4.25-.6,1.09-1,2.85.21,3.23M178.69,392a1.31,1.31,0,0,0-1.59,0,2.5,2.5,0,0,0,4.15,1.37,2,2,0,0,0-2.47-1.14M79.7,119.77a1,1,0,0,0-.17,1.22,6.45,6.45,0,0,0,4-2.3,2.7,2.7,0,0,0-3.93,1M325.15,187.6l-3.25.75,1.27,1.82c0-1.29,1.77-1.68,3-1.45s2.86.56,3.62-.48a40.83,40.83,0,0,1-4.72-.33M174.45,247.55c-.87-.14-2.13,0-2.12.92a2,2,0,0,1,1.94,3.56,3.13,3.13,0,0,0,1.16-4.64l-1,0M150.54,60l-1.91.83a4.69,4.69,0,0,0,5.55-1.24,4.81,4.81,0,0,0-3.65.36m132.76,408.6A2.88,2.88,0,0,0,286,469.9a7.35,7.35,0,0,0-6-3.23,6.31,6.31,0,0,0,3.24,1.89m11.6-360.84a2.88,2.88,0,0,0,3.75.81,7.89,7.89,0,0,1-3.6-2.82,1.33,1.33,0,0,0-.34,2.12M279,465.29a50.93,50.93,0,0,0-4.93-5.71,8.22,8.22,0,0,0,4.93,5.71m66.16-279.65-1.45-3a2.82,2.82,0,0,0,2,4.41,1,1,0,0,0-.56-1.37M216.13,56.15a2,2,0,0,0-1.26-.75,4.24,4.24,0,0,1-1.17,1.72,1.88,1.88,0,0,0,2.15,1.16c.85-.29,1.07-1.72.24-2.06m-70.7,141.15-3,7.2a9.76,9.76,0,0,0,3-7.2M301,108.58a.8.8,0,0,0,.23,1.48,4.3,4.3,0,0,0,3.34-1.63,3.49,3.49,0,0,0-3.54.19m-211-.75-1.92-1.59a6.2,6.2,0,0,0-1.21,3.43,5.45,5.45,0,0,0,2.86-1.78M222.5,314a4.69,4.69,0,0,0-.16,5.58,7.93,7.93,0,0,1,1.17-4.5l-1-1.08M354.6,126.35a1.42,1.42,0,1,0,2.55,1.24,5.3,5.3,0,0,1-1.86-3.35,2.81,2.81,0,0,0-.45,2.27m-13.2,170.38c.93.13,2.2-.12,2.25-1.05l-4.47-.73a2,2,0,0,0,2.18,1.66M159.32,156a5,5,0,0,0-1.48,2.64l4.76-5.07a4.12,4.12,0,0,0-3.22,2.41m170.79,47.57c-.31.33.57.24.7-.2.45-1.52.68-3.58-.74-4.29a9.3,9.3,0,0,0,0,4.51M73.18,43.93l-1.54-1.5a9.27,9.27,0,0,0,1.14,4.62A2.45,2.45,0,0,0,73.12,44M366,126.86a2.37,2.37,0,0,0-2.74.74,3.76,3.76,0,0,1,3.24,1.66l.74-1.82-1.15-.76M311,174.43l3.14,2.51a2,2,0,0,0-2.39-2.61M208.9,378.24l-1-2c-.84-.07-1.89,0-2.23.75a4.3,4.3,0,0,0,3.27,1.58m4.75-69.48-1.35-2.21a5.53,5.53,0,0,0,.69,4.54,1.74,1.74,0,0,0,.48-2.23M225.34,71.29a25.65,25.65,0,0,1,4.71-.6c-.23-1.32-2.2-1.11-3.41-.54l-1.56.73M406,139.25a3.07,3.07,0,0,0,4.25.32l-3.87-1c-.43-.11-1-.15-1.18.25s.79.47.52.13M292.22,471.49l-2.75.27c1.43,1.48,3.89.25,5.52-1a2.55,2.55,0,0,0-2.75.82M245,180.43l-.68-1.32-2.18,1.29a3,3,0,0,0,1.64,1.13c.67.1,1.45-.53,1.22-1.17m-58.82-26a.71.71,0,0,0,.27-1.18L183.7,156a5.66,5.66,0,0,1,2.34.68l.21-2.2m145.9-34.7a.83.83,0,0,0-.45-1.29l-4.79,1.14a30.81,30.81,0,0,0,5.24.15m32.43,12-1.08-1,.4,3.21,1.24.77a2.77,2.77,0,0,0-.62-2.93M276.62,415.76a2.34,2.34,0,0,0,3.88.22l-3.73-.45M118.33,76.11l1.24,1.23a2.65,2.65,0,0,0,1.31-2.25,1.94,1.94,0,0,0-2.58,1M90.15,380.29a4,4,0,0,0-2.74,1.87,8.06,8.06,0,0,0,5-3.26,2.14,2.14,0,0,0-2.11,1.38M52.7,312.81,57,311a8,8,0,0,0-5.5,1.66l1.21.25M141.26,50a2.61,2.61,0,0,0,3.53,1.71,8.28,8.28,0,0,0-3.25-1.76M265.79,459.57a11,11,0,0,0,3.15,3.41,17,17,0,0,0-2.54-3.8c-.19-.22-.46-.45-.74-.37s-.16.65.09.51m82.1-262a3,3,0,0,0,2.52,0l-1.31-2.74a4,4,0,0,1-1.15,2.79m1.2-76.74a3.34,3.34,0,0,0-2.73,2.28,3.07,3.07,0,0,0,3-2.09M270.68,410.3l-.91-1.17a5.43,5.43,0,0,0,0,4.09,2.66,2.66,0,0,0,.68-2.76M90.91,104.56a1.61,1.61,0,0,0,.73,1.73l.74-1.74-1.74-1.74a1.22,1.22,0,0,0,.25,1.74m133,236.36c-1.5,0-1.93,2.63-.49,3.07l.7-3.11m122.5,127.28a2.41,2.41,0,0,0-2.76.74,6.09,6.09,0,0,0,5-1.19,2,2,0,0,0-2.06.48M329.14,177.7c-.41-.32-.82.54-.48.94a18.19,18.19,0,0,0,4.75-.23l-4.23-.87M331,242.61a2.06,2.06,0,0,0,3.42.25l-3.25-.48m-24.66,63.89a4.46,4.46,0,0,0,2.29-4.36,19.51,19.51,0,0,0-2.42,4.21M74.37,131A2.32,2.32,0,0,0,73,128.27a5.42,5.42,0,0,0,1.71,3.94A.8.8,0,0,0,74.4,131m245.66,98.36-1.15.89,1.26,1.27,1.75-1.75a2.44,2.44,0,0,0-1.74-.21m-149.72-70c-1.16.4-.7,2.46.52,2.63a1.85,1.85,0,0,0-.49-2.49m172.68,251a4.48,4.48,0,0,0-1.62,3,15.68,15.68,0,0,0,2.88-3.83l-1.34.69m81.82-255.35c0-.49-1-.1-.66.26a2.47,2.47,0,0,0,1.74.22,3.7,3.7,0,0,0,1,1.52l.69-1.89-2.67-.15M159,254c.31.18.64-.34.45-.64a1.15,1.15,0,0,0-.95-.39,12.39,12.39,0,0,0-3.22.21,14.91,14.91,0,0,0,3.74.86M338.38,123.51l-2,1a4.56,4.56,0,0,0,2.31,1.24l-.36-2.23m-77.9,67.75,1.25-1a3.5,3.5,0,0,0-3.63.22l2.17.81M63.45,257.74l2-2.1A9.49,9.49,0,0,0,62,257.28a1.1,1.1,0,0,0,1.47.49m357.8-62.37a1.33,1.33,0,0,0,2,1.45c-.44-.16-.64-.66-.8-1.11s-.39-.95-.85-1.06-.93.6-.52.83M185.73,49.64a3.11,3.11,0,0,0,1.66,1.15c.68.11,1.48-.48,1.3-1.15a4,4,0,0,0-3,0M258,195.4c-.44-.69-1.24-1.48-1.93-1l0,1.5a1.37,1.37,0,0,0,2.09-.45m89,198.86c-.61.08-.56,1.11,0,1.38a2.22,2.22,0,0,0,1.77-.16,1.4,1.4,0,0,0-1.76-1.23m2.68-270.19a2,2,0,0,0,3-.14,1.86,1.86,0,0,0-2.82.18M220.38,321.3l-2.7.24a1.8,1.8,0,0,0,3.07-.05m129.37-5.6c-1.39-.05-3,0-3.8,1.18a8.05,8.05,0,0,0,3.81-1.18m-193.86-138,1-1a2.11,2.11,0,0,0-2.54,2.1,2.12,2.12,0,0,0,1.49-1.07m-1.41,9a4.81,4.81,0,0,0-.93,3.19,2.87,2.87,0,0,0,1.19-3.32m-28.56,49.77,1.1,2.5a4.72,4.72,0,0,0-.57-3.5c-.44-.28-.82.61-.44,1m129.88,66.19a2.27,2.27,0,0,0-2.39-.66,2.75,2.75,0,0,0,1.18,1.26c.54.22,1.32-.09,1.33-.67M270.92,357c.24-.85.23-2.12-.64-2.24a2.15,2.15,0,0,0,.59,2.76M260.79,234.06a10.33,10.33,0,0,0-4.3.34,7.69,7.69,0,0,0,4.39-.12m93.2-100.05a2.42,2.42,0,0,0-.44-3,2.5,2.5,0,0,0,.43,3m-131.6,93c.59-.34.1-1.37-.57-1.41a2.44,2.44,0,0,0-1.73.95,4.18,4.18,0,0,0,2.21.25m56.39,104.76a1.58,1.58,0,0,0,1.27-.21,1.35,1.35,0,0,0-2.06-1,1.41,1.41,0,0,0,.8,1.22M155.11,384.45l1.68-.87-2.81-.85a2,2,0,0,0,1,1.46m-4.5-2.4,1.73-.17a2.86,2.86,0,0,0-3-.7.84.84,0,0,0,1.23.75M159,380.2l-3.21.14a2.12,2.12,0,0,0,3.31,0M93.2,101.78a.71.71,0,0,0,1.16.3,7.86,7.86,0,0,0-1.78-2.3,2.15,2.15,0,0,0,.63,1.95M222.61,328.6a1.87,1.87,0,0,0-2.54.58,1.61,1.61,0,0,0,2.45-.62M155.76,161.44l-1.5,1.58a2.74,2.74,0,0,0,2.12-1c.22-.28.38-.69.16-1s-.81.07-.56.33M271.47,372.75l-.07-3a2.91,2.91,0,0,0-.47,3.14m-.34,3.61a3.48,3.48,0,0,0-.39,3.17,4.58,4.58,0,0,0,.67-3.31m1.1-45.83c.32-.41-.55-.82-.94-.48a3.07,3.07,0,0,0,.17,1.75c.55.28.88-.64.79-1.25M167.56,147.76l1.55-2a2.1,2.1,0,0,0-2.05,2M351.91,457.31c.12.78,1.64.31,1.3-.4a.91.91,0,0,0-1.63.45m-2.26-3.87a.72.72,0,0,0-.74,1.08,9.38,9.38,0,0,0,2.3-1.74,1,1,0,0,0-1.44.52M140.92,208a1.66,1.66,0,0,0-.35,2.15c.12-.6.74-1,1-1.54s-.6-1.35-.88-.81m197.74-14.46a1.17,1.17,0,0,0,1.48,0,3.44,3.44,0,0,0-1.74-1.29.81.81,0,0,0,.25,1.23M274.14,467.6a2.19,2.19,0,0,0-2.08-1.43,3,3,0,0,0,2.29,1.76M68,142a1.37,1.37,0,0,0-.28-2.23,2.24,2.24,0,0,0,.08,2.35M348.45,325a1.6,1.6,0,0,0,2.38-.43,1.89,1.89,0,0,0-2.25.23M227.68,160a1.93,1.93,0,0,0,.64,2.19,1.51,1.51,0,0,0-.67-2.35M85.22,115.64l-1.56-1.93a1.51,1.51,0,0,0,1,1.93m47.39,247.12a1.74,1.74,0,0,0-2.25-.21c.41-.21.89.1,1.25.4s.84.61,1.25.39,0-1.06-.32-.71m146.42,47.82a1,1,0,0,0-1.43-.53l1.75,1.75a.8.8,0,0,0-.27-1.21m101.33-280a3.88,3.88,0,0,0,2,1.56,1.84,1.84,0,0,0-2-1.67m-42.36-9.74,1.23,2.13a1.51,1.51,0,0,0-.81-2.14m-175.95,134a1.87,1.87,0,0,0,2.28-.43,2.34,2.34,0,0,0-2.33.09m99.79,198.79a2.93,2.93,0,0,0,1.22,2.5,2.72,2.72,0,0,0-1.09-2.48M150.91,195a1.53,1.53,0,0,0-.49,1.51c.55-.28,1.17-.66,1.22-1.27s-1-1-1.14-.41m66.57,26.58a.8.8,0,0,0-1.41.42.86.86,0,0,0,1.47-.46m118.6-40.65.19-1.26a1.88,1.88,0,0,0-1.33-.24,2.13,2.13,0,0,0,1.06,1.45m86.82-32.42c-.24.35.18.84.61.83a1.76,1.76,0,0,0,1.08-.6,1.14,1.14,0,0,0-1.66-.15M277.43,470.35a.9.9,0,0,0-1.23-.6c.15.49.37,1,.85,1.19s1-.61.58-.86M174.1,336c-.11.42.48.74.87.56a1.75,1.75,0,0,0,.76-1,1,1,0,0,0-1.44.54m54.31-8.51a3.94,3.94,0,0,0-.29-2.23c.14.61-.35,1.19-.39,1.82s1.09,1.06,1.08.44M355.12,185.17a1,1,0,0,0-.48-1.41,1,1,0,0,0,.47,1.67M216.13,383l-1,1c.59.08,1.32.1,1.64-.4s-.63-1.22-.81-.65M214.3,360c-.11.39.46.69.82.5a1.2,1.2,0,0,0,.49-1.05,1,1,0,0,0-1.4.57m56.58,6.21.48,2a4.22,4.22,0,0,0,.22-2.23c-.18-.38-.91-.16-.84.26M216.9,296.87c.41.32.82-.55.47-.94a2.84,2.84,0,0,0-1.75.19l1.29.75M146.16,27.68l.43-2.21a1.37,1.37,0,0,0-.36,2.35m20.09,225.81a1.12,1.12,0,0,0,1.84-.4,1.15,1.15,0,0,0-1.66.29M349.06,127.6c.61.21.34-1.07-.3-1s-1.25.57-1.87.39a3.57,3.57,0,0,0,2.23.3M144.59,248.16c-.61-.21-.34,1.07.3,1s1.25-.57,1.87-.39a3.66,3.66,0,0,0-2.23-.3m170.17,194c-.25-.29-.7.29-.45.57a1,1,0,0,0,1.07.08,1.75,1.75,0,0,1,1.1-.24,2,2,0,0,0-1.72-.27m-33.1,21c.21.4.8-.31.46-.6s-.87-.11-1.28.09.35.89.65.57M77.8,127.55c-.09-.43-.86-.19-.86.25s.42.75.81.95l.22-1.23M350.11,378.74a1.23,1.23,0,0,0,1.71.31,1.92,1.92,0,0,0-1.82-.61m-2.83-241.83,1.65.54c.11-.9-1.51-1.27-1.8-.41m67.72,1.16c-.74.07-.49,1.5.24,1.35a.82.82,0,0,0-.27-1.23m6.74.77-1.1-.38a.68.68,0,1,0,1.2.34M347.64,401.14l-1.14.18c.28.41.68.88,1.17.79s.35-1.09-.09-.85M277,399.41a1.06,1.06,0,0,0-1.45.53.83.83,0,0,0,1.42-.5m-161.93-.19c-.41-.32-.81.55-.47.94a1.14,1.14,0,0,0,1-.35c.19-.3-.21-.82-.47-.56M253,169a1,1,0,0,0-1.32-.6,1.65,1.65,0,0,0,.67,1c.36.18.92-.08.84-.48m-13.57,12c-.17-.45-.94,0-.83.45s.62.68,1.07.84l-.23-1.29M94.12,262.47a.57.57,0,1,0-.64-.73c-.21.34.26.83.61.64m215.58,36.85c.26-.4-.63-.67-.84-.24s.09.92.38,1.3a.68.68,0,0,0,.23-1.15M350,133.61a1.72,1.72,0,0,0-.49,1.59,1.17,1.17,0,0,0,.55-1.84Z"/></g></svg>