<svg id="Layer_1" data-name="Layer 1" xmlns="http://www.w3.org/2000/svg" viewBox="0 0 500 500"><title>Artboard 3</title><g id="Shape_4" data-name="Shape 4"><path d="M78.43,248c.83-1.18,2.45-2.43,3.52-1.47a50.47,50.47,0,0,1-5.26,10.11c-.65,1-2,2-2.81,1.19-.61-.59-.29-1.6.09-2.36A56.44,56.44,0,0,1,78.43,248Z" fill="#1a1a1a"/><path d="M87.16,388.77a5.53,5.53,0,0,1,7.22-1.17,1.76,1.76,0,0,1,.78.92c.21.77-.49,1.48-1.18,1.88a10.15,10.15,0,0,0-8.7,1.66,5.43,5.43,0,0,1-.94-4.15A2.08,2.08,0,0,1,87.16,388.77Z" fill="#1a1a1a"/><path d="M177.58,413.11c1.27-.36,3.06-.48,3.49.77a50.5,50.5,0,0,1-11.46,3.71c-.53-1.47,1.36-2.59,2.87-3Z" fill="#1a1a1a"/><path d="M198.12,382.89a5.89,5.89,0,0,1,5.3-3.27,11.54,11.54,0,0,1,3.52.82,25.23,25.23,0,0,1-8.27,3.72Z" fill="#1a1a1a"/><path d="M192.49,379.43a4.07,4.07,0,0,0,3.83,1.53c-.07,1.65-2.3,2.5-3.79,1.76a5.72,5.72,0,0,1-2.61-4,1.7,1.7,0,0,1,2.46.76Z" fill="#1a1a1a"/><path d="M190,375.14a1.42,1.42,0,0,1-1.69,1.28c0,1.25-.14,2.71-1.19,3.39s-2.87-.54-2.18-1.59C186.14,376.43,188,374.4,190,375.14Z" fill="#1a1a1a"/><path d="M121.81,253.81c-.13,1-1.55,1.19-2.3.59a4.27,4.27,0,0,1-1.17-2.58,3.92,3.92,0,0,0-1.25-2.53,2.06,2.06,0,0,1,1.85-.35Z" fill="#1a1a1a"/><path d="M55.91,232.73c-1.1.76-2.77-.75-2.23-2a1.88,1.88,0,0,1,3.21,0,1.62,1.62,0,0,1-.94,2Z" fill="#1a1a1a"/><path d="M205.84,375.32l-1.51,0a3.77,3.77,0,0,1-.79-2.74,2.06,2.06,0,0,1,2.63,3.15Z" fill="#1a1a1a"/><path d="M199.91,372a1.58,1.58,0,0,1-.23,1.32l-3.28-.15a2,2,0,0,1,3.69-1.26Z" fill="#1a1a1a"/><path d="M192,410.88a4.29,4.29,0,0,1-2.7.41,2.12,2.12,0,0,1,2.65-2.5,1.77,1.77,0,0,1,0,2Z" fill="#1a1a1a"/><path d="M185.75,385a2.57,2.57,0,0,1,2.15-.44,1.9,1.9,0,0,1-1.21,2.7c-1.15.13-1.93-1.75-.9-2.27Z" fill="#1a1a1a"/><path d="M99.43,388.11a4,4,0,0,1-2.56.58,3.1,3.1,0,0,1-.23-1.85,10.16,10.16,0,0,1,3.35-.21,1,1,0,0,1-.55,1.45Z" fill="#1a1a1a"/><path d="M100.23,389.29l2.84-.14a2.14,2.14,0,0,1,.26,1.38,14.45,14.45,0,0,1-3.87.2.72.72,0,0,1,.73-1.1Z" fill="#1a1a1a"/><path d="M74.26,387.24a2.18,2.18,0,0,1-1.5-2.16,7.38,7.38,0,0,1,2.8.26,1.39,1.39,0,0,1-1.27,1.75Z" fill="#1a1a1a"/><path d="M109.07,244a1.82,1.82,0,0,1,3-.44,1.9,1.9,0,0,1-3.26.49Z" fill="#1a1a1a"/><path d="M198.11,377.43l-1.76-.81c-.31-.52.18-1.23.77-1.37a3,3,0,0,1,1.76.34,1.55,1.55,0,0,1-.77,1.75Z" fill="#1a1a1a"/><path d="M366.36,278.72a9.42,9.42,0,0,1-2.61,7.14,27.92,27.92,0,0,1-6.17,4.78q-1-8.78-1.44-17.61a2.4,2.4,0,0,1,.19-1.36c.49-.84,1.71-.77,2.67-.59,1.5.28,3.12.62,4.15,1.75,1.34,1.46,1.24,3.74.72,5.65s-1.37,3.81-1.26,5.79a9,9,0,0,1,3.73-5.54m-5.86,1.83a3.84,3.84,0,0,0-.56-2.33c.16.63-.35,1.24-.37,1.89s1.18,1,1.11.39Z" fill="#1a1a1a"/><path d="M281.38,326.08a1.82,1.82,0,0,1-1.06.32,48.43,48.43,0,0,1-8.93-.11c-.66-1,.94-1.88,2.12-2l5.24-.45a3.7,3.7,0,0,1,2.25.28C281.66,324.54,282,325.58,281.38,326.08Z" fill="#1a1a1a"/><path d="M350,279.34a4.56,4.56,0,0,1,5,5.25,3.33,3.33,0,0,1-2.22.29,3,3,0,0,1-.23-1.88A3,3,0,0,1,350,279.34Z" fill="#1a1a1a"/><path d="M291.21,319.61c.22.85-1,1.3-1.85,1.36-2.71.16-6.25-.25-6.85-2.89l7.21.72C290.32,318.85,291.06,319,291.21,319.61Z" fill="#1a1a1a"/><path d="M443.49,230.16c-.39,1-1.9.43-2.65-.32a19.81,19.81,0,0,1-3.34-4.46,6.17,6.17,0,0,1,5.87,3.7A1.49,1.49,0,0,1,443.49,230.16Z" fill="#1a1a1a"/><path d="M351.9,278.77a3.06,3.06,0,0,1-3.59-1.66l4.21-1.23a2.11,2.11,0,0,1,1.31-.09,1.45,1.45,0,0,1,.42,2.15,4.21,4.21,0,0,1-2.12,1.3Z" fill="#1a1a1a"/><path d="M442.74,203.68h2a1.69,1.69,0,0,1-1.55,2.59,1.88,1.88,0,0,0-1.4-1.34l.81-1.31Z" fill="#1a1a1a"/><path d="M353.26,316.35a2.51,2.51,0,0,1-1.22-2.44,4.16,4.16,0,0,1,2.31-.26,1.7,1.7,0,0,1-1,2.59Z" fill="#1a1a1a"/><path d="M347.63,307a2.11,2.11,0,0,1-1.55,1.09,8.12,8.12,0,0,1-.21-2.88c1-.76,2.58.84,1.82,1.83Z" fill="#1a1a1a"/><path d="M406.37,202.37a1.69,1.69,0,0,1-2.27-1.53,1.27,1.27,0,1,1,2.15,1.32Z" fill="#1a1a1a"/><path d="M267.84,263.83c-.16,1-1.91,1-2.41,0a3.61,3.61,0,0,1,.3-3.05,4.58,4.58,0,0,0,.6-3.05c-.39-1.29-1.83-1.88-3.11-2.31l-11.54-3.87c-2-.67-4.42-2-4-4.1,4.66.2,9,2.26,13.39,3.84,5.34,1.92,11.13,3.18,16.67,2a1.9,1.9,0,0,1-.57,2.49,5.51,5.51,0,0,1-2.66.86l-5.19.73c1.14.5,1,2.2.39,3.25S268,262.6,267.84,263.83Z" fill="#1a1a1a"/><path d="M237.79,262a3.4,3.4,0,0,1-.4-1.84,2.82,2.82,0,0,1,.79-1.46,5.26,5.26,0,0,1,6-1.18,4.75,4.75,0,0,1,2.42,5.49,4.34,4.34,0,0,1-5.19,2.79,6.47,6.47,0,0,1-3.61-3.79m5.39.4a1.85,1.85,0,0,0-2.74-1.84,2.72,2.72,0,0,0,2.4,1.64Z" fill="#1a1a1a"/><path d="M204.07,289.42a3,3,0,0,1,3.23,3.1,3.6,3.6,0,0,1-3.37,3.22,4.43,4.43,0,0,1-4.07-2.57,4.08,4.08,0,0,1-.31-2.74,3.56,3.56,0,0,1,4.24-2.43,2.13,2.13,0,0,1,.28,1.42m-.6,1.82a.69.69,0,0,0,.4-1.09c-.45.05-1,.17-1.13.59s.65.81.71.37Z" fill="#1a1a1a"/><path d="M192.48,282.53c-.89-1.43,1.14-2.94,2.8-3.16a12.81,12.81,0,0,1,7.19,1.13c.38.68-.26,1.56-1,1.75a5,5,0,0,1-2.31-.23A11.47,11.47,0,0,0,192.48,282.53Z" fill="#1a1a1a"/><path d="M318.81,265.85c-.68-.22-.92-1-1.08-1.72a44.27,44.27,0,0,0-2.13-6.64,1.57,1.57,0,0,1,2.22-.12,4.57,4.57,0,0,1,1.23,2.14l1.05,3a4.11,4.11,0,0,1,.34,2.21,1.42,1.42,0,0,1-1.64,1.16Z" fill="#1a1a1a"/><path d="M213.34,294a12.46,12.46,0,0,1,6,4,2,2,0,0,1,.6,1.42,1.49,1.49,0,0,1-1.75,1.09,4.33,4.33,0,0,1-2-1.12C214.58,298,212.72,296,213.34,294Z" fill="#1a1a1a"/><path d="M209.34,284.59a6.4,6.4,0,0,1-5.21-2.1l-.09-1.62A5.47,5.47,0,0,1,209.34,284.59Z" fill="#1a1a1a"/><path d="M196.3,231.17A3.31,3.31,0,0,1,193,234a3.08,3.08,0,0,1,3.1-4.14,1.7,1.7,0,0,1,.24,1.28Z" fill="#1a1a1a"/><path d="M190.81,291.36c-.65.54-1.76-.21-1.69-1.05a1.76,1.76,0,0,1,1.81-1.43,4,4,0,0,1,2.3,1,1.55,1.55,0,0,1-2.21,1.59Z" fill="#1a1a1a"/><path d="M239.3,254.26l-1.56.35-.8-1.35a9,9,0,0,1,3.87-1.87,1.87,1.87,0,0,1-1.57,2.57Z" fill="#1a1a1a"/><path d="M304.22,243.52a1.48,1.48,0,0,1-1.75,1.76,3.92,3.92,0,0,1-.8-2.86,1.85,1.85,0,0,1,2.44,1.13Z" fill="#1a1a1a"/><path d="M283,238.82a2,2,0,0,1-2.79-2,1.08,1.08,0,0,1,1.09-.74,3.81,3.81,0,0,1,1.82,2.46Z" fill="#1a1a1a"/><path d="M159.89,287.74a1.94,1.94,0,0,1-.17-3.88l.18,3.32Z" fill="#1a1a1a"/><path d="M232.83,298.77l-1.78,1a4,4,0,0,1-1.36-1.86,3.12,3.12,0,0,1,2.93-.7l.26,1.49Z" fill="#1a1a1a"/><path d="M188.37,285.85l1.78.2a4,4,0,0,1-.8,2,1.37,1.37,0,0,1-1.9.19l.62-2.36Z" fill="#1a1a1a"/><path d="M182.21,277.2a1.37,1.37,0,0,1,1.25.22,2.32,2.32,0,0,1-1.76,2.82,2.58,2.58,0,0,1,.47-3.11Z" fill="#1a1a1a"/><path d="M258.41,97.52c0-1,1.43-1.12,2.39-.93q8.32,1.68,16.5,4c-2.12,1.62-4.35,3.3-7,3.8a8.91,8.91,0,0,1-9.51-4.93c.77.86.2,2.35-.8,2.92a6.11,6.11,0,0,1-3.39.45,117.93,117.93,0,0,0-86.19,31.45c-2.24-.82-.71-4.22,1.11-5.76a124,124,0,0,1,70.22-28.75,5.41,5.41,0,0,0-5.57-.85c.11-2,2.5-3.25,4.49-2.91s3.6,1.73,5.1,3.07l1.69-3.15a17.43,17.43,0,0,1,10.93,1.63m8.06,3.9a4.65,4.65,0,0,0,2.31-.26,2.46,2.46,0,0,0-1.56-.88c-.61,0-1.2.76-.8,1.23Z" fill="#1a1a1a"/><path d="M313.44,127.59c-.72,1.57-3.17,1.35-4.43.17s-1.84-2.91-2.91-4.27-3.15-2.28-4.49-1.19a2,2,0,0,1,2.14,1.46,4.64,4.64,0,0,1-2.35.26l-.52-2a4.49,4.49,0,0,1-2.92-.85c.3-1.7,2.46-2.22,4.18-2.36l-1.29-1.87c-.85-.54-1.8.47-2.65,1-1.92,1.23-4.47,0-6.19-1.47s-3.42-3.36-5.7-3.55c-1.25-.11-1.82-1.73-1.51-2.95a5.33,5.33,0,0,1,5-3.62,10.26,10.26,0,0,1,6.14,2.14c2.19,1.53,4.17,3.72,4.44,6.38.08-1.19,1.86-1.44,2.85-.77s1.57,1.83,2.56,2.5,2.43.81,3.29,1.71.12,3-1,2.41a17.76,17.76,0,0,1,9.12,5.58c1,1.19,1.89,3,.86,4.23l3.33-.37a7.26,7.26,0,0,0,3.9,4.41c.57,1-1.08,1.84-2.22,1.67a7.82,7.82,0,0,1-5.36-3.45,5,5,0,0,0-2.24,1L314,132.53c-.84-.65-1.76-1.5-1.62-2.55s2.15-1.21,2-.16a1.35,1.35,0,0,0-.91-2.23m-22.06-15.5c2.16.23,5,1.2,4.78,3.36,0,.44.49.67.92.77a3.91,3.91,0,0,0-1.18-4.37,11.44,11.44,0,0,0-4.33-2.12l-.18,2.37m19.3,12c-.51.6.26,1.59,1,1.53a2.49,2.49,0,0,0,1.77-1.41l-2.81-.18Z" fill="#1a1a1a"/><path d="M283.74,107.61a2,2,0,1,1-3.37,1.6c-.4.85-1.63-.08-2-.95l-2.16-5.12,6.53,0a5,5,0,0,1,2.38.38,1.72,1.72,0,0,1,.93,2c-.62,1.53-3.08.54-4.53,1.34A1.92,1.92,0,0,0,283.74,107.61Z" fill="#1a1a1a"/><path d="M156.44,143.84a9.76,9.76,0,0,1-7.49,7.8A10.14,10.14,0,0,1,156.44,143.84Z" fill="#1a1a1a"/><path d="M128.76,188.46a2.86,2.86,0,0,1,2.78-3.38,13.08,13.08,0,0,1-1.27,6c-.43.9-1.6,1.85-2.27,1.1a7.91,7.91,0,0,1,.31-3.66Z" fill="#1a1a1a"/><path d="M324,141.4a3,3,0,0,1-1.6-1.59l-1.86-3.15c1.72-.09,3.68-.09,4.86,1.17s.26,4-1.4,3.57Z" fill="#1a1a1a"/><path d="M354.69,176.87l.21.82c.11.41.18.93-.15,1.19s-.87,0-1.23-.25a9.22,9.22,0,0,1-2.23-2.49,1.94,1.94,0,0,1-.37-1.09c.06-1,1.53-1.37,2.36-.8A4.35,4.35,0,0,1,354.69,176.87Z" fill="#1a1a1a"/><path d="M323.23,142.14l4.47,0c.66,0,1.47.08,1.74.68a4.67,4.67,0,0,1-3.54,2A2.64,2.64,0,0,1,323.23,142.14Z" fill="#1a1a1a"/><path d="M234.6,97.33a1.65,1.65,0,1,0-.42,2.83A1.74,1.74,0,0,0,234.6,97.33Z" fill="#1a1a1a"/><path d="M336.44,157.1a2.22,2.22,0,0,1-2.86-2.56,2.62,2.62,0,0,1,3,2.38Z" fill="#1a1a1a"/><path d="M338.42,163.38a1.42,1.42,0,0,1,2.41-.74,1.75,1.75,0,0,1-.9,2.63l-1.38-1.84Z" fill="#1a1a1a"/><path d="M159.13,142.55c-.56.87-2.15-.11-1.84-1.1a1.8,1.8,0,0,1,2.61-.71l-.8,1.81Z" fill="#1a1a1a"/><path d="M134.43,178.46c-.43.44-1.25.06-1.44-.53a2.73,2.73,0,0,1,.25-1.79l1.7-.29a1.61,1.61,0,0,1-.82,2.29Z" fill="#1a1a1a"/><path d="M308.05,288c1.27,5-.9,10.8-5.39,13.33s-10.93,1.11-13.56-3.32a13.2,13.2,0,0,1-1.13-9.21c.72-3.73,2.65-7.5,6-9.21,1.31-.66,3-.94,4.16-.05a8.07,8.07,0,0,0,3.05,1c3.43.88,6,4,6.83,7.47m-8.58-3a10.87,10.87,0,0,0-7.35,3.89,2.26,2.26,0,0,1-1.75.82c3,1.18,3.49,5.46,6.24,7.1s6.84-.65,7.44-3.88S302.43,286.44,299.47,285Z" fill="#1a1a1a"/><path d="M260.87,278.17a2.62,2.62,0,1,1-.15-4.76.93.93,0,0,1-.17,1.54,1.44,1.44,0,0,1,1.51,1.39A2.07,2.07,0,0,1,260.87,278.17Z" fill="#1a1a1a"/><path d="M267.52,284.31l2,.19a2.47,2.47,0,0,1-2.17,2.06,7.23,7.23,0,0,1-3.17-.44l0-1.53a9.37,9.37,0,0,1,3.35-.21Z" fill="#1a1a1a"/><path d="M255.21,273.62a.78.78,0,0,1,1.09.3A2.13,2.13,0,0,1,255,277c-1.28.21-2.43-1.6-1.54-2.55l1.68-.88Z" fill="#1a1a1a"/><path d="M254.93,223c-.33,1.68-2.39,2.27-4.08,2.51a180.56,180.56,0,0,1-26,1.77,1.13,1.13,0,0,1-.12-1.69,3.24,3.24,0,0,1,1.74-.81q12.92-3.05,26-5.12A4.54,4.54,0,0,0,254.93,223Z" fill="#1a1a1a"/><path d="M303.92,464.87a19.15,19.15,0,0,1,8.67-.4,8.68,8.68,0,0,1,2.73.91c.94.53,1.72,1.91.88,2.6-.55.45-1.36.2-2,0a18.27,18.27,0,0,0-12.06.11,1.45,1.45,0,0,1-.21-2.07A3.68,3.68,0,0,1,303.92,464.87Z" fill="#1a1a1a"/><path d="M295,460.39a3.35,3.35,0,0,1-1.79-4.54,14.07,14.07,0,0,1,6.46,5.52l-1.26,1.21-3.54-2Z" fill="#1a1a1a"/><path d="M287.73,441.06a2.91,2.91,0,0,1,.84,4.78,11.92,11.92,0,0,1-1.75-3.82,1.44,1.44,0,0,1,0-1.1c.2-.32.78-.39.92,0Z" fill="#1a1a1a"/><path d="M289.86,454.2v-1.55a1.83,1.83,0,1,1,.81,3.48l-.68-2Z" fill="#1a1a1a"/><path d="M284.12,446a1.28,1.28,0,0,1-1.66,1.61,1.27,1.27,0,1,1,1.69-1.62Z" fill="#1a1a1a"/><path d="M283.69,435.7a1.29,1.29,0,0,1-.74,2.25,2.46,2.46,0,0,1-1.34-2.26,2.09,2.09,0,0,1,2.09,0Z" fill="#1a1a1a"/><path d="M287.54,430.79a1.47,1.47,0,0,1-1.28-.22V429a3,3,0,0,1,2.61,0,2.9,2.9,0,0,1-1.33,1.78Z" fill="#1a1a1a"/><path d="M225.59,392.55a2.8,2.8,0,0,1-1.8.26,15.39,15.39,0,0,1-2.23-9.53,1.7,1.7,0,0,1,2,0,2.83,2.83,0,0,1-1,3.06A5.68,5.68,0,0,1,225.59,392.55Z" fill="#1a1a1a"/><path d="M228.48,389.64a2.54,2.54,0,0,1-1.36-2.37,3.42,3.42,0,0,1,3.53,1.24c.49,1.14-1.52,2.22-2.2,1.18Z" fill="#1a1a1a"/><path d="M225.11,381.58l3.93-.13a2,2,0,1,1-4.08.3Z" fill="#1a1a1a"/><path d="M291.45,490a2.2,2.2,0,0,1,2.54-2.72,2,2,0,0,1,1.06,3,1.8,1.8,0,0,1-3-.51Z" fill="#1a1a1a"/><path d="M285.77,490.84c.51,0,.59.93.08,1-.84.63-2.37.28-2.49-.77s1.91-1.39,1.9-.34Z" fill="#1a1a1a"/><path d="M370,263.06a4.48,4.48,0,0,1-1-3.64,2.06,2.06,0,0,1,1.72-.15,2.38,2.38,0,0,1-.66,3.92Z" fill="#1a1a1a"/><path d="M373.33,262.73a3.26,3.26,0,0,1,3.94.27,3.58,3.58,0,0,1-3.89,1.25,1.13,1.13,0,0,1,0-1.5Z" fill="#1a1a1a"/><path d="M298.33,295.53a3.53,3.53,0,0,1-1.86-3.17,10.4,10.4,0,0,1,.82-3.76c.2-.57,1-.65,1.57-.63a5.88,5.88,0,0,1,3,.65,2,2,0,0,1,.8,2.7A5.1,5.1,0,0,1,298.33,295.53Z" fill="#1a1a1a"/><path d="M213.17,499.69H200.92L195,422c-.56-7.4-1.09-15.07,1.51-22,2.36-6.29,7.06-11.38,10.44-17.19s5.36-13.33,1.91-19.1c-5.85,2.89-12.77.7-19.26.08s-14.74,2-15.41,8.47c-.63,6.09-7.27,9.37-13,11.49-35.85,13.25-77,24.83-111,7.34a163.86,163.86,0,0,0,118.68-15.45c-37.87,15.13-81.1,28.77-118.3,12.05l30.24,1.63a63.93,63.93,0,0,0,42.93-1.82,75.79,75.79,0,0,1-27.3-8.73l-33.62,6A117.78,117.78,0,0,1,94.57,366a94.07,94.07,0,0,0-23.9,8.26,119.45,119.45,0,0,1,75.16-23.84l3.84-6.35c1.49-1.19-2-2.8-3.05-1.23s-.72,3.83-1.86,5.36-4.5-.32-2.91-1.37l9.85-59.86c2.11-12.84,4.27-25.83,9.43-37.78,11.43-26.43,36.17-44.63,61.53-58.26.3-8.78.43-18.18-4.36-25.54s-16.51-10.76-22.4-4.24a162,162,0,0,0-34.89,62c-2.65,8.86-14.54,11-23.51,8.72s-17.62-7.18-26.82-6.26c-19.35,1.92-28.56,27.51-47.49,32a16.48,16.48,0,0,1,9.38-11.21L57.76,250.5l5.38-10.82c-2.5,3-7.85-.44-7.82-4.33s3.08-7,5.93-9.63l-9.38,3.65a15.4,15.4,0,0,1,7.65-13.66l-8.09.7,4.09-9.48a7.75,7.75,0,0,1-6.76-2.38l6.11-2.62a5.45,5.45,0,1,1,4.67-9.77l-5.79-1.43a9.6,9.6,0,0,1,4.49-10.44c-1,2.59-4.23-1.27-4-4L56,158.71a20.64,20.64,0,0,0,11.4-16.91l7.63.27a5.55,5.55,0,0,1-5.2-4.19l7.25-1.38a9,9,0,0,1-6.66-3.23l9.2-2.73L73.18,120.2l7.47.19,4.08-9.93,7.8,2-5.9-4.9c-1.87,1.16,2.21,3.27,3.18,1.29s-.35-4.26-.59-6.45c-.57-5.25,7-9.12,10.92-5.59-3.86-.17-6.21-4.84-5.43-8.63s3.61-6.76,6.32-9.52l18.69-19c4.17-4.23,10-8.82,15.42-6.31A8.22,8.22,0,0,1,130.41,49c4.91.53,9.53-4.62,8.48-9.44l7.63,3a2.87,2.87,0,1,1,3.42-3.19,11.13,11.13,0,0,1,2.8-10.63c.95,2.2,5.14.36,4.17-1.83l11.95,2.51.08-7.29L175,27.87a19.3,19.3,0,0,1-1.38-11.46l33.71-9.22c19.36-5.29,40-10.58,59.15-4.41,2.13.69,4.63,3.09,3,4.65a48.93,48.93,0,0,1,11.34-3.06l.49,6.73c.31-6.58,10.05-6.66,16.3-4.57l46.46,15.55A4.24,4.24,0,0,1,343,28.92l8.84-4.51a6.59,6.59,0,0,1-.08,7.13c3.61-4,10.18-1.07,14.5,2.16a239.7,239.7,0,0,1,48.11,48.09c1.47,2-1.09,5.36-3.43,4.45,4.07.38,7.39,3.32,10.22,6.26,26.67,27.72,36.81,70.27,25.5,107l1.87,2.77L436,206.75c5.56-.68,11.14,4.25,11.15,9.85l-9.26-3.94,7.66,5.83c-2.19-1.07-4.17,3.16-2,4.16-3.37-1.82-9.81-1.24-8.43,2.33-19.35-29.89-64.5-39.06-94-19.08,6.36-1.1,12.92-2.12,19.23-.72s12.37,5.8,13.81,12.09c2.31,10.07-7.49,18.66-16.74,23.25-5.09,2.53-13.4,3.2-14.41-2.39A21,21,0,0,0,361.73,255c5.58.39,11.29-1.51,16.71-.12s9.66,8.88,5.38,12.48a275.61,275.61,0,0,0-50.44,9.53,39.62,39.62,0,0,1,9,33.52l11.66-2.88c-5.25.22-5.55-9.87-.3-10l-3.47-10.08,5.56-.36a73.53,73.53,0,0,1,1.78,23.12,45.3,45.3,0,0,1-22.36,4.18,10.64,10.64,0,0,0,8.44,1.28c2.44,3.62-3.49,7-7.84,7.32a342,342,0,0,1-47.19.37,44.86,44.86,0,0,1,31.45-8l-86-1.58a107.62,107.62,0,0,1,43.55,8.2l-43.86,2.57a452.14,452.14,0,0,0,111.45-1.05,13.46,13.46,0,0,0,11.1-10.34c5.78,5.16,4,15.36-1.81,20.49s-14.09,6.3-21.84,6.34-15.65-.8-23.14,1.18c-2.77,8-5.57,16.17-5.17,24.59s4.77,17.22,12.61,20.33c11.7,4.64,13.36,23.81,2.63,30.39-5,3.09-12.25,4.2-14.21,9.77-1.33,3.79.56,7.85,1.57,11.74s.46,9.1-3.34,10.42c9.27,2.25,18.59,6.08,24.75,13.35s8.22,18.66,2.67,26.42-16.31,9.52-25.88,10.28a469.36,469.36,0,0,1-68.14.43A158.58,158.58,0,0,0,210.21,471l3,28.65m16.49-15.46c.52-.6-.77-1.25-1.42-.8a7.05,7.05,0,0,0,4.2,2.28,2.8,2.8,0,0,0-2.69-1.38M104.34,361.9a8.47,8.47,0,0,0-4.08,1.55,20.2,20.2,0,0,0,6.62-2.37,2.34,2.34,0,0,0-2.55.86M246.78,213.37l10.3-3.37c-3.65-.61-7.16,1.42-10.3,3.37M164.2,159.8c-.65,0-1.15-.66-1.15-1.31a3.6,3.6,0,0,1,.71-1.8l1.15-1.84a58.81,58.81,0,0,0-6.52,8.41,14.71,14.71,0,0,0,5.81-3.46m46.12,251.39A12.25,12.25,0,0,0,219.1,423a8.75,8.75,0,0,0,6.08-.38,12.2,12.2,0,0,0,3.05-2.34c-1.41-.34-2.67.82-4,1.5-3,1.58-6.81.51-9.27-1.78s-3.77-5.54-4.68-8.77M245,492.47l19.08,5.31a4.05,4.05,0,0,0,1.53.22,2.05,2.05,0,0,0,1.58-1.11L249,493.12a31.36,31.36,0,0,0-4-.65M159.42,338.55a4.21,4.21,0,0,0,4.73,3.1,78,78,0,0,0,4.77-23.94L165,337.49a3.72,3.72,0,0,1-.49,1.42c-1.08,1.57-3.51.67-5.11-.36m62,139.2c-6.68-8.55-13.45-17.26-17.4-27.36-.75-1.9-1.39-3.84-2-5.78l-2-6.13c.14,4.52,1.67,8.88,3.5,13a88,88,0,0,0,18,26.26M310.54,485a2.82,2.82,0,0,0-2.43-2.2,8.25,8.25,0,0,0-3.46.42,5.43,5.43,0,0,1,.27-7,7.58,7.58,0,0,1,7-2.07,4.49,4.49,0,0,1,2.92,1.64c.92,1.34.57,3.16.14,4.73,1.62-1.71,1.4-4.66-.11-6.47a8.19,8.19,0,0,0-6.34-2.6,5.65,5.65,0,0,0-4.38,1.63,6.14,6.14,0,0,0-1.18,3.34,9.77,9.77,0,0,0,1.33,6.79c1.38,1.92,4.16,2.95,6.21,1.78M241.14,166.65a5.3,5.3,0,0,0-2.63-3,7.1,7.1,0,0,0,6.2,4.63c-.56,1.09-.48,2.38-.83,3.56s-1.52,2.32-2.66,1.87a6.15,6.15,0,0,1,6,5.62c.18,3.53.47,7.35,2.8,10l-2.64-14.32c-1.05-5.7-2.1-11.51-1.29-17.25s3.86-11.47,9.06-14c-2.15-.44-4.18,1.11-5.65,2.73s-2.92,3.51-5,4.07l1.15,1.64c-.84.06-.93,1.3-.59,2.08s.83,1.72.29,2.38a5.55,5.55,0,0,0-.79,4,9.56,9.56,0,0,1-.13,4.17c-.49,1.32-2,2.37-3.29,1.77m-9.6,152a55.38,55.38,0,0,0-23.25-33.82c9.41.85,15.85,9.56,21,17.47,3.27-1.35,4.31-5.52,4.07-9s-1.29-7.11-.43-10.54c.4.93,2,.48,2.27-.5a3.77,3.77,0,0,0-.8-2.84,13.36,13.36,0,0,0,5.69-3l-11.8-6.67a22.76,22.76,0,0,1-6.15,5.23,8.16,8.16,0,0,1,3.57-7.28,6.16,6.16,0,0,1-3.39-6.77q7.23,5.15,14.72,9.92c2.58,1.64,5.92,3.27,8.53,1.66a44.94,44.94,0,0,1,35.66-4.93,6,6,0,0,1-2.33-8.25l-6.39,5.42c-.61.52-1.46,1.07-2.15.65-.93-.56-.36-2,.36-2.81,4.43-4.95,11.17-7.17,17.73-8.17,3.16-.48,6.45-.72,9.48.31s5.72,3.58,6,6.75-2.43,6.57-5.6,6.17a306,306,0,0,0,39.81-.38l-11.08-1.24a5.14,5.14,0,0,1,.77-4.9,4.22,4.22,0,0,1-1.42-4.76,41.19,41.19,0,0,0-14.19-.84c-2,.23-2.82-2.53-2.4-4.47s1.29-4.15.11-5.75c-.79-1.07-2.21-1.4-3.31-2.14s-1.79-2.54-.7-3.3a7.25,7.25,0,0,1,7.29,6.87c0,2.87,2.68,5.16,5.48,5.79s5.7,0,8.5-.64c-4.68-.69-10.28-2.14-11.61-6.68a13.3,13.3,0,0,0-15.53-8.8l-1-5.33a12.61,12.61,0,0,1-9.32-1.76c-.15-1.25,1.35-2.18,2.59-2a6.13,6.13,0,0,1,3.08,2.07,4.86,4.86,0,0,1,4.11-6.49c-4.94-.39-9.31,2.85-13.56,5.39-12.51,7.48-27.64,9.73-42.17,8.6s-28.63-5.43-42.36-10.31c-5.82-2.07-11.89,2.2-16.21,6.62a94.33,94.33,0,0,0-23.58,41.53,3,3,0,0,1-3.31,2.08c2.73,0,3.25,5,.58,5.55l-1.31-3.07a60.26,60.26,0,0,0-.87,12.06l2.24-2.67q.68,10.34.58,20.71l3.33-25.16.38-2.87c.54-4.05,1.07-8.1,1.55-12.16.76-1.12,2.73-.28,3,1s-.46,2.63-1.17,3.78a12.13,12.13,0,0,0,3.86-10.37c-1.11-8.74,6.26-16,13.07-21.61a2.18,2.18,0,0,1-2.38-3l11.11-3.77a13.15,13.15,0,0,0,4.51-2.21c1.41-1.22,3.4-3.14,4.67-1.77l-.23,3.31a2.86,2.86,0,0,1,4.81-.42l-7,8c-1.3,1.48-2.66,3.56-1.63,5.24,1.86,3,.17,6.91-1.51,10-4.95,9.18-10.56,19-20.14,23.13-1.44.62-.37,2.8.85,3.77s2.53,2.93,1.23,3.81A27,27,0,0,1,189.1,282a92.12,92.12,0,0,0-3.61,13.52,23.24,23.24,0,0,0,12.89,4.83c1,.06,1.26,1.71.48,2.42a4.08,4.08,0,0,1-3,.65l-8.49-.38c2.3,1.15,4.69,2.32,7.26,2.38s5.36-1.33,6.06-3.8a19.58,19.58,0,0,1,7.91,5,10.74,10.74,0,0,0,0-10,87.23,87.23,0,0,1,13.65,9.43,1.58,1.58,0,0,1-1.38,1.9,18.46,18.46,0,0,1,10.65,10.65m47.62-119.87a33.25,33.25,0,0,1-17.23,6.16c4.06,1.73,8.57-.58,12.66-2.22a42.85,42.85,0,0,1,33.41.83c5,2.32,11.15,5.58,15.6,2.26-8.27-10-14.81-21.37-22.52-31.84s-16.91-20.32-28.7-25.81c-4.47-2.08-9.93-3.44-14.19-.94-6.24,3.65-5.91,12.63-4.78,19.77l3.16,20c.49,3.12-3,6.11-6,5.12,13,.22,26.6.58,38.06,6.75a50.7,50.7,0,0,1-16.69-1c-5.75-1.33-11.94-3.64-17.31-1.19,7.33,4,16.25,3.16,24.55,2.19M142.08,174.39c-1.39,2.24-2.83,4.76-2.36,7.35,12.9-27,33.46-51,60.23-64.48s60-15.28,86.52-1.41c17.32,9,30.87,23.95,42.34,39.76a275.32,275.32,0,0,1,24.09,39.95L347,175a56.39,56.39,0,0,1,6,5.72L364.78,193c-9.19-20.22-21.88-38.7-36-55.83-7.06-8.56-14.55-16.87-23.37-23.59C283.7,97,254.67,91.28,227.82,96.15s-51.38,19.82-69.73,40-30.72,45.38-37.74,71.75q3.19-8,7.07-15.7l1.38,5.41a126.15,126.15,0,0,1,29-48.67l-15.75,25.45M260.7,270.65l-17.25,5.53a4.67,4.67,0,0,0,5.85-.19c.81-1,2.77.12,2.35,1.33a16.9,16.9,0,0,1,12.19,11.45c3.64-1,8.17-1.8,10.68,1a1.32,1.32,0,1,1,2,.51,3.93,3.93,0,0,0-1.15,2.72l-1.67,11.81c-.28,1.95-.48,4.16.81,5.65a7,7,0,0,0,4,1.82c3.81.84,7.81,1.68,11.54.55s6.94-5,5.95-8.74c4.79,1.26,9.82-2.09,12.15-6.47s2.58-9.51,2.78-14.46c.11-2.71-.67-6.42-3.38-6.38-14.52.2-29.71.25-42.63-6.38-1.28-.65-2.81-.23-4.18.21m-1.88-47.11c-1-.92.49-2.38,1.74-2.88l27.31-11a71,71,0,0,1-8.25,1.53,6.86,6.86,0,0,1,4.12-3.55c-.37-1.12-2-.81-3.07-.22-7.32,4.2-14.44,11-22.76,9.58a80.3,80.3,0,0,1,15-8.83L219.75,225c-3.95,1.25-9.23,2-11.36-1.51-.64-1.06-.62-2.77.54-3.2q16.27-2.3,32.4-5.43a2.84,2.84,0,0,1,2.94-3.25,238.45,238.45,0,0,0-42.81,11.11A95.24,95.24,0,0,0,257.38,230a4,4,0,0,1-4.95,3.15c8.82.22,17.93-.74,25.69-4.95,4-2.18,7.57-5.18,11.58-7.4s8.79-3.65,13.18-2.33c-6-3.84-13.85-.12-19.58,4.08s-12.19,9.21-19.14,7.71a226.76,226.76,0,0,1,20.46-12.5c-8.63-2.54-17,7.34-25.81,5.73m67.63,249.77c-.33-5-4.8-8.77-9.43-10.68s-9.72-2.6-14.2-4.84A22.61,22.61,0,0,1,301,418.37a14.75,14.75,0,0,1-6.21-.34,4.52,4.52,0,0,1-4,2.77c1.38,1.91-.72,5.07-3,4.55-1.38-.32-2.54,1-3.34,2.2-2.11,3.14-4.26,6.34-5.3,10a18.32,18.32,0,0,0,2.42,15.11,36.18,36.18,0,0,0,6.38,6.62l6,5.25a18.6,18.6,0,0,0,5.17,3.58c3.15,1.25,6.68.69,10.07.79a25.73,25.73,0,0,1,10.08,2.37c1.07,2.52,2.16,5.12,2.19,7.86s-1.26,5.68-3.76,6.77c2.23,1.68,5-1.26,6.25-3.76,1.37-2.77,2.78-5.7,2.58-8.78m-76.92-91.53a5.85,5.85,0,0,0,4.21,1,5.43,5.43,0,0,1-.9-3l3.68-.87-18.94-2.09c-6.65-.73-14.36-1.1-18.93,3.78s-9.21,9.88-13.79,14.86a11.21,11.21,0,0,0-1.25,13.09c.29-2.51,0-5.06.4-7.56s1.61-5.08,3.91-6.12,5.63.39,5.72,2.92a11,11,0,0,1,8.77-2.91,38.94,38.94,0,0,0,24-4.88c.93-.54,2.08,0,3.14.17s2.43-1,1.73-1.79a4.8,4.8,0,0,1-4.93-2.65c.43,1.74-2.24,2.34-4,2.06s-4.05-1.12-4-2.93l9.71-1.66a7.11,7.11,0,0,1-.7-3.15c1.24-.21,3.05.9,2.18,1.8m43.71,3.07c-.13,1.44-2,1.82-3.43,2s-3.19,1.41-2.51,2.68c.41-1.42,2.65-1.61,3.56-.45a3.1,3.1,0,0,1-.56,4c-1.65,1.55,2.48,4.73.71,6.13l3.77-3.87-3.37.36.08-2a20.1,20.1,0,0,1,15.17-2.5,3.26,3.26,0,0,1,2.43,1.56c.39.93-.64,2.24-1.49,1.71a10.46,10.46,0,0,0-10.58-.1,15.29,15.29,0,0,1,9.95.68c2,.84,3.78,2.1,5.87,2.5,1.83.35,2,2.9,1.63,4.73l-1.68,9.49c5.54-1.5,9.95-7.65,8-13-1.68-4.66-6.92-6.83-11.59-8.48a31.42,31.42,0,0,1-7.73-4.51l-11.05-8,2.8,7M276,337.3a10.1,10.1,0,0,1,8.08,1.63,6.36,6.36,0,0,0,3.73.81l16.07.14c1.31,0,3-.2,3.36-1.45s-.76-2.33-2-2.5a6.66,6.66,0,0,0-3.48.82c-1,.41-2.21.75-2.93,0a1.82,1.82,0,0,1,.42-2.54,5.27,5.27,0,0,1,2.73-.85l40.41-4.83-16.52.45c-5.55.15-11.14.3-16.56,1.51a94.17,94.17,0,0,1-32.58,1.43,15.19,15.19,0,0,0-.77,5.39m19.17,145c.26-2.36-1.8-4.51-4.11-5.07a11.28,11.28,0,0,0-6.93,1,10.8,10.8,0,0,0,4.22-.23,5.17,5.17,0,0,1,4.08.68c1.1.9,1.17,3-.14,3.53a3.07,3.07,0,0,1,1.56,2.53c-2.54.22-4.81-1.47-6.8-3.06l-2.83,2a5.91,5.91,0,0,1,6.08,3.16,2.39,2.39,0,0,1,.28,1.61c-.5,1.94-3.35,1.05-5.35.9s-4,1-5.95,1.72-4.52.83-5.75-.85a35.76,35.76,0,0,1-9.72,1.29c-1.48,0-3.54-1.29-2.55-2.4a54.59,54.59,0,0,0-15.77-1.38,29.16,29.16,0,0,0,10.1,3.18,2.28,2.28,0,0,1,3.93-.79,2.74,2.74,0,0,1-1.52,1.72c20.5,1.85,41.62,3.64,61.27-2.47l-15.8-.37c.83,1.22-1.43,2.25-2.84,1.79a8.31,8.31,0,0,1-5.47-8.53M183.53,225.23c8.28-4.74,16.61-9.5,25.53-12.89,4.44-1.68,9-3,13.55-4.36l23.1-6.77c1.1-.32,2.42-.61,3.3.13a10.17,10.17,0,0,0,7.72,2.22c-7.19-4.34-16-6.48-24.13-4.39a5.67,5.67,0,0,0-3.23,1.76c-3.18,4.18-8.84,5.33-13.91,6.72a78.1,78.1,0,0,0-31.92,17.58M344.62,214.1c4.34-1.72,8.95-4.24,13.39-2.83,2.15.68,4.36,2.26,6.44,1.39-13.55-6.53-29.46-4.61-44.35-2.54a34.12,34.12,0,0,1,10,6.35,2.54,2.54,0,0,0,1.89.41,40.59,40.59,0,0,0,12.6-2.79m-16.22,20.75a6.37,6.37,0,0,0,1.13,3A56.24,56.24,0,0,1,338,251.4c.47,1.06.69,2.65-.4,3q5.49.19,11,.15A85.39,85.39,0,0,0,327,228l1.36,6.83m-73.85,51.07c-1.81-2.48-4-5.17-7-5.55a8.68,8.68,0,0,1-2.08-.3,1.48,1.48,0,0,1-1-1.62,11.69,11.69,0,0,0-7.72,16.65,29.45,29.45,0,0,1-.22-6.89,4.72,4.72,0,0,1,.72-2.46,1.81,1.81,0,0,1,2.28-.63l0,7.16a14.78,14.78,0,0,0,8.32,4c.84.11,2.1-.53,1.57-1.2a6.59,6.59,0,0,1-6.83-3.57,6,6,0,0,1,2-7.3,5.47,5.47,0,0,1,7.29,1.51c1,1.5,1.06,3.39,1.67,5.07s2.18,3.33,3.92,2.91a3.17,3.17,0,0,1-2.37,3.07,3.41,3.41,0,0,0-2.73-2.53,3.88,3.88,0,0,0,2.54,3.27,3.1,3.1,0,0,1-1.06,2.26c2.59-.52,3.92-3.33,4.86-5.79a12.73,12.73,0,0,0,1.21-5.51c-.16-1.89-1.43-3.83-3.31-4.09a1.82,1.82,0,0,1-2.11,1.57M298,448.85c7.12,8.42,20.84,7.69,29.05,15-4-5-10.61-7-16.64-9.17s-12.45-5.49-14.64-11.52c-1.86-5.13-.06-11,3.1-15.44a28,28,0,0,1,6.92-6.84c4.82-3.33,10.64-5.12,15.06-9s6.87-11.13,2.94-15.47a12.44,12.44,0,0,1-1.92,13.11,24.38,24.38,0,0,1-6.81,4.84l-14.25,7.84a11.71,11.71,0,0,0-4.08,3.11c-1,1.4-1.28,3.49-.16,4.8A16.44,16.44,0,0,0,298,448.85M373.3,258.76a5.61,5.61,0,0,0-6-.37,3.55,3.55,0,0,0-.44,2.81,5.24,5.24,0,0,1-.06,2.89c-.4.89-1.71,1.43-2.38.71-.39-.42-1.09-.26-1.63-.06l-4.16,1.52a200.13,200.13,0,0,0,23.75-1.38l-1.88-3.12h-3.7a2.12,2.12,0,0,1,3.24-1.83c-.09-1.28-1.86-1.6-3.09-1.28s-2.66.87-3.69.11m-92.07,81.9-49.47-.46-15.9-.15c-.51,1,1.1,1.7,2.23,1.7l60.25-.23a3.69,3.69,0,0,0,2.89-.86m2,6.31c.27,6.13,2.3,12,4.52,17.75,2.72,7,8.55,12.35,14.78,16.53s13.05,7.48,19.11,11.92c-.37-1.61-1.91-2.64-3.33-3.49-6.14-3.67-12.47-7.09-18.06-11.55s-10.49-10.11-12.73-16.9c-1.57-4.73-1.83-9.93-4.29-14.27M184.82,163.65a42.93,42.93,0,0,1,7.59-7,25.9,25.9,0,0,1,16-4.44c-5.12-1.73-10.68.24-15.72,2.19a13.3,13.3,0,0,0-8,6.24l-5.25,7.46c-2.67,3.79-5.36,7.63-7,12a129.74,129.74,0,0,1,12.44-16.38M224.62,406a7.6,7.6,0,0,0,5.41,7.43,9.6,9.6,0,0,0-1.2-6.66c.17,1.24.09,2.89-1.12,3.22s-2.1-1.14-1.73-2.24a3.16,3.16,0,0,1,2.72-1.83c-2.36-2.57-5.44-4.85-8.93-4.85s-7,3.27-6.18,6.65c1.82-2.63,5.51-3,8.71-3,1,0,2.36.3,2.31,1.29M103.34,374.94a1.65,1.65,0,0,0-.24,2.53,3.92,3.92,0,0,0,2.71,1A14.69,14.69,0,0,0,117.93,373a24.52,24.52,0,0,0-14.59,1.91m95.87-66.83a33.11,33.11,0,0,1,7.48,21.48,7.45,7.45,0,0,1,1.89-4.47,1.29,1.29,0,0,1-.16-2.4,3,3,0,0,0,1.9-2.84,8.7,8.7,0,0,0-.91-3.51,2.34,2.34,0,0,0-.63-1c-.58-.45-1.4-.27-2.13-.34s-1.53-.85-1.09-1.43a3.66,3.66,0,0,1-2.45-5.57,6.52,6.52,0,0,0-3.9.08m-52.53,26.15a4.6,4.6,0,0,0,2.73,4.24c-.68-1.54,1.41-2.72,2.93-3.45a11,11,0,0,0,5.6-6.34c-.72-.56-1.78-.14-2.48.43a5.42,5.42,0,0,1-2.24,1.49c-.89.16-2-.84-1.43-1.58a15.43,15.43,0,0,0,2.71-6.92c-1.83,3.63-3.77,7.38-7,9.83l3.05.28a3.05,3.05,0,0,1-3.86,2M345.76,330a4,4,0,0,0,.28,5.31c1.29-.41.33-2.84,1.49-3.53,1.34-.8,2.29,1.91,3.84,2.08a2.66,2.66,0,0,0,1.79-.77c1.31-1,2.76-2.73,1.82-4.1-1.42-2.06,2.1-5.53.1-7a9.09,9.09,0,0,1-9.32,8M154.58,300.33a25.78,25.78,0,0,0-1.45,3.79A13,13,0,0,0,154,313c.3.63,1.31.54,1.75,0a3.16,3.16,0,0,0,.49-2l.33-15.07-1.95,4.37m72.09-102.68-5.59,2.45a22,22,0,0,1-3.65,1.35c-2.23.54-4.59.37-6.82.91s-4.5,2.14-4.67,4.43a110,110,0,0,1,21.79-6.85,1.86,1.86,0,0,1-1-2.3m195.44,6.14-2.66-.54,13.72,13.67c1.89-.24,3.64,1,5.12,2.17a5.65,5.65,0,0,0-4.56-4.58,5.85,5.85,0,0,1-3-2l-8.61-8.74m-113,197.07a10.23,10.23,0,0,0-8.18-4.23c-.06,1.17-1.81,1.07-2.92.69s-2.94,0-2.6,1.08a1.26,1.26,0,1,1,1.45,2.05,1.29,1.29,0,1,0,1.75,1.88c.62-1.9,2.75-3,4.75-3a14.59,14.59,0,0,1,5.76,1.54m53.8-170.58c-1.09-1-2.76-.78-4.12-.29a15.18,15.18,0,0,1-4.1,1.35c-3.55.22-6.71,2.23-9.69,4.18-.17.66.9.79,1.55.56l16.37-5.81m-56,173.55c-1.08.3-1.25,1.73-1.69,2.76a3.82,3.82,0,0,1-7.29-1c-1.18,2.05.9,4.75,3.25,5.07s4.6-.89,6.64-2.1a5.45,5.45,0,0,1-.91-4.76m20.46-181.53,14.31,15.15-.31-3.67c-5.41-2.74-8.59-8.75-14-11.48m32.11,1.93c3.11-1.48,2.92-6.51.2-8.62s-6.69-1.75-9.8-.28c-.9.43-1.88,1.52-1.2,2.25a32.68,32.68,0,0,1,2.79-2,6.09,6.09,0,0,1,8,8.63m-165,29.27c-3.31,2.18-5.37,5.76-7.32,9.21-.57,1-1.09,2.41-.25,3.2a3.23,3.23,0,0,0,1.07-1.26l6.49-11.15M309.14,412.31a11.88,11.88,0,0,1-9,2.37c-1.94-.29-3.81-1.07-5.77-1.08a13.07,13.07,0,0,0,13.72,1c.85-.46,1.73-1.59,1-2.26M116.36,362.16c1.18-.41,2.57-1.1,3.56-.33a1.22,1.22,0,0,0,1.84-1.17q-6.33-.2-12.67.07a7.49,7.49,0,0,0,7.27,1.43m184-54.84a2.57,2.57,0,0,0-.59,4.46l5.43-5.72-4.84,1.26M229.67,156l4.44,4.39a13.88,13.88,0,0,0,2.94,2.42,2,2,0,0,0,0-2.56,6,6,0,0,0-2.23-1.62L229.67,156m3.85,177.67a2,2,0,0,0,.66,2.87,5.81,5.81,0,0,0,3.25.61l4.69,0a20.87,20.87,0,0,1-8.59-3.43M151.3,224.33q2.33-5.3,4.41-10.71a13.58,13.58,0,0,0-4.41,10.71m62.27-25.62A27,27,0,0,0,225.64,194a55.14,55.14,0,0,0-12.07,4.71M181,227.05a28.86,28.86,0,0,0-8.59,7.76,2.63,2.63,0,0,0-.68,1.64l9.27-9.4m35.65,150a40,40,0,0,0,1.23-13.25A49.46,49.46,0,0,0,216.66,377m9.85-40.94a7.28,7.28,0,0,0-2.68-1.7,2.49,2.49,0,0,0-2.83.93,3.21,3.21,0,0,0-4.11-.74,29.36,29.36,0,0,0,9.62,1.52M276,480.2c1.21,1.43,2.77,3,4.62,2.72,1.06-.16,2-.93,3.07-1L276,480.2M155.36,318.8l-.14-2.39a2,2,0,0,0-2.58.89,5.94,5.94,0,0,0-.64,2.92,4,4,0,0,1,2.46-1.53l.55,1.65.54-1.52m197.78-18-2.29.76a2.78,2.78,0,0,0,1.25,2.14,3.2,3.2,0,0,0,2.48-1.33c.43-.88-.73-2.16-1.42-1.48M176.95,293c-.19.87.72,1.67,1.61,1.71a4.67,4.67,0,0,0,2.49-.87c.68-.4,1.47-1,1.32-1.79a8.11,8.11,0,0,1-5.42.95m163-67.26a4,4,0,0,0-2.36.33,4.94,4.94,0,0,0,3.91.64l.53,1.63a3,3,0,0,0,1.79-1.35,6.73,6.73,0,0,0-3.87-1.29m-165.65-81,4-2.84a5,5,0,0,0,1.36-1.23,5.71,5.71,0,0,0-5.39,4.07m48.41,271.78a14.23,14.23,0,0,1-5.78-1.39,3.63,3.63,0,0,0,5.78,1.39m-61.38-98a.45.45,0,1,0,.63-.16,3.72,3.72,0,0,0-1.72-4.32,8.15,8.15,0,0,0,.87,4.31m59.74,93.16,1.22-.9a4.3,4.3,0,0,0-3.6-1.18,1.86,1.86,0,0,0,2.35,2.16m-33-279a10.66,10.66,0,0,0-4.28,4.2,2.66,2.66,0,0,0,2.72-1.36c.6-.9.92-2,1.57-2.84M255.73,5.77a4.27,4.27,0,0,1,3.64,1.07,2.71,2.71,0,0,0,.11-1.72,2.53,2.53,0,0,0-3.81.19M217.51,355a13.81,13.81,0,0,0,.44,6.64,8.53,8.53,0,0,0-.44-6.64m30-65.11c.89.26,2.26.21,2.29-.72l-5.36-.65a3.24,3.24,0,0,0,3,1.43m47,206.85a32.81,32.81,0,0,0,10.08,0,52.76,52.76,0,0,0-10.08,0M299.88,473a1.53,1.53,0,0,0,2,1,4.07,4.07,0,0,0,.29-2.29,1.61,1.61,0,0,0-2.32,1.3M191.19,250.19a3.85,3.85,0,0,0,.34,2.35q1.22-2.77,2.24-5.63l-2.67,3.21M117.34,367.8a4.18,4.18,0,0,0-4.32.27,13.61,13.61,0,0,0,6.73-.29l-2.3-.23M235.54,7.14c-.26-.26-.62.37-.32.59s.72,0,1-.2a3.53,3.53,0,0,0,.8-4.34l-1.15,3.76m64.36,396.81a3.56,3.56,0,0,0,3.44,1.24,3.26,3.26,0,0,0-3.83-1.66M362.28,33.81q-2.5-.52-5-.8a3.83,3.83,0,0,0,5,.8M319,494.25l1.74-.93a9.43,9.43,0,0,0-4.8.83,2.26,2.26,0,0,0,2.81-.25m-94.16-14c.24-.68-.93-1-1.53-.56a11.69,11.69,0,0,0,3.36,2.91,4.51,4.51,0,0,0-1.84-2.35m-1.5-156.47,3,.43a3.35,3.35,0,0,0-2-1.51c-.86-.1-1.77.95-1.22,1.62m134-87.37a1,1,0,0,0-1.27.42,7.18,7.18,0,0,0,5.13-1.89,5.63,5.63,0,0,0-3.77,1.48M363.79,260l-.83-1.45-1.12,1.37.75,1.35c.65.19,1.1-.63,1.27-1.28m-3.08-64.75-2.35-1.3a1.71,1.71,0,0,0,2.71,1.6m-9.63,43.14a7.62,7.62,0,0,0-4.6,1.91,6.94,6.94,0,0,0,4.58-1.71M228,123.47a2.15,2.15,0,0,0-3.44-.18,9.65,9.65,0,0,0,3.37.21m19.54,110.58,2.83-.33a13,13,0,0,0-5.69,0,5.8,5.8,0,0,0,2.85.26m-72.24,56.31.79,1.76a3.24,3.24,0,0,0,.79-2.27.91.91,0,0,0-1.55.48M263,488.7a6.93,6.93,0,0,0,3.83.54,6.32,6.32,0,0,0-3.8-1c-.28,0-.62.1-.7.37s.42.5.46.22M217,348.89a4.55,4.55,0,0,0,.66,4.12,9,9,0,0,0-.53-4.23m99-61.08-.23-1.79-1.9,2.87a1.62,1.62,0,0,0,1.93-1.1m-2.45,48.42a1.17,1.17,0,0,0-1.08.87,1.81,1.81,0,0,0,2.58-.43,1.13,1.13,0,0,0-1.52-.56m-253-174-2.26-1.16c-.48,1.06,1.15,2.25,2,1.47M309.1,478.68l-1.47-.65a1.1,1.1,0,1,0,2,.43M304.78,320a3.61,3.61,0,0,0-3.58.6,3.46,3.46,0,0,0,3.51-.64M337.42,23.79c-.52-.38-.58.82-.11,1.26s1.89.81,1.86,0l-1.76-1.24m-144.6,215,2.27,2.91a2.56,2.56,0,0,0-2.33-3m130.55-22.28a2.92,2.92,0,0,0-3.14-1.74l2.84,1.86M327.12,160l1.08,2.07a3.28,3.28,0,0,0-1.66-3.55,1,1,0,0,0,.62,1.41m-188.4,217.4c0,.24.46.07.4-.16s-.36-.31-.6-.33a8,8,0,0,0-2.92.28,2.07,2.07,0,0,0,2.73.07m156-110.09a8.55,8.55,0,0,0-4.48.05,14.94,14.94,0,0,0,4.39.23m-133.81-5.9-.17-1.78a2.82,2.82,0,0,0-.71,3.08l.81-1.3m-53.07,107a1.56,1.56,0,0,0,2.26.42c0-.87-1.31-.87-2.11-.55M277,476.79l1.56-.58a5.18,5.18,0,0,0-3.6.62,2,2,0,0,0,2.05,0m69-279.44c.44,0,.11-.82-.3-.67s-.51.69-.6,1.12-.37,1-.81.89a1.29,1.29,0,0,0,1.83-1.2m-8.39,95.56c.84-.75.21-2.12-.45-3a2.78,2.78,0,0,0,.45,2.7M191,130.79a1,1,0,0,0-.54,1.48l2.32-1.3a2.53,2.53,0,0,0-1.8-.22m146.82,45.18a3,3,0,0,0,1.25,2.58,2.78,2.78,0,0,0-1.13-2.55M289.36,6.61a3.29,3.29,0,0,0,.17,1.8,1.88,1.88,0,0,0,.9-1.27c0-.54-.77-1-1.06-.53m3.07,410a1.17,1.17,0,0,0-1.55.66l2.34.23a.61.61,0,0,0-.76-.72m-17.77,68.5a1.34,1.34,0,0,0,1.86.27c-.07-.88-1.5-1.07-2-.35M314.28,14.95c.59.42,1.7.58,1.79-.14a1.53,1.53,0,0,0-2.37.23M186.76,16.65a1.53,1.53,0,0,0,1.92.82c.14-.77-1-1-1.82-.77m47.25,470.6c.42.33.84-.56.49-1a2.93,2.93,0,0,0-1.81.19l1.33.77M206.34,310.55a2,2,0,0,0,0,2,1.1,1.1,0,0,0,0-2M285.7,419.84c.68.43,1.5-.89.81-1.31-.51-.33-.84.63-.7,1.23M173.47,310.08a1.55,1.55,0,0,0-1.24.18c.29.45.7,1,1.23.89s.52-1.13,0-1m44.71-192.77,2.82-.28a3.43,3.43,0,0,0-3-.06m-91.39,245.4c-.09.95,1.74,1.07,1.78.12l-1.72-.2M363.06,36.62l-1.79.82a1.7,1.7,0,0,0,2.3-.63M65.59,245c-.15-.57-1.1-.43-1.33.1a2.16,2.16,0,0,0,.25,1.68l.68-1.82M179.08,305.3a3.31,3.31,0,0,0,0-3,7,7,0,0,0-.2,2.83m266.43-137c.87.1,2,0,2.3-.79a2.06,2.06,0,0,0-2.27.83M294.47,399.14a2.57,2.57,0,0,0-1.51,1.12,1.83,1.83,0,0,0,1.27.23,1.69,1.69,0,0,0,.23-1.28M173.17,31.8c.13-.57-.18-1.49-.68-1.19-.71.36.12,1.7.76,1.22m1.25,285.93a3.05,3.05,0,0,0,0,2.57,3,3,0,0,0,0-2.57m49.35-201.37,1.8-.24c-.57.05-1-.49-1.6-.53s-.62,1.15-.16.83m-23.55,8c-.51.5.54,1.43,1,.86s-.8-1.3-1.09-.64M339,298.75c-.66-.26-.94.89-.59,1.51a1.14,1.14,0,0,0,.6-1.53M198.27,433.63c-.3.26.3.72.59.46a1,1,0,0,0,.08-1.1,1.8,1.8,0,0,1-.24-1.13,2,2,0,0,0-.27,1.77m4.29-11.06a1.08,1.08,0,0,0,.54,1.49.86.86,0,0,0-.52-1.46M267.43,6.41a.62.62,0,0,0-1.07-.33c.28.47.7,1,1.23.91s.26-1.21-.15-.85M432.71,201.88c-.15.52.7.94,1,.51,0-.38-.06-.83-.39-1s-.84.31-.53.54M305.21,232.77a2,2,0,0,0-2-.63,1.53,1.53,0,0,0,2.07.64Z" fill="#1a1a1a"/></g></svg>