<svg id="Layer_1" data-name="Layer 1" xmlns="http://www.w3.org/2000/svg" viewBox="0 0 500 500"><title>Artboard 5</title><rect x="0.02" y="0.02" width="499.98" height="499.98"/><g id="Shape_3" data-name="Shape 3"><path d="M355,329.6c2.79,1.48,5.69-2.86,8.8-2.34-.21,2.7-3.42,3.93-6.08,4.49a246.21,246.21,0,0,1-49.25,5.35c1.29-1.52,3.64-1.33,5.63-1.28s4.51-.66,4.78-2.64c.22-1.68,2.3-2.29,4-2.52l28.22-3.87c1.65-.23,2.45,2,3.93,2.8m-26.32,4.09.21-1.39a2.25,2.25,0,0,0-2.27,0,1.53,1.53,0,0,0,1.93,1.33m3.83-.59c.51.12.62-.84.14-1.05a1.65,1.65,0,0,0-1.47.34,2,2,0,0,0,1.35.8Z" fill="#ff1d25"/><path d="M314.74,298.11c-.16,1.14.8,2.09,1.19,3.17s-.63,2.73-1.54,2c.89-2.11-1.21-4.16-2.28-6.18-1.81-3.44-.61-7.61.62-11.3a10.27,10.27,0,0,1,1.92-3.84c1.6-1.73,4.23-2.15,6.54-1.72a11,11,0,0,1,8.45,7.65,10.09,10.09,0,0,1-3.75,10.65,9.36,9.36,0,0,1-11.16-.47m10.63-4.81a2.75,2.75,0,0,1-4.29-1A3.49,3.49,0,0,1,323,288a4.79,4.79,0,0,1,4.87.94,5.44,5.44,0,1,0-10.32,3.35,5.7,5.7,0,0,1,.68,2.09c0,.6-.3,1.16-.34,1.75-.09,1.56,1.7,2.68,3.26,2.52a8.18,8.18,0,0,0,4.06-2.19c1.26-1,2.62-2.25,2.71-3.87a2.94,2.94,0,0,0-5.54-1.51A2.78,2.78,0,0,1,325.37,293.3Z" fill="#ff1d25"/><path d="M275.83,283.32c2.27.69,3.2,3.37,3.5,5.72.19,1.52-.19,3.6-1.72,3.7a8.27,8.27,0,0,1-8.83-4.76c1.6-2.58,4.13-5.55,7-4.67m-3.32,5.5c1,.82,2.25,1.7,3.5,1.33s1.3-2.76,0-2.64a5.51,5.51,0,0,1-2.21-.57,2.13,2.13,0,0,0-2.17.2c-.55.54-.12,1.77.62,1.57m3.9-2,.23-1.4a1.52,1.52,0,0,0-2.19.57,1.76,1.76,0,0,0,1.86.79Z" fill="#ff1d25"/><path d="M329.48,375.86c5.4,2.8,11.25,6.21,13.06,12,.19.62.2,1.5-.43,1.67-1.56-4.72-6-7.79-10.4-10.15s-9.11-4.53-12-8.54Q324.59,373.33,329.48,375.86Z" fill="#ff1d25"/><path d="M82.23,370.59a5.44,5.44,0,0,1-1.4-4.27c1.33,1.83,3.51,3.62,5.63,2.85s2.6-3.32,2.95-5.47,1.2-4.72,3.35-5.1a24.31,24.31,0,0,0-2.49,10.9c-1.09,1-2.82.8-4.33.79s-3.41.69-3.42,2.2a2.84,2.84,0,0,1-3.08-1.39Z" fill="#ff1d25"/><path d="M353.8,310.24c1.35-3.19,5.61-3.54,8.7-5.1a2.29,2.29,0,0,0,1.38-1.45c.25-1.38-1.75-2.34-1.67-3.74,1.29-.55,2.83.5,3.26,1.83a4.88,4.88,0,0,1-1.94,5.07,14.32,14.32,0,0,1-5.3,2.21Z" fill="#ff1d25"/><path d="M316.24,419.73c-.6.43-1.35.89-2,.6a42.13,42.13,0,0,1,17.18-12.18c.3.28-.06.76-.4,1Z" fill="#ff1d25"/><path d="M111.74,357a4.26,4.26,0,0,1,1.54,2.66,10.68,10.68,0,0,1-4.49.39,3.65,3.65,0,0,1-3.05-2.94,3.59,3.59,0,0,0,4.53-2.91,1.62,1.62,0,0,1,1.94,0A3.53,3.53,0,0,1,111.74,357Z" fill="#ff1d25"/><path d="M75.92,240.92c-.78-1.74.33-3.71,1.4-5.29l4.79-7.09c.64-1,1.88-2,2.76-1.27Z" fill="#ff1d25"/><path d="M281.44,296.21a2.24,2.24,0,0,1-1.93.76,1.3,1.3,0,0,1-.93-1.47c2.68-.1,4.38-3.21,4.14-5.89s-1.76-5-2.94-7.45a8.72,8.72,0,0,1,1.65,14.05Z" fill="#ff1d25"/><path d="M451.46,185.63l5.11,2.72c.81-1.15-.49-2.59-1.64-3.39s-2.44-2.26-1.62-3.39a34.79,34.79,0,0,1,6.12,7.24A5.37,5.37,0,0,1,451.46,185.63Z" fill="#ff1d25"/><path d="M172.83,294a71.25,71.25,0,0,1-1.43,10.07c-.24,1.11-1,2.52-2.08,2.16l1.56-8.72C171.13,296.15,171.54,294.56,172.83,294Z" fill="#ff1d25"/><path d="M107.12,362.34l-6,.19a5.84,5.84,0,0,1-2-.16,3,3,0,0,1-2-3,5.39,5.39,0,0,0,6.19.06Z" fill="#ff1d25"/><path d="M361.68,28.48l3.26.09-3.14,4.15a2.31,2.31,0,0,1-2.87-2.35l2.75-1.64Z" fill="#ff1d25"/><path d="M79.27,126.32l-2.44,2.12c-.78.68-2.44,1-2.45,0a11.53,11.53,0,0,0,5.15-6.51c1-.13,1.71,1.09,1.5,2.06A4.72,4.72,0,0,1,79.27,126.32Z" fill="#ff1d25"/><path d="M365.06,316.51a4.56,4.56,0,0,0,.49-2.73c.51-.84,2-.16,2.1.83a3.64,3.64,0,0,1-1.25,2.59l-3.85,4.36a3.82,3.82,0,0,1,2.52-4.67Z" fill="#ff1d25"/><path d="M326.34,168.75c-1.48.74-3.1-.68-4.15-2l-4.26-5.18c.45-.51,1.28,0,1.76.46Z" fill="#ff1d25"/><path d="M126.91,346.91c-3.27.29-7.5,0-8.55-3.13a1.64,1.64,0,0,1,.48-2,4.29,4.29,0,0,0,4.66,3.73,8.29,8.29,0,0,1,2.35-.32C126.64,345.35,127.37,346.26,126.91,346.91Z" fill="#ff1d25"/><path d="M57.25,184.39a5,5,0,0,1,3.1,2.07,11.74,11.74,0,0,1-7.44.23,8.77,8.77,0,0,1,4.36-2.25Z" fill="#ff1d25"/><path d="M303.64,195.24a23.26,23.26,0,0,1-8.84-4.11A9.7,9.7,0,0,1,303.64,195.24Z" fill="#ff1d25"/><path d="M381.28,45.63a2.72,2.72,0,0,1-4.31.58l4.63-2.71c1.19-.7,3.07-1.22,3.67,0a3.33,3.33,0,0,1-3,.75l-.81,1.42Z" fill="#ff1d25"/><path d="M108.59,344.73a4.8,4.8,0,0,1-2.68,3.54,9.46,9.46,0,0,1-3.63.62A9.49,9.49,0,0,1,108.59,344.73Z" fill="#ff1d25"/><path d="M455.23,179.13l-1.11-2.29a4.78,4.78,0,0,1,4.38,6.07l-3.26-3.79Z" fill="#ff1d25"/><path d="M365.43,286.93a5,5,0,0,1-.74,4.26,9.82,9.82,0,0,1-.5-8.91l1.08,4.68Z" fill="#ff1d25"/><path d="M101.6,358.72a2.4,2.4,0,0,1-2-2.45c.08-1.13,1-2.25.54-3.3,1-.45,1.79.94,1.83,2s0,2.47,1.06,2.84Z" fill="#ff1d25"/><path d="M358.76,29.59a10,10,0,0,1-6-.88.62.62,0,0,1-.36-1A4.84,4.84,0,0,1,358.76,29.59Z" fill="#ff1d25"/><path d="M346.68,184.52a3.56,3.56,0,0,1,4.15,3.12,13.94,13.94,0,0,0-5.85-1.16,2.18,2.18,0,0,1,1.68-2Z" fill="#ff1d25"/><path d="M450.72,192.71a3.15,3.15,0,0,1,4.65.58l-5.29,1.62a1.54,1.54,0,0,1,.48-2.3Z" fill="#ff1d25"/><path d="M176.51,367.59l1.68,0c.28.79-.4,1.61-1.14,2a2.81,2.81,0,0,1-2.51.19,1.64,1.64,0,0,1-.79-2.18c.45-.74,1.83-.66,2,.19Z" fill="#ff1d25"/><path d="M175,274.75l-.47,6.55a2.67,2.67,0,0,1-.93,2.24l-.2-6.53C173.39,275.9,174,274.31,175,274.75Z" fill="#ff1d25"/><path d="M348.3,266l3.34-.75c1,1.14-.8,3-2.27,2.54s-2.25-2-2.87-3.37a1.59,1.59,0,0,1,1.54,1.48Z" fill="#ff1d25"/><path d="M448.42,197.52c1.07-.73,2.19,1.35,1.31,2.3s-2.39.83-3.67.64a5.55,5.55,0,0,1,2.35-2.93Z" fill="#ff1d25"/><path d="M178,371.25a7.17,7.17,0,0,1,6.15-3.72A8.3,8.3,0,0,1,178,371.25Z" fill="#ff1d25"/><path d="M162,373.23l5.31-.65a5.29,5.29,0,0,1-6.09,2c-.46-.4.16-1.31.7-1Z" fill="#ff1d25"/><path d="M98,366.87a1.11,1.11,0,0,1,1.12,1,2.42,2.42,0,0,1-3.21.38,7,7,0,0,1-2.19-2.76L98,366.8Z" fill="#ff1d25"/><path d="M333.44,176.8a7.2,7.2,0,0,1-2.44-2.1,3.75,3.75,0,0,1,4.37,0,3.32,3.32,0,0,1-1.82,2.09Z" fill="#ff1d25"/><path d="M93.61,356.35a5.56,5.56,0,0,1,2.48-1.3,1.93,1.93,0,0,1,.07,3.11,3.54,3.54,0,0,1-2.66-1.69Z" fill="#ff1d25"/><path d="M352.31,179.61a3.05,3.05,0,0,1-4.39-1.61,5.12,5.12,0,0,1,4.69,1.49Z" fill="#ff1d25"/><path d="M441.29,214.89a3.47,3.47,0,0,1,2.25,3.91,19.21,19.21,0,0,1-3.74-4,.91.91,0,0,1,1.42.19Z" fill="#ff1d25"/><path d="M364.88,295.15a2.13,2.13,0,0,1-.83,2.49,4.66,4.66,0,0,1-.44-4.46,1.5,1.5,0,0,1,1.29,1.92Z" fill="#ff1d25"/><path d="M341.16,184.89a3.26,3.26,0,0,1,0,2.75l-3-1.37a4.54,4.54,0,0,1,3-1.42Z" fill="#ff1d25"/><path d="M338.7,177.48a1.45,1.45,0,0,1,2.18,1.17,3.19,3.19,0,0,1-3,.72,1.33,1.33,0,0,1,.9-1.74Z" fill="#ff1d25"/><path d="M449,203.06a2.3,2.3,0,0,1,3.07,1.8,2.51,2.51,0,0,1-3.38-1.88Z" fill="#ff1d25"/><path d="M459.43,172.84l.19,2.44a1.42,1.42,0,1,1-.27-2.56Z" fill="#ff1d25"/><path d="M104.84,352.22c1.45.07,3,1.57,2.24,2.78-1.41-.32-3.21-1.67-2.27-2.77Z" fill="#ff1d25"/><path d="M180,267.21l.13-3.47a4.33,4.33,0,0,1,.92,4.93l-1-1.46Z" fill="#ff1d25"/><path d="M341.18,182.14a1.24,1.24,0,0,1,0-1.61,1.59,1.59,0,0,1,1.94,1.06,2.08,2.08,0,0,1-.79,2.18l-1-1.67Z" fill="#ff1d25"/><path d="M446,214.18a2.21,2.21,0,0,1,1.31-1.46l1.28,1.95a1.46,1.46,0,0,1-2.67-.51Z" fill="#ff1d25"/><path d="M353.17,277.36a2.66,2.66,0,0,1-.54,3.32,3.84,3.84,0,0,1-.94-2.22c0-.82.86-1.64,1.61-1.32Z" fill="#ff1d25"/><path d="M118,352.19a1.09,1.09,0,0,1-.59-1.56,4.57,4.57,0,0,0,2.84-.64,1.76,1.76,0,0,1-2.23,2.16Z" fill="#ff1d25"/><path d="M326.89,164.69a2.35,2.35,0,0,1-3.5-1.52,3.26,3.26,0,0,1,3.25,1.24Z" fill="#ff1d25"/><path d="M335.66,191.47a5.19,5.19,0,0,1-1.22-3.86,4,4,0,0,1,1.78,4.11Z" fill="#ff1d25"/><path d="M114.7,351.23c.48-.31,1,.68.47,1a3.08,3.08,0,0,1-3,.39,1.81,1.81,0,0,1,2.48-1.3Z" fill="#ff1d25"/><path d="M167.19,316.17A3.1,3.1,0,0,1,168.3,314l1.37,2.46a2.08,2.08,0,0,1-2.5-.24Z" fill="#ff1d25"/><path d="M77.32,369.51a1,1,0,0,1-1.71.54c-.14-1.12.38-2.77,1.46-2.43L77,369.5Z" fill="#ff1d25"/><path d="M343.69,196.55l2.11,1.64c-1,1.06-3.14-.37-2.53-1.69Z" fill="#ff1d25"/><path d="M352.64,191.45c-.84-.28-.3-1.88.54-1.6l1.92,1.93-2.45-.36Z" fill="#ff1d25"/><path d="M164.93,239.93a3.55,3.55,0,0,1-4,.49,7.67,7.67,0,0,1,3.51-.88Z" fill="#ff1d25"/><path d="M327.81,170.6a1.32,1.32,0,0,1,1.32,1.87c-.52-.54-1.43-.53-2-1.06s.4-1.73.69-1Z" fill="#ff1d25"/><path d="M169.43,256.51a1.75,1.75,0,0,1,1.14-2.72,2,2,0,0,1-1.22,2.62Z" fill="#ff1d25"/><path d="M213.13,369.77a1.9,1.9,0,0,1,2.33-.33c-.42.66-.95,1.4-1.73,1.47s-1.43-1.16-.72-1.5Z" fill="#ff1d25"/><path d="M176.5,272.38c-1.17.35-2.45-1.27-1.63-2.18l2,1.87Z" fill="#ff1d25"/><path d="M291,190.63c.19-1.18,2.07-.9,2.86,0a3.24,3.24,0,0,1-2.74,0Z" fill="#ff1d25"/><path d="M75.28,124.75a1.14,1.14,0,0,1,1.07-1.63c.81.62-.2,2.21-1.1,1.74Z" fill="#ff1d25"/><path d="M191.79,381.17c-.75.24-2,.1-1.81-.67a2.13,2.13,0,0,1,1.74-.46c.59.21.69,1.28.08,1.35Z" fill="#ff1d25"/><path d="M222.88,371.75l.67-2a4.38,4.38,0,0,1,0,3.29,2.13,2.13,0,0,1-.8-1.37Z" fill="#ff1d25"/><path d="M351.48,194.07c-.48.2-.58-.81-.07-.93s.95.31,1.29.69.83.79,1.32.61a1.86,1.86,0,0,1-2.3-.4Z" fill="#ff1d25"/><path d="M449.48,216.1a1.59,1.59,0,0,1,1.36.23,2,2,0,0,1-.24,1.42c-.84,0-1.67-1-1.12-1.67Z" fill="#ff1d25"/><path d="M101.58,364.88a1.76,1.76,0,0,1,1.46.27,2.18,2.18,0,0,1-1.5,1.24.81.81,0,0,1,.06-1.47Z" fill="#ff1d25"/><path d="M95.84,362.87a.81.81,0,0,1-.27-1.35l1.87.84a1.24,1.24,0,0,1-1.63.62Z" fill="#ff1d25"/><path d="M168.56,261.19l-.78,2.45a3,3,0,0,1-.42-1.75c.11-.6.79-1.12,1.33-.84Z" fill="#ff1d25"/><path d="M115.85,346.19a.88.88,0,0,1,.46-1.54.94.94,0,0,1-.51,1.61Z" fill="#ff1d25"/><path d="M110.33,363.15l1.93.25a3.77,3.77,0,0,1-3.3.08,1.88,1.88,0,0,1,1.36-.24Z" fill="#ff1d25"/><path d="M56.7,175.55l-1.35.45c.05-.57.22-1.24.75-1.44s1.12.72.59.93Z" fill="#ff1d25"/><path d="M57.55,222.37c-.73.08-1.46-1-.84-1.37s.9.72.79,1.36Z" fill="#ff1d25"/><path d="M338.14,265.64a.84.84,0,0,1,.31,1.35c-.81,0-1.06-1.52-.26-1.49Z" fill="#ff1d25"/><path d="M206.81,281.91a2,2,0,0,1,2.64-1.23c.42-2.37,3.05-3.61,5.4-4.11a25.27,25.27,0,0,1,18.06,3l-8.63-1.33c-3.34-.51-6.83-1-10,0-2.37.79-4.58,2.65-5,5.12Z" fill="#ff1d25"/><path d="M266.54,261.61a3.64,3.64,0,0,1,1-3.18c2-2,6.12-.23,6.09,2.59s-4.18,4.48-6.14,2.47a3.61,3.61,0,0,1-1-1.88m5.45.05a3.44,3.44,0,0,0-5-2,4,4,0,0,0,4.51,2.27Z" fill="#ff1d25"/><path d="M231.26,287.25a1.58,1.58,0,1,0-1.86,2.31,3.24,3.24,0,0,0,2.72-.86,2,2,0,0,1-.5,3,3.36,3.36,0,0,1-3.35-.22c-1.83-1.08-2.85-3.71-1.6-5.43S231.39,285.13,231.26,287.25Z" fill="#ff1d25"/><path d="M217.27,290l-4-.26a4.13,4.13,0,0,1,8,.38,7.34,7.34,0,0,1-4.09.1Z" fill="#ff1d25"/><path d="M204.95,286.61c-1.81.1-4.36-.57-4.06-2.35,1-1,2.58-1.77,3.9-1.19s1.5,3,.08,3.27Z" fill="#ff1d25"/><path d="M300.12,263.12a3.09,3.09,0,0,1-3,2.09,6.78,6.78,0,0,1,4.29-4.82,4.77,4.77,0,0,1-1.3,2.67Z" fill="#ff1d25"/><path d="M269,268.7c.94-.27,2.34-.25,2.45.72a4.83,4.83,0,0,1-5.51-1.73,2.79,2.79,0,0,1,3,.91Z" fill="#ff1d25"/><path d="M248.75,274.5a1.91,1.91,0,0,1,1,2.9,1.8,1.8,0,0,1-1-2.78Z" fill="#ff1d25"/><path d="M210.47,248.3a1.75,1.75,0,0,1,1.64-2.69,3.91,3.91,0,0,1-1.71,2.7Z" fill="#ff1d25"/><path d="M252.23,267.58a1.44,1.44,0,0,1,1.57,1.29,1.56,1.56,0,0,1-1.26.24,1.77,1.77,0,0,1-.25-1.35Z" fill="#ff1d25"/><path d="M295.38,261.52c-.2.46-1,.23-1.12-.25a1.85,1.85,0,0,1,.41-1.4c.68-.35.91.93.59,1.63Z" fill="#ff1d25"/><path d="M206.36,296.79a.79.79,0,1,1,.77,1.29,1.93,1.93,0,0,1-.8-1.34Z" fill="#ff1d25"/><path d="M321.69,471.61a13.9,13.9,0,0,0,5.93-.61,7.13,7.13,0,0,0-4.28-13.56c-1.27.29-3.11.64-3.46-.62a17.63,17.63,0,0,1,12.5-.22c.83.3,1.09,1.33,1.21,2.21.61,4.21.84,9.09-2.17,12.08a11.17,11.17,0,0,1-19-8.25c.07-2.26,1.1-4.77,3.25-5.48,1.36,3.37,5.35,5.86,8.73,4.52a12.18,12.18,0,0,1,2.68-1.09c1-.13,2.13.49,2.07,1.46a1.91,1.91,0,0,0-1.93,1.68,2.36,2.36,0,0,1,1.71,3.15,3.84,3.84,0,0,1-3.27,2.21,11.3,11.3,0,0,1-4.09-.59l-1-3.81a1.14,1.14,0,0,0-1.58,0c.52,2-1.39,4.34-.12,5.93a3.72,3.72,0,0,0,2.84,1m1.91-5.4a7,7,0,0,0,3.48.41,2.13,2.13,0,0,0-2.73-2.36c-.92-.29-1.59,1.37-.73,1.8Z" fill="#ff1d25"/><path d="M298.52,413a3,3,0,0,1,4.81,3.21c-.28,1-1.41,1.91-2.35,1.43a2.34,2.34,0,0,0-1.26-3.66C299.1,413.89,298.12,413.52,298.52,413Z" fill="#ff1d25"/><path d="M319.88,399.26a3.09,3.09,0,0,1-.65-3.27l5.58,3.42a4.4,4.4,0,0,1-4.87-.23Z" fill="#ff1d25"/><path d="M311.09,454l2.41,1.44c.4.35.08,1.08-.43,1.23a2.27,2.27,0,0,1-1.53-.27c-1.68-.73-3.64-1.9-3.52-3.72l3.05,1.37Z" fill="#ff1d25"/><path d="M324.75,452.94a9.47,9.47,0,0,0-3.63.32,4.41,4.41,0,0,1,6.86-.74,5.53,5.53,0,0,1-3.22.38Z" fill="#ff1d25"/><path d="M295,425.55l2-3,1.66-2.51A4.06,4.06,0,0,1,295,425.55Z" fill="#ff1d25"/><path d="M274.41,383.39a4,4,0,0,1-5.86,1.85Z" fill="#ff1d25"/><path d="M240.71,381.48a2.61,2.61,0,0,1-2.8.68c0-1.57,2.14-2,3.71-1.94a1.44,1.44,0,0,1-.86,1.27Z" fill="#ff1d25"/><path d="M296.42,416.58c.92.7.83,2.09.65,3.24l-1.45.84a6,6,0,0,1,.7-3.82Z" fill="#ff1d25"/><path d="M252.73,380.87c.89-.17.78,1.58-.12,1.68s-1.6-.73-2.12-1.48a2.14,2.14,0,0,1,2.32-.08Z" fill="#ff1d25"/><path d="M266.79,384.88c.86.19.66,1.71-.2,1.9a1.7,1.7,0,0,1-1.82-1.51l2-.24Z" fill="#ff1d25"/><path d="M297.14,447.39a1.23,1.23,0,0,1-.26-2.15,3.86,3.86,0,0,1,.22,2.21Z" fill="#ff1d25"/><path d="M243.05,97.51c3.17-.63,6.88-1.11,9.25,1.09a122.61,122.61,0,0,0-51.68,15.63c-5.93,3.37-11.61,7.25-18,9.72-.93-.44-.08-1.83.79-2.38,10.37-6.57,21.59-11.68,32.76-16.78A54.27,54.27,0,0,1,228,100.48Z" fill="#ff1d25"/><path d="M252.32,97.93a2.47,2.47,0,0,1,4.35-.19,3.59,3.59,0,0,1-4.29,0Z" fill="#ff1d25"/><path d="M271.05,94.47a2.06,2.06,0,0,1-2.9-1.1,3.6,3.6,0,0,1,2.43-.5c.81.23,1.35,1.39.71,2Z" fill="#ff1d25"/><path d="M368.83,179.14c-.28-.5.75-1,1-.43a5.21,5.21,0,0,1,1.59,3.61,5,5,0,0,1-2.53-3.19Z" fill="#ff1d25"/><path d="M179.18,128.54a.84.84,0,0,1-1.39.24,4,4,0,0,1,2.61-2.44,1.77,1.77,0,0,1-1.19,2.07Z" fill="#ff1d25"/><path d="M264,97.31l2,.21a2.6,2.6,0,0,1-3.32.65c-.3-.57.71-.89,1.34-.76Z" fill="#ff1d25"/><path d="M259.1,94.07a1.29,1.29,0,0,1-1.84.34,2.44,2.44,0,0,1,3.23-1.18,2.06,2.06,0,0,1-1.38.85Z" fill="#ff1d25"/><path d="M271.05,98.69l-1.81-.89a2.16,2.16,0,0,1,1.74-.6c.61.17.79,1.25.17,1.36Z" fill="#ff1d25"/><path d="M283,99.11c.46.2.23,1-.25,1.12a1.85,1.85,0,0,1-1.4-.41c-.35-.68.93-.91,1.63-.59Z" fill="#ff1d25"/><path d="M269.07,223a21.54,21.54,0,0,0,4.64,1.2,72.35,72.35,0,0,1-28.92-.49L270,220.78c1.09-.13,2.17-.25,3.26-.3Z" fill="#ff1d25"/><path d="M295.25,210.11a29.71,29.71,0,0,1-9.88,7.38c-1.37.63-3.05,1.14-4.34.34A25.28,25.28,0,0,1,295.25,210.11Z" fill="#ff1d25"/><path d="M305.41,220.41a14.31,14.31,0,0,1-14.31,8.43Z" fill="#ff1d25"/><path d="M286.91,230.09a1.59,1.59,0,0,1-2.33.49,1.63,1.63,0,0,1,2.19-.63Z" fill="#ff1d25"/><path d="M326.85,276.55a127,127,0,0,0-53.15-3.72l7,7.05c-5.88-1.58-13-.27-16.51,4.69s-1.33,13.47,4.64,14.66a8.23,8.23,0,0,1-2.7-8.83c2.84,6.15,11.26,9.47,16.95,5.81s5.19-14.1-1.22-16.25c6.85,2.64,7.51,11.8,8.47,19.08s6.82,16.16,13.54,13.2l-43.69-1.17a112.08,112.08,0,0,1,37.65,8.73l-39.24,1.49c31.69,7.5,64.81,3.72,97.15-.09a193,193,0,0,1-77.41,5.14c.89,2.53,4.27,3,6.92,2.61s5.5-1.34,7.89-.12,2.43,5.85-.25,5.85a19.52,19.52,0,0,1,13.73,1.8l-66.06.09,67.11,3.79A51.12,51.12,0,0,0,313.85,365l-6-1.29,25.71,19.85c2.69,2.07,5.52,4.35,6.56,7.58,1.86,5.77-2.84,11.67-8,14.77s-11.35,4.88-15.58,9.23c-6.13,6.32-6.08,17.58.1,23.85,8.46,8.58,26.11,9.14,27.63,21.09,2.15-7.36-6.28-13.23-13.54-15.7s-16.19-5.91-16.87-13.54c5,11.93,24.88,10,31.27,21.29,4.15,7.32.12,17.13-6.71,22.05s-15.58,6.14-24,6.94c-16.71,1.58-34,2-49.79-3.72-34-12.36-52.72-55.79-38.34-89-15.58,25.68-4.89,61.85,19.07,79.95s57.35,20,86,11.07a126.38,126.38,0,0,1-62.41,3A33.24,33.24,0,0,0,270,497.18l144.69,2.72L40.56,500c-1-2.53,2.84-4.05,5.57-4l169.22.86,2.81-83.14c.44-13.1,1-26.73,7.17-38.31l.81,9.72a46,46,0,0,0,11.44-13.36l-8.52,7.13a289.84,289.84,0,0,0,5.73-48.56c-3.76,7.12-13.55,7.48-21.58,8.14s-18,5.31-16.89,13.3c1.63,11.62-9.41,20.91-19.89,26.19-38,19.18-85.54,18.26-122.82-2.37,43.69,19.24,98.24,20,136.2-9l-16.66-2.3a26.25,26.25,0,0,1-24.75,4.91A21.86,21.86,0,0,0,175,372.55a116.11,116.11,0,0,1-85.38,11.31A140.36,140.36,0,0,0,156.55,379c-16.62.3-37.39-2.09-43-17.73a7.7,7.7,0,0,0,6.9-1.1,6.53,6.53,0,0,1-6.26-6c5.89,4.54,16.13-1.25,15.28-8.64-.15,2.85,4.57,1.15,6-1.3a67.73,67.73,0,0,0-46.36,5.93A143.69,143.69,0,0,0,58.28,371.9,111.46,111.46,0,0,0,85.81,383a61,61,0,0,1-30.37-11.41,115.87,115.87,0,0,1,53.09-31l32.37-8.54c4.2-1.11,8.72-2.43,11.29-5.93a19.27,19.27,0,0,0,2.72-7l13.52-54.7-4.29,45.25c-3.22-2.32-8.59.8-8.17,4.75l6.32-4.12a8,8,0,0,1-6.45,9.13,24.73,24.73,0,0,0,14.78,11.39,10.35,10.35,0,0,0-8.27-4.64c11.2-1.13,13.58-16.12,14-27.37.63-16.25,3.69-32.7,11.47-47s20.71-26.24,36.43-30.42c-.57-5.44,7.6-6.11,13-5.47,25.36,3,48.73-16,74.26-16.14,9.09,0,18.2,2.33,27.18.93a31.1,31.1,0,0,0-29-4.29c5.71-6.69,16.44-4.51,24.59-1.18s17.83,7.13,25.17,2.29a117.42,117.42,0,0,0-32.56-60.86l24.58,39.43-9.82-8.25a14.36,14.36,0,0,0,1.27,5.87,124.45,124.45,0,0,0-50.15-41.6l30,26.68L309.4,155.2a120.47,120.47,0,0,1,22.41,35.06,159.83,159.83,0,0,0-33.59-40.81c-8.36-7.27-22.68-13-29-4-4.5,6.4-.86,15,.69,22.7s-2.62,18.56-10.24,16.79a37.56,37.56,0,0,0-30.7,6.54,83.14,83.14,0,0,1,59.75,0l-18.61-3.17c-2,0-2.67,3.14-1.35,4.68s3.54,1.86,5.56,2.08l26.17,2.86c-26,12.23-57.4,7.73-83.68,19.38a74.1,74.1,0,0,0-41,48.11l1.8-23.83-8.43,33.12c.44-40.83,30.63-79.53,70.13-89.88.53-9.67.91-20-4-28.34s-17.16-13.11-24.54-6.85a139.4,139.4,0,0,0-40.82,58.91c-3.1,8.64-14.73,10.68-23.61,8.35s-17.06-7.52-26.22-8.11c-20.63-1.33-34.89,19.87-53.54,28.78l8.18-10.65-14,4.37A24.16,24.16,0,0,0,70.88,220l-9.38,1.32-1.42-6.8,5.15-3.58-6.67-.65A11.45,11.45,0,0,0,67,203.84l-8.69,4a7.08,7.08,0,0,1,5.78-4.38l-6.76-8.22a27.75,27.75,0,0,0,4-10.68l-5.88-5a14.42,14.42,0,0,1,10.78-6.84l-6.47-3.94c4.79,0,5.73-8.68,1-9.68l6.8.85c-7.21-1.75-7.19-14.48,0-16.22a16.34,16.34,0,0,1,4-13.2,9.73,9.73,0,0,0,11.52-5.28l-2.55-6.65a9.86,9.86,0,0,0,6.63-1.2l-8.74-2.95c6,1.05,11.4-6.72,8.32-12a18.48,18.48,0,0,0,10.19-7.59c2.82,11.7-9.68,24.11-21.36,21.21S58.67,96.34,66.64,87.32,92,81.45,96.26,92.69l7.85,2.11c-4.4-4.54-3.06-13.2,2.51-16.19a16,16,0,0,1,9.44,4.79c.78-4.14-4.36-6.76-8.53-7.3A149.86,149.86,0,0,1,148,41.9c1-.56,2.08-1.36,2-2.47s-2.39-.9-1.86.09a11.08,11.08,0,0,1,6.59,3.92,3.89,3.89,0,0,0-2.42-5.13l6.26-3.54,5.36,5.12a5.86,5.86,0,0,0-3.59-7.36l10.6-4.58a3.47,3.47,0,0,0,4.36,2.49c-2.57-5.12,2.9-12.09,8.48-10.81l17.58,5.06a16.61,16.61,0,0,0-9-6.08,6.45,6.45,0,0,1,7.27-1.7l2.83-6.08a134,134,0,0,1,107.89,1.06L297,5.66a52.38,52.38,0,0,1,28,7.12,4.22,4.22,0,0,1,5.35,2.44c-4.29-.41-3.28,8.42.8,7.06-1.72-1.78,2.51-4.56,3.46-2.28a7.16,7.16,0,0,0-.08,10.4,20.49,20.49,0,0,1,4.86-12.71l13.47,8.17a13.76,13.76,0,0,1-12.13-4.62c-1.44,2.94,1.43,6.95,4.68,6.54l20.08,10.12a6.5,6.5,0,0,1,4.41-7.5l-.82,7.75a8.58,8.58,0,0,1,8.1-3.21,12,12,0,0,1-12.67,6.23l8,2.53c-3.28,2.55-.21,9.06,3.84,8.15-3.9-3-1.8-10.56,3.09-11.12l-4.14,6,7.22,5.55a13.92,13.92,0,0,0-5.84,4.57c2.62.06,5.57,0,7.39-1.9s.65-6.07-1.93-5.64a12.75,12.75,0,0,1,6.61-4.95l-.57,6.89c3.34-5.57,11.71-.21,15.46,5.09L443,112.15c9.93,14.07,20.33,31.47,13.83,47.41L453.9,138a27.69,27.69,0,0,0,4,27.1l-5.82,1.07a18.68,18.68,0,0,1-3.74,17.8,5.88,5.88,0,0,0,2.45,6.08l-9.92-.67,5.16,8.22c-2.92,4.84-10.95,5.28-14.38.79L444.09,214c-.58-2.55-3.86-3.21-6.47-3.35s-5.9-.83-6.43-3.4,5.1-2.69,3.7-.47a21.75,21.75,0,0,0-14.78-7.15,46.56,46.56,0,0,1,18.68,23.85c-12.2-24.33-45.22-35.58-69.73-23.76,4.49,12-3.94,27-16.51,29.4a17.4,17.4,0,0,1,11.65-8.46c-12.56,4.53-26.13-2.11-37.83-8.55a58,58,0,0,1,21.21,15.31c5.23,6,9.24,13.1,15.17,18.42s14.81,8.56,21.92,5a410.42,410.42,0,0,1-61.55,7.76l1.31,8-9.79,2.73,26.5,2.2c3.91.32,8.38.46,11.14-2.33s.7-9.14-3.09-8.1a62.34,62.34,0,0,1,26.63-3.78l-1.74,5.87,5.81,1c3.32.55,7.26.9,9.51-1.6s-1-7.8-3.59-5.65c4.25-2.2,9.62,4,6.82,7.91L346.43,273a94.8,94.8,0,0,1,6.3,44.2,126.12,126.12,0,0,1-53.32,3L345.25,312q-19.88-.47-39.76.89l8.72-8.38c-2.31,1-1.5,4.86.8,5.86s4.94.09,7.27-.81a6,6,0,0,0-6.14-5.43,15.64,15.64,0,0,0,10.71-27.55M154.47,76a2.91,2.91,0,0,0,3.32,2.1A3.15,3.15,0,0,0,154.41,76a7.32,7.32,0,0,0-.9-2.24l-3.61.22a9,9,0,0,0,4.46,2m245.75-8.64A2,2,0,0,0,402,69.93a11.8,11.8,0,0,0-5.81-5.67l.77,4.12a2.63,2.63,0,0,1,3-1M174.79,152a5,5,0,0,0,3.72-3.13,14.76,14.76,0,0,0,.91-5,4.81,4.81,0,0,0,4.53-3.79,3.74,3.74,0,0,0,4.27-3.78,3.64,3.64,0,0,0-2.14,1,55.46,55.46,0,0,0-11,11.7,8.12,8.12,0,0,1-2.11,1.79,16.61,16.61,0,0,0-5.63,7,9.14,9.14,0,0,0,3.77.23,5.11,5.11,0,0,1,1.36-4.94,4.06,4.06,0,0,1,2.28-1.14M417.58,77c-.34-1.12-1.8-1.35-3-1.49s-2.62-.8-2.47-2a2.45,2.45,0,0,0,1-2.17l-1.84-.71a4.44,4.44,0,0,1-2.27,4.8c-1,.52-.27,2.27.86,2.5s2.27-.33,3.42-.46,2.63.59,2.44,1.73a2.82,2.82,0,1,0-.41,5.46q-.44-2.09-.7-4.22a14.37,14.37,0,0,0,5.09,2.11,4.29,4.29,0,0,0,1.21,4.27,11.29,11.29,0,0,0,4,2.34A2.3,2.3,0,0,0,423,86.29a23.63,23.63,0,0,1-5.41-9.3M145.32,352.85c-.14-1,.07-2.15-.44-3.06s-2.24-1-2.35,0a19.49,19.49,0,0,0,8.66,11c.3,2.18-2.68,3.15-4.89,3.09s-5.14.22-5.55,2.39a3.83,3.83,0,0,0,1,2.85,12.81,12.81,0,0,0,4.78,3.94l-4.08-6.72a8.1,8.1,0,0,0,9.51-2.73c1.44-2.07,4.6-1.49,7-.68-.48,1.35-2.39,1.2-3.81,1s-3.43.74-2.88,2.06c.36.84,1.49.94,2.41.9l10.56-.41a58.48,58.48,0,0,1-8.4-6.18,6.15,6.15,0,0,0-1.18-.89,5.84,5.84,0,0,0-1.35-.45l-.77-.19c-3.5-.85-7.7-2.42-8.18-6m-25.25,14.8a6.16,6.16,0,0,0,5.28,3.11,16.21,16.21,0,0,0,6.26-1.26,8,8,0,0,0,2.46-1.22,4.21,4.21,0,0,0,1.44-3.87c-1-1.65-3.36-1.76-5.19-1.18s-3.56,1.64-5.48,1.67c-1,0-1.92-.24-2.88-.15a1.92,1.92,0,0,0-1.88,2.91m218.07,85.92c-4.18-5.2-12-5.22-18-8.12a19.35,19.35,0,0,1-.28-34.71,18.34,18.34,0,0,1-7.61-5.18c2.83,1.34,5.81,2.65,8.95,2.58s6.45-1.95,7.15-5a13.89,13.89,0,0,1-13.11,1.62,4.14,4.14,0,0,1-2.14-1.58c-1.68-2.89,2.64-8.09-.52-9.18,3.71.72,5.86,5.63,3.87,8.85,2.83.64,5.91,1.25,8.52,0s4-5.24,1.75-7.09c-1.8-1.49-4.49-.67-6.66.21-.54-1.93,1.68-3.72,3.68-3.58s3.67,1.52,5.19,2.82c-.41-4.87-7.29-7.69-11-4.51a7.43,7.43,0,0,1-2.51,1.89c-1,.29-2.39-.62-2-1.59a17.42,17.42,0,0,1,17-1.77,20.06,20.06,0,0,1-.91,14.3c5.27-1.28,10.34-6.26,9-11.52-.87-3.4-4-5.63-6.95-7.57l-17.88-11.79c-3.3-2.17-7.62-4.38-10.93-2.23.81-.51,1.9.45,1.87,1.41a3.79,3.79,0,0,1-1.43,2.41,8.24,8.24,0,0,0,5.54-3.51,4.66,4.66,0,0,1,.55,5.85,53,53,0,0,0-18.43.87,9.19,9.19,0,0,0,4.84,1.58l-11.25,1.55,2,2.94c-.39,1.32-2.54.81-3.21-.4s-.68-2.74-1.56-3.8c-1.36-1.64-3.93-1.26-6-.74l-18.22,4.59c-3.1-.82-2.29-5.46-3.69-8.35s-5.38-3.8-8.46-2.78-5.47,3.42-7.73,5.74l-6.92,7.1c-.83.85-1.67,2.26-.8,3.08,1.29,1.22,4.39-1,4.81.7a1.66,1.66,0,0,0-.8,2.94l5-2.18a4.57,4.57,0,0,1,1-3.66l27.51,3a15.76,15.76,0,0,0,6.82-.27q7.11-.22,14.18-1l-2.9-1.73c3.1-3.59,8.94-2.28,13.16-.12s8.87,5,13.37,3.48c2.86-1,4.89-3.49,7.55-4.91s6.91-1,7.51,2a12.58,12.58,0,0,0-15.37,18.08,33.09,33.09,0,0,1-6.86-4.12q-4.76,5.18-9,10.76a13.59,13.59,0,0,0-2.92,5.42c-.4,2,.32,4.44,2.17,5.36-3.93,2.28-3.37,8.05-2.09,12.41s2.46,9.84-1,12.8a3.3,3.3,0,0,0,5.19.64l2.67,2.43-10.36.71c1.51-.39,1.72,2.58.21,3s-2.93-.89-3.78-2.2l-23.58,0,3.18,2.92c-1.78,1.42-1.46,4.25-.44,6.29s2.6,3.87,2.92,6.13-1.58,5-3.75,4.32l-17.08-5.34c8.66,7.33,19.81,11.25,31,12.84s22.66,1,34,.22c7.47-.52,15.35-1.27,21.42-5.65s9.21-13.71,4.52-19.54M250.95,284.81l-3.62,2.83a11.06,11.06,0,0,1,7.68,8l5.46-1.66a2.92,2.92,0,0,0-3.77-1.76,2.34,2.34,0,0,1,3.16-1.8c-.12-5.88,3.17-11.51,7.84-15.07a137.9,137.9,0,0,1-19.36-13.84c4.89.61,8.73,4.28,12.7,7.2s9.31,5.28,13.68,3a43.55,43.55,0,0,1,35.72-1.83,8.22,8.22,0,0,0-5.74-4.79l5.31-7.71c-11.43-.32-23.94-1.07-32.34-8.83a101.69,101.69,0,0,0,53.74,6.88A19.08,19.08,0,0,1,325.55,242c3.13,6.64,8,14.37,15.36,13.71l15.74-1.42c1.69-.15,3.75-.58,4.26-2.21a4.4,4.4,0,0,0-.75-3.25c-3.53-6.61-7.13-13.31-12.3-18.74s-12.18-9.53-19.68-9.56l9.45,10.15a11,11,0,0,0-2.31-6.89c2.28-.1,3.87,2.15,5,4.13l5.1,8.93c2.74,4.8,5.58,10.09,4.74,15.55a22.91,22.91,0,0,0-7.67-8.55l-18.31-12.11c-2-1.3-4.05-2.75-4.85-5s.53-5.3,2.89-5.29c-6.67,1.23-12.13,5.83-18.13,9-19.43,10.26-43.34,5-63.73-3.17-3.93-1.58-7.94-3.28-12.18-3.33s-8.81,2-10.36,5.92A30.94,30.94,0,0,1,207,243.7a1.69,1.69,0,1,0-1.79,2.36,16,16,0,0,1-6.59,8.4c.17,2.56.33,5.22-.55,7.63s-3.12,4.53-5.69,4.43c-2.34-.09-4.2-1.88-5.83-3.56l-.48,5.88c2-1.92,5.19,1.42,4.52,4.08s-3.13,4.41-4.69,6.67-1.63,6.19,1,7a11.33,11.33,0,0,0,10-1.89l-6.11-4c6.89-2.36,10.38,13,17.26,10.55a4.41,4.41,0,0,0-2.3,8.32,3.35,3.35,0,0,0-1.79,4.64l4.63-1.27-2.64-2.34A22.52,22.52,0,0,1,233,327c3.13-6.3,5.22-14.74.25-19.72l-7.89-7.91a6.25,6.25,0,0,0-3.36-2.14c-1.58-.2-3,.8-4.53,1.32s-3.67.17-4-1.4a8.25,8.25,0,0,0,8.29-3.74c2,2.44,4.1,5,7.08,6s7-.48,7.45-3.57c.14-.86,1.43-.69,2.19-.26a44.87,44.87,0,0,1,19.29,21.67c.84-7.47-2.24-15-6.85-20.89s-10.64-10.58-16.6-15.15a24,24,0,0,0,16.63,3.61M144.65,170.69c-4.86,12.92-11.42,25.5-12.8,39.24A44.53,44.53,0,0,0,140.26,192c1,0,0,1.77-.77,1.23s-.61-1.75-.31-2.67a97.59,97.59,0,0,1,12.35-25.29,105.83,105.83,0,0,0-8.74,22.07c12.16-25.65,29.18-49.73,52.8-65.47a115,115,0,0,1,59.91-19.12,95.74,95.74,0,0,1,28,3.09c19.79,5.39,37,18.16,50.32,33.81s22.83,34.11,30.79,53a4.42,4.42,0,0,1,.46,3.21c-.66,1.71-3.06,3.9-1.34,4.52,5.63-2.93,5-11.29,2.3-17s-7-11.48-5.89-17.74L373.37,197c4-3.16-3.28-9.7-1.15-14.36a29.24,29.24,0,0,0,7.38,12.73c-4.62-15-12.78-28.71-21.35-41.9-10.47-16.11-21.93-32-37.25-43.6-21.95-16.62-50.85-23.11-78.12-19.35S190.09,107.85,170.31,127s-34,43.67-42.66,69.79q7.56-13.56,15.39-27l1.81-5.29c1.23,1.75.55,4.15-.2,6.15M234,220.5c-1.13,0-2.72-.61-2.3-1.65l3.71-.34a8.06,8.06,0,0,0-9.83,2.44,194,194,0,0,0,31.11,8.48c.67,1.43,2.45,1.87,4,2.14,12.49,2.19,25.9,4.27,37.4-1.06,5.19-2.4,9.61-6.17,14.47-9.17s10.59-5.3,16.21-4.25a171.76,171.76,0,0,1-24.06-1.68c-8.34,4.36-17,8.83-26.44,9.17q15.26-6.52,30.5-13.08a9.15,9.15,0,0,0-8.4.48,35.47,35.47,0,0,1,6.32-4.7c-11.75-2.18-23.38,3.2-34.74,6.91A128.56,128.56,0,0,1,234,220.5m32.66-24.77a21.45,21.45,0,0,0-19.51-3.84,3.25,3.25,0,0,1-2.65.09c-.77-.49-.46-2.1.42-1.86a7.55,7.55,0,0,0-3,.17l-13.49,2.63c-2.73.53-5.68,1.19-7.47,3.31-6,7.07-17.68,7.65-22.65,15.45a200.92,200.92,0,0,1,45.48-16.81c1.2,1.49-1.15,3.24-3,3.73-19.87,5.28-39.79,13.2-54.14,27.91-1.34,1.38-2.49,4-.8,4.88,16.09-16.41,38.53-25.12,61-30a12.17,12.17,0,0,1,6.06-.25A27.67,27.67,0,0,0,265.77,197l-1,2.74a22.13,22.13,0,0,0,10.06.41,24.4,24.4,0,0,1-8.21-4.41M229.38,453.81c-1.83,8.41-1.63,17.11-1.43,25.71l.32,13.86c0,1.22.14,2.62,1.11,3.36a4.12,4.12,0,0,0,2,.63,11.56,11.56,0,0,0,4.92-.09,4,4,0,0,0,2.94-3.56l-.79-25.64a3.69,3.69,0,0,0-.67-2.45,58.16,58.16,0,0,1-8.43-11.8m20.44-306.5A2.11,2.11,0,0,0,251.2,150c0,.61-.91.72-1.48.48-3.86-1.63-3.74-8.71-7.91-9.1a4.64,4.64,0,0,0,2.85,4.32l-3.49.8a33.13,33.13,0,0,0,13.22,8.45c1.75-1.39,4.11.8,5,2.83a52.76,52.76,0,0,1,3.26,11.46l1.32,6.49a4.84,4.84,0,0,1-6.83-1.06,3.94,3.94,0,0,0-6.38.16,6.63,6.63,0,0,1,7.54,6,7.21,7.21,0,0,0-4.65-2.84,4.24,4.24,0,0,0-4.47,2.59c-.41,1.26.49,3.05,1.78,2.74a2.73,2.73,0,0,1,2.06-2.68,6.34,6.34,0,0,0,8.64-1.52c.51-.76,1.8-.25,2.19.58s.33,1.81.68,2.66,1.54,1.48,2.16.8a56.67,56.67,0,0,0-1-11.84c-1-5.71-2.09-11.48-1.51-17.23s3.2-11.63,8.16-14.6c1.15-.69,1.25-2.44.55-3.59a7.76,7.76,0,0,0-3.1-2.5c-.62-.85,1-1.55,2-1.32s2.65,0,2.41-1a24.72,24.72,0,0,0-7.42.3l-.57-2.29-2,2a16.46,16.46,0,0,0,3.54,3.66c.25,2.1.49,4.31-.32,6.27s-3,3.5-5,2.78a4.29,4.29,0,0,0,.29,2.63,3.36,3.36,0,0,1-4.8-2.29l.87-1.4-9.22-2.33c-1-.24-2.4-.18-2.47.81,2.18,1.51,5,1.77,7.3,3.11s3.82,4.8,1.83,6.56a4.75,4.75,0,0,1,2.45,1.6,9.34,9.34,0,0,1-4.29-.46,3.2,3.2,0,0,1-2-3.46l2.68-.6a4,4,0,0,0-5.22-.63m-65.7,198c.66,5.59-2.81,11-2.3,16.62a6.53,6.53,0,0,0,8.22-.44c.28-.26.54-.66.37-1a16.16,16.16,0,0,1-1.84-7.29,5.08,5.08,0,0,1,1.19-3.81c1-.95,3-.88,3.46.4l4.89-26.36a3.43,3.43,0,0,0-3.34,1.88c-1.29-.64-.35-2.67.88-3.41s2.9-1.54,2.79-3-2.34-2-3.54-1.07-1.59,2.51-1.9,4L190.84,332c-.22,1-.39,2.27.34,3,2.47,2.61,2.59,6.88.9,10.05a3.67,3.67,0,0,1-2.27,2.08c-1,.21-2.29-.75-2-1.76a5.36,5.36,0,0,0,2.15-3.25l-2-.86a4.71,4.71,0,0,0-1,2.8,6.24,6.24,0,0,0-2.08-2.28c-1.08.63-.88,2.21-.73,3.45m62.69,63.18c-2.21.27-4.23-2-6.4-1.5l0,1.19c2.81,3.32,8.57,3.6,11.55.43a8.56,8.56,0,0,0,1.24-9.3,11.19,11.19,0,0,0-7.65-5.85,9.8,9.8,0,0,0-3.38-.22c-4.88.61-8.19,6.67-6.06,11.1l1.45-.25c-.5-2,1.05-4.14,3-5a13.57,13.57,0,0,1,6.22-.6c1.3,1.58,2.66,3.27,3,5.3s-.87,4.44-2.91,4.68m-91-84.75a4.37,4.37,0,0,0-.71,5.29,6.41,6.41,0,0,1,2.56,2.52c.48,1.11.07,2.7-1.1,3-1.8.48-2.77-2-2.9-3.9-1.31-.61-2.8.88-2.78,2.32a6.28,6.28,0,0,0,1.94,3.76c1.83,2.12,3.94,4.3,6.7,4.82s6.11-1.58,5.75-4.36a10.42,10.42,0,0,0-4.53-7.26,12.82,12.82,0,0,1-4.92-6.19M194.06,157l-3.27-3.42c-.76.89.57,2,1.19,3a3.55,3.55,0,0,1-.61,4.06A10.41,10.41,0,0,1,187.7,163c.82.65.28,2-.31,2.83l-4.56,6.63c1.94-.05,3.47-1.62,4.73-3.1,4.91-5.82,9.19-12.25,15-17.16a40.28,40.28,0,0,1,21.33-9.17c-2.18-1.64-5.28-1.12-7.84-.16s-5.11,2.31-7.83,2.11c-1.62-.12-3,1.1-4.15,2.23l-10,9.78m-9.88,174.13,1-4.81A10.7,10.7,0,0,0,187.9,313l-1.73,7.93c-.45,2.07-1.54,4.64-3.65,4.49a10.56,10.56,0,0,0-9.35,4.6l8.66,2.43a6.34,6.34,0,0,0-1.28,2,2.06,2.06,0,0,0,2.6-.6,6,6,0,0,0,1-2.7m102.53-198.5a1.37,1.37,0,0,1,1.94.26,2.53,2.53,0,0,0,.9-1.71,8.49,8.49,0,0,1-6-5.66c-.1,1.08-1.52,1.56-2.55,1.2a11.36,11.36,0,0,1-2.67-1.83,7,7,0,0,0-7.24-.44,17.29,17.29,0,0,1,10.36,6.09l-4.9-.42,6.94,6.7a11.86,11.86,0,0,0,3.79,2.78l-.56-7m72.41,85.57c-5.67.35-12.33.28-15.77-4.24a35.49,35.49,0,0,0-12.14-10.12c-.15.9.77,1.57,1.53,2.07,3.65,2.43,6,6.29,8.89,9.62s6.73,6.37,11.11,6.11a8.76,8.76,0,0,0,6.39-3.44M243.05,346c-.09-2.25-.8-5.11-3-5.37a65,65,0,0,1-1.25,29.5c-.39,1.39-.73,3.14.37,4.08,1.93-2.43,2.55-5.63,3-8.7a109.4,109.4,0,0,0,.94-19.51m10.56,65.06c.61-.86.83-2.42-.2-2.66a10.06,10.06,0,0,1-18.29-3.28c-.2-.92-.72-2.19-1.62-1.9s-1,1.83-.61,2.85a14,14,0,0,0,9,8.83,10.94,10.94,0,0,0,11.69-3.84M212.73,234.55c1.77-1.52,2.36-4,2.85-6.25l-1.25-.2a8.3,8.3,0,0,1-8.06,5.13c-1-.07-2.53.18-2.31,1.16a11.92,11.92,0,0,1-.4,6.63l6.07-2.29c-.67-1.75,1.68-3,3.1-4.18m139.45-31a7.11,7.11,0,0,1,4.24,9.87,10.16,10.16,0,0,0,4.81-2c1.3-1.18,1.84-3.38.67-4.69-1-1.07-2.8-1.32-3.28-2.67-.22-.62-.13-1.42-.64-1.83a1.59,1.59,0,0,0-1-.25,7.83,7.83,0,0,0-4.83,1.54M129,361.27a2.19,2.19,0,0,0,.22-1.62,11.66,11.66,0,0,1,9.32.62,4.58,4.58,0,0,0,1.85.71c.67,0,1.41-.45,1.38-1.12-2.57-1.48-5.26-3-8.22-3.2-2.62-.18-5.19.7-7.67,1.57-1.78.62-3.68,1.34-4.7,2.92l7.82.11M430.91,96.46a3.66,3.66,0,0,0-2-.17c-.7,0-1.56-.44-1.43-1.12.48-2.63-2.95-5-5.24-3.62-.52.56.27,1.43,1,1.54s1.61-.06,2.2.41c.79.63.52,1.86.44,2.87s.68,2.36,1.6,1.93c1.45-.68,3.16.54,3.79,2s.59,3.13,1,4.68,1.49,3.16,3.08,3.24q-1.66-5.3-3.59-10.51a2.4,2.4,0,0,0-.81-1.27m-23.26-27.1a8.57,8.57,0,0,0-6.39-8.8,4.17,4.17,0,0,0-2.49,1.13c-.59.72-.44,2.07.47,2.29l5.64,1.34-.37,2.55a2.21,2.21,0,0,0,0,1c.38,1.13,2,.91,3.14.47m41.7,97.23,4.68-2.77c-2.06-.48-3.11-2.83-3.28-4.94s.22-4.28-.36-6.32a16.7,16.7,0,0,0-1.6,10.18c.13.81-.46,1.55-.66,2.35s.51,1.93,1.21,1.5M445,122.89c-1-.92-2.47.37-3.37,1.4a12.28,12.28,0,0,1-6.82,3.93c-1.11.22-2.55.55-2.69,1.67a47.16,47.16,0,0,1,16-1.37,6.12,6.12,0,0,0-6-2.27,37.42,37.42,0,0,0,2.87-3.37M387.81,53.45a8.36,8.36,0,0,1,5.29,2.9,22.62,22.62,0,0,0,2,2.47,2.74,2.74,0,0,0,2.92.67c1-.47,1.18-2.1.21-2.54a14.12,14.12,0,0,1-6.05-5.41,8.31,8.31,0,0,0-4.37,1.91M335.35,209.88a32,32,0,0,0-11.41-5.27,24,24,0,0,0,12.18,7.84c.91-.56.09-1.94-.77-2.57M178.85,355.05a46,46,0,0,1-2.28-6.28,4.26,4.26,0,0,1-3.48-3.89l1.61-1.41c-.24-.62-1.21-.63-1.67-.15a2.81,2.81,0,0,0-.59,1.86,12.26,12.26,0,0,0,1.11,6.47,6.09,6.09,0,0,0,5.31,3.4m-55-15.44c-.54.33-.37,1.24.16,1.59a2.87,2.87,0,0,0,1.85.24l7.06-.65c-.62-1.95-2.22-4.38-4.07-3.51l-5,2.33M304.18,150.3c1.43,1.44,3.75,2.94,5.27,1.59a4.13,4.13,0,0,0,.91,2.17,1.43,1.43,0,0,0,2.09,0,11.3,11.3,0,0,0-10.69-6.21l2.41,2.43M193.29,314.67a4.72,4.72,0,0,0,3-4,3.41,3.41,0,0,0-3.22-3.49c-.39,0-.85.17-.95.55s.42.85.69,1.28a2.37,2.37,0,0,1-.36,2.43,4.16,4.16,0,0,0-1,2.35c.06.86,1.26,1.58,1.8.91M266.82,5a2.86,2.86,0,0,0-.06,3.61,2.86,2.86,0,0,0,3.56.59,5.29,5.29,0,0,1,6.36.83,3.37,3.37,0,0,0-5.85-2.4c-.64.69-1.69-.28-2.05-1.15s-1.16-2-2-1.49M223.73,413.86c-.78.72.17,1.95,1.07,2.51a32.8,32.8,0,0,0,6.12,3,6,6,0,0,0-6.26-5.81,1.55,1.55,0,0,0-.93.33M169,198.89l-6.39,10.92c-.6,1-1,2.62,0,3.13a34,34,0,0,0,6.36-14m123.55-60.7-1.71-2.38c-.64-.89-2-1.8-2.63-.87l1.51,5.27c.89,1,2.42,2,3.33,1s.15-2.13-.51-3M180.12,334.51l-2-.69,1,6.89a2.2,2.2,0,0,0,.59,1.43c.73.6,1.92,0,2.21-.94a4.38,4.38,0,0,0-.36-2.75l-1.43-3.94M225.83,9.32l7.89,1.92A9.05,9.05,0,0,0,222.8,8.09a7.59,7.59,0,0,0,3,1.22M180.28,31.09c-1.34-.17-3.33.42-2.92,1.71a25.69,25.69,0,0,1,13.79,2.37c.86-.54-.27-1.76-1.25-2.06a59.78,59.78,0,0,0-9.62-2m121.92-19.3c-.68-.79-2.06.36-1.81,1.37s1.27,1.59,2.19,2.09,1.91,1.18,2,2.22c1.25.17,3.08-.15,3-1.41a14.44,14.44,0,0,1-5.33-4.27M200.8,126.66a17,17,0,0,0-8.32,5c-.6.66-1.18,1.58-.81,2.4a30.6,30.6,0,0,0,9.13-7.41m10.51-113.9a2.32,2.32,0,0,0-3.21.44,6.28,6.28,0,0,0-1.66-2.68,2.16,2.16,0,0,0-2.88,0,14.15,14.15,0,0,0,5.71,5.16,3.23,3.23,0,0,1,2-2.94M186.12,25.48a2,2,0,0,0,3.36-.61,6.62,6.62,0,0,0-5.81-1.94,1.77,1.77,0,0,0-.94.38c-.62.58-.23,1.72.52,2.13a4.1,4.1,0,0,0,2.51.19m81.62,307.47-8.23-2.68a3.38,3.38,0,0,0-.85,2.38,13.36,13.36,0,0,0,9.08.31M407.2,71.81l-2.61.78c-1.07.32-2.41,1.21-1.89,2.2a5.49,5.49,0,0,0,4.91.07c1.27-.62,2-2.85.63-3.17a2.07,2.07,0,0,0-1,.12M136.38,62.66a3.44,3.44,0,0,1-1.77-2.92,2.1,2.1,0,0,0,1.55-3.39A10.73,10.73,0,0,0,133,60a3.67,3.67,0,0,0,.84,4.38,8.74,8.74,0,0,1,2.51-1.69M332.16,316.31a25.52,25.52,0,0,0-8.41.61,1.37,1.37,0,0,0-1,1.54,10.52,10.52,0,0,0,9.39-2.15m15.68-109.82a3.32,3.32,0,0,0,2.28-1.8,1.19,1.19,0,0,0-.21-1.23,23,23,0,0,0-8.2,3.55,13.14,13.14,0,0,0,6.13-.53M324.38,18.62a3.93,3.93,0,0,0-4-2.9,5.46,5.46,0,0,0-3.58,2.06,19.6,19.6,0,0,0,7.56.84m106.2,96.09a9,9,0,0,0,7.39,1.12,5.53,5.53,0,0,0,.27-2.87,41.77,41.77,0,0,1-7.66,1.75M234.87,5.63a3.12,3.12,0,0,0,2.63,2.28v4.42l1.31.27c.41-1.69.81-3.49.2-5.12s-2.68-2.8-4.13-1.86m18.28,326-6.51-3.37a2.75,2.75,0,0,0-2.44-.4,8.29,8.29,0,0,0,9,3.77M71.77,224.29a9.13,9.13,0,0,0,5.51-.79,2.56,2.56,0,0,0,1.59-1.69,10.26,10.26,0,0,0-4.23-.29,3.5,3.5,0,0,0-2.88,2.77M287.9,9.48a20.12,20.12,0,0,0,8.45,1.44A30.11,30.11,0,0,0,287,7.59c-.81.37,0,1.56.86,1.89M359.79,43a2.79,2.79,0,0,0,1-4.38,3.15,3.15,0,0,0-4.67.49,3.34,3.34,0,0,1,3.15,3.5m-74,256.89c0,1.61.66,3.81,2.26,3.58a8.53,8.53,0,0,0,.16-5.88,2.05,2.05,0,0,0-2.57,2.27M123.66,204.26a2.22,2.22,0,0,0-.24,1.11,1.15,1.15,0,0,0,.5.79,9.77,9.77,0,0,0,3.4-8.85,40.84,40.84,0,0,0-3.67,6.95M302.58,342.17a3.44,3.44,0,0,0,1.56-.14,1.72,1.72,0,0,0,.81-.71,27.69,27.69,0,0,0-13,.18l10.67.67M314.26,13.85c.87,1.66,4,.91,4-1s-3.08-2.67-4-1l-.19,2.09M303,363a4.62,4.62,0,0,0,.33,1.45,2.37,2.37,0,0,0,2.37,1.3,31.91,31.91,0,0,0-3.43-8.85L303,363m-58.43,38.83a2.53,2.53,0,0,0-2.81-.66,4.59,4.59,0,0,0,1.44,3.18,2.21,2.21,0,0,0,3.16-.3c.62-1-.57-2.64-1.64-2.1m39.7-287.21a2.71,2.71,0,0,0,4.13-.85q-2.9-1-5.85-1.82l-.84,1.47a5.41,5.41,0,0,0,2.45,1.3M143.15,49.21A1.44,1.44,0,0,0,142,51.36a8.91,8.91,0,0,1,6.12-.63l-3.68-3.87-1.13,2.44m95.35,312a41.67,41.67,0,0,0,.09-13.52,33.56,33.56,0,0,0-.09,13.52M214.8,333.13H211c-.58.55.34,1.4,1.12,1.58a10,10,0,0,0,7.09-1.09l-4.34-.7M421,130.76a1.59,1.59,0,0,0-1.36.23,1.91,1.91,0,0,0,.26,1.43,11.73,11.73,0,0,0,6.29-1.48c.19-1-1.37-1.27-2.38-1l-2.83.64M273,300.14l2.47.21a2.13,2.13,0,0,0,.19-1.81,14.48,14.48,0,0,0-6.81-1.36l4.25,2.71m.43-189.64a5.7,5.7,0,0,0-7.13,0,14.12,14.12,0,0,1,6.87,1.93,2.64,2.64,0,0,0,.27-2m-32.13,1.3a4.55,4.55,0,0,0,4.92-1.49,34.7,34.7,0,0,0-8.44.74,2.23,2.23,0,0,0,3.35,1m102,89.94a3,3,0,0,1-3.8-1l-1.43,2.09a8.22,8.22,0,0,0,7.24-.09c.14-.81-1.11-1-1.91-.78m7.61,8.13a2.75,2.75,0,0,0-3.57-.79,8.6,8.6,0,0,0,7.42,2.46,1.39,1.39,0,0,0,0-1.74,4.83,4.83,0,0,1-3.77,0M346.75,37.07A2.47,2.47,0,0,0,350.2,37c-2.54-.41-4.46-2.46-6.16-4.39a3.89,3.89,0,0,0,2.59,4.58M253.39,320.29a4.69,4.69,0,0,0-2.93-1.73c-1.16-.06-2.39,1.1-2,2.18a6,6,0,0,0,5.15,0M382.16,63.41a1.54,1.54,0,0,0-1.4,1.62,9.94,9.94,0,0,0,6.11-.28A2,2,0,0,0,385,63.1a5.85,5.85,0,0,0-2.65.6M198.59,291.24a8.87,8.87,0,0,0-.9,4.07c2.3.07,3.82-3.23,2.28-4.94l-1.37.81M389.43,55.61c-.65-.75-2,.09-2,1.08a2.46,2.46,0,0,0,2,2c1,.27,2,.24,2.92.51A5.26,5.26,0,0,0,389.22,56m-155.4,84.67a7.85,7.85,0,0,0,6.16,4.25,8.08,8.08,0,0,0-6.16-4.25m157.76-76.8A4.67,4.67,0,0,0,390,60.76c-1-.66-2.78,0-2.54,1.22a11.12,11.12,0,0,0,3.85,2.59m-214.44,282a1.36,1.36,0,0,0,1.72,1.71c1.16-.66,1.69-2.45.72-3.37s-3,.37-2.31,1.51M93.14,107.48,93,105.63a3.65,3.65,0,0,0-2.1,3.51,2.94,2.94,0,0,1,2.05,2.12,2.9,2.9,0,0,0,.22-3.79M69.26,146.34a6.17,6.17,0,0,0-4.66,1.28,2.73,2.73,0,0,0,5-1.54m192.82,43a9.91,9.91,0,0,0-5.27-.11,3.57,3.57,0,0,0,5.75.64M260.32,9.16a2.11,2.11,0,0,0-3.11,1.94,6.27,6.27,0,0,1,5.94.61,2.46,2.46,0,0,0-2.92-2.36M180.79,232a8.16,8.16,0,0,0-.69,7.36,8.11,8.11,0,0,0,.69-7.36m-34,117.8a10,10,0,0,0,3.45,4.24c1.15-2.09-1.22-5-3.51-4.37M68.42,140.17a3.89,3.89,0,0,0,5,1.79,4.31,4.31,0,0,1-2.4-3,2,2,0,0,0-2.15,1.13m126-13.51a2.92,2.92,0,0,0-2.63.76,34.2,34.2,0,0,0-6,5.53,89.18,89.18,0,0,0,8.62-6.29M355.63,45.1c-.25.35.43.73.74.45a1.34,1.34,0,0,0,.21-1.21l-.71-4.63a3.43,3.43,0,0,0-.15,5.32M136.33,341.74c.94-1.25,0-3-1-4.22-.51-.65-1.36-1.37-2.06-.93a13.29,13.29,0,0,0,3.08,5.15M243.81,118.66a2.45,2.45,0,0,0,3-2.5,4.15,4.15,0,0,0-2.86.25c-.83.53-1,2-.13,2.4M253.93,135a7,7,0,0,0,3.84,4.35c.53.23,1.25.35,1.6-.11a21.26,21.26,0,0,0-5.45-4.24M218.69,7.18a8.75,8.75,0,0,0-2.54,4c2.06-.45,3.33-2.48,4.36-4.32a1.26,1.26,0,0,0-1.87.26M250.36,8.2h1.74a2.26,2.26,0,0,0-4.37-.81l2.55,1m5-4.1a2.86,2.86,0,0,0,3.06-.76,4,4,0,0,0-5,.11c-.22.84,1.26,1.39,1.65.62M182.65,173.8a11.37,11.37,0,0,0-2.95,5.93,6.29,6.29,0,0,0,2.95-5.93M241.4,6a2.52,2.52,0,0,0,3.65,2.5A3.72,3.72,0,0,0,241.6,6m97.1,20a1.34,1.34,0,0,0-2,.47,3,3,0,0,0,4.39,1.2l-2.26-1.8m100.27,172.2c-1.07-.29-2.58.31-2.42,1.41a10.43,10.43,0,0,0,6.71-1.3l-4.23.19M284.24,5.39a1.09,1.09,0,0,0,.58-1.57l-4.19.88a2.26,2.26,0,0,0,3.62.74M154.67,168.52a5.08,5.08,0,0,0-1.24,4.36l3.25-5.16a1.31,1.31,0,0,0-1.9.78m38.84,134.82a2.12,2.12,0,0,0,3.32,1.57,1.38,1.38,0,0,0-.94-1.8,3.9,3.9,0,0,0-2.28.2M123.46,70c1,.2,2.56-.23,2.4-1.29a2.16,2.16,0,0,0-2.51-1c-.89.41-.84,2.08.14,2.15m59.36,202.81a3.34,3.34,0,0,0,3.82,1.17,2.5,2.5,0,0,0-4-1.31m-46.87,78.93a4.51,4.51,0,0,0-3.29,0l1.37,2.45a1.32,1.32,0,0,0,1.28-.27l.62-2.19M184.77,64a3.35,3.35,0,0,0,3.52,1.53A4.1,4.1,0,0,0,184.18,63c-.47.29,0,1.2.53,1M258.6,6.48a9.29,9.29,0,0,0-4.19-.91,2.69,2.69,0,0,0,4.41,1.25M433.65,166.31c.89-.27.07-1.71-.86-1.79s-2.06.23-2.66-.49a2.58,2.58,0,0,0,3.4,2.11M67.86,156.47a2.2,2.2,0,0,0,3.81.8,2.44,2.44,0,0,0-3.42-.76M313,14a2.58,2.58,0,0,0-3.15.24,3.45,3.45,0,0,0,2.36,1.48c1,0,1.74-1.4.94-1.94M272.2,212.1l3.63-1a4,4,0,0,0-5.21.76l1.57.47M256.14,399a2.38,2.38,0,0,0-2.08-2.45,3.68,3.68,0,0,0,1.8,3.75.82.82,0,0,0,.25-1.32m39.65-383.7,1,1a4.75,4.75,0,0,0,.88-2.18,1.63,1.63,0,0,0-1.26-1.75,4.37,4.37,0,0,0-.82,2.93m-8.4,362.91a1.62,1.62,0,0,0,0-2.37,2.94,2.94,0,0,0-2.55-.53,3.78,3.78,0,0,0,2.51,2.47m2.41-360.45-2.46.22c-.48.51.05,1.42.74,1.55a2.94,2.94,0,0,0,2-.61c.38-.23.81-.54.82-1s-.77-.7-.85-.26M155.77,214.79a5.93,5.93,0,0,0-5.7-1.28,8.78,8.78,0,0,0,5.7,1.28m42.84,86.35a1.74,1.74,0,0,0,.91,1.35l.83-3.55a1.46,1.46,0,0,0-1.38-.21,1.94,1.94,0,0,0-.45,2.49M154.85,48.86l.59-.92a2.56,2.56,0,0,0-4-.42,6.47,6.47,0,0,0,3.18,1.06m184,235.58c.1-.92,0-2.09-.82-2.44a2.63,2.63,0,0,0,0,3.83,2.18,2.18,0,0,0,.83-1.38M138.5,53.33a2.1,2.1,0,0,0,2.8.52,6,6,0,0,0-2-2.41,1.87,1.87,0,0,0-.8,1.89m-24.84,47.29a2.2,2.2,0,0,0,2.93.9,2.11,2.11,0,0,0-3.48-1.2M418.3,88.59l2.28,1.11a2.67,2.67,0,0,0-3.17-2.6,1.63,1.63,0,0,0,.89,1.46M74.14,136.14a2.14,2.14,0,0,0-.94-3.25,2.31,2.31,0,0,0,1,3.41M365.7,213.93l-.9-.52a3,3,0,0,0-1.66,1c-.37.53-.21,1.46.43,1.59a3,3,0,0,0,2-1.78M155.48,191.76c.91-.9-.82-2.64-1.73-1.74s.82,2.64,1.73,1.74M445,154.35a2.1,2.1,0,0,0-2.93.29,4.62,4.62,0,0,0,4.39.42,2.15,2.15,0,0,0-1.36-.8M121,72.48a2.13,2.13,0,0,0-1.37-.82,2.27,2.27,0,0,0-.83,1.38,5.64,5.64,0,0,0,2.51,1.34,1.79,1.79,0,0,0-.36-1.87M138.21,344.1a1.57,1.57,0,0,0-1.37.24V346a2.2,2.2,0,0,0,2.33-.06l-.73-2M188,338,186,339.53a16.8,16.8,0,0,0,4.52-.74,1.83,1.83,0,0,0-2.46-.59m97.28-20.44c.48.31,1-.68.47-1a3.08,3.08,0,0,0-3-.39,1.81,1.81,0,0,0,2.48,1.3m-115-268.33a2,2,0,0,0-2.41-.42,4.14,4.14,0,0,0,3.13,2,1.12,1.12,0,0,0-.57-1.62M142.89,358.56a2.6,2.6,0,0,0,3.25,2.28,6.6,6.6,0,0,0-3.16-2.58M440.65,177.79a2.14,2.14,0,0,0,3.1,1.37,2,2,0,0,0-3-1.31M142.33,71.65a2.52,2.52,0,0,0-3.26-2,4.55,4.55,0,0,0,3,2.1m260.09,4.57a1.73,1.73,0,0,0-2.7,1,4.84,4.84,0,0,0,2.47.28,1.81,1.81,0,0,0,.25-1.37M127.79,63.54a2.88,2.88,0,0,0-3,.68,4.49,4.49,0,0,0,4.46-.41,1.59,1.59,0,0,0-1.42-.35M114.7,70.56a1.3,1.3,0,0,0-.18,1.31,1.66,1.66,0,0,0,2.63.11,2.9,2.9,0,0,0-2.45-1.48m66.17,67.3a11.75,11.75,0,0,0,3.57-3,4.24,4.24,0,0,0-3.84,3M382.45,58.91c-.26-.13-.5.31-.33.54a.88.88,0,0,0,.79.24,4.63,4.63,0,0,0,3-1.38,2.85,2.85,0,0,0-3.34.57M147.95,212.42a4.36,4.36,0,0,0-4-.41c.93,0,1.65.78,2.5,1.16s2.25-.26,1.84-1.1M266,11.68l-1.6-.49a3.09,3.09,0,0,0,.72,3.07,2.26,2.26,0,0,0,.8-2.48m30.75,376.27a3.13,3.13,0,0,0,3.3.65,2.2,2.2,0,0,0-3.53-.77m-56.09-66a.89.89,0,0,0,.76,1.31,2.39,2.39,0,0,0,.78-2.48,1.13,1.13,0,0,0-1.59,1.13M109.6,82.83a1.91,1.91,0,0,0-2.9-1,1.8,1.8,0,0,0,2.78,1M166.89,61a3.11,3.11,0,0,0-3.39-1.2,2.22,2.22,0,0,0,3.37,1.1m106.2-49.78a3,3,0,0,0,3.83.52,4,4,0,0,0-3.54-.64M260,141c-.83.67.32,2.28,1.22,1.72.8-.77-.38-2.39-1.36-1.87m57.76,62.73,1.27-.23a2.11,2.11,0,0,0-3.26-.76,1.94,1.94,0,0,0,2,.92m-65.34-37-1.41-.22a3.57,3.57,0,0,0-.25,2c.78.78,2.26-.72,1.48-1.49M392.76,61.55a1.07,1.07,0,0,0,1.47.78,2.8,2.8,0,0,0,.26-1.89,1.85,1.85,0,0,0-1.36-.26,1.78,1.78,0,0,0-.25,1.36M207.69,333.63c.6.22,1.49-.16,1.35-.79a4.48,4.48,0,0,0-3.32,0,1.24,1.24,0,0,0,1.87.66m63-56.16c-1.06-.23-2.56.25-2.41,1.32a1.83,1.83,0,0,0,2.65-1.37M67.54,152.11a1.69,1.69,0,0,0-2.33-.93,1.65,1.65,0,0,0,2.73,1.13M327.48,24.64a1.77,1.77,0,0,0-1.4.23,1.49,1.49,0,0,0,2.73.55,1.88,1.88,0,0,0-1.33-.79m36,50.74c-.44.63.57,1.44,1.28,1.16A2.76,2.76,0,0,0,366,74.71a6.38,6.38,0,0,0-2.49.66m-1.93-31.51,3.27,2.25a3.12,3.12,0,0,0-2.64-2.52M70.45,152.05a3.35,3.35,0,0,0,3.5.25,2.77,2.77,0,0,0-3.28-.5m152,336,1.38.21a2.25,2.25,0,0,0,.28-1.44,3,3,0,0,0-1.92-.22.85.85,0,0,0,.29,1.3M272.59,4.68c.08-.93-1.37-1-2.24-.62-.23,1.16,1.87,1.76,2.29.65M148.07,375.22a1.72,1.72,0,0,0,1.38-.22,1.43,1.43,0,0,0-2.18-1.13,1,1,0,0,0,.78,1.38m92.34-239.87,4.17.8a6.21,6.21,0,0,0-3.75-1.53m112.39,71.62c-.6-.22-1.5.16-1.35.78a2.27,2.27,0,0,0,2.47.76,2.31,2.31,0,0,0-1.15-1.55M338.44,29.6a1.55,1.55,0,0,0-.56,2.24,3,3,0,0,0,1.82-2.11l-1.27-.27M77.25,218.06a.79.79,0,0,0-.31,1.29c.9.15,2-.45,1.93-1.36a1.41,1.41,0,0,0-1.67,0m2.52,5.88,3-1a1.88,1.88,0,0,0-3.08.88M249.5,315.4a2,2,0,0,0-2.77.42,2.21,2.21,0,0,0,3-.34M450.26,148a1.6,1.6,0,0,0-.22-1.35,1.73,1.73,0,0,0-1.89.81,1.6,1.6,0,0,0,2.18.62M210,16.76a1.6,1.6,0,0,0,2.35.47,1.39,1.39,0,0,0-2.39-.67m38.12,148.35c-.3-1-1.81-.93-2.84-.58a1.9,1.9,0,0,0,2.77.73m199.58-32.95a1.72,1.72,0,0,0,.84,1.9,1.71,1.71,0,0,0,.15-2.44.62.62,0,0,0-.89.55M276.42,198.95c-.79,1.05,1.24,2.54,2,1.48a3.4,3.4,0,0,0-1.81-1.33M281.54,9.85h1.65a1.07,1.07,0,0,0-1.07-1.55,1.09,1.09,0,0,0-.59,1.56M136.78,67.45l.66-.92a2.05,2.05,0,0,0-2-.89,1.16,1.16,0,0,0,1.13,1.64M233.16,7.38a1.47,1.47,0,0,0-2.25-1.11,1.48,1.48,0,0,0,2.24,1.14M208,231.11l-1.36-1.32a1.06,1.06,0,1,0,1.29,1.31M441.5,116.23a1.36,1.36,0,0,0-.24-1.32c-.83-.5-1.81,1-1.08,1.63l1.37-.15m.45,52.93a1.13,1.13,0,0,0-1.6-.58,1.68,1.68,0,0,0,1.5,1.82l.26-1.25M283.93,301.74a2.1,2.1,0,0,0-2.09-.66c-.24,1.16,1.87,1.77,2.29.66M256.36,17a2.12,2.12,0,0,0,2.61.18,1.76,1.76,0,0,0-2.73-.34m64.2,3.46a1.33,1.33,0,0,0,.44,2.15l.84-1.41a2,2,0,0,0-1.34-.79m-32.52,276a2.07,2.07,0,0,0,.28-2.47,1.8,1.8,0,0,0-.51,2.61m147.6-126.71c-.77-.22-2-.07-1.87.72a2.16,2.16,0,0,0,1.48.35c.5-.13.83-.86.43-1.19M137.4,349.27l-1.11,1.14c.68.22,1.56.34,2-.22s-.62-1.53-.9-.86m270-181.37a1,1,0,0,0-1.77.26c.18.93,1.94.65,1.83-.29m6-35.08c.77.21,2,.07,1.87-.72a2.16,2.16,0,0,0-1.48-.35c-.5.13-.83.86-.43,1.19M219.2,19.71c-.49.28-.05,1.14.51,1.14a2,2,0,0,0,1.37-.9,1.29,1.29,0,0,0-1.86-.21m91.3,188.71c-.61-.21-1.54.22-1.3.82.62.2,1.39.36,1.83-.11s-.46-1.42-.75-.84M171.43,34.5c.21.9,1.93.51,1.72-.39s-1.93-.51-1.72.39M164.77,161.1a1.7,1.7,0,0,0,.23,1.38,1.39,1.39,0,0,0,1.4-1.38,1.41,1.41,0,0,0-1.67-.05m54.13-44.37c-.67,0,.14,1.16.72.82s.89-1.13,1.55-1.25a1.75,1.75,0,0,0-2.09.63M278.71,5c-.39-.41-1.12.2-1,.76s.65.9,1.14,1.18a1.22,1.22,0,0,0-.33-1.78m-84.6,258.07L193,262a1.68,1.68,0,0,0-.91,1.36,1.45,1.45,0,0,0,1.69.06M97.55,108c.15.54,1.1.07,1-.47s-.77-.78-1.32-.88a.91.91,0,0,0,.28,1.36m89.06,182.23a1,1,0,0,0-1.46-.58c-.41.91,1.46,1.55,1.7.59M149.4,47.1a1.23,1.23,0,0,0-2.09-.83,1.76,1.76,0,0,0,1.84.76M372.08,58.87a.84.84,0,0,0-.29,1.35c.55-.13,1.2-.35,1.34-.9s-.86-1-1-.43M87.44,216.09c0-.53-.76-.77-1.21-.51a2.11,2.11,0,0,0-.8,1.32,2.91,2.91,0,0,0,1.91-.85m203.81,92.73c-.06-.83-1.05-1.65-1.67-1.1a1.18,1.18,0,0,0,1.66,1.12M131.64,67.33c-.46-.34-.92.62-.51,1a1.53,1.53,0,0,0,1.49-.34l-.83-.83M204.95,308a1.67,1.67,0,0,0-1.37.22,2,2,0,0,0,1.37.81c.25-.16.53-.36.58-.65s-.36-.6-.56-.37M64.35,195.13a.8.8,0,1,0-.7-1.24l.72,1.39m198.91-188a.88.88,0,0,0,1.54-.46.94.94,0,0,0-1.61.51M449.7,171.5c.13-.61-.19-1.59-.73-1.27-.76.38.13,1.81.81,1.3m-.91-34.22c-.1,1,1.86,1.14,1.9.12l-1.83-.2M159.5,62.9a1.21,1.21,0,0,0,1.95.84,1.84,1.84,0,0,0-1.89-.81m192-31.17c-.85.24-.26,1.87.55,1.52a1,1,0,0,0-.59-1.44M180.44,153.74c-.07-.81-1.64-.54-1.48.26a.91.91,0,0,0,1.35-.3m58.36-15.07a.92.92,0,0,0,1.58-.54,1.11,1.11,0,0,0-1.57.61M396.42,69.43c-.82.05-1.64,1-1.12,1.66a2.76,2.76,0,0,0,1.19-1.6M68,217.35c-.77-.44-1.56,1.07-.77,1.46l.81-1.32m90.35-3.09c-.44.77,1.07,1.56,1.46.76l-1.32-.81m55.35-95.06a2.74,2.74,0,0,0,2.32-.33,2.19,2.19,0,0,0-2.19,0M75.1,139.72a.92.92,0,0,0,1.58-.54,1.11,1.11,0,0,0-1.57.61m337.61,48.89c-.44.77,1.07,1.56,1.46.76l-1.32-.81m18.19-80.55-.71-1.38a.78.78,0,1,0,.74,1.28M244.28,169.59c.11-.4-.66-.5-.82-.11a1.27,1.27,0,0,0,.33,1.15c.48.31,1-.65.52-1Z" fill="#ff1d25"/></g></svg>