<svg id="Layer_1" data-name="Layer 1" xmlns="http://www.w3.org/2000/svg" viewBox="0 0 100 100"><title>Artboard 1</title><line x1="39.53" y1="50" x2="73.49" y2="50" fill="none" stroke="#000" stroke-miterlimit="10" stroke-width="2"/><polygon points="40.34 49.01 35.49 40.6 33.21 40.6 38.07 49.01 35.79 49.01 30.94 40.6 28.66 40.6 33.52 49.01 31.24 49.01 26.38 40.6 24.11 40.6 28.96 49.01 26.64 49.01 26.64 50.99 28.96 50.99 24.11 59.4 26.38 59.4 31.24 50.99 33.52 50.99 28.66 59.4 30.94 59.4 35.79 50.99 38.07 50.99 33.21 59.4 35.49 59.4 40.34 50.99 40.34 49.01"/><path d="M59.82,59.6a1,1,0,0,1,.31-1.38L73,50,60.13,41.78a1,1,0,0,1,1.07-1.69l14.23,9.06a1,1,0,0,1,0,1.69L61.2,59.91a1,1,0,0,1-1.38-.31Z"/></svg>