<svg id="Layer_1" data-name="Layer 1" xmlns="http://www.w3.org/2000/svg" viewBox="0 0 51.78 20.12"><title>Arrow_Right</title><line x1="15.42" y1="10.06" x2="49.38" y2="10.06" fill="none" stroke="#000" stroke-miterlimit="10" stroke-width="2"/><polygon points="16.23 9.07 11.38 0.66 9.1 0.66 13.96 9.07 11.68 9.07 6.83 0.66 4.55 0.66 9.41 9.07 7.13 9.07 2.27 0.66 0 0.66 4.86 9.07 2.53 9.07 2.53 11.05 4.86 11.05 0 19.46 2.27 19.46 7.13 11.05 9.41 11.05 4.55 19.46 6.83 19.46 11.68 11.05 13.96 11.05 9.1 19.46 11.38 19.46 16.23 11.05 16.23 9.07"/><path d="M59.82,59.6a1,1,0,0,1,.31-1.38L73,50,60.13,41.78a1,1,0,0,1,1.07-1.69l14.23,9.06a1,1,0,0,1,0,1.69L61.2,59.91a1,1,0,0,1-1.38-.31Z" transform="translate(-24.11 -39.94)"/></svg>