<svg id="Layer_1" data-name="Layer 1" xmlns="http://www.w3.org/2000/svg" viewBox="0 0 51.78 20.12"><title>Arrow_Left</title><line x1="36.36" y1="10.06" x2="2.4" y2="10.06" fill="none" stroke="#000" stroke-miterlimit="10" stroke-width="2"/><polygon points="35.55 11.05 40.41 19.46 42.68 19.46 37.83 11.05 40.1 11.05 44.96 19.46 47.23 19.46 42.38 11.05 44.65 11.05 49.51 19.46 51.78 19.46 46.93 11.05 49.26 11.05 49.26 9.07 46.93 9.07 51.78 0.66 49.51 0.66 44.65 9.07 42.38 9.07 47.23 0.66 44.96 0.66 40.1 9.07 37.83 9.07 42.68 0.66 40.41 0.66 35.55 9.07 35.55 11.05"/><path d="M40.18,40.4a1,1,0,0,1-.31,1.38L27,50l12.91,8.22a1,1,0,0,1-1.07,1.69L24.57,50.84a1,1,0,0,1,0-1.69L38.8,40.09a1,1,0,0,1,1.38.31Z" transform="translate(-24.11 -39.94)"/></svg>