<?xml version="1.0" encoding="utf-8"?>
<!-- Generator: Adobe Illustrator 20.1.0, SVG Export Plug-In . SVG Version: 6.00 Build 0)  -->
<svg version="1.1" id="Layer_1" xmlns="http://www.w3.org/2000/svg" xmlns:xlink="http://www.w3.org/1999/xlink" x="0px" y="0px"
	 viewBox="0 0 90 90" style="enable-background:new 0 0 90 90;" xml:space="preserve">
<g>
	<path d="M79.1,22c-1.5-1-3.3-1.7-5.4-2.2l0.6-4.7c0.1-1-0.7-1.9-1.8-2.1l-0.7-0.1c-1.1-0.2-2.2,0.5-2.3,1.5l-0.6,4.8
		c-2,0-3.9,0.2-5.4,0.7c-1.8,0.6-3.1,1.5-3.7,2.6l-28.1-3.7c-0.3-2.2-2.4-4.2-5.4-5.3l0.7-4.9c0.1-0.5-0.1-1-0.5-1.4
		c-0.3-0.4-0.8-0.6-1.3-0.7l-0.7-0.1C23.3,6.4,22.2,7,22.1,8l-0.6,4.8c-3.9,0.1-7.1,2-7.4,4.7L8.1,61l0.1,0
		c-0.1,0.2-0.1,0.4-0.1,0.6c-0.3,2.6,1.9,5.1,5.5,6.3l-0.9,6.6c-0.1,0.5,0.1,1,0.5,1.4c0.3,0.4,0.8,0.6,1.3,0.7l0.7,0.1
		c0.1,0,0.2,0,0.3,0c0.4,0,0.8-0.1,1.2-0.3c0.5-0.3,0.7-0.7,0.8-1.2l0.9-6.5c3.9-0.1,6.9-2,7.3-4.7c0-0.1,0-0.3,0-0.4l27.8,3.8
		l0.1-0.5l0.2,0c-0.1,0.3-0.2,0.6-0.3,0.9c-0.4,2.7,2.9,5.5,7.9,6.8l-0.9,6.5c-0.1,1,0.7,1.9,1.8,2.1l0.7,0.1c0.1,0,0.2,0,0.3,0
		c1,0,1.8-0.6,2-1.5l0.9-6.5c0.2,0,0.5,0,0.7,0c5,0,8.7-1.8,9.1-4.4c0-0.2,0-0.5,0-0.7l0.1,0l1-7.2l0.1,0c0,0,0-0.1-0.1-0.1l0.7-5.3
		l0.1,0c0,0,0-0.1-0.1-0.1l0.7-5.3l0.1,0c0,0,0-0.1,0-0.1l0.7-5.3l0.1,0c0,0,0-0.1,0-0.1l0.7-5.3l0.1,0c0,0,0-0.1-0.1-0.1l0.7-5.3
		l0.1,0c0,0,0-0.1-0.1-0.1l0.7-5.3l0.1,0c0,0,0-0.1,0-0.1l0.5-3.5C82.2,25.1,81.2,23.4,79.1,22z M70.5,14.6c0.1-0.4,0.6-0.7,1.2-0.6
		l0.7,0.1c0.4,0.1,0.8,0.3,0.9,0.6l-1.4-0.2l-0.1,1l1.5,0.2l-0.4,2.8l-1.5-0.2l-0.1,1l1.5,0.2l0,0.2c-0.4-0.1-0.8-0.1-1.2-0.2
		c-0.5-0.1-1.1-0.1-1.6-0.2L70.5,14.6z M59.4,23.6L59.2,25l-2.6-0.4l-0.1,1l2.6,0.4l-0.4,2.8l-2.6-0.4l-0.1,1l2.6,0.4l-0.4,2.8
		l-2.6-0.4l-0.1,1l2.6,0.4l-0.4,2.8L55,35.9l-0.1,1l2.6,0.3L57.1,40l-2.6-0.3l-0.1,1L57,41l-0.4,2.8L54,43.5l-0.1,1l2.5,0.3L56,47.6
		l-2.5-0.3l-0.1,1l2.5,0.3l-0.4,2.8L53,51l-0.1,1l2.5,0.3L55,55.1l-2.5-0.3l-0.1,1l2.5,0.3l-0.4,2.8L52,58.6l-0.1,1l2.4,0.3
		l-0.4,2.8l-2.4-0.3l-0.1,1l2.4,0.3l-0.4,2.7l-27.5-3.7l5.8-42.8c0,0,0,0,0,0L59.4,23.6C59.4,23.5,59.4,23.6,59.4,23.6z M23.1,8.2
		c0.1-0.4,0.6-0.7,1.2-0.6L25,7.6c0.3,0,0.6,0.2,0.7,0.4c0.1,0.1,0.1,0.2,0.1,0.2L24.4,8l-0.1,1l1.5,0.2L25.5,12l-1.5-0.2l-0.1,1
		l1.5,0.2l0,0.2c-0.5-0.1-1.1-0.3-1.7-0.3c-0.4-0.1-0.8-0.1-1.2-0.1L23.1,8.2z M15,17.6c0.4-2.6,4.2-4.3,8.5-3.7
		c3.9,0.5,6.8,2.7,7.2,5l-0.1,1.1c-0.5-0.4-1.2-0.9-2.3-1.2l-0.2,1c1.9,0.5,2.3,1.5,2.3,1.5l0,0l-0.1,1.1C29,21.6,27,21.1,26.5,21
		l-0.2,1c1.5,0.3,3.2,1,3.7,1.5l-0.3,1.9c-0.5-0.4-1.2-0.9-2.3-1.2l-0.2,1c1.9,0.5,2.3,1.5,2.3,1.5l0,0l-0.1,0.6
		c-3-1.9-7.5-1.7-7.8-1.7l0.1,1c0.1,0,4.9-0.3,7.5,1.8l-0.2,1.4c-3-1.9-7.5-1.7-7.8-1.7l0.1,1c0.1,0,4.9-0.3,7.5,1.8l-0.2,1.4
		c-3-1.9-7.5-1.7-7.8-1.7l0.1,1c0.1,0,4.9-0.3,7.5,1.8L28.5,35c-3-1.9-7.5-1.7-7.8-1.7l0.1,1c0.1,0,4.9-0.3,7.5,1.8l-0.2,1.4
		c-3-1.9-7.5-1.7-7.8-1.7l0.1,1c0.1,0,4.9-0.3,7.5,1.8l-0.2,1.4c-3-1.9-7.5-1.7-7.8-1.7l0.1,1c0,0,4.9-0.3,7.5,1.8l-0.2,1.4
		c-3-1.9-7.5-1.7-7.8-1.7l0.1,1c0.1,0,4.9-0.3,7.5,1.8l-0.2,1.4c-3-1.9-7.5-1.7-7.8-1.7l0.1,1c0.1,0,4.9-0.3,7.5,1.8l-0.2,1.4
		c-3-1.9-7.5-1.7-7.8-1.7l0.1,1c0.1,0,4.9-0.3,7.5,1.8l-0.1,0.6c-1.2-0.8-3.2-1.3-3.7-1.4l-0.2,1c1.5,0.3,3.2,1,3.7,1.5l-0.3,1.9
		c-0.5-0.4-1.2-0.9-2.3-1.2l-0.2,1c1.9,0.5,2.3,1.5,2.3,1.5l0,0l-0.1,1.1c-1.2-0.8-3.2-1.3-3.7-1.4l-0.2,1c1.5,0.3,3.2,1,3.7,1.5
		l-0.3,1.9c-0.5-0.4-1.2-0.9-2.3-1.2l-0.2,1c1.9,0.5,2.3,1.5,2.3,1.5l0,0L25,61.1c-1.3-2-4-3.5-7.3-4c-3.4-0.5-6.6,0.4-8.3,2.1
		L15,17.6z M17.3,69.5L17,72l-1.6-0.2l-0.1,1l1.6,0.2l-0.2,1.3c-0.2-0.2-0.5-0.4-0.9-0.4l-0.9-0.1c-0.4-0.1-0.8,0-1,0.2l1.7-12.7
		c0.5-0.1,1-0.1,1.6,0c0.5,0.1,0.9,0.2,1.3,0.3l0,0.1l-1.6-0.2l-0.1,1l1.6,0.2L17.9,65l-1.6-0.2l-0.1,1l1.6,0.2l-0.3,2.5l-1.6-0.2
		l-0.1,1L17.3,69.5z M14.2,63.4c-0.3-0.3-0.4-0.6-0.4-1c0-0.3,0.3-0.6,0.6-0.9L14.2,63.4z M19.3,62.1c0.3,0.2,0.7,0.7,0.6,1.2
		c0,0.4-0.4,0.7-0.9,1L19.3,62.1z M18.9,65.4c1.2-0.4,1.9-1.1,2-2c0.1-0.8-0.3-1.5-1-2.2c-0.7-0.6-1.6-1-2.7-1.1
		c-2.3-0.3-4.2,0.6-4.4,2.2c-0.1,0.8,0.3,1.7,1.2,2.3l-0.1,1.1c-2-0.9-3.2-2.3-3-3.7c0.3-1.9,3.2-3.2,6.5-2.7
		c3.3,0.4,5.8,2.4,5.5,4.4c-0.2,1.4-1.9,2.5-4.2,2.8L18.9,65.4z M24.7,63.9c-0.3,2.1-2.9,3.6-6.2,3.8l0-0.2c2.9-0.2,5-1.7,5.3-3.6
		c0.3-2.5-2.5-5-6.4-5.5c-3.9-0.5-7.3,1-7.6,3.6c-0.3,1.9,1.3,3.8,3.9,4.8l0,0.3c-3-1.1-5-3.2-4.7-5.2c0.4-2.6,4.2-4.3,8.5-3.7
		c3.9,0.5,6.8,2.7,7.2,5l-0.1,0.4l0.1,0C24.7,63.6,24.7,63.8,24.7,63.9z M65.5,72.5L65.2,75l-1.6-0.2l-0.1,1l1.6,0.2l-0.3,2.5
		l-1.6-0.2l-0.1,1l1.6,0.2l-0.2,1.3c-0.2-0.2-0.5-0.4-0.9-0.4l-0.9-0.1c-0.4-0.1-0.8,0-1,0.2l1.7-12.8c0.5,0,1.1,0,1.6,0.1
		c0.4,0.1,0.8,0.2,1.2,0.3l0,0.1l-1.6-0.2l-0.1,1L66,69l-0.3,2.5l-1.6-0.2l-0.1,1L65.5,72.5z M61.9,70.3c-0.9-0.5-1.4-1-1.3-1.5
		c0.1-0.5,0.7-0.9,1.7-1.1L61.9,70.3z M67.1,68.2c0.3,0.1,0.5,0.3,0.8,0.4c0.6,0.4,1,0.9,0.9,1.3c-0.1,0.5-0.9,0.9-2,1.1L67.1,68.2z
		 M66.6,72.1c1.8-0.2,3-1,3.2-2c0.1-0.8-0.4-1.6-1.4-2.2c-0.9-0.6-2.1-1-3.4-1.2c-2.9-0.4-5.2,0.5-5.4,2c-0.1,1,0.7,2,2.2,2.7
		l-0.1,1c-3.1-0.9-5.1-2.6-4.9-4.1c0.1-0.9,1-1.6,2.5-2.1c1.6-0.5,3.7-0.7,5.9-0.4c2.2,0.3,4.2,1,5.6,1.9c1.3,0.9,2,1.8,1.9,2.7
		c-0.2,1.5-2.8,2.6-6.2,2.6L66.6,72.1z M75,70.7c-0.3,2.2-4,3.7-8.7,3.5l0-0.2c0,0,0.1,0,0.1,0c4,0,6.9-1.4,7.1-3.5
		c0.2-1.3-0.6-2.6-2.3-3.7c-1.5-1-3.7-1.8-6-2.1s-4.6-0.2-6.3,0.4c-1.9,0.6-3,1.7-3.2,2.9c-0.3,2,2.1,4.1,5.7,5.2l0,0.2
		c-4.3-1.1-7.3-3.5-7.1-5.6c0.2-1.2,1.4-2.2,3.3-2.9c2.1-0.7,4.8-0.9,7.6-0.5c2.8,0.4,5.4,1.3,7.2,2.5C74.3,68.2,75.1,69.6,75,70.7z
		 M73.1,66.3c-2-1.3-4.7-2.2-7.6-2.6c-3-0.4-5.8-0.2-8.1,0.5c-1.3,0.4-2.3,1-3,1.7l5.9-42.1c0.2-1.2,1.4-2.2,3.3-2.9
		c2.1-0.7,4.8-0.9,7.6-0.5c2.8,0.4,5.4,1.3,7.2,2.5c1.7,1.1,2.6,2.5,2.4,3.7l0,0.3c-0.5-0.4-1.2-0.9-2.3-1.2l-0.2,1
		c1.9,0.5,2.3,1.5,2.3,1.5l0,0l-0.2,1.1c-1.2-0.8-3.2-1.3-3.7-1.4l-0.2,1c1.5,0.4,3.2,1,3.7,1.6l-0.3,1.9c-0.5-0.4-1.2-0.9-2.3-1.2
		l-0.2,1c1.9,0.5,2.3,1.5,2.3,1.5l0,0l-0.2,1.1c-1.2-0.8-3.2-1.3-3.7-1.4l-0.2,1c1.5,0.4,3.2,1,3.7,1.6l-0.3,1.9
		c-0.5-0.4-1.2-0.9-2.3-1.2l-0.2,1c1.9,0.5,2.3,1.5,2.3,1.5l0,0l-0.2,1.1c-1.2-0.8-3.2-1.3-3.7-1.4l-0.2,1c1.5,0.4,3.2,1,3.7,1.6
		l-0.3,1.9c-0.5-0.4-1.2-0.9-2.3-1.2l-0.2,1c1.9,0.5,2.3,1.5,2.3,1.5l0,0l-0.2,1.1c-1.2-0.8-3.2-1.3-3.7-1.4l-0.2,1
		c1.5,0.4,3.2,1,3.7,1.6L78,48.6c-0.5-0.4-1.2-0.9-2.3-1.2l-0.2,1c1.9,0.5,2.3,1.5,2.3,1.5l0,0L77.7,51c-1.2-0.8-3.2-1.3-3.7-1.4
		l-0.2,1c1.5,0.4,3.2,1,3.7,1.6L77.2,54c-0.5-0.4-1.2-0.9-2.3-1.2l-0.2,1c1.9,0.5,2.3,1.5,2.3,1.5l0,0l-0.2,1.1
		c-1.2-0.8-3.2-1.3-3.7-1.4l-0.2,1c1.5,0.4,3.2,1,3.7,1.6l-0.3,1.9c-0.5-0.4-1.2-0.9-2.3-1.2l-0.2,1c1.9,0.5,2.3,1.5,2.3,1.5l0,0
		l-0.2,1.1c-1.2-0.8-3.2-1.3-3.7-1.4l-0.2,1c1.5,0.4,3.2,1,3.7,1.6l-0.3,1.9c-0.5-0.4-1.2-0.9-2.3-1.2l-0.2,1
		c1.9,0.5,2.3,1.5,2.3,1.5l0,0l-0.3,2.1C74.8,67.6,74.1,66.9,73.1,66.3z"/>
	<rect x="44.1" y="22.5" transform="matrix(0.1341 -0.991 0.991 0.1341 8.9558 70.0937)" width="1" height="14.8"/>
	<rect x="43.7" y="25.2" transform="matrix(0.1341 -0.991 0.991 0.1341 5.9928 72.0505)" width="1" height="14.8"/>
	<rect x="43.4" y="27.9" transform="matrix(0.1341 -0.991 0.991 0.1341 3.0285 74.0073)" width="1" height="14.8"/>
	<rect x="43" y="30.6" transform="matrix(0.1341 -0.991 0.991 0.1341 6.786471e-02 75.9626)" width="1" height="14.8"/>
	<rect x="42.6" y="33.2" transform="matrix(0.1342 -0.991 0.991 0.1342 -2.9033 77.9166)" width="1" height="14.8"/>
	<rect x="46.4" y="40.6" transform="matrix(0.134 -0.991 0.991 0.134 -2.8966 84.4457)" width="1" height="6.5"/>
	<rect x="41.9" y="38.6" transform="matrix(0.1341 -0.991 0.991 0.1341 -8.8198 81.8329)" width="1" height="14.8"/>
	<rect x="41.6" y="41.3" transform="matrix(0.1341 -0.991 0.991 0.1341 -11.7833 83.7897)" width="1" height="14.8"/>
	<rect x="41.2" y="43.9" transform="matrix(0.1336 -0.991 0.991 0.1336 -14.7302 85.7744)" width="1" height="14.7"/>
	<path d="M71.3,34l0.4-0.9c-4.4-1.9-10.6-1.4-10.9-1.4l0.1,1C61,32.6,67.1,32.1,71.3,34z"/>
	<path d="M71,36.8l0.4-0.9c-4.4-1.9-10.6-1.4-10.9-1.4l0.1,1C60.6,35.4,66.8,34.9,71,36.8z"/>
	<path d="M60.1,37.3l0.1,1c0.1,0,6.2-0.5,10.4,1.3l0.4-0.9C66.5,36.7,60.3,37.2,60.1,37.3z"/>
	<path d="M59.7,40.1l0.1,1c0.1,0,6.2-0.5,10.4,1.3l0.4-0.9C66.2,39.5,59.9,40.1,59.7,40.1z"/>
	<path d="M59.3,42.9l0.1,1c0.1,0,6.2-0.5,10.4,1.3l0.4-0.9C65.8,42.4,59.6,42.9,59.3,42.9z"/>
	<path d="M58.9,45.7l0.1,1c0.1,0,6.2-0.5,10.4,1.3l0.4-0.9C65.4,45.2,59.2,45.7,58.9,45.7z"/>
	<path d="M58.5,48.5l0.1,1c0.1,0,6.2-0.5,10.4,1.3l0.4-0.9C65,48,58.8,48.5,58.5,48.5z"/>
	<path d="M58.2,51.3l0.1,1c0.1,0,6.2-0.5,10.4,1.3l0.4-0.9C64.6,50.8,58.4,51.3,58.2,51.3z"/>
	<path d="M57.8,54.1l0.1,1c0.1,0,6.2-0.5,10.4,1.3l0.4-0.9C64.3,53.6,58,54.1,57.8,54.1z"/>
	<circle cx="77.1" cy="25.8" r="0.7"/>
	<circle cx="57.3" cy="27.1" r="0.7"/>
	<circle cx="76.3" cy="31.2" r="0.7"/>
	<circle cx="75.6" cy="36.7" r="0.7"/>
	<circle cx="74.8" cy="42.1" r="0.7"/>
	<circle cx="74.1" cy="47.6" r="0.7"/>
	<circle cx="73.4" cy="53" r="0.7"/>
	<circle cx="72.6" cy="58.5" r="0.7"/>
	<circle cx="71.9" cy="63.9" r="0.7"/>
	<circle cx="26.7" cy="19" r="0.7"/>
	<circle cx="25.9" cy="24.4" r="0.7"/>
	<circle cx="22.2" cy="51.7" r="0.7"/>
	<circle cx="21.5" cy="57.1" r="0.7"/>
	<circle cx="56.8" cy="30.9" r="0.7"/>
	<circle cx="56.3" cy="34.6" r="0.7"/>
	<circle cx="55.8" cy="38.4" r="0.7"/>
	<circle cx="55.3" cy="42.2" r="0.7"/>
	<circle cx="72.1" cy="16.9" r="0.7"/>
	<circle cx="24.6" cy="10.4" r="0.7"/>
	<circle cx="54.7" cy="46" r="0.7"/>
	<circle cx="54.2" cy="49.8" r="0.7"/>
	<circle cx="53.7" cy="53.5" r="0.7"/>
	<circle cx="53.2" cy="57.3" r="0.7"/>
	<circle cx="52.7" cy="61.1" r="0.7"/>
	<circle cx="52.2" cy="64.9" r="0.7"/>
	<circle cx="64.8" cy="70.2" r="0.7"/>
	<circle cx="64.3" cy="73.7" r="0.7"/>
	<circle cx="63.8" cy="77.2" r="0.7"/>
	<circle cx="16.9" cy="63.8" r="0.7"/>
	<circle cx="16.4" cy="67.2" r="0.7"/>
	<circle cx="16" cy="70.7" r="0.7"/>
</g>
</svg>
