<svg id="Layer_1" data-name="Layer 1" xmlns="http://www.w3.org/2000/svg" viewBox="0 0 500 375.75"><title>Artboard 3</title><g id="Shape_7" data-name="Shape 7"><path d="M380.07,339.81c-6.13-4.22-12.29-8.47-17.66-13.63q36.17,24,71.69,49c-.48,1-1.94.47-2.83-.14Z"/><path d="M354.37,321.89l-13.25-9.81a17.45,17.45,0,0,1-3.5-3.11,235.7,235.7,0,0,1,24.95,17.42C359.51,325.67,356.89,323.76,354.37,321.89Z"/><path d="M332.05,306l-15.65-10.73c-.65-.45-1.23-1.61-.46-1.82q9.67,6.12,18.8,13C334,307.16,332.86,306.6,332.05,306Z"/><path d="M313.81,292.71a18.79,18.79,0,0,1-7.33-5.25A14.35,14.35,0,0,1,313.81,292.71Z"/><path d="M.69,76.16A1.06,1.06,0,0,1,.17,74.6l1.76.88c.59.65-.94,1.59-1.26.77Z"/><path d="M200.36,203.76a2.24,2.24,0,0,1,2.42,1.36,2.2,2.2,0,0,1-2.54-1.33Z"/><path d="M408.69,201.88a1.21,1.21,0,0,1,2.12.55,1.36,1.36,0,0,1-2-.56Z"/><path d="M292.15,246,94.76,134.59c-.43,11.54,5.52,22.58,13.62,30.8s18.25,14.07,28.26,19.82l154.31,88.56c4.12,2.36,9-1.13,12.48-4.4L491.85,90.49c1.9-2.65,6.6,0,6.7,3.24s-2.41,5.94-4.75,8.22L304.59,286.2l-7.68,3-191.4-114c-13.75-8.19-17.74-25.92-20.44-41.69-.38-2.21-.74-4.6.27-6.61s3.08-3.14,5-4.17L311.16,6.89c5.8-3,11.78-6.14,18.3-6.77,7-.66,13.82,1.55,20.45,3.76q71.21,23.68,141.68,49.54c3.62,1.33,7.78,3.29,8.41,7.09L300.37,244.92c-1.2,1.11-2.54,2.28-4.17,2.41a7.41,7.41,0,0,1-4.05-1.33M147.74,159h-2.45a1.71,1.71,0,0,0-2.71-1.37,29.5,29.5,0,0,0,10.58,5.65c.41-1.24-1.29-2.06-2.59-2.22s-3-.76-2.83-2.05m197.8,38.35L297.86,241a5.49,5.49,0,0,1-2.84,1.69c-2.85.35-4.67-3.64-7.55-3.69a13.67,13.67,0,0,0,3.6,5.09c1.68,1.26,4.25,1.6,5.79.18l46.31-42.63c1.25-1.15,2.61-2.58,2.38-4.26m-48,81.65a12.91,12.91,0,0,0,3.17,6.8l45.45-43.87c-2.43.49-4.39,2.22-6.22,3.89q-16.86,15.38-32.52,32c-1.42,1.51-2.94,3.09-4.94,3.64s-4.57-.43-4.94-2.47m89.75-119.79-9.44,8.61c-.81.74-1.68,2-1,2.81q20.39-18.29,40.36-37c-1.28-.39-2.54.58-3.52,1.48l-6.08,5.55-20.36,18.58M346.64,198q14.25-12.28,28-25.13c.69-.65,1.09-2.18.14-2.18L350,193.25c-1.45,1.32-3,2.78-3.37,4.7m90.77-82.38L448.6,104.9c.55-.52,1.15-1.22.94-1.95a78.68,78.68,0,0,0-19.38,18.32,32.13,32.13,0,0,0,7.25-5.7m3.08,33.32a115.66,115.66,0,0,0,13.25-12.36,3,3,0,0,0,.87-1.41,1.61,1.61,0,0,0-1.75-1.79c-1.35,6.64-10.91,9-12.37,15.57m-79.59,75.17q-6.9,6.88-13.24,14.31c-.55.64-1,1.76-.3,2.18q8.22-8.68,16.41-17.4c-.86-.69-2.09.12-2.88.9M98.71,130.66A12.68,12.68,0,0,1,99.87,125c-.62-.82-1.87.18-2.26,1.13s-1.15,2.2-2.09,1.78c-1.68-.75-2.66,3.49-4.25,2.57a1.07,1.07,0,0,0-1.73-.74,4.29,4.29,0,0,0,2.2,5,9,9,0,0,0,2.44-4,2,2,0,0,1,2.14-1.18,5.69,5.69,0,0,1,2.39,1.11m280.87,76.46-15.24,14.22c.82.38,1.75-.22,2.45-.79a154.52,154.52,0,0,0,15.6-14.5c-1-.43-2,.35-2.8,1.07M257.85,221.2c-.83-.48-2-.9-2.61-.13l17.68,10.85c.84-.77-.26-2.07-1.24-2.65l-13.82-8.07m-92.27-51.14q-4.27-3.06-8.67-5.93c-.84-.55-2.21-1-2.63,0a97.73,97.73,0,0,0,8,5.65c1,.65,2.5,1.23,3.31.34M467.26,54.35c.72-.66,0-1.83-.83-2.4a4.57,4.57,0,0,0-2.82-1,2.09,2.09,0,0,0-2,1.88c.43,1.74,2.77,2,4.56,1.89a1.79,1.79,0,0,0,1.13-.34M274.06,232.09a26.2,26.2,0,0,0,7,3.07,1.23,1.23,0,0,0,.71-1.13,8.08,8.08,0,0,0-7.67-1.94m-87-50.29a4.66,4.66,0,0,0,4.66,2.4,17.53,17.53,0,0,1-5.61-5.71,2.66,2.66,0,0,0,.8,3.4m67.6,38.24A7.18,7.18,0,0,0,248,216a12.34,12.34,0,0,0,6.51,4.1M123.4,112a3.42,3.42,0,0,0-2.15,3.91,9.13,9.13,0,0,0,3.75-3.51l-1.52-.41M106,171.54a3.51,3.51,0,0,0,1.92-2,2.88,2.88,0,0,0-4.23,1.73,1.71,1.71,0,0,0,2.27.21m317.73-5.24a3.48,3.48,0,0,0,1.7-3.1,4.24,4.24,0,0,0-3.48,3.45,1.71,1.71,0,0,0,1.77-.35m-30.92,29.31a5.46,5.46,0,0,0,3.73-5,9.64,9.64,0,0,0-3.73,5M182.41,178.53l-2.7-1.14c-.82.5-.41,1.92.47,2.3a4,4,0,0,0,2.81-.23.71.71,0,0,0-.57-.91m297.72-68.44a1.92,1.92,0,0,0-1.06,2.69,10.2,10.2,0,0,0,3.29-3.71,1.6,1.6,0,0,0-2.16.91m-20-16.53a7.77,7.77,0,0,0-4.6,4.1,7.81,7.81,0,0,0,4.6-4.1m-5.13,40.19a4.11,4.11,0,0,0,4.15-2.68,4.52,4.52,0,0,0-4,2.48M93.15,150.24l1.31.78a9.47,9.47,0,0,0,2.44-1.87,2.62,2.62,0,0,0-3.83,1.1m4.54,1.92a3.11,3.11,0,0,0-3.47,1.77,2.75,2.75,0,0,0,3.78-1.75m8-15.67a4.45,4.45,0,0,0,4.11,2.31,6.08,6.08,0,0,0-4.11-2.75m-13.55,6.08c-.78-.38-1.74.39-1.8,1.25a2.72,2.72,0,0,0,3.59-1.06,1.06,1.06,0,0,0-1.78-.27m-.22-2.42a1.28,1.28,0,0,0,1-1.74,10,10,0,0,0-3.12.78c-.28,1,1.42,1.82,2,1m26.16-21.8,1.84-1.24a1.77,1.77,0,0,0-2.51-.94c-.83.61-.31,2.31.71,2.15m30.67-17a1.63,1.63,0,0,0-1.76,2.75,2.7,2.7,0,0,0,1.41-2.34m239.3,99.36-.92-.62a5.32,5.32,0,0,0-1.86,3.06,3,3,0,0,0,2.67-2.22m-293-54.22c.62-.13.48-1.19-.12-1.39a1.77,1.77,0,0,0-1.68.63,4.36,4.36,0,0,1-1.45,1.18,2.67,2.67,0,0,0,3.13-.57M97.85,157a.71.71,0,0,0,.28-1.2,2.71,2.71,0,0,0-2.9,1.32,1.53,1.53,0,0,0,2.45-.15m328.69-32.78a5.05,5.05,0,0,0-3.07,2.42,2.61,2.61,0,0,0,3.19-2.45M99.46,163.87a1.09,1.09,0,0,0,.8-1.75l-2.38.78a1.14,1.14,0,0,0,1.6,1.1M362.9,217.6a1.72,1.72,0,0,0,2-2.18,2.89,2.89,0,0,0-2.27,2.2m57.17-86.48a2.16,2.16,0,0,0,1.46-2.34,5.73,5.73,0,0,0-2,1.36,1.14,1.14,0,0,0-.41,1c.11.37.79.44.83.05M116.26,176.88a1.63,1.63,0,0,0-2.63-1.25,2.32,2.32,0,0,0,2.42,1.22M192,76.85l-1.35.7A1.75,1.75,0,0,0,190.9,79a6,6,0,0,0,2.34-2l-1.29-.31m17.2,116.75a1.83,1.83,0,0,0-2.79-1,2.13,2.13,0,0,0,2.74,1.09m-67.27-52.46,1,1.57a2.54,2.54,0,0,0-.42-3.17,1.2,1.2,0,0,0-.63,1.58M97.31,160.39a2.13,2.13,0,0,0,2.6-1.24,2,2,0,0,0-2.61,1.12m14.27-28.43a1.79,1.79,0,0,0-1.3-.76,1.17,1.17,0,0,0,0,2.05l1.31-1.3m49-30a2.14,2.14,0,0,0,1.34.79,3.13,3.13,0,0,0,.23-1.87,1.1,1.1,0,0,0-1.55,1.08M174,173.75c-.5-.26-.93.78-.38.9a1.94,1.94,0,0,0,2.3.38l-1.9-1.34M102,133.42a1.13,1.13,0,0,0,2.07,0,1.27,1.27,0,0,0-2.12-.16M285.77,278a.8.8,0,0,0,1.3.28,1.5,1.5,0,0,0-1.87-1.28c-.46.29,0,1.17.5,1M430.32,158.67a1.47,1.47,0,0,0,1.42-1.84,1.63,1.63,0,0,0-1.59,1.9m-308.3-19.35c-.92,0-.91,1.4-.57,2.26.91.07.95-1.33.61-2.18M290.52,23.25c.65-.06.29-1.25-.36-1.21s-1.06.7-1.35,1.29a1.08,1.08,0,0,0,1.62-.33M157.5,156.16a2.42,2.42,0,0,0,.21-3.09,6,6,0,0,0-.28,3m278.4-1.91a1.1,1.1,0,0,0,.56-1.55,1.7,1.7,0,0,0-1.22.68c-.22.43.24,1.1.66.85M129,111.75a.81.81,0,0,0,.28-1.3c-.53.12-1.15.34-1.29.86s.83,1,.92.42m46.71,100.49-1.3-.43c0,.55.21,1.19.73,1.39s1.08-.69.57-.89M296,215.59c-.71-.07-1.41.93-.81,1.32s.87-.69.76-1.31M135.52,132.55a1.08,1.08,0,0,0,.58-1.52c-.7-.27-.94,1-.59,1.63m350.83-28.13-1.17.85c.34.77,1.79,0,1.35-.71Z"/></g></svg>