<svg id="Layer_1" data-name="Layer 1" xmlns="http://www.w3.org/2000/svg" viewBox="0 0 390.7 500"><title>Artboard 21</title><g id="Shape_20" data-name="Shape 20"><path d="M187.52,440c2,1.48,5.53,2,5.49,4.56l-1.74.63a3.45,3.45,0,0,0,1.71,4.76,4.36,4.36,0,0,0,5-1.7A33.59,33.59,0,0,0,202.56,477a4.82,4.82,0,0,0,2.43,2.1c1.05.29,2.42-.4,2.39-1.49l-9.78-15.22a49.08,49.08,0,0,1,9.51,10.26,9.15,9.15,0,0,1,1.78,3.85c.54,4-3.5,6.88-5.7,10.25,1.11.94.11,2.72-.91,3.77-4.12,4.26-8.77,8.79-14.68,9.31a60.73,60.73,0,0,0,10.25-10.88c2.3-3.14,4.32-7.39,2.33-10.73a59.34,59.34,0,0,1-5.79-13c-1.2-3.91-2-7.92-3.16-11.84A65,65,0,0,0,179,430.49c2.23-.19,4,1.86,5,3.87s1.7,4.32,3.51,5.64m1.33,2.89,1,1c.08-.57.1-1.28-.39-1.59s-1.18.61-.63.79Z"/><path d="M254.1,492.52a17.66,17.66,0,0,0,6.53,6.64,15.73,15.73,0,0,1-6.61.26,137,137,0,0,0-10.56-14.25,26.9,26.9,0,0,0-3-3.11c-2.1-1.8-4.66-3-6.95-4.54s-4.41-3.7-4.92-6.43c.57-.56,1.51-.33,2.26,0a31.86,31.86,0,0,1,7.83,4.43,63.65,63.65,0,0,1,7.15,6.79C248.89,485.45,252,488.68,254.1,492.52Z"/><path d="M10.93,476.83,4.21,442.33c2,2.48,3,5.63,3.77,8.72,4.12,16.16,4.71,33.57,12.85,48.12-.37.9-1.68,0-2.06-.93l-4.07-9.4a58.52,58.52,0,0,1-2.52-6.51C11.65,480.53,11.29,478.68,10.93,476.83Z"/><path d="M253.24,449.44c-.51-4-3.2-7.38-5.78-10.51,1.12.21,1.25-1.64.64-2.61-2.62-4.16-8.41-5.75-10.41-10.24a23.59,23.59,0,0,1,11.93,9.12A32.56,32.56,0,0,1,254.69,446C255.05,447.46,254.69,449.63,253.24,449.44Z"/><path d="M36.15,441.65c-.78-.54-1.6-1.69-.85-2.26a2,2,0,0,0,2.1.42c.37-1.16-.32-2.36-1-3.39.64-1.12,2.53-.71,3.16.42a5.56,5.56,0,0,1,.13,3.79c.45.72,1.64.14,1.94-.66s.23-1.74.75-2.41a2.29,2.29,0,0,1,2.93-.3,6.67,6.67,0,0,1,2.06,2.44,3.11,3.11,0,0,1,.6,1.64c0,.59-.53,1.2-1.11,1.09l-1-1.9a1.69,1.69,0,0,0-2,.52,20.57,20.57,0,0,1-1.42,1.73C40.69,444.26,38,443,36.15,441.65Z"/><path d="M37.26,455.84a1.33,1.33,0,0,1-1.29.88l-8.92-7.94c-.47-.42-1-1.12-.56-1.6a3.45,3.45,0,0,1,2.42,1.19Z"/><path d="M135.54,403.21a4.75,4.75,0,0,1-2.14-.8c-.38-1.23.42-2.48,1.19-3.51l3.94,4.72c.51.61.73,1.9-.07,1.87a8.69,8.69,0,0,1-2.91-2.34Z"/><path d="M104.41,449.38c1.08-.27,1.6,1.57.77,2.32s-2.09.64-3.19.48a2.47,2.47,0,0,1-1.75-.77,1.7,1.7,0,0,1,1-2.35,4.91,4.91,0,0,1,2.88.06Z"/><path d="M94.33,456.59a8.5,8.5,0,0,1,3.81,2.05,6.56,6.56,0,0,1-7.44-4,4.4,4.4,0,0,1,3.52,2Z"/><path d="M114.6,388.33l3.8,2.15c-1.4,1.87-4.93,1.13-5.47-1.14l1.78-1.21Z"/><path d="M142,405.82l.17-1.64a6.57,6.57,0,0,1,2.46,3.31c.29,1.37-.77,3.07-2.15,2.85a4.57,4.57,0,0,0-.34-4.58Z"/><path d="M105.76,418.91l.72-2.22a2.6,2.6,0,0,1,1.63,1.22,7.16,7.16,0,0,0-1.06,4.2,2,2,0,0,1-1.14-3.07Z"/><path d="M239.26,437.83a5.59,5.59,0,0,1-3.9-2.07,6.06,6.06,0,0,1,6.13,3.06,2.3,2.3,0,0,1-2.22-.79Z"/><path d="M215,415.78a2.54,2.54,0,0,1-2-2.52,18,18,0,0,1,4.67,3.23,1.91,1.91,0,0,1-1.2.72L215,415.76Z"/><path d="M25.6,440.38l-1.29-.61c-.14-.91,1.16-1.23,2.07-1.17l2.4.15a2.44,2.44,0,0,1-3.18,1.63Z"/><path d="M108.67,406.78a3.53,3.53,0,0,1,.72-4.11,3,3,0,0,1-.55,4.47Z"/><path d="M251.87,457.85A1.53,1.53,0,0,1,253,459.8a3.15,3.15,0,0,1-3.3-2.64,1.42,1.42,0,0,1,2,.79Z"/><path d="M124.23,395.18,124,396.6c-1.77-.43-2.1-2.77-2-4.59l2.26,3.15Z"/><path d="M75.71,444.61a1.45,1.45,0,0,1-2-1.52,10.71,10.71,0,0,1,3.19-.2,1.14,1.14,0,0,1-1.21,1.52Z"/><path d="M52.5,444.9c.72-.42,1.69.23,1.9,1a4.13,4.13,0,0,1-.39,2.44,4.16,4.16,0,0,1-1.42-3.54Z"/><path d="M202.66,405.34a3,3,0,0,1,2.32,3.13,5.71,5.71,0,0,1-2.48-3.08Z"/><path d="M150.27,412.84a2.16,2.16,0,0,1-3.47.72,4,4,0,0,1,3.5-.64Z"/><path d="M52.41,444.73a3,3,0,0,1-3.46-1.1,2.88,2.88,0,0,1,3.52,1.19Z"/><path d="M255.34,454.08l.86-.59a5.16,5.16,0,0,1,1.21,2.3,1.67,1.67,0,0,1-1.94-1.52Z"/><path d="M44.93,498.66c.53-.17,1.34.13,1.18.66a2.35,2.35,0,0,1-2.87-.41,1.6,1.6,0,0,1,1.73-.42Z"/><path d="M108.69,430.45l1.45.54a1,1,0,1,1-1.5-.47Z"/><path d="M106.48,439.61c-1-.17-.83-1.82,0-2.5a1.38,1.38,0,0,1,0,2.36Z"/><path d="M111.67,419.83c-.24-.81-.25-2,.58-2.15a2.69,2.69,0,0,1,.39,1.55c-.09.53-.66,1-1.15.8Z"/><path d="M104.63,429.45l.87-1.15a1.94,1.94,0,0,1-.92,2.57.83.83,0,0,1,.2-1.26Z"/><path d="M191.29,391.09c.4-.31.8.53.46.91a3,3,0,0,1-1.7-.16c-.27-.53.62-.86,1.21-.77Z"/><path d="M105.52,443c-.85,0-.84-1.29-.53-2.08.83-.07.87,1.23.56,2Z"/><path d="M248.19,444.11c.43-.27,1,.16,1.12.66a2.37,2.37,0,0,1-.4,1.45,1.42,1.42,0,0,1-.51-1.91Z"/><path d="M177,427.21a.69.69,0,0,1,.28,1.13,4.91,4.91,0,0,1-1.76-2.18,1.82,1.82,0,0,1,1.45,1Z"/><path d="M220.6,427.11a2.81,2.81,0,0,1-1.45-1c.63-.17,1.4-.3,1.86.16s-.19,1.51-.67,1.06Z"/><path d="M110.1,438.29a3.1,3.1,0,0,1-.16,1.7,1.77,1.77,0,0,1-.85-1.19c0-.51.73-.93,1-.5Z"/><path d="M232.79,433.93a.92.92,0,0,1-1.53.48c-.27-.63.86-.82,1.48-.53Z"/><path d="M38.13,495.23a1.08,1.08,0,0,1,.09,1.35c-.72,0-.81-1.34-.1-1.45Z"/><path d="M234.11,193.37c-.59.16-1.16-.29-1.6-.72a25.3,25.3,0,0,1-6.14-10q5.77,1.67,11.37,3.89a16.47,16.47,0,0,0,4.78-5c1.07-2.06,1.11-4.85-.54-6.47a4.65,4.65,0,0,1,5.22,1.78c-1.24.84-2.23,2.37-1.75,3.78s3,1.7,3.32.25c2.49,2.91,7,2.38,10.83,2.11A43,43,0,0,1,278.79,186c-.84,2-3.19,2.8-4.75,4.3-3.42,3.27-2.45,8.92-4.2,13.32a3.56,3.56,0,0,1-1.24,1.75c-1.68,1.08-3.71-.53-5.46-1.48-4.79-2.59-11.67,1-12.31,6.39-1.29.63-1.77-1.72-1.26-3.07l3.25-8.54c.74-1.94-1.51-3.94-3.58-3.8s-3.77,1.6-5.3,3-3.22,2.86-5.29,3l2.17,4.32-6.61-4.92c-.85-.63-1.92-1.3-2.9-.89s-.63,2.39.36,2l-1.9,1.41a2.4,2.4,0,0,1,.94,2.93,39.89,39.89,0,0,0-15.45-15.61c5.7-1,10,6.07,15.74,6.33,1.29.06,2.86-.51,3-1.79.23-1.62,2.09-2.35,3.52-3.13s2.75-2.77,1.56-3.9l-5.39.42a7.56,7.56,0,0,0,.38,5.29m6.73-1.68c2.47.93,5.22.54,7.82.13l9.28-1.45-5.55,2.88c1.72,1.35,4.28.43,6-.92s3.25-3.15,5.37-3.65c1.45-.34,1.36-2.7.12-3.53s-2.88-.57-4.35-.29L248.4,187c-1.34.26-2.88.68-3.38,2l-2.85,0a7.31,7.31,0,0,0-1.32,2.71M253.9,202.8c.09.72,1.41.69,1.48,0a1.07,1.07,0,0,0-1.39,0Z"/><path d="M165.11,31.53c-1.39-.92-3.24-.39-4.9-.54-3.24-.3-5.91-3.28-9.16-3a11.76,11.76,0,0,1-9.82-4.27,5.19,5.19,0,0,1-1.37-4.23c.34-1.5,2.19-2.64,3.49-1.82A4.27,4.27,0,0,0,145,21.54a12.57,12.57,0,0,0,4,1.93l12,4.11a13.26,13.26,0,0,1,2.67,1.4c2,1.25,4.07,2.58,5.23,4.63C167.62,34.47,166.42,32.4,165.11,31.53Z"/><path d="M158.09,50.79a86.35,86.35,0,0,1-10.63-12l6,3.68c3.74,2.29,7.67,4.76,9.69,8.65.52,1,1,2.19,2.08,2.56s2.41-1.12,1.52-1.81c.16-1,1.81-.34,2,.63s-.2,2.1.38,2.9c.27.38.73.62.94,1s-.15,1.1-.57.9C165.09,56.75,161.35,53.84,158.09,50.79Z"/><path d="M216.66,304.68l-.3,2.42-.64,5.16c-1.79.06-2.33-2.54-1.66-4.21s1.95-3.3,1.53-5c-.92-3.91.65-7.93,2.2-11.63.9-2.16,2.56-4.75,4.84-4.24,1,.23.74,1.87-.11,2.49s-2,.89-2.52,1.81l-2.55,4.64c.37.94,1.86.25,2.27-.67s.74-2.17,1.74-2.3a2.1,2.1,0,0,1-.12,2.72,22.64,22.64,0,0,1-2.22,2C217.36,299.55,217,302.22,216.66,304.68Z"/><path d="M200.62,102.53a33.29,33.29,0,0,1-2.38-8.19c-.12-.65-.23-1.31-.34-2l-.14-.81-1.15-6.84a34.06,34.06,0,0,1,5.7,18.73c-.55.52-1.37-.25-1.69-.93Z"/><path d="M131,55.9a27.91,27.91,0,0,1-8.55-10.55c-.29-.62-.19-1.72.47-1.54a60.76,60.76,0,0,0,11.26,12.27C133.61,57.16,132,56.63,131,55.9Z"/><path d="M187.37,127.28l-5.63,5.27a8.3,8.3,0,0,1-2.81,2,7.08,7.08,0,0,0-3.92,3.4c-1.12-2,.57-4.53,2.56-5.71s4.38-1.76,6-3.42a10.16,10.16,0,0,1,1.66-1.67A1.64,1.64,0,0,1,187.37,127.28Z"/><path d="M152.31,76.33c.42-.55,1.29-.1,1.79.37a34.56,34.56,0,0,1,8.53,12.78c-.94.28-1.77-.63-2.32-1.44Z"/><path d="M178.78,93.6c-.32-1.65-.64-3.31-1-4.95s-.85-3.09-1.31-4.63a7.43,7.43,0,0,1,4.38,6.06,16.17,16.17,0,0,1-1.23,7.68Z"/><path d="M176,71.07c-1.43.61-2.9-.71-3.9-1.91-2.58-3.07-5.25-6.36-5.86-10.32a7.89,7.89,0,0,1,4.52,6.65Q173.49,68.17,176,71.07Z"/><path d="M153.21,70.5c-.48.53-1.35.13-1.91-.31A39,39,0,0,1,142,59.86c.81-.68,2,.17,2.68,1Z"/><path d="M162.33,63.19a3.45,3.45,0,0,1,.27-1.87,1.2,1.2,0,0,1,1.05-.74,27.25,27.25,0,0,0,5,9.16A7.45,7.45,0,0,1,162.33,63.19Z"/><path d="M174.26,48.18c-1.56.6-3.24-.38-4.61-1.33q-5.28-3.65-10.4-7.52c1.72,0,3.26,1,4.69,1.93Z"/><path d="M148.06,76.59A9.88,9.88,0,0,1,152.4,83a6,6,0,0,1-4.55-1.84C146.77,79.82,146.72,77.62,148.06,76.59Z"/><path d="M182.55,139.07l-.73,1.71a2.49,2.49,0,0,1,1.76,2.7,13.5,13.5,0,0,1-4.74-5.45,4.07,4.07,0,0,1,2.76-1.08c1,.14,1.78,1.52,1,2.19Z"/><path d="M158,22.51c-3,.1-5.7-1.71-8.16-3.45a1.45,1.45,0,0,1-.55-1.51,3.8,3.8,0,0,1,2.94,1Z"/><path d="M152.51,31.67a13.75,13.75,0,0,0,7.1,7.53,9.5,9.5,0,0,1-5.63-2A4.91,4.91,0,0,1,152.51,31.67Z"/><path d="M195.75,32.42l8.11,1.1a.78.78,0,0,1,0,1.24A8.35,8.35,0,0,1,195.75,32.42Z"/><path d="M146,42.36a16.36,16.36,0,0,1,5.71,5.88,1.53,1.53,0,0,1-1.13.66A15,15,0,0,1,146,42.36Z"/><path d="M195.61,184.63c.28.05.61.15.68.43a.38.38,0,0,1-.2.41c-3.16.39-7.09.41-8.66-2.35Z"/><path d="M156.82,185.07l-2,3.61c-1-.61-.62-2.09-.06-3.08s1.25-2.2.66-3.17c.05-.93,1.66-.85,2,0a3.16,3.16,0,0,1-.57,2.63Z"/><path d="M134,27.66c-.36,1.11-.41,2.65-1.54,2.93a3.89,3.89,0,0,1,5.29-5.36A3.67,3.67,0,0,0,134,27.66Z"/><path d="M183.63,61.16a13.31,13.31,0,0,1,3.37,7.9A8.75,8.75,0,0,1,183.63,61.16Z"/><path d="M160.24,196.21a1.27,1.27,0,0,1-1.58-.79,3.68,3.68,0,0,1-.05-2,3.67,3.67,0,0,1,4.27,3,2.55,2.55,0,0,1-2.65-.2Z"/><path d="M151.78,194.3,151,203.7A8.49,8.49,0,0,1,151.78,194.3Z"/><path d="M168,128.42l2.5-1.46a4.44,4.44,0,0,1-4.77,4.47l2.16-3.06Z"/><path d="M182.82,185.84c.2-.93-1.54-1.34-1.46-2.3a1,1,0,0,1,1.26-.69,2.81,2.81,0,0,1,1.26,1,4.51,4.51,0,0,1,1.15,2,1.55,1.55,0,0,1-1,1.83,3.47,3.47,0,0,0-1.22-1.84Z"/><path d="M192.79,75.71a7.21,7.21,0,0,1-3.26-5.62A6.9,6.9,0,0,1,192.79,75.71Z"/><path d="M121.29,18.78a1.44,1.44,0,0,1-2.51-.76,6.58,6.58,0,0,1,4.95-.32,1.58,1.58,0,0,1-2.18,1.1Z"/><path d="M168,19.87l-5.73,1.06a1,1,0,0,1,0-1.42A6.65,6.65,0,0,1,168,19.87Z"/><path d="M156.55,126.26a2.52,2.52,0,0,1-.6,2.63,2.2,2.2,0,0,1,.44-3.91,1.69,1.69,0,0,1,.23,1.24Z"/><path d="M129.92,25.73a2.83,2.83,0,0,1-3.34,2.35,2.56,2.56,0,0,1,3.13-2.31Z"/><path d="M212.1,313.49a1.44,1.44,0,0,1-1.23-.21,7.34,7.34,0,0,0-.42-3.59,2.43,2.43,0,0,1,1.55,3.74Z"/><path d="M166.67,205.84c-.57-.57-.05-1.65.72-1.89a3.58,3.58,0,0,1,2.35.37,2.51,2.51,0,0,1-3,1.47Z"/><path d="M181.34,163.08A1.3,1.3,0,0,1,179.4,162a2.42,2.42,0,0,1,3.39.17,1,1,0,0,1-1.37.65Z"/><path d="M197.9,178.1a5.15,5.15,0,0,1,2.64-3.43,3.31,3.31,0,0,1-2.68,3.6Z"/><path d="M213.76,302.3a3.07,3.07,0,0,1-1.39,4,3.9,3.9,0,0,1,1.21-3.88Z"/><path d="M201.26,169c1.06-1,2.91.44,2.9,1.91a2.51,2.51,0,0,1-2.7-1.79Z"/><path d="M119,25.33a1.45,1.45,0,0,1,.62,2.27,4.24,4.24,0,0,1-2.36-2.14,2.63,2.63,0,0,1,1.78-.25Z"/><path d="M201.54,47.35a2.57,2.57,0,0,1,.44,3.47,2.34,2.34,0,0,1-.64-3.42Z"/><path d="M198.06,187l1.42,0a1.17,1.17,0,1,1-1.52-.18Z"/><path d="M178.42,38.07a3.51,3.51,0,0,1,1.52,2,3,3,0,0,1-3-2,1.29,1.29,0,0,1,1.5-.06Z"/><path d="M179.33,73.12c0,.66-1,1-1.48.56a2.67,2.67,0,0,1-.8-1.77,1.39,1.39,0,0,1,2,1.25Z"/><path d="M185.26,190.2l-.16,1.68a2.44,2.44,0,0,1-1.33-2.67,1,1,0,0,1,1.43,1Z"/><path d="M205.43,264.57l.2,1.31a1.63,1.63,0,0,1-1.82-1.55c.09-.79,1.61-.53,1.44.24Z"/><path d="M177.2,49.5a1,1,0,0,1,.51,1.4,2.15,2.15,0,0,1-2.23-1.74,1.65,1.65,0,0,1,1.7.31Z"/><path d="M184,136.14c.48-.7,1.85-.1,1.65.73a1.42,1.42,0,0,1-1.61.73,1.19,1.19,0,0,1,0-1.46Z"/><path d="M147.74,72.25l.79-.49a1.68,1.68,0,0,1,1.37,1.73A1.67,1.67,0,0,1,148,72.41Z"/><path d="M166.28,38.58a.67.67,0,0,1,.34,1.08,6.88,6.88,0,0,1-2.38-2.13,1.56,1.56,0,0,1,1.94,1Z"/><path d="M200,184.08c-.72.36-1.6-.38-1.67-1.19a2.65,2.65,0,0,1,1.69-.19,1.19,1.19,0,0,1,0,1.46Z"/><path d="M184.31,179a.85.85,0,0,1-1.23.66.78.78,0,1,1,1.18-.66Z"/><path d="M214.28,325.42a.67.67,0,0,1,.25-1.18,2.91,2.91,0,0,1,1.23,1.65,1,1,0,0,1-1.4-.52Z"/><path d="M142,28.77a1.18,1.18,0,0,1-1.91-.36,1.33,1.33,0,0,1,2,.36Z"/><path d="M158.1,56c-.57.47-1.47-.24-1.49-1,.57-.48,1.46.23,1.51,1Z"/><path d="M197.78,251.23c-.15.75-1.62.29-1.3-.42a.75.75,0,0,1,1.32.44Z"/><path d="M196.89,310.1a1.09,1.09,0,0,1-.74-1.85,1.55,1.55,0,0,1,.67,1.63Z"/><path d="M174.43,36.2l1.14.86a2.32,2.32,0,0,1-1.72.22c-.42-.27,0-1.08.46-.9Z"/><path d="M193.26,249,194,247a1.17,1.17,0,0,1-.55,2Z"/><path d="M271.39,207.73c-.47-.48.17-1.46.8-1.22a.8.8,0,0,1-.76,1.22Z"/><path d="M176.75,204.49c-.64.24-.87-.88-.53-1.47.65-.23.88.88.56,1.49Z"/><path d="M169.68,22.59a.69.69,0,0,1,.33,1.1L168.76,23c-.26-.44.59-.84.93-.45Z"/><path d="M214,328.11a1,1,0,0,1,0,1.85,1.9,1.9,0,0,1,0-1.91Z"/><path d="M172.17,43.84c-.21-.3.19-.72.56-.66a1.44,1.44,0,0,1,.83.68,1.21,1.21,0,0,1-1.46,0Z"/><path d="M109.37,69.27l9.78,6.43a15.39,15.39,0,0,1-11-4A31.89,31.89,0,0,1,101,62.12a1.22,1.22,0,0,1,1.79,0,5.27,5.27,0,0,1,1,1.77C104.88,66.27,107.18,67.83,109.37,69.27Z"/><path d="M127.68,78.58c-2.18-3.72-4.72-7.73-8.84-9a14.15,14.15,0,0,1-8.39-7.15l5,2.93c5.4,3.19,11.12,6.73,13.66,12.46Z"/><path d="M111.12,57.85a12.46,12.46,0,0,1,9,3.5c.5.49.67,1.67,0,1.57Z"/><path d="M95.29,56.95c1-.78-.89-2.54-.15-3.58a1.19,1.19,0,0,1,1.8.14,3.44,3.44,0,0,1,.56,2c.07,1,.06,2.19-.76,2.76S94.5,57.56,95.29,56.95Z"/><path d="M128.94,117.47c1-.37,1.82.88,2.18,1.9s.51,2.33-.43,2.72a5.31,5.31,0,0,1-2.11-2c-.5-.87-.58-2.26.36-2.6Z"/><path d="M105.54,57.3c1.2-.27,1.95,1.23,2.24,2.42l.86,3.49A5.72,5.72,0,0,1,105.54,57.3Z"/><path d="M128,82.89c1,.65,2,1.47,2.07,2.63s-1.81,2-2.26.95c-.57-1.38-1.07-3.16,0-4.2Z"/><path d="M132.89,116.57a1.51,1.51,0,0,1-.65-1.93,4.38,4.38,0,0,1,1.46-1.69,21.5,21.5,0,0,0,.43,3.63c0,.69-1.35.64-1.3-.06Z"/><path d="M98.21,48.62l-2.55-.49a2.87,2.87,0,0,1,2-1.06c.77,0,1.37,1.18.72,1.62Z"/><path d="M110.13,268.71l-1.35,1.79a16.11,16.11,0,0,1-1.08-4.78,2.48,2.48,0,0,1,2.39.57l0,2.41Z"/><path d="M190.41,373.75a1.52,1.52,0,0,1-2.19-1.33,1.4,1.4,0,0,1,2.23,1.21Z"/><path d="M184.79,366.55a2.16,2.16,0,0,1,1.74-2.66,2.2,2.2,0,0,1-1.8,2.68Z"/><path d="M83.61,92a2.9,2.9,0,0,1,1.16-1.74,1.44,1.44,0,0,1,.85-.15,5.45,5.45,0,0,1-1.88,6.06C82.7,95.13,83.12,93.38,83.61,92Z"/><path d="M103.37,408.43a253.1,253.1,0,0,1-1,38.12,17.57,17.57,0,0,1-7.16-11.2l-.32,14.58a31.23,31.23,0,0,0-15.3-3.26A28.65,28.65,0,0,1,92,443.41l-42-7.61q3.94,2.56,8,4.95a43.22,43.22,0,0,0-36.35-2.15l3.81,6.59L9.63,434.53C.72,427.27,0,414.15,0,402.66L.16,0H390.61q0,249.7.1,499.41l-106.23.31A218.37,218.37,0,0,0,220.36,398c-5.68-5.06-12-10-19.41-11.46s-16.34,1.56-19.19,8.62c20.88.18,26,32.44,45.42,40.09a36.73,36.73,0,0,1,20.66,21,344.78,344.78,0,0,1-66.43-61.34,20.22,20.22,0,0,0-9.4,13.15q27.81,27.72,54.75,56.3c1.81-.2-.18-3.4-1.69-2.38s-1.26,3.28-.84,5L232,500a194.94,194.94,0,0,0-52.19-81.09c-3.29-3.05-6.8-6.14-8.47-10.31s-.8-9.75,3.16-11.87q-11.28,7.89-23.13,14.91L137.81,396l-9.46-1.29A54.39,54.39,0,0,1,115,384l-8.32,6.6c-1.42,1.13-3,2.64-2.67,4.43s3.87,1.69,3.34-.05a16.18,16.18,0,0,1-9.64,5.74l13.6,14.06a12,12,0,0,1-7.92-6.4M159,283.92a7.34,7.34,0,0,0,.21-5c-1.67.88-.94,3.35-.77,5.24a13,13,0,0,1-1.06,5.38l-.39,1.1-1.51,4.29a2.32,2.32,0,0,0,2.69-1,6.79,6.79,0,0,0,.91-2.94l.72-4.91c.12-.85,0-2-.81-2.16M126.83,131.49c-.16-.53-.43-1.15-1-1.21a1.61,1.61,0,0,1-.1-3.19c-.68-.94-2.34-.27-2.69.85a5.31,5.31,0,0,0,.57,3.38,4,4,0,0,1,.2,3.37c-.51.89.51,2.08,1.54,2a2.41,2.41,0,0,0,1.91-2.14,7.07,7.07,0,0,0-.45-3m40.76-13-6.67,5.82a48.48,48.48,0,0,0-23.27-69.47,23.75,23.75,0,0,1-14.18-23.57A68.87,68.87,0,0,0,146.31,51.9a48.6,48.6,0,0,1-13.17-19.62l21.92,23.41-7.53-3.29a59.22,59.22,0,0,0,19.56,20.7c4.3,2.75,9.65,6.21,9,11.27a6.64,6.64,0,0,0-6.84-5.29c8.88,10.51,9,27.39.33,38.06a36.77,36.77,0,0,0,10.64-12.59,62.75,62.75,0,0,1-18.18,26.31c1.06,2.19,4.19,2.62,6.37,1.53s3.6-3.21,4.93-5.25c6.89-10.56,14.1-22.75,11.1-35-1.75-7.14-6.75-13-11.76-18.36,8.58,3.85,13.89,13.15,14.72,22.52s-2.25,18.72-6.77,27c-4.36,7.95-12.65,16-21.24,13.12a60.21,60.21,0,0,1,23.25,7.1l-2.52,12.22-3.05-4.55a8.66,8.66,0,0,1-6.34,10.57,5.72,5.72,0,0,1,5.95,2.46,16.82,16.82,0,0,0-13.13,13.48,16.39,16.39,0,0,1,9,4.37l-6-6.84a29.68,29.68,0,0,1,7.92-8.29l-4.8,8.84a19.84,19.84,0,0,1,12.32-.92,13,13,0,0,0-2.31,13.57L172.36,203l-8.11-3.53a13.22,13.22,0,0,1-3.71,12.49c.33-2.45.52-5.31-1.27-7s-5.79.14-4.63,2.32a21.42,21.42,0,0,1,5.74-22.13c-1.71,3.55-3.44,7.23-3.59,11.17s1.71,8.23,5.37,9.7a6.39,6.39,0,0,0-2.07-6.48,3.32,3.32,0,0,0,2.87-4.6l-1.54-12.81c-.14-1.2-.39-2.57-1.44-3.19s-2.76.63-2,1.59a7.18,7.18,0,0,1-1.75-6.27c-4.38-1.41-8.68,2.42-11.11,6.33A39.93,39.93,0,0,0,144,220l-1.25-12.13a15,15,0,0,0,14.42,11.39A22.2,22.2,0,0,1,153,180c-5.81,9.49-11.42,22.48-4,30.76,4.5,5,11.95,5.79,18.67,6.23L166,212.9l9.13,9.71c-2.25.75-1.17,4.16.3,6q12,15.18,24.36,30a18,18,0,0,0,6.12,14.56,8.12,8.12,0,0,0-6.89.77c1.5,1.1,3.11,2.38,3.45,4.2s-1.59,4-3.22,3.09a5.5,5.5,0,0,0-2.24-7.59,25.85,25.85,0,0,0,4.26,16.66,9.69,9.69,0,0,0-8.58.88,12.91,12.91,0,0,0,.53-6.75,7.92,7.92,0,0,0-2.57,9.91c1,1.95,2.93,3.77,2.47,5.92s-4.9.83-3.24-.6A53.61,53.61,0,0,0,194.73,314c-.09-1.75-3.33-.56-2.93,1.14s2.41,2.39,4.11,2.8a5.22,5.22,0,0,1-4.14,2.86l-4-3.85a17.48,17.48,0,0,1,4.06,13l-3.76-5c-1.53.93-.87,3.34.31,4.7s2.8,2.66,2.75,4.45-3.49,2.36-3.26.58a16.73,16.73,0,0,1-1.2,10.37c.61,2.45,3.92,3.34,6.23,2.33s3.81-3.26,5.12-5.41a163,163,0,0,0,13-26.47,67.91,67.91,0,0,0,4.56,23.36,9.23,9.23,0,0,1-4.33-2.45,52.94,52.94,0,0,0,17.28,29.82c3.33,2.87,1.6,8.8-2.12,11.13s-8.43,2.15-12.82,2-9.14-.21-12.71,2.36c10.13-.21,20.54-.48,29.86-4.43s17.44-12.5,17.75-22.63c.16-5.16-1.67-10.19-1.95-15.34s1.74-11.14,6.63-12.79a9.73,9.73,0,1,0-6.69-18.26c-3.67,1.46-7.59,5.13-10.86,2.91,3.58-5,10.81-5,17-5.27s13.68-2.47,14.68-8.53-5.6-10.66-11.13-13.67-11.77-8.45-9.56-14.35l3.3-8.81a26.56,26.56,0,0,0,1.41,14.36c-1-2.39,1.9-4.85,4.49-4.73s4.84,1.72,7.25,2.69c5.35,2.15,11.42,1.15,17.11,2.09s11.83,5.51,10.73,11.18c6.6-1.5,7.68-10.39,7-17.12a230.56,230.56,0,0,0-13.06-56.4c-1.51-4.1-3.16-8.23-3.47-12.58-.61-8.56,4-16.62,5-25.14,1.74-14.67-7.23-28.89-6.25-43.64,2.09-31.63-13.22-63.86-39-82.22-9.75-6.93-20.72-11.92-31.61-16.86-10.2-4.63-20.44-9.27-31.15-12.55A130.76,130.76,0,0,0,134.6,14a5.25,5.25,0,0,0-.18,5.23A103.34,103.34,0,0,0,68.7,20.7l1.5,5.61c.29-3.65,4-6.21,7.64-6.71s7.27.51,10.9,1a43.43,43.43,0,0,0,21.65-2.34,5.21,5.21,0,0,1-7.28,3.4,11.79,11.79,0,0,1-2.44,8.79,5.85,5.85,0,0,1,.24-6.1,5.88,5.88,0,0,0-5.54,5.48A3.37,3.37,0,0,1,99,33l13.08-9.75c1.68-1.26,3.49-2.56,5.59-2.71S122.17,22,122,24.08a9.56,9.56,0,0,0-11.19,3.38,9.56,9.56,0,0,0,1,11.65,12.42,12.42,0,0,0-.38-10.06c5,1.15,3.54,8.48,4.3,13.55,2.2,14.57,28.45,14.48,30.8,29a66.34,66.34,0,0,0-14.2-12.13c.79,7.7,14.48,10.23,13.08,17.84-.89,4.84,2.38,9.31,4.94,13.51s4.43,10,1.21,13.7a34.92,34.92,0,0,0-5.52,13.7l5.66-6.9a24.27,24.27,0,0,1-8.65,14.92l9.9,3.46c-2.88-1-3.88-4.73-3.12-7.67s2.74-5.39,4.19-8.07a24,24,0,0,0,.45-21.57c8.08,9.48,7,25.37-2.24,33.7,3.35,1.52,1,6.54-1.57,9.2s-4,8.32-.36,8.88l.95-7.58,7.89,4.3c-4.4-1.52-3.34-8.32-.17-11.72s7.78-6.11,8.57-10.69m-40.66-7.65c-1.61,2.91-3.85,7-1.17,9l-3.44-1c-.41,2.25,2.21,3.79,4.41,4.4s4.91,1.48,5.29,3.74a4.28,4.28,0,0,1-3.93-.3l3.25,2.37a33.89,33.89,0,0,0,4-18.06c3-9.65,4.3-20,2-29.84s-8.71-19-18-23c-3.47-1.5-7.7-2.17-10.89-.14L99,41.39c-.29-.51-.71-1.08-1.29-1s-.89.63-1.11,1.15A77.69,77.69,0,0,0,93,51.73a13.7,13.7,0,0,0-.6,6.25c.42,2.07,2,4.05,4.06,4.34,1.07,4.9,4.64,9,8.84,11.71s9,4.36,13.77,6c-3.18,6.92,1.21,15.32-1.15,22.56-1.6,4.9-6.2,9.76-3.93,14.4,5.69-4,8.39-11.11,9.65-18,.71-3.9,1.56-8.57,5.22-10.11.89,7.44,1.68,15.45-1.95,22m-45.1,91.21c1.41,1.84-2,4-1.9,6.29l.39,14c.17,6.25.8,13.42,5.85,17.11a20.65,20.65,0,0,0,6.72,2.79l10.94,3.09a5.16,5.16,0,0,0-2.08,3,5.45,5.45,0,0,1,2.35,6.3c-4.5.77-10.19,1-12.45-3-1.94-3.4-5.86-5-9-7.32C73,237.31,70.73,224,69.25,212.16a46.32,46.32,0,0,0,15.67,41.2c2.39,2,2.81,5.45,4.09,8.3,2.51,5.59,8.29,8.85,13.73,11.69a8.84,8.84,0,0,0,2.74,1.06c2.31.34,4.5-1.17,6-2.95a16.1,16.1,0,0,0,3.5-13.27l-2.81,6.24c-4.54-.35-8.81,2-12.75,4.29a66,66,0,0,0,8.89-21.83c-4.13-4.34-11-4.3-16.22-7.31-6.75-3.93-9.41-13.56-5.63-20.4,1.75-3.17,4.69-5.87,5.13-9.46.5-4.13-2.53-8-2.47-12.15,0-1.4.39-2.85,0-4.18s-2.19-2.37-3.24-1.44a40.17,40.17,0,0,1-4,10.12M78.56,33.94a4.11,4.11,0,0,0-1.85-.44c-.64.08-1.25.74-1,1.33A10.52,10.52,0,0,1,75.85,43a8.94,8.94,0,0,0-.94,2.82,6.25,6.25,0,0,0,.35,2l2.89,9.93c1.07-.53,1-2.07.75-3.24a73.41,73.41,0,0,0-2.49-8.79,7.28,7.28,0,0,0,.78-4.2A4.54,4.54,0,0,0,79,37.71a2.26,2.26,0,0,0,3.71-1.23c.63-.65,1.65.41,1.67,1.31s-.22,2,.48,2.58,2.22.7,1.92,1.55a1.37,1.37,0,0,1-2.46-.46c-.07-.75-1.32-.79-1.73-.14a2.64,2.64,0,0,0,0,2.2,29.64,29.64,0,0,0,3,6.46c1.41,2.28-1,6.09,1.24,7.62a18.31,18.31,0,0,0,4-10.35A7.16,7.16,0,0,0,88.05,47c-1.06-1.94,1.84-4.24,1.05-6.31-.34-.89-1.26-1.4-1.82-2.17s-.39-2.23.56-2.25c1.5,0,2.17-2.23,3.66-2.39a2.61,2.61,0,0,1,2.26,1.51,6.41,6.41,0,0,0,1.7,2.27c.81.52,2.19.23,2.29-.72-.95-.83.81-2.9-.31-3.48a15.91,15.91,0,0,1-4.82-3.4,6.14,6.14,0,0,1-1.56-5.48,2.37,2.37,0,0,0,.14-1.68c-.55-1.06-2.15-.23-3,.65a14.38,14.38,0,0,0-3.1,4.48A4.89,4.89,0,0,0,86,33.17a8.59,8.59,0,0,1-7.41.77m49.65,126.64a9.71,9.71,0,0,1-.16-5.55c.35-1.29-1-2.4-2.2-2.93s-2.69-1-3.14-2.28l-1.92,3.07c-2.07,3.32-4.17,6.7-5.17,10.48s-.75,8.09,1.58,11.23c1-3.54.74-7.3,1-11s1.35-7.58,4.25-9.86c1.24.51,1.26,2.28.79,3.53s-1.23,2.57-.83,3.84c.82,2.63.56,5.46.33,8.21s-.42,5.6.52,8.19,3.32,4.87,6.08,4.79l.6-.77a8.67,8.67,0,0,1-4.22-6.57,25.29,25.29,0,0,1,.53-8.06c.36-2.05.66-4.38-.6-6-.33-.44.57-.78,1.05-.51s1.16.65,1.47.2M108.73,181.5c2.71,2.31,3.54,6.08,4.21,9.58a4,4,0,0,0,1.87-4.57A10.21,10.21,0,0,0,112,182a36.55,36.55,0,0,0-13.78-9.62,7.08,7.08,0,0,0-4-.56,2.89,2.89,0,0,0-2.38,2.85c-.08.63.88.83,1.46.56s1.18-.74,1.78-.53a1.78,1.78,0,0,1,.83.91,43.4,43.4,0,0,0,7.11,9.46c1.66,1.67,4.25,2.26,5.68,4.12a32.46,32.46,0,0,0,0-7.73m73.74,193.62a7.28,7.28,0,0,0,7.77,6.2l-5.1-4.56a4.37,4.37,0,0,1,3.79-.66,1.68,1.68,0,0,0,1.57,1.83,1.93,1.93,0,0,1,1-2.51,6.6,6.6,0,0,0,3.61-8.33c-.68-.31-1.32.53-1.48,1.26s-.29,1.63-1,1.89c-.87.32-1.67-.79-1.6-1.72s.6-1.77.69-2.7c.2-2-1.69-3.63-3.64-3.93a11.76,11.76,0,0,0-5.75,1.08c-1.79.66-3.78,1.5-4.5,3.27l2.45,2.57a3.82,3.82,0,0,1,.37-2.7c.55-.75,2-.81,2.25.09l1.71,5.92c.36,1.25.54,2.93-.62,3.51a1.23,1.23,0,0,0-1.55-.51m-96.6-278A1.51,1.51,0,0,1,88,98.33c1.75.26,2.81-1.87,3.17-3.61a43,43,0,0,0,.12-16.91c-.16-.81-.66-1.84-1.47-1.65l-8.5,14.89c-1.15,2,.11,4.51,1.34,6.47A3.84,3.84,0,0,0,84.05,99a1.32,1.32,0,0,0,1.78-.44l0-1.46m47,106.35c.69.37,1.34-.55,1.59-1.29l4.86-14.51c-.82.54-1.59-.9-1.31-1.84s.9-2,.32-2.81a10.3,10.3,0,0,1-1.26-8.6,25.58,25.58,0,0,1,4.08-8c-.35-.82-1.6-.3-2.2.35a16.26,16.26,0,0,0-4,13.34c.47,2.91-1.22,5.66-2.23,8.42a3.66,3.66,0,0,0-.25,2.36,1.45,1.45,0,0,0,1.89,1l-1.53,11.57m-33-98-.08-9.65c0-1.67-.13-3.56-1.41-4.63-.32-.26-.21-.77-.09-1.16a11,11,0,0,0-3.05-10.94L96.37,92A14.25,14.25,0,0,1,96,98.37c-.54,1.41.38,2.91,1.13,4.22s1.32,3.12.26,4.2a10.32,10.32,0,0,0-2.61,9.35c1.6.35,2.66-1.66,2.79-3.3s.08-3.6,1.45-4.49c.88-.57,1-1.81,1-2.86M159.78,160a8.92,8.92,0,0,0,1.93-9.52q-2.91,1.84-5.74,3.8a5.27,5.27,0,0,0-2.11,2.2c-.75,1.93.86,3.9,2.35,5.35-.22.93-1.71.63-2.27-.14s-.86-1.85-1.74-2.21c-1.13,1.24-.07,3.43,1.53,3.94s3.32-.14,4.8-.91c.79-.41.4-1.66-.25-2.27s-1.56-1.19-1.55-2.08a4,4,0,0,1,3.06,1.85m-19,23.26a30.44,30.44,0,0,1,5.43-10,6.32,6.32,0,0,0,1.65-2.82c.11-.72,0-1.6.63-2a5.4,5.4,0,0,0,.18-8.43,12.35,12.35,0,0,1-3.9,10,17.76,17.76,0,0,0-5.54,10.47c-.18,1.22.36,3,1.56,2.7M82.48,79.87l-1.06-4.61-1.3-.19C80,78,77.65,80.26,75.84,82.56s-3.23,5.64-1.54,8c1.27-.27,1.58-1.9,1.67-3.2s.59-2.93,1.89-3,2.83,1.74,3.77.75l-1.29-6.09,2.13.82M58.83,52.43c.68-.17.42-1.23-.08-1.72s-1.16-1.15-.81-1.76,1.31-.36,2-.46a3.37,3.37,0,0,0,2-1.51c2.6-3.35,5.35-7.61,3.72-11.53l-4,7.68a6.53,6.53,0,0,1-2.45,3A8.41,8.41,0,0,0,55,51.28a9.3,9.3,0,0,1,3.82,1.15m89.58,92.51c-.82-.6-1.94.13-2.68.82l-5.23,4.86a3.75,3.75,0,0,0-1.28,1.79c-.16.73.32,1.64,1.06,1.62a11.26,11.26,0,0,1,3.78-3.31,7.46,7.46,0,0,1,3.3-1.42,2.56,2.56,0,0,1,2.78,1.78c.16.85-.29,1.71-.3,2.58s.94,1.85,1.62,1.31a4,4,0,0,0-.77-4.51,7.7,7.7,0,0,1-2.28-5.52m-26.64-7.09c-4.89,1.08-9.88,4-11.3,8.78l-1.32,4.48c1,0,1.68-1,2.21-1.84a43.85,43.85,0,0,1,10.41-11.42M154.47,278.5a3.31,3.31,0,0,1,.46-4.19,3,3,0,0,1,2.67-1.16,1.42,1.42,0,0,0-.36-1c-1-1.15-3-.15-3.64,1.25s-.52,3-1.14,4.43a4.87,4.87,0,0,0-.55,1.43c-.14,1.44,1.59,2.41,1.8,3.84.15,1-.47,1.95-.56,3s1,2.19,1.79,1.51c.69-3.05,1.32-6.53-.48-9.1M111.64,115.29c-1.42,3.67-6.84,5-9.77,2.35-.94.31-.59,1.85.28,2.31s1.94.34,2.88.65c1.28.43,2.35,1.67,3.69,1.5a3.77,3.77,0,0,0,2-1.28,6.86,6.86,0,0,0,1.94-2.67,2.35,2.35,0,0,0-1-2.86m78.08,236.84c.16,2.83.37,5.83,2,8.14a6.54,6.54,0,0,1,1.2,4.05,5.17,5.17,0,0,0,1.78-2.08,1.78,1.78,0,0,0-.9-2.31c-1.61-.48-1.77-2.69-1.5-4.35s.43-3.77-1-4.61c.15-.56-.77-.87-1.19-.47a2,2,0,0,0-.38,1.63M135.39,69.48q2.6,4.14,5.59,8c.54.7,1.57,1.43,2.17.79q-3.69-5.93-7.86-11.55c-.89.52-.45,1.87.09,2.74m145.09,217c-2.43.08-4.68-1.15-7-1.86-.63-.19-1.53-.22-1.73.41A20,20,0,0,0,287,286.84c-1.63-1.57-4.28-.45-6.54-.38M60.36,71.8c0,2.58-2.56,5-1.56,7.4.31.7,1.32-.1,1.54-.83a21.72,21.72,0,0,0,0-12.54c-1.56,1.39,0,3.89,0,6m59.95,59.14L114,124.28a1.64,1.64,0,0,0-.53-.42c-.83-.34-1.55.92-1.15,1.73a4.29,4.29,0,0,0,2.1,1.6,10.71,10.71,0,0,1,4.69,4.92,1.39,1.39,0,0,0,1.25-1.17m22.84,2.44,3.3-.66c-1.85.46-2.23-3.12-4.1-3.5l-.27,8.75a1.57,1.57,0,0,0,.11.77c.39.76,1.69.3,1.9-.53a3.61,3.61,0,0,0-.63-2.41,2.65,2.65,0,0,1-.3-2.43m-11.77,41.34c.06.85.64,2,1.43,1.64a17.06,17.06,0,0,1,3-10.43c-.81-.54-1.84.29-2.38,1.1a12.54,12.54,0,0,0-2,7.69M101.6,80.05a6.85,6.85,0,0,0-1.26-2.1,3.45,3.45,0,0,0-2.13-1,74.83,74.83,0,0,1,4.66,10.11c.74-2.32-.27-4.79-1.26-7m70.87,97.51a9.07,9.07,0,0,1,2.7,6.88,2.94,2.94,0,0,0,.18,1.64c.28.48,1.09.67,1.37.18a3,3,0,0,1,.38-4c.37-.33.1-.93-.2-1.33-1.13-1.55-2.52-3.23-4.43-3.35m-23.9-84.5a9.43,9.43,0,0,0-1.43,5.72,3.48,3.48,0,0,0,1.58,3,15,15,0,0,0-.15-8.71m-6.92,2.65a5.79,5.79,0,0,0,.75,4.18,6.57,6.57,0,0,0-.71-8.37,4.8,4.8,0,0,0,.15,4.06m-3.26,14.79a19.84,19.84,0,0,0,2.67-5.69,5.43,5.43,0,0,0,.1-3.47,12,12,0,0,0-2.77,9.17M100.4,433l1-1.93c-.38-1-2.1-.73-2.54.27a3.37,3.37,0,0,0,.63,3.07,8.31,8.31,0,0,1,1.55,2.85,2.33,2.33,0,0,0-.74-3.8m.66-311.19a8.92,8.92,0,0,0-2.41,5.75,11.5,11.5,0,0,1,3.79-2.73,2.81,2.81,0,0,0-1.37-3M52,79.26l-1.94,3.55a5.89,5.89,0,0,0,4.46-5.63,2.29,2.29,0,0,0-2.36,2.06M52.45,45a6.34,6.34,0,0,0,4.65-6.37A18.83,18.83,0,0,0,52.45,45M154.57,404.64a1.38,1.38,0,0,0,0-2.21l-2.21,4.87a1.64,1.64,0,1,0,2.2-2.26m-15-179a2.35,2.35,0,0,0-2.45-1,14.87,14.87,0,0,0,4.34,5.31,5.24,5.24,0,0,0-1.93-4.22M71.81,439.26a2,2,0,1,0-1.42-3.45l1.34,3m100.67-295c1.53.25,3.77-.08,3.68-1.63a3.86,3.86,0,0,0-3-.58c-1,.32-1.59,1.73-.83,2.44M65.74,27.64A2.79,2.79,0,0,0,62.43,27a6.08,6.08,0,0,0,6.09,1.9,1.87,1.87,0,0,0-2.66-1.09m51.3,123a4,4,0,0,0-2.12,3.85,1.17,1.17,0,0,0,.16.54c.5.74,1.67-.11,1.81-1s-.07-1.92.57-2.54m46,18.86a2.58,2.58,0,0,0,.54-2.9,9.93,9.93,0,0,0-2.7,6.38,7.43,7.43,0,0,0,2.18-3.43m.07,12.45c0,.63.9.76,1.53.68l4.3-.55a6.46,6.46,0,0,0-4.8-1c-.47.09-1,.36-1,.85M119.56,144.8a3.14,3.14,0,0,0-.74,5,6.52,6.52,0,0,0,.74-5m49.61-67.31a5.76,5.76,0,0,0-4.07-3.94,4.84,4.84,0,0,0,4.07,3.94m-97.39.11c-.41.78-.79,1.84-.16,2.46a1.83,1.83,0,0,0,.95.41,5.43,5.43,0,0,0,.33-5L71.77,77.6m53.64,309.17c-1.43-1.38-3.74-2.8-5.16-1.41a1,1,0,0,0-.23,1.26,8.79,8.79,0,0,1,5.4.15m37.85-102.13-.41-3.44a1.78,1.78,0,1,0,.08,3.56m18.64,85.46-1-1a2.48,2.48,0,0,0,.55,3.86,2.39,2.39,0,0,0,.43-2.87m13.95-112a2.51,2.51,0,0,0,1.66,3.9,6.59,6.59,0,0,0-1.5-3.84M151,400.88a1.81,1.81,0,1,0-1.25,3.33,3.22,3.22,0,0,1,1.42-3.32M91,38.37a2,2,0,0,0,1-2.59A3.24,3.24,0,0,0,89.23,38a1.81,1.81,0,0,0,1.77.43m-13.21,58-.19,2.19a1.67,1.67,0,0,0,1.23.22,3.39,3.39,0,0,0,.74-2.64,1.17,1.17,0,0,0-1.68.24m39.45,27.87a2.12,2.12,0,0,0,3,1.45,3.73,3.73,0,0,0-1.17-1.77,1.29,1.29,0,0,0-1.86.32m-13.46-11.06a1.52,1.52,0,0,0-.77,2.16,3.3,3.3,0,0,0,2-4l-1.28,1.75m61.82,30.36c-.52-.13-1.36.09-1.12.57a3.16,3.16,0,0,0,3.88.2,2.55,2.55,0,0,0-2.74-.74M145,155.34a2,2,0,0,0-1,1.4l2.21.74a4.19,4.19,0,0,0,.24-2.17,1.24,1.24,0,0,0-1.48,0m-72.15-124a1,1,0,0,0,1.39,1c.14-1.13.21-2.47-.67-3.18a2,2,0,0,0-.69,2.19m5.34,55.27a1.77,1.77,0,0,0,1.53,2.19c1-1-.41-3.05-1.71-2.5m32.68,48.33a.67.67,0,0,0,.59,1,3.47,3.47,0,0,0,1.38-1.21,1.19,1.19,0,0,0-.37-1.62l-1.7,1.71M74,195.24a2.72,2.72,0,0,0,1.09-2.87,1.89,1.89,0,0,0-1.24,3.08m137,147.71a3,3,0,0,0,0-2.82,1.34,1.34,0,0,0-1.29,2l1.14.76M29.92,433.2h2a1.27,1.27,0,1,0-2.34.25M152.87,138.4a2.64,2.64,0,0,0-.5,3,1.88,1.88,0,0,0,.81-3m39,117.93c.65.17,1.22-.62,1.11-1.28a3.08,3.08,0,0,0-1.13-1.63,1.8,1.8,0,0,0,.12,2.78m-71-133.88a2.76,2.76,0,0,0-2.64-2.07,3.53,3.53,0,0,0,2.53,2.51M183.84,316.2a1.26,1.26,0,0,0,1.77,1.47,2.69,2.69,0,0,0-.56-1.74c-.44-.44-1.36-.39-1.52.21m26.13,11.32,1.38-.64a1.37,1.37,0,0,0-2.14-.72c-.65.64.09,2,.95,1.73M105.74,93.3c-.19-.68-1.37-.39-1.52.3a2.38,2.38,0,0,0,.77,1.89,2,2,0,0,0,.7-2.19M94.12,103.85c-1.12.09-1.09,1.74-.72,2.8a1.83,1.83,0,0,0,.79-2.77m11.07,280.51-1.4-.17A2,2,0,0,0,106,386a.85.85,0,0,0-.74-1.37M79.61,26.37a1.73,1.73,0,0,0,2.4-.3,1.65,1.65,0,0,0-2.75.18m43,116.45c.22-.54-.66-.81-1.24-.72a2.63,2.63,0,0,0-.2,1.69,1.61,1.61,0,0,0,1.2.23,1.58,1.58,0,0,0,.22-1.2m4.11-82.12a1.8,1.8,0,0,0,2.2.24c.12-1.18-2.11-1.45-2.28-.28m-18.31,76.12a1.39,1.39,0,0,0-1.21.21v1.47a1.17,1.17,0,0,0,1.48,0l-.1-1.71M92.63,432.94c0,.49.85.51,1.07.07a1.69,1.69,0,0,0-.17-1.41.84.84,0,0,0-1.32-.09,1.34,1.34,0,0,0,.45,1.45m104.2-145.84a1.32,1.32,0,0,0-.29-2.16,2.27,2.27,0,0,0-.81,1.48c0,.58.76,1.1,1.17.7m12,46a1.26,1.26,0,0,0-1.92,1,2.59,2.59,0,0,0,1.67.2,1.51,1.51,0,0,0,.22-1.19M106.23,260.93a1.34,1.34,0,0,0-.45,1.45,1.08,1.08,0,0,0,1.13.17,1.06,1.06,0,0,0-.7-1.82M42.75,430.11a1.17,1.17,0,0,0-1,.88,2.68,2.68,0,0,0,2.5,0c.11-.65-.8-.92-1.46-.92m142.44-44.6a1.34,1.34,0,0,0,1.91-1.49,1.93,1.93,0,0,0-1.81,1.49M199,270.8a1,1,0,0,0,.49-1.42l-1.68.76a.8.8,0,0,0,1.23.78M54.92,73.62a1.65,1.65,0,0,0,1-2.55,4.75,4.75,0,0,0-1,2.36M55,65.8a1.71,1.71,0,0,0,.6,2.46,1.9,1.9,0,0,0-.4-2.5m46.85,35.84a1.37,1.37,0,0,0,1-2.23,2.63,2.63,0,0,0-.92,1.9m61.73,192.6c.23-.28-.15-.72-.51-.67a1.38,1.38,0,0,0-.83.65l.66,1.24c.52.26.8-.63.7-1.2m1.66-102a.68.68,0,0,0-1.14-.27,1.49,1.49,0,0,0,.71,1.65,1,1,0,0,0,.52-1.42M64.1,22.88a.72.72,0,0,0,.78-1,5.79,5.79,0,0,1-2.29.62A.85.85,0,0,0,64,23M194.62,274.19c.48-.13.06-1-.42-.86s-.69.68-.78,1.17a.81.81,0,0,0,1.21-.25m-37.81,1.44a1.08,1.08,0,0,0,1.05,1.48,1,1,0,0,0-1-1.45m5.77,12.56a1.08,1.08,0,0,0,.54,1.44,1.76,1.76,0,0,0,.71-1.18,1.62,1.62,0,0,0-1.21-.22m1.55-99.69,1.12-.82a1.49,1.49,0,0,0-1.21-.81,1.28,1.28,0,0,0-.05,1.5M54.38,25.93a1.29,1.29,0,0,0,1.89-.47,1.27,1.27,0,0,0-2,.45m91.44,136.87c.4.31.81-.54.46-.9a1.54,1.54,0,0,0-1.22.19.61.61,0,0,0,.72.69m18.45,237a.93.93,0,0,0-1.62.25,1.28,1.28,0,0,0,1.77-.13m-38-260.34a.65.65,0,1,0,1.2-.18.64.64,0,0,0-1.08.23m20.49-9.42c.64.41,1.41-.84.76-1.23-.48-.31-.79.6-.66,1.16m49.11,219.7a.69.69,0,0,0,0-1.28c-.71.05-.73,1.36,0,1.44M105,381.83a.55.55,0,1,0-.62-.71c-.21.33.25.81.59.62m88.22-2.33a.55.55,0,1,0-.62-.71c-.21.33.25.81.59.62m-7.72-22.2a.55.55,0,1,0-.62-.71c-.21.33.25.81.59.62M75.49,26.72A1,1,0,0,0,75,28.11c.65.25.86-.88.55-1.5m52.21,159.91c.48-.5-.93-.88-1-.2a.7.7,0,0,0,1.15.24m60.78,123.37a.58.58,0,1,0,.55-.78l-.65.64Z"/></g></svg>