<svg id="Layer_1" data-name="Layer 1" xmlns="http://www.w3.org/2000/svg" viewBox="0 0 499 311.09"><title>Artboard 14</title><g id="Shape_13" data-name="Shape 13"><path d="M11.24,212.19c-1-.41-1-1.91-.67-3a11.08,11.08,0,0,0,.47-4.54,4,4,0,0,0-2.77-3.34l4.22-4.57a49.11,49.11,0,0,0-12,.24l.14-2.77c2.05,2.17,5.86.54,7.58-1.89s2.52-5.55,4.72-7.57c-2.39-.86-1.22-4.57-2.32-6.86-1.42-3-6.3-2.76-7.83-5.68-1.2-2.3.36-5.36-.91-7.63-.67-1.2-2.1-2.46-1.37-3.62l9.07-.29a5,5,0,0,0,2.27-.44c1.52-.84,1.72-2.89,2-4.61s1.33-3.76,3.06-3.59a3.34,3.34,0,0,1-1.18,4,39.4,39.4,0,0,0,8.35,2.4,12.52,12.52,0,0,0,0,14A23.17,23.17,0,0,1,28.26,186c-.41.8-1.54-.15-1.84-1l-3.85-11c-.71-2-2.33-4.5-4.32-3.73l-1.95-9.07,1.46-.54v-1.9l-1.42-.5a4.91,4.91,0,0,0-2.22,1.84,1.7,1.7,0,0,0,.81,2.41c-1.32,1.71-.79,4.16-.2,6.24l3.87,13.55-4.93-9.66a5.61,5.61,0,0,0-2-2.52,1.94,1.94,0,0,0-2.75.73c2.52,1.1,3.21,4.33,3.3,7.09s.06,5.85,2,7.8c-2.11.58-3.29,3-3.2,5.17a14.75,14.75,0,0,0,2.16,6.13l2.47,4.67a2.51,2.51,0,0,1-.33,2.21l-4.11,8.24m9.27-52.38c-.78-.51-1.88.26-2,1.18a4.32,4.32,0,0,0,.69,2.65,1.1,1.1,0,0,0,1.7.1,5.77,5.77,0,0,1-1.23-2.54,1.11,1.11,0,0,0,1-1.54m-11,7.62a3.46,3.46,0,0,0-2.87.94A1.9,1.9,0,0,0,7,171l2.48-3.18m2.43-2.51a2.09,2.09,0,0,0,.88-1.48,2.48,2.48,0,0,0-3.09-.15,4.5,4.5,0,0,0,2.2,1.67m.43,4.35c.25.67,1.41,0,1.22-.69s-1-1-1.66-1.2a1.2,1.2,0,0,0,.67,1.74Z"/><path d="M.22,260.85l15.15-7.6L3.61,262.19l-.27,12.1a10.55,10.55,0,0,1,7.3-2.65l24.75.81c2.72.09,5.83,0,7.58-2.08a6,6,0,0,1,8.95.15c-5.14-1.65-10.13,3.6-15.52,3.44l-18.66-.56c-5.19-.15-11.05,0-14.61,3.74A3.83,3.83,0,0,1,.29,282.4L2.24,277,.5,276.09A26.64,26.64,0,0,0,.22,260.85Z"/><path d="M.43,201.79l0-1.75L7,198.86a1.81,1.81,0,0,1-1.08,2l1.91.64A17.47,17.47,0,0,1,0,204.22l3-2.85Z"/><path d="M.42,177.7c1.39-.45,2.24,1.72,1.61,3a3.1,3.1,0,0,1-1.63-3.06Z"/><path d="M.44,155.32l3.08.31a4.23,4.23,0,0,1-2.82,1.06,1.12,1.12,0,0,1-.2-1.26Z"/><path d="M457.71,296a9.78,9.78,0,0,0-10.11,2.19c3.82-2.63,3.38-9.43-.74-11.55L460,291.27l-3.62.13a3.89,3.89,0,0,0,3.4,3.42l14.9-7.42-25.11-2.63,3.6-2.73a85.06,85.06,0,0,1-27.79.44l16.93,4.93c3.29,1,7.44,3.57,6,6.7-.66,1.49-2.36,2.17-3.89,2.72l-11.44,4.07c-11.81,4.2-25.41,8.29-36.35,2.17a79.52,79.52,0,0,0,26.69-.44l1.11-17.4c-1.19,3.88-2.42,7.85-4.82,11.13s-6.22,5.8-10.28,5.55c15.1-11.66,18.64-32.61,21.08-51.53,1.71,2.2,5.33.93,7.29-1s3.66-4.65,6.41-5.12l-12.34-2.42,4.07,3.12a7.84,7.84,0,0,1-7.28-4.41,15.5,15.5,0,0,1,8,.28c.17-3.9-3.64-6.71-7.17-8.36s-7.62-3.28-9.09-6.9l5.8,1.47-.56-4.54,4.54-.29-.23-3.74c3.41,1.71,5,5.64,5.85,9.37s1.12,7.67,3.05,11,6.22,5.64,9.6,3.87c-1,.28-1.53-1.28-1-2.13s1.59-1.26,2.27-2c2-2.16.21-5.55-1.47-7.95A92.87,92.87,0,0,1,438,211.2a3.35,3.35,0,0,1,.59-4.23l-3.71.14,5.63-3.77c-.92-2.81.08-6.89,3-7,5-.18,4.41,10.08,9.39,10.32,1.21.06,2.48-.58,3.58-.08s.33,2.82-.54,2a7.74,7.74,0,0,1,7.48,2.75c-5.24,3.56-12.2.15-17.77-2.87-1.5-.81-4.45.19-3.18,1.33,9.8,8,25.81,2.32,36.19,9.6a53.34,53.34,0,0,1-16.93,2.88,26.94,26.94,0,0,0,1.78,17.11l-.54-10c-.08-1.49-.09-3.16.94-4.22s2.53-1.09,3.93-1.08A72.1,72.1,0,0,1,487,226.77c1.53.44,3.41,1.53,3,3.07-.32,1.18-1.78,1.56-3,1.71a94,94,0,0,1-18.3.46,143.1,143.1,0,0,0,.94,33.65l.58-16.49c0-1.12.16-2.4,1.06-3.06a3.78,3.78,0,0,1,2.5-.43l24.62,1.51q.46,31.77-.06,63.54a10.94,10.94,0,0,1-4.84-1.36q-29.81,1.76-59.7,1.21A86.67,86.67,0,0,1,457.71,296m-7.91-47.25c1.38-.64,3-2.32,1.84-3.34-4.9,2.24-9.45,6.72-14.74,5.69l0,1.31a34.09,34.09,0,0,1,7.26,10.28c-2.06.54-4-1.27-5.08-3.08s-2.11-3.95-4.09-4.73a7.6,7.6,0,0,0,6.6,8.79l15.88,1.13c-1.83-1.62-4.61-1.34-7-1,.23-1.54-.82-3-1-4.52s1.8-3.32,2.75-2.09c1.07-.64-.15-2.22-1.3-2.68a21.14,21.14,0,0,0-10.81-1.27l9.73-4.53m.65,18.73c-1.59-2.27-5.58-1.1-6.66,1.45s-.06,5.5,1.35,7.89c.62,1,1.7,2.17,2.83,1.74a46,46,0,0,0-2.85-9.68,15.36,15.36,0,0,0,5.33-1.4m35.4,3.16,6.63,10.84a3.14,3.14,0,0,0,1.14,1.26,1.58,1.58,0,0,0,1.39,0,75.21,75.21,0,0,0-9.43-15.65c-1,.82-.39,2.43.28,3.53M458,240.83l-5.94-1a2.07,2.07,0,0,0-1.68.2c-.45.37-.26,1.33.31,1.26,2-.9,4.24.51,5.73,2.1s2.9,3.52,5,4a36.75,36.75,0,0,1-3.44-6.54m-21.36,26.31,6.49-1a16.24,16.24,0,0,1-8.84-3.05,30,30,0,0,0,1.36,7.08,1.5,1.5,0,0,0,2.22-.63l-1.23-2.43m24.42-18.19a16.3,16.3,0,0,0-7.38-.14,5.92,5.92,0,0,0-3.51,1.83,13,13,0,0,0,10.89-1.7M444,278c-1.71-.36-3.7-.65-5,.48s-.52,4.06,1.17,3.59a2.87,2.87,0,0,0,.33-2c.6-.75,1.77-.37,2.72-.23s2.25-.78,1.62-1.51a1.4,1.4,0,0,0-.8-.36m32-1.35,1.91,0c.77-1.49-.87-3.13-2.46-3.65s-3.48-.67-4.51-2a3.28,3.28,0,0,0,3.82,3.11l1.24,2.5m-34.07-63.3a1.69,1.69,0,0,0,.7,2.45,4.88,4.88,0,0,0,2.89.22l2.7-.34a1.71,1.71,0,0,0-3.31-.86,6.86,6.86,0,0,0-3-1.48m51.7,60.51a6.29,6.29,0,0,0-2.89-4.94c-1.58,2.06.62,4.83,2.64,6.46l.36-1.49m-14.81,19.45c.67,1.43,2.34,2,3.85,2.48l3.27,1c.71-1.37-1.08-2.77-2.62-2.88s-3.25.29-4.5-.59M447,222.2a.9.9,0,0,0,1.48.34,4.06,4.06,0,0,0-4.25-4,5.69,5.69,0,0,0,2.73,3.62m8.67,45.91c-.48-.08-.79.6-.55,1a1.64,1.64,0,0,0,1.23.67,6.51,6.51,0,0,0,4.69-1,4.33,4.33,0,0,0-5.2-.37m15.4,11.75a7.29,7.29,0,0,0,5.75.32,5.85,5.85,0,0,0-6.17-.54m24.49,8.55a.85.85,0,0,0,1.42.34,5,5,0,0,0-1-4,3.13,3.13,0,0,0-.55,3.7m-49.86-41.09a3.82,3.82,0,0,0-4.93,1.22,4.55,4.55,0,0,0,5-1.29m12.07,7.18c-.68-.25-1.69.19-1.53.9a7.1,7.1,0,0,0,4.5,0,2.12,2.12,0,0,0-2.86-.76m33.35,30.16a2.19,2.19,0,0,0-3.31.21,2.13,2.13,0,0,0,3.53-.07m-37.46-41c-.79.39-.38,1.74.45,2a3.37,3.37,0,0,0,2.49-.58,5.45,5.45,0,0,0-2.89-1.28M490,294.91a1.21,1.21,0,0,0,1.74.66,2,2,0,0,0-1-2.2l-.95,1.52m-54.65,2.86a2.38,2.38,0,0,0,0-2.41,1.4,1.4,0,0,0-.08,2.52m-6.65-5.09a1.23,1.23,0,0,0,1,1.23,1,1,0,1,0-1.27-1.33m4.78-2.59c.82.52,1.81-1.07,1-1.57-.62-.39-1,.76-.85,1.48m42,11.16c.83.09,1.65-1.09,1-1.55s-1,.81-.89,1.54m-23.58-74.19a.73.73,0,1,0,.7-1l-.83.82Z"/><path d="M243.77,280.82c1.34.19,2.82.46,3.64,1.53a5.3,5.3,0,0,1,.71,3.37l-.41,25-173.42,0a5.13,5.13,0,0,0-3.88-6.55c2.31.67,2.94,4.21,1.16,5.82a4.19,4.19,0,0,1-6.16-1.22,5,5,0,0,1,1.74-6.33c4.35-2.89,10.49,1.36,15.31-.65,6-2.48,12.71-1.23,19.09-.31a169.18,169.18,0,0,0,37.72,1.19c1.37-.11,2.91-.33,3.71-1.45,1.24-1.73-.19-4.27.59-6.25s3-2.49,5-2.77c19.54-2.7,40.15,3.32,58.82-3a3.66,3.66,0,0,0,2.07-1.32c.85-1.38-.31-3.08-.53-4.68-.35-2.47,1.72-4.75,4.08-5.54s4.93-.44,7.4-.09l23.33,3.33m-153.86,22a92.27,92.27,0,0,0,19.15,4,7,7,0,0,0,3.57-.28,74.51,74.51,0,0,0-22.72-3.75M220,288.67l17.46-4.59a.82.82,0,0,0,.16-1.44l-12.16,2.94c-2.1.51-4.43,1.19-5.46,3.09m-42.23,7.69c1,.3,2.56.32,2.76-.74a26.21,26.21,0,0,0-9-.6l6.1,1.61m-26.87,7a6.19,6.19,0,0,0-6.33,1.09,5.88,5.88,0,0,0,6.33-1.09m69-18.18a3.15,3.15,0,0,0,2.11-3.75,2.33,2.33,0,0,0-2.08,3.59m-36.47,11.46a4.18,4.18,0,0,0,3.87,1.35,3.15,3.15,0,0,0-3.37-1.59m-31.58-1.24a2.27,2.27,0,1,0,.21.19m.81,1.31a1.27,1.27,0,0,0,1.78.68c.31-.82-1.13-1.1-1.91-.7Z"/><path d="M43.2,264.65c-1.31,1.73-4.18-.15-4.68-2.27s-.06-4.55-1.35-6.31c-1.75.87-1.37,3.44-.8,5.31s.66,4.56-1.22,5.11A43.6,43.6,0,0,0,26.44,247l-8.9,17.25-.26-14.19c0-1.5-.83-3.6-2.25-3.11a3,3,0,0,1-3.44-1.72,8.88,8.88,0,0,1-.66-4.1l0-14.89c0-3.32.34-7.29,3.24-8.91L13.9,238c1.51.19,1.24,2.42.93,3.9s1.3,3.64,2.18,2.4L16.51,207c0-1.05.2-2.41,1.23-2.63,1.34-.28,1.1-2.27.52-3.51l-4.62-10c2.25.64,3.06,3.32,3.88,5.51s2.82,4.62,5,3.82a7.71,7.71,0,0,0-2.95,9.74,14.89,14.89,0,0,0,2,2.82,6.14,6.14,0,0,0,3.86,10.59,12.8,12.8,0,0,0-3.71-6.84c2.58-1,5.49-.17,8.25-.34s5.94-2.44,5.11-5.08a3.21,3.21,0,0,0,5.42,0l-.81,48.82,7.19.28c-.48,1.82-3.44.28-5.13,1.12s-.29,3.95,1.43,3.33M33.36,222.4a5,5,0,0,1-6.57.83,14.6,14.6,0,0,1-2.1,6.49L23.17,225a2.87,2.87,0,0,0-.88-1.53c-.49-.35-1.33-.25-1.5.33a11,11,0,0,0,1.93,6.06,7,7,0,0,0,1.91,1.94c3,1.94,7.37,0,8.9-3.18s.74-7.13-1-10.25l-3,3.73a7,7,0,0,0,3.87.25m3.42-5.94-.15,32.4a14.91,14.91,0,0,0,.85,6.17A382.48,382.48,0,0,0,38,214.79c-.76-.26-1.17.87-1.17,1.66M25.33,236.14c-1.54.63-3.14-.87-3.81-2.39s-1-3.32-2.35-4.33a92.52,92.52,0,0,0,.57,13.46,6.22,6.22,0,0,0,3.73,1.79c1.41,0,2.8-1.56,2.12-2.79-1-1.77-4-.32-5.58-1.64l5.32-4.09m-2,10.73c-.77-1.33-3-.85-3.8.46s-.66,3-.62,4.5a26.15,26.15,0,0,1-.2,3.92,13.14,13.14,0,0,0,4.62-8.88m10.39,10.24c.78.67,1.55-.89,1.35-1.9a17.76,17.76,0,0,0-4.6-8.89c-.79.4-.57,1.57-.23,2.39l3.48,8.41m.79-12.29v-3.72a6.82,6.82,0,0,0-4.55,0,88.55,88.55,0,0,0,4.53,7.92,3.85,3.85,0,0,0,.1-4.28m-2.24-6.47a1.47,1.47,0,0,0,2.15.33,12.44,12.44,0,0,0-.26-4.11A3.87,3.87,0,0,0,32,238.34M26.7,236.5a2.4,2.4,0,0,0,2.87.28c-.25-.89-.76-1.86-1.68-2s-1.83,1.14-1.08,1.69m1.52,9.41c1.41-.27,1.52-2.73.14-3.12l-.25,2.71Z"/><path d="M493.91,230.25c1.24.22,3-.34,2.81-1.59a8.47,8.47,0,0,1-5.91-3.84,71.88,71.88,0,0,1-12.42-1.72c1.45-.89,3.1-2.16,2.88-3.85a4.22,4.22,0,0,0-.84-1.78A41.46,41.46,0,0,0,466.8,205a42.89,42.89,0,0,1,12.05,2.4c-.56-1.84.94-3.79,2.75-4.43a11.4,11.4,0,0,1,5.7,0l1.86.32a1.58,1.58,0,0,1,.71.24c1,.8-.82,2.82.18,3.69a7.32,7.32,0,0,1,4.38-.71c1.18.18,1.66-1.44,1.85-2.62s1.4-2.62,2.28-1.81q0,17.51,0,35c0,.67-.78,1.56-1.06,1l-.13-2a27.07,27.07,0,0,0-11.56-.94c1.33,1.25,3.28,1.51,5.09,1.78s3.77.68,4.92,2.09.73,4.1-1.07,4.4a72.47,72.47,0,0,1-23.75,0,2.1,2.1,0,0,1-1.12-.42,2.15,2.15,0,0,1-.45-1.66l.11-6.42q14.23-1.2,28.5-1.91a8.17,8.17,0,0,0-6-2.12,2.52,2.52,0,0,1,0-2.57,2.31,2.31,0,0,1,1.81,1.89m-7-9a2.86,2.86,0,0,0-3.94.11,6.49,6.49,0,0,0,3.42,1.1,1.38,1.38,0,0,0,1.24-.45c.25-.39-.17-1.06-.57-.84m-1.48-14,1.63.24.32-1.62a1.33,1.33,0,0,0-1.93,1.24m9.81,13.07a1,1,0,0,0-1.74.52,1.06,1.06,0,0,0,1.83-.57m-4.69-2.24a1,1,0,0,0-.61-1.79,1.24,1.24,0,0,0,.69,1.77Z"/><path d="M278.69,291.2a7,7,0,0,0-2.65,3.56c-.34,1.47.53,3.29,2,3.44l9,.89,4.23.42c7.21.71,14.45,1.43,21.45,3.3a29.62,29.62,0,0,1-5.51,6.27,2.28,2.28,0,0,1,0-2.91c-.88-1.11-3.08.13-2.58,1.46a2.58,2.58,0,0,1-4.75,2,4.34,4.34,0,0,0,2.65-.11c.81-.4,1.27-1.58.64-2.23a10.15,10.15,0,0,1-4.3,1.73c-4.21.78-8.53-.05-12.73-.88a11.83,11.83,0,0,0-4.54.29l-11.07,2.17c-1.09.21-2-.85-2.32-1.92s-.13-2.22-.39-3.3c-.8-3.38-4.84-4.67-8.25-5.36-1.22-1.15-.71-3.35.61-4.38a7.28,7.28,0,0,1,4.8-1.09,15.19,15.19,0,0,0,5-.21c2.14-.65,3.71-2.42,5.45-3.83a38.63,38.63,0,0,1,7.82-4.57l4-1.94a3.26,3.26,0,0,1-1.58,2.27l2.73,2.69a6.5,6.5,0,0,1,9.13,2.74,10,10,0,0,0-9.72-.26c-.38-1.81-2.44-2.86-4.28-2.69a9.37,9.37,0,0,0-4.87,2.45M289.12,302a4.43,4.43,0,0,0-3.33,1.53,2,2,0,0,0,2.1,1.63,2.29,2.29,0,0,0,.27-1.62,2.05,2.05,0,0,1,1.59-.27,3.82,3.82,0,0,1,.38,1.81,11.37,11.37,0,0,0,3.54-2.19l-4.55-.92m-17.33-6-4.84.94a12.94,12.94,0,0,0,8.35.48,2.45,2.45,0,0,0-3.42-1.34m29.61,8.57,2.79-.32a4.38,4.38,0,0,0-4.23-1.56c-1.51.46-2.32,2.73-1.07,3.7a2.09,2.09,0,0,0,.3-1.64,3.55,3.55,0,0,1,2.19-.24m-31.32-3.4a1.73,1.73,0,0,0-2.52-.62,7.09,7.09,0,0,0,3.53,3.44,1.89,1.89,0,0,0-1-2.71Z"/><path d="M96.78,254.92a44.11,44.11,0,0,0-24.2-2.43c-2.21.4-4.44,1-6.67.69a8.86,8.86,0,0,1-6.51-4.42l2.18-6.17c-.21,1.58,1.86,2.45,3.44,2.27s3.25-.86,4.68-.18c11.57,5.43,25.26,2.2,37.85,4.43a7.34,7.34,0,0,1,3.18,1.14,38.83,38.83,0,0,1-13,.61l-.23,1.5c1.25.14,2.9.81,2.61,2s-2.17,1-3.38.55m-31.06-3.73a2.32,2.32,0,0,0,1.66-.24c1.11-.83,0-2.58-1.23-3.28-1.36-.79-3.52-1.1-4.12.35C61.3,249.78,63.84,251,65.72,251.19Z"/><path d="M415.6,218.23c-1.86,3.52-3.79,7.13-6.81,9.73l-6.58,5.66c-.84.73-2.18,1.44-2.94.62a22.31,22.31,0,0,1,7.09-22,39.12,39.12,0,0,1,9.24,6m-7.9,3.65a1.71,1.71,0,0,0,2.41.7,1.59,1.59,0,0,0-2.71-.83m-2.52-4.33a2.06,2.06,0,0,0-1.35,2.42,2,2,0,0,0,1.34-2.57Z"/><path d="M24.51,296.9,23.28,294a5.07,5.07,0,0,1,3,3.37l-8.15,3.84c-2.89,1.36-5.85,2.75-9,3.12a13.56,13.56,0,0,0-3.56.6,2.89,2.89,0,0,0-2,2.73l4.54-1.46C8,307.33,9.38,308,10.51,308s2.23-.56,3.36-.44,2.25,1.37,1.63,2.32a19,19,0,0,0-11.56-.05c-1.44.46-2.21-1.64-2.25-3.14L1.26,286a4,4,0,0,1,.37-2.18c.94-1.53,3.49-1.24,4.55-2.69a5,5,0,0,1,.11,5.66c-.65.93,1,2,.81,3.12s-1.62,1-2.65.94-2.49.55-2.09,1.5c.3.72,1.33.65,2.07.44a33.89,33.89,0,0,0,11-5.49c.39,2.74-2.66,4.64-5.32,5.43S4.25,294.4,3.33,297c-.64,1.17,1.42,2,2.66,1.49s2.74-1.37,3.73-.47l-.21,2.11a2.4,2.4,0,0,0-3.69,1.55c2.32,1,5,.17,7.4-.7l11.3-4.1M4.46,284c-1.08,0-1.07,1.65-.67,2.65,1.07.09,1.11-1.57.72-2.56Z"/><path d="M74.4,239.7c-1.11,0-1.9,1-2.72,1.73s-2.27,1.21-2.9.3a91.86,91.86,0,0,0,10.15-28.26l1.43,3.73L81.67,214a2.6,2.6,0,0,0-1.87-.38l2.53-32.48-.06,23.24c0,3.84,0,7.68.21,11.51a43.83,43.83,0,0,1-1,10.41l-2.39,13.19c-.29,1.59-.79,3.45-2.3,4-.13-1.62-.73-3.72-2.36-3.76M80.68,221c-1-.32-1.7,1-2,2l-3.18,13.24c.84-.18,1.26-1.1,1.56-1.9l2.42-6.57C80.33,225.6,81.14,223.27,80.68,221Z"/><path d="M364,176.54c-1.78-.35-1.91-2.81-1.69-4.61a56.36,56.36,0,0,0-1.49-21.35,5.06,5.06,0,0,1,2.81,1.48,3.11,3.11,0,0,1-.63,2.85,24,24,0,0,0,11.16-.37,9,9,0,0,0,1.5,7.3c3,4.08.51,9.92,1.65,14.87a9.15,9.15,0,0,1-6.85-.37,2.92,2.92,0,0,0,3.19-4.85c-.88-.73-.61-2.16-.05-3.16s1.36-2,1.32-3.12c-.07-2.08-2.86-3.88-1.84-5.68a2.75,2.75,0,0,0-4.1.32,7.06,7.06,0,0,1,2.13,3.83c.12,1.48-1.2,3.14-2.64,2.74.47-1.6.91-3.43,0-4.83s-3.67-1.26-3.72.41a9.23,9.23,0,0,0,3.3,8.61,2.3,2.3,0,0,0-1.29,3.74,3.62,3.62,0,0,1-2.18.22l-.61,2m4.69-18a1.24,1.24,0,1,0-2.41.33,2,2,0,0,0,2-.42Z"/><path d="M206.89,116l1.72-1.07c1.48,1.82-.06,4.46-1.56,6.25s-3,4.45-1.54,6.25c1.65,2-.22,4.92-2,6.79a8.24,8.24,0,0,0-3.24-.3l1.85,5.78a5,5,0,0,1-2.68-3.5h-1.94c-.87,2-2.19,4.29-4.36,4.32l3.63-7a3.38,3.38,0,0,0,.55-2.07c-.13-.72-1-1.32-1.6-.93-.85.55-1.74-1-1.22-1.83s1.58-1.2,2.42-1.77l4.41,4.08a12.75,12.75,0,0,0-2.39-7.17,2.76,2.76,0,0,1-2.63.66L194.92,127a3.36,3.36,0,0,1,3.06-4.56l-2.5-4.72c3.61.45,6,3.82,8,6.88l2.41-4.27a5.92,5.92,0,0,1-4-1,4.19,4.19,0,0,1,2.69-.47,3.65,3.65,0,0,0,2.65-.61C207.91,117.6,207.81,116.17,206.89,116Z"/><path d="M56.45,155.33a7,7,0,0,0-3,4.44l-3-11.92L54,155.27a9.57,9.57,0,0,1,5.16-2.61c.4-1.08-1-1.94-2.17-2s-2.54,0-3.2-.9a7.43,7.43,0,0,0,.59-8.23c-.63-1.06-1.52-2.45-.67-3.34a6.57,6.57,0,0,1,3,9.72q2.74,2.44,5.4,5a17.55,17.55,0,0,1,3.28,3.83,9.26,9.26,0,0,1,.84,7.09,1.47,1.47,0,0,1-.46.81,1.61,1.61,0,0,1-1.25.11l-5.16-.93a6.12,6.12,0,0,0,1.35,3.76c1,1,3,.89,3.39-.4,1.37-.32,2.18,1.46,2.44,2.84l.62,3.33c-1-2.46-4.68-1.9-6.87-3.38-2.84-1.92-2.91-7.18-6.3-7.7a6.49,6.49,0,0,1,8-.06c2.52-.63,3.29-4.35,1.57-6.3S58.61,153.9,56.45,155.33Z"/><path d="M41.32.88,43,.65q.49,40.56,0,81.13c-1,.3-1.53-1.18-1.54-2.24Z"/><path d="M115.32,173.18a13.93,13.93,0,0,0-3.07-8,7.68,7.68,0,0,1-4.18,1.8,11.11,11.11,0,0,0-.6-10.19c2.89-.1,5.06,3.7,3.51,6.14.25.62,1.15.68,1.72.34a11.23,11.23,0,0,0,1.46-1.34,3.38,3.38,0,0,1,4.8,4.73c-.55.66.39,1.56,1.23,1.77a6.34,6.34,0,0,0,6.24-2c1-1.22,3.08-1.09,4.33-.09a7.43,7.43,0,0,1,2.23,4.15,9,9,0,0,1,.16,4.64,4.1,4.1,0,0,1-3.23,3l-3.32-6.63a6.57,6.57,0,0,0,3.8-3.06c-.28-1.56-2.74-1.23-3.82-.07s-2,2.84-3.54,3a7,7,0,0,1-2-.37,5.7,5.7,0,0,0-5.7,2.17m-1.34-8.5,1.24,1.1a1.5,1.5,0,1,0-1.41-1.06m15.64,8.37a1.12,1.12,0,0,0,1.45,1.23,3.54,3.54,0,0,0,.11-2,1.22,1.22,0,0,0-1.64-.77l-.32,1.52m-12.6-6.48a5.42,5.42,0,0,0-.31,2.79,1.29,1.29,0,0,0,1.82-.63l-1.44-2.21Z"/><path d="M209.42,110.95a4.41,4.41,0,0,1,8.06,1.11c.32,1.2.15,2.59.92,3.57a11.73,11.73,0,0,0,6.12-2.84,1.86,1.86,0,0,1,.56,3,4.69,4.69,0,0,1,3.34-.25c1,.47,1.47,2.18.47,2.72-4.12,2.2-2.5,9.8-6.75,11.73l1.22-5.28-1.85-.54a18.65,18.65,0,0,0,2.76-7.24,31.58,31.58,0,0,0-11.8,4.46,83,83,0,0,0-3.06-10.49m3.89.82a2.4,2.4,0,0,0-1.54-.92,2.18,2.18,0,0,0-.89,1.5,1.65,1.65,0,0,0,2.55-.54Z"/><path d="M230.36,78.72c1.13,1.4-.78,3.32-.75,5.12s2.19,3,4,3.66c0,1.26-2,1.24-3,.51s-2.3-1.78-3.37-1.1a16.74,16.74,0,0,0,5.66,5.85c2.82-1.61,5.71-3.24,8.9-3.82a5,5,0,0,1-5.21,3.59l4.06,3.3-4.93-.54.38-1.94c-1-.94-2.65.49-2.88,1.87s.06,3-.81,4.06c-1.62-1.27-.72-3.9-1.43-5.83-1-2.76-4.72-3.1-7.66-3a4.77,4.77,0,0,0,3,3.26,8.35,8.35,0,0,1-4.07.22c-2-.57-3.31-2.6-3.74-4.65a26.5,26.5,0,0,1-.1-6.25,13.44,13.44,0,0,0,5.75,1.2,2.2,2.2,0,0,1,.19-2.59,3.81,3.81,0,0,0,3,3.42A3.86,3.86,0,0,0,225,80.8a7.83,7.83,0,0,0,5.34-2.09M221,91a6.78,6.78,0,0,0,2.63-4,1.5,1.5,0,0,0-2.7,0l-.19,4Z"/><path d="M37.56,78.69,38.1,2c0-1,1.38-2.34,1.63-1.33q-.19,40.26-.52,80.52C38.08,81.48,37.55,79.85,37.56,78.69Z"/><path d="M187.66,219.79l-1.59-1.59a6.17,6.17,0,0,0-.09-7.43,5,5,0,0,1-4.84,4l3.63-6.08c.24-.4.7-.85,1.08-.59a10.69,10.69,0,0,0,8.66,1.5,5.74,5.74,0,0,1-2.38-7.1c.2-.45.65-.95,1.1-.74A5,5,0,0,1,194,204c.52,2.16,2,3.92,3.11,5.87s1.6,4.55.21,6.28C195.13,218.92,190.16,217.3,187.66,219.79Z"/><path d="M189,85.39a20.94,20.94,0,0,0,7.87,1.36,3.26,3.26,0,0,1,.71,3.11,3.57,3.57,0,0,0-5.05,1c1-.45,2,.63,2.09,1.69a9.57,9.57,0,0,1-.76,3.06c-.61,2.15-.11,4.49-.7,6.64s-3.22,4.07-5,2.67a4.41,4.41,0,0,1-1.2-3.29,57.94,57.94,0,0,1,.38-11.22A17.65,17.65,0,0,1,192,94.12a7.7,7.7,0,0,0-2.25-5.83,8.55,8.55,0,0,1-2-2.22c-.42-.91-.07-2.29.92-2.43S190,85.48,189,85.39Z"/><path d="M306.09,240.25a2.09,2.09,0,0,1,3-2l8.29,1.18c2.11.3,4.88,1.51,4.34,3.57a3.57,3.57,0,0,1-2.21,2,23.27,23.27,0,0,1-12.11,1.95,2.34,2.34,0,0,1-1.78-.78,2.45,2.45,0,0,1-.16-1.74Z"/><path d="M307.06,282.05c.54.48.15,1.46-.5,1.77a4.56,4.56,0,0,1-2.15.16,8.41,8.41,0,0,0-7.15,3.57l-.1-4.4-3.69,3.47.67-2.73a13,13,0,0,0-12.78.62.68.68,0,0,0-.56,1.07,1.25,1.25,0,0,1-1.91-.08,2.44,2.44,0,0,1-.3-2.12,5,5,0,0,1,5-3.68,12.15,12.15,0,0,0,11.18-6.41,1.58,1.58,0,0,1,.85,1.88l2.48.57-2.78,2.16-1.22-1.22-2.76,2.77c.73,1.73,3,2.07,4.88,2.14Z"/><path d="M36.54,159.95a3.55,3.55,0,0,0,3.8-.13,6,6,0,0,1,2.18,7c.2.66,1.21.47,1.73,0s1.14-1.05,1.78-.79a1.48,1.48,0,0,1,.7.89,10,10,0,0,1,.67,4.84c-.4.68-1.49.41-2-.17s-.82-1.38-1.47-1.84a3.39,3.39,0,0,0-3.29.11,6.94,6.94,0,0,1-3.26,1c-1.15-.09-2.25-1.39-1.64-2.36s-.22-1.86-.78-2.67-.75-2.25.2-2.51c1.13-.3.22-2.31-.92-2.07s-1.67,1.58-1.8,2.74c-1.11.7-2.39-.76-2.65-2s-.39-2.9-1.59-3.44a4.12,4.12,0,0,1,4.44,2,11.52,11.52,0,0,0-2.1-7c.33-1.23,2.19-.22,2.83.89Z"/><path d="M426.21,310.77a285.74,285.74,0,0,1-44.39-3.63,3.49,3.49,0,0,1-2.45-1.12c-.52-.76,0-2.15.94-1.93C395.36,307.7,411.34,306.44,426.21,310.77Z"/><path d="M34.38,77.76q0-37.19,0-74.39c0-1.11.22-2.53,1.3-2.8q.12,40,0,80.08C34.57,80.3,34.38,78.89,34.38,77.76Z"/><path d="M495.86,151.08c.44-3.58.31-8.19-3-9.53a1.69,1.69,0,0,0,.16,2.37c-.74.78-2.1.07-2.65-.85s-.82-2.09-1.7-2.7a8.74,8.74,0,0,0-2.7-.74c-.91-.26-1.81-1.19-1.39-2a40.42,40.42,0,0,0,7.69,1.16,6.44,6.44,0,0,0-6.94-5.09c-.48.06-1.06.15-1.38-.21s.35-1.07.56-.63c1.86-2.17,5.58-.78,7.35,1.47s2.69,5.19,4.91,7c2.51,2,2.26,5.85,1.78,9a1.9,1.9,0,0,1-2.48,1.9l-5.26-.14.42-5.23a3.68,3.68,0,0,1,3.12,4Z"/><path d="M384.74,159.75a9.12,9.12,0,0,0-2.12,9.85l5.71,7.43c-1.7.73-3.54,1.47-5.35,1.1s-3.39-2.4-2.58-4.06l3.55,3.25c1.25-3.3-3-6-3.92-9.44-1.13-4,2.38-9.2-.58-12.19h11.7a16.31,16.31,0,0,1,1.45,9.81c-.88-3.27-4.29-5.09-7.36-6.53l-4-1.87a2.35,2.35,0,0,0,1.31,3.1,2.46,2.46,0,0,1,2.16-.46m5.25-2.5c-.68-.31-1,.82-.91,1.56a1.51,1.51,0,0,0,2-.09l-1-1.54Z"/><path d="M55.09,207.89a54.76,54.76,0,0,1-2.17-19l5.28.55c-3.3,1.12-3.51,5.64-3.11,9.09l1.53,13c.11.89-.13,2.17-1,2.1.6-1.46-1.46-2.51-3-2.76a57.32,57.32,0,0,0-9.32-1c-3,0-6.77.1-8.1-2.6Z"/><path d="M290.49,133.74l-1.14-4.59A7.51,7.51,0,0,1,289,127a3.74,3.74,0,0,1,6.95-1.72c.52.86.67,1.9,1.16,2.77,1,1.72,3,2.48,4.6,3.58s3.05,3.23,2.06,4.93L300,132.84a2.85,2.85,0,0,0-1.36-.89c-1.23-.24-2.12,1.1-2.78,2.17s-2.05,2.15-3,1.35l-.72-2.39-1.67.66m1.83-6.76c.48-.87-1.16-1.79-1.65-.94a.94.94,0,0,0,1.46.76Z"/><path d="M321.16,220.76a70.51,70.51,0,0,1,15.57,1.61c1.15.25,2.56,1.56,1.61,2.25a38.73,38.73,0,0,1-17.08,1.84A14.49,14.49,0,0,1,321.16,220.76Z"/><path d="M322.39,119.32a13,13,0,0,1-6.64-3.4c-.26-3,1.4-6.56,4.37-6.64,2.17-.06,4,1.82,4.79,3.82a11,11,0,0,1-4.4,13.22l1.88-7m-3.18-3.88a1.57,1.57,0,0,0,2.94-1.13,3.69,3.69,0,0,0-5-.08l1.89,1.34Z"/><path d="M331.15,219.51l-8.39-.6a3.11,3.11,0,0,1-1.29-.28c-1.33-.73-.78-3,.56-3.67s3-.41,4.47-.26a23,23,0,0,0,9.93-1.16c2,.31,2.22,3.55.64,4.87S333.21,219.66,331.15,219.51Z"/><path d="M410.57,271.49a25.59,25.59,0,0,0,5.64-13.58c1.57,3.21.32,7.08-1.36,10.23S411,274.4,410.77,278a91.22,91.22,0,0,0,9.53-8.35c.57.72-.1,1.74-.74,2.4l-14.17,14.62c-.28-1.85,1.46-3.3,2.37-4.93C409.5,278.58,408.3,274.25,410.57,271.49Z"/><path d="M84,172.73a25.36,25.36,0,0,1-13-6c.9.69,2-.62,2.14-1.75s0-2.5.94-3.11a5.67,5.67,0,0,1,1.86-.42c.63-.14,1.28-.73,1-1.33q2.07,2.18,4.13,4.38a5.55,5.55,0,0,1,1.21,1.68c.44,1.13.11,2.39.05,3.61s.39,2.67,1.56,3m-7.44-6.92c-.62-.06-.68,1.14-.06,1.15,1,.84,3,.22,3-1.1s-2.51-1.52-2.48-.21Z"/><path d="M416.26,124.43c-.82,1.46,2.19,2.68,1.9,4.33a2.16,2.16,0,0,1-.78,1.16c-1.6,1.43-4.75,1.86-5.42-.18-.61-1.85,1.6-3.68,1.22-5.6-1.12-1.09-3,.86-4.47.26a2.16,2.16,0,0,1-1.11-1.94,4.63,4.63,0,1,1,8.66,2m-2.89-4.15c-.93-1.38-3,.06-3.94,1.45a5.31,5.31,0,0,0,3.07.49c1-.25,1.87-1.43,1.39-2.36Z"/><path d="M436,124.74a3.63,3.63,0,0,1-.42-3.07c.8-1.65,3.65-1.65,4.09-3.43.4-1.63,3.14-1,3.72.59s0,3.32.12,5,1.73,3.53,3.21,2.75l-6.88,4.33a34.55,34.55,0,0,1-3.83-6.17m4-1.85c-.09-.95-1.42-1.06-2.36-.9a1.24,1.24,0,1,0,2.2.89m.18,1.55-.19,2.18a2.63,2.63,0,0,0,1.65.32,2.09,2.09,0,0,0-1.28-2.53Z"/><path d="M388.68,126.51a4.32,4.32,0,0,0-5.37,1.68,4.11,4.11,0,1,1,5.62-5.8,6.31,6.31,0,0,1,1,3.18,13.32,13.32,0,0,1-2.06,8.12,8.9,8.9,0,0,0-1.75,3.42c-.25,1.88,1.11,3.82.46,5.6a1.37,1.37,0,0,1-1.42.24,12.17,12.17,0,0,1,1.39-11.37c.58-.81.44-1.91.51-2.91s.65-2.18,1.65-2.15m-4.21-3.22a1.58,1.58,0,0,0-.75,2.21,4.51,4.51,0,0,0,3.65-2.56,2.28,2.28,0,0,0-2.77.42Z"/><path d="M73.67,201.62a48.89,48.89,0,0,1-6.94,1.57c1.51-1.62,3.85-2.1,5.78-3.2s3.56-3.58,2.34-5.43a2.17,2.17,0,0,1,2.32-.77l.48-8.63c2.14,2.26,1.57,5.89.72,8.89s-1.8,6.43-.12,9.05c.46.71,1.12,1.44,1,2.27a2.66,2.66,0,0,1-.86,1.35l-5.79,5.94,3.5-10c.41-1.18.63-2.84-.52-3.34Z"/><path d="M211.26,188.88l.16,6.84c0,1.83-.52,4.31-2.35,4.27-4.56-.11-9.54.29-12.9,3.36-.66-2.79,2.67-4.82,5.48-5.35s6.21-.86,7.55-3.39a12.61,12.61,0,0,0-4.49.31A47.91,47.91,0,0,1,211.26,188.88Z"/><path d="M192.05,127.29c.74,3.2,1.4,6.85-.47,9.55a4.91,4.91,0,0,1-3.75,2.19l-1.53-8.8c-.25-1.43-.4-3.15.7-4.09C188.45,124.92,190.63,126.06,192.05,127.29Z"/><path d="M98.75,163.31a6.21,6.21,0,0,0-1.82-5.9,5.26,5.26,0,0,0,3.85-5.21,4.61,4.61,0,0,1,2.09,8.76,7.78,7.78,0,0,0-1.59.79c-1,.84-1.05,2.38-1.45,3.65s-2,2.48-3,1.54a10.24,10.24,0,0,0-1.19-3.84l3.06.21m3.77-5.2a1,1,0,0,0,.35-1.52c-.91,0-1.2,1.72-.29,1.68Z"/><path d="M462.16,196.39l-16.58-2.78a17.28,17.28,0,0,0-6.41-.26c-4,.86-7.88-3.09-12-2.49-.56-.23-.43-1.15.08-1.47a2.52,2.52,0,0,1,1.76-.13l29.43,4.94C460,194.45,461.73,194.93,462.16,196.39Z"/><path d="M428.08,185.49,455.85,190c.9.14,2.07.67,1.84,1.55q-18.17-2-36.12-5.64C423.51,184.81,425.89,185.14,428.08,185.49Z"/><path d="M224,95.81a2.91,2.91,0,0,1-3,2.18,8.48,8.48,0,0,1-3.77-1.21c-.59,1.72,1.52,3.13,3.31,3.46s4,.53,4.76,2.17l-.28-4.68,2.44,2.6a1.86,1.86,0,0,1,.63,1.09c.08,1.55-3,1.17-3.43,2.66a6.52,6.52,0,0,0-6-3.3,1.78,1.78,0,0,0-1.19.41c-.63.64-.2,1.69,0,2.56s-.31,2.17-1.14,1.84a24.63,24.63,0,0,1-1.31-14c-.44,1.91,1.19,3.81,3.06,4.39A11.9,11.9,0,0,0,224,95.81Z"/><path d="M67.31,237.76l6-15.68c.81-2.1.43-4.44.62-6.68s1.37-4.76,3.59-5.12l-3,12C73.21,227.91,71.62,233.89,67.31,237.76Z"/><path d="M308.46,292.42a10.65,10.65,0,0,1-7.46-.72,3.17,3.17,0,0,1-1.59-1.39c-.61-1.35.61-2.9,2-3.41s2.94-.4,4.37-.78c2.14-.56,3.83-2.15,5.43-3.68,1.19-.31,2.08,1.39,1.55,2.49a4.68,4.68,0,0,1-2.94,2,38,38,0,0,1-9,2Z"/><path d="M154,126.89a7,7,0,0,0,1.92,5.83L150.76,135a6.22,6.22,0,0,1-1-8.48,3.27,3.27,0,0,1,2.41-1.37,1.74,1.74,0,0,1,1.79,1.78Z"/><path d="M400.51,279.19l-.68-2A113.65,113.65,0,0,0,413,254.25c.39,2.51-.79,5-1.93,7.23l-7.24,14.32C403.1,277.27,402.13,278.92,400.51,279.19Z"/><path d="M54.75,174.56c.12-.94.34-2,1.2-2.46a2,2,0,0,1,2.42,1,5.81,5.81,0,0,1,.57,2.78l.29,7.62c-1,1.43-3.49.79-4.39-.72s-.7-3.41-.48-5.15l.39-3M56.44,179l2.19-.19a2.07,2.07,0,0,1-.61-2.05,1.37,1.37,0,1,0-1.61,2.22Z"/><path d="M224.48,224.44l-3.11,2.48,2.46,1.21a2.68,2.68,0,0,1-3,.82,2.51,2.51,0,0,0-1.79-2.66,9.75,9.75,0,0,0-3.47-.27,19.48,19.48,0,0,1-9.39-2.3l12.39-.91a5.13,5.13,0,0,1,.35,2.45,11,11,0,0,0,3.94-2.44Z"/><path d="M312,295.94a1.94,1.94,0,0,1,.31,1.62l-10.76,1.19a4.13,4.13,0,0,1-2.26-.65l-6.38-3.28c.47-1,2-1.07,3-.6s2,1.25,3.15,1.29Z"/><path d="M341.82,159.33a22.42,22.42,0,0,0-9.07,7.68c-.89,1.31-2.63,2.86-3.72,1.71a27.7,27.7,0,0,1,7.6-8.52,13.79,13.79,0,0,0,5.46-9.4A13,13,0,0,1,341.82,159.33Z"/><path d="M377.3,122.3c1.5,1.65,1.43,4.28.44,6.28a16.81,16.81,0,0,1-4.43,5c-1.18,1-3,2-4.12.89,1.72.27,2.47-2.12,2.36-3.85s0-4.06,1.66-4.48a5.87,5.87,0,0,0,4.09-3.79m-2.86,5.88a.94.94,0,0,0-1.54-.31,6.88,6.88,0,0,0,1,2.81c1,.07,1.06-1.56.65-2.52Z"/><path d="M175.37,198l-2.31-.9a22.39,22.39,0,0,1,12.32-7.43c2.26-.49,5.07-.4,6.3,1.55q-5,.39-10,1.18a3.15,3.15,0,0,0,3,1.76c.84-.05,1.24,1.25.64,1.85A1.8,1.8,0,0,1,183,196a5.26,5.26,0,0,1-1.36-2.1A5.54,5.54,0,0,0,175.37,198Z"/><path d="M48.12,144.37l1.2,2.08a5.09,5.09,0,0,0-3.43,3.21c-.48,1.42-2.7,1.42-3.72.33s-1.18-2.72-1.28-4.21a2,2,0,0,0-.27-3.6,3.24,3.24,0,0,0,1.17-3.49c1.38-.25,2.36,1.35,2.55,2.74s.09,3,1,4,3.31.23,2.74-1M45,147.65a2.25,2.25,0,0,0-2.52-2,1.92,1.92,0,0,1,.61,2,1.57,1.57,0,0,0,1.92,0Z"/><path d="M194.1,106.19a4.12,4.12,0,0,1,2.61-4.28,3.67,3.67,0,0,1,2-5.83c-1.43.14-1.43,2.24-.94,3.59s.75,3.36-.63,3.76c-1.1.32-1.19,2-.55,2.91a33.48,33.48,0,0,0,2.46,2.4c.74.88,1,2.41.06,3.05a7.28,7.28,0,0,0-4.84-4.28,8.54,8.54,0,0,1-2.3,5A4.41,4.41,0,0,1,194.1,106.19Z"/><path d="M118.26,197.26l.45,7.07c.08,1.3.68,3,2,2.81a14.38,14.38,0,0,1-9.66,3.78A29.58,29.58,0,0,0,118.26,197.26Z"/><path d="M47,157.87l1.38,2.91c3.32.71,5.71,3.53,7.83,6.18-1.32-.78-3,.42-3.77,1.74s-1.39,2.93-2.78,3.58c-.35-1.46.24-3,.65-4.39s.59-3.16-.4-4.29-3.42-.6-3.28.89Z"/><path d="M89.1,164.68a5.33,5.33,0,0,1,1-5.79c1.51-1.43,4.35-1.32,5.42.47s-.73,4.58-2.73,4l-.11,4.26a4.48,4.48,0,0,1-3.53-3m1.45-4.89a1.51,1.51,0,0,0,.47,2.44,1.7,1.7,0,0,0-.46-2.62Z"/><path d="M126.13,131.29a9.92,9.92,0,0,0,1.08-7.17c-1.57-.92-3.8,1.11-3,2.76-1.89-1.11-.79-4.5,1.38-4.87s4.19,1.51,4.81,3.61.22,4.35-.14,6.52A2.94,2.94,0,0,1,126.13,131.29Z"/><path d="M399.51,293c1.82-2.71,4.8-4.39,7.66-6,3.81-2.09,8.46-4.21,12.28-2.15a28.92,28.92,0,0,0-18.09,9.27Z"/><path d="M452.24,199a3.26,3.26,0,0,0-2.19-.29c-.52-.42-.17-1.34.44-1.59a2.9,2.9,0,0,1,1.94.16l3.94,1.28c.55.18,1.21.5,1.2,1.08s-.93.92-1.57.72a5.6,5.6,0,0,0-1.9-.6c-.67,0-1.21,1-.62,1.36L464.39,204a15.55,15.55,0,0,1-13.11-2A7.72,7.72,0,0,1,452.24,199Z"/><path d="M467.17,204.9l-2.15-.27a4.09,4.09,0,0,0,1.22-3.49l-2.67,1.28c-.3-1-1.71-1.12-2.79-1.24s-2.36-1.27-1.62-2.07a185.21,185.21,0,0,1,18.7,4,1.4,1.4,0,0,1,.24,1.45.78.78,0,0,1-1.33-.16,50,50,0,0,0-6.55-1.73,3.88,3.88,0,0,0-2.5.1C467,203.18,466.56,204.3,467.17,204.9Z"/><path d="M397.72,268.37a7.5,7.5,0,0,0-3.5-1,4,4,0,0,1-1,2.91,10.71,10.71,0,0,1-5.11-1.6,13.49,13.49,0,0,1,9.88-2.11,2.71,2.71,0,0,1,2.15,1.27,3,3,0,0,1,0,1.69l-.66,3.84c-.08.48-.25,1-.72,1.17-.75.2-1.11-.89-1.11-1.67Z"/><path d="M209.29,97.76a3.78,3.78,0,0,1,.29,2.48q-5-.19-9.92,0c1.28-.57,1.72-2.12,2.26-3.41s1.74-2.67,3.08-2.26C206.84,95.15,207.58,98.63,209.29,97.76Z"/><path d="M72.41,142.66l1.13-2.72a9.26,9.26,0,0,1,.93,3.84,3.16,3.16,0,0,1-2.18,3,4.65,4.65,0,0,1-2.51-.38l-3.21-1.13a6.56,6.56,0,0,1-3-1.72,2.26,2.26,0,0,1,.07-3.14c.19,1.73,1.94,3,3.67,3.17A11.78,11.78,0,0,0,72.41,142.66Z"/><path d="M212,130.1a1.63,1.63,0,0,1,.45,2.22c-1,.57-2.25-.55-2.26-1.69a5,5,0,0,1,1.47-3l5.17-6.28a15,15,0,0,1-1.48,4.29l5.52-4.33A16.06,16.06,0,0,1,212,130.1Z"/><path d="M219.34,69.68l-.83,2.17a2.23,2.23,0,0,0-2.86-1.05,12.42,12.42,0,0,1,1.09,7.1,11.31,11.31,0,0,1-2.69-4,3.86,3.86,0,0,1,1.21-4.36,6.67,6.67,0,0,1,8.58,1.4l-1.65,2.83A6.86,6.86,0,0,0,219.34,69.68Z"/><path d="M383.26,303.11l7.88-.36c1.73-.08,3.77-.34,4.57-1.87a4,4,0,0,1,4.3-1.66,11.58,11.58,0,0,1,4.33,2.3,9.33,9.33,0,0,0-8.57,1.72,3.92,3.92,0,0,1-2.19.7A29.63,29.63,0,0,1,383.26,303.11Z"/><path d="M290.12,73c-1-2.93,2.26-5.44,5.08-6.71q.36,6.05,1.28,12.06l-2.64.38a10.83,10.83,0,0,0-.13-7.48c-.26-.65-.79-1.39-1.47-1.25C290.94,70.3,291.44,73.08,290.12,73Z"/><path d="M354.49,164.76a3.58,3.58,0,0,1-.76,2.39c-1,1-2.84.37-3.53-.84a5.81,5.81,0,0,1-.25-4.09,3.12,3.12,0,0,1,1.16-2.13,2.29,2.29,0,0,1,3,1.16A6.63,6.63,0,0,1,354.49,164.76Z"/><path d="M331.17,151a2.53,2.53,0,0,1-.85-2.8,2.53,2.53,0,0,0,2-2.25q5.49.36,10.94,1.18c.38,1-1.17,1.6-2.17,1.25s-2-1.07-3-.62Z"/><path d="M220.14,75.9a2.36,2.36,0,0,0,1.52.89,6.52,6.52,0,0,0,1.1-3.16,2.88,2.88,0,0,0,3.86,1.32l.81,2.35c-1.85-.71-4.53-1.11-5.29.72a13.76,13.76,0,0,0-.28,2.52c-.18.83-1.19,1.62-1.82,1.05a8.61,8.61,0,0,1-.31-8.5A1.75,1.75,0,0,1,220.14,75.9Z"/><path d="M402.71,161.37a5.56,5.56,0,0,1-4-1.11,2.55,2.55,0,0,0,1,3.48,4.08,4.08,0,0,0-.72,4.26c-.36.84-1.55-.2-1.7-1.1a20.12,20.12,0,0,1,.85-10.08c.48-1.36,1.62-2.93,3-2.51a1.26,1.26,0,0,1,.36,1.38,5.93,5.93,0,0,0-2.43,1.86A10.11,10.11,0,0,0,402.71,161.37Z"/><path d="M287,187.54a2.21,2.21,0,0,1-.13,1.34,1.14,1.14,0,0,1-1.33.5c-1.28-5.36-2.56-11-1-16.3A141.13,141.13,0,0,1,287,187.54Z"/><path d="M27.25,147.34l2.66,2.5c.26-1.78-.86-3.43-1.33-5.16s.34-4.19,2.13-4.08a9.16,9.16,0,0,0-.17,3.28c.32,1.67,1.56,3.07,1.81,4.76s-1.57,3.74-2.92,2.71A4.11,4.11,0,0,1,27.25,147.34Z"/><path d="M7.21,269.56a22.52,22.52,0,0,1-1-5.34,2.49,2.49,0,0,1,.09-1,1.37,1.37,0,0,1,1.87-.69,7.72,7.72,0,0,1,.2,5.57,27.27,27.27,0,0,1,11,.78Z"/><path d="M21.78,195.33l-.56-5.72c-.09-1-.07-2.16.79-2.61a1.25,1.25,0,0,1,1.3.12c-.7,1.82.35,3.79,1.17,5.57s1.29,4.16-.18,5.44a2.19,2.19,0,0,1-1-2.2Z"/><path d="M272.23,154.56a12.51,12.51,0,0,1-1.72,8.84,3.79,3.79,0,0,0-.93,2.42c-1.71.72-4-1.54-2.77-3A15.53,15.53,0,0,0,272.23,154.56Z"/><path d="M96,143a2.55,2.55,0,0,0,1.56,3.39,3.53,3.53,0,0,1-1.71,2.32,6.24,6.24,0,0,1-.55-7.13,5.93,5.93,0,0,0,2.28-1.3l-2.46-1.84c1-1,2.89-.33,3.63.89a7.32,7.32,0,0,1,.65,4.16A7.43,7.43,0,0,1,96,143Z"/><path d="M125.13,185.43c-.15,1.5-.28,3.14.53,4.41s3,1.71,3.78.43a1.6,1.6,0,0,1,2.7.25,30.55,30.55,0,0,1-7.6,3.11A6.58,6.58,0,0,1,125.13,185.43Z"/><path d="M44.58,85.45c.89,0,2.15.67,1.61,1.38a77.11,77.11,0,0,0-19,.74c-.26-1.5,1.84-2.13,3.37-2.13Z"/><path d="M429,254.29l-4.33,7c.27-1.14-1.76-1.24-2.53-.35s-1.37,2.25-2.55,2.23l-.21-2.19A79.78,79.78,0,0,1,429,254.29Z"/><path d="M268.86,100.33l.54-10.06c.07-1.36.71-3.2,2-2.93A89.77,89.77,0,0,1,270.77,98C270.63,99.12,270,100.62,268.86,100.33Z"/><path d="M105.16,178.59a3.51,3.51,0,0,1,1.36-2.54,2.23,2.23,0,0,1,2-.17l-.92,9.79A8.27,8.27,0,0,1,105.16,178.59Z"/><path d="M386.06,169.4a2.59,2.59,0,0,1-.92-2.31,16.06,16.06,0,0,1,.91-5.53,5.58,5.58,0,0,1,2.89,5.63C388.72,168.61,387.29,170.12,386.06,169.4Z"/><path d="M436.24,35.79a12.77,12.77,0,0,1-3.72-2.88,2.75,2.75,0,0,0,3.55-3.21,7.15,7.15,0,0,1,1.83-7.34,14.16,14.16,0,0,0-.33,8.64A4.88,4.88,0,0,1,436.24,35.79Z"/><path d="M65.8,223.66a2.78,2.78,0,0,1,.19,1.92,4.47,4.47,0,0,1-6.49-3.24,8.22,8.22,0,0,0-2.1-4.83l4.35,2.71c-1.19.1-1.4,2-.51,2.77a4.68,4.68,0,0,0,3.4.73Z"/><path d="M450.19,129.39c1.68-.29,3.11,1.51,3.12,3.21a8.89,8.89,0,0,1-1.87,4.66L447.73,143c-.72.11-.75-1-.44-1.71a58.57,58.57,0,0,1,4.89-8.49Z"/><path d="M403.05,177.7l.33,1.73a17,17,0,0,1-5.47.18,2.51,2.51,0,0,1-2-1,2.68,2.68,0,0,1-.07-1.71l.86-4.88c.91-.09,1.24,1.24.94,2.1s-.87,1.8-.48,2.63A18.19,18.19,0,0,0,403.05,177.7Z"/><path d="M73.18,196.27c-.68,1.24-2.38-.24-3.63-.89s-2.89-.22-4.35,0-3.28.1-4-1.22a16.92,16.92,0,0,1,10.29,0C72.51,194.46,73.67,195.37,73.18,196.27Z"/><path d="M112.53,152a15.92,15.92,0,0,1-7.52-1.4,41.82,41.82,0,0,1-5-3c.62-.9,2-.7,2.95-.08a15.79,15.79,0,0,0,2.6,2c1.27.53,2.72.14,4.1.17S112.67,150.68,112.53,152Z"/><path d="M130.76,139.18c.84-1.77,2.6-2.87,4.09-4.13s2.87-3.08,2.48-5a7.6,7.6,0,0,1,2.34,4,3.39,3.39,0,0,1-2.16.29A8.68,8.68,0,0,1,130.76,139.18Z"/><path d="M225.31,134.86l-1.7,1.23a5,5,0,0,1,1.53-5c1.46-1.12,4-.81,4.74.85a8.89,8.89,0,0,1-4.5,3Z"/><path d="M423.56,131.06l-6.37,11.2A11.22,11.22,0,0,1,423.56,131.06Z"/><path d="M376.65,142.18l3.68-7.11a2.91,2.91,0,0,0,.44-1.41c0-.93-.92-1.58-1.71-2.07a2.89,2.89,0,0,1,3.8,1.8c-1.5,1.19-1.83,3.28-2.39,5.11S378.56,142.31,376.65,142.18Z"/><path d="M66.52,222.31a33.05,33.05,0,0,1,6.33-9.93A11,11,0,0,1,66.52,222.31Z"/><path d="M254.18,77.91a4.93,4.93,0,0,1,3.75,1A11.53,11.53,0,0,1,255,82.36a2.89,2.89,0,0,0-2.07-2.78,6.89,6.89,0,0,1,1.54-5.21c1-.25,2.53.26,2,1.08a2,2,0,0,0-2.15,2.24Z"/><path d="M125.64,181.3a2.08,2.08,0,0,1-.71,4.08c-.15-2-1.52-3.64-1.92-5.57s1.18-4.52,3-3.75a6.33,6.33,0,0,0-1.62,2.67A2.18,2.18,0,0,0,125.64,181.3Z"/><path d="M354.47,175.89a4.26,4.26,0,0,1,3.05-4.63l-2.5-1.94,1.44-1.36a4.23,4.23,0,0,1-2,7.93Z"/><path d="M474.48,194.31a54.21,54.21,0,0,1-15.66-2.87A33.75,33.75,0,0,1,474.48,194.31Z"/><path d="M334,168.25l8.36-7.22c.53,2.91-4,4.47-4.28,7.41Z"/><path d="M72,220.67a27.43,27.43,0,0,1-4.37,10.52A11.34,11.34,0,0,1,72,220.67Z"/><path d="M235.29,83.16a2.69,2.69,0,0,1-4,.89c2.59-2.11,5.74-4.36,9-3.52,1,.48-.26,2-1.38,2s-2.64-.18-3,.89Z"/><path d="M289.59,73.32a10.05,10.05,0,0,1,3.19,11,8.79,8.79,0,0,1-.8-6A3.63,3.63,0,0,1,289.59,73.32Z"/><path d="M268,101.36a1.19,1.19,0,0,1,.07-.84.61.61,0,0,1,.76-.2c-.14,2.35,1,4.55,1.79,6.77s1,5-.61,6.68Z"/><path d="M90.66,174.34a23.32,23.32,0,0,1,11.11-5.61A21.17,21.17,0,0,1,90.66,174.34Z"/><path d="M18.72,287.11a28.39,28.39,0,0,0,3.91,7.23,4.88,4.88,0,0,1-4.65-.41Q18.41,290.53,18.72,287.11Z"/><path d="M270.72,57.2l1.44,10a1.19,1.19,0,0,1-1.38.22A11.55,11.55,0,0,1,270.72,57.2Z"/><path d="M352,137.1a3.82,3.82,0,0,1,.7,4.82,10,10,0,0,1-2.53-9.63l1.83,1-1.29,1.95,1.24,1.86Z"/><path d="M287.33,134.3l-4.74,5.1c-.3.32-.87.63-1.11.26a12.1,12.1,0,0,1,4.54-7.07A1.39,1.39,0,0,1,287.33,134.3Z"/><path d="M398.53,256.73a8.46,8.46,0,0,1,4.7-2.84,15.93,15.93,0,0,1-1.58,4.84,3.3,3.3,0,0,0-1.23-2.53l-1.63,3.25a1.79,1.79,0,0,0-2.76,0,2.56,2.56,0,0,1,2.32-2.68Z"/><path d="M237.14,99.7l2-1.92a2.55,2.55,0,0,1-1.24,3.28,3.32,3.32,0,0,1,2.54,3.41c-2.49.83-5-2.77-3.38-4.83Z"/><path d="M164.59,6.53,163.72.9l1.39-.16a8.52,8.52,0,0,1,1.6,4.18c0,1.51-1.11,3.14-2.62,3.1a.89.89,0,0,1,.36-1.39Z"/><path d="M26.11,309.53l-4-.16a7.5,7.5,0,0,1,8.72-1.48,7.61,7.61,0,0,1-4.73,1.64Z"/><path d="M422.07,221.83a9.5,9.5,0,0,0-6.22,3.6,1.79,1.79,0,0,1-2.48.26,13.44,13.44,0,0,1,3.68-3.82A4.58,4.58,0,0,1,422.07,221.83Z"/><path d="M425.06,250.88c-2.2.11-3.48,2.46-4.33,4.5l-1,2.52.33-6.8A4.34,4.34,0,0,1,425.06,250.88Z"/><path d="M24.79,165.27c-.58-.42-.13-1.44.56-1.6a2.75,2.75,0,0,1,2,.61,7.08,7.08,0,0,1,2.91,2.85c.56,1.26.19,3-1.09,3.54-.73.39-.83-1-.64-1.82A3.15,3.15,0,0,0,24.79,165.27Z"/><path d="M223.59,10.42l-6.21-2.08-1-1.92A6.63,6.63,0,0,1,223.59,10.42Z"/><path d="M391.55,152.1l-5.15.6a5.8,5.8,0,0,1,3.87-2.16c-1.09-.77.61-2.67,1.71-1.9s.7,2.64-.42,3.37Z"/><path d="M271.17,53.9l-.73,2.53A10.41,10.41,0,0,1,270,48a4.57,4.57,0,0,1,1,5.77Z"/><path d="M59.85,198a4.74,4.74,0,0,1-3.29-1.6,9.72,9.72,0,0,1,8.32,2.76,4.31,4.31,0,0,1-4.83-1Z"/><path d="M276.35,114.84l.27-1.39c.77-.13,1.08,1,.88,1.74s-.52,1.67,0,2.21,1.5.14,2.26-.09,1.93.12,1.74.89a15.54,15.54,0,0,1-7.74-.09,6,6,0,0,0,2.92-3.13Z"/><path d="M202.79,103.72v-1.86a2.16,2.16,0,0,1,1.57-.3,5.43,5.43,0,0,1-4,6.57,7.08,7.08,0,0,1,2.54-4.27Z"/><path d="M437.74,182.05a2.81,2.81,0,0,1-4,.08,4.94,4.94,0,0,1-1.23-4.18,8.13,8.13,0,0,1,.71-2.49c1.18-.15,1.51,1.62,1.14,2.75s-.82,2.64.17,3.3S436.91,181.31,437.74,182.05Z"/><path d="M295.62,189.12v-3.71a1.7,1.7,0,0,1,1.5-.25,2.34,2.34,0,0,1,.74,2.55,11.32,11.32,0,0,0-1.52,4.87,1.9,1.9,0,0,1-.55-3.22Z"/><path d="M211.89,137.14a5.28,5.28,0,0,1-1.41,2.81c-.82.68-2.3.66-2.75-.31a43.45,43.45,0,0,1,5.82-5.43,3.15,3.15,0,0,1-1.51,2.88Z"/><path d="M67.33,205.87a4.38,4.38,0,0,1,4.16-2.07,32.43,32.43,0,0,1-5.86,6.33,9.14,9.14,0,0,1,1.72-4.23Z"/><path d="M415.25,164.91a5.59,5.59,0,0,1,1.27-3.31,2.88,2.88,0,0,1,4,.2c-3.07.52-4.7,3.83-5.85,6.73Z"/><path d="M307,11.68a6,6,0,0,1-4.9,1l5.06-2.29c1.72-.78,4.17-1.35,5.13.27l-5.22.89Z"/><path d="M462.18,119.75a2.4,2.4,0,0,1-2,1.89,19.2,19.2,0,0,0,1.24,4.73,4.27,4.27,0,0,1-2.17-5.82,2.45,2.45,0,0,1,3-.8Z"/><path d="M420.56,238.68a5.93,5.93,0,0,1,1.15,4.1,10.3,10.3,0,0,1-3.42-8.47,9.15,9.15,0,0,1,2.22,4.33Z"/><path d="M497,83.07a41.21,41.21,0,0,1,.12-8.16c.07-.62.41-1.42,1-1.29A16.76,16.76,0,0,1,497,83.07Z"/><path d="M20.65,260.8a6.52,6.52,0,0,1,7.62-.46A10.23,10.23,0,0,1,20.65,260.8Z"/><path d="M21.1,305.15c.49.06.38.89-.06,1.11a7.55,7.55,0,0,1-1.46.24,1.61,1.61,0,0,0-.29,2.84,2.32,2.32,0,1,1,1.51-3.87Z"/><path d="M332,156.31a5.71,5.71,0,0,1-3.68,4.15,8.42,8.42,0,0,1,4.68-6.33,2.88,2.88,0,0,1-.92,2.19Z"/><path d="M44,180.17a4.82,4.82,0,0,1-.12-5.19,1.41,1.41,0,0,1,1.61-.34,12.25,12.25,0,0,0,.2,5.25l-1.63.36Z"/><path d="M493.5,173.15a1.4,1.4,0,0,1-.83,2.11,8.78,8.78,0,0,1-.44-7,5.81,5.81,0,0,1,1.38,4.74Z"/><path d="M68.51,190.35a2.49,2.49,0,0,1,4.1,2.65,4,4,0,0,0-5.12-1.23,2,2,0,0,1-.84-1.43,2.08,2.08,0,0,1,1.54-.28Z"/><path d="M283.39,166.71a4.43,4.43,0,0,1-.44-4.79,19.09,19.09,0,0,1,2,7.61,1.73,1.73,0,0,1-1.49-2.56Z"/><path d="M33.22,94.44A15.86,15.86,0,0,1,43,93.93,18.51,18.51,0,0,1,33.22,94.44Z"/><path d="M21.22,172.7a16.93,16.93,0,0,1-.9,4.38,7.17,7.17,0,0,1-1.23-6.28l2.37,1.91Z"/><path d="M242.17,82.3a2.47,2.47,0,0,1,1.15-3.73,3.76,3.76,0,0,1,0,5.07l-1.27-1.27Z"/><path d="M15.58,294.49l-1.89,3.17a3.35,3.35,0,0,1-3.37-.81l4.7-2.94Z"/><path d="M395.36,298.32a14.84,14.84,0,0,1-8.88.67A14.84,14.84,0,0,1,395.36,298.32Z"/><path d="M293.7,297.36c-1,1-2.65.29-3.61-.69s-1.79-2.28-3.14-2.55A9.7,9.7,0,0,1,293.7,297.36Z"/><path d="M59.48,235.87a4.85,4.85,0,0,1-.57,5.09,5.48,5.48,0,0,1-.15-6.11.84.84,0,0,1,.68,1Z"/><path d="M215.22,61.28a5.88,5.88,0,0,1,3.19,2c.7,1.06.34,2.86-.91,3.09L215,61.4Z"/><path d="M91.46,129.12l-1,2.2a3.25,3.25,0,0,1,.82-5.49l.2,3.25Z"/><path d="M470.38,215l-2.69-1a7.06,7.06,0,0,1,7,.09,4.65,4.65,0,0,1-4.16.64Z"/><path d="M280.46,100.31l2.77,1.53a5.3,5.3,0,0,1-6.79-2.69l4,1.26Z"/><path d="M162.47,190.3l-.83,1.59a2,2,0,0,1-2.2-1,5.72,5.72,0,0,0,2.65-3.63,1.51,1.51,0,0,1,1.4-.31l-1.07,3.35Z"/><path d="M270.87,79a1.9,1.9,0,0,1-.17,3,16.22,16.22,0,0,1-.78-8.29,7.57,7.57,0,0,1,.89,5.28Z"/><path d="M153.26,152.59a.64.64,0,0,1-.8.8c-1.85-1.52-.94-5.11,1.41-5.58l-1.06,4.67Z"/><path d="M170.25,191.59a1.16,1.16,0,0,1-1.23-1.53c1.74-.15,3.95,0,4.64,1.57a2,2,0,0,1-3.15.11Z"/><path d="M213,2.51c.57.38-.08,1.35-.76,1.3s-1.19-.61-1.75-1-1.41-.63-1.85-.11L208.26.76A7.31,7.31,0,0,1,213,2.59Z"/><path d="M369,308.87l5.89,1.61a34,34,0,0,1-6.52.22A1.18,1.18,0,0,1,369,309Z"/><path d="M382.26,151.34a2.17,2.17,0,0,1-2.36,2l.78-4.84a2.65,2.65,0,0,1,1.55,2.86Z"/><path d="M174.71,253.69a2.33,2.33,0,0,0-3,.22,1.58,1.58,0,0,1-.37-1.59,3.35,3.35,0,0,1,5.1,1.9l-1.75-.43Z"/><path d="M27.32,269.16a6,6,0,0,1-4.78-.63,7.94,7.94,0,0,1,7,.43,3.27,3.27,0,0,1-2.17.28Z"/><path d="M227,72.21a2.54,2.54,0,0,1-3.26,1.25,3.35,3.35,0,0,1,3.45-2.87.91.91,0,0,1-.33,1.49Z"/><path d="M141.93,224.52a3.91,3.91,0,0,1,3.56,1.16,13.74,13.74,0,0,1-7.83-1.92,8.16,8.16,0,0,1,4.09.52Z"/><path d="M188.63,202.61a4,4,0,0,1,.73,4.91,3.09,3.09,0,0,1-1-4.39Z"/><path d="M211.38,11l.69,1a3.32,3.32,0,0,1-5-.39l4.05-.62Z"/><path d="M396.93,235.86a6.46,6.46,0,0,1-2.73,5.22,4.52,4.52,0,0,1,2.67-5.06Z"/><path d="M374.09,137.79a3.29,3.29,0,0,1-2.54,4.09,8,8,0,0,1,2.44-4.76Z"/><path d="M285.1,291.22a1.58,1.58,0,0,1-.9,2.74,4.16,4.16,0,0,1-.92-3.32,1.07,1.07,0,0,1,1.83.59Z"/><path d="M62.58,90.3a3.1,3.1,0,0,1-3.4-.85,15.68,15.68,0,0,1,6.42,0,2.06,2.06,0,0,1-2.85.8Z"/><path d="M209,123.3a1.82,1.82,0,1,1-.69,3.38,5.21,5.21,0,0,0,.72-3.15Z"/><path d="M220.14,10.26a1.87,1.87,0,1,1-3.57-.91l3.55.91Z"/><path d="M293.83,53c-.56-.19.45-.8.89-.4a2.05,2.05,0,0,1,.34,2.76,1.44,1.44,0,0,1-2.41-.54L293.74,53Z"/><path d="M134.5,195a.86.86,0,0,1,1.42-.37,8.6,8.6,0,0,1-3.55,4.75,6.79,6.79,0,0,1,2.18-4.26Z"/><path d="M238.7,89.2a1.64,1.64,0,0,1-1.7-1.5,3.43,3.43,0,0,1,.8-2.34,2.21,2.21,0,0,1,.78,3.69Z"/><path d="M484.62,140.73a3,3,0,0,1,2.1,2.25,4.34,4.34,0,0,1-4.33-2.75,2.06,2.06,0,0,1,2.22.36Z"/><path d="M113.33,154.2a3.06,3.06,0,0,1,1.33,2.94,1.88,1.88,0,0,1-2.56-.71,1.56,1.56,0,0,1,1.27-2.16Z"/><path d="M372.38,306.48a6,6,0,0,1,5.59,1.45,5.31,5.31,0,0,1-5.72-1.44Z"/><path d="M287.68,58.44A6.18,6.18,0,0,1,286,53.71a4.9,4.9,0,0,1,2.42,4.57c0,.38-.18.84-.56.91s-.57-.67-.19-.64Z"/><path d="M180.55,206.47a2.62,2.62,0,0,1,1.77-1.3,3.73,3.73,0,0,1-2.92,4.25,4.53,4.53,0,0,1,1.19-2.88Z"/><path d="M498.32,176.41a2.81,2.81,0,0,1,.19,2.12,3.45,3.45,0,0,1-3.92.62,8.38,8.38,0,0,1,3.78-2.43Z"/><path d="M356.27,160.31a3.27,3.27,0,0,1,3.07,2.94,2.46,2.46,0,0,1-3-2.88Z"/><path d="M415.37,59.5A1.62,1.62,0,0,1,414.09,57a6.72,6.72,0,0,1,3.61,2.61,1.59,1.59,0,0,1-2.33-.14Z"/><path d="M192.87,122.31a2,2,0,0,1-1.19,2.23,4.21,4.21,0,0,1,1.57-5,2.36,2.36,0,0,1-.33,2.74Z"/><path d="M171.32,122.1a5.16,5.16,0,0,1,.69-5.19,5.07,5.07,0,0,1-.33,5.16Z"/><path d="M233.92,71.25l-.51-2a6.63,6.63,0,0,1,3.47,3.51,1.83,1.83,0,0,1-2.69-1.55Z"/><path d="M270.27,118a3.14,3.14,0,0,1-2.15.21,1.49,1.49,0,1,1,2.33-.1Z"/><path d="M5.66,277.87c-.51.4-1-.69-.57-1.2a3.71,3.71,0,0,1,3.55,2.77,2.36,2.36,0,0,1-1.67.31l-1.2-1.88Z"/><path d="M63.3,159.29a1.94,1.94,0,0,1-3.46-.35A3.25,3.25,0,0,1,64,159Z"/><path d="M286.27,118c-.46.53-1.48-.34-1-.87,1,.59,2.12-.31,3.15-.81s2.82.17,2.28,1.17l-4.35.31Z"/><path d="M170.67,236.28l-7-1.39c-.57-.11-1.29-.72-.84-1.09A21.17,21.17,0,0,1,170.67,236.28Z"/><path d="M117.09,133.08l1.71-.3a11.91,11.91,0,0,1-5.09,4,11.69,11.69,0,0,1,3.41-3.62Z"/><path d="M431.78,303.62a5.07,5.07,0,0,1,5-.55,8.39,8.39,0,0,1-5.29,1.15Z"/><path d="M213.37,140.24a5.77,5.77,0,0,1,2.14-3.52,7.27,7.27,0,0,1-1.87,5.08,2,2,0,0,1-.31-1.56Z"/><path d="M9.72,285.57c-1.44-.14-1.71,2.62-.26,2.76S11.16,285.71,9.72,285.57Z"/><path d="M390,171.48l1.24-2.47c.67-.53,1.66.44,1.49,1.27s-1,1.36-1.69,1.81a1.23,1.23,0,0,1-1.13.25c-.36-.18-.21-.92.17-.78Z"/><path d="M371.3,169a2,2,0,0,1-1.73,1.9,4.82,4.82,0,0,1-.28-2.79,1.44,1.44,0,0,1,2.43.93Z"/><path d="M223.23,106.26c-1.79.49-3.44-2.14-2.22-3.54l2.22,3.46Z"/><path d="M423.64,131.21a2.34,2.34,0,0,1,3.21-.05,6.81,6.81,0,0,1,1.79,3.05c-1,.26-1.72-.94-2.23-1.85s-1.88-1.73-2.45-.86Z"/><path d="M424.38,56.08c-.15-.69.22-1.8.83-1.44a2.42,2.42,0,0,1,.68,3.71l-1.58-2.27Z"/><path d="M47.8,265a2.29,2.29,0,0,1-2.82.29L49,262.44a1.94,1.94,0,0,1-1.32,2.33Z"/><path d="M166.27,237.85a3.57,3.57,0,0,1,3.72,2.79,5.09,5.09,0,0,1-3.88-2.54Z"/><path d="M444.49,21.05a8,8,0,0,0-3.43-1.45,4.11,4.11,0,0,1,3.35-.93,1.64,1.64,0,0,1,.1,2.47Z"/><path d="M152.94,240.83a2.58,2.58,0,0,1,1.3,1.75,3.09,3.09,0,0,1-3.52-2.71,3,3,0,0,1,2.24.93Z"/><path d="M74.68,159.41a5.11,5.11,0,0,1,1.51-3.54,7.1,7.1,0,0,1,.34,3.53,1.53,1.53,0,0,1-1.87,0Z"/><path d="M415.34,64.47a2.61,2.61,0,0,1,1.31,1.81,4.58,4.58,0,0,1-3.41-1,1.75,1.75,0,0,1,.28-1.59l1.8.8Z"/><path d="M286.66,47.71a1.56,1.56,0,0,1,2.27-.26,2.92,2.92,0,0,1-3.47,1.39.89.89,0,1,1,1.21-1.13Z"/><path d="M238.88,76.22a4.68,4.68,0,0,1-4.7.07,4.13,4.13,0,0,1,4.46-.36Z"/><path d="M99.74,187.58a1.16,1.16,0,0,1,2,.29l-.78,1.56a2.31,2.31,0,0,1-1.88-.49c-.44-.5,0-1.57.63-1.32Z"/><path d="M169.8,1.12a1.88,1.88,0,0,1-.72,2.7L167.51,1A2.4,2.4,0,0,1,170,1Z"/><path d="M11.82,212.09a3.56,3.56,0,0,1-.78,5.17,17,17,0,0,1,.71-4.88Z"/><path d="M401.84,165.36a2.34,2.34,0,0,1,1,3.66,2.5,2.5,0,0,1-1.22-3.16Z"/><path d="M127.41,205.64c-.56-.85,1.06-1.62,1.92-1.07s1.36,1.62,2.33,2a5.15,5.15,0,0,1-4-1.1Z"/><path d="M362.61,139.67a2.33,2.33,0,0,1,3.62-.78,3.71,3.71,0,0,1-4,1.18Z"/><path d="M452.22,182.37a2,2,0,0,1,3.05,1.16,2.4,2.4,0,0,1-3.46-1.09Z"/><path d="M31.42,17.68c-.4-.51.68-1,1.16-.59a12.45,12.45,0,0,1-.25,4.18c-1.24-.47-1.15-2.23-.84-3.51Z"/><path d="M177.75,213.51c-.69.18-1.75-.17-1.49-.83a3.94,3.94,0,0,1,4.35-.59l-2.89,1.42Z"/><path d="M60.43,214.5a3,3,0,0,1-.32,2.27,5.08,5.08,0,0,1-.56-5.06,2.54,2.54,0,0,1,.84,2.75Z"/><path d="M200.64,216.79c-.72,0-1.12-1-.87-1.64a3.44,3.44,0,0,1,1.51-1.51,2.13,2.13,0,0,1,.89,1.47l-1.54,1.55Z"/><path d="M245.68,76.94a1.56,1.56,0,0,1-.42-2.13c.52-.63,1.8-.34,1.83.47-.08,1.07-.88,2.53-1.77,1.94Z"/><path d="M435.76,159.56c.84-.06,1,1.38.27,1.83a2.93,2.93,0,0,1-2.45-.08,1.73,1.73,0,0,1,2.18-1.53Z"/><path d="M312.81,288.32c.39.61-.36,1.43-1.08,1.39a3,3,0,0,1-1.83-1.09,1.67,1.67,0,0,1,2.92-.22Z"/><path d="M463,153.63c.89-.23,2.29,0,2.15.87a7.69,7.69,0,0,1-4.35.05,2.06,2.06,0,0,1,2.17-1Z"/><path d="M209.3,107.7c-1.26.38-2.71-1.19-2-2.28l3.59,1.92a1.73,1.73,0,0,1-1.6.38Z"/><path d="M178.6,233a13.14,13.14,0,0,1-4.29-1.91,4,4,0,0,1,4.31,1.33Z"/><path d="M183.77,233.6l-.67-2a9.26,9.26,0,0,1,3,.89,2,2,0,0,1-2.53,1.22Z"/><path d="M407.06,177.31,409,178.6a2,2,0,0,1-2.67.34c-.73-.67,0-2.27.91-1.88Z"/><path d="M51.79,141.47v1.87a2.36,2.36,0,0,1-2.47,0l2.2-2.57Z"/><path d="M12.72,261.62l.64,1A6.45,6.45,0,0,1,9.91,265a7.88,7.88,0,0,1,2.61-3.09Z"/><path d="M285.46,263.53a3.35,3.35,0,0,1-2.11-3.48,3.81,3.81,0,0,1,2.36,3.64Z"/><path d="M25.79,168.2a1.23,1.23,0,0,1,1.15,1.67,1.26,1.26,0,1,1-1.18-2Z"/><path d="M448.45,236.16a3.38,3.38,0,0,1-.25,2.19,5.15,5.15,0,0,1-1.65-3.49,1.25,1.25,0,0,1,1.66,1.26Z"/><path d="M233.52,246.42l1-.63A3.44,3.44,0,0,1,236.9,248a3.41,3.41,0,0,1-3.14-1.37Z"/><path d="M303.48,88.44a2.54,2.54,0,0,1-3.69.95,3.67,3.67,0,0,1,3.27-1.23Z"/><path d="M23.63,143.66a2.8,2.8,0,0,1,2.64,3,6.14,6.14,0,0,1-3-2.8Z"/><path d="M294.86,86.68a2.35,2.35,0,0,1-2,2.52,2.28,2.28,0,0,1-.3-1.57l2.16-.93Z"/><path d="M241.73,89.17l.16-3.7a2.33,2.33,0,0,1,.05,4Z"/><path d="M42.14,297c-1,.31-2.48.36-2.69-.67a3.28,3.28,0,0,1,2.25-.63c.78.18,1.31,1.29.7,1.8Z"/><path d="M138.79,156.25l.88-3.35a2.61,2.61,0,0,1-.34,3.87Z"/><path d="M424.71,153.06a3.14,3.14,0,0,1,3.44.61,2.58,2.58,0,0,1-3.73-.59Z"/><path d="M103.54,164.69a.93.93,0,0,1,1.53-.31,2.76,2.76,0,0,1-2.89,2.17,2.59,2.59,0,0,1,1.31-1.82Z"/><path d="M5.32,158a1.48,1.48,0,0,1,2.51.17,2.94,2.94,0,0,1-1.88,1c-.73,0-1.42-.92-.94-1.48Z"/><path d="M141.51,139.61a1.3,1.3,0,0,1-1.84,1.26l.92-2.8c.66-.34,1,.8.89,1.53Z"/><path d="M414.47,171.16a1.81,1.81,0,0,1,.28-1.58,3.21,3.21,0,0,1,.61,3.79c-.91.12-1.07-1.26-.82-2.15Z"/><path d="M290.93,169.65c.53.36,0,1.44-.54,1.13a2.9,2.9,0,0,1-1.6-2.76,3.53,3.53,0,0,1,2.17,1.62Z"/><path d="M288.19,138.37a5.46,5.46,0,0,1,.33-2.81,3.37,3.37,0,0,1,.83,3.4c-.32.54-1.37,0-1.09-.59Z"/><path d="M432.07,308.84c-1.05.12-2.4,0-2.77-1a8.77,8.77,0,0,1,3.39-.22c.52.36,0,1.38-.6,1.17Z"/><path d="M442.47,154.41l-2.06-1a2.5,2.5,0,0,1,3.87,1.09l-1.69-.25Z"/><path d="M136.86,151l-1.52.51c-.34-1.58,2.17-1.89,3.71-1.4l-2.17.94Z"/><path d="M206.22,238.94c.54-.19.74.86.23,1.11a1.56,1.56,0,0,1-1.56-.46,2.31,2.31,0,0,0-1.49-.76,2,2,0,0,1,2.8.09Z"/><path d="M494.22,203.47l.7,1.1-2.2.95a2.15,2.15,0,0,1-.3-1.55,2,2,0,0,1,1.54-.28Z"/><path d="M408.68,167.23l1-.75a2.32,2.32,0,0,1,1,2.26,1.31,1.31,0,0,1-1.85-1.27Z"/><path d="M173.52,236.89l1.43,1a2,2,0,0,1-3.19-1.13,1.06,1.06,0,0,1,1.59.28Z"/><path d="M429,235.9c.68-.24,1.7.18,1.53.88a3.58,3.58,0,0,1-3.07,0c-.32-.66.81-1,1.53-.88Z"/><path d="M456.25,134.58l.92-2.68a2,2,0,0,1-.57,3.36Z"/><path d="M351.55,54.58a3,3,0,0,1-.48,3.85,3.26,3.26,0,0,1,.65-3.8Z"/><path d="M439,140.63l2.45-2.62a3.56,3.56,0,0,1-2.07,3.43Z"/><path d="M230.33,99.08l-1.22,1.15a1.16,1.16,0,1,1,1.39-1.17Z"/><path d="M168,227.62l1.52,1.14a2.48,2.48,0,0,1-3.17-.1c-.37-.62.77-1,1.47-.8Z"/><path d="M41.11,268.19a2.36,2.36,0,0,1,2.54-.6c-.37.7-.82,1.47-1.59,1.67s-1.71-.7-1.23-1.33Z"/><path d="M147.51,184.49c-.3.74-1.59-.39-.89-.79a2.51,2.51,0,0,1,3-.78l-2.23,1.58Z"/><path d="M229.09,7.49,230.33,10a2.06,2.06,0,0,1-2.05-.8c-.39-.67.1-1.76.87-1.68Z"/><path d="M419.4,154.5a3,3,0,0,1,3.71.55,3.1,3.1,0,0,1-3.77-.54Z"/><path d="M275.54,86.13c.52-.41.94.7.56,1.25l-2.8-.27c-.25-.92,1.22-1.17,2.14-.93Z"/><path d="M290.71,285.65a.9.9,0,0,1-1,.92l-.93-2.16a2.15,2.15,0,0,1,1.55-.3,2,2,0,0,1,.28,1.54Z"/><path d="M156.07,123.24a1.81,1.81,0,0,1,1.54.25,2,2,0,0,1-.89,2.13,2.66,2.66,0,0,1-.75-2.44Z"/><path d="M410.58,148.85a2.11,2.11,0,0,1-2.36,1.38,2,2,0,0,1,2.68-1.7Z"/><path d="M65.36,150l2-3.41A5,5,0,0,1,66,150.1Z"/><path d="M386.09,256.27a3.84,3.84,0,0,1,1.46-3.11,2.38,2.38,0,0,1-1.26,3.14Z"/><path d="M330.58,127.94a30.71,30.71,0,0,1-4.08-.51,3.87,3.87,0,0,1,4.12,0Z"/><path d="M128.62,284.49a2.89,2.89,0,0,1,3.15-.75,2.19,2.19,0,0,1-3.31.79Z"/><path d="M341.1,219.81c.68-.23,1.71.18,1.51.87a2.24,2.24,0,0,1-3.05-.62,2.09,2.09,0,0,1,1.54-.28Z"/><path d="M386.57,278.75a1.41,1.41,0,0,1-1.31-1.14c.78-.28,1.77-.46,2.31.17s-.63,1.79-1,1Z"/><path d="M296.23,116.72a2.44,2.44,0,0,1-3.2.6c.28-1.21,2-1.05,3.2-.62Z"/><path d="M235.62,9.73a1.46,1.46,0,0,1-1.88-.7l2.15-.88c.82,0,.52,1.65-.26,1.4Z"/><path d="M225.38,110.22a5.6,5.6,0,0,1-2.78-.31,3,3,0,0,1,1.88-1.06c.74,0,1.44.92,1,1.48Z"/><path d="M222,65.23l1.56-.24a2.37,2.37,0,0,1,.31,1.6,2.12,2.12,0,0,1-1.55.3,2,2,0,0,1-.28-1.54Z"/><path d="M425.59,162.85a2.1,2.1,0,0,1,1.82,2.26,1.45,1.45,0,0,1-1.72-1.92Z"/><path d="M256.69,267.91a2.85,2.85,0,0,1,.85,3.8,5,5,0,0,1-.89-3.68Z"/><path d="M354.18,96.45a2.92,2.92,0,0,1-.08-3c1.2,0,1,1.87.37,2.88Z"/><path d="M473.52,160.07c-.68-.17-.53-1.32.12-1.6a2.59,2.59,0,0,1,2,.31,2,2,0,0,1-2.13.93Z"/><path d="M148.71,228.33a2.34,2.34,0,0,1-.75-2.39,1.58,1.58,0,0,1,.85,2.7Z"/><path d="M291.54,96.67c.95.32,1.07,2,.11,2.27-.77-.75-1.06-2.59,0-2.38Z"/><path d="M150.18,141.47a2.53,2.53,0,0,1,1.53-2.2,1.63,1.63,0,0,1-1.53,2.39Z"/><path d="M498.56,25.13a1.78,1.78,0,0,1-.83,2.05,2.37,2.37,0,0,1-.52-2c.24-.66,1.46-.76,1.51-.06Z"/><path d="M404.09,171.95a1,1,0,1,1,.74,1.84,1.13,1.13,0,0,1-.6-1.7Z"/><path d="M426,210.74a1.9,1.9,0,0,1-2.34,1.3c.53-.06.85-.6,1.08-1.07s.55-1,1.08-1.08.95.8.45,1Z"/><path d="M26.37,173.07c.16-.85,1.06-1.93,1.62-1.27-.06.72-.2,1.56-.84,1.9s-1.57-.64-1-1.06Z"/><path d="M283.83,109.85a1.36,1.36,0,0,1,1.88,1.3,2.19,2.19,0,0,1-1.55.3,2,2,0,0,1-.28-1.54Z"/><path d="M211.49,89.48a1.8,1.8,0,0,1,.25-1.54,2.16,2.16,0,0,1,1.58.27,1.36,1.36,0,0,1-1.88,1.32Z"/><path d="M257.3,273.9c-.24-.68.18-1.69.88-1.52a3.67,3.67,0,0,1,0,3.06l-.9-1.56Z"/><path d="M431.82,170.54c-.27-.68.2-1.68.91-1.52a3.14,3.14,0,0,1,.23,2.14c-.35.53-1.37,0-1.15-.59Z"/><path d="M242.41,3.59l-1.58.25A1.31,1.31,0,0,1,242.17,2l.32,1.47Z"/><path d="M122.62,129.92c-.87.24-2.25.08-2.11-.82a2.43,2.43,0,0,1,1.68-.4c.57.15.93,1,.47,1.35Z"/><path d="M400.19,240.17a2.79,2.79,0,0,1-1-3.27c1.2.31,1.16,2,.86,3.21Z"/><path d="M498.21,243.33a1.51,1.51,0,0,1-.47,2.44,1.7,1.7,0,0,1,.46-2.62Z"/><path d="M144.14,201.66a1.83,1.83,0,0,1-2.07.51c.3-.65.7-1.38,1.4-1.54s1.46.83.89,1.27Z"/><path d="M403.82,241.08a1.27,1.27,0,0,1-1.84.62,3.81,3.81,0,0,1,1.64-2.14,2,2,0,0,1,.28,1.53Z"/><path d="M456.41,154.46c0-1.11,1.71-1,2.73-.6a1.66,1.66,0,0,1-2.59.58Z"/><path d="M400.45,240a2.2,2.2,0,0,1-1.35,3.12,5.23,5.23,0,0,1,1.14-2.95Z"/><path d="M444.12,135c-1.05-.46,0-2,1-2.56a1.6,1.6,0,0,1-1,2.1Z"/><path d="M129,201.47a2.08,2.08,0,0,1,2.52-1.27,2.45,2.45,0,0,1-2.43,1.46Z"/><path d="M64,207a1.42,1.42,0,0,1-2.35,0l2.76-.64Z"/><path d="M31.68,54.34a5.69,5.69,0,0,1,0-4.18,11.23,11.23,0,0,1,.26,4Z"/><path d="M248,80.32l-1.56.24a2.24,2.24,0,0,1-.3-1.57,1.75,1.75,0,0,1,1.93,1.19Z"/><path d="M420.5,167.15a4.42,4.42,0,0,1-.79,2.44,2.09,2.09,0,0,1,.42-2.94Z"/><path d="M174.79,233.8l1.48,1.14a2.79,2.79,0,0,1-3.13-.75l1.48-.28Z"/><path d="M419.82,170.94l1.06-.76a2.76,2.76,0,0,1,1,1.64,1.23,1.23,0,0,1-1.77-.67Z"/><path d="M274.95,102.14a1.39,1.39,0,0,1-.7,1.85,2.26,2.26,0,0,1-.91-1.51,2.07,2.07,0,0,1,1.54-.28Z"/><path d="M125.31,161.74a1.82,1.82,0,0,1-2.37.15c-.24-1,1.5-1.06,2.2-.32Z"/><path d="M194.77,287.51a1.65,1.65,0,0,1-2.52,1.26,3.39,3.39,0,0,1,2.48-1.25Z"/><path d="M146.31,287l1.45,1.09a3.08,3.08,0,0,1-2.19.3c-.53-.35,0-1.38.59-1.16Z"/><path d="M282.05,85.16a1.79,1.79,0,0,1-1,1.5c-.23-.7-.42-1.58.12-2.08s1.62.5,1,.84Z"/><path d="M132,156.16c-.61.09-.73-1-.2-1.29a2,2,0,0,1,1.76.17,1,1,0,0,1-1.52.86Z"/><path d="M405.53,156.45l2.71,1a1.89,1.89,0,0,1-2.94-.81Z"/><path d="M303.68,273.35A1.38,1.38,0,0,1,301.8,272a1.32,1.32,0,0,1,1.85,1.28Z"/><path d="M83.95,159.39c-.33.55-1.3,0-1.29-.6a2.26,2.26,0,0,1,1-1.55,3.35,3.35,0,0,1,.23,2.17Z"/><path d="M22.09,184.17l-1.25-1.26c.66-.3,1.52-.49,2,0s-.29,1.65-.78,1.12Z"/><path d="M343,92.42c-.61.09-.73-1-.2-1.29a2,2,0,0,1,1.76.17,1,1,0,0,1-1.52.86Z"/><path d="M48.68,93.18a2.38,2.38,0,0,1,2.41,0,1.4,1.4,0,0,1-2.52.08Z"/><path d="M13,284.7a.93.93,0,0,1-1.49.37,1.3,1.3,0,0,1,.73-1.35c.53-.16,1.13.58.72.95Z"/><path d="M423.07,62.88a1.87,1.87,0,0,1-.22,1.49c-.54-.35-1.15-.85-1.07-1.49s1.36-.62,1.15,0Z"/><path d="M386,266.48c-.31-.84,1.16-1.07,1.94-.65a1.14,1.14,0,0,1-1.91.63Z"/><path d="M90,133.73a.9.9,0,0,1-1.33.57,1.6,1.6,0,0,1-.24-1.62l1.52.94Z"/><path d="M216.61,2.58C216.13,1.39,218,.13,218.89,1a4.86,4.86,0,0,0-2.17,1.53Z"/><path d="M6.57,206.15a1.46,1.46,0,0,1,1,2.44l-.91-2.14Z"/><path d="M445.29,140.19a1.24,1.24,0,0,1-1.71.72l1-1.74,1,.9Z"/><path d="M367.3,132.21c.43.9-1.44,1.57-1.68.6a1.3,1.3,0,0,1,1.8-.66Z"/><path d="M498,69.13a.93.93,0,0,1,.37,1.49A1.3,1.3,0,0,1,497,69.9c-.16-.53.58-1.13.95-.72Z"/><path d="M231.57,245.17c-.55-.18-.07-1.15.51-1s.88.73,1.09,1.27a1,1,0,0,1-1.56-.28Z"/><path d="M225.07,59.79c-.31-.84,1.16-1.07,1.94-.65a1.14,1.14,0,0,1-1.91.63Z"/><path d="M27,303a1.73,1.73,0,0,1-2.4.72,1.87,1.87,0,0,1,2.51-.76Z"/><path d="M329.53,164.89a1.45,1.45,0,0,1-2.29.19,1.59,1.59,0,0,1,2.46-.15Z"/><path d="M430.86,152.24l2.14,1a2.44,2.44,0,0,1-1.69.41c-.57-.15-.94-1-.48-1.35Z"/><path d="M247.15,122.54l.64-2.47.81,1.6-1.2,1Z"/><path d="M277.55,83.37a.89.89,0,0,1-.76,1.38c-.86-.45.12-2.07.92-1.52Z"/><path d="M402.07,262.14c-1,.26-1.55-1.31-1-2.16a2.1,2.1,0,0,1,1,2.16Z"/><path d="M105.71,161.34a1,1,0,0,1,1.74.51,1.06,1.06,0,0,1-1.82-.57Z"/><path d="M286.33,297.43c-.31-.84,1.16-1.07,1.94-.65a1.14,1.14,0,0,1-1.91.63Z"/><path d="M447.34,110.53a1.17,1.17,0,0,1-2,.61c-.35-.8,1.1-1,1.89-.68Z"/><path d="M328.34,123.46a1,1,0,0,1-1.74-.52,1.06,1.06,0,0,1,1.83.57Z"/><path d="M169.64,232.22a1.24,1.24,0,0,1,.72,1.71l-1.74-1,.9-1Z"/><path d="M70.68,135c.2-.64,1.41-.34,1.29.32a.78.78,0,1,1-1.4-.41Z"/><path d="M86.36,296.21c-.06-1.05,1.56-1.1,2.54-.72a2.72,2.72,0,0,1-2.47.77Z"/><path d="M203.32,110.59a1,1,0,0,1-.84,1.47,1.1,1.1,0,0,1,1-1.68Z"/><path d="M89.85,295.3c.68-.24,1.71.19,1.51.89a1.09,1.09,0,0,1-1.66-1Z"/><path d="M65.94,234.85a1.2,1.2,0,0,1-1.64.75,2,2,0,0,1,.83-1.19c.44-.22,1.14.1,1,.59Z"/><path d="M242.56,72.79a.79.79,0,1,1-1.32-.58.68.68,0,0,1,1,.59Z"/><path d="M207.17,111.14c-.32-.56.81-1.12,1.07-.53.52.7-1.16,1.4-1.29.54Z"/><path d="M405.19,161.26c-.27-.38.25-.92.72-.85a1.83,1.83,0,0,1,1.07.87,1.54,1.54,0,0,1-1.86,0Z"/><path d="M408.84,296.87c.45-.13.56.74.12.92a1.44,1.44,0,0,1-1.3-.37c-.36-.55.73-1.08,1.16-.59Z"/><path d="M400.87,70.92c-.32-.56.81-1.12,1.07-.53.52.7-1.16,1.4-1.29.54Z"/><path d="M400.95,285.72c-.18.81-1.72.12-1.29-.6s1.76,0,1.45.81Z"/><path d="M32.13,76.47c.36.31-.36.87-.71.56a1.19,1.19,0,0,1-.1-1.33,2.17,2.17,0,0,0,.29-1.36,2.42,2.42,0,0,1,.33,2.14Z"/><path d="M117.15,142.32a1.23,1.23,0,0,1-.78-1.61,1.72,1.72,0,0,1,1.3.59c.26.42-.17,1.14-.6.9Z"/><path d="M230.21,75.75l-1.38-1c.39-.9,2.11,0,1.59.84Z"/><path d="M55.81,263a2,2,0,0,1-1.54-.22c.3-.43.68-.91,1.21-.9s.79.94.27,1Z"/><path d="M282.28,92.89a1.37,1.37,0,0,1,.12,1.72c-.92,0-1-1.71-.13-1.85Z"/><path d="M31.91,34.4l.31-2.78a2.58,2.58,0,0,1,0,3Z"/><path d="M32.94,280.43c.28-.37.88.26.64.65s-.78.45-1.24.46c-.54-.3,0-1.34.56-1.07Z"/><path d="M423.1,140.87c-.1.55-1.09.11-1-.44s.76-.78,1.3-.93a.82.82,0,0,1-.41,1.28Z"/><path d="M236.83,5.32c.18.62-.84,1.13-1.23.61,0-.46.07-1,.47-1.23s1,.38.63.64Z"/><path d="M40.24,199.28a.75.75,0,0,1-1.25.43c.15-.55.39-1.2.94-1.32s1,.91.39,1Z"/><path d="M291.45,187.89a.79.79,0,1,1-1.32-.58.68.68,0,0,1,1,.59Z"/><path d="M90.43,206.79a1.3,1.3,0,0,1,.65-1.8,1,1,0,0,1-.62,1.76Z"/><path d="M171.53,183.86c-.12-.84,1.1-1.61,1.6-.93a1,1,0,0,1-1.53.82Z"/><path d="M34.47,294.35c-.1.55-1.09.1-1-.44s.76-.78,1.3-.93a.82.82,0,0,1-.41,1.28Z"/><path d="M10.63,70,8.15,71.22a2.66,2.66,0,0,1-.88-2.79,13.55,13.55,0,0,1,5.64,1.06,2.3,2.3,0,0,1-2.25.44Z"/><path d="M9.72,75.8a.94.94,0,0,1-.32-1.53c.58.21,1.24.52,1.33,1.13s-1,1-1.08.38Z"/><path d="M7.21,72.16A2,2,0,0,1,7,73.69c-.43-.3-.91-.69-.9-1.21s.95-.79,1-.26Z"/><path d="M8.4,187.21l-2.79,3.5a15.22,15.22,0,0,1,1.08-6.29,3.24,3.24,0,0,1,1.84,2.82Z"/><path d="M6.31,178.1c1.21.35,1.06,2.1.64,3.29a2.38,2.38,0,0,1-.66-3.11Z"/><path d="M119.64,33.27c.71,1.83-2,3-3.95,3.08q-18.38.93-36.79.58c-1,0-2.29-1.17-1.4-1.59l27.33-.53a22,22,0,0,0,7.22-.95A10.25,10.25,0,0,0,119.64,33.27Z"/><path d="M79.3,48.92a2.3,2.3,0,0,1,3.43.33,4.45,4.45,0,0,1-3.55,0Z"/><path d="M138,38c.53,1.08-1.31,2.26-2.07,1.33-.06-.92,1.12-1.76,1.85-1.19Z"/><path d="M122,32.89a1.92,1.92,0,0,1,1.59.27l-.18,2.12a2.39,2.39,0,0,1-1.58-2.43Z"/><path d="M67.95,45.61a1.54,1.54,0,0,1,2.48.52A1.66,1.66,0,0,1,68,45.53Z"/><path d="M76.17,46.38a2.12,2.12,0,0,1-2.69-.24,2.85,2.85,0,0,1,2.93.09Z"/><path d="M62,123.25c1.13-.17,2.65.09,2.82,1.22A4.92,4.92,0,0,1,60,122.81c-.35-1.9.21-4.62,2.14-4.53l-.82,4.82Z"/><path d="M61.08,114.77a4.28,4.28,0,0,0,3.55-2.11l1.51,2.84a3.37,3.37,0,0,1-5-.7Z"/><path d="M35,121.29l-4.24-1.56A8.5,8.5,0,0,1,36,118.9a1.49,1.49,0,0,1-1,2Z"/><path d="M53,122.78l2.2-2.24a2.76,2.76,0,0,1-.56,2.95c-.82.67-2.44,0-2.22-1Z"/><path d="M62.49,113.2a2,2,0,0,1-3.16-.94c.86.26,1.73-.38,2.62-.4s1.51,1.58.61,1.58Z"/><path d="M57.66,123.88c.68-.19,1.75.18,1.48.84a1.81,1.81,0,0,1-1.64.41c-.54-.24-.39-1.32.18-1.16Z"/><path d="M52.14,120.21c-.65.16-.72-1.1-.08-1.27s1.24.39,1.59,1l-1.54.3Z"/><path d="M65.68,119.58a.89.89,0,0,1,.06,1.63c-.91-.07-.94-1.73,0-1.83Z"/><path d="M236.29,193.46,234,191.58c-.58-.81.81-1.65,1.78-1.45s2.13.68,2.83,0,1-2.4,1.81-1.87a33.86,33.86,0,0,1-8.57,14.51C232.28,199.3,234.31,196.31,236.29,193.46Z"/><path d="M225.15,210.73a12.64,12.64,0,0,1,8.56.92,3.39,3.39,0,0,1,1.93,1.88Z"/><path d="M227.76,194.37a10.5,10.5,0,0,1-1.72,4.51,10.48,10.48,0,0,0-.45-2.82,2.64,2.64,0,0,1,.7-2.63c.77-.57,2.2.1,1.92,1Z"/><path d="M218.79,173.62a1.23,1.23,0,0,1-1.77.65l1.55-2.8c1-.27,1.06,1.5.32,2.2Z"/><path d="M250.19,202.25c1.46.58.72,3.22-.85,3.25a13.18,13.18,0,0,1,.83-3.06Z"/><path d="M251.08,197.81c-.62.56-1.71-.58-1.13-1.17a.87.87,0,1,1,1.1,1.15Z"/><path d="M331.35,280.12a26.16,26.16,0,0,1,.13-11.55A9.35,9.35,0,0,1,331.35,280.12Z"/><path d="M333.55,248.44a4.66,4.66,0,0,1,1.31-5.43,11.46,11.46,0,0,1-.68,7.68c-.88,0-1-1.28-.71-2.12Z"/><path d="M238.11,156.32a4.17,4.17,0,0,1,1.56-2.82,6.27,6.27,0,0,1-3.19,6.34,9.13,9.13,0,0,1,1.62-3.5Z"/><path d="M236.21,169.94l-1.31-1.3c1.12-1.3,3.72.34,3,1.91a1.05,1.05,0,0,1-1.6-.65Z"/><path d="M88.6,74.28c.78,0,1.57.74,1.36,1.49-.81,1.61-3.87.61-3.58-1.17a3.77,3.77,0,0,1,2.22-.26Z"/><path d="M88.43,71.64l-2.32,2a1.06,1.06,0,0,1-.7-1.36,3.79,3.79,0,0,1,1.92-1.57c.82-.2,1.86.47,1.67,1.3Z"/><path d="M80.95,78.94a1.62,1.62,0,0,1,1.47-2.11,1.61,1.61,0,0,1-1.58,2.32Z"/><path d="M80.9,74.7A1.38,1.38,0,0,1,79,73.36a1.31,1.31,0,0,1,1.85,1.28Z"/><path d="M77.45,78c.82-.31,1.11,1.12.68,1.88-.83.3-1.13-1.13-.72-1.91Z"/><path d="M102.11,75.85a2.21,2.21,0,1,1-4.42.08A3.06,3.06,0,0,1,102,75.8Z"/><path d="M106.83,75.21a1.3,1.3,0,0,1,1.8.65,1,1,0,0,1-1.76-.62Z"/><path d="M252.93,138.65a4.65,4.65,0,0,1-1-5.9,8.1,8.1,0,0,1,.86,5.91Z"/><path d="M252.9,138.72a2.74,2.74,0,0,1,1.9,2.77,2.62,2.62,0,0,1-2.63,0l.55-2.81Z"/><path d="M257.64,138.67a1.41,1.41,0,0,1-1.43,1.89,1.32,1.32,0,0,1,1.34-1.63Z"/><path d="M262.56,178.6a19.25,19.25,0,0,1-10.28,5A13.5,13.5,0,0,1,262.56,178.6Z"/><path d="M302.21,158.62a22,22,0,0,1,6.17-8.58c.44-.37,1-.75,1.56-.55C308,153,305.78,156.72,302.21,158.62Z"/><path d="M310,157.6a1.16,1.16,0,0,1,1.69-.66c.41.94-1.48,1.61-1.75.62Z"/><path d="M252.17,156a13.17,13.17,0,0,1-1.36,6,2.55,2.55,0,0,1-1.35,1.44C248.46,160.89,250.38,158.16,252.17,156Z"/><path d="M312.44,257.86l3.92,1.67a1.82,1.82,0,0,1-.34,1.91,5.57,5.57,0,0,1-3.94-3.22Z"/><path d="M90.11,102.48a4,4,0,0,1-1.58,2.81q0-2.08,0-4.15a1.27,1.27,0,0,1,1.61,1.38Z"/><path d="M85.83,101.86V99.38a2,2,0,0,1,1.8-.19A16.52,16.52,0,0,1,86,102Z"/><path d="M311.11,192.14a.93.93,0,0,1-.37-1.49,1.3,1.3,0,0,1,1.35.73c.16.53-.58,1.13-.95.72Z"/><path d="M160.16,166.71l-.76-1.06a2.76,2.76,0,0,1,1.64-1,1.23,1.23,0,0,1-.67,1.77Z"/><path d="M442.9,255.15l3.55-.19a1.7,1.7,0,1,1-3.36.36Z"/><path d="M287.54,259.29a11.26,11.26,0,0,1-11.05-6.43,16,16,0,0,0,9.77,4.36l2.44-9.07a43.81,43.81,0,0,0,42.94-8.2l-6.11-2.63a15.11,15.11,0,0,0,8.22-28.95c.46,3.78-5.49,3.48-9.27,4-5.74.75-9.21,8.43-6,13.23l-6.11,2.36a28.62,28.62,0,0,1,20.7,5.43c-5.53,3.66-12.83,2-19.46,2.33s-14.47,5.69-12.24,11.94c-5.4-3.24-12.19-.32-18.18,1.62s-14.37,1.74-16.49-4.19c3.33,2.23,7,4.55,11,4.27s7.82-4.61,6-8.18a7.7,7.7,0,0,1-4.92-2.49c-5.31,6.27-16.14,6.66-21.9.81a13.87,13.87,0,0,0,17.3-1.32l-7-4.27c-12,6.56-28.49,3.54-37.43-6.87l6.46-3.54a86.7,86.7,0,0,0-45.86,1.43c26.76,7,57.15,17.13,67.33,42.87-14.23-24.61-44.86-33.39-72.49-40l-39.29-9.44,1.83,4.77A271.58,271.58,0,0,0,85.56,214a87.21,87.21,0,0,1,1.51-35.69l-.41,14.57L89.29,184a52.84,52.84,0,0,1-2.47,25.57L131.36,213a57.25,57.25,0,0,1,4.83-14.33,8,8,0,0,1-2.72,10c3.3,4,11,1.9,11.93-3.19-4.26,4.81,2.76,12.36,9.18,12s11.91-4.73,18.16-6.25L171.38,218a7.05,7.05,0,0,0,7.89-2,12.7,12.7,0,0,0,24.13-6.76c1.88,0,.82,3.53-1,3.22s-2.74-2.4-3.32-4.19-1.54-3.87-3.41-4.08c5.13.06,10.6,0,14.88-2.8s6.31-9.58,2.62-13.14a9.54,9.54,0,0,1-9.21-3.78,8.06,8.06,0,0,0,9.14-5.72c-1.77,2.34-5.15-1.23-5.22-4.17s-.15-7-3.06-7.41c-1.92-.28-3.42,1.49-5,2.63s-4.53,1.15-4.71-.78a11.62,11.62,0,0,0-4.86,8.34A20.31,20.31,0,0,0,206,178.83a21.1,21.1,0,0,1-14.09,13c1.91,1.67,4.38-2.41,2.6-4.23s-4.75-1.38-7.23-.81a6.08,6.08,0,0,0,.84-7.62l-7,8.69c4.65-3.81-.49-12.19-6.5-12.18s-10.81,4.84-14.61,9.49l2.14-9.52c-5.37-1.1-11.79-1.33-15.4,2.79s.68,12.75,5.56,10.26c-3.55,2.82-9.21-.43-10.44-4.79s.49-8.95,2.18-13.15l-14.93-9.46,7.12-4a28.87,28.87,0,0,0,9.36,8,8.68,8.68,0,0,0-3-6.13L153,161.23l-3.65-6,7.94,6.42-.11-6.36c5.46-2.08,12.14,3.49,11.08,9.23a21.46,21.46,0,0,0-2.54-18.68l1.15,9a8.87,8.87,0,0,0-9.69-4.5l5.35-4.29-60-1.86,50.55-.95c1.72,0,3.6-.12,4.89-1.25,2.38-2.07,1.27-5.88,1.64-9s5.63-5.4,6-2.27a7,7,0,1,0,6.93,11.9l7.27-9.67a9.5,9.5,0,0,0-8.76,7.43c-2.88-5.47-4.08-14.68,2-15.6l3.34,7.07a14.64,14.64,0,0,0-7.48-16.8,8.49,8.49,0,0,1-5.51,6.95,19.13,19.13,0,0,1,.64-10.79l-7.42,10.55c-2.75-2.53-5.7-5.16-9.37-5.9s-8.16,1.3-8.66,5l-1.55-9.26c-2.54-.86-1.43,3.82-1.71,6.49-.44,4.15-7,3.65-10,.81s-5.86-7.07-10-6.74c-1,3.06,3.22,6.21,5.89,4.43.59,2.08-2.24,3.33-4.38,3.62l-31.33,4.28a11.59,11.59,0,0,1-4.46,11.52,15.83,15.83,0,0,0,11.45,8.41l-9.67,4.12-2.06-9.84-2.05,6.39a43.07,43.07,0,0,0-7.27-22.05,38.49,38.49,0,0,1-14.34,13.5l-6.31-7.34-3.14,6a9.86,9.86,0,0,1-7-4,28,28,0,0,0-2.66,16.29A9.4,9.4,0,0,1,31.39,139a17,17,0,0,0-17.48,3l6.25-.49,1.16,9.18L13,146.37A6.81,6.81,0,0,1,8.29,154,6.81,6.81,0,0,1,.37,149.8c2.21,1,4.72,2,7.05,1.25s3.78-4.1,2-5.74c2.43,3-4.08,5-7.66,3.47Q-.56,104.67.6,60.48a14.49,14.49,0,0,1,12.84,7.67L1.84,63A172.44,172.44,0,0,1,11.9,108.19a69.2,69.2,0,0,1,5.78-43A62.58,62.58,0,0,0,.36,55.75L.49.7a181.34,181.34,0,0,1,27.35.85L28,61.68c0,7.07,0,14.23-1.73,21.08a42,42,0,0,1-10.62,18.82L38.05,100,18.16,98.08a63.92,63.92,0,0,1,52,6.11,7.33,7.33,0,0,0,1.43-6c-.84-2-2.14-4.32-4.3-4.36s-2.47,4.33-.39,3.69a92.91,92.91,0,0,0-41-8.16l42.47,2.34c-10.9-13.57-1-34.29-6.45-50.82a383.6,383.6,0,0,1-2,44.23L57.33,61.9c1.88,5.49,3.75,11.61,1.43,16.93S47.8,86.46,45,81.39L45.33.66h17.2l.61,27.21a139.93,139.93,0,0,0,1-27l95-.19a18.35,18.35,0,0,1-2.21,10.81,14.63,14.63,0,0,0,15.44,4.69l-13.83-5.48c2.42,1.17,5.07,2.37,7.7,1.8s4.72-3.86,3.12-6a19.82,19.82,0,0,0,16.79-.77,15.72,15.72,0,0,1-12.84-2L177.17,0l35.62,7.59-5.5-1.48-3.72,5.54-4.4-5.81c-1.78,2.2-.52,5.75,1.84,7.3s5.38,1.63,8.2,1.53a94.76,94.76,0,0,0,38.69-9.81l-6,5.55,17.21.28c2.06,0,4.42-.06,5.72-1.66s-.25-4.81-2.1-3.93A370.28,370.28,0,0,0,337.92.17c-1.17,2.57-4.92,1.73-7.74,2s-4.39,5.45-1.61,5l14.44-6c1.61-.67,3.58-1.31,5-.29s.24,4.08-1.26,3.18L372,0c-21.74,6.53-45.18,13.06-66.72,5.89,2.12,1.47-.9,4.41-3.4,5.06a353.36,353.36,0,0,1-62,10.22c62.46.73,123.59-24.38,185.9-19.92C345.08,20.85,262.17,29.43,179.55,38c71.54-4.53,143.08-11.84,213.17-26.86,29.88-6.41,60.39-14.26,90.61-9.71C412,23.09,337.65,33,263.7,42.76A1222,1222,0,0,0,499,1.09C414.6,31.6,322.91,34.13,235.38,54c-12.55,2.85-27.16,8.11-30.15,20.62a18.21,18.21,0,0,0,6.13,18l-11.41-.89-1.45-9c-1.25,2.75-5.56,2.63-7.69.48s-2.64-5.37-3-8.36l-5,37.4a13.45,13.45,0,0,1,14.5,4,12.34,12.34,0,0,0-11,8.3l-1-5.51a22,22,0,0,1-9.1,2.7L178.9,127l3.22-5.23-.79,20.83c1.91-1.67-1.22-5-3.56-4s-3.16,3.85-3.51,6.37a54.31,54.31,0,0,0,.68,18.77,7.65,7.65,0,0,0,6.71.12c-4.29.27-7.56-5.47-5.14-9l6.23-1c-.67,3.62-1.33,7.41-.24,10.92s4.54,6.59,8.16,5.94a10.06,10.06,0,0,1,5.73-11.39c-3.37,1.26-3.59,6.95-.33,8.47a5.5,5.5,0,0,1,4.18-7.19l-6.18-9.52L186.47,169a23.63,23.63,0,0,1,1.36-14.08,21.27,21.27,0,0,1-5.65-7.69,59.13,59.13,0,0,1,33.4-4.68l3.36-14.93L221,143l9.54-4.94a7.81,7.81,0,0,0,7.69,5.86,16.66,16.66,0,0,1-6.56-13.45,15.74,15.74,0,0,1,15.78-7.93c.11,2.89-.64,6.25-3.25,7.5s-6.36-2.13-4.46-4.31A10.19,10.19,0,0,0,243,136a7,7,0,0,1,7.6-5.47c-4.49,6.71,4,17.14,11.51,14.06-1.92-2.75,1.1-7.22,4.37-6.46A4.82,4.82,0,0,1,263,131.4l-6.18,3.88a16.49,16.49,0,0,1-2.16-18l-24.26,3.24-3.16-12.95,3.69-5.87a5.72,5.72,0,0,1-1,8.36l6.27-1.94c-1,3.72,3.39,7.61,7,6.24,2.19-2.2-1.85-5.44-4.93-5,2.07-3.11,7.18-6.13,8.68-2.7A19.9,19.9,0,0,1,243.26,90a7.64,7.64,0,0,1,3.12,8c-.41-2-.73-4.32.65-5.82s4.76-.15,3.88,1.69l2-9.06-8,4.61,4.82-12.18a17.53,17.53,0,0,1,2.51,21.1c-1.15,3.2,6.16,3.21,5,0a13.29,13.29,0,0,1-4.43,10.61A31.33,31.33,0,0,1,272.17,128l4.55-6.85a10.88,10.88,0,0,1,6.74,10.3l-5.19,3-11.61-8c-1.8-1.24-3.89-2.55-6-2.06s-3.23,3.94-1.23,4.82l14.87,2.45-13,19.74c.56-3.36-6.08-2.7-6.19.71s3.39,5.72,6.55,7l.59,8.92c-1.57-1,.29-3.78,2.15-3.45s3,2.19,3.86,3.86l8.4-11.58-7.07,15.92c-.71,11.35,11.73,21.42,22.69,18.37-1.28-1.44-3.35,1.63-2,3s3.59,1,5.49.76,4.33-.05,5.05,1.73-3,3.18-2.88,1.26a44.48,44.48,0,0,1,16.3,2.83l-7.8,2.61,17.34,0a12,12,0,0,1-6.38-9.79l-.76,7.25a57.94,57.94,0,0,0-19.12-8.07l6-25.91a23.08,23.08,0,0,0-6.14,15.55L295,176.71a9.73,9.73,0,0,1-6.27,6.39c4.31-4.94,8.41-13.16,3.18-17.11-1.23,1.8,2.78,3.21,3.82,1.29s-.2-4.24-1.4-6.06l-9.81-14.83-4.58,5.84c-4.72-4.36-14,.56-13,6.91l-3.09-4.21c-3-6.62,5.26-13.25,12.51-13.48s14.51,2.81,21.63,1.42c2.5-.49,5.2-3.73,3-5l11.42,5.56-2.77-12.64c8.14-1.49,16.7,5.81,16.52,14.08a35,35,0,0,0,2.34-14.58,10.18,10.18,0,0,0,11.82-2.92c-6.1,2.43-12.42-7.1-7.8-11.77a4.45,4.45,0,0,1,4.56,5.56c.2-1.75-3-1.86-3.64-.23s.34,3.43,1.29,4.91a3.76,3.76,0,0,0,4.76-4.11l6,8.93c-5.46-1.73-10.53,3.37-13.77,8.09-4.78,7-9.15,15.33-7.1,23.53s13.91,13.47,19.27,6.93l1.43-25,51.77.45c3.74,0,8-.18,10.38-3.08,2.06-2.54,3.9-7.3,6.75-5.67-4.73,2-1.3,10.18,3.82,10.36s9.15-4.1,12.45-8a7.22,7.22,0,0,0-1,6.55l35.67-.63c3.44.29,3.7-5,2.55-8.26L460.55,116c4.22-1.23,8.38,4.64,5.83,8.21a10.24,10.24,0,0,1,2.45,20l19.79.91.86,40.22,9.18,3.1q0,6.15,0,12.3a80.89,80.89,0,0,1-34.41-4.7,90.89,90.89,0,0,0,33,1.16l-18-1.4.09-41.18c0-2,0-4.19-1.22-5.82-1.8-2.49-5.38-2.69-8.46-2.65l-53,.74a12.48,12.48,0,0,1,6.18,5.3c-1.69-2.88-7-1.83-7.53,1.47l-.92-7.18a13,13,0,0,0-15.94,5.56c1.09-3.67-4.45-5.33-8.26-5l-42.31,3.17c-2.26.45-1,4.27,1.25,4.8s4.71-.4,6.86.42,2.25,5.08,0,4.61a6.17,6.17,0,0,0-7.79-1.79l-1.54,18.34A506.15,506.15,0,0,1,415,185.3a514.67,514.67,0,0,0-65.9-5.21l60,5.18c3.91.34,8,.73,11.28,2.88,4.38,2.87,8.58,8.89,13.25,6.53l-11.27,13.83-9.67-4.19,5.28-4a28.37,28.37,0,0,0-20.38,15.23c-3.54,7.22-3.8,15.58-6.15,23.27a44.18,44.18,0,0,1-8.54,15.61,276.44,276.44,0,0,0-39-17.16,89.64,89.64,0,0,0,2.41,26.62c7.41-2.61,12.29,7.28,17,13.59,4.15,5.61,11.11,9.44,18,8.58s13.13-7.18,12.66-14.15a21.65,21.65,0,0,1-12.44,16.41l6.25,4.07a21.87,21.87,0,0,1-15.26,5.16l-.51,8.47a31.26,31.26,0,0,1-30.13-.7l5.81,3.55-28.85,1.77-1.13-6.18a3.61,3.61,0,0,1-4.91,2.89,32,32,0,0,1,5-19.89L314.84,277a13.32,13.32,0,0,1-15.47,1.89A31.72,31.72,0,0,1,314.51,276l.43-5.88a37.18,37.18,0,0,0-22,1.73,15.16,15.16,0,0,1-5.44-12.6M251.12,16.69a1.89,1.89,0,0,0-2.63-.1,5.12,5.12,0,0,0,7.11-1.37l-4.53,1.55M185.47,80.17c0-1.6-2.61-1.92-3.64-.7s-.91,3-.73,4.61l.7,6.33c.52.26,1-.37,1.18-.93.46-1.73-.16-3.54-.22-5.33s.92-3.94,2.7-4m-54.15,30.25a10.54,10.54,0,0,1-3.09-2.7,6.5,6.5,0,0,0-1.37,8.18,2.77,2.77,0,0,0,.24-4.53c.3-1,1.76-.1,2.68.45a2.81,2.81,0,0,0,4-2.52l-1.11-2.68c-.56-.65-1.55.42-1.45,1.28s.57,1.81.07,2.51m259,111c-3.88,1.59-8.1-.85-12.13-2-1.19-.35-3.11.12-2.7,1.29l6,2.68c2.66,1.19,5.74.49,8.56-.22l.27-1.73M148.57,88.31l-3.06-10.7c-.31-1.08-1.32-2.43-2.22-1.77a47.88,47.88,0,0,1,2.5,12.64,26.51,26.51,0,0,1-7-8.71c-1.71-3.41-3.29-7.74-7-8.45l1.68,6.35c.26,1,.79,2.22,1.83,2.22,2.73,0,4.58,3.74,2.92,5.9a6.22,6.22,0,0,0-1.52-3.29c-.91-.83-2.59-.9-3.2.16l4.31,3.05a7.87,7.87,0,0,0,1.22,3.5,2.7,2.7,0,0,0,3.3,1A3.61,3.61,0,0,1,141,88.26c-.1-.77.56-1.66,1.31-1.47a26.06,26.06,0,0,0,3.71,5.64l0-3.87a8.49,8.49,0,0,1,2.36,4.72l1.67.26-1.5-5.23m22.06-46.8-41.37,1.44c.16-1.61-1.46-3-3.08-3.11a9.32,9.32,0,0,0-4.64,1.22,15.94,15.94,0,0,0,7.55,1.57l.38,2.34,53.27-2.27c1.51-.06,3.22-.23,4.12-1.45a30.46,30.46,0,0,0-12.84.45,18.15,18.15,0,0,0-3.39-.2M360.56,233.32c-3.22-.06-6,4.31-8.84,2.8.69-1.45,2.44-2,3.93-2.54s3.12-1.79,2.88-3.38L351,235.5c-.45.31-1,.83-.71,1.32a1.15,1.15,0,0,0,.51.43c3.45,1.89,7.14,3.61,11.07,3.76s8.17-1.6,9.92-5.12c-1.36-2.28-4.85-1-7.45-1.51-1.28-.26-2.46-1-3.76-1.05m-58.73,20.14-2.38.79c-.82.7.56,2,1.59,1.69s1.74-1.31,2.74-1.7a2.59,2.59,0,0,1,2.29,4.62,18,18,0,0,1,9.3,5.17,8.45,8.45,0,0,0-4.58,2.46l5.36.53a37.94,37.94,0,0,1,.73,12.24c2-8.66,1.67-17.66,1.31-26.54a2.13,2.13,0,0,0-.77,3.69,5.79,5.79,0,0,1-3.62.45,3.17,3.17,0,0,0-2.71-2.95,16.94,16.94,0,0,0,1.3,4.19l-3-.7a4.75,4.75,0,0,0-7.1-5.15.83.83,0,0,0-.48,1.21M116.65,76.95a3,3,0,0,1-2.46,3.14c2.15,1.15,5.09-1.55,4.13-3.79-.8-1.85.87-3.77,2.39-5.09-1.34-.69-2.39-1.83-3.68-2.62s-3-1.15-4.24-.24-.81,3.36.7,3.37a4.58,4.58,0,0,0,1-3,3.19,3.19,0,0,1-1.2,6.09,3.18,3.18,0,0,1-.23-2.13,32.54,32.54,0,0,0-5.94-.2,5.1,5.1,0,0,1-2.6,3.16,4.61,4.61,0,0,1-.34-3.35c-.25-1.32-2.06-1.74-3.29-1.19s-2.08,1.67-3.13,2.5-2.61,1.37-3.7.58a12,12,0,0,0,.51,4.75c.75,1.16,2.4,1.17,3.73,1.57s2.55,2.19,1.44,3L94.4,81.16a9,9,0,0,1-3.16,9.89c-.71.52-.27,1.62.16,2.39a14.09,14.09,0,0,1,1.75,7.85c-.14,2-.68,4,0,5.81s3.54,2.85,4.6,1.2a2.31,2.31,0,0,1,1,2.51,1.76,1.76,0,1,0-.73-3.32c-1.49.79-3.28-1-3.25-2.67s1.15-3.13,2.09-4.55,1.76-3.16,1.15-4.74l-1.71-.06.1,3.13a26.69,26.69,0,0,1-3.77-7.08,21.86,21.86,0,0,1,14.23,10.74,6.31,6.31,0,0,0,1.23-4.14l-2.5-.61,0-2.4a37.32,37.32,0,0,0-6-2.51,8.61,8.61,0,0,1,.52-3.73,11.77,11.77,0,0,0-3.76,1.23,2.16,2.16,0,0,1,1.18,2.25,5.65,5.65,0,0,1-3-3l3-2.42a3.3,3.3,0,0,1-1.36-1.9c.47-.26,1,.15,1.44.46,2.32,1.65,5.51.72,8.17-.26,1.66-.61,3.69-2.27,2.63-3.69a4.92,4.92,0,0,1-7.1-.92,9.53,9.53,0,0,0,9.59-4.49l5.7.78m124.5,73.5c-.88-.22-1.18-1.27-1.68-2-1.3-2-4.37-1.92-6.29-.56s-3,3.61-3.91,5.76a2.34,2.34,0,0,1-1.55-3.39c-1.41-1.24-3.32.81-4.06,2.54l-2.05,4.8c-.88,2-1.24,5.23.92,5.76,2.91.71,1.52,6.65,4.48,7.14a25.49,25.49,0,0,1,2.34-7.76l3.17-7.51c.87-2.05,2.13-4.41,4.35-4.63a41.37,41.37,0,0,0-3.57,8.39c-.87,3.33-.95,7-2.85,9.84a5.49,5.49,0,0,0-1.32,2.69c0,1,1.26,2,2,1.3,1.19-1.16,3.13-.64,4.76-.32s3.89-.13,4-1.79A27.73,27.73,0,0,1,253,149.45c-3.69,4.63-7.5,9.52-8.61,15.33-.44,2.31-.72,5.13-2.85,6.13-.59.28-.14,1.19.4,1.56a7.25,7.25,0,0,0,8.24-.23l-2.16-.47,2-4.87a6.22,6.22,0,0,0,4.17,5.16,16.35,16.35,0,0,1,.06-8.84,21,21,0,0,0-1.92-16.09,29.67,29.67,0,0,0-8.82,6.79,3.5,3.5,0,0,1,1.52-3.55c-.4-1.35-2.44.41-3.81.07m-215.85-16a13.53,13.53,0,0,1-7.58-1.26,19.48,19.48,0,0,0-1.85-14c1.92-1.21,4.27.5,6.28,1.56,5.4,2.86,11.94.93,18.05.66,3.44-.15,7.42.57,9.16,3.54a20.59,20.59,0,0,0,8.42,7.94l1.55-4.24a4.18,4.18,0,0,1,1.42,2.26c2.47.36,4.81-1.33,6.3-3.34s2.43-4.38,4-6.35a3.93,3.93,0,0,0,4.53-.47,11.52,11.52,0,0,0,2.8-4,2.89,2.89,0,0,0,.47-2c-.25-.93-1.31-1.34-2.24-1.6-13-3.6-26.63-3.39-40.08-3.15l-23.85.43a8.28,8.28,0,0,0,6.23,4,24.49,24.49,0,0,0,7.64-.45,24.14,24.14,0,0,0-9.69-.65c-.32-.78.88-1.25,1.72-1.25l19.56.07,15.79.06a5.57,5.57,0,0,1,3,.6,1.92,1.92,0,0,1,.67,2.69c-4.95-1.4-10.62,3.72-15,1a6.19,6.19,0,0,0-3.54-.58l-28.67,1c3,1,4.9,4,5.5,7s.09,6.23-.42,9.31c-.32,2,2.39,2.88,4.39,2.8s4.66.12,5.07,2.08a3.31,3.31,0,0,1,4.89-1.15,2.66,2.66,0,0,0-2.3-3.4,2.93,2.93,0,0,1,3-2.28,16.78,16.78,0,0,0,5.12,6.73,7.15,7.15,0,0,0-5-7c.51-1.17,2.26-1.27,3.29-.51a6.45,6.45,0,0,1,1.92,3.23A2.73,2.73,0,0,0,38,131.07a9,9,0,0,0-9-3l.89-1.64A11.26,11.26,0,0,1,39,128.82c1.88-1.35.79-5-1.53-5.09a47.78,47.78,0,0,0-13.79,1.46c-1.55.4-3.47,1.67-2.78,3.11.43.9,1.6,1.06,2.56,1.34s2,1.21,1.55,2.1a3.72,3.72,0,0,0-2.9-1.15,3.53,3.53,0,0,0,3.2,3.91M93.35,41.83a4.9,4.9,0,0,0,5.61-.6,10.55,10.55,0,0,1,11.74-1.5l-6.28,1.48c2.09,2.55,6.05.41,9-1.09A18.45,18.45,0,0,1,127,38.92c2.56.78,5,2.13,7.67,2.21s5.71-1.8,5.53-4.47a4.31,4.31,0,0,1-4.71-3.14,2.44,2.44,0,0,1-3.86,0,3.92,3.92,0,0,1-6.44,1.14,40.39,40.39,0,0,1,23.48-3.33,31.39,31.39,0,0,1-10.9,1.93l6.3,1.86a162.21,162.21,0,0,1,25.4-5.6c5.69-.78,11.42-1.26,17.14-1.74l37.66-3.15c5.92-.5,12.05-1,17.65,1-4.45-4.79-12-4.31-18.53-3.52A1154.89,1154.89,0,0,1,59.23,30.44c1.41.53,1.78,2.32,1.93,3.82s.45,3.28,1.83,3.89,3-1.81,1.58-2.31l5,2.58a4.11,4.11,0,0,1,5.12-2.33c-.55-1.15-2.36.61-1.6,1.63s2.27,1,3.55,1,2.88.54,3,1.81L67.33,40.4c.91,4-4.62,8.19-2.38,11.66a82.59,82.59,0,0,0,35.26-1.24c-2.86-3.36-8.1-2.86-12.44-2.05a3,3,0,0,1,3.6-1.89L91,41c-1.26,3.27-7.36,2-7.19-1.52a4.38,4.38,0,0,1,2.91,3.25l1.94-3.48,9.11.24-4.37,2.3M223.28,184a4.52,4.52,0,0,1,.57,2,36.5,36.5,0,0,1-.27,10.37,4.83,4.83,0,0,0,.19,3.36c1.78,2.86-.67,6.6,0,9.92.66,3.49,5.37,5.44,8.31,3.44.86,1.67-1.71,2.93-3.58,3.08a25.36,25.36,0,0,0,10.68,1.71,6,6,0,0,0-3.33-7.65c-1.08-.4-2.59-1.46-1.73-2.21,3.48.82,7.3-.94,10.64.32,1.82.69,3.22,2.18,5,3.06s4.28.85,5.17-.88a4.91,4.91,0,0,0,.36-2.33l-.09-8.28c0-2.07-.29-4.55-2.13-5.49-1.6-.82-3.5,0-5.29.19s-4.13-1.16-3.47-2.83c.8-2.06-1.1-4.38-3.27-4.83s-4.37.4-6.4,1.3-4.13,1.88-6.34,1.72a29.83,29.83,0,0,1,10.43-5.3,2.67,2.67,0,0,0-2.1-3.22,5.13,5.13,0,0,0-.95,2.83l-1.72.61a8.22,8.22,0,0,1,6.43-8.28c-1-2.47-4.67-2.71-6.76-1.08s-3,4.34-3.74,6.87-1.72,5.23-3.88,6.77c-.65-2.8,2-5.9.57-8.42-1.17-2.13-4.69-2.6-5-5-.22-1.61,1.24-3,1.24-4.66,0-2.76-4.32-3.56-6.29-1.63s-2.15,5-2.19,7.75l7.79,5.63a4.8,4.8,0,0,1,1.27,1.17m124.22,83a17.26,17.26,0,0,0-3.6,9.44,5.44,5.44,0,0,1-.69,3c-.63.83-2.18,1-2.58,0q.3-8.65.15-17.31l2.49,2.75-2.1-20a6.67,6.67,0,0,1-.43-10.14l1.64,1.19a5.71,5.71,0,0,0-.74-3.9L332,242.51c-2.34,2.55-4.74,5.21-5.83,8.5a24.64,24.64,0,0,0-.89,7.07l2.54-3,.46,18.25c.11,4.39.33,9.12,3,12.6a39.65,39.65,0,0,0,3.7-17.45,107.37,107.37,0,0,1,2.8-24.9c-.27,9.54.05,19.09.38,28.63l.28,8.19c1.11,0,.61,1.79-.1,2.64a12.42,12.42,0,0,0-2,12.18,22.35,22.35,0,0,0,3.45-13c1.9-.32,2.39,2.58,3.78,3.91a5.47,5.47,0,0,0,3.07,1.15,68.07,68.07,0,0,0,22.08-.39l-21.37-1.78A2.12,2.12,0,0,1,345,283c-.38-1.78-.73-3.75.17-5.33,1.34-2.39,4.66-2.61,7.39-2.32s5.85.66,7.86-1.2a105.06,105.06,0,0,0-15.11-1.26l4.17-3.25a5.35,5.35,0,0,0-2-2.58M83.89,92.57A31.53,31.53,0,0,0,91.38,75.9a13.18,13.18,0,0,0,0-4.3c-1-5-7.31-8-11.86-5.78-1.3.65-2.4-1.25-2.41-2.7s0-3.34-1.34-3.83a3.82,3.82,0,0,0-1.68,3.78,2.32,2.32,0,0,0-.2,4.61c2.39.32,3.19,3.4,3,5.81a4.78,4.78,0,0,1-1.1,3.2c-.83.81-2.46.82-3-.22A21.67,21.67,0,0,1,75.48,90.2a3.33,3.33,0,0,0-2.55,1.07c.17,1,1.52,1.32,2.4.87a4.8,4.8,0,0,0,1.82-2.27l2.09-4.13a3,3,0,0,1-1.83-4.51,12,12,0,0,1,4.91.51,4.1,4.1,0,0,1,2.77,3.74l-2.74-.76a12.4,12.4,0,0,0-.82,6.63l2.36,1.23m161.28,85.84,4.51,1.85a6.83,6.83,0,0,1-1.75,3.32c-1,.83-2.66.93-3.37-.12a3.38,3.38,0,0,0-4-1.18,3.1,3.1,0,0,0,1.91,3.33,9,9,0,0,0,4.1.52l8.76-.25a24.12,24.12,0,0,1,9.65,1.72,5.58,5.58,0,0,0,3.14.66c1.06-.23,1.92-1.58,1.23-2.42a12.82,12.82,0,0,1-2.58-10.44c.46-2.3-3-3.47-5.12-2.56s-3.94,2.83-6.27,3.08c1-1-.14-2.81-1.52-2.95s-2.63.76-3.72,1.61l-4.94,3.83m68-19.92c1.34-3.57-.16-7.52-1.65-11-.22-.51-.51-1.09-1.06-1.2a1.7,1.7,0,0,0-1,.23,32.15,32.15,0,0,0-10.37,7.8c-1.36,1.55-2.63,3.41-2.53,5.46s2.25,4,4.15,3.25l6.65-3.9c2.49,2.7-.36,7.2.79,10.69a2.28,2.28,0,0,0,1.36,1.56c1.17.35,2.2-.78,3-1.67s2.33-1.66,3.15-.75a3.78,3.78,0,0,1,2.09-4.13c.88-.39,1-1.59.94-2.56l-.39-9.83a11.17,11.17,0,0,0-.76-4.36,3.8,3.8,0,0,0-3.47-2.36,33.08,33.08,0,0,1,2.47,8.14c.62,3.68.57,7.62-1.09,11-1,2-2.93,3.88-5.14,3.57-1-1.48-.66-3.56.17-5.17s2.05-3,2.69-4.72m73.71,31.81a42.28,42.28,0,0,0,11.68-1.23c-.67,1.48,1,3.15,2.64,3.12s3-1.11,4.28-2.13l2.48,1.88a6.17,6.17,0,0,1,3-2.27c-.08-1-1.39-1.43-2.44-1.55l-53.57-6c-2.81-.32-5.76-.68-8.07-2.31s-3.7-5-2.25-7.38c-1.4.16-2.11,1.8-2.15,3.21s.33,2.85-.09,4.19-2.21,2.37-3.24,1.41c6.31,1.57,12.66,3.16,19.16,3.5,4.17.22,8.69,0,12.1,2.44a41.86,41.86,0,0,1,10.3.19l11.62,1.17-5.43,1.77M100,45.5A2.69,2.69,0,1,1,102,50,2.46,2.46,0,0,0,104,52.63c-.07-1.23,1.62-1.89,2.74-1.39a6.72,6.72,0,0,1,2.47,2.67,4,4,0,0,0,2.86,2.1c1.23,0,2.34-1.61,1.44-2.45A4.5,4.5,0,0,1,110,51.8l1-1.94a13.13,13.13,0,0,0,8.77.87,3.51,3.51,0,0,0,2.28-1.38c.46-.78.13-2-.77-2.19a2.45,2.45,0,0,1-1.95,1.2c.36-1.24-1.47-1.84-2.76-1.77a63.32,63.32,0,0,0-9.72,1.28,1.75,1.75,0,0,1,.8-2.22,5.1,5.1,0,0,1,2.53-.5,49.75,49.75,0,0,1,12.16.69,7.83,7.83,0,0,0,3.73.31c1.22-.33,2.25-1.72,1.68-2.85a7,7,0,0,1-7-1.69c-1.08-1.09-2.88-.2-4.24.51A14,14,0,0,1,103,41.57a14.86,14.86,0,0,1-9.59,2.18,5,5,0,0,0,1.68,3.45c-.19-1.42,2.15-1.57,3.28-.69s2.4,2.22,3.72,1.67A5.3,5.3,0,0,0,100,45.5M126.8,83.86a1.37,1.37,0,0,0,1.42.34,2,2,0,0,1,.17,1.84c-1.45-.51-3.07-1-4.48-.4s-2,2.91-.67,3.64a2.16,2.16,0,0,1,.62,2.71,19.15,19.15,0,0,1-1.68,2.54,6.32,6.32,0,0,0-.13,6.31,7.83,7.83,0,0,1-1.48,3.29,5.55,5.55,0,0,0,4,2.49c1.61.08,3.31-1.28,3.13-2.88a1.31,1.31,0,0,0-1.58-.84,1.27,1.27,0,1,1-2.12-.5,23.27,23.27,0,0,0,5.77-10,14.13,14.13,0,0,0-5.48,6.41,1.92,1.92,0,0,1-.78,1.08c-.41.2-1-.15-.9-.58a6.57,6.57,0,0,1,4-5.64,3.24,3.24,0,0,0-.35-2.71,4.14,4.14,0,0,1-.62-2.7c.24-.91,1.6-1.49,2.14-.72A2.29,2.29,0,0,0,130,90.42a4.72,4.72,0,0,0,1.09-4.93c-.71-1.87.07-3.92.45-5.88s.06-4.46-1.79-5.21L129,80.25c-2.07-1-2.47-3.78-2.44-6.09s.07-5-1.66-6.5c-.74-.35-1.11.91-1,1.71l2.83,14.49M114.64,58.53a8.91,8.91,0,0,1-4.07-.46,3.05,3.05,0,0,1-1.91-3.29c-4-.44-7.67,4.3-6.18,8.09H95.4a4.33,4.33,0,0,0-3.85-2.06c-1,0-1.43-1.35-1-2.21a6.16,6.16,0,0,1,2.23-1.85,2.6,2.6,0,0,0,1.43-2.37c-1.42,1.19-3.41,1.53-4.78,2.78s-1.33,4.19.52,4.33c2.14.16,3.79,2.15,4.27,4.25a15.31,15.31,0,0,1-.36,6.39,13,13,0,0,0,2.63-6.38c1.54.89,3.51.25,5.05-.65s3-2.05,4.81-2.2,3.81,1.4,3.31,3.11c1,.54,2.34-.59,2.24-1.74A2.73,2.73,0,0,0,109.59,62a7.14,7.14,0,0,1-2-.39c-.62-.32-1-1.26-.47-1.71a7.44,7.44,0,0,0,7.57-1.42M366.59,241.3l-1.22,1.78,7.39,4.68c3.66,2.32,8.43.57,12.37-1.21,1.18-.53,2.48-1.2,2.85-2.43a11.77,11.77,0,0,1-8.9-2.59c-1-.82-1.58-2.8-.32-3.06l-6.36,3.5a7.25,7.25,0,0,1-3.23,1.16,2.49,2.49,0,0,1-2.59-1.83m-107.91-13.8a2.58,2.58,0,0,0,.52,2.41,3.1,3.1,0,0,1-4-2.46L245,233.09a16.42,16.42,0,0,0,13.59,2.43,6.26,6.26,0,0,0,2.8-1.41c2.18-2.12.36-6.61-2.68-6.62M140.34,96.19a14.51,14.51,0,0,1-5-11,4.09,4.09,0,0,0-2.49-.26,19,19,0,0,0,2,7.18l-2.35-1.69-2.47,7.34c-.29.85-.37,2.11.49,2.33a23.28,23.28,0,0,1,10.19,5.74l-.52-2.8a2.09,2.09,0,0,0,2.42-2.17,6.39,6.39,0,0,1-4.13,1.22,2.93,2.93,0,0,1-2.65-2.94c.18-1.46,2.4-2.28,3.23-1.07l1.24-1.84M102.87,9.27l1.81.77A2,2,0,0,0,105,8.45l-1.59-1L96.27,13a2.82,2.82,0,0,0-1,1.17c-.48,1.36,1.19,2.92.46,4.16s-2.55.49-3.46-.52S90.35,15.48,89,15.65l.52,3.3-2.43.62c-.22,1,1.4,1.15,2.22.6s1.88-1.36,2.65-.74c1.57,1.26,3.76,1.29,5.78,1.25l11.91-.2c3.46-.06,7-.14,10.17-1.57l-10.94-.25a45,45,0,0,0-5.29.08c-2,.19-4.82.23-5.35-1.76A5.94,5.94,0,0,0,103,14.66c-.07-1.18-2-1-2.82-.21s-1.77,2-2.92,1.72l-.85-1.52a32.38,32.38,0,0,1,6.34-3.8,1.81,1.81,0,0,1,.08-1.57M86.79,92.14a19.33,19.33,0,0,1-3,7.83c-1.23,1.85.43,4.25,2.13,5.68,1.3,1.09,3.23,2.1,4.56,1.05.91-.71,1-2,1-3.19a30.51,30.51,0,0,0-1.6-9l-3.09-2.34M345,226.92c-1.56,1.65-1.05,4.3-.44,6.49.2.72.51,1.55,1.23,1.73a2.15,2.15,0,0,0,1.45-.34l6.67-3.4a2,2,0,0,0,.9-.7c.5-.86-.4-1.83-1.2-2.42-2.58-1.88-6.42-3.68-8.61-1.36m-113.15,1.74c3,1.14,6.14,2.29,9.37,2.22s6.64-1.66,7.91-4.63c-2.45-1.85-5.85-1.94-8.81-1.16s-5.66,2.34-8.47,3.56m63.47,40.61a4.1,4.1,0,0,0,1.24-1.86h5a4.15,4.15,0,0,1,1.33-1.9,2.87,2.87,0,0,0,4.53,1L304.94,264c.21-1.18,2-.95,3-.25s2.34,1.55,3.22.74.15-2.21-.86-2.65a9.31,9.31,0,0,0-3.27-.31c-1.1-.06-2.36-.53-2.64-1.6a3,3,0,0,0-4.1-1.76l-1,2.31a6.26,6.26,0,0,1,4.65,3.07A30.09,30.09,0,0,1,295.3,265a1.67,1.67,0,0,0,.35,2.27,1.11,1.11,0,0,0-.35,2M151.09,17.05a20.63,20.63,0,0,1-7.39-.61,2.12,2.12,0,0,1-3.33.71,2.12,2.12,0,0,1,.76-3.32c-2.1-.52-4,2.48-2.64,4.16l-17.1,1.07c4.48,1.19,9.2.88,13.82.57l12.23-.83c3.79-.26,8.24-.92,10-4.29l-2-.81-4.37,3.35M125.88,50.15a1.52,1.52,0,0,0,.62.25,28.74,28.74,0,0,0,14.71-.32A13.61,13.61,0,0,0,150.64,49c.49-1-.81-2.16-2-2.08a8.66,8.66,0,0,0-3.12,1.38c-1,.53-2.41.76-3.21-.07a2,2,0,0,0-3.26,1.08,4.27,4.27,0,0,0-5.45-.8,2.76,2.76,0,0,1-4.07-2,1.48,1.48,0,0,0-.4,1.56,1.65,1.65,0,0,1-2.16-.19c-.91.47-1.94,1.66-1.15,2.31M342,301.72l17.35,1.49a53,53,0,0,0,9.34.25c.84-.08,1.88-1.1,1.13-1.47l-25.11-2.09c-1.33-.11-3.29.62-2.71,1.81M314,189.83a1.67,1.67,0,0,0-.12-1.05c-.62-1-2.06.15-3.2.53-1.9.63-3.61-1.45-4.16-3.37s-.75-4.18-2.35-5.39a17.33,17.33,0,0,0,9.12,15.9l.7-6.61m-153.45-27a5.62,5.62,0,0,0-4.38,3.92,6.21,6.21,0,0,1-3.34,1.27l-.6,3.7a1,1,0,0,0,.16.91c.24.21.74-.13.52-.36a17.44,17.44,0,0,1,4-4c1.75-1.28,3.84,3.16,5.61,1.92a3,3,0,0,0-2.36-2.15,15.27,15.27,0,0,0,5.55-1l-5.12-4.11M86.86,108.27c-1.66.37-1.92,2.59-1.81,4.29l.49,7.8c.8,1.39,3,1.22,4.15.08a7.93,7.93,0,0,0,1.72-4.4c-.92-.75-1.87.89-2,2.07s-1.2,2.77-2,1.92a10,10,0,0,1,3.08-9.08l-3.65-2.67m97.38,113.5a56.51,56.51,0,0,0-8.94-1.83c-2.42-.3-4.63-1.49-6.94-2.26s-5-1.07-7.06.3a19,19,0,0,0,4.37,1.39l16,3.72c1.17.27,3-.24,2.53-1.32m100.19-6.92c6.61,5.32,16.4,5.08,23.14,10.24a1.78,1.78,0,0,0,2.59-.66,112.46,112.46,0,0,0-25.73-9.58m-80.57-143-5.49,3.94c.68-2.12.74-5.31-1.46-5.64a2.62,2.62,0,0,0-2.64,1.95,6.91,6.91,0,0,0,.1,3.53c2.43,2.4,7.07,2.16,8.93-.71a3.7,3.7,0,0,0,.56-3.07M301.3,237.42a12.52,12.52,0,0,0-6-4.57l-1.71.9,2.9,8.25,4.23-2.59c.42-.26.89-.59.92-1.08a1.48,1.48,0,0,0-.35-.91M189.72,13.31a7.09,7.09,0,0,1-6.54.48l-2.9,2.26a179,179,0,0,0,19.56-1.55A8.82,8.82,0,0,0,192.51,13,3.43,3.43,0,0,0,190,10.53l-.31,2.78M293.15,153.8a7.74,7.74,0,0,0,3.29,1l5-5.93a2.34,2.34,0,0,0,.77-1.76c-.17-1-1.73-1.3-2.57-.65a5.07,5.07,0,0,0-1.44,2.78,4.1,4.1,0,0,1-1.64,2.63,6.25,6.25,0,0,1,1-5.38l-2.22-1a61.54,61.54,0,0,1-2.16,8.31M174.08,13.09c-.86-1.23-3.26-.07-2.84,1.37l8.45.24c0-1.62,2.22-2.07,3.83-1.87s3.76.19,4.22-1.36c0-.73-1.09-.88-1.74-.54s-1.3.91-2,.74-1.08-1.18-1.42-1.95-1.38-1.47-1.93-.84a2.87,2.87,0,0,1-5.18,2.2l-1.37,2m171.76,280.7a5.51,5.51,0,0,1,7.19-.49l.15-2.83a8.06,8.06,0,0,1-5.34-1.2c-.16,1.39-1.48,2.29-2.56,3.19s-2.07,2.4-1.36,3.61c1.2,2.07,5.3.2,6.42,2.31l.06-4c-.34-.83-1.63-.44-2.23.22s-1.29,1.56-2.16,1.34a2.82,2.82,0,0,1-.18-2.14M134.4,158.49l-.77,2.06A22.51,22.51,0,0,0,144.51,169l.13-2.94a10.22,10.22,0,0,1-7.34-5.18c-.65-1.21-1.59-2.82-2.9-2.39M269.74,10.61c1.26,1.86,2.8,3.88,5,4.15,2.67.32,5.3-2.07,7.84-1.21a11.2,11.2,0,0,0-7.17-3.68l-.38,2-5.32-1.25M117.33,103.23a20.21,20.21,0,0,1-8.21-.66,3.53,3.53,0,0,0,.26,3.87c-.42-1.84,2.59-2.62,4.09-1.46s2.19,3.13,3.67,4.3,4.51.47,4.14-1.39a5.93,5.93,0,0,1-4-1,2.63,2.63,0,0,0,0-3.69M132.8,54.89l-4-2.88c-.7,1.36-2.65,1.16-4.17,1s-3.6.75-3.2,2.22a18.33,18.33,0,0,0-3.62-2.17c-1.06,1.67,1.1,3.8,3.07,3.69s3.63-1.45,5.41-2.3a4.27,4.27,0,0,1,5.81,3.69,3.19,3.19,0,0,0,.66-3.29M73.28,104.5a5.86,5.86,0,0,0,.51,5.68,11.73,11.73,0,0,1,6.29.84c1.2.38,2.31-1.16,2-2.38A4.65,4.65,0,0,0,79.52,106a8.14,8.14,0,0,1-3-2.19,11.39,11.39,0,0,0-1.19-1.89c-.54-.52-1.61-.61-1.91.07a9.65,9.65,0,0,0,4.46,4.6c1.22.6,2.87,1.57,2.34,2.82a5.22,5.22,0,0,1-5.85-2.51c-.41-.77-.61-1.64-1-2.4m45.63-13.42c-.85-1.64-1.81-3.38-3.46-4.2s-4.16-.08-4.41,1.75a11.85,11.85,0,0,1,4.76,1,4,4,0,0,1,2.29,4,23.15,23.15,0,0,0-.73,2.5c-.05.87.79,1.88,1.56,1.47l1.9-5.31a3,3,0,0,0,.08-2.71,2.94,2.94,0,0,1-2,1.47M327.59,206.23l-2.87,0-8.54.1a15.93,15.93,0,0,0,16.46-.2l-5,.06M150.77,14.61l2-2.46a4.91,4.91,0,0,0-2.54-.4,3.2,3.2,0,0,1,4.35-1.86c.91-.11.77-1.66-.07-2a5,5,0,0,0-2.72,0c-.91.11-2.07-.18-2.26-1.08-.16-.72.4-1.37.66-2.06s-.19-1.77-.88-1.51l-1.93,3.28a48.27,48.27,0,0,0,3.43,8.13M40,101.3l12.71.17c1.68,0,3.9-.42,4-2.1l-10.65.38c-1.78.06-4.07-.23-4.51-2L40,101.3M58.45,4.63c-1.21,3.85-1,8-.72,12a30.87,30.87,0,0,0,1,7.3,43.19,43.19,0,0,0-.31-19.31M222.34,19.95a10.54,10.54,0,0,1,7.73,0c.64.25,1.27-.36,1.68-.91-1-1.95-3.47-2.65-5.67-2.67s-4.42.44-6.57,0a14.3,14.3,0,0,1,2.83,3.62M191.26,146.53a5.84,5.84,0,0,0-4-.21c-2.18,1-1.85,4.85.46,5.43s4.45-2.67,3-4.56M56.89,31a67.83,67.83,0,0,0,.43,12.83l2.12-.86c-1.14-1.14-.41-3,.11-4.56s.19-3.86-1.42-3.87A3.19,3.19,0,0,0,56.89,31m435.48,162.4a10.18,10.18,0,0,1-8.06-6.07,13.87,13.87,0,0,0-.55,6.2,9.63,9.63,0,0,0,8.61-.13M43.86,129.69a6.55,6.55,0,0,0,3.31-1.84c.79-1,.76-2.76-.39-3.33a2.61,2.61,0,0,0-1.57-.14A3.93,3.93,0,0,0,42,126.63c-.47,1.28.39,3,1.75,3M315,216.75a61.29,61.29,0,0,0-.74-10.3,26.81,26.81,0,0,0-.87,14c1.33-.56,1.59-2.3,1.61-3.74M67.36,87.52c.58-2.45,1.17-5,.62-7.47a7,7,0,0,0-2.17-3.79,13.1,13.1,0,0,0,1.56,11.26m118.24-13a40.17,40.17,0,0,0,5.77-3.69c1.08-.83,2.17-2.46,1.15-3.36-1.93.74-3.19,2.56-4.7,4S184,74,182.24,72.92c-.77.55-.25,1.92.65,2.2a3.68,3.68,0,0,0,2.71-.58m-46.06,139-5.47,0c-.73,0-1.55,1.09-.83,1.11a16.74,16.74,0,0,0,10.13,1.09c.08-1.66-2.17-2.23-3.84-2.22M58.69,45.89q-.46,3.87-.65,7.76a18.76,18.76,0,0,0,.52,6.64,18.84,18.84,0,0,0,.13-14.4M290.39,228.94l-4.94-2.43a61.6,61.6,0,0,0,5.15,8.11,11.83,11.83,0,0,1,1.87-4.16l-2.1-1.44M102.67,108.22a5.86,5.86,0,0,0,.66,5.24,7.85,7.85,0,0,0-5.1,5,1.07,1.07,0,0,0,0,.83c.36.65,1.34.09,1.8-.5l4.64-5.94a6.73,6.73,0,0,0-2-4.6m49-71.7a4.13,4.13,0,0,0-.56,2.64c-3-.9-6.28-.15-9.35.61-.47.12-1.06.61-.71.94a39.49,39.49,0,0,0,12.32-1l-1.7-3.21m5.56,23.36a11.33,11.33,0,0,0,.35-4.79,3.87,3.87,0,0,0-3.19-3.2,4.37,4.37,0,0,0-2.61.85c-.3.7.48,1.4,1.22,1.57a5,5,0,0,1,2.16.63c1.47,1.24.16,4.74,2.07,4.94m-89,11.87c-1.18-.12-1.65-1.6-1.62-2.79s.23-2.54-.57-3.41a1.89,1.89,0,0,0-1-.58,23.21,23.21,0,0,0,.5,10.64l2.72-3.86M144,108.49l-4.44-1.21a17.71,17.71,0,0,0-3.36-.69c.57,2.83,5.41,3.35,5.54,6.24l2.26-4.34M361.4,213.93a2.3,2.3,0,0,0-2.19,0,1.14,1.14,0,0,0-.4,1,12.12,12.12,0,0,0,10.57,1.86l-8-2.89m-50.63-37.21a1.89,1.89,0,0,0-2.17-1.93l1.5,4.85a2.78,2.78,0,0,0,4.35-3.43c-1,1.06-3.05,2-3.58.6M107.8,92.89l-1.49,1.53A4.85,4.85,0,0,0,109,97.26,25.18,25.18,0,0,0,112,92a3.18,3.18,0,0,0-4.16.82M348.17,212.74a4.19,4.19,0,0,0,4.44-1.79,16,16,0,0,0-9.53-.64l5.18,2.21M168.75,171.17v2.48a6,6,0,0,0,2.91.34,2.91,2.91,0,0,0-1.81-3.25,3.61,3.61,0,0,0,2.71-2.63l-2.25-.94a3.6,3.6,0,0,0-1.48,4M324.75,269a4.89,4.89,0,0,0,1.62,4.7,8.43,8.43,0,0,0-.7-8.86,4.2,4.2,0,0,0-.86,4.11M212.94,164a6.12,6.12,0,0,0,1.52-3.08c-2.25-.09-4.92,1.87-4,3.94.25.58.73,1,1,1.62s0,1.44-.58,1.54a1.36,1.36,0,0,0,1.87.07l.12-4m-24-158.14c-1,.06-1.09,1.7-.29,2.33a6.38,6.38,0,0,0,2.9.79,6.35,6.35,0,0,1,3.22,1.67l-1.26-4.4a5.81,5.81,0,0,1-4.57-.4m127.75,166L315,169.62c-1.28,0-1.57,2.06-.62,2.9s2.38.8,3.66.7a9.79,9.79,0,0,0,.22-6.91l-1.41,5.53m-152.1-10.63a3.64,3.64,0,0,0-1.27-3.59,2.21,2.21,0,0,0-3.3,1,2.4,2.4,0,0,0,1.57,2.61,6.66,6.66,0,0,0,3.29.2M158.8,69.08a20.63,20.63,0,0,0-2.72-5.5l0,8.11a2.33,2.33,0,0,0,2.74-2.62M152.32,167a2,2,0,0,0,1.32-2.45l-6.58,1c-.31,1.11.78,2.21,1.93,2.36a6.13,6.13,0,0,0,3.3-.83M484.65,178.6l.25,8.1c1.76-2.25,2.07-5.26,2.31-8.1a2.5,2.5,0,0,0-2.56,0M176.52,57l2.89,4.84c.53.89,1.83,1.82,2.38,1l-2.22-5.29a2,2,0,0,0-3-.51m110-47.33a2.15,2.15,0,0,0-2.64-2.13,5.49,5.49,0,0,0,2.83,4.78,4,4,0,0,0,2.77-3.88A3.44,3.44,0,0,0,287,9.66M11.85,139.87c.95,0,.13-1.52-.77-1.82-.71,1.18-2.23,1.55-3.3,2.42s-1.32,3,0,3.28c1.91.34,2.1-3.66,4-3.64M155.5,49.61a3.86,3.86,0,0,1,5.81.2A1.2,1.2,0,0,0,163,50a6.49,6.49,0,0,0-9.39-1.68l1.88,1.31m-51.7,53.93c.65-.34.47-1.42-.15-1.82a3.2,3.2,0,0,0-2.15-.21c-1.72.23-3.89.92-4,2.66l5.66-.49a1.59,1.59,0,0,0,.6-.13m-26-83.45a10.92,10.92,0,0,0,4.89.5c1.62-.33,3.16-1.66,3.16-3.32A9,9,0,0,1,78,18.78l-.18,1.31M318.16,141.67l-1.91.43a3.09,3.09,0,0,0,6.05-1l-4.07.75M135.9,15.43,128,14a5.15,5.15,0,0,0,7.93,1.42m96.36.86a4.7,4.7,0,0,0,3,3.33,4.27,4.27,0,0,0,3.07-.09c-.91-2.27-3.61-3.36-6.06-3.24m38.14,129.1a3.75,3.75,0,0,0-1.06,4.48,38.53,38.53,0,0,1,4.63-6.78,2.55,2.55,0,0,0-3.39,2.12M79,119.82a7.26,7.26,0,0,0,1.74,4.69,9.34,9.34,0,0,0,.71-5.93,1.72,1.72,0,0,0-1.47-.3l-.88,1.57m75.77-39.53a12.15,12.15,0,0,0-1.25-6.9,2,2,0,0,0-1-.92,9.64,9.64,0,0,0,2.25,7.82M333,180.83a9.94,9.94,0,0,0-6-.29,8.61,8.61,0,0,0,8.25,1c0-.87-1.27-.94-2.1-.69m46.05,113.49a2.41,2.41,0,1,0,.24-4.76,18.21,18.21,0,0,0-.22,4.71M273.89,21.38a27.9,27.9,0,0,0,9.1.11c.88-.13,2-.68,1.77-1.54a83.67,83.67,0,0,0-10.87,1.43M259,14.47c-.93.67-.08,2.38,1.07,2.34a2.33,2.33,0,0,0,2-2.41,6.78,6.78,0,0,0-1.11-3.2l-1.32,3.61M138.24,73.09a1.27,1.27,0,0,0,2,1,13.83,13.83,0,0,1-1.45-6,3.06,3.06,0,0,0-.56,4.91M70.75,67.63,70.62,74l1.73,1.45a10.29,10.29,0,0,0-1.6-7.81m398,60.26a2.24,2.24,0,0,0-3.59-.64l0,2.47a2.57,2.57,0,0,0,3.66-1.87m-191,95.22,3.91,5.15a5.77,5.77,0,0,0-4.38-6.48.88.88,0,0,0,.39,1.36M148.81,102.94a4.3,4.3,0,0,0,.54,2.69c.56.75,1.89,1,2.36.15l-2.82-6.54-.08,3.7M36,140.56a3.73,3.73,0,0,0-1.52,4,2.71,2.71,0,0,0,3.57-1.29L36,140.55M148.52,67.33a5.49,5.49,0,0,0-.52,4.61,2.26,2.26,0,0,0,1.7-2.52l2.31.46-3.45-3.32m106.71,99.87a3.65,3.65,0,0,0,3.49,0,2.65,2.65,0,0,0,.33-2.1,7.81,7.81,0,0,0-3.37-.24,2.09,2.09,0,0,0-.49,2.2M48.22,51.2a2.63,2.63,0,0,0,1.22,3.44,25.82,25.82,0,0,0-.53-8.21,5.67,5.67,0,0,0-.75,4.66M306.09,208.67a6,6,0,0,0,.81,4.44,11,11,0,0,0-.22-7.69,2.32,2.32,0,0,0-.87,3.19m-28.47-65.07a4.09,4.09,0,0,0-.12,4.56,3.94,3.94,0,0,0,0-6.27l-.31,1.48M136.54,61c.17-1.12-.07-2.59-1.18-2.84a6.84,6.84,0,0,0,1.39,6.94l.15-4.06m-30.35,7.1-2.81.21c1.4,2.27,5.67,1.31,6-1.34a3.26,3.26,0,0,0-2.94,1.3M317,296.16l-.35,5.1c0,.62.26,1.53.84,1.32a4.51,4.51,0,0,0-.49-6.42M135.93,9.73a31.42,31.42,0,0,0,7.32-.48c-1.7-.4-3.58-.92-4.51-2.41a10.09,10.09,0,0,1-2.81,2.89M192.6,21.22A9.4,9.4,0,0,0,186.73,23a44,44,0,0,0,7.4-.22c.37-.67-.77-1.14-1.53-1M163.55,38.48a11.52,11.52,0,0,0-6.15.61,10.53,10.53,0,0,0,7.32.39c.09-.56-.61-.9-1.17-1M81.46,61a3.23,3.23,0,0,0-3-1.36l.9,4.14,2.14-.95V61m63,0a6.14,6.14,0,0,0,2.9,4.75,6.65,6.65,0,0,0-1.55-4.91c-.58-.68-2.22-.59-1.79.19m41.27,57.13,2-4.68a3.57,3.57,0,0,0-3.07,1.38c.64.12.62,1.16.08,1.52a2.51,2.51,0,0,1-1.89.12l2.48,1.33M45.7,132.71a2.55,2.55,0,0,0,2.86.79c.17-1.31-.38-2.89-1.67-3.18s-2.39,1.86-1.18,2.38m155.41,19.08c.07-.74-1.19-.9-1.59-.28a2.56,2.56,0,0,0,0,2.14l1,3.18a4.72,4.72,0,0,0,.69-5.1m90.95,109.08a8.41,8.41,0,0,0,5.41.12,8.77,8.77,0,0,0-6-1.53c-.53.36,0,1.39.59,1.18M150.25,77.12c-.17-.9-1.23-1.93-1.79-1.21a3.19,3.19,0,0,0,3.28,4l-1.55-2.81M112.35,10.87a2.85,2.85,0,0,0-1.27-3.31,3.61,3.61,0,0,0,.93,5.32l.55-1.93m-4.78,76.42a2.77,2.77,0,0,0-3.41,2.75,2.57,2.57,0,0,0,2.11.18,3.66,3.66,0,0,0,1.63-3M301.83,234.88a3.31,3.31,0,0,0,4.4-1.23,20.45,20.45,0,0,0-5.36-.27.86.86,0,0,0,.87,1.33m-3.17-7a4.9,4.9,0,0,0,6.66,1.37l-6.66-1.37M118.36,62.1a2.1,2.1,0,0,0,.55,4.11,4.66,4.66,0,0,0-.32-4.48M125,81.88l-3.72-4.51a6.92,6.92,0,0,0,1.86,5c.56.59,2.07.36,1.56-.27m57.68,24.73a3.67,3.67,0,0,0-3.53-4,10.31,10.31,0,0,0,3.29,4.65M249.3,13.71a2,2,0,0,0,2.4-.85,5.62,5.62,0,0,0-3.4-.51c-1.12.31-2,1.7-1.36,2.67l2.27-1m17-1.75,2.39-.79a2.3,2.3,0,0,0-4.47.69,3,3,0,0,0,2.12.24M141.71,78a1.27,1.27,0,0,0-2-1l2.69,5.35a3.8,3.8,0,0,0-.64-4.3M18.65,148a7.08,7.08,0,0,0-.31-5.72,3.82,3.82,0,0,0,.39,5.67M172.18,64.43a8.07,8.07,0,0,0-.09-5l-2,6a1.55,1.55,0,0,0,2-1M70.46,60.46a2.19,2.19,0,0,0,1.2,2.83,6.58,6.58,0,0,0-2.31-6.39,2.86,2.86,0,0,0,1.18,3.23M139,56.7a3.43,3.43,0,0,0,3.79,2.66A4.44,4.44,0,0,0,139,56m120.39,65a1.68,1.68,0,0,0-2.27-.48,4.89,4.89,0,0,0-1.68,1.92c1,1.33,3.6.33,3.45-1.32M192,180.84a2.4,2.4,0,0,0,1,3.65,4.14,4.14,0,0,0,.86-2.64c-.14-.94-1.31-1.72-2.06-1.13M165.35,48.94a12.37,12.37,0,0,0,4-.23c-.84-.89-1.84-1.85-3.06-1.81s-2.19,1.82-1.18,2.5m160.9,229.78c1.77-.87.71-3.56-.54-5.08a3.48,3.48,0,0,0,.59,4.56M316.18,233a3.78,3.78,0,0,0-4.81-2.94q2.14,1.75,4.43,3.29m50-25L361,209.46a4.46,4.46,0,0,0,5.36.21.58.58,0,0,0-.54-.89M154,84.05A4.16,4.16,0,0,0,151.49,88a3.42,3.42,0,0,0,2.85-4.14m7.09,11.87a1.23,1.23,0,0,0,2,.44A14.41,14.41,0,0,0,159.73,93a2.24,2.24,0,0,0-.88,1.48,3.07,3.07,0,0,0,2.47,1m37.14-27.06a5.31,5.31,0,0,0,3.17-3.19A3,3,0,0,0,198,68.56m5.44-.12a1.25,1.25,0,0,0,1.78,1.25c.18-1.44.27-3.15-.86-4.06a2.57,2.57,0,0,0-.88,2.79m-37.76,4.85-4.16-2.06c-.31,2.09,2.69,3.73,4.27,2.34M370.67,19.68l-1.43,1.06a7.39,7.39,0,0,0,6.32-.48,11.3,11.3,0,0,0-4.75-.37M198.16,4.44c-1.55-.16-3.57,0-4,1.46a5.16,5.16,0,0,0,2.75.43,1.78,1.78,0,0,0,1.48-2M126.69,7.69A1.36,1.36,0,0,0,128,6.56a3.8,3.8,0,0,0-4.51,1.8,2.33,2.33,0,0,0,3.19-.55m26,92.82c-.27.57.78,1.12,1.1.57.33-1.59.2-3.88-1.42-4.06a3.52,3.52,0,0,0,.21,3.54m217.66,114.6a2.68,2.68,0,0,0,3.14.57,5.21,5.21,0,0,0-5.42-2.12,2.72,2.72,0,0,0,2.51,1.18M174.85,114.27a3.62,3.62,0,0,0,1.75,2.12,9.3,9.3,0,0,0-3.2-6.33l1.53,4.18M79.63,94.36a1,1,0,0,0,.29-1.56,3.08,3.08,0,0,0-1.67,4.56,5.35,5.35,0,0,0,1.31-2.93M325.88,7.8a2.15,2.15,0,0,0-3.62-1.34A2.85,2.85,0,0,0,326,7.87m9.7,17.85a4.58,4.58,0,0,0-4.89,1.23,4.33,4.33,0,0,0,4.75-.89M131.81,65.12a8.32,8.32,0,0,0,4.08,3.8,4.71,4.71,0,0,0-3.94-4M411.67,199.87c1.44.22,3.2.31,4-.89a11.74,11.74,0,0,0-5.63,0,1,1,0,0,0,1.49.82m-94,90.35c-.8-.06-1.42.82-1.41,1.62a4.41,4.41,0,0,0,.9,2.21,2.13,2.13,0,0,0,.38-3.57M484.06,159.73l2.2-1.53a7.6,7.6,0,0,0-5.15.09,4,4,0,0,0,2.93,1.09m-255-121.46a6.41,6.41,0,0,0-5.4.87l4.8.1c.45,0,1,0,1.22-.42s-.42-1-.64-.57m-117.55,177a8.86,8.86,0,0,0,6.66.7,10.23,10.23,0,0,0-6.66-.7M468.4,131.1c-.82.58,0,2,1,2.06a3.69,3.69,0,0,0,2.53-1.47l-3.32-.63M371.7,239.47a1.5,1.5,0,0,0-1.6,1.91,10.26,10.26,0,0,0,4.79-4l-3.16,1.82M123,59.13a3,3,0,0,0,2.75,1.64,1.7,1.7,0,1,0-3-1.67M319.2,178.83a1.88,1.88,0,0,0-1.82-2.32,6.19,6.19,0,0,1,.48,2.2c.13.74.64,1.56,1.39,1.53s.9-1.48.15-1.39M175.55,38.16a3,3,0,0,0-3.68.52,2.12,2.12,0,0,0,3.74-.54m-67.77,69a9.5,9.5,0,0,1-1.2-4.27c-1.76,1-.92,4.38,1.13,4.46m243-83.55a3.68,3.68,0,0,0-4.54.65,4.07,4.07,0,0,0,4.5-.41M182.06,51.43l2.46,2.46a1.9,1.9,0,0,0-2.66-2.7M96.71,53.32a2,2,0,0,0,1.19,3.06,5.48,5.48,0,0,0,.31-2.79,2,2,0,0,0-1.55-.29m66.09,45.43c-.4-1.2-2.13-1-3.32-.6.05,1.52,2.59,2.06,3.26.7m7.94-59.26c-.3-1.66-3.07-2-3.79-.5a3.78,3.78,0,0,0,3.42.49m182.13,268c.83.5,1.7-1,1.13-1.76a3.27,3.27,0,0,0-2.66-.93,2.91,2.91,0,0,0,1.73,2.36M486.16,153.92a3,3,0,0,0-3.81.48l3.63.93.34-1.47M292.9,223.49a1,1,0,0,0,1.71.14,3.34,3.34,0,0,0-4.52-1,2.55,2.55,0,0,0,2.72.79m50.84-18a2.72,2.72,0,0,0,3.35.4c-.08-1.5-2.6-2-3.25-.66M357.66,21.54l-1.5,1.11a2.51,2.51,0,0,0,3.76-.08c.15-.87-1.21-1-2-.73m-236.48-18c-.51-.4-1,.68-.59,1.16A12.43,12.43,0,0,0,125,4.74c-.47-1.24-2.23-1.15-3.51-.84m184.28,167a.92.92,0,0,0-1.52-.31l1.59,4.65a7.5,7.5,0,0,0,.1-4.37m15.37-31.54a2.31,2.31,0,0,0,.91-1.54,2.11,2.11,0,0,0-2.14-.93,1.54,1.54,0,0,0,1.23,2.39M193.35,56.4a1.88,1.88,0,0,0,2,1.83,6.36,6.36,0,0,0-2.75-3.77,1.23,1.23,0,0,0,.63,1.82M85.2,11.05l2.26.22a2.11,2.11,0,0,0-2-2.49,3,3,0,0,0-.24,2.11m24.09,4.34-1.21,1.38,4.47-.74a2.15,2.15,0,0,0-3.19-.58m59.76,72.29a2.41,2.41,0,0,0-3.12-2.53,4.82,4.82,0,0,0,3.33,2.5m-10.95-6.72c0-1-1.76-.84-2,.1s.39,1.87,1,2.63l1-2.67M377,19.31c-.51-.39-1.06.65-.62,1.11l3.46-.84c.06-1.2-1.86-1-2.88-.4M225.07,173.66c.29-.69-.84-1-1.58-.92a3.35,3.35,0,0,0-.26,2.16,2,2,0,0,0,1.53.3,2,2,0,0,0,.28-1.54M206.4,157a1.23,1.23,0,0,0-1.81-.62l1.64,2.75c1,.27,1-1.46.28-2.18m-95.65-40.52a1.35,1.35,0,0,0,1.51-1.18A1.19,1.19,0,0,0,111,114c-.79.77-1.08,2.65,0,2.43M83.59,59.66a2.83,2.83,0,0,0,.61-3.87,4.15,4.15,0,0,0-1.07,3.41M320.72,8.37l-.37-2.44a1.23,1.23,0,0,0-1.75,1.23,2.61,2.61,0,0,0,1.76,1.35m0,294.49a.68.68,0,0,0,.9.77,2.94,2.94,0,0,0,2.25-2.13,3.49,3.49,0,0,0-3.13,1.38m31.18-97.7-3.39.69a2.48,2.48,0,0,0,3.86-.17m-158-128.1c.36-.54-.76-1.09-1.08-.53a3.29,3.29,0,0,0-.42,3.36,5.83,5.83,0,0,0,1.54-2.83M164.76,36a1.74,1.74,0,0,0,2.92.68l-1.8-1.34a1.3,1.3,0,0,0-1.1-.37c-.38.12-.42.84,0,.84M323.38,251l.3,1.48a4.42,4.42,0,0,0,2.33-3.42,4.52,4.52,0,0,0-2.51,1.94M79.71,127.35l-.7,1a4.26,4.26,0,0,0,2.27,2.24,2.26,2.26,0,0,0-1.38-2.92M109,112.37a2,2,0,0,0-2.2-2,3.34,3.34,0,0,0,.63,2.18c.53.57,1.69.53,1.9-.21m213.5-96.68a2.94,2.94,0,0,0,2.5-1.14,3.61,3.61,0,0,0-3.7.74c-.25.57.85,1.05,1.09.48m50.52,131a5.46,5.46,0,0,0-2.81.33,3.37,3.37,0,0,0,3.4.83c.54-.32,0-1.37-.59-1.09m-212-82.69a1.7,1.7,0,0,0-.58,1.85,1.38,1.38,0,0,0,1.44.22,1.36,1.36,0,0,0-.89-2.33m41.47-46.09a4.13,4.13,0,0,0-3.06-.11,4.35,4.35,0,0,0,4.32.71c.3-.59-.77-1.13-1.19-.63m6.47.84c.52.37,1.07-.7.58-1.12a2.91,2.91,0,0,0-3.33,1.63l2.73-.53M143.09,56a1.88,1.88,0,0,0,1.83,2.18c.85-.92-.46-2.69-1.59-2.15M58.91,25.44,58,27.6a2.42,2.42,0,0,0,1.54.92,2.28,2.28,0,0,0-.62-3.08M8.28,112.93a2.82,2.82,0,0,0,3.88.59,3.39,3.39,0,0,0-3.34-.74M255,112.07a2.1,2.1,0,0,0,1.85,1.87c1.06-1-.88-3-1.92-2m38.13,144a1.83,1.83,0,0,0,3.11-.62,2.28,2.28,0,0,0-3.08.61M157.49,108.7a2.25,2.25,0,0,0,2.41,2.11,2,2,0,0,0-2.33-2.22m-43.35-.49a1.69,1.69,0,0,0-2.89-.13,1.89,1.89,0,0,0,3,.12M273.62,234a1.5,1.5,0,0,0-2.28-.18,19.48,19.48,0,0,0,2.32,2,1.58,1.58,0,0,0,0-1.87M120.53,8.42l-.17-2.1-2.29,2.77a1.63,1.63,0,0,0,2.35-.71M314.19,131.56a1.67,1.67,0,0,0-2.43.64,2,2,0,0,0,2.12.91,2,2,0,0,0,.28-1.53M128.67,9A2,2,0,0,0,131,10.34a3.08,3.08,0,0,0-1-1.86c-.59-.41-1.64-.15-1.68.56M100.8,68.29a1.9,1.9,0,0,0,2,.4,1.66,1.66,0,0,0,.29-1.47,1.26,1.26,0,0,0-2,.91M217,17.21a1.26,1.26,0,0,0-.91,2c.72-.23,1.53-.54,1.8-1.24s-.64-1.65-1.19-1.13M343.58,287.83l-1.25-1.25a1.46,1.46,0,0,0,.06,2.38c.75.38,1.92-.78,1.12-1M277.25,213a2.8,2.8,0,0,0,3.58.86,3.31,3.31,0,0,0-3.43-.85m36.79-75.19a2.19,2.19,0,0,0,1-2.76,2,2,0,0,0-1.25,2.75m108.78,62.63a1.23,1.23,0,0,0,.07-2.24,1.34,1.34,0,0,0-.06,2.46M162.23,107.76c1.11.28,1-1.75,0-2.43a1.3,1.3,0,0,0,0,2.34m323.49,61.74a2.07,2.07,0,0,0,.64,2.77,1.94,1.94,0,0,0-.72-3M244.68,142l1.46-1a1.52,1.52,0,0,0-2-.77c-.68.41-.35,1.77.43,1.62M128.22,59.46a2.45,2.45,0,0,0,.6-3.2c-1.21.28-1.06,2-.62,3.2M241.35,179l-1.1-.7-1,2.21a1.29,1.29,0,0,0,1.84-1.25M203.21,79.11a2.28,2.28,0,0,0-2.82.54,2.13,2.13,0,0,0,1.46.84l1.41-1M6.88,113.24a1.68,1.68,0,0,0,.76-2.3,2.66,2.66,0,0,0-1.41,1.12c-.26.56.11,1.4.72,1.34m97.77,2.67c-.6.07-.76,1-.37,1.43a2.56,2.56,0,0,0,1.63.68,1.27,1.27,0,0,0-1.3-1.76m380.38,48a1,1,0,0,0,.88,1.49,3.2,3.2,0,0,0,.23-2.15c-.35-.53-1.38,0-1.15.59M148.1,109a1.51,1.51,0,0,0,.47,2.44,1.7,1.7,0,0,0-.46-2.62M50.56,104a1.45,1.45,0,0,0,2.46.9c.11-.88-1.25-1-2.1-.76M81.73,4c.5.13.86-.58.64-1a2.06,2.06,0,0,0-1.21-.87,1.75,1.75,0,0,0-.89,1.41,2,2,0,0,0,1.53.28M12.34,142.81a1.39,1.39,0,0,0,.74,2.1,2.5,2.5,0,0,0,.43-1.69c-.14-.58-1-1-1.35-.54M174.59,75.61c-.51-.41-1,.69-.57,1.23l2.15-.16c.41-.68-.74-1.26-1.51-1.08m-18.23,9.5a2.52,2.52,0,0,0,2.43.74c.13-1.26-2.18-1.91-2.36-.65m17-34a1.44,1.44,0,0,0,2.59-.12,2.38,2.38,0,0,0-2.41,0m27-1.68c-.59-.12-.76.94-.25,1.25a2,2,0,0,0,1.74-.14c.36-.66-.79-1.06-1.53-.95m-51.4,120c.55-.33,0-1.29-.6-1.29a2.26,2.26,0,0,0-1.55,1,3.51,3.51,0,0,0,2.17.25M355.71,296.17l-.24-1.48-1.74.88a1.1,1.1,0,0,0,1.88.59M112.94,82.31c-.22-.52-1.11-.26-1.26.29a2.1,2.1,0,0,0,.46,1.58c.77.4,1-1.05.67-1.84m35.84,81.1c.34.94,2.12-.09,1.46-.86a1,1,0,0,0-1.58.9m217.29-16.15c-.2,1.08,1.89,1.43,2,.34a1.71,1.71,0,0,0-2.11-.43M179.29,83.17l-1.57-.23a3.08,3.08,0,0,0-.34,1.67,1.27,1.27,0,0,0,1.65-1.3m-62.94,13-1.21-1.06a.93.93,0,1,0,1,1.4M156.68,36c-.34-.94-2.12.09-1.46.86a1,1,0,0,0,1.58-.9M49,37.21a2.38,2.38,0,0,0,0-2.41A1.4,1.4,0,0,0,49,37.32m213.45,85.33c.53.66,1.83-.14,1.49-.91s-2,.15-1.42.89M167.22,70.71c-.74-.13-.45,1.36.3,1.25s1.08-1,1.28-1.69l-1.6.28m40.35-38.29.24-1.55a1.3,1.3,0,0,0-1.86.62,2.13,2.13,0,0,0,1.5.9M46.16,28.86l1,2.12a2.57,2.57,0,0,0,.35-2c-.27-.66-1.44-.81-1.6-.12m85.19,85.94c-.82-.52-1.81,1.07-1,1.57.62.39,1-.76.85-1.48M337.69,25.14a5,5,0,0,0,3.72,0,5,5,0,0,0-3.71,0M307,28.55c-.11,1.14,2.1,1.29,2.14.14l-2.07-.23M16.35,109.07a3.06,3.06,0,0,0-.17-3.17,3.74,3.74,0,0,0,0,3.08M170.09,51.15c-.43.9,1.44,1.57,1.68.6a1.3,1.3,0,0,0-1.8-.66m4.65-19.51c.69.15,1.8-.22,1.43-.82-.43-.86-2,.14-1.47.91M219.7,21c.4-.37-.2-1.1-.72-.94a1.25,1.25,0,0,0-.71,1.33,1,1,0,0,0,1.5-.34M51.2,75.87a1.87,1.87,0,0,0,.22,1.49c.54-.35,1.15-.85,1.07-1.49s-1.36-.62-1.15,0m46.15-7.54c-.6.62.22,1.86,1,1.56a1,1,0,0,0-1-1.56M307,179.5a2.14,2.14,0,0,0-.73-3.07,10.57,10.57,0,0,0,.8,3.07m19.4,105c-.51-.27-1.17.26-1.16.84a1.48,1.48,0,0,0,1,1.25l.23-2.15m80.64-89.76a1.24,1.24,0,0,0-1.28,1.62c1-.06,2-1.18,1.32-1.9M118.58,80.82l.16,2.08c1.11-.08,1.05-2.16-.06-2.18m101.74,82.74c-1,.27-.29,2.12.62,1.71a1.08,1.08,0,0,0-.67-1.63m-41.48-55.17a.91.91,0,0,0-1.48-.35c-.16.88,1.49,1.22,1.69.35m36.67,38c.46.12.55-.75.11-.94a1.45,1.45,0,0,0-1.31.37c-.26.59.81,1.13,1.13.58M6.07,83.88c.27.57,1.35,0,1-.55-.28-.79-1.76.1-1.19.72m368,208.17c-.51-.4-1,.68-.58,1.17a1.41,1.41,0,0,0,1.2-.44c.24-.37-.25-1-.58-.7M165,101.89c.1.55,1.09.11,1-.44s-.76-.78-1.3-.93a.82.82,0,0,0,.42,1.28M325,279.78a1.37,1.37,0,0,0-.12,1.72c.92,0,1-1.71.13-1.85M129.56,118.92c.49-.87-1.22-1.76-1.65-.86l1.49.92M250.13,23.63c-.68-.24-1.71.19-1.51.88a1.08,1.08,0,0,0,1.65-1Z"/></g></svg>