<svg id="Layer_1" data-name="Layer 1" xmlns="http://www.w3.org/2000/svg" viewBox="0 0 500 211.52"><title>Artboard 15</title><g id="Shape_14" data-name="Shape 14"><path d="M98,19.41A43,43,0,0,1,96.32.06h189.1a358.7,358.7,0,0,0-27.57,32.21,84.12,84.12,0,0,0-8.31,12.63c-1.8,3.56-3.17,7.37-5.48,10.62s-5.84,6-9.83,6c-23-25.4-54.32-41.48-84.87-57-1.57-.8-3.27-1.62-5-1.39a8.86,8.86,0,0,0-3.87,1.92l-6,4.33a5.43,5.43,0,0,0-2.43,2.85,5.4,5.4,0,0,0,.43,2.93l6.07,17.7L121.09,28a23.14,23.14,0,0,1,13.69,1.44c1.68-3.7-1-8.2-4.65-10s-7.92-1.55-12-1.29L98,19.41M244.08,31.27c-3.36,2.35-2.88,8.37.81,10.16,2.17.35,4.11-1.45,5.23-3.34S252,34,253.67,32.56c-2.59-2.33-6.74-3.29-9.59-1.29M211.9,33.06a4,4,0,0,1-2.4-3.41l-1.42,1a4.46,4.46,0,0,0,3.27,4,1.25,1.25,0,0,0,.64-1.78m1.76,4.95c.15.73,1.42.33,1.5-.41s-.46-1.38-.79-2.05-.32-1.69.39-1.93l-1.64-1.14a34.5,34.5,0,0,0,.3,5.61M200.45,25.76c.4-.51-.68-1-1.17-.59a3.82,3.82,0,0,0,.21,2.18c.68.33,1.1-.8,1-1.55Z"/><path d="M14.11,146.38q64.57,4.53,129.35,4.56c11.22,0,23.4.22,32.19,7.19L69.47,155a24.46,24.46,0,0,0-7.45.55c-5.15,1.47-8.7,6.06-11.87,10.37L36.29,184.82c-1,1.37-2,3.27-1,4.63.75,1,2.2,1.07,3.45,1q115.92-1.9,231.52-11.86c2-.18,4.58-.09,5.47,1.75,2.2,4.52,8.21,5.53,13.21,5s10.25-1.87,14.9,0L41.76,192.61c-3.22.09-7.31-.41-8.23-3.5-.65-2.17.74-4.37,2.07-6.2l11.11-15.38q-17-1.06-34.09-1.86l35.13-13.78a29.72,29.72,0,0,0-26.86,3C14.4,159.25,7.79,166.63.41,164c-.83-1.06.85-2.25,2.15-2.61A37.89,37.89,0,0,0,20.84,150,6.5,6.5,0,0,1,14.11,146.38Z"/><path d="M35,76.78A80.24,80.24,0,0,1,6.88,80l.42,3.87,12.91-1A10.82,10.82,0,0,1,28,81.37c-5.27,2.34-10.73,4.73-16.5,4.69A20.52,20.52,0,0,1,.16,82.53L6,79.83a6.75,6.75,0,0,1-6-3.39,69,69,0,0,0,36.46-5c10.54-4.57,22.61-.23,33.25,4.1L53,75C50.78,75,48.19,75.13,47,77s0,4.48,1.92,5.61,4.21,1.19,6.41,1.21c20.72.17,42-.08,61.46,7a281.69,281.69,0,0,0-72.79-4.9c5,4.13,11.76,5.27,18.17,6.27A22,22,0,0,0,40.34,100c1.91.77,1.34,4.29-.72,4.42a156.63,156.63,0,0,1-.18-30A9.29,9.29,0,0,1,35,76.78Z"/><path d="M376.77,76.06c-3.07,1.38-5.49-3.47-4.3-6.61s4-5.64,4.44-9c.33-2.66-1-5.22-2.21-7.59L361.87,28.6A4.57,4.57,0,0,0,360,26.42c-1.33-.63-2.85.12-4.27.52s-3.44,0-3.56-1.47c3.66-2.74,2.68-9-1-11.77s-8.79-2.55-13.15-1.18c1.26-2.2,2.16-4.89,1.17-7.22S334.59,1.94,333.17,4l.54-4,34.2.08c-2.14,2.68-.55,6.95,2.32,8.82s6.5,2,9.92,2.08l19.8.43c29.69.65,59.43,1.29,89-1,2.54-.2,5.25-.38,7.5.81s3.67,4.33,2.16,6.38q-58.07-4-116.33-4.23c-2,0-4.1,0-5.64,1.27-2,1.58-2.21,4.45-2.28,7l-.3,11.09c-.06,2.38,1.25,5.8,3.44,4.85,3.21-1.39,6.72,2,7.24,5.45S384,50,383.67,53.48s.73,7.66,4,8.84a183.71,183.71,0,0,0,84.15,9.53c4.33-.53,10.19-.23,11.19,4l-50.63-1.5C422,74,411.32,73.7,401.58,70c-2.43-.93-4.86-2.07-7.46-2.11s-5.46,1.46-6,4c-.45,2.28.89,5.18-.88,6.69-2.93,2.5-7-4.08-10.52-2.5m-7.5-41a10.09,10.09,0,0,0-3.69-3,5.36,5.36,0,0,0,5.78,5.17c1.09-4.58-3.15-9.59-7.85-9.27.45,1.6,2.23,2.33,3.68,3.14s2.87,2.51,2.08,4m-3.13-9.31c1.29.53,2.18,1.9,3.55,2.12a2.36,2.36,0,0,0,2.43-1.28,34.63,34.63,0,0,1-9.5-3.75c-.65.67,0,1.85.82,2.23s1.84.34,2.7.69m4.45-3.48-3.38.31a2.08,2.08,0,0,0,3.58-.13Z"/><path d="M49.68,25.55c-.4,2.57-3.85,3.08-6.45,2.93.37-6.17.73-12.4-.34-18.48A39.78,39.78,0,0,0,39.8.17L43.68.05c0,1.8,1.59,3.29,3.32,3.79a13.79,13.79,0,0,0,5.37.05,97.16,97.16,0,0,1,23.75.24L71.75,6.47a7.62,7.62,0,0,1-4.12,1.26A38.7,38.7,0,0,0,52.44,9.41c.64,2.2-.57,4.46-1.51,6.55s-1.56,4.78,0,6.49a7.86,7.86,0,0,1,6.75,2l-8,1.08M46.55,8.75a1.4,1.4,0,0,0,0,1.82,4.65,4.65,0,0,0,2.82-1.51,5.3,5.3,0,0,0-2.8-.32m-1.43,5.34a.89.89,0,0,0,.76,1.39c.86-.45-.12-2.07-.92-1.53Z"/><path d="M5,134.62a5,5,0,0,1-.89-3.77,7.63,7.63,0,0,0-.35-3.92c-.6-1.19-2.32-1.9-3.29-1l-.08-5.65c4.09.91,8.21-1,12-2.76a171.93,171.93,0,0,1,25-9.16c.55-.15,1.26-.26,1.6.21a1.28,1.28,0,0,1,.19.63c.38,3.79-4,7.19-7.55,5.9a5.33,5.33,0,0,0-2.09-.58c-.73,0-1.45.83-1.1,1.47a3.9,3.9,0,0,1,3.11.58,64.94,64.94,0,0,1-15.35,9.79c-4.35,2-9.37,3.89-11.29,8.27m18-18c-2-.5-4.21,2-3.11,3.71a6.78,6.78,0,0,1,3.78-2.47.88.88,0,0,0-.68-1.16M8,125.18a6.73,6.73,0,0,0,1.54-3,2.77,2.77,0,0,0-3,3.38A.9.9,0,0,0,8,125.21m25.5-12.29c-.57.27,0,1.36.55,1,.79-.28-.1-1.76-.72-1.19Z"/><path d="M314.45,5.34A3.57,3.57,0,0,1,317.22,0L325,0A34.11,34.11,0,0,1,314.45,5.34Z"/><path d="M.49,194.41l1.77,1a2,2,0,0,1-1.9,1.05v-1.87Z"/><path d="M45.89,41.39a3,3,0,0,1-.14,2.23l-2.29,6.87c-.87,2.62-1.74,5.47-.82,8.07-.52.94-1.75-.45-1.84-1.52L39.88,46.5c-.25-2.88-.63-6-2.75-8s-5.07-2.09-7.84-2.2c-2.31-.09-4.77-.14-6.75,1-2.29,1.37-5.16,1.18-7.82,1L.38,37.06v-5.3c14.63-3.29,30.38,5.92,44.54,1a12.74,12.74,0,0,0,1,8.62M8.44,35.56l8.26.91a6.17,6.17,0,0,0,3.3-.24,2.13,2.13,0,0,0,1.18-2.74l-9.77.06C10,33.56,8.09,34.21,8.44,35.56Z"/><path d="M287,140.92c-.88-1.66-3.35-1.45-5-.63a13.14,13.14,0,0,0-6.78,14.61c-8.49-4.52-18.59-4.55-28.19-4a295.86,295.86,0,0,0-38.06,4.65c-7.13,1.34-14.29,3-21.55,2.88s-14.79-2.06-20.09-7a18.85,18.85,0,0,0,10.77-7.9c2.93-4.55,4.93-11.15,10.32-11.63,3.21-.29,6.07,2,9.23,2.6s7.4-2.29,5.7-5q61.15-3,122.42-1.23A83.65,83.65,0,0,0,287,140.92m-92.9,11a40.41,40.41,0,0,0,8.55-13.13c.39-1,.46-2.5-.57-2.66A37.53,37.53,0,0,1,186,155.25C188.93,156.24,192,154.15,194.11,151.94Z"/><path d="M497.23,144.8c1.49,3.28,3.68,6.87,2.36,10.23a2.08,2.08,0,1,0,.26,3.43l-.07,4.37a34.07,34.07,0,0,1-20.36-11.51,11.16,11.16,0,0,1,8.48,4.11l-1.47-4c1.65.21,2.59-2.19,1.72-3.61s-2.67-1.92-4.32-2.17c-10.95-1.65-23.65,2.5-32.28-4.43l29.46-.06c3.13,0,6.73-.23,8.65-2.71s-.68-7.31-3.42-5.79c.81-3-2.33-5.46-4.74-7.46s-4.26-6.18-1.61-7.85a2.68,2.68,0,0,1,1.56,2.69c1.43-.7,1.35-3,.22-4.09s-2.82-1.42-4.4-1.64c-29.25-3.95-60.68,0-86.82-13.69-4.75.59-1.54,10.9-6.28,11.55a24.68,24.68,0,0,0-18.83,14.16c-1-3.25,2.08-6.17,4.59-8.46s4.86-6.22,2.63-8.79a111.75,111.75,0,0,1-17.5-27.26l26.2.82a16.91,16.91,0,0,1-7.94,3.26l4.45,6.37c-1.65,2.57-2.51,7.17.51,7.65a37.48,37.48,0,0,1,8.44-7.38,93.72,93.72,0,0,0,22.72,11.26c18.95,6.36,39.38,6.5,59.35,5.51,10.52-.52,21.79-1.16,30.8,4.3l.29,17.51L495,129.57a27.9,27.9,0,0,0,2.23,15.23m-14.79-20.49a3.56,3.56,0,0,0,2.41,1.25,5.25,5.25,0,0,0-3.93-4.21,1.89,1.89,0,0,0,1.51,2.82m11.82,33a1.64,1.64,0,0,0-2.44-1.32,2.44,2.44,0,0,0,2.43,1.47Z"/><path d="M321.38,124.22q-31.22-1.49-62.5-.71-25.14.6-50.22,2.59c23.71-12.58,52.14-10.83,78.9-8.76L358,122.79C346.09,125.64,333.63,124.8,321.38,124.22Z"/><path d="M361.27,145.46A112.4,112.4,0,0,1,335,144.19c13.39-1.81,27-1.13,40.46-.45a144.61,144.61,0,0,0-50.63-.62c21.68-7.29,45.35-3.21,67.84.94l90.12,16.61c3.19.59,7,1.79,7.67,5l-8.13.8c-1.06.1-2.36.09-2.89-.83s1.27-2.08,1.5-1l-87.42-7.46c-34-2.9-69.58-5.54-100.79,8.14,8-9.12,20.43-13.12,32.46-14.93s24.34-1.83,36.12-4.86M383,149.06a20,20,0,0,1,7.59-3.84,104.33,104.33,0,0,0-15.49,3.51,2.89,2.89,0,0,0-1.36-2.56,31.94,31.94,0,0,0-14.79,2.16c7.61.31,15.19,1.19,22.76,2.07l68.07,7.95A95,95,0,0,0,420.12,153c-1.46,0-3.44-.57-3.28-2a10.18,10.18,0,0,1-4.58,1.67c-1.64,0-3.43-1-3.65-2.62a12.47,12.47,0,0,1-7.69,1.12c.55-.47-.4-1.19-1.13-1.28-5.57-.68-11.2-1.36-16.79-.82m-3.13-5.17c-1.23-.36-2.95.41-2.74,1.67a14,14,0,0,0,6.28-.94c-.64-1.09-2.23-1-3.47-.68m76.52,14.78a9.14,9.14,0,0,0-5.2-.92,4.32,4.32,0,0,0,4.81,1.39m-59-11.15a2.07,2.07,0,0,0-3.31-.61,2.27,2.27,0,0,0,2.81.59m85.29,15.33a3.51,3.51,0,0,0,3.14-.06,2.58,2.58,0,0,0-3.09.12Z"/><path d="M317.86,90.13c6.45.67,12.88,1.56,19.3,2.5,3.56.52,7.53,1.31,9.55,4.29-25.15-1.55-50.48-3.1-75.49,0s-50,11.07-69.67,26.79c14.22-15.36,33.6-25.39,53.92-30.42S297,88,317.86,90.13Z"/><path d="M305.8,181q95.33-1.79,190.69-.14c1.42,0,3.4.72,3,2.09l-175.61,2.39C317.54,185.44,310.52,185.29,305.8,181Z"/><path d="M190.55,114.28c5.22-16.78,17.53-30.7,32-40.61s31.17-16.18,47.93-21.46c6.49-2,13.56-3.94,20-1.62-19.72,4.88-39.17,11.47-56.72,21.72S200.6,96.63,190.55,114.28Z"/><path d="M104.86,91.74,64.22,88.43a131.1,131.1,0,0,1,44.5,3.25C122,95,135.45,98.36,148,104a114.12,114.12,0,0,1,25.82,16.16,162.26,162.26,0,0,0-36.9-15.09c-5-1.35-10-2.46-15-3.57L82.48,92.83Z"/><path d="M174,125c-32.32-15.07-69.82-12.42-105.23-8.22-8.58,1-17.21,2.11-25.83,1.52a392.37,392.37,0,0,1,65.56-7.39c22.72-.64,46.82,1.14,65.5,14.08Z"/><path d="M192.4,92,143.17,77.63c-4.83-1.41-9.71-2.84-14-5.38a593.55,593.55,0,0,0,74.49,10.9,37.81,37.81,0,0,1-5.3,7.12A6,6,0,0,1,195,92.37,6.41,6.41,0,0,1,192.4,92Z"/><path d="M231.35,98.11c27.08-14.59,58.7-18,89.45-18.84,5.54-.15,11.14-.21,16.55,1-1.44,2.3-4.7,2.39-7.41,2.26A245.93,245.93,0,0,0,231.35,98.11Z"/><path d="M406,175.48c-16.84.47-33.69.61-50.53.75l-44,.37c-.35-1.09,1.18-1.74,2.32-1.84A479.82,479.82,0,0,1,406,175.48Z"/><path d="M252.15,110.94a171.22,171.22,0,0,1,28,.45c3.86,1.52,8.09,1.68,12.23,1.94a234.19,234.19,0,0,1,34.74,4.81c-32.22-.76-64.71-8.32-96.37-2.27C237.26,112.45,244.78,111.43,252.15,110.94Z"/><path d="M226,112.94a76.44,76.44,0,0,1,29.62-9.42c8.45-.86,17-.3,25.46-.79,11.15-.65,22.54-3.1,33.31-.13l-12.72,3.5a13.8,13.8,0,0,1-5.74.73A146.08,146.08,0,0,0,226,112.94m66-9.59a11.21,11.21,0,0,0,7.48.55c.66-.18,1.42-.58,1.42-1.26A13.75,13.75,0,0,0,292,103.35Z"/><path d="M407,42.69h83.19a5.25,5.25,0,0,1,3,.6,1.81,1.81,0,0,1,.51,2.64,2.64,2.64,0,0,1-2,.46l-87.46-2.7C404.73,42.8,406,42.69,407,42.69Z"/><path d="M305.28,106.45c8.18-2.14,16.51-4.3,25-3.84l-8.88,3.24a21.89,21.89,0,0,0,9.91-.82,33.11,33.11,0,0,1,21.76.54c-2.94,1.16-6.22.2-9.32-.43s-6.77-.73-8.91,1.6l22.33,1.89c1.33.11,2.9.37,3.49,1.57-4.43,1-9,.6-13.56.2l-16.13-1.44c-1.36-.12-2.71-.24-4.07-.41a63.7,63.7,0,0,1-6.79-1.2c-2.56-.6-5.29-1.35-7.76-.45-1.37.5-2.56,1.47-4,1.73S305,107.89,305.28,106.45Z"/><path d="M276.34,175.89a2.45,2.45,0,0,1-.79-3.08,4.46,4.46,0,0,1,2.62-2.16c4.21-1.55,8.78.73,12.69,2.94,2.89,1.63,2.88,6.29,5.8,7.85q-7,.3-14.06.21a5.07,5.07,0,0,1-2.65-.52C278.11,180,278.22,177,276.34,175.89Z"/><path d="M116.56,83.65c3.62,1.24,7.29,2.63,10.19,5.13a164,164,0,0,0-20-4.65c-7.48-1.25-15-2-22.57-2.7L60.56,79.16c-.33-1.11,1.36-1.6,2.52-1.49l35,3.26c-7.53-3.16-15.7-4.39-23.77-5.58,1-1.22,2.8-1.13,4.34-.9A211.24,211.24,0,0,1,116.56,83.65Z"/><path d="M120.27,28.42c-1.13,4.25,1.67,8.46,4.31,12-1.65,1.72-4.42-1.28-6.74-.76a4.49,4.49,0,0,0-2.48,2.18,63.83,63.83,0,0,0-5.82,10.91c-1.41,1.86-4.65,1.08-5.91-.89s-1.12-4.49-.85-6.82c.23-2,.81-4.41,2.74-5.08,2.53-.88,4.69,1.95,5.89,4.34A10.43,10.43,0,0,1,120,37a11.79,11.79,0,0,1-1.74-4.48,4,4,0,0,1,2-4.08M107.59,43.07a1.37,1.37,0,0,0-1.88,1.35,5.8,5.8,0,0,1,2.82.8,1.25,1.25,0,0,0-1-2Z"/><path d="M289.43,161.27c6.59-10.57,17.35-18.15,29.07-22.35s24.4-5.21,36.84-4.58c1.7.09,3.77.46,4.35,2.06A82.05,82.05,0,0,0,289.43,161.27Z"/><path d="M137.3,90A415.14,415.14,0,0,0,83.05,69.84a7,7,0,0,1-2.82-1.3A8.1,8.1,0,0,1,85,68.7C103.41,73.13,121.92,78.9,137.3,90Z"/><path d="M412.29,140.47q30,5.33,59.69,12c2.32.52,4.87,1.2,6.2,3.18q-34.89-7.3-69.73-14.84C409.52,140,411,140.24,412.29,140.47Z"/><path d="M298.88,98.21c2.48-1.47,5.54-1.37,8.41-1.23l22.85,1.11c10.73.52,22,1.22,31,7.09-3,.49-5.78-1.29-8.61-2.32a36.18,36.18,0,0,0-10-1.64Z"/><path d="M487.8,95.4l-1.69-2.21c3.34-3.86,2.22-10.66-2.17-13.26a3.45,3.45,0,0,1,2.57.45l5,2.34a1.94,1.94,0,0,1,1.24,2.69l-.82,4.93,6,.85a2.5,2.5,0,0,1,1.39.49,2.44,2.44,0,0,1,.53,1.86,37.87,37.87,0,0,1-.29,4.4Z"/><path d="M285.27,160.45a38.1,38.1,0,0,1,14.3-20.34,50.3,50.3,0,0,1,23.37-9.05,19.43,19.43,0,0,1,6.61,0c-.28.87-1.4,1.06-2.31,1.14A52.51,52.51,0,0,0,285.27,160.45Z"/><path d="M53.07,177.66l57.38-1a4.15,4.15,0,0,1,2.82.64Q84.21,179.57,55,179.09C54.08,179.08,52.75,178.56,53.07,177.66Z"/><path d="M328.28,128.45c6.39-1.06,12.91-.75,19.38-.43l18.59.91a1.57,1.57,0,0,1-.53,2.34,4.54,4.54,0,0,1-2.71.32Z"/><path d="M194.23,48.5l-30.54-9.78a26.56,26.56,0,0,1-5.38-2.17A94.71,94.71,0,0,1,193,46.91C193.67,47.24,194.4,47.8,194.23,48.5Z"/><path d="M481.65,72.24a41.59,41.59,0,0,1,1.27-17,6.28,6.28,0,0,1,1.65-3.12,3.47,3.47,0,0,1,4.18-.18A30.66,30.66,0,0,0,484,67C483.87,69,483.61,71.63,481.65,72.24Z"/><path d="M44.19,104.28a97.28,97.28,0,0,1,15.66.81c.68.09,1.54.87.95,1.22a81,81,0,0,1-20.09.73C40,105.44,42.42,104.33,44.19,104.28Z"/><path d="M239.69,165a22.73,22.73,0,0,1-7.16,0,83,83,0,0,1,36.26-3.29Z"/><path d="M355,116.3a4.88,4.88,0,0,1-6,.06c-1.39-1.12-3.4-.68-5.19-.7a18.12,18.12,0,0,1-3.72-.56l-7.2-1.6c.85-1.82,3.42-2,5.31-1.32s3.68,1.86,5.68,1.84c1.62,0,3.11-.83,4.68-1.22s3.56-.15,4.31,1.28a3.62,3.62,0,0,0-3.76,1.15A22.86,22.86,0,0,0,355,116.3Z"/><path d="M23,210.84c-1.25,1.53-3.78-2.69-5.12-1.23a1.37,1.37,0,1,0-2.68-.37,5,5,0,0,0,2.45.28c.55.57,0,1.62-.76,1.82a3.27,3.27,0,0,1-2.26-.51,34.41,34.41,0,0,1-11.09-9.14c1.19-.72,2.53.59,3.41,1.66a18.5,18.5,0,0,0,4.94,4.2,3.34,3.34,0,0,0,2.27.61c.79-.16,1.43-1.12,1-1.79a33.08,33.08,0,0,1,10.74,3.37A3.15,3.15,0,0,0,23,210.84Z"/><path d="M340,85.39c1,0,2.33.72,1.81,1.54q-14.57-.35-29.1-1.72c-.28-.32.33-.65.75-.63Z"/><path d="M482.46,93.7c1.28.35,1.41,2.09,1.27,3.41l-.95,9.17c-2.78-1.77-3-5.69-2.87-9C480,95.59,480.82,93.25,482.46,93.7Z"/><path d="M15.5,206.22c-2.51.21-4.8-1.39-6.61-3.13a30,30,0,0,1-7.78-12.64c1.48-.37,2.48,1.43,3.05,2.85A26.22,26.22,0,0,0,15.5,206.22Z"/><path d="M403.28,138.46a3.9,3.9,0,0,1,2.34.85,2,2,0,0,1,.52,1.75l-27.28-5.83Z"/><path d="M172.44,48.11a152.14,152.14,0,0,1-21.15-3.45A20.79,20.79,0,0,1,147,43.44,81.87,81.87,0,0,1,172.44,48.11Z"/><path d="M113.38,105.28l-10.85-.59c-1.14-.06-2.68-.6-2.45-1.72a124.65,124.65,0,0,1,17.48,1.21C116.62,105.34,114.88,105.36,113.38,105.28Z"/><path d="M493.51,28.82,495.33,25c.47-1,.94-2.12.47-3.09-.39-.81-1.4-1.59-1-2.37l3.39-.7A7.77,7.77,0,0,1,493.51,28.82Z"/><path d="M51.82,18.63l1.77-4.77A7.85,7.85,0,0,1,55.13,11,8.23,8.23,0,0,1,52,20.42C51.43,20.07,51.59,19.24,51.82,18.63Z"/><path d="M53.34,113.31a16.48,16.48,0,0,1-5.24,1.41,32.92,32.92,0,0,1-6.89-.3A19.47,19.47,0,0,1,53.34,113.31Z"/><path d="M487.22,209c1.44-2.81,5.89-3,7.19-5.88.56-1.23.87-3.13,2.22-3,.28,2.43-1.43,4.66-3.4,6.1s-4.27,2.42-6.09,4A1.25,1.25,0,0,1,487.22,209Z"/><path d="M333.86,145.56l-8.64,1.89a9.21,9.21,0,0,1-3.75.29A15.94,15.94,0,0,1,333.86,145.56Z"/><path d="M100.19,28.6A4.88,4.88,0,0,1,95,31.81a26.82,26.82,0,0,1-3.71-1.26Z"/><path d="M91.47,31A7.32,7.32,0,0,1,85,34.55c-.7,0-1.57-.85-1-1.2A16.48,16.48,0,0,1,91.47,31Z"/><path d="M15.69,180.79a9,9,0,0,1,8.73,0A10.17,10.17,0,0,1,15.69,180.79Z"/><path d="M368.45,128.66a18.41,18.41,0,0,1,7-8A14.48,14.48,0,0,1,368.45,128.66Z"/><path d="M101.8,62.24c.83-.54,1.68,1,1,1.76s-1.84.61-2.8.37A21.45,21.45,0,0,1,95.7,62.8a9.48,9.48,0,0,1,6-.69Z"/><path d="M489,3.17h2.47a4.11,4.11,0,0,1-.5,4.37A8.71,8.71,0,0,0,484.86,3l4.1.1Z"/><path d="M86.16,106a21.35,21.35,0,0,1,10.31-.21A15.62,15.62,0,0,1,86.16,106Z"/><path d="M13.06,91.76l4.12-1.14c.23,1.37-1.62,2-3,2.05s-3.22.27-3.43,1.64a5.63,5.63,0,0,1-.2-4.41,3,3,0,0,0,2.52,1.82Z"/><path d="M340.87,66.27a1.24,1.24,0,0,1-.56-1.88,31.42,31.42,0,0,1,5.3,4.35,3.77,3.77,0,0,1-4.52-2.43Z"/><path d="M324.58,110.83a2.79,2.79,0,0,1,4.39,1.72,3.6,3.6,0,0,1-4.61-1.82Z"/><path d="M46.58,49.35c-1.14-2.6,2.61-5.14,2.17-7.94a3,3,0,0,0-1.29-2c1-.52,2.24.44,2.43,1.54a5.41,5.41,0,0,1-.79,3.2Z"/><path d="M91.2,5.36a10.54,10.54,0,0,1-6.11-1,7.77,7.77,0,0,1,6.36,0Z"/><path d="M496.39,169.21a13.42,13.42,0,0,1-4.69-.3,8.88,8.88,0,0,1,6.92-.56,1.4,1.4,0,0,1-2.11.72Z"/><path d="M307.37,73.09A6.57,6.57,0,0,1,302,71.34l6,.62c.53.37,0,1.4-.6,1.2Z"/><path d="M329.77,75.13a5.42,5.42,0,0,1,5.37-.11,9.12,9.12,0,0,1-5.56.56c-.29-.06-.64-.22-.64-.51s.63-.18.42,0Z"/><path d="M57.05,185.95a3.44,3.44,0,0,1-2.2-.25,6.17,6.17,0,0,1,5.82-.56,3.22,3.22,0,0,1-3.55.69Z"/><path d="M302.91,84.34c.15.34-.62.31-.58-.06s.48-.53.84-.59a8.62,8.62,0,0,1,5.27.82,6.93,6.93,0,0,1-5.44,0Z"/><path d="M317.93,109.18c.55-.32,1.13.78.54,1a2.56,2.56,0,0,1-3.47-1.35,2.47,2.47,0,0,1,3,.19Z"/><path d="M63.88,68.16a6.26,6.26,0,0,1,2.78,1,9.57,9.57,0,0,1-5,0c-.16-.92,1.26-1.11,2.16-.87Z"/><path d="M323.48,87.39a3.85,3.85,0,0,1,4.74.35,8,8,0,0,1-4.81,0Z"/><path d="M491.75,201.8c-.31-.78,1-1.18,1.75-.73a4.94,4.94,0,0,1-4.22,2.81,4.49,4.49,0,0,1,2.46-2.12Z"/><path d="M317.77,76.79a5.42,5.42,0,0,1-5.06.44,8.69,8.69,0,0,1,4.6-1Z"/><path d="M313.72,69.83l2.08,1.06a3.77,3.77,0,0,1-4.44-.45,2.92,2.92,0,0,1,2.22-.3Z"/><path d="M299.86,181.11l4.21.37a3.17,3.17,0,0,1-3.76.4Z"/><path d="M484,211.37h-1.86a2.14,2.14,0,0,1-.3-1.54,1.77,1.77,0,0,1,2.65,1.69Z"/><path d="M297.77,73.23c0-.3.57-.07.47.21s-.45.36-.74.38a11.52,11.52,0,0,1-3.53-.29c.14-1.36,2.25-1,3.38-.21Z"/><path d="M133.87,176l-5.06.58a4.22,4.22,0,0,1,5.19-.73Z"/><path d="M273.53,169.66l-2.46-1.94a2,2,0,0,1,2.93,1.93Z"/><path d="M290,74.91c-1,.31-2.58.32-2.76-.75a3.44,3.44,0,0,1,2-.5c.68.11,1.3.85,1,1.48Z"/><path d="M497.71,191.59c-.38-.84,1.47-1,1.6-.09s-.78,1.61-1.61,2a1.75,1.75,0,0,1-.14-2Z"/><path d="M20.78,144.14a1.82,1.82,0,0,1-.26,1.55l-2.24-1.51a1.5,1.5,0,0,1,2.39,0Z"/><path d="M497.36,199.82l1.16-2.91a1.66,1.66,0,0,1-.6,2.8Z"/><path d="M488.33,204.56a2,2,0,0,1-2.84,1.57,6,6,0,0,1,2.85-1.55Z"/><path d="M478.73,209.2l1.54-1.53a1.58,1.58,0,0,1,.89,1.45c-.77.78-2.6,1.16-2.5.06Z"/><path d="M274.56,163.69c-.95,0-1.85-1.2-1.24-1.92.94,0,1.84,1.18,1.23,1.89Z"/><path d="M4.88,88.25l-1.43-1a1.68,1.68,0,0,1,1.47-1c.66.6.85,2.16,0,1.9Z"/><path d="M26.68,179.82c.69-.15,1.8.22,1.44.82-.43.86-2.05-.15-1.48-.92Z"/><path d="M374.93,134.62l-3.4-.33a4.14,4.14,0,0,1,3.57-.07Z"/><path d="M495.23,198.5c-.52.14-.91-.6-.69-1.09a2.17,2.17,0,0,1,1.26-.94,1.25,1.25,0,0,1-.68,1.79Z"/><path d="M247.6,36.32a2.46,2.46,0,0,1-1.55.93l-1.55-2.79a2.49,2.49,0,0,1,1.55-.93l1.55,2.79Z"/><path d="M378.21,87.08c-.11.53-1.06.24-1.06-.31s.51-.93,1-1.18l.28,1.52Z"/><path d="M247.92,32.24l2.17.18a1.19,1.19,0,0,1-2.21-.06Z"/></g></svg>