<svg id="Layer_1" data-name="Layer 1" xmlns="http://www.w3.org/2000/svg" viewBox="0 0 313.24 499.23"><title>Artboard 4</title><g id="Book_2" data-name="Book 2"><path d="M241,417.28h3.48a1.42,1.42,0,0,1-.89,1.87,4.11,4.11,0,0,1-2.33-.07l-.35-1.78Z"/><path d="M.64,471.62,73.38,142.8c1-4.68,2.12-9.47,4.72-13.5,3-4.62,7.7-7.79,12.29-10.82q89.45-59.17,181.5-114.3c4.7-2.82,10.46-5.69,15.38-3.29l-20.9,412.44a11.53,11.53,0,0,1-1.25,5.59c-1.59,2.56-4.83,3.44-7.77,4.11L21.57,476.89c13.08,11.65,33.09,9,50.27,5.57l197.55-39c2.49-.49,5.19-1.1,6.79-3.08,1.43-1.76,1.62-4.18,1.76-6.45L301,50.7c.54-8.89-16.55-14.52-11.53-21.87l8.2,10.61,9-2.57c6.51,5.56,6.77,15.36,6.5,23.91L301.32,443.22,297.38,434c2.71,4.83.19,11.24-4.15,14.68s-10,4.64-15.41,5.75L73.27,496.06C64,498,54.48,499.86,45,499c-13.6-1.18-26-7.85-38-14.39-2.66-1.45-5.52-3.13-6.56-6-.82-2.24-.31-4.73.2-7.06m198.64-44.29a59.86,59.86,0,0,1-10.59,3.49q-48.5,12.67-97.6,22.92-20.21,6.38-40.95,10.9a227.51,227.51,0,0,0-37.83,9.77c82.95-16.71,164.29-40.8,247.34-57a31,31,0,0,1-17.89-3.34c-.16,2.73-3.23,4.19-5.84,5a215.61,215.61,0,0,1-36.65,8.19m-22.13-13.25c-.47,1.51-2.59,1.68-4.06,1.13s-2.91-1.54-4.48-1.33c-.81.11-1.63,1.21-.92,1.63a41.12,41.12,0,0,0,13.69,2,13,13,0,0,1-4.23-3.46m-72.23,23.46c-4.27-1.06-8.36,2-11.7,4.87a8.4,8.4,0,0,1,4.22.47c-.43-1.62,1.34-3,3-3.4s3.5-.61,4.52-1.94m41.06-14c-.67,0-.84,1.06-.32,1.48a2.21,2.21,0,0,0,1.92.18,14.56,14.56,0,0,0,3.78-1.5,6,6,0,0,0-5.29.16m-54-22.24.23-1.6a7.42,7.42,0,0,0-4.44,0,4.67,4.67,0,0,0,4.09,1.63m17.86,31.11a4.13,4.13,0,0,0,4.53-1.26l-3.61-.77-.78,2m149.74-47-.35-4.86a4.49,4.49,0,0,0-.76,4.47M107,435.43a2.56,2.56,0,0,0,1.31-1.79l-5.53-.43,4.4,1.84m63.84-9a1.88,1.88,0,0,0-1.55.25l2.84,2.22a3.4,3.4,0,0,0,.26-2.18,2,2,0,0,0-1.55-.29M76.26,392a1.74,1.74,0,0,0,.88,2.2,4.22,4.22,0,0,0,2.59.23,7.89,7.89,0,0,0-3.16-2m76.55,14.08a7.11,7.11,0,0,0,4.38-1.65,7.09,7.09,0,0,0-4.59,1.13m96,1.19a1.66,1.66,0,0,0-1.9-1.31,4.83,4.83,0,0,0-2.27,1.16l4,.21m-23.19,1.42a2,2,0,0,0,2.8,2l-2.55-1.86m-92,16.63a1.43,1.43,0,0,0-1.74-1.11c.23.83.58,1.79,1.41,2s1.53-1.29.69-1.46m-8.36,5.58,2.65-.21a3.06,3.06,0,0,0-2.16-1.12c-.83.07-1.43,1.32-.72,1.76m35.76-35.37a1,1,0,0,0,1.76-.52,2.11,2.11,0,0,0-1.5-.47c-.53.11-.86.9-.42,1.2m81,4.19a7.23,7.23,0,0,0,3.22.92c0-1.33-2-1.35-3.23-.86M118.59,428.91a1.48,1.48,0,0,0-1.9,0,2.81,2.81,0,0,0,3,.89.87.87,0,0,0-1-.79M66.19,443.74c-.88-.25-2.28-.09-2.14.82a1.37,1.37,0,0,0,2.24-.92m151.14-35.75c.26-1-1.33-1.57-2.19-1a2.13,2.13,0,0,0,2.19,1M111.76,440.61c-.61-.48-1.16,1-.46,1.31s1.5-.13,2.13-.6l-1.73-.47M149,365.7c.54-.12.24-1.07-.31-1.08s-.95.52-1.2,1l1.54.28m53.27,53.23a.74.74,0,1,0,1,.71l-.83-.84Z"/></g></svg>