<svg id="Layer_1" data-name="Layer 1" xmlns="http://www.w3.org/2000/svg" viewBox="0 0 376.9 500"><title>Artboard 20</title><g id="Shape_19" data-name="Shape 19"><path d="M156.82,369.16c1-1-.32-2.56-1.52-3.3l-15.82-9.77a13.75,13.75,0,0,1-6.27-9.71,14,14,0,0,1,1.94-9.14c1.81.49,1.12,3.14,1,5-.2,3.65,3.36,6.28,6.59,8a108,108,0,0,0,10.87,5.07c2.85,1.14,6,2.18,8.94,1.48s5.6-3.83,4.64-6.74c1.22,2.84,5,3.13,8.11,3.33a42.83,42.83,0,0,1,19.47,6.11L190,361l23,3.37c.92.14,2.21,0,2.31-.92L197.1,359l.73-4.43.7,2.59,2.67,0a13.38,13.38,0,0,1,6.51-6.88l-2-1.51c0-2.38,4.12-1.85,5.19.27s.87,4.86,2.45,6.64a7.93,7.93,0,0,1,9.4-4.16A156.51,156.51,0,0,1,214,373.35c-4-3.23-9.52-3.94-14.55-3s-9.69,3.19-14.27,5.47c-2.1,1-4.56,3.41-3.09,5.25,2.23,0,3.52-2.78,5.7-3.24,2-.42,3.85,1.39,4.66,3.29,1.26,2.95.93,6.75-1.46,8.89s-6.87,1.64-8.14-1.3c-.58-1.33-.47-2.9-1.15-4.18s-2.86-1.88-3.44-.55c-.45,1,.53,2.1,1.26,3,1.21,1.45,1.91,3.29,3.18,4.7s3.49,2.31,5,1.22c-.78,2.63-1.75,5.39-3.89,7.11s-5.79,1.84-7.29-.46c-2.54-3.89-10.69-1-12-5.42-.59-2-3.52-1-5.51-1.42a6.71,6.71,0,0,1-2.79-1.65q-8-6.75-15.52-14.15A8,8,0,0,1,149,379a36.94,36.94,0,0,0,17.59,11c-.36-3.69-5.51-4.1-8.71-6-4.58-2.72-6.87-10.11-12.15-9.42-2,.26-3.16-2.08-3.89-3.94s-2.54-4-4.31-3.06L119.47,330a95.57,95.57,0,0,1,8,11l-.77-10.21c3.11,3.09,6.44,7.68,4.14,11.41a9.36,9.36,0,0,0-1.55,2.54c-.79,3.36,5.38,4.85,5.32,8.3,0,3.2,2.66,5.78,5.48,7.28s6,2.43,8.42,4.54,5.42,5.94,8.35,4.26m4.14,1.69a3.3,3.3,0,0,0,4.91,2.3c.7-1-.19-2.48-1.36-2.82a5.73,5.73,0,0,0-3.55.52m7,8.33a2.44,2.44,0,0,0,2.37-.84,11.12,11.12,0,0,0-6.7-.32,3.25,3.25,0,0,0,4.26,1.29m-.94,11.8a2.93,2.93,0,0,0,3.43.26,3.14,3.14,0,0,0-3.37-.27Z"/><path d="M130,327.86c-3.9,2.06-9.43-1.35-9.34-5.76l-2.55,5.63a48.89,48.89,0,0,1-7.53-24.79,5,5,0,0,0-3.11,6.6l-5.28-3.34c2.93.1,4.62-4.41,2.34-6.25a67.38,67.38,0,0,0-12.56,15.39c1.19,4.24,6.92-4.11,11.11-2.75,1.42.46,2.14,2,2.7,3.38l16.45,40.48a89.58,89.58,0,0,1-17.08-35.34L54.47,358.88a24,24,0,0,0-4-9.61A56.09,56.09,0,0,0,66.27,329.6l-4.07-6.12c-3.18,3.87-10,3.71-13-.3a31.46,31.46,0,0,0,25.62-13.59,27.48,27.48,0,0,1,15.48-18.18c5.69-2.46,13.78-5.12,12.93-11.26C67.63,290.72,31.62,301.5,0,320.88L.08,0H376.77q.07,168.61.13,337.21A329.12,329.12,0,0,0,320,311.43c-3.1-1.06-7.08-1.86-9.19.64a322.43,322.43,0,0,1,33.1,13.41,25.74,25.74,0,0,0-12.65,6.89l1-5.42a32.57,32.57,0,0,0-29.44-9c12.35-.23,18,16.32,14.88,28.28a7.76,7.76,0,0,0,2.32-7.58,24.24,24.24,0,0,1,12,23.58,5.1,5.1,0,0,0,4.77-5.64l18.1,35.74c.45.88.86,2.05.17,2.77s-2.06-.84-1.1-1.07a75.2,75.2,0,0,1,21.22,29.17A340.8,340.8,0,0,0,273.91,345a246.59,246.59,0,0,1,51.38,77.72c1,2.46,2,5.25,1,7.7s-5.15,3.36-6.23.92l-.76,6.29-13.91-28c-3.48-7-10.94-15.25-17.46-10.93l10.32-4.17-18-23.3c-1.53-2-5.38-3.47-5.73-1a9.5,9.5,0,0,1,4.5,11.23c-11.26-8.76-10.25-25.77-8.16-39.88,4.32-29.17,8.82-58.9,22-85.27,1.39-2.79,3.93-4.78,6.19-6.92,14.67-13.89,18.59-35.52,20.21-55.66s2-41.3,11.87-58.9c3.14-5.58,1.26-12.53-.7-18.62-9.56-29.77-21.54-62.4-49.27-76.86-10.58-5.52-22.75-7.88-32.59-14.62-18.37-12.58-41.92-16.59-63.87-12.86s-42.28,14.8-58.87,29.65A147,147,0,0,0,82,112.93c-3.7,14-5.23,29.13-.05,42.61a40.17,40.17,0,0,0,1.26-29,11.49,11.49,0,0,1,4.34,9.17A4.58,4.58,0,0,0,91.51,130c6.08,2.31,5.17,11.57,1.18,16.71s-10,9.16-11.52,15.49c-2.85,11.93,12,24.23,6.37,35.1l-5.68-16Q91.94,231.52,106,280.83l-4.84-54.18a8.39,8.39,0,0,0-3.59,9.43A75.51,75.51,0,0,0,93.24,209c-1.82-5.11-2.89-12.88,2.41-14a785,785,0,0,0,24.86,110.15c1.54,5.09,6.07,11.45,10.64,8.72a83.35,83.35,0,0,1-9.25-35.27q7.77,22.71,16.38,45.12a33,33,0,0,0-17.57-9.07c-2.4-.56-4.68,2.61-3.38,4.7,5.52-2.74,13.12,2.4,12.63,8.54m-19.5-39.74a14.47,14.47,0,0,0,2,12.89,1.13,1.13,0,0,0,.62.51c.7.14,1-.89.89-1.6a34.48,34.48,0,0,0-3.55-11.8m186.16,15.05c-2.64-1.72-6.24-.73-9.16-1.91-.76-.31-1.46-.76-2.24-1a4.42,4.42,0,0,0-3.68.54c.67,2,4.18.31,5.7,1.77a7.54,7.54,0,0,0,9.38.61M68.25,322.38a1.78,1.78,0,0,0,2.93,1.3,2.37,2.37,0,0,0,.5-1.7,2.78,2.78,0,0,0-2.56-2.74c-1.39.05-2.29,2.15-1.16,2.95M117.08,312a5.91,5.91,0,0,0-1.65-6.42,4.5,4.5,0,0,0,1.65,6.42m184-3.35,1-1.45a7.05,7.05,0,0,0-4.17-.54,1.79,1.79,0,0,0,2.78,1.7Z"/><path d="M123,179.78a14.79,14.79,0,0,0,10.07,4.2,3,3,0,0,1-3.22,2.2,8.84,8.84,0,0,1-3.94-1.53c-6.85-4-14.16-8.62-17-16a5.63,5.63,0,0,0-5.53-3.51c2.71-.38,2.77-4.37,1.59-6.85s-2.81-5.52-1.12-7.68a6.34,6.34,0,0,1,1.81-1.41c2.77-1.66,6.37-3.31,9-1.46,2.8,2,6.55,1.92,9.88,1.17s6.52-2.12,9.9-2.59c7.44-1,14.87,2.41,22.37,2a4.18,4.18,0,0,0,3.16-1.2c1.24-1.58.55-4.79,2.53-5.14,2.13,4.66-2.94,10.34-.79,15,2.22,4.83,1.65,10.57-.34,15.5s-5.27,9.21-8.51,13.42c-1.81,2.35-3.68,4.75-6.23,6.26a5.94,5.94,0,0,1-4.75.86c-1.58-.52-2.74-2.41-2-3.91a9.76,9.76,0,0,0,4.62-1.31c.37-1.34-1.43-2.45-2.74-2a5.21,5.21,0,0,0-2.64,3.07,7.6,7.6,0,0,1-2.25,3.44,9.82,9.82,0,0,0-4-8.95c-1-.74.16-2.53,1.44-2.46s2.27,1.06,3.36,1.74,2.76.91,3.44-.17c1.86-3,7.14,1.91,9.87-.33-3.68-4-10.28-1.36-15.59-2.41-2.2-.44-4.22-1.54-6.42-2s-4.86.08-5.95,2m-6.32-24.84a2.59,2.59,0,0,0,3.21,3.24,16.55,16.55,0,0,0,1.7-1.13,7,7,0,0,1,2.91-.72l12.16-1.18c5.66-.55,11.59-1.06,16.84,1.12a5.62,5.62,0,0,0,3.11.64c1.06-.2,2-1.29,1.65-2.3-.28-.78-1.17-1.14-2-1.41-3.07-1-6.28-2.08-9.5-1.64-1.46.2-2.86.7-4.29,1-8.48,2-18-1.52-25.82,2.33m19.86,6-12.85,0a2.56,2.56,0,0,0-1.66.38c-.74.6-.57,1.76-.34,2.69a172.66,172.66,0,0,0,25.42-1.69c-3.33-1.29-7-1.32-10.57-1.33M134,173.07a.94.94,0,0,0,.67.34c.39,0,.56-.5.77-.84,1.41-2.3,6.31.05,7.16-2.52a27.26,27.26,0,0,0-11.31,0,22.41,22.41,0,0,0,2.71,3m2.51-22.26a5.79,5.79,0,0,0,6.21-.92,11.51,11.51,0,0,0-6-.73,2.56,2.56,0,0,0-.23,1.65m-26.2.38c.75.61,1.7-.9,1.06-1.62s-1.79-.61-2.72-.36a4.16,4.16,0,0,1-1.63,3.08,3.55,3.55,0,0,0,2.84-1.06m10,13c-1.67-.36-3.93-.43-4.54,1.16l5.07.14a1,1,0,0,0-.49-1.37m21.5,2.81a2.46,2.46,0,0,0-2.55.58,2.81,2.81,0,0,0,3.7,0c.27-.47-.59-.73-1.11-.6m-33-5.43a1,1,0,1,0,1.82-.41,1.14,1.14,0,0,0-1.86.4m24.72-11.73-2.64-.43a1.45,1.45,0,0,0,2.26.93m-13.29,21.8c-.51-.2-1.27.15-1.15.68a2.44,2.44,0,0,0,1.61.19c.4-.27,0-1-.45-.88Z"/><path d="M233,149.37c7.72,1.16,15.82,2.93,21.52,8.25-8.88,1-18.66-4.32-26.37.22l13.74,1.6q-6.73,1.39-13.34,3.33a32.77,32.77,0,0,1,18.64,5.49c4.3,2.88,10.68-.52,15.08,2.2a9.81,9.81,0,0,0-3.06,3l12.14,5.55-18.43-2.88c-5.36-.84-10.76-1.68-15.84-3.57.89-.74.34-2.33-.7-2.83a5.25,5.25,0,0,0-3.4,0l-7.62,1.74,8.24,3.08-24.63,4.21a1.49,1.49,0,0,0-1.08.52,1.43,1.43,0,0,0,.21,1.41,15.26,15.26,0,0,0,14,7.5,7.76,7.76,0,0,1,3.43.14c1.07.43,1.86,1.83,1.18,2.77a2.51,2.51,0,0,1-1.27.79c-4.48,1.54-9.5.26-13.61-2.1s-7.53-5.71-11.19-8.7c-3.35-2.73-6.95-5.22-9.75-8.51s-4.77-7.61-4.08-11.88c.5-3.08-3.3-4.88-6.33-5.62L167,151.88c5.36-5.08,15,4.84,21,.64-2-1.5-4.05-4.79-1.86-6a3.85,3.85,0,0,1,2.29-.25L197,147c1.84.17,4.35,1.54,3.38,3.12-1.58,2.56-6.88-3-7.9-.2.27,2.56,3.57,3.52,6.12,3.18s5.22-1.36,7.59-.37c9.51,4,20.34,1.39,30.31-1.21a235.47,235.47,0,0,1-31.15-2.28,2.2,2.2,0,0,1-1-.3c-.79-.56-.45-1.91.38-2.41a4.44,4.44,0,0,1,2.83-.29l10.06,1.17c5.12.6,10.23,1.19,15.33,2m-9.65,21.69a1.63,1.63,0,0,0-1.06-.42,68.87,68.87,0,0,0-7.73-.6c-.91,0-2,.08-2.43.88a1.74,1.74,0,0,0,.8,2.17,4.71,4.71,0,0,0,2.48.46,46.06,46.06,0,0,0,6.09-.44c1.13-.16,2.6-1.19,1.86-2.05m3.51-11.72a61.16,61.16,0,0,0-15-.06c.23,1.63,2.37,2,4,2l10.7,0a3.53,3.53,0,0,0,.25-1.93M209.7,166.6a1.29,1.29,0,1,0,2.53.07,2.54,2.54,0,0,0-2.27,0m20.15.51a2.17,2.17,0,0,0-3.45-.28,4.16,4.16,0,0,0,3.15.4Z"/><path d="M170.28,274.59c.17-1.46,2.16-2.09,3.48-1.44a6.23,6.23,0,0,1,2.63,3.42c.83,2,1.39,4.49-.07,6s-4.29,1.74-4.49,3.76c1.47.56,3.07,1.14,4.6.72s2.71-2.31,1.83-3.62a2.37,2.37,0,0,1,.92-3.32c1.86.1,2.45,2.54,2.5,4.41s.57,4.3,2.43,4.47l9.54.85a3.64,3.64,0,0,1,2.35.79c1.12,1.14.19,3.21-1.26,3.89s-3.13.46-4.72.51c-4.78.16-9.11,2.79-13.78,3.84-7.63,1.71-15.73-1-22.06-5.6a4.48,4.48,0,0,1-2.1-2.67,58.77,58.77,0,0,1-.68-8.41,18,18,0,0,1,8.11-.58c2.85.45,6.22,1.45,8.29-.56-.5.46.41,1.28,1,1a2.15,2.15,0,0,0,.82-1.76l.67-5.71m-4.41,13.35a2.67,2.67,0,0,0,1.41-1.4c.19-.65-.36-1.51-1-1.34a14.55,14.55,0,0,1-7.59,0,6.55,6.55,0,0,0-3.56-.45c-1.16.35-1.92,2-1,2.79a4.9,4.9,0,0,1,5.26.46,2.44,2.44,0,0,0-2.36,2.43A19.59,19.59,0,0,0,165.87,287.95Z"/><path d="M151.82,247.74c-1.11-1.84-.86-4.16-.57-6.3s.54-4.45-.58-6.29-4.2-2.52-5.34-.7l-16.51,26.26a3.18,3.18,0,1,0-6.15.41c-2.26-.75-1.56-4.35.33-5.8s4.49-2.06,5.85-4L141,234c1.23-1.75,2.59-3.61,4.63-4.26,2.7-.87,5.59.7,7.69,2.61s3.9,4.26,6.46,5.49c5.25,2.52,12-.44,17.11,2.37-1.18.5-2.47,1.13-2.91,2.33s.83,2.86,1.94,2.22q8.64-5,17.73-9.1c1.61-.73,3.42-1.45,5.09-.86s2.52,3.19,1,4.12c-.82-.78-2.64-1.21-2.66-.08,0,2.18-2.3,3.7-4.45,4.07s-4.39,0-6.52.47c-4.21.9-7.2,4.87-8.29,9-.4,1.53-2.45,1.94-4,1.52s-2.94-1.34-4.52-1.35-3.29,1.63-2.51,3a3.19,3.19,0,0,0,1.72,1.18c5.24,2.07,11,4.16,16.36,2.37,4.3-1.44,8.57,2,11.79,5.22a56.16,56.16,0,0,0-23.1-2.68c-2.54.24-5.27.62-7.5-.61-4.56-2.5-10.37,3.77-15,1.43,2.81-2.46,8.26-2.81,8.48-6.55.23-3.9-5.71-4.84-7.73-8.19m7.37-7.48a4.74,4.74,0,0,1-2.72,1.4c-.82.12-.69,1.5.06,1.86a4,4,0,0,0,2.43-.07,7.63,7.63,0,0,1,7.34,2.87c.76,1,2.59.56,3.05-.62a2.82,2.82,0,0,0-1.29-3.24,5.85,5.85,0,0,0-3.66-.63c-1.26.12-2.5.41-3.76.43A4.17,4.17,0,0,0,159.19,240.26Z"/><path d="M177.32,269.39c-4.12.86-8.43,2.87-12.35,1.33a18.58,18.58,0,0,0-17.27,2.09,5.65,5.65,0,1,1-6.29-9.38,11.39,11.39,0,0,1,4.5-2,3.89,3.89,0,0,1,4.14,2,7.79,7.79,0,0,0-6.63,6.09c9.6-5.31,21.08-5.7,32.05-5.69,5.5,0,11.09.1,16.32,1.77,5.6,1.79,10.86,5.37,16.73,5.08,1.45-.07,3.27-.86,3.12-2.31-.29-2.75-6.31-1.2-6.47-4,4.64-1.79,10.31,1.31,11.94,6s-.48,10.22-4.43,13.24c0-3.25-2.15-6.19-4.83-8s-5.86-2.78-9-3.68c-7-2-14.4-4.09-21.56-2.59m38.3,3.3a7,7,0,0,0-3.83-1A6.1,6.1,0,0,0,213,275.4a4.6,4.6,0,0,0,2.44-2.65Z"/><path d="M330.5,387.72c1.21,1.13,2.49,2.42,2.61,4.07.07,1.06,1.21,1.66,2.1,2.25,5,3.3,4.86,10.85,8.77,15.37-3.79.23-6-4-8.19-7.09-2.53-3.6-6.09-6.31-9.26-9.34a57.13,57.13,0,0,1-8.94-11A28.52,28.52,0,0,0,305,371.09a3.61,3.61,0,0,1-1.93-1.4c-.37-.72.13-1.86.93-1.73,1.1,2.69,4.72,2.89,7.49,3.8,3,1,5.44,3.22,7.75,5.4Z"/><path d="M364.51,342.25c1.2.84,2.49,1.79,2.85,3.21.45,1.76,1.78,3.13,2.87,4.58s2,3.31,1.43,5c-2.39.64-4.9-.62-6.78-2.22s-3.44-3.61-5.53-4.94a19,19,0,0,1-3.23-2.1,14.6,14.6,0,0,1-1.43-1.81c-2.5-3.35-6.17-5.61-9.86-7.56a3.54,3.54,0,0,1-1.94-1.76c-.9-2.79-6.27-1.44-7.19-4.22l12-1.23a9.9,9.9,0,0,0,1.4,4.61c2.5-.43,4.88,1.09,7,2.54Z"/><path d="M51.51,358.41c2.22-.3,3.23,2.68,3.36,4.91,1.51,24.76-.7,49.58-2.91,74.29-.15,1.66-.41,3.53-1.75,4.53-3.39-22.51,5.15-45.44,2.54-68.06C52.15,368.86,51,363.63,51.51,358.41Z"/><path d="M181.78,326.24a1.37,1.37,0,0,0-2,.14,4,4,0,0,0-.77,2.08l-8.09-.3a2.71,2.71,0,0,1-1.66-.43c-1.08-.89-.2-2.67.91-3.53a9.46,9.46,0,0,1,8.91-1.37,8.06,8.06,0,0,0,2.89.84c1.32,0,2.43-1,3.66-1.44,3.43-1.31,7.1,1.07,9.83,3.53a68.91,68.91,0,0,1,5.26,5.29c-1.14,2-4.22.82-6.37,1.57-1.81.63-3.39,2.75-5.16,2-1.35-.55-2.06-2.64-3.5-2.37a3.89,3.89,0,0,1-3.91-6Z"/><path d="M46.36,346.29l-1.15-3.75c-.31-1-.87-2.19-1.91-2.19s-1.48.93-2.21,1.47a3.25,3.25,0,0,1-4.61-1.33,4.1,4.1,0,0,1,1.39-4.86A3.52,3.52,0,0,1,40,334.9c.66,0,1.3.25,2,.23s1.39-.46,1.38-1.11c-.08-.89-1.21-1.29-2.09-1.17a9.37,9.37,0,0,1-2.64.39c-.88-.14-1.65-1.28-1-1.92a6.67,6.67,0,0,1,5.23-1.65c1.88.11,3.72.63,5.59.81a30.53,30.53,0,0,0,3.87,0l9.85-.31.16,1.09c-1.66-.19-1.59,2.74-3,3.66a3.18,3.18,0,0,1-1.39.39l-7.59.93a5.85,5.85,0,0,0-6.38-3.82,5,5,0,0,0,5.31,4.73A48.76,48.76,0,0,1,46.36,346.29Z"/><path d="M37,399.79a1.59,1.59,0,0,1-.48.69c-.87.64-2-.54-2.2-1.59a7.38,7.38,0,0,1,.73-5.24c0-1-1.69-1-2.18-.11s-.27,1.94-.39,2.92-1,2.09-1.9,1.73c-1.7-2.34.15-5.48,1.51-8,2.3-4.29,3.2-9.16,4.51-13.84s3.22-9.45,6.93-12.59c1-.83,2.65,0,3,1.18a4,4,0,0,1-1,3.55c-.82,1-1.87,1.76-2.69,2.74-3.34,4-2.1,10-3.9,14.89a31.31,31.31,0,0,0-1.57,4.09C36.71,393.34,38.27,396.81,37,399.79Z"/><path d="M165.31,328.57l-14.6.24a7.7,7.7,0,0,1-3.84-.6,2.65,2.65,0,0,1-1.35-3.28,60.62,60.62,0,0,1,18.61-1.18c1.41.13,2.4,1.47,3,2.77s.91,2.76,1.91,3.77c.55.55-.08,1.6-.86,1.63a2.15,2.15,0,0,1-1.81-1.27C166,330,165.75,329.21,165.31,328.57Z"/><path d="M144.9,348.36c1.58-.32,2-2.31,2.33-3.89s1.47-3.5,3-3c2.56.79.37,6,2.92,6.87a5,5,0,0,1,2.24-2.91c-.93-.56-1.91-1.95-1-2.51a1.6,1.6,0,0,1,.78-.16l8.94-.3a3,3,0,0,1,1.31.15c.64.28,1,1,1.54,1.4a4.72,4.72,0,0,0,3.13.65l8.12-.22a5.51,5.51,0,0,1,2.65.37A1.89,1.89,0,0,1,182,347a92.12,92.12,0,0,0-22.63,1.19,2.75,2.75,0,0,0,1.57,1.95A23.81,23.81,0,0,1,144.9,348.36Z"/><path d="M232.56,264.67c-2.92,0-4.91-2.85-6.36-5.39s-3.06-5.88-1.68-8.6a38.71,38.71,0,0,1-7.48-8.56c-.25-.39-.5-.89-.29-1.31.41-.78,1.59-.14,2.16.53l7.08,8.42c.9,1.07,1.85,2.49,1.26,3.75a1.84,1.84,0,0,0,.95,2.18,17.53,17.53,0,0,0,2.44.9A5.35,5.35,0,0,1,232.56,264.67Z"/><path d="M45.71,488a24.47,24.47,0,0,1-1.32-17.94,12.07,12.07,0,0,1,1.82-3.75c.75,1.89.54,4,.83,6,.43,2.93,2,5.61,2.39,8.54S48.62,487.46,45.71,488Z"/><path d="M302.19,221a1.89,1.89,0,0,1-2.23-.75c-1.28-1.66-.75-4.07.18-5.95s2.22-3.68,2.34-5.77A15.87,15.87,0,0,1,306.4,199c2.21,2.16,1.43,5.81.49,8.75l-3.69,11.59A2.55,2.55,0,0,1,302.19,221Z"/><path d="M26.82,347.53a28,28,0,0,0-2.87-.28,2.3,2.3,0,0,1-2.07-1.71c2-1.41,4.77-.39,7,.66L41.16,352c.65.31,1.46.6,2,.16s1.49.15,1.78.86a8.69,8.69,0,0,0,.77,2.15c.7.91,2,.91,3.17,1.09s2.46,1.06,2.13,2.17c-3.22.87-6.51-.94-9.22-2.88s-5.5-4.2-8.83-4.36C30.57,351.06,29.16,348.18,26.82,347.53Z"/><path d="M297.72,158.84a.91.91,0,0,1-.45.32c-.47.11-.8-.43-1-.87l-4.6-11.53c-.56-1.4-1.12-2.94-.63-4.36a6.16,6.16,0,0,1,2.71,2.71l2.5,3.87a16.6,16.6,0,0,1,2.4,4.79A5.62,5.62,0,0,1,297.72,158.84Z"/><path d="M90.5,165.44a5.48,5.48,0,0,1-4.06-.61c1,.18,1.82-.83,2-1.81s-.07-2,0-3c.3-3.12,3.76-5.82,2.67-8.75a3,3,0,1,1,2,5.49c-1.59.32-2.1,2.36-2,4S91.55,164.2,90.5,165.44Z"/><path d="M311.66,195a9.8,9.8,0,0,1,1-13.11A11.05,11.05,0,0,1,311.66,195Z"/><path d="M113.33,247.44a29.25,29.25,0,0,1,.39-8.52,2.13,2.13,0,0,1,.6-1.3,1.52,1.52,0,0,1,2.06.47,4.41,4.41,0,0,1,.61,2.26l.52,6.24c.14,1.69-.28,4-2,4C114.11,250.62,113.47,248.85,113.33,247.44Z"/><path d="M231.21,180a8.43,8.43,0,0,1-2.75,2.26c-2.64,1.36-5.77,1.22-8.74,1.06l-6.32-.36c-.5-.57.52-1.23,1.28-1.31Z"/><path d="M300.68,60.65c1.28,0,1.94,1.5,2.35,2.71a38.75,38.75,0,0,0,6.27,11.53c-1.43,1.07-3.37-.41-4.39-1.87A24.22,24.22,0,0,1,300.68,60.65Z"/><path d="M32.45,309.57c1.39-.39,3.16-.56,4,.61a18.66,18.66,0,0,1-14.35,4.26A34.34,34.34,0,0,1,32.45,309.57Z"/><path d="M196.1,347.49c.82,0,1,1.35.32,1.86a3.07,3.07,0,0,1-2.38.29l-3.59-.54c0-1.44-2-1.81-3.4-1.77s-3.41-.51-3.23-1.93c1.53-1.58,4.17-1.19,6.17-.26S193.9,347.43,196.1,347.49Z"/><path d="M88.92,181.12c-1.28-.36-.6-2.26-.68-3.59-.08-1.54-1.5-2.61-2.45-3.83s-1.16-3.46.31-3.92c1.23,1.82,3.08,3.16,4.29,5s1.52,4.63-.21,6A1.49,1.49,0,0,1,88.92,181.12Z"/><path d="M232.9,499.43a90.74,90.74,0,0,1,4.36-13,1.16,1.16,0,0,1,.34-.52c.55-.4,1.23.36,1.35,1,.54,2.91-2.18,5.43-2.63,8.36-.18,1.2,0,2.49-.52,3.59S233.49,500.49,232.9,499.43Z"/><path d="M207.34,231.59a13.17,13.17,0,0,1-.18-9.8A7.49,7.49,0,0,1,207.34,231.59Z"/><path d="M152,140.63c-2.21.7-4.95,1.28-6.57-.37-.58-.59-1.09-1.48-1.91-1.43a21.39,21.39,0,0,1-10.61-2.19c.3-.62,1.16-.63,1.84-.56,4,.46,8.22,1,11.73,3,.89.52,2,.25,3,.19S151.85,139.61,152,140.63Z"/><path d="M142.8,336.27c-.75-1.8-1.91-3.9-3.87-3.93-.78,0-1.76.27-2.21-.38s.14-1.44.83-1.61a3.35,3.35,0,0,1,2.06.4l6.31,2.71Z"/><path d="M53,484.41A20.25,20.25,0,0,1,57,490.13a10.61,10.61,0,0,1,1,3.59A9.24,9.24,0,0,1,53,484.41Z"/><path d="M41.89,349.08c-.9-.15-2.09-.86-1.62-1.64q3.85-.18,7.71-.08a3.49,3.49,0,0,1,.65,2.83Z"/><path d="M242.27,476.6a3.63,3.63,0,0,1,.68-1.27,1.86,1.86,0,0,1,.87-.52A11.79,11.79,0,0,1,239.7,485,78.61,78.61,0,0,1,242.27,476.6Z"/><path d="M116.23,143.05h-2.3a2.91,2.91,0,1,1,5.8-.61,4.21,4.21,0,0,1-3.48.55Z"/><path d="M105.7,237.24a6,6,0,0,0,.46-3.27,1.59,1.59,0,0,1,1.17-.22,7.9,7.9,0,0,1-.69,7.69,9.38,9.38,0,0,1-.95-4.19Z"/><path d="M309.89,213.59c-.78-.1-.66-1.27-.36-2a15.31,15.31,0,0,0,1.11-6.4,5.57,5.57,0,0,1,.1,8A1.13,1.13,0,0,1,309.89,213.59Z"/><path d="M101.9,88.9c-.6-1.3,0-2.81.68-4.1L105,80c.89.12.84,1.43.5,2.26A33.14,33.14,0,0,1,101.9,88.9Z"/><path d="M280.56,388.33c.52-1.13,2.36-.19,2.61,1a3.42,3.42,0,0,1-2,3.74A4.62,4.62,0,0,1,280.56,388.33Z"/><path d="M210.9,334.65a30.14,30.14,0,0,1-8.66-1.42,34.4,34.4,0,0,1,8.41-.34A3.28,3.28,0,0,1,210.9,334.65Z"/><path d="M254.79,166.08a1.16,1.16,0,0,1-.13,1.79,3.31,3.31,0,0,1-2,.48,4.27,4.27,0,0,1-2.23-.36,1.49,1.49,0,0,1-.7-1.93l4.06-.15A1.67,1.67,0,0,1,254.79,166.08Z"/><path d="M134.31,370.84a1,1,0,0,1,1.39-.25,2.81,2.81,0,0,1,.89,1.31l2,4.66c-.76.7-1.84-.4-2.27-1.35Z"/><path d="M15,320a1.72,1.72,0,0,1-1.55,2.13,3.9,3.9,0,0,1,3.46-5.2,6,6,0,0,1-2,2.88Z"/><path d="M242,163.38a9.48,9.48,0,0,1,.47-2.62,11.75,11.75,0,0,1,2.42.83,1.91,1.91,0,0,1,1,.84c.34.77-.42,1.66-1.26,1.78a4.13,4.13,0,0,1-2.39-.67Z"/><path d="M272.65,289.59c-.19-1.52-.11-3.49,1.32-4a7,7,0,0,1-1,6.7l-.56-2.63Z"/><path d="M63.85,315.09a2.44,2.44,0,0,1,1.2.35,1.25,1.25,0,0,1,.41,1.45l-6.58-.49C59.86,314.87,62.05,314.89,63.85,315.09Z"/><path d="M88.17,118.29c-1.06-1.23-2.17-2.64-2.12-4.26a1.45,1.45,0,0,1,.77-1.38A5.79,5.79,0,0,1,88.17,118.29Z"/><path d="M66.86,358.38a2.86,2.86,0,0,1,.52-4.23,8.19,8.19,0,0,1,.44,5.94l-1.25-1.44Z"/><path d="M197.9,344.61a18.65,18.65,0,0,1-.62-6.26c0-.54.2-1.21.73-1.34A11.53,11.53,0,0,1,197.9,344.61Z"/><path d="M133.69,332.64a3.35,3.35,0,0,1-.55,3,3,3,0,0,1-1.66-3.51,1.65,1.65,0,0,1,2.28.46Z"/><path d="M133.7,491.06l.91-1.81a3.47,3.47,0,0,1,.16,4.89,2.7,2.7,0,0,1-.92-3Z"/><path d="M241.42,261.89a2.85,2.85,0,0,1-.27,4.26,3.15,3.15,0,0,1,.17-4.53Z"/><path d="M334.33,471.06l-1.34.4a4.7,4.7,0,0,1,1.07-4.57,3.37,3.37,0,0,1,.16,4Z"/><path d="M58.3,300.64a8.1,8.1,0,0,1-6.34.61A7,7,0,0,1,58.3,300.64Z"/><path d="M302.86,136.73c.3-.57,1.22-.48,1.64,0a3,3,0,0,1,.47,1.84,1.82,1.82,0,0,1-.18,1.07c-.46.71-1.69.36-2.05-.41a3.65,3.65,0,0,1,.08-2.49Z"/><path d="M346.05,375.14c-.16-1.1-.22-2.45.7-3.08a11.38,11.38,0,0,1,1.55,3.57,1.71,1.71,0,0,1-2.31-.48Z"/><path d="M358.44,333a6.75,6.75,0,0,1,4.46,0,2.86,2.86,0,0,1-4.81-.05Z"/><path d="M183.78,404.61v1.91a1.57,1.57,0,0,1-1.8-1.07,4.55,4.55,0,0,1,0-2.29,1.57,1.57,0,0,1,1.8,1.46Z"/><path d="M315.16,392a1.8,1.8,0,0,1-1-1.31,2.36,2.36,0,0,1,3.26,0,1.47,1.47,0,0,1-2.3,1.33Z"/><path d="M99.47,78.47c-1-1.15.52-3.28,1.94-2.71a2.44,2.44,0,0,1-2,2.71Z"/><path d="M189.87,286.35a2.72,2.72,0,0,1-3.44-1.85,2.56,2.56,0,0,1,3.55,1.81Z"/><path d="M156.52,392.65a8.72,8.72,0,0,1,1.16,3.22,1.64,1.64,0,0,1-1.19-3.05Z"/><path d="M314.27,143.3a1.43,1.43,0,0,1-1.78,1.14,2.89,2.89,0,0,1,.61-2.79,1.24,1.24,0,0,1,1.06,1.61Z"/><path d="M202,420.51a1.54,1.54,0,0,1,1.14-.66,2.22,2.22,0,0,1,1.2,2A1.53,1.53,0,0,1,202,420.5Z"/><path d="M307.71,226a1.29,1.29,0,0,1-1.23,1.15,1.92,1.92,0,0,1-.66-2.06l1.14-.7a1.57,1.57,0,0,1,.68,1.61Z"/><path d="M308.1,144.23a1.13,1.13,0,0,1-.2,1.12,2.66,2.66,0,0,1-2.62-.64,2.36,2.36,0,0,1,2.85-.48Z"/><path d="M121.39,142a3.15,3.15,0,0,1,1.63,1.26,1.59,1.59,0,0,1-2.7-.52,1.25,1.25,0,0,1,1.06-.65Z"/><path d="M299.95,135.06c-.51.19-1.27-.13-1.16-.66l1.63-.7a1.86,1.86,0,0,1,.7,1.17,1.55,1.55,0,0,1-1.16.21Z"/><path d="M72.85,374.55a1.27,1.27,0,1,1,1.32,2.14,1.51,1.51,0,0,1-1.13-2Z"/><path d="M120.14,250.57l0,2.31c-.69-.72-1.12-2.27-.13-2.38Z"/><path d="M109.29,227.25l.77-.47a1.61,1.61,0,0,1,1.32,1.63,1.59,1.59,0,0,1-2-1Z"/><path d="M243.22,463.28l0-2.29a1.45,1.45,0,0,1,.19,2.31Z"/><path d="M316.79,179.55c.28-.21.69.17.64.52a1.36,1.36,0,0,1-.65.8.73.73,0,0,1,0-1.32Z"/><path d="M370,431.51l-.45-1.44a1.41,1.41,0,0,1,1.12.57c.21.38-.2,1-.58.77Z"/><path d="M332.25,472.59a1.29,1.29,0,0,1-.09,1.87,2.11,2.11,0,0,1,0-1.87Z"/><path d="M364.84,362l-1-.75c.3-.68,1.59,0,1.2.63Z"/></g></svg>