<svg id="Layer_1" data-name="Layer 1" xmlns="http://www.w3.org/2000/svg" viewBox="0 0 500 500"><title>Artboard 19</title><g id="Shape_18" data-name="Shape 18"><path d="M0,56q249.83-.26,499.83-.17.26,116.38.17,232.93a8.17,8.17,0,0,1-.66-2.44q-.39-70.71-.71-141.42c0-8.62-.09-17.24,0-25.86.14-10.82.47-21.65.63-32.47a33.57,33.57,0,0,0-.66-5.23c-.13-.87-.32-1.73-.49-2.59-.06.89-.08,1.79-.2,2.68-.73,5.44-1.49,10.87-2.24,16.31a79.78,79.78,0,0,0-1.16,8.81c-.34,13.92-.41,27.85-.79,41.78-.15,5.56-1.31,11.12-1.2,16.67.11,5.36,1.64,10.68,1.84,16a143.13,143.13,0,0,1-.7,17.27c-.4,4.8-1.49,9.55-1.91,14.35-.64,7.26-1.05,14.55-1.37,21.84-.1,2.3.63,4.64.59,7-.1,5.81-.69,11.62-.57,17.42.14,6.48.94,12.95,1.27,19.43.2,3.94-.23,7.91.09,11.84.75,9.29,1.78,18.55,2.71,27.82.45,4.52,1.06,9,1.34,13.57.37,6.1.53,12.22.67,18.33,0,.61-.69,1.24-1.05,1.85-.55-.69-1.53-1.34-1.58-2.06-.37-4.61-.31-9.25-.81-13.84-.69-6.31-1.76-12.59-2.65-18.88-.09-.67,0-1.37-.06-2-.91-9.16-1.88-18.31-2.73-27.48-.35-3.8-.33-7.64-.74-11.43-.81-7.56-1.85-15.1-2.71-22.65-.34-3-.41-6-.72-9-.88-8.36-1.85-16.71-2.73-25.06-.32-3-.48-6-.7-9-.69-9.25-1.32-18.51-2.09-27.76-.59-7.08-1.42-14.14-2-21.21-.76-8.79-1.41-17.59-2.08-26.38-.7-9.14-1.37-18.28-2.08-27.41-.15-1.87-.52-3.71-.66-5.58a37.38,37.38,0,0,1,0-4.6c.13-2.46-.39-4-3.39-4.26-3.81-.35-5.72-3.57-7.53-6.45-.88-1.39-.86-3.31-1.57-4.85-1.2-2.6-3-4.26-6.28-3.82-9.51,1.26-19,2.45-28.57,3.45-6.45.67-12.94,1.13-19.42,1.38-10.13.38-20.27.42-30.4.75q-17.48.56-34.94,1.38c-7.86.36-15.72.75-23.56,1.4q-13.76,1.13-27.47,2.76c-8.17,1-16.26,2.84-24.44,3.24-7.36.36-14.78-.7-22.18-1.22-5.45-.38-10.88-1.2-16.33-1.31-17.72-.37-35.44-.78-53.16-.63-9.6.08-19.2,1.25-28.8,2-5.33.4-10.65,1.1-16,1.33-9.09.38-18.2.41-27.29.76-8.32.33-16.63.93-24.95,1.34-5.92.29-11.88,1-17.75.55A25.66,25.66,0,0,0,41.5,98.71a9.68,9.68,0,0,1-4.31,1.18c-4,.17-4.59.64-4.76,4.56a3.18,3.18,0,0,0,.25.92c.16-.34.3-.69.49-1a8.8,8.8,0,0,1,1.25-1.88,1.84,1.84,0,0,1,1.49-.41c.3.08.64.81.61,1.23-.25,3.67-.51,7.34-.91,11-.26,2.38-.89,4.73-1.1,7.11-1,10.65-1.94,21.3-2.75,32-.41,5.41-.31,10.86-.79,16.26-.25,2.87-1.27,5.66-1.89,8.5a4.88,4.88,0,0,0-.08,2c1.34,6.06-.41,12.1-.14,18.18a141.69,141.69,0,0,1-.64,19.36c-.88,9.43-2.35,18.81-3.32,28.24-.37,3.64,0,7.35-.09,11a41.42,41.42,0,0,1-.75,6.94c-.13.64-1.29,1.36-2.08,1.5a22.9,22.9,0,0,1-4.12.07c-5.83,0-6.33.23-6.74,6-.34,4.69-.06,9.42-.07,14.13,0,2.15,1.13,3,3.13,2.59A1.47,1.47,0,0,0,15,287c-.12-4.76-.75-9.55-.35-14.25.34-3.91,4.05-2.47,6.33-2.33,1.51.09,3.4.78,2.65,3.7s0,5.95-.22,8.92a8.33,8.33,0,0,1-1.47,4.18c-1.73,2.32-4,4.23-5.66,6.61-.84,1.24-.79,3.11-1,4.71,0,.18.82.74,1.14.65a5,5,0,0,0,2.23-1.1q6.36-6.52,12.58-13.17c1-1.1,1.72-2.5,2.64-3.72a6.28,6.28,0,0,1,1.29-1c.1.64.5,1.43.26,1.88-1.19,2.28-2.05,5.16-4,6.52-3,2.15-3.78,6.82-8.23,7.22-.16,0-.32.51-.39.81-.74,2.74-1.7,5.29-4.42,6.79a2.4,2.4,0,0,0,.33,2c3,2.62,3.81,5.51,2.84,9.56-1.05,4.38-1,9-1.53,13.53-.84,6.75-1.85,13.49-2.72,20.24-.33,2.54-.47,5.09-.71,7.64-.92,10-1.87,19.92-2.73,29.89a37,37,0,0,0,0,6.54c.22,2.41,2.77,4.31,4.93,3.64,5.85-1.82,11.53-.93,17.19.76a3.26,3.26,0,0,1,1.52,1.27c1.39,2,3.42,2.48,5.66,2.91,1.61.3,3,1.77,4.62,1.89a40.63,40.63,0,0,0,7.29-.59c4.06-.44,8.12-1,12.19-1.35,9.94-.76,19.88-1.52,29.83-2.06,7.82-.42,15.69-.22,23.5-.81,7.12-.54,14.18-1.81,21.28-2.65,3.11-.37,6.25-.43,9.36-.72,9.39-.89,18.76-2.21,28.17-2.64,10-.46,20.07-.08,30.11-.13,1.4,0,2.8-.62,4.2-.63,9.31-.06,18.62-.1,27.93,0,4.31,0,8.63.39,12.93.68,2.09.14,2.87-.7,2.71-2.76-.73-9.25-1.4-18.51-2.08-27.76,0-.34,0-.69,0-1-.23-10.82-.54-21.65-.67-32.47-.28-23-.44-46-.73-69-.07-5.54-.6-11.07-.63-16.61-.09-15.09,0-30.19,0-45.29-.17-25.76-.48-51.53-.63-77.29,0-4.88.56-9.77.6-14.66,0-3.12-.45-6.24-.65-9.36a16.9,16.9,0,0,1,.12-2.15l2.8.26a8.05,8.05,0,0,0-.61,1.71,67,67,0,0,0-.87,8.59c.08,8,.37,15.9.65,23.85.16,4.54.61,9.08.63,13.62,0,3.81-.59,7.62-.59,11.44s.47,7.47.62,11.21c.11,2.68,0,5.36,0,8,0,7.74-.06,15.48,0,23.22q.3,34.91.7,69.83c.13,10.48.41,21,.69,31.44.15,5.69.59,11.38.63,17.07,0,4.08-.7,8.17-.57,12.24.21,6.48.89,13,1.3,19.43.72,11.32,1.48,22.64,2,34a58.91,58.91,0,0,1-.66,9.36c-.27,2.4.28,3.24,3,3.18,17.87-.38,35.75-.54,53.62-.76,2,0,4,0,6,0q16.58-.33,33.16-.69c8.41-.2,16.82-.45,25.23-.68,8.18-.23,16.36-.35,24.54-.73,4.42-.21,8.81-1,13.23-1.3,2.11-.17,4.24.06,6.36.05,4.55,0,9.1,0,13.64-.1q12.79-.28,25.57-.7c2-.07,4-.79,5.91-.57,2.28.26,4.92-1.46,7,1.8.68,1.09,4.55.24,7,.16,1.94-.07,3.35.21,4.27,2.35a5.08,5.08,0,0,0,3.35,2.41c3.31.63,4-.36,4.14-5a17.63,17.63,0,0,1,.41-2.42c.55.92,1.49,1.81,1.57,2.77.21,2.78,0,5.59.09,8.39.19,6.46.47,12.91.67,19.37.25,8.18.42,16.36.73,24.54.08,2-.18,3.21-2.63,2.82-1.86-.3-3.77-.28-5.65-.41,1.52-1.06,3.07-2.06,4.52-3.2.46-.36.63-1.08.93-1.63a8.2,8.2,0,0,0-1.45.85c-4.34,3.89-9.41,4.46-15.1,4.46Q239.81,444,.17,444.08-.09,250.12,0,56m487.93,341.9c-3.1.23-6.2.43-9.29.72-.49,0-.94.54-1.4.82a4.07,4.07,0,0,0,1.39.5c2-.08,4.07-.39,6.11-.38,2.68,0,5.35.29,8,.36.33,0,.68-.55,1-.84-.36-.4-.68-1.09-1.07-1.13-1.35-.14-2.73-.05-4.79-.05m-221.38,6.21c.85-.16,1.7-.29,2.54-.49.19,0,.33-.31.49-.47-.23-.14-.45-.4-.69-.41-4.92-.25-9.84-.49-14.76-.68-.33,0-.68.34-1,.52.36.28.7.77,1.08.8,3.89.28,7.78.49,12.37.72m-246.9-6.9c.23.92.33,2.56.7,2.63a13.85,13.85,0,0,0,3.78-.33c-1-.54-2.05-1.05-3.06-1.62a3.58,3.58,0,0,0-1.43-.68m-.34-115.52.22,2.29c.15-.77.34-1.53.46-2.3.25-1.72.55-3.44.66-5.17a11.73,11.73,0,0,0-.43-2.64,9.29,9.29,0,0,0-.87,2.35c-.14,1.58,0,3.18,0,5.46m4.48-63.1c-.34,2.84-.71,5.68-1,8.52,0,.34.25.71.39,1.06a4.88,4.88,0,0,0,.27-.92,67.13,67.13,0,0,0,.35-8.66m-7.24,181c-.56-.79-1.1-1.62-1.71-2.37-.21-.25-.63-.33-1-.49l.59,4.13a3.43,3.43,0,0,0,2.07-1.28M138.28,61.32l.31-2.76-2.73,1.25a7.28,7.28,0,0,0,2.41,1.51M8.62,402c.11-.29.24-.58.34-.88.46-1.4.93-2.79,1.36-4.2,0-.08-.25-.24-.39-.37q-.83,2.38-1.65,4.76c0,.1,0,.23.34.68m9.31-90.69-.93-3c-.15,1-.31,2-.45,3a2,2,0,0,0,0,.67c.12.56.28,1.12.43,1.67a7.84,7.84,0,0,0,.95-2.33M30.34,128.57l.46,5.06c.08-1.68.16-3.36.23-5a6.55,6.55,0,0,0,0-1.37,4,4,0,0,0-.44-1c-.08.54-.16,1.08-.23,2.3m-5.52,78.62a1.22,1.22,0,0,0,.25.23.34.34,0,0,0,.23,0c.08-2.37.15-4.73.2-7.1,0-.07-.3-.14-.46-.21-.07,2.14-.14,4.28-.21,7.1M463.1,399.95l1.72-.51c-.45-.29-1-.89-1.35-.81a14.83,14.83,0,0,0-2.67,1.1c.53.07,1.07.15,2.29.22M30,135.12l-1,3.18.89.26c.14-.92.28-1.85.41-2.77,0-.11,0-.22-.34-.68M17.24,319.6l-.46-3c-.08,1-.16,2-.22,3a4.27,4.27,0,0,0,0,1c.12.66.3,1.31.45,2,.08-.77.15-1.53.23-3m456.9,79-1.72.45.6.92a2.27,2.27,0,0,0,1.13-1.38m-329-313.79-1,1.47.92.6a4,4,0,0,0,.11-2.07M13.45,128.91l-1,1.47.92.6a4,4,0,0,0,.11-2.07M26.9,186.5l-.23-1.61a3.11,3.11,0,0,0-.44.93,10,10,0,0,0,0,2,3.11,3.11,0,0,0,.44.93c.08-.54.15-1.07.23-2.3M9,329.26l-1.38,1.07.55.65A3.9,3.9,0,0,0,9,329.26m6.9-2.07.4,3c.06-1.05.13-2.11.17-3.16,0-.07-.15-.16-.57.11M15.17,87.88l1.38-1.07L16,86.15a3.9,3.9,0,0,0-.83,1.72m69-5.52.43,1.72.87-.26a2.71,2.71,0,0,0-1.29-1.46M9,105.12l.45.93.93-1.61a1.38,1.38,0,0,0-1.38.69M34.48,59.6,34,61.18l.89.09c0-.67,0-1.34-.4-1.67M24.14,215.46l.47.91a12.84,12.84,0,0,0,.19-1.94,4.51,4.51,0,0,0-.44-1.26C24.29,213.7,24.21,214.24,24.14,215.46Z"/><path d="M388.79,139.08c-1.77,1.31-3.34,2.49-5,3.58-4,2.71-3.89,7.46-5,11.36-.66,2.4,1.14,5.44,1.66,8.22a7.3,7.3,0,0,1-.23,3.23,6,6,0,0,0,1.86,6.54c2.09,1.82,4.16.76,6.1-.65,2.29-1.67,4.76-3.11,6.87-5a4.88,4.88,0,0,0,1.35-3.5c-.3-6-.83-12-1.31-18.05-.67-8.45-1.27-16.91-2.18-25.34-.14-1.32-1.76-2.49-2.72-3.7-.39-.49-1.3-1-1.21-1.35a3,3,0,0,1,1.4-1.76,2,2,0,0,1,1.82.63c1.52,2.69,3.6,5.34,4.12,8.25,1,5.58,1.16,11.31,1.52,17,.53,8.35.89,16.71,1.41,25.06.38,6,.78,12,1.39,18,1,10.22,2.38,20.42,3.37,30.65.5,5.17.41,10.39.77,15.57.21,2.95,1,5.86,1.09,8.81a3.16,3.16,0,0,1-1.89,2.44c-4.71.44-9.46.51-14.19.81q-15.44,1-30.87,2.07c-5.68.4-11.34,1-17,1.35-8.31.53-16.63.89-24.94,1.42-5.83.37-11.65,1-17.48,1.3a46,46,0,0,1-8.67-.67c-2.32-.34-3.05-2.41-1.53-4.07.53-.58,1.56-.71,2.35-1-.18.64-.33,1.28-.55,1.91-.52,1.5,0,2,1.56,1.9,13.43-.72,26.86-1.37,40.29-2.1,7.17-.39,14.33-.9,21.5-1.37,3.2-.21,5.6-1.47,6.9-4.66a23.52,23.52,0,0,1,3.06-4.93,7.45,7.45,0,0,1,2.11-1.39,21.48,21.48,0,0,1,.28,2.29c.09,4.52,2.21,6.27,6.47,5.23,3.26-.79,6.5-1.9,9.4,1,.16.16.81-.22,1.24-.26,4.56-.47,9.12-1,13.69-1.37a4.48,4.48,0,0,0,3.56-6.76,3.34,3.34,0,0,1-.3-2.09c1.19-5.7.92-11.39-1.94-16.38-1.22-2.13-.5-3.57,0-5a20.38,20.38,0,0,0,0-12.6c-.84-2.93-.78-6.13-1.08-9.22-.26-2.66-.36-5.34-.73-8s-2.26-1.38-3.47-.89c-5.93,2.37-9.3,6.77-10.34,13.11a80.2,80.2,0,0,1-2.25,9.06c-1,3.61-6.93,7.39-10.79,7.82-4.73.53-9.36,1.88-14.08,2.52a52.51,52.51,0,0,1-8.81.12c-2.48-.08-4.94-.47-7.42-.61-.26,0-.48.86-.86,1.06a17.46,17.46,0,0,1-2.34.9,7.85,7.85,0,0,0-.33-2c-.23-.53-.8-1.25-1.25-1.27a6.26,6.26,0,0,0-2.16.72c1.1,2.31-.65,1.15-1.28,1s-1.28-.93-2-1c-5.53-.87-7.59-3.2-7.78-9-.11-3.24-3.8-5.4-7.12-5.11-5.16.45-10.38.19-15.57.23a11.35,11.35,0,0,0-2.41,0c-5.87,1.36-10.23-1.87-10-7.82.16-4.42,1.29-8.83,1.15-13.22-.09-2.86-1.47-5.76-2.65-8.48-.93-2.15-.1-3.45,1.7-3.48,2.12,0,2.74-.6,2.65-2.62,0-.62.67-1.34,1.18-1.88a5.26,5.26,0,0,1,1.44-.8,14.33,14.33,0,0,1,.39,1.67,8.56,8.56,0,0,1-.06,1.42c.47-.23,1.23-.35,1.38-.72,1-2.56,3-3.78,5.39-5,1-.53.55-3.93.76-6-.78.53-1.58,1-2.33,1.6s-1.34,1.09-2,1.64c0-.95-.41-2.41,0-2.74,1.15-.87,2.88-1.95,4-1.62,1.37.4,2.46,2.06,3.46,3.34.7.9.89,2.19,1.56,3.12,1.1,1.53,2.49,2.86,3.61,4.38,1.72,2.35,4.15,3.17,6.86,3.43a5.58,5.58,0,0,0,1.72-.4,6.17,6.17,0,0,0-1-1.62c-5.73-4.81-6.84-8.37-4.37-14.85.25-.65,1.23-1,1.87-1.52.07.72.4,1.54.16,2.14a10.18,10.18,0,0,0,2.26,11.36c1.54,1.63,4.41,2.75,2.64,6-.19.35.75,1.55,1.4,2.07a31.66,31.66,0,0,0,3,1.76c1.23.78,2.42,1.63,3.62,2.46-.19-1.5-.37-3-.58-4.49s-.6-3.25-.66-4.89c-.29-7.26-.45-14.52-.74-21.78-.07-1.86-.55-3.72-.59-5.58,0-.54.84-1.1,1.3-1.65.46.54,1.29,1.06,1.33,1.63.15,2.44-.08,4.91.09,7.35.4,5.43.91,10.86,1.47,16.28.33,3.17.87,6.31,1.24,9.47.12,1-.14,2.1.05,3.09.43,2.25,1.29,3.72,3.95,2,3.08-2,6-4.43,10.07-4.11.51,0,1.21-1.4,1.72-2.22,1.74-2.84,3.12-6,5.21-8.49,2.25-2.73,2.43-5.61.91-8.21-.66-1.13-3.29-1.28-5.07-1.52a32.18,32.18,0,0,0-5.35,0,18.33,18.33,0,0,0-3.93.33c-3.4.87-5.79,0-6.54-2.59-.14-.47.25-1.1.4-1.65a4.47,4.47,0,0,1,1.21.58c2.5,2.35,9.36,3.57,12.55,2.22,1.58-.67,2-1.48.65-2.86-4-4.18-8-8.42-12-12.61a2.23,2.23,0,0,0-1.4-.72c-2.59,0-5.16.87-7.65-1.17-.64-.53-2.87,1.21-4.42,1.39-3,.34-6.1.32-9.15.41a4.07,4.07,0,0,1-1.19-.35c.33-.33.63-.91,1-.93,2.85-.23,5.71-.35,8.56-.53,1.33-.08,3.48.22,3.81-.41.82-1.56.8-3.56,1.11-5.38a3.12,3.12,0,0,0-1,0c-3.3,1.2-6.58,2.43-9.87,3.63a10.16,10.16,0,0,1-1.42.31c.24-.33.48-.65.72-1l1.67-2.15a12.08,12.08,0,0,0-2.83-.07c-4.63,1-9.07,2.46-14.07,1.53-3-.55-6.27.63-9.38,1.28-.61.13-2.41,1.32,0,2.11.65.21,1.08,1.08,1.62,1.65a7.68,7.68,0,0,1-2.54.05c-4.29-1.44-4.2-1.48-4.32,3-.14,5.08-.58,10.15-.62,15.23,0,3.58.53,7.16.62,10.75.29,11.36.37,22.73.76,34.09.17,4.85-1,9.64,1.72,14.6,1.62,3,.14,7.59.34,11.45.21,4,1,8,1.11,12,.1,4.7-.28,9.42-.48,14.13a2.66,2.66,0,0,1-.35.84,4.9,4.9,0,0,1-.31-.9c-.7-4.89-1.37-9.77-2.08-14.66-.43-2.92-1.26-5.82-1.28-8.74,0-3.47,2.06-7-.78-10.3,2.5-3.76-2-7.93.69-11.68-2.76-8.19-.87-16.63-1.35-24.95-.38-6.64-.47-13.3-.73-19.95-.2-5.08-.7-10.16-.61-15.23.08-4.07,1-8.12,1.23-12.19.12-2.44.91-5.26-1.8-7.13-.27-.19-.09-1-.12-1.58l1.18,0c5.32-.17,10.63-.42,15.95-.49,2.47,0,5,.27,7.43.41.76,0,2.12.25,2.18.06.89-2.77,2.71-2.47,4.72-1.57s3.53.1,5.4-.58a35.19,35.19,0,0,1,8.35-1.46c2.16-.22,4.37.09,6.55-.06,12.5-.88,25-1.91,37.48-2.69,4.62-.29,9.28.09,13.91-.09,4.23-.16,8.45-.67,12.67-1a8.7,8.7,0,0,1,1.36.1,7.93,7.93,0,0,0-1,1c-2.05,2.82-6,1.73-8.34,4.09a2.83,2.83,0,0,1-2.41.67c-5.52-2-10.59.28-15.77,1.48-.51.12-.91.73-1.36,1.12a7.69,7.69,0,0,0,1.63.21c1.31-.11,2.62-.39,3.93-.45a5,5,0,0,1,1.66.57c-.35.43-.67,1.19-1.06,1.22-2.13.19-4.27.21-6.41.27a8.82,8.82,0,0,0-2.54.1c-1.16.41-1.35.37-2.36-.79-1.58-1.81-4.41-2.54-6.78-3.6-.2-.09-.86.82-1.3,1.27.4.24.79.5,1.2.72s1,.45,1.43.7l2.88,1.52c-1.2,0-2.55.42-3.56,0-2.85-1.18-5.54-2.72-8.33-4-.28-.13-1.11.16-1.17.39a4.92,4.92,0,0,1-6.51,3.41c-2.45-1-3.86-.72-5.34,1.41-.43.62-1.91.8-2.86.7-2.49-.25-2.18,1.28-1.12,2.15,1.49,1.23,3.55,2.72,5.23,2.58,6.32-.53,12.58-1.68,18.87-2.6a.66.66,0,0,1,.34,0l3.75,1.73a18.57,18.57,0,0,1-3.71,1c-5.65.32-11.3.48-17,.75-.7,0-2,.3-2,.52a7.55,7.55,0,0,0,.53,2.49c.06.19.31.33.47.49,4,4,7.89,8,12,11.86.63.6,1.85.57,2.8.83a14.58,14.58,0,0,0-1-3,19,19,0,0,0-2.27-2.67c1.14-.29,2.28-.62,3.43-.86a9.57,9.57,0,0,1,2.61-.32,3.54,3.54,0,0,1,2.1.8c.3.29.14,1.24-.05,1.81-.51,1.54-1.16,3-1.75,4.55l4.58,0a15.92,15.92,0,0,1,2.75,0c2.13.4,2.12-.86,2-2.35a16.28,16.28,0,0,1,.24-2.42c.6.61,1.75,1.26,1.72,1.83-.19,3,1.42,2.54,3.38,2.27a29.05,29.05,0,0,1,5.51,0,9.51,9.51,0,0,1,2.24.69,12.37,12.37,0,0,1-2.14,1c-.84.23-1.94.59-2.6.25-3.35-1.72-6.82-.23-10.21-.59-3-.32-2.31,1.49-1.5,3.12.24.49.8.82,1.19,1.23.79.83,1.57,1.67,2.35,2.5a14.77,14.77,0,0,1,.54-3.14,11.5,11.5,0,0,1,1.69-2.36c.11.76.17,1.53.33,2.28.34,1.56.72,3.11,1.09,4.66,1.7-.71,3.6-1.13,5.05-2.18,4.72-3.43,9.31-7,13.84-10.71.74-.6.81-2,1.44-2.8a2.87,2.87,0,0,1,2-1.23,13.53,13.53,0,0,1,3.3,1.13c-.89.57-1.82,1.08-2.65,1.72a26.81,26.81,0,0,0-2.14,2.11m-46.72,44c-.24-.7-.47-1.41-.75-2.09a3.08,3.08,0,0,0-.63.12c.26.69.51,1.39.81,2.06.06.14.37.17.57.59-.88.34-1.76.68-2.64,1-.26.11-.51.26-.76.39.19.1.37.28.56.28a21.68,21.68,0,0,0,5.08-.12c.58-.13.81-1.76,1.21-2.71a10.45,10.45,0,0,1-1.75.74,2.26,2.26,0,0,1-1.7-.32m24.83-20.69c-1.84,2.68-4.31,5.14-5.38,8.1a157.6,157.6,0,0,0-4.78,17.32c-.43,1.82-.06,3.82-.06,5.74l4.71-1.51c.41-.13.84-.18,1.24-.35a13.33,13.33,0,0,0,7.72-11.56c0-4.3,1.6-6,5.79-6.38a23.33,23.33,0,0,0,2.48-.46,11.22,11.22,0,0,0-1.11-3c-1.9-2.54-4.28-4.77-5.87-7.47-1.41-2.39-2.54-2.63-4.74-.45m-1.38-9.66c-.46.38-1.34.8-1.31,1.14.18,2.1-.42,2.09-2.18,1.33-2.86-1.23-5.37-1-6.25,2.76,0,.21-1.36.13-2.08.18a9.85,9.85,0,0,0,.06-2.21,9.87,9.87,0,0,0-.87-2,15.42,15.42,0,0,0-.46,1.61c-.36,2-.32,4.26-2.92,5-.27.08-.4.72-.53,1.12s-.31,1.12-.46,1.68a14.15,14.15,0,0,0,1.65-.78c.76-.48,1.47-1,2.2-1.58a13.31,13.31,0,0,1,.7,3.13c-.16,7.7-.47,15.4-.62,23.11,0,1.85.11,3.5-2.13,4.32-.48.18-.89,2.27-.65,2.42a5.64,5.64,0,0,0,3.2.94c.36,0,.72-1.65.9-2.58.31-1.61.48-3.25.71-4.87a34.5,34.5,0,0,0,.64-4.87c0-1.74-.57-3.48-.61-5.22-.1-4.16.15-8.34-.09-12.5-.17-2.91.63-4.67,3.59-5.32q4.87-1.06,9.69-2.36a2,2,0,0,0,1.18-1.33c.06-.33-1-1.21-1.07-1.16-2.63,1.81-1-1.51-2.29-1.95m13.1,6.9a12.7,12.7,0,0,0,0-1.71c-.39-2.82-2.55-5.49-.71-8.52.13-.22-.23-.73-.35-1.1a6.15,6.15,0,0,0-1.4.74c-1.08,1-1.91,2.42-3.15,3-3.23,1.54-3.3,1.4-.53,4.18a17.6,17.6,0,0,1,1.43,1.47c.18.23.29.84.17.92-3.18,2.35-.47,3.93.85,5.47a13.39,13.39,0,0,0,3.21,2.09c.17-1.15.38-2.31.49-3.47.08-.79,0-1.6,0-3.09m-72.07,8.62a6.42,6.42,0,0,1,2.05,0c4.07,1.46,3.23-2.27,3.69-3.86.75-2.62-1.51-2.5-3.22-2.36-5.08.41-10.16.92-15.24,1.35-1.14.1-2.31-.11-3.43.07-.53.09-1,.77-1.44,1.18.48.28,1,.81,1.43.79,3.46-.15,6.91-.49,10.37-.63,2.86-.11,5.73-.1,8.59,0,.58,0,1.12.83,1.68,1.27a6.49,6.49,0,0,1-1.87.7c-2.06.09-4.22-.34-6.15.15-1.55.4-2.86,1.83-4.21,2.88-.15.12.1.75.17,1.14.31-.08.8-.06.9-.25,1.45-2.73,4.29-1.28,6.69-2.51m20.34-54.14c-2.82.34-5.65.63-8.45,1.09a1.79,1.79,0,0,0-1.11,1.35c0,.46.66,1.06,1.17,1.31a2.34,2.34,0,0,0,1.68,0c2.74-1.06,5.44-2,8.41-.71a2.28,2.28,0,0,0,1.67-.42,3.73,3.73,0,0,0-.55-2.43c-.52-.5-1.62-.39-2.81-.2m-30,58.28c-.63,1.32-1.68,2.6-1.81,4-.39,4.25-.49,8.52-.54,12.79,0,.62.91,1.25,1.41,1.87a8.47,8.47,0,0,0,.56-2.35c-.12-2.31-.71-4.62-.58-6.91.17-3,.85-6,1-9.37m63.79-23.79a36,36,0,0,0-3.18-4.44c-.55-.58-1.78-.49-2.71-.71,0,.92-.31,2.11.14,2.72a18.23,18.23,0,0,0,3.84,3.82c.38.28,2.74,1.92,1.91-1.39m36.21,23.79c.11-1,.2-2,.36-2.93.13-.8.36-1.59.54-2.39a15.88,15.88,0,0,0-2.06,1.19c-1.15.9-2.21,1.91-3.32,2.87a38.59,38.59,0,0,0,4.48,1.25m-57.59,5.17a2.35,2.35,0,0,0-.49-.19c-.05,0-.2.16-.19.25.14,2.51-1.78,2.69-3.49,3-.66.13-1.41-.11-2.06.06a10.68,10.68,0,0,0-2,1,13.78,13.78,0,0,0,1.83.37,25,25,0,0,1,2.75,0c3.22.59,4.22-.83,3.65-4.51m-34.14-3.1c.51-1.91,1.3-1.58,2.43-.42.35.36,1.2.22,1.82.31,0-.62.14-1.73,0-1.78a13.4,13.4,0,0,0-4.11-.74c-.29,0-.53,1.71-.11,2.63m21.38-54.48a19.91,19.91,0,0,0-.29,3.26,2,2,0,0,0,1,1.49,6.35,6.35,0,0,0,2.27-.15c-.32-.63-.59-1.29-1-1.88a30.43,30.43,0,0,0-2-2.72m-.69,58.62,2.2-4.7c-1.28,1.43-2.65,2.79-3.81,4.31a6.46,6.46,0,0,0-.62,2.3c.63-.52,1.25-1,2.23-1.91m22.07,24.83-5.1.42,4.68,1a4,4,0,0,0,.6.18c.74,0,1.48,0,2.23,0a7.25,7.25,0,0,0-2.41-1.59m20.69-9,1.59-1.86a12,12,0,0,0-2.53.79,38.44,38.44,0,0,0-3.31,2.33,28.13,28.13,0,0,0,4.26-1.26m-45.17-10c-1.61.47-3.22.95-4.82,1.46a4,4,0,0,0,.24.83,40.69,40.69,0,0,0,4.05-.6c.23-.05.35-.65.52-1.68M301.72,156.5l-3.08-1.75a8.35,8.35,0,0,0,.71,2.38,7.19,7.19,0,0,0,1.86,1.44,3.68,3.68,0,0,0,.5-2.07m39.66,37.59c1.24.34,2.46.74,3.71,1,.33.07.74-.27,1.11-.43-.19-.38-.35-1.07-.57-1.09a8,8,0,0,0-4.26.52m22.41,43.1-.88,1.88a27.41,27.41,0,0,0,3.31.13c.25,0,.45-.76.67-1.17a18.69,18.69,0,0,0-3.1-.84m-29-61.38-2.3.92c.78.38,1.6,1.14,2.32,1s1.61-1,2.4-1.48a14.06,14.06,0,0,0-2.41-.49m19.66-27.24c0,.34,0,.68,0,1,0,.69-.09,1.39-.13,2.08l2.67-.12a18.89,18.89,0,0,0-1-2.11,1.87,1.87,0,0,0-1.53-.87M333.1,185.12l-5.45-.07c0,.3.08.88.08.88a29.84,29.84,0,0,0,5.37-.81m-27.93-30-1.43-1.33c.12.54.21,1.1.37,1.63a10.33,10.33,0,0,0,.75,2.05,3.06,3.06,0,0,0,1.14,1.06c.18.1.57-.17.86-.28-.21-.47-.42-.93-.64-1.39a10.52,10.52,0,0,0-1-1.74M359.31,203a2.41,2.41,0,0,0,.86.33c1.07,0,2.15-.17,3.22-.26l-.09-.91-3.3.5c-.11,0-.22,0-.68.35m-15.86-29.66-.47-.91c-.07.76-.13,1.52-.23,2.27-.13,1-.31,2-.46,3,.39-1,.78-2,1.14-3a6.78,6.78,0,0,0,0-1.36m15.86-9.66a3.23,3.23,0,0,1-.67-.73,12.41,12.41,0,0,1-.5-1.55,5.83,5.83,0,0,0-.18,1.59,8.87,8.87,0,0,0,.68,2.07c.11.27.44.44.67.65v-2m-56.55,15.17.22.91a24.76,24.76,0,0,0,1.09-3c0-.19-.72-.58-1.12-.88-.07.76-.13,1.51-.2,3M377.93,181l-.18-1-2.58.61a6.64,6.64,0,0,0,2.76.43m-16.55-18.62,1.46,1.3-.24-2.15a1.36,1.36,0,0,0-1.22.85m17.24,24.83a16.67,16.67,0,0,0-2.29-.29c-.14,0-.29.66-.44,1a4.1,4.1,0,0,0,2.73-.72m-35.17-17.93.24,2.31c.24-.63.47-1.27.73-1.89.08-.2.4-.36.38-.52-.05-.76-.18-1.52-.29-2.28a12.92,12.92,0,0,1-1.07,2.38m-49.66-.69-2.07.73.55,1a3.84,3.84,0,0,0,1.52-1.72m83.79,7.24-2.4.69c-.2.06-.39.15-.58.22a4.54,4.54,0,0,0,.22.45,9.43,9.43,0,0,0,2.76-1.36M372.41,192l2.7.06-.09-.9a11.13,11.13,0,0,0-2.61.84m8.28-15.86c.69,0,1.38,0,2.07,0a5.81,5.81,0,0,0,0-.62,2.4,2.4,0,0,0-2.07.65M319,180.64l.36,1.38,1.36-.52a3.86,3.86,0,0,0-1.72-.85m14.83-7.93c.46-.11,1-.1,1.34-.38s-.09-.78-.16-1.2A3.09,3.09,0,0,0,333.79,172.7Z"/><path d="M104.31,214.6a24.6,24.6,0,0,1,4.84-.29,24.61,24.61,0,0,1,3.1.8c2.25.46,3-.23,3-2.78-.12-25.28-.07-50.56-.07-75.83,0-5-.06-10,.1-15.06,0-.52,1.34-1.35,2.13-1.44,4.85-.57,9.72-1,14.59-1.36.59,0,1.18,1.24,1.91,1.49.53.19,1.34-.22,2-.51a5.8,5.8,0,0,0,1.2-1.06c1.6,2.92,4.29.63,6.43,1.21a6.35,6.35,0,0,0,5.12-1.37c3.92-3.67,8.54-3.4,13.29-3.33,2.31,0,4.63-.57,7-.61,5.28-.1,10.58.13,15.85-.07,9.12-.33,18.23-.89,27.35-1.34a5.14,5.14,0,0,1,2.38.07c.64.33,1,1.23,1.44,1.88a5.48,5.48,0,0,1-1.81.77c-3.6.07-7.2,0-10.8.07-1.4,0-2.79.51-4.2.64a88.56,88.56,0,0,1-9.14.66c-5.12-.05-10.23-.55-15.34-.58a67,67,0,0,0-8.24.86c-.86.1-2,.72-2.52.39-2.78-1.67-5.68-.4-8.49-.58s-4.22,1.43-4.33,4.34c0,1.08-.65,3-1.14,3.06a10.63,10.63,0,0,1-4.78-.75c-1.26-.5-2.28-2.34-3.4-2.33a32.58,32.58,0,0,0-7.65,1.4c-.44.11-.61,1.28-.9,2a6.8,6.8,0,0,0,2.05.52c1.75-.12,3.48-.51,5.23-.6.53,0,1.1.61,1.65.95a4.53,4.53,0,0,0-1.49.4c-2.12,1.5-6,.58-6.24,4.64a12.3,12.3,0,0,1-1.87-.53c-.13-.05,0-.65,0-1-.23-3.68-2-5.2-5.8-4.57a20.28,20.28,0,0,1-5.5,0c-.83-.09-3.84,1.26-1.83-1.87.09-.14-.23-.54-.37-.82-.33.2-.83.33-.94.61a3.76,3.76,0,0,0,0,1.36c0,10.27,0,20.53,0,30.8,0,2-.19,3.67,2.67,3.15.39-.07.94.69,1.41,1.06a6,6,0,0,1-1.73.23c-2-.33-2.37.49-2.37,2.4.08,16.66,0,33.32.05,50,0,4-.88,7.5-5.24,9.09a3.7,3.7,0,0,0-1.57,1.94c2.45,2.93-.43,5.72-.16,8.59.33,3.46,0,7,.15,10.45,0,.59,1,1.63,1.51,1.63a20.74,20.74,0,0,0,5.22-.65c1.84-.48,2-3.48.39-5.55a4.9,4.9,0,0,1-.49-1.45c.52,0,1.27-.1,1.52.19.81.92,2.08,2.05,2,3-.27,3.49,1.88,3.39,4.12,3.11a36.46,36.46,0,0,0,3.68-1.06,5.48,5.48,0,0,1,2.63-.21,12.72,12.72,0,0,1,2.76,1.63,11.29,11.29,0,0,1-2.61,1q-11.48,1.46-23,2.78c-2.61.3-1.34,1.64-.53,2.4,1.93,1.83,2,3.09-.67,4.11-2,.77-4,1.56-5.86,2.49-1.73.85-3.32,2-5,2.83a7.86,7.86,0,0,1-2.1.43,10.76,10.76,0,0,0,.6-1.67c.32-1.71.53-3.44.87-5.15a44.62,44.62,0,0,1,1.78-7.67c.52-1.32,2.28-1.11,3.45-.17,1.58,1.27,2.92,2.35,5.26,1.12s2.15-3.31,2.32-5.25c.34-4.15.46-8.31.74-12.46.14-2.09-.75-2.27-2.45-1.69a48.36,48.36,0,0,1-5.07,1.35c-.19,0-.78-.55-.73-.75.87-3.77,1.8-7.52,2.89-11.45m-1.21,39.14c.74-.69,1.41-1.87,2.23-2,3.08-.43,1.76-1.56.61-2.76-.47-.49-.94-1-1.45-1.45-3.44-3-3.71-2.9-5.18,1,0,.1-.18.15-.22.25-1.69,3.44-.69,4.91,4,4.94m6.55-36.9a9.62,9.62,0,0,0-3.24-.74c-.39,0-.65,1.65-.88,2.57a25.84,25.84,0,0,0-.67,3.46,7.59,7.59,0,0,0,.28,1.91,5,5,0,0,0,1.83-.43,39.75,39.75,0,0,0,4.06-3.36,41.39,41.39,0,0,0,2.77-3.21,17.49,17.49,0,0,1-4.14-.21m38.62-94.48-1.14-1.72-.93.93A3.74,3.74,0,0,0,148.28,122.36Z"/><path d="M186.21,186.15a10.07,10.07,0,0,0-2.27-1.86c-2.3-1-1-2,.11-2.2,3.39-.73,2.6-2.09.84-3.81-.49-.48-1-.95-1.46-1.47-1-1.17-1.49-1.27-1.4.53,0,.4-.47,1.18-.66,1.16a4.14,4.14,0,0,1-1.69-.65,15.9,15.9,0,0,1,1.37-4,2.51,2.51,0,0,1,2.23.18c1.63,2.22,3.42,2.5,5.74,1.13.33-.19,1.14.44,1.72.69-.31.44-.61.9-.95,1.32-.68.86-1.39,1.69-2.09,2.54a28.28,28.28,0,0,0,3.06-.48c2-.52,3.86-1.31,5.84-1.67a2.68,2.68,0,0,1,2.29,1.06,16.61,16.61,0,0,1,.9,3.93,17.43,17.43,0,0,1-2.09-1.16,5.85,5.85,0,0,1-1-1.27,4.93,4.93,0,0,0-.12,1.65,5.37,5.37,0,0,0,1.06,2.3c1.73,1.78.83,2.93-.91,3.56-2.31.83-4.73,1.34-7.12,2-.63.16-1.42,0-1.93.31-5.15,3.2-10.9,2.89-16.62,3.22-6.91.4-13.11.1-17.12-7-1.43-2.51-4.42-4.11-6.64-6.18-1.85-1.72-3.1-3.58-2.11-6.4.28-.81-.77-2-1-3.1a12.82,12.82,0,0,1-.09-2.55,8,8,0,0,0,1.47,1.32c4.81,2.52,4.21,7.92,6.46,11.72,2.95,5,6.73,9.91,13.58,9.94a5.24,5.24,0,0,0,3.32-1.36c1.87-1.8,4.53-2.08,5.84.12,1,1.69,1.61,1.47,3,.68a6,6,0,0,1,3.46-.69c2.19.26,2.47-.82,2.26-2.51l2.88,1.26a8.42,8.42,0,0,1,0-2.08c1,.23,1.94,1,2.74.94,2.27-.28,4.49-.94,6.73-1.45-.46-1.39-.86-2.82-1.43-4.17-.18-.44-.82-.69-1.25-1a4.59,4.59,0,0,0-.72,1.5c-.13,2.07-1.09,1.15-2.22.88a8,8,0,0,0-3.92.12c-.3.09-.08,2-.1,3m-12.41,5.17-1.7-2.39c-.12.39-.47.95-.33,1.13A3.25,3.25,0,0,0,173.79,191.32Z"/><path d="M138.1,138.39c-1.77-1.12-4.9-.24-4.39-3.7.07-.49.16-1,.24-1.46a3.77,3.77,0,0,1,1.4.39,10.37,10.37,0,0,1,1.87,2c2,2.74,3.72,2.86,6.53,1.1,1-.64,2.83-.47,4.14-.13s2.4,1.39,3.6,2.1c2.27,1.35,1.28,3.08.52,4.74a1.51,1.51,0,0,1-1.08.62c-.15,0-.38-.61-.59-.93l-3.49-5.22a37.81,37.81,0,0,0-2.47,5,26.73,26.73,0,0,0-1.5,6.92c-.05,1.05,1.31,2.15,1.93,3.28,1.82,3.28,1.8,3.28,4.15-.32.65-1,1.42-1.93,2-2.95a22.37,22.37,0,0,0,1.08-2.24c.24.24.69.48.7.73a8.26,8.26,0,0,1-.19,2.79c-1.15,3.44-3.68,5.89-6.2,8.35a5.5,5.5,0,0,0-.8,1.64c.7-.08,1.41-.14,2.11-.24,2.06-.29,4.11-.65,6.18-.84.38,0,.83.65,1.25,1-.43.34-.84.91-1.31,1-1.13.14-2.29,0-3.44.06-.66,0-1.56-.13-1.95.23-3.12,2.93-6.14,2.52-9.29.06-.27-.21-1.29.1-1.59.46-1.25,1.58.37,6.68,2.29,7.52A2.52,2.52,0,0,1,141,171c.66,1,1.2,2,1.79,3a11.63,11.63,0,0,0-2.65-.91c-2.61-.25-4.67-1.31-5.55-3.83a7.87,7.87,0,0,1-.05-3.53c.37-2.58,1.1-5.12,1.29-7.71s1.27-2.27,3-1.56c.94.39,2.59.88,3,.46.7-.78.72-2.18,1-3.33.07-.31,0-.93-.09-.95-4.67-.92-.75-4.44-1.93-6.42a6.76,6.76,0,0,1-.45-2.06,21.22,21.22,0,0,0-1.21,1.91c-.61,1.24-1.14,2.51-1.72,3.76-.29.62-.64,1.22-1,1.83a7.37,7.37,0,0,1-.47-2.43,49.88,49.88,0,0,1,1.38-6c.12-.41.79-.77,1.28-.94,1.14-.41,2.33-.69,3.5-1-.9-.68-1.79-1.37-2.7-2-.35-.25-.73-.46-1.26-.87m3.28,21.21c-1.05-.33-2.1-.66-3.17-.94,0,0-.18.55-.28.85.81.15,1.62.3,2.44.44C140.58,160,140.81,159.95,141.38,159.6Z"/><path d="M167.59,138c.68.4,1.66.83,2,1.56,2,4.23,3.78,5.57,8,5.07.87-.1,1.81-1.37,2.31-2.32a32.78,32.78,0,0,0,1.66-4.48c.38,1.54,1.15,3.1,1.08,4.62-.21,4.29.91,5.42,5,5a10.27,10.27,0,0,1,3.76.07,3.77,3.77,0,0,1,2.25,2c.8,2.45,1.24,5,1.79,7.53a18.46,18.46,0,0,1,.22,1.86c-.49-.35-1-.72-1.46-1-1.16-.74-2.26-1.87-3.52-2.12-3.16-.63-4.06-2.11-2.65-5.07a3.18,3.18,0,0,0,.13-.93,7.09,7.09,0,0,0-.73.17c-2.63.89-4.42-.43-6.14-2.18-2.74-2.79-3.76-2.52-5.72.85-.77,1.33-2.18,2.29-3.32,3.4-.4.4-.85.76-1.27,1.14a4.83,4.83,0,0,0,1.78.44c2.24-.37,4.44-1,6.68-1.29.7-.1,1.49.41,2.23.64a6.29,6.29,0,0,1-1.24,1.2c-1.64.88-3.17,2.56-5.3.91-.22-.17-1.33.32-1.32.45a7.09,7.09,0,0,0,.57,2.5c.28.59,1.44,1.17,1.34,1.45a36.52,36.52,0,0,1-2.62,6.06c-.27.48-1.62.36-2.47.52a18.34,18.34,0,0,1-.33-2.4c0-3.29.35-6.64-.17-9.85-.24-1.48-2.2-2.68-3.35-4-.2-.23-.19-.64-.28-1a3,3,0,0,1,1.21-.11c.9.32,1.72,1,2.61,1.12a13.18,13.18,0,0,0,3.28-.53c-.44-1.08-.63-2.41-1.39-3.17a11.86,11.86,0,0,0-3.59-2,2.73,2.73,0,0,0-3.9,1.2c-.25.43-1.16.47-1.77.68a4.82,4.82,0,0,1,.51-1.64C165.07,142.47,168.62,141.88,167.59,138Z"/><path d="M304.66,236c.84.66,1.5,1.15,2.16,1.63a9.11,9.11,0,0,1-2.78-.25,13.91,13.91,0,0,1-3.57-2.17c-1.92-1.62-3.26-4.26-6.56-2.9-.48.2-1.37-.46-2-.83-.16-.09-.08-.59-.11-.9a7.88,7.88,0,0,1,2.1.22c2.47,1,2.29-1,1.89-2.05a61.33,61.33,0,0,0-3.25-6.91c-.56-1.1-1.28-2.11-1.93-3.16a11.3,11.3,0,0,1-.35,3.3,2.67,2.67,0,0,1-2.05.69c-.53-.74-1.2-2-.91-2.61,1.07-2.32,2.57-4.44,3.76-6.71.35-.65.56-2.08.28-2.25-3.33-2-1.74-4.58-.71-6.82a39,39,0,0,1,3.88-6c.35-.49,1.08-1.07,1.55-1s.94.85,1.15,1.42q1.14,3,2.07,6a6,6,0,0,1,0,1.81c-.7,0-1.67.18-2-.19a7.49,7.49,0,0,1-1.34-2.51,21.19,21.19,0,0,1-.66-2.22c-.68,1.19-2.16,3.16-1.89,3.44,1.33,1.39.92,4.89,4.43,3.94.59-.16,1.49.86,2.25,1.34-.81.67-1.54,1.77-2.45,2-5.33,1.07-5.79,2.76-2.61,7.24a29,29,0,0,1,4.11,8.93,13,13,0,0,0,5.59,7.52m-11.21-25.69c0-.93,0-1.87-.08-2.79,0-.15-.6-.23-.93-.35A8.38,8.38,0,0,0,293.45,210.29Z"/><path d="M167.59,137.7a18.58,18.58,0,0,0-2.61-1.82,5.8,5.8,0,0,0-2.75.15c-.28,0-.47.63-.74.67-6.44,1-1.36,4.49-1.38,6.75,0,1.87,1,3.73,1.23,5.63.22,1.7.19,3,2.5,3.41,2.82.46,3,3.18,2.19,5-.69,1.5-2.11,3.93-5,1.36-1.36-1.21-3.61-1-1.19-3.32.41-.4.33-1.57.13-2.3-.84-3.08-1.78-6.14-2.75-9.18a5.58,5.58,0,0,0-.92-1.34,5.14,5.14,0,0,0-.32,1.79c.11.59.69,1.09.89,1.68a3.87,3.87,0,0,1,0,1.36c-.53-.1-1.41,0-1.55-.31-.89-1.86-2.65-3.44-.58-5.92,2.35-2.81,1.14-5.46-2-7-1.06-.52-1.36-2.61-2-4,.72,0,1.72-.27,2.1.09,1.27,1.22,2.29,2.71,3.48,4,.32.35.92.43,1.39.64.1-.53.45-1.2.25-1.58-2.45-4.69,2-7.29,3.26-10.85.06-.17.61-.18.94-.26.12.55.52,1.25.32,1.64-.68,1.34-1.65,2.52-2.36,3.84-1.05,1.94-1.24,3.82,1,5.16a1.74,1.74,0,0,0,1.2.19,5.55,5.55,0,0,1,6,3.25C168.32,136.71,167.82,137.17,167.59,137.7Z"/><path d="M212.93,187.36c1.58-1.21,3-2.26,4.4-3.27a4.17,4.17,0,0,0,1-6.22c-2.38-3.35-4.64-6.79-6.8-10.28-.43-.7-.15-1.83-.19-2.77a14.85,14.85,0,0,1,1.75,1.88c2,3,4,5.89,5.7,9a17.74,17.74,0,0,1,2.48,6.85c.36,5.49.2,11,.08,16.53-.05,2.3-.61,4.58-.79,6.88-.07.93-.06,2.23.49,2.74s1.81.09,2.75.2c2.43.31,4.85.67,7.26,1.06.24,0,.41.46.62.7a4.11,4.11,0,0,1-1.26.27q-6.9-.79-13.79-1.65c-.89-.11-2.44-.24-2.51-.58a8.56,8.56,0,0,1,.47-3,12.3,12.3,0,0,0,2,1c.4.12,1.27,0,1.31-.2a36.77,36.77,0,0,0,1.36-7.34c.05-4.27-.37-8.54-.62-12.81a10.7,10.7,0,0,0-.33-1.58,5.66,5.66,0,0,1-1,1c-1.47.86-3,1.67-4.49,2.48,0,0-.25-.14-.24-.19A1.69,1.69,0,0,1,212.93,187.36Z"/><path d="M169.83,168a96,96,0,0,1-3.83,8.89,5.24,5.24,0,0,1-1.77-.67,30.81,30.81,0,0,1,.79-3.08c.23-1.06.78-2.4.37-3.16s-1.87-.77-2.87-1.11c-.12.83-.31,1.65-.36,2.48-.08,1.24.32,3.37-.15,3.57a17,17,0,0,1-6.4,1.52c-2.18,0-2.2-1.78-1.46-3.41a25,25,0,0,0,1.62-3.11,2.75,2.75,0,0,0-.45-2.36,8.93,8.93,0,0,0-2.86-1.14c1-.1,2-.15,3-.33a2.71,2.71,0,0,0,1.42-.68c1.82-1.94,2.44-1.38,2.53,1a2.94,2.94,0,0,0,1.12,1.66,8.62,8.62,0,0,0,2.91-1.77c.52-.55.4-1.65.78-2.39.27-.52.91-.85,1.38-1.27.21.54.65,1.1.61,1.62C166,166.89,167.56,167.61,169.83,168Z"/><path d="M209.66,155.81a9.73,9.73,0,0,1-1.76-.65c0,.62-.36,1.55-.08,1.81a22.36,22.36,0,0,0,4.72,3.53c.45.23,2.47-1.18,2.51-1.9.2-3.56.09-6.72-3.21-9.73-2.13-1.93-2-6.35-2.81-9.68-.08-.34.62-.86,1-1.29a7.31,7.31,0,0,1,1,.93c1.51,2.09,2.63,4.25,2.21,7-.34,2.19.43,3.73,3.06,3.83.59,0,1.65,1,1.64,1.56a44.88,44.88,0,0,1-.69,8.65c-.68,3.13-2.64,3.57-5.53,1.72a3.11,3.11,0,0,0-1.26-.27,5.6,5.6,0,0,1-4.78-7.56,2.26,2.26,0,0,1,2-.91c1.34.49,2.54,1.44,3.6-.35.47.37,1.28.68,1.36,1.12a33.82,33.82,0,0,1,.26,4.16c-.62-.34-1.27-.64-1.85-1A7.84,7.84,0,0,0,209.66,155.81Z"/><path d="M194.31,167.7c-1.16-.86-.73-4.2-3.37-1.88-.12.11-.92-.29-1.15-.62a33.07,33.07,0,0,1-2-3.31c-2.25-4.29-2.24-4.29-6.32-2a4.15,4.15,0,0,1-1.44.66,9.58,9.58,0,0,1-2-.16,6.28,6.28,0,0,1,1.17-1.44,54.74,54.74,0,0,1,5.49-3.36,2.38,2.38,0,0,1,2.08.5c2.19,2,4.13,4.32,6.41,6.23,1.29,1.09,3.1,2.35,4.6,2.25,5-.31,7.12,3.38,9.92,6.22.08.08-.23.54-.35.82-1.35-.84-3.22-1.37-3.95-2.59-1.32-2.2-2.92-3.16-5.35-2.9a5.6,5.6,0,0,0-1.55.69c.44.45.92,1.33,1.31,1.29,2.7-.27,2.73,1.3,2.95,3.35.13,1.24,1.41,2.36,2.21,3.52a15.57,15.57,0,0,0,1,1.22c-.65.09-1.53.48-1.92.2a19.7,19.7,0,0,1-3.48-3.13C197.16,171.58,195.86,169.69,194.31,167.7Z"/><path d="M46.21,380.64c-.23,4.72-.36,9.11-.74,13.47a31.52,31.52,0,0,1-1.34,5.28,2.39,2.39,0,0,1-.33.55,4,4,0,0,1-.35-.86c-.87-5.83-1.44-11.65.63-17.39a7.57,7.57,0,0,0,.05-2c.45-8.41.9-16.82,1.4-25.22a6,6,0,0,1,.69-2.11,7.55,7.55,0,0,1,1-1.31c.35.54,1,1.05,1,1.61a39.24,39.24,0,0,1,0,5.84C47.62,365.73,46.9,373,46.21,380.64Z"/><path d="M122.07,222c4.34-.69,8.31-1.48,12.32-2,2.58-.36,3.61,1.06,3.57,3.61-.09,4.85,0,9.7,0,14.55,0,.63.35,1.25.38,1.89a12.25,12.25,0,0,1-.22,2c-.75-.35-2-.54-2.16-1.07a18.61,18.61,0,0,1-.49-4.38c-.13-2.48-.21-5-.28-7.45a25.43,25.43,0,0,0-.07-4.23,16.28,16.28,0,0,0-1.56-3.46,11.8,11.8,0,0,1-1.84,1.35c-.57.28-1.68.58-1.86.35-1.49-2-3.13-.7-4.8-.47-2.75.38-5.53.56-8.3.68-.5,0-1-.66-1.54-1a5.58,5.58,0,0,1,1.9-.74C118.65,221.61,120.19,221.86,122.07,222Z"/><path d="M168.28,213c-3.85.69-7.33,1.56-10.86,2-4.88.64-9.79,1-14.69,1.41a4.62,4.62,0,0,1-1.27-.25,9.29,9.29,0,0,1,.34-1.17c.29-.68.63-1.34,1-2l1.7-3.43c.35,1.1.64,2.23,1.08,3.3a7.68,7.68,0,0,0,1.09,1.51,10.05,10.05,0,0,0,.94-1.32c.46-.92.83-1.87,1.24-2.82a14.36,14.36,0,0,0,1.56,2.15,3.79,3.79,0,0,0,2.07,1.2c.42,0,1.05-.94,1.32-1.57a12.27,12.27,0,0,0,.51-2.47,19,19,0,0,0,1.89,2c.73.58,1.77,1.54,2.39,1.36a15.81,15.81,0,0,0,4.19-2.26c.47-.32.64-1.08.94-1.65.38.34,1,.62,1.11,1,.61,3.25,2.36,1.5,3.84.93.66-.25,1.67-.93,1.88-.73a13.25,13.25,0,0,1,1.8,2.57c-.89.08-1.77.17-2.66.24C169.31,213.07,169,213,168.28,213Z"/><path d="M396,191.5a60.13,60.13,0,0,1,1.77,8.75c.16,1.8-1.23,3.5-3.1,2.87-2.33-.79-3.77-.47-5.09,1.52-.29.44-1.14.52-1.74.77.28-.47.55-1,.85-1.41s.84-.86.9-1.33c.24-2.06,1.21-2.68,3.21-2.09.43.13,1.1-.56,1.65-.87a9,9,0,0,0-1.48-1.11c-.85-.41-1.77-.67-2.66-1a12.14,12.14,0,0,1,2.65-.38c2.36.17,1.51-1.52,1.39-2.5-.31-2.58-1-5.12-1.18-7.7-.05-.92,1.1-1.9,1.7-2.86a12.53,12.53,0,0,1,.91,2.7C396,188.34,395.86,189.84,396,191.5Z"/><path d="M386,219.43c-1.92-.93-3.21-1.25-3.38,1.51a5.4,5.4,0,0,1-2.1,3.51c-3,2.14-2.11,3.34.61,4.64a26.62,26.62,0,0,1,3.51,2.39,21.21,21.21,0,0,1-4.63-.9c-1.58-.68-2.75-2.77-4.81-1-.05-.31-.26-.72-.14-.92,2.32-3.52,4.59-7.08,7.09-10.46a3.21,3.21,0,0,1,2.91-.95c4.23,2.28,8.3,2.89,12.45-.07.3-.22.81-.15,1.22-.22-.12.49-.09,1.1-.39,1.44C395.41,221.88,391.05,222.28,386,219.43Z"/><path d="M131.55,142.88c-1.48-.3-3.1.48-3.71-1.57-.09-.31-.89-.4-1.37-.59a7.61,7.61,0,0,0,0,1.86,5.84,5.84,0,0,0,.83,1.47c-.62-.13-1.62-.07-1.81-.43-1.64-3.2-2.83-1.14-4.23.19a5.23,5.23,0,0,1-1.88.69c.28-.55.42-1.29.87-1.63q4-3.13,8.16-6.07c.16-.11.82.39,1.17.69s.66,1.08.86,1c6.07-1.25.93,4.33,3.26,5.32-1.94,1.26.92,6.05-3.85,5.23-.07.43,0,1-.23,1.27a1.61,1.61,0,0,1-1.25.59c-.32-.06-.83-.85-.73-1.06.62-1.27,1.2-3.32,2.15-3.53C132,145.83,131.71,144.5,131.55,142.88Z"/><path d="M220.52,139.08a21.62,21.62,0,0,1,3.5,3.2,19.42,19.42,0,0,1,1.61,2.49c.19-.9.34-1.82.59-2.71s.61-1.81.92-2.71a9,9,0,0,1,1.08,2.77c.12,4,.1,8,0,12a7.24,7.24,0,0,1-1,2.33,9.69,9.69,0,0,1-1-2.25,6.19,6.19,0,0,1,0-3.06c1.57-4.24-3-4.85-4.22-7.44a17.72,17.72,0,0,0-2.59,2,10.43,10.43,0,0,0-1.25,2.41,17.46,17.46,0,0,1-.93-3c-.2-1.64-.18-3.23,2.28-3.22C219.81,141.89,220.08,140.18,220.52,139.08Z"/><path d="M200.86,131.15a13.31,13.31,0,0,1-1.63.78c-.16-.47-.55-1-.42-1.4s.92-.76,1.12-1.25a6,6,0,0,0,.65-2.77c0-.41-1.39-1.13-1.84-.95a5.12,5.12,0,0,0-2.15,1.9c-.57.84-.7,2.61-1.25,2.71a33.13,33.13,0,0,1-5.84.13c.07-.36,0-.89.22-1.06,2.61-2,5.17-4.07,8-5.79a3.66,3.66,0,0,1,3.4.16,29.2,29.2,0,0,1,3.76,4.59C203.56,129.12,202.3,130,200.86,131.15Z"/><path d="M166.21,180.64a12.37,12.37,0,0,0,3.49-1.45c.35-.26.13-1.31.17-2-3.37-.17-.92-1.29-.42-2.24.89-1.68,1.56-3.47,2.47-5.14.33-.61,1.07-1,1.62-1.5.23.86.9,1.92.62,2.55-1.25,2.75-2.06,5.35.23,7.95-.44.38-.82,1-1.32,1.1-1.24.35-2.56.43-3.8.78-.35.1-.85,1-.75,1.14,1.67,2.21-1.41,1.26-1.48,2.27l-2.48-1.31A9,9,0,0,1,166.21,180.64Z"/><path d="M486,372.19c-3-4.13-3-11.56-.17-15a6.55,6.55,0,0,1,.72-.66c.33.43.88.83,1,1.31.53,2.89,1,5.78,1.35,8.7a2,2,0,0,1-1.2,1.61c-2,.24-2,.29-1.13,2.23C486.75,370.79,486.34,371.46,486,372.19Z"/><path d="M222.76,159.26c2.21,0,4.08,0,5.93.12.33,0,.63.61.95.93a8.77,8.77,0,0,1-1.24.32,40.08,40.08,0,0,1-6.59.58c-.87,0-2.4-1.41-2.37-2.12a34,34,0,0,1,1.3-7.11,14.15,14.15,0,0,1,1.69-3.06c.57,1.25,1.68,2.55,1.6,3.76C223.86,154.9,223,157.07,222.76,159.26Z"/><path d="M480.69,337.88c-.23-4.75-.46-9.16-.69-13.56a3,3,0,0,0,0-.34c-.19-1.11-2.35-2.08-.22-3.34.3.95.35,2.13,1,2.8,4,4.49,2.42,9.69,2,14.74,0,.38-.53.72-.81,1.08A5,5,0,0,1,480.69,337.88Z"/><path d="M119.48,164.95c2.06-.86,4.09-1.31,5.8-2.32,1.43-.84,2.45-2.36,3.69-3.53.63-.59,1.36-1.06,2-1.58-.18.88-.34,1.76-.56,2.63,0,.19-.33.31-.47.49-.58.79-1.15,1.58-1.73,2.38a26.39,26.39,0,0,1,3-.19,4.21,4.21,0,0,1,2.07.57,1.93,1.93,0,0,1,.4,1.43,5,5,0,0,1-2,.62q-5.92.41-11.85.66C119.72,166.12,119.51,165.46,119.48,164.95Z"/><path d="M31.55,308.74c.49-1.87.78-3.58,1.15-5.27a6.46,6.46,0,0,1,.71-1.42c.36.4,1,.79,1,1.21.11,1.94.75,4.38-.17,5.68-.75,1.06-3.43.76-5.26,1-.14,0-.33-.3-.48-.46-1.46-1.57-4.38-3.52-4.08-4.63.59-2.24,2.9-4,4.57-5.95.18-.21.87,0,1.33.05a10.16,10.16,0,0,1-.83,2.73c-.36.56-1.43.64-1.9,1.18C25.76,305.07,27.63,308,31.55,308.74Z"/><path d="M188.45,170.12a23.83,23.83,0,0,1,2.6.91c.57.34.92,1.07,1.36,1.63-.69,0-1.38.09-2.06,0-.41,0-.81-.27-1.23-.33-6.69-1-7.71-2.3-6.35-8.54.23-1.07.64-2.09,1-3.14.36,1.22.79,2.43,1.07,3.67s.2,2.92.81,4.12C186,169.22,187.36,169.47,188.45,170.12Z"/><path d="M175.34,121.84c1.35-2.45,6.67-2.77,7.65-.45.4.94-.36,3.41-1,3.53a9.23,9.23,0,0,1-4.79-.61C176.5,124,176.08,122.81,175.34,121.84Z"/><path d="M130.34,191.67c0-1.72-.05-3.11,0-4.48a15.15,15.15,0,0,1,.46-2.27c.53.7,1.52,1.41,1.51,2.1-.07,5.09-.31,10.18-.55,15.26a29.54,29.54,0,0,1-.47,3.12c-.09-1-.21-2-.28-3C130.8,198.95,130.57,195.48,130.34,191.67Z"/><path d="M31,205.46c0-2.17,0-4,0-5.82a8,8,0,0,1,.46-1.77c.53.47,1.52,1,1.51,1.42-.12,5-.37,10.08-.67,15.11,0,.26-1,.77-1.11.66a2,2,0,0,1-.87-1.33C30.53,211.09,30.8,208.45,31,205.46Z"/><path d="M214.31,136.67c.63-.08,1.31-.21,1.51-.6.47-.94.54-2.11,1.09-3,1.77-2.84,3.74-2.86,5.4-.07a5.38,5.38,0,0,1,.3,2.53c0,.08-1,.39-1.18.21a6.58,6.58,0,0,1-1.4-1.94,9.4,9.4,0,0,1-.45-2.08,7.7,7.7,0,0,0-1.41,2.17c-.28,1.19.15,2.62-.34,3.65s-2.16,2.44-2.57,2.23c-1.15-.58-1.91-1.92-2.83-3A6.38,6.38,0,0,1,214.31,136.67Z"/><path d="M364.14,126.15c1.3,0,2.82-1.38,2.75,1-.06,1.95.07,1.81,1.89,1.67a44.83,44.83,0,0,1,7,.35c.24,0,.43.61.65.93a5.46,5.46,0,0,1-1,.17c-4.17,0-8.34,0-12.5-.05-.3,0-.92-1-.79-1.32A8.51,8.51,0,0,1,364.14,126.15Z"/><path d="M209,212.36c3.6,0,6.85,0,10.1,0,.55,0,1.08.65,1.62,1a8.12,8.12,0,0,1-1.58.32c-5,0-10.1,0-15.15,0a6.1,6.1,0,0,1-1.88-.7c.79-.45,1.56-1.24,2.37-1.26A30.83,30.83,0,0,1,209,212.36Z"/><path d="M18.62,352.36c.23-2.78.41-5.22.73-7.64.06-.47.64-.87,1-1.31.35.42,1,.82,1,1.25.08,3.33.14,6.67,0,10,0,.65-1.16,1.23-1.78,1.84a14.86,14.86,0,0,1-.86-2.08A9.67,9.67,0,0,1,18.62,352.36Z"/><path d="M19.14,367.7a56.3,56.3,0,0,1-.91,6.73c-.06.29-.69.46-1.05.69,0-.34.05-.68.05-1,0-3.25-.2-6.51.09-9.73a34.38,34.38,0,0,1,1.7-6.5c.06-.2.61-.26.94-.38a4,4,0,0,1,.23,1.21C19.81,361.65,19.38,364.59,19.14,367.7Z"/><path d="M296.55,279.26c-3.84.23-7.34.57-10.84.6a3,3,0,0,1-2.08-1.75,7,7,0,0,1-.11-3.55c.16-.8.95-1.47,1.45-2.2a10.65,10.65,0,0,1,.51,2.07c0,.5-.56,1.14-.39,1.49.45.95,1.19,2.53,1.76,2.51,2.17-.09,4.31-1,6.49-1,1.24,0,2.51.88,3.76,1.38,0,0,.07.17,0,.23S297,279.17,296.55,279.26Z"/><path d="M303.28,269.08c1.25,2,3,3.74.87,6-1,1.07,1.76,2.76-.5,3.61a13,13,0,0,1-2.78.41,12,12,0,0,0,.83-2.6,32.73,32.73,0,0,0,.09-5.38,9.28,9.28,0,0,0-1-2.6A17.23,17.23,0,0,1,303.28,269.08Z"/><path d="M208.79,137c-1.51.45-2.85.69-4.17,1a7.12,7.12,0,0,0-1.66.7c-1.12.61-2.22,1.26-3.32,1.9,0-.24,0-.55.08-.72,1-1.38,1.71-3.21,3.05-4,1.6-.91,3.73-.93,5.64-1.19A7.48,7.48,0,0,1,208.79,137Z"/><path d="M186.72,215.64c-4.53.4-8.88.65-13.24.84a5.94,5.94,0,0,1-1.66-.42c.56-.31,1.09-.83,1.67-.9,2.86-.31,5.74-.53,8.61-.71,1.48-.09,3-.05,4.45,0a23.92,23.92,0,0,1,2.38.31A19.77,19.77,0,0,0,186.72,215.64Z"/><path d="M211.72,128.22a45,45,0,0,1-4.61-2.9,5.54,5.54,0,0,1-.85-1,3.37,3.37,0,0,1,.91-.27c3.82,0,7.31.87,10,3.77l.68.72a3.74,3.74,0,0,1-1.23.3C215.14,128.71,213.61,128.45,211.72,128.22Z"/><path d="M129.48,215.64c1.75.31,3.78-3,4.81.38.06.2-2.54,1.53-4,1.8a69.46,69.46,0,0,1-7.94.73,4.41,4.41,0,0,1-1.5-.49c.49-.49.91-1.3,1.47-1.4C124.63,216.25,127,216.07,129.48,215.64Z"/><path d="M200.17,152.88c1.21,2.13,2.28,4.07,3.25,6.06.18.38,0,.95-.06,1.43-.4-.22-.92-.35-1.19-.68-1.68-2.13-3.34-4.28-4.91-6.49a6.34,6.34,0,0,1-.57-2c.63.27,1.27.53,1.89.82A12.45,12.45,0,0,1,200.17,152.88Z"/><path d="M167.07,130.12a7.14,7.14,0,0,0-1.06-.52l-2.47-1.12c1.2-1,2.4-2,3.65-2.88.09-.06.71.42.93.75,1.17,1.81,2.35,3.61,3.39,5.49a6.38,6.38,0,0,1,.33,2.13c-.5-.41-1-.83-1.49-1.24C169.31,131.92,168.28,131.11,167.07,130.12Z"/><path d="M36.38,315.64c-2.83,1.39-4,3.28-3.1,6.26.12.39-.3,1-.46,1.44-.47-.2-1.3-.34-1.35-.62-.35-1.94-1.44-4,.95-5.56,1.73-1.14,3.25-2.59,4.92-3.82a7.66,7.66,0,0,1,1.88-.73,9,9,0,0,1-1,1.87A11.16,11.16,0,0,1,36.38,315.64Z"/><path d="M25.52,279.95c.11-2.53.19-4.72.36-6.9a20.87,20.87,0,0,1,.52-2.59c.68.18,1.68.15,2,.59s0,1.38-.09,2.09a21.72,21.72,0,0,0-.53,4.49C27.93,279.63,27.88,279.91,25.52,279.95Z"/><path d="M458.62,108.22c0-2.87,0-5.4,0-7.93a4.08,4.08,0,0,1,.23-.93c.15.21.28.44.45.64,1.58,1.89,2,8,.69,10.18-.15.24-.27.5-.41.75A23.29,23.29,0,0,1,458.62,108.22Z"/><path d="M157.76,153.22c0,1-.14,2.46-.38,2.48a21.38,21.38,0,0,1-4.3-.3c-.16,0-.43-.71-.32-.92.76-1.41,1.58-2.8,2.44-4.15a1,1,0,0,1,.89-.1C156.64,151.14,157.1,152.1,157.76,153.22Z"/><path d="M202.76,181.32a20.32,20.32,0,0,1,4.5-.67c-.52.91-1,1.85-1.6,2.72-.14.22-.58.22-.85.38-1.27.78-2.53,1.59-3.79,2.38.58-1.15,1.18-2.29,1.71-3.46A4.4,4.4,0,0,0,202.76,181.32Z"/><path d="M292.41,235.12c2.86,1.83,5.39,3.66,7.89,5.52a1.85,1.85,0,0,1-.3.66,15.6,15.6,0,0,1-4.1-1.28,30.62,30.62,0,0,1-4.08-3.52c-.2-.18-.5-.51-.44-.63C291.51,235.57,291.83,235.36,292.41,235.12Z"/><path d="M131.55,181.15a9.19,9.19,0,0,0-.65,1.34c-.19-.13-.54-.28-.53-.37.49-3.21,1-6.42,1.61-9.6.07-.34,1-.49,1.59-.74.07.42.33,1.15.2,1.23-2.85,1.71-.5,4.46-1.36,6.53A10.7,10.7,0,0,1,131.55,181.15Z"/><path d="M49,343.39c-.23,1.85-.4,3.38-.73,4.86-.11.48-.63.88-1,1.31-.36-.4-1-.82-1-1.21.13-2.43.39-4.85.67-7.27,0-.18.49-.3.75-.45A21.11,21.11,0,0,1,49,343.39Z"/><path d="M27.41,388a16.56,16.56,0,0,0-.53,2.08,4.63,4.63,0,0,1-.36.82,3.94,3.94,0,0,1-.31-.9c-.25-2.76-.54-5.52-.64-8.28,0-.56.7-1.15,1.07-1.73.31.56.86,1.1.89,1.67A48.16,48.16,0,0,1,27.41,388Z"/><path d="M50.34,211.67a5.84,5.84,0,0,1,0-1.7,26.91,26.91,0,0,1,1.22-2.44,6.78,6.78,0,0,1,.77,2.45c-.34,3.35-.86,6.68-1.34,10a2.22,2.22,0,0,1-.26.57,3.28,3.28,0,0,1-.4-1C50.33,217,50.34,214.52,50.34,211.67Z"/><path d="M306,124.95c.61.66,1,1.14,1.48,1.63-.53.09-1.07.15-1.6.27-2.71.62-5.42,1.28-8.14,1.85a7.45,7.45,0,0,1-1.85-.07c.37-.4.66-1,1.11-1.18C300,126.5,302.91,125.65,306,124.95Z"/><path d="M275.69,242.19c-.17,2.63-2,3.48-4.07,3.91a11.68,11.68,0,0,1-3.29-.23,18.37,18.37,0,0,1,2.77-2.13A19.91,19.91,0,0,1,275.69,242.19Z"/><path d="M124.83,151.67a4.72,4.72,0,0,1,0,1c-.41,1.27-.84,2.53-1.26,3.8-.5-.51-1.48-1.1-1.4-1.51a49.58,49.58,0,0,1,1.46-5.21A9,9,0,0,1,124.83,151.67Z"/><path d="M193.79,211.67c-1.16.23-2,.58-2.79.66a15.12,15.12,0,0,1-2.63-.21c.56-.4,1.14-.78,1.68-1.21.15-.12.19-.37.29-.56l1.54-2.81A22.12,22.12,0,0,1,193.79,211.67Z"/><path d="M24.14,318.57c-.22-1.73-.44-3.81-.67-5.89.47,0,1.06-.11,1.39.12a12.33,12.33,0,0,1,1.72,1.67c.78.8,1.55,1.62,2.33,2.43-.8-.36-1.82-1.22-2.35-1A7.06,7.06,0,0,0,24.14,318.57Z"/><path d="M187.59,297.19c.57,0,.8,0,1,0l4.44.3a42.75,42.75,0,0,1-4.26,1.05c-2.29.33-4.6.54-6.91.67-.38,0-.79-.65-1.19-1a6.08,6.08,0,0,1,1.46-.57C183.85,297.44,185.55,297.33,187.59,297.19Z"/><path d="M212.41,172.36a47.39,47.39,0,0,1,3.73,5.47c.37.61.65,1.26,1,1.9a6.73,6.73,0,0,1-2.3.15,2.33,2.33,0,0,1-1.38-1.38A27.84,27.84,0,0,1,212.41,172.36Z"/><path d="M116,112.19l-2.21-2.27c1.17-.71,2.33-1.43,3.52-2.11a.88.88,0,0,1,.67.18,15.61,15.61,0,0,1-.16,3.51C117.76,111.89,116.78,112.08,116,112.19Z"/><path d="M44.66,109.43c-.52-.23-1.18-.66-1.15-1a27.49,27.49,0,0,1,.67-4.48,7.48,7.48,0,0,1,1-1.85c.33.66,1,1.37.92,2A34.1,34.1,0,0,1,44.66,109.43Z"/><path d="M139.31,213c.22,1.28.43,2.21.65,3.14a14.93,14.93,0,0,1-2.63.25,1.34,1.34,0,0,1-.73-1.08c.41-1.43,1-2.8,1.49-4.2A8.93,8.93,0,0,1,139.31,213Z"/><path d="M411.55,99.08a4.26,4.26,0,0,1-1.1.41l-3.51.84c.21-.47.3-1.18.66-1.37,1.52-.83,3.13-1.5,4.7-2.23A18.12,18.12,0,0,1,411.55,99.08Z"/><path d="M192.24,139.08a2.41,2.41,0,0,1,.72-.51c1.19-.31,2.39-.59,3.59-.88-1,.93-1.95,1.88-3,2.77-.21.18-.63.14-1,.17L189,141C190,140.39,191,139.82,192.24,139.08Z"/><path d="M485,349.43a11.54,11.54,0,0,1,.06-2.47,18.71,18.71,0,0,1,1.67,1.47,2.13,2.13,0,0,1,.48,1.15c.14,1.3.21,2.6.22,3.91a4.18,4.18,0,0,1-1.16.23c-.3-1.07-.51-2.16-.76-3.24A3.63,3.63,0,0,0,485,349.43Z"/><path d="M149.48,166.32a21.61,21.61,0,0,1,1.13,2.52c.2.55.34,1.13.5,1.7-.86-.12-2.29,0-2.48-.4a16.17,16.17,0,0,1-.79-3.92A5.47,5.47,0,0,1,149.48,166.32Z"/><path d="M168.1,122.53a18.24,18.24,0,0,1-3.28-1.07c.49-.51,1-1.45,1.47-1.44a30.88,30.88,0,0,1,4.45.66C169.92,121.25,169.1,121.8,168.1,122.53Z"/><path d="M205.69,175.29c.57-.23,1.19-.49,1.34-.32,1.26,1.37,2.39,2.85,3.64,4.23a9.8,9.8,0,0,0,1.64,1.21c-.31.08-.65.28-.91.21a5.3,5.3,0,0,1-2.38-.86A23.89,23.89,0,0,1,205.69,175.29Z"/><path d="M335.34,121.15c2.45-.29,5.07-.41,7.69-.48.13,0,.45.68.38.75-.26.26-.66.59-1,.56C340.13,121.81,337.82,121.55,335.34,121.15Z"/><path d="M244.66,214.6c.25.25.39.32.4.41.15,1.31.28,2.63.41,3.95-.62-.2-1.64-.23-1.8-.62C243.07,216.94,241.48,215.13,244.66,214.6Z"/><path d="M300.86,251.5c-1.73,1.34-2.6,1.15-5.21-1.1a11.22,11.22,0,0,1-1.33-1.67,7.66,7.66,0,0,1,2.56.24A30.54,30.54,0,0,1,300.86,251.5Z"/><path d="M389.66,151.67c-2.28-.1-4.22-.18-6.15-.35-.05,0-.24-1.14,0-1.35C384.43,149.15,389.12,150.44,389.66,151.67Z"/><path d="M206.72,207c.17.28.12.44.18.5.67.82,1.36,1.63,2,2.45-1.66-.12-3.32-.24-5-.4,0,0-.14-.67,0-.78A12.14,12.14,0,0,1,206.72,207Z"/><path d="M208.28,149.6c-1-.72-1.95-1.36-2.2-2.2-.14-.47.89-1.28,1.4-1.94.69.54,1.78,1,2,1.63S208.93,148.76,208.28,149.6Z"/><path d="M177.76,168.39a3.26,3.26,0,0,1-.48-1.71,18.65,18.65,0,0,1,1-2.59c.57.78,1.55,1.53,1.61,2.34.07,1-.64,2.06-1,3.09Z"/><path d="M31.9,331.15a4.29,4.29,0,0,1-1.49.13,6.43,6.43,0,0,1,0-2.69,16.32,16.32,0,0,1,1.85-2.95c.05,1.15.16,2.29.14,3.44A6.51,6.51,0,0,1,31.9,331.15Z"/><path d="M247.41,204.6a14.23,14.23,0,0,0,.16-2.87c0-.6-.12-1.19-.19-1.78a7.43,7.43,0,0,1,1.54,1.42c.5.81,1.3,2.08,1,2.59-.44.76-1.73,1-2.66,1.5,0,0-.24-.14-.23-.2A1.73,1.73,0,0,1,247.41,204.6Z"/><path d="M233.62,176.32c-.64,1.08-1.11,2-1.58,2.9-.33-.54-1-1.15-.93-1.6a22.82,22.82,0,0,1,1.28-3.51A9.15,9.15,0,0,1,233.62,176.32Z"/><path d="M51.72,122.7a27.48,27.48,0,0,1,.84-2.76c.41.81,1.15,1.61,1.16,2.42a24.2,24.2,0,0,1-.63,4.45c0,.22-.29.39-.45.59a3.54,3.54,0,0,1-.22-.58C52.18,125.57,52,124.31,51.72,122.7Z"/><path d="M175.17,174.43a8.93,8.93,0,0,1,1.22-1.89,32.65,32.65,0,0,1,1.48,3.52c.08.25-.68.75-1.06,1.13A19.43,19.43,0,0,1,175.17,174.43Z"/><path d="M29,346.84c0,2.39,0,4.44,0,6.49a3.4,3.4,0,0,1-.45,1.1c-.3-.22-.88-.47-.87-.65.24-2.5.55-5,.86-7.48a.3.3,0,0,1,.23,0C28.82,346.32,28.89,346.42,29,346.84Z"/><path d="M49,297.19a18.56,18.56,0,0,1-.4,4.81s-1-.12-1.53-.19A26.32,26.32,0,0,1,49,297.19Z"/><path d="M217.76,118.74c.3-.62,1-1.53,1.22-1.43a41.89,41.89,0,0,1,4.22,2c-.32.2-.68.6-1,.55A35.84,35.84,0,0,1,217.76,118.74Z"/><path d="M492.24,363.91c1.66.89,2.19,3.53,1,4.43-.22.16-1.42-.4-1.44-.65A15.24,15.24,0,0,1,492.24,363.91Z"/><path d="M218.1,113.22a36.08,36.08,0,0,1,4.57.78,14.06,14.06,0,0,1-2.75,1.06c-.53.09-1.17-.4-1.76-.63l-1.41-.55A9.24,9.24,0,0,0,218.1,113.22Z"/><path d="M483.62,354.6c.05.87.4,1.55.45,2.26,0,.3-.58.64-.9,1a8.71,8.71,0,0,1-.4-1.06,21.18,21.18,0,0,1-.51-2.5c-.11-1-.11-2-.15-3,.24,0,.65,0,.69.11A14.15,14.15,0,0,1,483.62,354.6Z"/><path d="M32.59,178a6.28,6.28,0,0,1,1.86.13c-.29,1.23-.53,2.48-.9,3.69-.09.3-.61.47-.93.69A39.14,39.14,0,0,1,32.59,178Z"/><path d="M395.34,213.22a6.32,6.32,0,0,1,1.87.14c-1,1.27-2,2.56-3.11,3.8-.09.11-.78-.06-.86-.24-.16-.39-.3-1-.1-1.28A26,26,0,0,1,395.34,213.22Z"/><path d="M388.28,222.7a1.5,1.5,0,0,1-.48.82l-3.29,2.62c0-.24-.1-.57,0-.69C385.66,224.29,385.08,221,388.28,222.7Z"/><path d="M50.17,112.88a3.21,3.21,0,0,1-1.16.25,23.08,23.08,0,0,1-.65-3.85c0-.54.55-1.1.86-1.66.38.47,1,.9,1.08,1.42A15.08,15.08,0,0,1,50.17,112.88Z"/><path d="M302.07,251a3.56,3.56,0,0,1,1.43-1c.2,1.37.42,2.74.55,4.12,0,.06-1,.4-1.12.27a5.22,5.22,0,0,1-.84-1.72A7.25,7.25,0,0,1,302.07,251Z"/><path d="M180.17,131.5a1.64,1.64,0,0,1-.12,1.14c-.78,1.28-1.61,2.54-2.42,3.81-.13-.26-.44-.62-.37-.75A29.89,29.89,0,0,1,180.17,131.5Z"/><path d="M197.24,210.29c.38-1.34.77-2.34,1.15-3.33l1.61,3A7.56,7.56,0,0,1,197.24,210.29Z"/><path d="M182.07,211c.71-.55,1.57-1.1,2.11-.88.78.33,1.33,1.21,2,1.86l-4.17.4C182,212,182,211.67,182.07,211Z"/><path d="M294.48,269.6a21.69,21.69,0,0,1-1.21,2.76c-.28-.34-.85-.73-.81-1,.18-1.24.55-2.45.85-3.67A9.42,9.42,0,0,1,294.48,269.6Z"/><path d="M192.24,266a6.91,6.91,0,0,1,2.09-.5c1.2,0,2.4,0,3.6.06a35.11,35.11,0,0,1-3.76,1.26,7.54,7.54,0,0,1-2.3-.17.31.31,0,0,1,0-.23A2.9,2.9,0,0,1,192.24,266Z"/><path d="M422.59,240.12a4.7,4.7,0,0,1-2.08.49,20.49,20.49,0,0,1-2.58-.34c.16-.39.28-1.08.5-1.11a12.1,12.1,0,0,1,3-.14C421.79,239.06,422.09,239.62,422.59,240.12Z"/><path d="M301.9,265.64c-1.2-1-2.24-1.78-3.27-2.58a8.25,8.25,0,0,1,2.57-.09c.44.12.61,1.06,1,1.56s.87.76,1.15,1.24c.12.2-.2.66-.31,1Z"/><path d="M347.07,118.74a11.71,11.71,0,0,1,2.59.35c-.48.51-.91,1.38-1.47,1.47a14.21,14.21,0,0,1-3.29-.2C345.56,119.88,346.23,119.39,347.07,118.74Z"/><path d="M247.41,191.15c.17.63.34,1.19.14,1.52a13.21,13.21,0,0,1-1.57,1.76c-.16-.71-.6-1.52-.39-2.1S246.67,191.42,247.41,191.15Z"/><path d="M43.45,308.91a4.84,4.84,0,0,1-.27-2.74c.06-.26,1-.32,1.55-.47A12.45,12.45,0,0,1,43.45,308.91Z"/><path d="M480.17,315.64c1,1.27,1.45,2.38-.14,3.19-.26.13-.77-.22-1.17-.36A14.2,14.2,0,0,1,480.17,315.64Z"/><path d="M176.55,209.6a1.48,1.48,0,0,1,.83.49c.56.72,1.11,1.46,1.66,2.19l-3.41.08c.08-.74.13-1.48.24-2.21C175.9,210,176.09,209.78,176.55,209.6Z"/><path d="M33.1,296.5a9.61,9.61,0,0,1,.94-3.29,1.74,1.74,0,0,1,1.1.22c.24.17.5.79.4.91A11.35,11.35,0,0,1,33.1,296.5Z"/><path d="M340.52,272.53a8.29,8.29,0,0,1-2.83,1.16,5.08,5.08,0,0,1-1.83-.37c.1-.3.13-.81.3-.87a6.29,6.29,0,0,1,1.88-.3A9.37,9.37,0,0,1,340.52,272.53Z"/><path d="M49.66,332.36a2.43,2.43,0,0,1-.48.84c-.5.79-1,1.59-1.47,2.39a28.47,28.47,0,0,1-.07-3.73c.05-.53.68-1,1-1.5A11,11,0,0,1,49.66,332.36Z"/><path d="M30.17,274.26a9,9,0,0,1,1.27,2.18l-2.07.75A25.37,25.37,0,0,1,30.17,274.26Z"/><path d="M165.69,161.5c1.28-.67,2.39-1.17,3.5-1.67l.47,1.51c-1.3.19-2.6.39-3.9.57C165.69,161.91,165.6,161.75,165.69,161.5Z"/><path d="M283.62,254.6a15.48,15.48,0,0,1,1.55-.86c.09,1.06.22,2.11.23,3.17a2.65,2.65,0,0,1-1.11.26A7.92,7.92,0,0,1,283.62,254.6Z"/><path d="M335.69,248.39c0,.52-.15,1.12-.37,1.16a8.83,8.83,0,0,1-2-.08l-3.58-.3c1.58-.32,3.16-.64,4.75-.94A2.35,2.35,0,0,1,335.69,248.39Z"/><path d="M204.66,152.53c-2.79,1.73-2.26-2-3.87-2.49.18-.24.32-.62.56-.69a1.07,1.07,0,0,1,.94.16C203.06,150.42,203.75,151.4,204.66,152.53Z"/><path d="M175.34,140.46c-.17-.4-.27-.7-.16-.84.6-.77,1.25-1.51,1.89-2.26.28.45.89,1.21.8,1.29A9,9,0,0,1,175.34,140.46Z"/><path d="M30.17,339.08a6.65,6.65,0,0,0-.52,1.4c-.13.5-.25,1-.37,1.51a13.41,13.41,0,0,1-.31-1.58,11.71,11.71,0,0,1,0-2.05,17,17,0,0,1,.38-1.86c.38.17,1.06.29,1.1.53A4.69,4.69,0,0,1,30.17,339.08Z"/><path d="M38.79,292.88a26.91,26.91,0,0,1-.14-3.66c.32.11.93.27.92.34A14.52,14.52,0,0,1,38.79,292.88Z"/><path d="M294.31,261.5c.42.42.74.62.89.91.45.92.83,1.88,1.24,2.82-.24-.09-.66-.13-.7-.27C295.39,263.66,292.15,263.62,294.31,261.5Z"/><path d="M276.38,246.32a19.23,19.23,0,0,1-.09,3.2l-1.63-.79A12.23,12.23,0,0,1,276.38,246.32Z"/><path d="M52.59,154.6c-2.79.87-1.09-1.24-1.5-2-.07-.12.57-.63.88-1A14.66,14.66,0,0,1,52.59,154.6Z"/><path d="M333.1,156.5a4.74,4.74,0,0,1-.95,1.38c-.37-1.44-.76-2.87-1.1-4.31,0-.13.22-.33.34-.49a5.29,5.29,0,0,0,.33.89A20.13,20.13,0,0,1,333.1,156.5Z"/><path d="M387.07,119.43a11.13,11.13,0,0,1,1.9,2.12l-1.77.42A12,12,0,0,1,387.07,119.43Z"/><path d="M148.79,148.39a6.72,6.72,0,0,1-.2,2.52,6.55,6.55,0,0,1-1.54-.13A12.19,12.19,0,0,1,148.79,148.39Z"/><path d="M334,150.81a28.94,28.94,0,0,1-1.05-2.74c.39,0,.87-.06,1.17.13C335.4,149.06,335.53,150,334,150.81Z"/><path d="M184.83,273a15,15,0,0,1,1.7,0c.79.11,1.56.28,2.34.43-.77.31-1.59.95-2.31.85S183.74,275.65,184.83,273Z"/><path d="M43.45,317.88a5.81,5.81,0,0,1-1.07-2l1.61-.52A6.82,6.82,0,0,1,43.45,317.88Z"/><path d="M271.9,105.29c.52.71.86,1.25,1.21,1.79-.59.13-1.43.57-1.72.33a5.66,5.66,0,0,1-1-1.91A4.23,4.23,0,0,1,271.9,105.29Z"/><path d="M165,299.08a22.79,22.79,0,0,1-3.68,2.22c-.11.06-.37-.16-.55-.25.19-.24.32-.59.57-.7A19,19,0,0,1,165,299.08Z"/><path d="M305,132.19a13.09,13.09,0,0,1-3.07.34,5.82,5.82,0,0,1-.15-.92A25.52,25.52,0,0,1,305,132.19Z"/><path d="M247.07,212.88a11.38,11.38,0,0,1,.6-2.59l1.3,1.63A6.53,6.53,0,0,1,247.07,212.88Z"/><path d="M306.21,199.95a9.81,9.81,0,0,1,2-1.14l.67,1.61C308.08,200.26,307.31,200.1,306.21,199.95Z"/><path d="M154.48,218.57c-1.33-.07-2.32-.13-3.31-.2.14-.24.27-.67.44-.69,1.14-.14,2.29-.19,3.44-.27A1.83,1.83,0,0,1,154.48,218.57Z"/><path d="M177.93,180.64c.83,0,1.32.05,1.81.08-.33.43-.65,1.2-1,1.23a13.52,13.52,0,0,1-2.81-.34A11,11,0,0,1,177.93,180.64Z"/><path d="M391.55,246a25.54,25.54,0,0,1-3.19.6,5,5,0,0,1,.3-1.11A10.33,10.33,0,0,1,391.55,246Z"/><path d="M206.21,281.32c-.88-.07-1.41-.15-1.94-.22.24-.32.41-.82.72-.92a4.19,4.19,0,0,1,1.93-.2,4.38,4.38,0,0,1,1.37.83A18.18,18.18,0,0,1,206.21,281.32Z"/><path d="M49,314.43a6.25,6.25,0,0,1-1.3-3c0-.56.67-1.19,1-1.78a4.36,4.36,0,0,0-.38,1.66A16.9,16.9,0,0,1,49,314.43Z"/><path d="M359.31,280.64c-1.34-.3-2.33-.61-3.32-.91.19-.16.43-.48.56-.44,1.13.33,2.24.73,3.35,1.12C359.81,280.48,359.73,280.56,359.31,280.64Z"/><path d="M485.34,384.6a7.09,7.09,0,0,1,1.55,1.66l-1.33.59A9,9,0,0,1,485.34,384.6Z"/><path d="M162.24,140.46a.67.67,0,0,1,.3-.64c.78-.52,1.57-1,2.38-1.49a7,7,0,0,1,.49.68A17.84,17.84,0,0,1,162.24,140.46Z"/><path d="M449.66,244.08c-1.36-2.46.76-1.06,1.42-1.31.3-.12.89.51,1.34.8C451.61,243.75,450.8,243.91,449.66,244.08Z"/><path d="M192.93,135.64a11.69,11.69,0,0,1-2.59-.36l.86-1.36A8.17,8.17,0,0,1,192.93,135.64Z"/><path d="M125.69,169.77a12.46,12.46,0,0,1,3.21.15c.23,0,.37.6.55.92a2.54,2.54,0,0,1-1,.11A11.13,11.13,0,0,1,125.69,169.77Z"/><path d="M359.83,247.7a.82.82,0,0,1-.72.5c-1,0-2-.07-3-.11.1-.24.2-.7.3-.7A19.26,19.26,0,0,1,359.83,247.7Z"/><path d="M496.38,354.6a6.66,6.66,0,0,1,.33,2c0,.12-.64.36-.65.34a5.09,5.09,0,0,1-.82-1.67C495.2,355.08,495.86,354.73,496.38,354.6Z"/><path d="M42.07,259.95a4.58,4.58,0,0,1-2-1.18c-.21-.3.13-1,.22-1.51a12.79,12.79,0,0,1,1.4,1.29A1.7,1.7,0,0,1,42.07,259.95Z"/><path d="M207.59,185.46c1.13-.14,1.91-.27,2.7-.41a8,8,0,0,1-1.85,1.06,18.31,18.31,0,0,1-2.86.32A11,11,0,0,1,207.59,185.46Z"/><path d="M391.72,270.29a14.33,14.33,0,0,1-4,.67c-.27,0-.55-.22-.82-.34.24-.24.47-.67.71-.68A13.79,13.79,0,0,1,391.72,270.29Z"/><path d="M405.69,102.88a7.84,7.84,0,0,1,1.9,1.43c-.48.15-1.27.56-1.38.42A3.18,3.18,0,0,1,405.69,102.88Z"/><path d="M300.86,196.67a1.44,1.44,0,0,1,.83-.17c.8.12,1.6.26,2.39.39-.23.23-.51.7-.7.66A7.9,7.9,0,0,1,300.86,196.67Z"/><path d="M44,116.67a15.67,15.67,0,0,1-.61,3,4.13,4.13,0,0,1-.57-.27A11.61,11.61,0,0,1,44,116.67Z"/><path d="M277.41,106.32a5.82,5.82,0,0,1,1.75,1l-1.63.83A6.21,6.21,0,0,1,277.41,106.32Z"/><path d="M289.14,274.6a3.18,3.18,0,0,1,1.85.51c.14.11-.26.9-.42,1.38A7.84,7.84,0,0,1,289.14,274.6Z"/><path d="M39.14,274.95a3.2,3.2,0,0,1,1.27.8l-2.09,1.44A18.37,18.37,0,0,1,39.14,274.95Z"/><path d="M384.83,203.39a1.87,1.87,0,0,1,.75,1l-2.6,1a6.48,6.48,0,0,1,.54-1A3.44,3.44,0,0,1,384.83,203.39Z"/><path d="M374.66,278.74a10.77,10.77,0,0,1,2.52.79c-.81.14-1.62.29-2.44.37A2.34,2.34,0,0,1,374.66,278.74Z"/><path d="M415.86,242.7c-.87-.06-1.39-.13-1.92-.19l1.57-1.87A4.36,4.36,0,0,1,415.86,242.7Z"/><path d="M16.38,388.39a7.26,7.26,0,0,1,.32-2l1.19.8A5.32,5.32,0,0,1,16.38,388.39Z"/><path d="M415.34,236a7.84,7.84,0,0,1,1.9,1.43c-.36.14-1,.48-1,.38A4,4,0,0,1,415.34,236Z"/><path d="M165,217a14,14,0,0,1,2.83-1.21,6.2,6.2,0,0,1,.12.63A12.94,12.94,0,0,1,165,217Z"/><path d="M40.17,147.7a14.79,14.79,0,0,0-.41,2.48c-.15-.44-.52-.95-.41-1.3a18.92,18.92,0,0,1,1.2-2.52A5.41,5.41,0,0,1,40.17,147.7Z"/><path d="M315,258.39a12,12,0,0,1-2.59-.25l.26-.88A9.69,9.69,0,0,1,315,258.39Z"/><path d="M402.76,99.95a3.37,3.37,0,0,1,.12-1.84l1.17.72A4.3,4.3,0,0,1,402.76,99.95Z"/><path d="M271.72,112.36a3.58,3.58,0,0,1,1.41-1l.64,1.37A4.31,4.31,0,0,1,271.72,112.36Z"/><path d="M105.52,132.36a8.94,8.94,0,0,1-1.89-1.22l.73-.73A5.8,5.8,0,0,1,105.52,132.36Z"/><path d="M319.31,131.67a3.58,3.58,0,0,1,1.41-1l.64,1.37A4.31,4.31,0,0,1,319.31,131.67Z"/><path d="M113.28,233.91a8.17,8.17,0,0,1,1.71,1.73c-.43.05-1.11.29-1.23.13A3.37,3.37,0,0,1,113.28,233.91Z"/><path d="M195,289.08a6.2,6.2,0,0,1-2,1.18c-.08,0-.31-.3-.47-.47A10.07,10.07,0,0,1,195,289.08Z"/><path d="M170.52,107a5.75,5.75,0,0,1,1,1.73l-1.62.1A10.94,10.94,0,0,1,170.52,107Z"/><path d="M178.45,259.77a11.23,11.23,0,0,1-2.41,0c.19-.31.44-.91.56-.88A4.35,4.35,0,0,1,178.45,259.77Z"/><path d="M333.28,282.53a4.35,4.35,0,0,1,1.3-1.21l.6.92A6.27,6.27,0,0,1,333.28,282.53Z"/><path d="M148.79,300.81a3.84,3.84,0,0,1,.27,1.21L147,301.6A5.88,5.88,0,0,1,148.79,300.81Z"/><path d="M109.48,205.29a11.58,11.58,0,0,1-2.48-.06c.17-.24.38-.71.5-.69A5.06,5.06,0,0,1,109.48,205.29Z"/><path d="M444.66,243.22a10.12,10.12,0,0,1,2.21-.14c-.78.33-1.55.67-2.33,1-.05,0-.25-.14-.24-.19A1.69,1.69,0,0,1,444.66,243.22Z"/><path d="M377.41,303.91a6.51,6.51,0,0,1-1.93.83l-.15-.48A7.43,7.43,0,0,1,377.41,303.91Z"/><path d="M378.62,246.84a4,4,0,0,1,2.07-.31,5.81,5.81,0,0,1,0,.62A4,4,0,0,1,378.62,246.84Z"/><path d="M108.28,166.15a4.1,4.1,0,0,1,1.24,1.17H107A4.1,4.1,0,0,1,108.28,166.15Z"/><path d="M216.72,165.29a2.7,2.7,0,0,1,1.51-.51c.09,0,.2.72.3,1.11A11,11,0,0,1,216.72,165.29Z"/><path d="M351.72,280.64c-1.11-.07-1.87-.15-2.63-.22.08-.16.16-.45.23-.45,1.22,0,2.43.12,3.65.2A4.74,4.74,0,0,1,351.72,280.64Z"/><path d="M285.69,268.39a4.68,4.68,0,0,1-1.55-.94l.61-.61A4.68,4.68,0,0,1,285.69,268.39Z"/><path d="M99.83,122.53a11,11,0,0,1-1.81.6c.1-.39.22-1.11.3-1.11A2.7,2.7,0,0,1,99.83,122.53Z"/><path d="M226.38,117.7a11,11,0,0,1-.6-1.81c.39.1,1.11.22,1.11.3A2.7,2.7,0,0,1,226.38,117.7Z"/><path d="M319.14,123.22a5.28,5.28,0,0,1,1.52-.2c0,.3-.07.84-.15.85a13.07,13.07,0,0,1-1.78,0,.43.43,0,0,1,0-.22A3.26,3.26,0,0,1,319.14,123.22Z"/><path d="M376.38,297a6.31,6.31,0,0,1-1.9-.25l.26-.87A5.52,5.52,0,0,1,376.38,297Z"/><path d="M48.28,279.26a4.79,4.79,0,0,1,.84-1.38l-.62,2.64A8.67,8.67,0,0,1,48.28,279.26Z"/><path d="M245,119.77a3.93,3.93,0,0,1-.56,1.51l-.95-.95A3.93,3.93,0,0,1,245,119.77Z"/><path d="M36,199.43a3,3,0,0,1,1.15.92l-1.15.8A5.75,5.75,0,0,1,36,199.43Z"/><path d="M366,288.39a2.82,2.82,0,0,1,1.13-.86l.4,1.06A5.28,5.28,0,0,1,366,288.39Z"/><path d="M152.93,291.15a3.55,3.55,0,0,1-1.28,1.18s-.31-.3-.47-.46A5.35,5.35,0,0,1,152.93,291.15Z"/><path d="M38.45,302.88a2.64,2.64,0,0,1,.06,1.59c-.07.17-.72.09-1.11.12A5.7,5.7,0,0,1,38.45,302.88Z"/><path d="M35.86,243.39a3.15,3.15,0,0,1,1.84.15,1.84,1.84,0,0,1,0,.45A3.78,3.78,0,0,1,35.86,243.39Z"/><path d="M44.66,295.29a6,6,0,0,1-1.84.23l.09-.89A11.57,11.57,0,0,1,44.66,295.29Z"/><path d="M477.07,212.19c-.25.09-.4,0-.4-.06,0-1.05.11-2.11.17-3.16A18.89,18.89,0,0,1,477.07,212.19Z"/><path d="M104.66,230.12a5.75,5.75,0,0,1-1.72,0l.8-1.15A3,3,0,0,1,104.66,230.12Z"/><path d="M127.76,132.53a3.93,3.93,0,0,1-1.51-.56l.95-.95A3.93,3.93,0,0,1,127.76,132.53Z"/><path d="M227.07,124.26a5.35,5.35,0,0,1,1.75.72c-.16.16-.42.49-.47.46A3.55,3.55,0,0,1,227.07,124.26Z"/></g></svg>