<svg id="Layer_1" data-name="Layer 1" xmlns="http://www.w3.org/2000/svg" viewBox="0 0 500 312.52"><title>Artboard 12</title><g id="Shape_12" data-name="Shape 12"><path d="M.88,202.06l.7-4.11c1.33-5.1,8.12-7.85,12.63-5.11A17,17,0,0,0,32.73,192l14.15-1.14L31,196.74a10.43,10.43,0,0,1-3.54.86c-1.82,0-3.52-.93-5.34-1s-3.94,1.51-3.28,3.21c-2.22-2.45-4.73-5.07-8-5.46s-7,3-5.5,6a11.06,11.06,0,0,0,9.84-.43l.94,4c2.23-2.93,6.73-2.85,10.18-1.54s6.59,3.54,10.23,4.08c7.92,1.17,15.51-6,23.32-4.23,1.78.4,3.65,1.24,5.34.56,7-2.82,14.91-.32,22.26,1.54S103.48,207,109,201.81c.45,4.26-4.1,8.23-8.25,7.22,1.32,1.76,2.83,3.64,5,4.07s4.76-1.7,3.85-3.7a11,11,0,0,0,6.22,2.94c-1.86,3.82-7.13,4.65-11.19,3.38s-7.47-4-11.37-5.72-9-2-11.92,1a3,3,0,0,1,1.94-3.77c-.24-1.68-2.43-2.11-4.13-2.14L61,204.78c-4.82-.08-9.93-.09-14,2.43-4.3,2.62-9.77,1.77-14.72.83Z"/><path d="M.87,221a4.55,4.55,0,0,0,2.45-.32c.49-1.25-1.15-2.5-2.44-2.14L1,214.61c4.5,3.28,11.9,1,13.81-4.2a11.94,11.94,0,0,0,3.55,3,4.06,4.06,0,0,0,4.39-.38,10.46,10.46,0,0,1,7-2.73,2.74,2.74,0,0,1,2.27.84c.5.68.06,1.92-.77,1.83a8.71,8.71,0,0,0-9.22,6.94,11.55,11.55,0,0,0-5.73-2,2.42,2.42,0,0,0-1.42.22c-.67.4-.85,1.26-1.14,2a7.33,7.33,0,0,1-5.63,4.12,21.63,21.63,0,0,1-7.24-.31Z"/><path d="M15.61,170.86A18.48,18.48,0,0,1,.45,173.63l16.19-5.19c2.59-.83,5.32-1.67,8-1.15-.14,1.14-1.44,1.77-2.59,1.83a19.63,19.63,0,0,0-3.44,0A9,9,0,0,0,15.61,170.86Z"/><path d="M.88,182a9.29,9.29,0,0,1,4,.32A14,14,0,0,1,1,186.94L.81,182Z"/><path d="M.9,205.62c1.07-.56,2.24.5,3,1.45a3.45,3.45,0,0,1-2.75,2.22,10.39,10.39,0,0,1-.24-3.75Z"/><path d="M.88,190.72c1.14-.13,2.58-.12,3.1.91a3.14,3.14,0,0,1-3.1.87v-1.79Z"/><path d="M98.29,224.4c-1.1,3.07,3.55,4.89,6.77,4.38s7.51-1.11,8.83,1.87a5.16,5.16,0,0,0,2.47-4.72l-9.58-5.17a95.63,95.63,0,0,0,17.47.4,65.29,65.29,0,0,1-7.45-4.6l21.22-.71A34.67,34.67,0,0,1,149.93,204l9.41,3.5a21.34,21.34,0,0,0-19,8.95c-2.65,3.84,2.16,9.23,6.81,8.92s8.32-3.91,11.53-7.3a24,24,0,0,0-16.08,2.38,7.92,7.92,0,0,1,8.71-4.78l-3.12-3.82c8.5.34,17-.78,25.41-1.89,19.76-2.6,39.67-5.24,58.53-11.7l-8.41,8.33L218,205.46l-23.61,8.84A41.14,41.14,0,0,0,162,217.4a24.2,24.2,0,0,1,20.09,4.47q-21.95,4.91-44.29,7.77a365.77,365.77,0,0,0,64.15-.69,18.34,18.34,0,0,1-19.41-11.85l20.11,8-3.22-9.52a15.42,15.42,0,0,1,6.93,8.11l-.42-8.58c3.88,5.19,11.71,4.56,18.08,3.41L254.4,213A24.54,24.54,0,0,1,233,219.66l14.41,3.6-44.77,5.53,131-1.54c18.75-.22,37.52-.44,56.26.47a5.91,5.91,0,1,1,7.6-9.05,6.43,6.43,0,0,1-5.52,1.95l1.73,5.56A48.76,48.76,0,0,1,441.61,223a81.51,81.51,0,0,1-29.75,2,16,16,0,0,0,9.93-3.48A37.37,37.37,0,0,0,398.2,228q50.79.82,101.59.72l-.17,46.16-7.93-18.56a4.06,4.06,0,1,1-5.82-5.63,48.57,48.57,0,0,1-25.58,5.53,5,5,0,0,0,2.21,6.66c-2.38-.24-5-.62-6.54-2.47s-.49-5.53,1.89-5.31a6.18,6.18,0,0,0-7.54,4.15A11.21,11.21,0,0,1,454.55,271,23.4,23.4,0,0,1,440,258.52a21,21,0,0,0,14.15,16.87c-3.35,2.67-8.45,2-12-.36s-5.95-6.12-8.23-9.76A54.06,54.06,0,0,0,438,292.1c1.87-4.83,8.94-6.61,12.88-3.25l-9.17,1.52a26.88,26.88,0,0,0,11.62,8.86,17.17,17.17,0,0,0-.47-15.93l5.86-1.21,1.05-7.37a24.48,24.48,0,0,0,10.34,12.11,7.58,7.58,0,0,1-8.65-.42c.07,6,3,14.32,8.77,12.7l.18-8.35a24.19,24.19,0,0,1,9.31,4.5,5.13,5.13,0,0,1,2.57-6.91c.63,2.67,1.46,5.62,3.82,7s6.34-.6,5.48-3.2l4.67,4.52-3.69-12c6.43,3.77,6.9,13.74,2.26,19.57s-12.64,8-20.09,7.81c-17-.4-32-10.81-45.63-21.09a40.54,40.54,0,0,0-18.93,21l-11.78-6.84-1.68,6.42-146.9-.4,35.48-15.56c6.68-2.93,13.68-5.92,21-5.48s14.84,5.49,15.5,12.75a125.13,125.13,0,0,1,6-16.55,115.76,115.76,0,0,0-30.79,2c-6,1.21-12.48,2.87-18.1.4s-8.44-11.35-3.28-14.67l-9.28-.52a22,22,0,0,0-6.84-14.26L262,274.49a17.48,17.48,0,0,1,9.83,3.68,25,25,0,0,0,2.3,15.57,10,10,0,0,1-7.25-1c2.09,3.14-2.39,6.77-6.16,7s-8.2-.63-10.78,2.13a166.59,166.59,0,0,1-33.77-7c-7.08-2.26-14.9-5.92-16.86-13.09-1.84-6.73-15,.6-18.55-5.39A31.92,31.92,0,0,1,194,272.52c-4.28-4.76-13.64-2.5-15.27,3.69a21.11,21.11,0,0,0-22.24-3.62l9.54-3.12-19.38-6.09c-2.17-.68-4.84-2.19-4.3-4.4a10.64,10.64,0,0,0-8.51-12.53l3.3,10.33c-3.4-2-5.51,4.31-4.05,8s2.52,9.49-1.38,10.18a55.82,55.82,0,0,1,.54-34.7c-.94-3.66-7-4.36-8.73-1a37.34,37.34,0,0,0-34.39.67,2.28,2.28,0,0,1-.59-4l-8.08-.6A25.76,25.76,0,0,1,87,259c-.87-10.26-11.67-18.5-21.8-16.63,6.6-.61,13,5.4,12.85,12A58,58,0,0,1,67.69,252c-5.43-1.64-10.44,6.64-6.48,10.7,2.56,2.62-3.81,6-5.92,3s-.45-7.09,1.25-10.34L44.07,253a9.73,9.73,0,0,1,7.54-1.73c-7.33-5.57-20,1.37-19.21,10.55.45,5.35-.64,10.78.2,16.08s4.58,10.83,9.95,11a15.57,15.57,0,0,0-7.43,13.52c1.16-3,5-4.11,8-3.35s5.59,2.92,8,5l7,6.13c-3.12,3-9.42.58-9.7-3.75l-3.66,3.83c-15.49,6-34.78-.42-43.62-14.47-.89-1.41-1.67-3.31-.68-4.66s3.85.25,2.67,1.43a189,189,0,0,1-.44-61.3A3.32,3.32,0,0,1,1,226.75a56.86,56.86,0,0,1,16.71,3.34,11.53,11.53,0,0,0-2-7.61A50.5,50.5,0,0,0,38.76,225c11.66-1.46,25.6-6.27,33.63,2.31a314.14,314.14,0,0,0-51.63,2.11c-.31,1.73,2.16,2.42,3.91,2.36l73.85-2.45a25.52,25.52,0,0,1-22.64-9.53A121.08,121.08,0,0,1,46.24,212a32.88,32.88,0,0,1,20-4.09,16.17,16.17,0,0,0-10,4.14,25.23,25.23,0,0,0,10.87,3.16,11,11,0,0,1,10.17-5.73l-7.12,8.17a25.22,25.22,0,0,1,19-2.54,8.9,8.9,0,0,0-8.52,4.44,35,35,0,0,1,24-.08l-20.93,2.68a12.8,12.8,0,0,0,14.62,2.25m314.35,64.31a2.34,2.34,0,0,0,1.18-.29c1.64-1.1-1.09-4.06.23-5.53,1.77-.52,3.15,1.47,4.18,3s3.45,2.85,4.48,1.32c.57-.86.17-2,.13-3s.84-2.32,1.75-1.84a7.14,7.14,0,0,0,2.69,7.53c3-3.58-2-9.85.92-13.48.88-1.07-.42-2.5-1.27-3.59-1.91-2.47-1.6-5.93-2.41-8.94s-4.31-5.95-6.79-4c-1.23.94-3,.45-4.34-.38s-2.47-2-4-2.36a8.83,8.83,0,0,0-3.84.19,191.31,191.31,0,0,1-22.81,3,11,11,0,0,1-4.92-.42,32.59,32.59,0,0,0-11.91-2.37,6.78,6.78,0,0,0,5.17,8.18,4.38,4.38,0,0,0,.94,4.76,15.74,15.74,0,0,0,4.21,2.94,46.67,46.67,0,0,1,15.33,14.09c1.51,2.2,4.67,2.26,7.33,2.09l13.71-.86m-193.37-1a17.17,17.17,0,0,0,16-8.29c1.27-2.19,5.52,1.51,6.95-.58.76-1.11,2.57-.37,3.32.74s1.17,2.57,2.36,3.19c1.48.78,3.47-.41,3.85-2a4.35,4.35,0,0,0-1.92-4.33,9.29,9.29,0,0,0-4.75-1.42,22.52,22.52,0,0,0-13.36,3.3,9,9,0,0,1-3.32,1.58,5.08,5.08,0,0,1-4.63-2.38,14.94,14.94,0,0,1-1.92-5.09c-.33-1.34-1.75-2-2.8-2.93s-1.71-2.76-.56-3.51l5.9,5.64c1.16,1.1,3.11,2.19,4.13,1,.78-.94.15-2.32,0-3.53s1-2.83,1.94-2c.5-1.41-1.65-2.27-3.1-1.91s-3.13,1.12-4.28.17-.73-2.81-1.28-4.19c-.92-2.29-4.13-2.54-6.47-1.74s-4.56,2.28-7,2.12a5.05,5.05,0,0,0-1.62,0,2.88,2.88,0,0,0-1.47,1.15,8.35,8.35,0,0,0-1.3,7.26c.29,1,.78,2.06.36,3s-1.4,1.29-1.94,2.08a3.94,3.94,0,0,0-.38,2.81,14.42,14.42,0,0,0,10.3,11.55c2.95.79,6.88,1.25,7.52,4.24,1.28-.8,3-.37,4.35.23s2.84,1.34,4.34,1.1,2.75-2.12,1.8-3.29a3.19,3.19,0,0,0-2.77-.72c-3.19.22-7.43-.07-8.19-3.18M5.17,253.51c0-3.74,0-7.58-1.35-11.08C1.94,248.15,2,254.3,2.16,260.31L2.68,287c1.63.54,2.51-1.87,2.5-3.59l0-29.88m123.52-28.84-9.18,1.58a5.43,5.43,0,0,0,10.66,0c.53-2.76,6.27-.88,6.91-3.62-2.41-2.52-7.42-1.29-8.39,2.05M33.51,243.2a39.11,39.11,0,0,0,14.09-.54c1.35-.3,2.68-.67,4-1-1-1.63-3.37-1.26-5.27-1.22-2.41.05-4.77-.76-7.18-.76s-5.15,1.2-5.64,3.56M378,280.54a13,13,0,0,0-5.27-2.74,6.51,6.51,0,0,0-3.7.45,60.09,60.09,0,0,0,13.5,9.53c.62-3-2.1-5.45-4.54-7.24m-23.51,24.94a1.89,1.89,0,0,0,1,.27c.95-.1,1.25-1.31,1.32-2.27.16-2.38-.22-5.54-2.57-6-1.91-.37-3.6,1.78-3.35,3.7a6.08,6.08,0,0,0,3.59,4.29M165.16,260.39a5.9,5.9,0,0,0,2.81,2.3c1.19.32,2.74-.49,2.66-1.72a2.33,2.33,0,0,0-.92-1.52,5.59,5.59,0,0,0-8.09,1.36,2.37,2.37,0,0,0,3-.13m71.15,26a12.82,12.82,0,0,0,8.59.24c.56-.19,1.24-.69,1-1.22a8.06,8.06,0,0,0-9.56,1m-39.35-20.86c.57-1.59-1-3.07-2.37-4a15.43,15.43,0,0,0-.78,6.12,2.2,2.2,0,0,0,.54,1.51,1.63,1.63,0,0,0,2.37-.7,4.72,4.72,0,0,0,.19-2.8m284.91,34.23c-2.24,2.92-.41,7.93,3.19,8.72l-3.19-8.72m-89.35-4.44c-1.74,1.11-.91,4,.71,5.24a7.37,7.37,0,0,0,5.75,1.48,11.75,11.75,0,0,1-6.46-6.73M226,222.05l-6.1.55-7,.63A14.57,14.57,0,0,0,226,222.05m14.53,72.63c0-2.56-3.79-4.08-5.6-2.26a5.19,5.19,0,0,0,5.27,2.67M270.73,267l1.68-.14c.69-1.12-.61-2.61-1.92-2.63a5.7,5.7,0,0,0-3.47,1.71,5.45,5.45,0,0,0,3.72,1.35m136-14.9a2.2,2.2,0,0,0-3.65.59,8,8,0,0,1,6,3.43c1.22-1.3-.62-3.21-2.21-4M168.56,218.72a2,2,0,0,0,1.05,2.66,5.72,5.72,0,0,0,3.19.17c.45-2.07-2.46-3.89-4.13-2.6m324.79,78c-.92-1-2.62.48-2.36,1.78s1.54,2.09,2.69,2.74a4.69,4.69,0,0,0-.27-4.53m-470.08,12h2.48a2.36,2.36,0,0,0,.31-1.64A13.45,13.45,0,0,1,21,305.79a2.21,2.21,0,0,0-.31,1.56l2.78,1.55M11.06,230.73l-3.85.6c.8,1,1.79,2.1,3.07,2.06s2.09-2.15.88-2.57M473.5,300.9a2,2,0,0,0,1.82,3.06,3.93,3.93,0,0,0-.86-4.37,1.44,1.44,0,0,0-.9,1.28M12,294.8c-.56.93,1.06,1.94,1.93,1.29a2.67,2.67,0,0,0,.52-3,1.74,1.74,0,0,0-2.53,1.57m463,13.33a1.86,1.86,0,0,0,2.24,1.53l.9-2.14c-.57-1.32-3-.84-3,.6M269.07,288.65a3.29,3.29,0,0,0-3.81.07,2.63,2.63,0,0,0,4.41,0M15.37,306.35a9.53,9.53,0,0,0,2.84-2.82,2.6,2.6,0,0,0-3.21,3m44.45-53.28c.27-.74-.56-1.49-1.35-1.47a3.67,3.67,0,0,0-2.07,1,2,2,0,0,0,3.07.15M60.72,240c.74,1.34,3.27.7,3.27-.84a2.88,2.88,0,0,0-3,.8m170.1,49.45a1.83,1.83,0,0,0,3.11-.62,2.29,2.29,0,0,0-3.08.61M137.85,240.8l-.25,1.57a1.66,1.66,0,0,0,2.56-1.27,3.5,3.5,0,0,0-2.19-.26M17.89,290.33H16a1.21,1.21,0,0,0,1.22,1.75,1.23,1.23,0,0,0,.66-1.76m231.46-29a2,2,0,0,0-1.59.25,1.94,1.94,0,0,0,1.64,2.08,2.29,2.29,0,0,0,0-2.37m34.3,24.33-1.83.72a2.68,2.68,0,0,0,2.81.92.85.85,0,0,0-.88-1.3m-270.69,16a1.1,1.1,0,1,0-.2,2,1.29,1.29,0,0,0,0-1.8m431.22-46.56a1,1,0,0,0-1.06-1.59,2.7,2.7,0,0,0-.25,2.07c.35.53,1.37,0,1.14-.59M249.05,295.09l1.58.25a1.31,1.31,0,0,0-1.33-1.85L249,295m-242.22-1c-1.08,0-1.07,1.65-.68,2.66,1.07.09,1.11-1.57.72-2.56m213.1-38.61a1,1,0,0,0-1.74.52,1.07,1.07,0,0,0,1.83-.57M160.81,216l1.18-1.3c-.49-.89-2.16.25-1.51,1Z"/><path d="M179.13,139.55l.05-63.7c0-1.24-.06-2.63-1-3.47a4.51,4.51,0,0,0-2.78-.84l-17.1-1.25L179,68.79l1.44-21.19a20.6,20.6,0,0,1,.75,13.59l21.75-.12a3.12,3.12,0,0,0,2.32-.65,3.11,3.11,0,0,0,.56-2.2l-.08-22.49a198.49,198.49,0,0,1-23.55-.9l-1,10.71q-11,0-21.87-1c3.46-2.32,8.06-1,12.22-.8s9.47-2.45,8.6-6.53a44.69,44.69,0,0,1,.91-22L182,33.46h23.49L205.87,15c8.06-1.63,16.29-3.27,24.46-2.27,1.63.2,3.25.5,4.9.6a47.11,47.11,0,0,0,5.69-.18c12.17-.78,24.37.53,36.5,1.82a6.57,6.57,0,0,1,4,1.36c1.25,1.21,1.32,3.16,1.31,4.9l-.57,115.49c0,2.66-2.69,4.68-5.34,4.93s-5.23-.79-7.68-1.81c2.49-2.05,7.38,1,9.07-1.72a4.54,4.54,0,0,0,.46-2.35l.29-21.81c0-1.6-.05-3.43-1.27-4.47-2.64-2.27-7.15,1.58-10-.36-.11-1.43,1.57-2.37,3-2.39s2.89.48,4.29.18c3.49-.73,4.22-5.32,4.18-8.88l-.24-23.85c0-2.2-3.05-2.8-5.23-2.48s-5,.53-5.92-1.48c4.85.2,11.5-1.24,11.36-6.09q-.26-9.19-.7-18.37a19.71,19.71,0,0,1-11,.27c.88-2.41,4.48-.94,7-1.24,3.78-.44,5.16-5.32,4.71-9.11s-1.76-7.86.05-11.21c1.5-2.77-.62-6.38-3.52-7.62s-6.2-.79-9.32-.32a3.38,3.38,0,0,0-2,.78,3.39,3.39,0,0,0-.62,2.39c0,13.57-.08,27.24,2.48,40.57.35,1.84-.32,3.7-.82,5.51-1.5,5.41-1.52,11.1-1.53,16.72l-.07,58.23q-29.69.81-59.39-.25l1.29-77.11-18.85-1.12c-2.27-.14-5.39.47-5.39,2.74l-.07,68c0,2.4-.2,5.2-2.19,6.55m35.8-24.43a23.72,23.72,0,0,1,15.95,1.29q.27-24.55-.39-49.1a23.24,23.24,0,0,1-18.73-1.71l15.55-.67c1.51-.07,3.24-.23,4.15-1.45a5,5,0,0,0,.76-2.49,67.67,67.67,0,0,0-1.7-24.34,150.3,150.3,0,0,0,.88-19.9,2.11,2.11,0,0,0-.56-1.68,2.11,2.11,0,0,0-1.44-.26l-15.55.94a3.22,3.22,0,0,0-2.25.73,3.22,3.22,0,0,0-.56,2.24l.16,119.79q8.58,0,17.16-.43a3.68,3.68,0,0,0,2.14-.56c.92-.72.94-2.07.89-3.23l-.63-13.34c-.15-3.09-4.3-4-7.38-3.68s-7,.6-8.44-2.14m37.68-12.24a5.58,5.58,0,0,0,3.09-.57c1.3-.83,1.67-2.55,1.86-4.09a68.41,68.41,0,0,0,.25-15.12c-.13-1.38-.44-3-1.65-3.64s-2.43-.21-3.64.08a18.84,18.84,0,0,1-12.31-1.28,214.16,214.16,0,0,1-.1,22c-.09,1.61-.06,3.23,0,4.84l.58,31.6a1.29,1.29,0,0,0,1.64,1.5l10.9-.07c1.89,0,4.1-.2,5.11-1.79,1.21-1.92-.38-4.59-2.5-5.42s-4.49-.41-6.75-.19-4.79.16-6.48-1.36l14.53-1.44a73,73,0,0,0,.87-18.47,5.94,5.94,0,0,0-.56-2.37c-.91-1.66-3.1-2.13-5-1.94s-3.71.87-5.6.79-4-1.26-4.11-3.14l9.87.09m-1.59-26c3.11-.4,6.74-2.2,6.75-5.34l0-13.06c0-2.34-.71-5.47-3-5.51a100.15,100.15,0,0,0-13.93.72c-.85-.07-1.16,1.09-1.16,1.94q0,9.4.48,18.8a2.12,2.12,0,0,0,.18.91,2.06,2.06,0,0,0,1.33.83,23.25,23.25,0,0,0,9.36.72m3.33-34.11a4,4,0,0,1,.34,2.37,32.85,32.85,0,0,1-13.8.76c-1.64.58-1.48,3.22-.09,4.26s3.3,1,5,.81l6.72-.53c1.78-.14,3.8-.41,4.83-1.87a6.18,6.18,0,0,0,.76-3.55l.14-13.61c0-1.63-.16-3.6-1.62-4.34a4.43,4.43,0,0,0-2.19-.28l-11.05.44a5.79,5.79,0,0,0-3.1.71c-1.45,1-1.68,3-1.47,4.8s.7,3.55.18,5.23a3.56,3.56,0,0,0,1.43,3.7,8.41,8.41,0,0,0,3.94,1.4,28.5,28.5,0,0,0,9.92-.28M239,23.85a40.62,40.62,0,0,0,15.79-.66,4.9,4.9,0,0,0,2.37-1.09c1.2-1.19.92-3.33-.2-4.6a8.35,8.35,0,0,0-4.47-2.24c-4.07-1-8.62-1-12.14,1.24A11.9,11.9,0,0,1,239,23.85Z"/><path d="M142.64,16.36l1.57,39.74-2.32-3.5q-2,23.87-1.61,47.86A19.13,19.13,0,0,0,142.6,82c2.28,1.79,5.66,3.57,7.78,1.59,3-2.82-1.54-8.25.44-11.88-1.19,1.11,2,2.2,2.54.66s-.61-3.1-1.09-4.66a6,6,0,0,1,2.81-6.86l.24,74.21a4.26,4.26,0,0,1-.8,3.07A4.1,4.1,0,0,1,152,139a60.31,60.31,0,0,1-21-1q5.2-39.56,7.71-79.42a94.62,94.62,0,0,0-29-1.47,48.44,48.44,0,0,1,2.88-23.88l-.77,21.2,25.81.47c2-4.17,4.12-8.5,4.19-13.14s-2.49-9.66-7-10.87c-5.64-1.53-13.32,2.73-16.64-2.08l18.81,1a3.84,3.84,0,0,0,2.37-.39,3.86,3.86,0,0,0,1.27-2.64l2-10.46m6.45,72.9c.93,0,1.09-1.31.9-2.22l-1.51-.94a2.45,2.45,0,0,0-.92,1.54l1.35,1.7Z"/><path d="M318.42,216.93a9.45,9.45,0,0,0,8.08,2.12c3.87-.82,6.86-4.07,8.41-7.71a6.46,6.46,0,0,0,8.11-5.28,4.36,4.36,0,0,0,6.4-.19,8.47,8.47,0,0,0,10-.58,3.13,3.13,0,1,1-2.15,5.87c-.79-.3-1.46.63-1.79,1.4l-5.22,12.09c.52-2.37-2.18-4.31-4.6-4.39s-4.74,1-7.16,1.13-5.32-1.12-5.5-3.53a10.48,10.48,0,0,1-8.29,5.08l.82,3.06a11.75,11.75,0,0,0-13.09-4.38,29.75,29.75,0,0,1-21.42-1c1-1.55,3.21-1.66,5.06-1.6l12.09.4c1,0,2.21,0,2.85-.79,1.57-1.92-1.9-3.91-4.37-4-3.59-.13-7.29-.25-10.68,1s-6.43,4.1-6.72,7.68c-.2,2.38-4,2-5.75.38s-4.16-3.72-6.17-2.43a22,22,0,0,1-20.89,1.32l15.84-1a5,5,0,0,1,.61-5,5.71,5.71,0,0,0,4.85,1.7,6.1,6.1,0,0,0-2.83-3.76c-1.54-.89-3.39-1.05-5.07-1.61s-3.4-1.8-3.54-3.58,2.39-3.33,3.51-1.95a10,10,0,0,0,13.47,1.53,2.19,2.19,0,0,1-2.43,2.73c-.22,2.26,2.15,4.06,4.42,4.21s4.43-.83,6.58-1.58a33.59,33.59,0,0,1,17.88-1.11A26.78,26.78,0,0,0,324.63,212c1.6.58.12,3.12-1.56,3.39s-3.83,0-4.65,1.52m33.81-3.08a2.69,2.69,0,0,0,.32-1.95c-.43-1.35-2.29-1.52-3.66-1.15s-2.87,1-4.12.32a15.26,15.26,0,0,1-3.59,6,8.15,8.15,0,0,0,11.06-3.24m-12.62,3.4a7.11,7.11,0,0,0-1.18-2.83c-.53-.76-1.75-1.38-2.27-.62-.46,1.45-.91,3.08-.23,4.45s3,1.81,3.61.4a2.5,2.5,0,0,0,.07-1.4M282,218.68a2,2,0,0,0-3.25.74,2.62,2.62,0,0,0,3.63-.74Z"/><path d="M242.59,311.39l-62,0a20.18,20.18,0,0,1,11.26-12.74A24.14,24.14,0,0,1,209,298c3.87,1.27,7.44,3.44,11.4,4.37,4.19,1,8.59.54,12.82,1.34S241.89,307.14,242.59,311.39Z"/><path d="M325.25,194.56c-.72-.54-1.63.32-2.2,1-7,8.32-21.52-.1-31.07,5a2.1,2.1,0,0,1,2.6,2.17,3.61,3.61,0,0,1-5.46-1.48,13.2,13.2,0,0,1-16.46.49,13.3,13.3,0,0,0,9.74-2.91c2.54-2.09,6.12-2.2,9.41-2.29a242,242,0,0,0,47.46-5.94c6.18-1.4,13-3,18.56.08,3.39,1.87,7.49,1.77,11.35,1.54a266.73,266.73,0,0,0,43-6.13c-1.5,4.48-7.42,5.15-12.15,5.35s-10.74,2-11,6.72a21.65,21.65,0,0,0-21.84-2c-2.06,1-4.51,2.35-6.46,1.14l2.27-1.5a28.59,28.59,0,0,0-23.49-2.64c-4.75,1.58-10.28,4.32-14.28,1.31m-40.32,5.72a1.4,1.4,0,0,0,2.46-.59,1.63,1.63,0,0,0-2.53.55Z"/><path d="M152.83,290.67a13.16,13.16,0,0,0,0,10.32c1.42,3.3-3.4,7.64-.87,10.19l-3.08.18c1.94-6.27-2.67-13.26-.49-19.46,1.88-5.34,9.23-7.83,14-4.73a18.82,18.82,0,0,1,4.68,5.09l3.44,4.81a13,13,0,0,1,2.13,3.84c1,3.36-.84,7.16.55,10.37-4.35-.8-9.52,1.51-12.92-1.32-.56-.46-1.33.15-1.93.55a3.26,3.26,0,0,1-4.35-4.76c.45-.56,1.08-1,1.32-1.66a3.25,3.25,0,0,0,0-1.72l-2.4-11.7m11.47,13.57a2.23,2.23,0,0,0-3.83-1.07,2.5,2.5,0,0,0,3.75,1Z"/><path d="M440.79,211c-4.74,2.22-9.47-4.19-14.7-4v-2.15c-2.18-.74-3.74,2.1-4.29,4.33a6.15,6.15,0,0,1,5,3.73,5.6,5.6,0,0,1-5.12-2.7,4,4,0,0,1-5.16,3.23c-.8-1.17.87-3,2.09-2.24a3,3,0,1,0-5.57,1.25,72.88,72.88,0,0,1-26.05-.7l.46-2.32c5.79-3.51,13.16-2.34,19.81-1,2.13.41,3.87-1.52,5.63-2.8s5-1.4,5.34.75a18.05,18.05,0,0,1,13.7-5.91c1.5-1,1.08-3.35.11-4.88s-2.35-3-2.32-4.79c4.84,1.19,7.2,8,4.16,11.9.87,2.69,3.53,4.5,6.29,5.13a24.71,24.71,0,0,0,8.45,0,7.38,7.38,0,0,0,5.45,6.27c-1.4,2.07-4.66,1-6.61-.6s-4.37-3.51-6.63-2.45m-42.09,1,2.19-1.13a5.24,5.24,0,0,0-7.65.09,7.52,7.52,0,0,0,5.3.7Z"/><path d="M155.05,189.08c-1.68.52-3.48-.08-5.18-.52a27.79,27.79,0,0,0-14.86.34c-2.44.74-5.21,1.79-7.38.45-1.9-1.18-3.41-4.09-5.46-3.2a12,12,0,0,1-11.4-1.11,3.33,3.33,0,0,1,2.9-1.7c6.26-.68,12.37,4.49,18.44,2.82A47.43,47.43,0,0,1,143,184.95l11.55-.4c5.74-.2,11.52-.39,17.19.56,2.79.47,5.68-.13,8.47.36s5.69,2.76,5.28,5.56A13.88,13.88,0,0,1,194,187.4c-.95,4-6.42,5.95-9.68,3.53-.78-.57-1.42-1.33-2.23-1.85-3.13-2-7.21.12-10.93,0-4.38-.15-8.78-3.5-12.79-1.73A32.21,32.21,0,0,1,155.05,189.08Z"/><path d="M99.35,194.37a87.34,87.34,0,0,1-25.41-2.84c-4.42-1.17-7.89-6.63-12.21-5.17a17.2,17.2,0,0,1-17.14-3.89,61.78,61.78,0,0,1,26.61,4.46,124.94,124.94,0,0,0,17.46,5.66,6.81,6.81,0,0,0,3.94.15A24.48,24.48,0,0,1,110,193c5.19,2.09,11.78-5.14,16-1.43a82.34,82.34,0,0,1-15.87,5.88C108,194.19,103.27,194.23,99.35,194.37Z"/><path d="M271,205.42l-9.78,1.34a13.12,13.12,0,0,0,2.63,5.83c-.44,1.71-2.43,2.63-4.19,2.48a11.39,11.39,0,0,1-4.83-2l-3.88-2.4c-.1-1.32,1.91-1.41,3.19-1.06s3.33-.25,2.8-1.46a1.75,1.75,0,0,0-1.51-.79,12.22,12.22,0,0,0-6.41,1c-.58.27-1.4.51-1.73,0-1.63-2.63-5.37-2.78-8.42-2.28s-6.41,1.32-9-.28a35.86,35.86,0,0,1,13.88-5.23c.8,2.14,3.45,2.81,5.73,3a58.91,58.91,0,0,0,12.7-.09c3.31-.38,6.79-1,9.87.25Z"/><path d="M455.27,179.44a16.4,16.4,0,0,0,3.56.25c2-.22,3.72-1.52,5.69-1.91,3.28-.66,7.6.87,9.42-1.93.25-.39.84-.29,1.28-.14l10.47,3.51a30.23,30.23,0,0,0-6.92,0c-4,.48-8.06,1.76-12,.91-3.16-.68-5.68,3.42-8.91,3.21-1.7-.11-3.14-1.43-4.84-1.58a7.27,7.27,0,0,0-2.68.45l-23.45,7.06a11.35,11.35,0,0,0-8.21-3.23l1.55-3.51c3.41.3,6.33,3.95,9.59,2.93L442,181.67C446.34,180.32,450.79,179,455.27,179.44Z"/><path d="M393.09,114c-.09-3.27-1.6-7.11-4.83-7.63-3-.49-6.41,2.08-8.81.23l12.23-4.84c2.77-2.67-.65-8-4.48-7.58-1.31.14-2.57.71-3.88.63s-2.72-1.28-2.29-2.52c3,.64,6.3,1.25,9-.17s3.92-5.82,1.36-7.53a8.35,8.35,0,0,1-9.53-1.46c4.45,1.63,9.51-2,10.93-6.49s.09-9.45-1.86-13.77a24.34,24.34,0,0,1-9,.81c.21-2.63,3.74-3.16,6.36-3.43s5.87-2.77,4.24-4.85a31.69,31.69,0,0,0-9.65,1c-1.53-1.68,1.22-4.13,3.49-4s4.73,1.19,6.67,0A9.66,9.66,0,0,0,381.63,48c.2-1.89,2.65-2.58,4.53-2.3s3.86,1,5.59.26,1.89-4.08,0-4.07q-6.05,0-12.09.49l-1.81,95.9a4.17,4.17,0,0,1-.42,2.12c-1.19,1.94-4.3.71-5.65-1.12s-2.4-4.28-4.62-4.78a5.66,5.66,0,0,1,6.15.82l-2-5.4a60.94,60.94,0,0,1-12.69-.08,68,68,0,0,1,13.66-4.42l2.16-54.7c.14-3.54-.4-8.08-3.81-9s-7.43,2.36-9.93,0a19.48,19.48,0,0,1,12.79-3.45q1.29-7.56,2.14-15.19c.32-2.91-2.13-5.54-4.92-6.43s-5.8-.48-8.69-.06c.54-3,4.69-3,7.71-3s6.8-3.27,4.54-5.28c-2.58.74-6.79-.08-5.91-2.61,1.62.49,3.41,1,4.95.28s2.23-3.18.78-4.05a3.54,3.54,0,0,0-2-.3l-9.81.44c-1.35.06-2.92.24-3.64,1.38-1.58,2.5,2.56,4.6,5.51,4.71-4.16-.71-6,5-6.06,9.26L355.9,135c-.08,3.4-3.2,6.12-6.51,6.9s-6.78.08-10.11-.62c2-3.4,7.71.64,11.21-1.23,3-1.63,1.89-6.74-1.17-8.31s-6.75-.77-10.08.08c.91-2.86,5-2.43,8-2.18s7-2.67,4.95-4.85a4.27,4.27,0,0,0-3-.92l-9.73-.4a30.14,30.14,0,0,1,13.22-4.17l1.65-54.81c.09-3.07-4.25-3.84-7.28-3.35s-7.25.38-7.85-2.63a28.15,28.15,0,0,0,15.54-2.79l.47-11c.13-3-4.26-3.65-7.2-2.93S340.88,42.87,340,40l10.34-1.33c1.81-.23,3.89-.65,4.73-2.26,1.54-3-2.74-5.75-6.06-5.49s-7,1.68-9.77-.1a12.28,12.28,0,0,0,.23,11.81,16.66,16.66,0,0,1,2,3.59c.39,1.32,0,3-1.21,3.57s-3-1-2.19-2.11c-1.21.56-1.19,2.45-.27,3.42a6.41,6.41,0,0,0,3.63,1.51C337.6,54,336.21,59.68,339,62.68c-1.82,1-2.07,3.42-2.09,5.47l-.59,73.45q-25.1.29-50.2-.63c.57-2.55,4.51-.6,7.07-1.12,2.84-.58,3.48-4.32,3.3-7.21a63.2,63.2,0,0,0-1.77-11.4,7.14,7.14,0,0,1-7.74.22,19.3,19.3,0,0,1,8.55-1l.88-17c.17-3.24.27-6.72-1.49-9.44s-6.17-3.89-8.23-1.39c-.45-1.72,1.94-2.76,3.72-2.61s3.94.57,5-.84a4.41,4.41,0,0,0,.62-2.73l.08-19.53c0-2.6-.51-5.92-3-6.53-1.45-.35-2.9.43-4.37.71s-3.43-.42-3.38-1.91c5.3,1,12.15-2.08,11.89-7.46l-.59-12.08a5.42,5.42,0,0,0-.84-3.2c-2.5-3.11-9.58.84-10.72-3,2.85,1.76,6.82.94,9.21-1.4a11.89,11.89,0,0,0,3.14-9.21A32.43,32.43,0,0,0,295,13.53c5.25,3,11.57,3.31,17.62,3.54l53.73,2c3.55.13,7.55.47,9.83,3.2,2,2.38,5.48,2.7,8.58,2.84l14.91.68,55.78,2.53c10.1.46,22,1.94,26.88,10.78L472,33.41q.59,37.83-1.91,75.63H458.8l3.71-4.39c-.77,1.36,1.31,2.88,2.75,2.27s2.12-2.23,2.65-3.7c1.14-3.14,2.29-6.46,1.7-9.74s-3.63-6.38-6.91-5.76a14.69,14.69,0,0,1-3.21.73c-1.1,0-2.25-1.22-1.68-2.16C461.43,88,466,86,468.15,82.64s2.22-7.7,1.29-11.58c-.35-1.46-1-3-2.34-3.65-1.66-.73-3.52.31-5,1.32-1.66.11-1.18-2.87.4-3.37s3.43.09,4.89-.71,1.87-2.37,2.27-3.86c.73-2.69,1.47-5.49.94-8.23s-2.71-5.37-5.49-5.43c-1.32,0-2.61.51-3.93.45s-2.78-1.17-2.42-2.45a10.22,10.22,0,0,0,9.4-1.59c2.53-2.13,3.52-6.12,1.77-8.93-2.23-3.58-7.26-3.84-11.48-3.69-1.85.07-2.44,2.51-2.48,4.37l-2.4,106.6c-5.52.69-4.62-12-10.15-11.35.87-1.84,4-.46,5.56-1.79,1.94-1.66-1.09-4.71-3.63-4.43s-5,1.9-7.46,1.16l2.44-5.41c3.08,2.6,8.2.34,9.92-3.3s1.09-7.9.43-11.87c-.33-1.94-.89-4.2-2.72-4.93-2.78-1.12-7.24,1.71-8.31-1.09-.85-2.24,2.52-3.61,4.91-3.47s5.76-.32,5.76-2.72V77.84c0-2.54-3.55-3.22-6-2.72s-5.7,1-7-1.13c3.82-.84,7.79-1.75,10.83-4.2s4.81-7,2.93-10.39c-1.72-3.15,1.2-8.2-1.8-10.17-3.17-2.08-8.11,3.07-10.77.37a7.61,7.61,0,0,1,5.45-1.91l-.89-3,8.18.45.55-7.86a6.07,6.07,0,0,1-7.15,3.47c.65-2.18,3.71-2.39,5.33-4,2.53-2.5.06-7.24-3.39-8.08s-7,.81-10.15,2.41a8.38,8.38,0,0,0,6.23,8.35c-2.29-.44-4.57,1.25-5.59,3.35s-1.06,4.53-1.09,6.86l-.89,80,7.26.13a9.87,9.87,0,0,0-8,10c-1.64-.07-2.56-2-2.53-3.65s.63-3.27.4-4.9c-.72-5.07-7.75-5.68-12.82-4.94,2.25-4.75,12.65-2.06,12.66-7.31q0-21.12,0-42.24c0-2.49-3.34-3.33-5.82-3.09s-5.62.44-6.76-1.76c3.09,0,6.31,0,9.11-1.3s5-4.37,4.38-7.39a2.34,2.34,0,0,0-3.43-.52A13,13,0,0,0,432,48.5l-11.24-1.28a61.17,61.17,0,0,1,10.73-3.64c2.94-2.63,3.08-7.57.78-10.77s-6.5-4.7-10.43-4.4c-1.73.13-3.65.73-4.41,2.29a6.06,6.06,0,0,0-.41,2.65l-.46,107c-2.18.54-3.55-2.38-3.5-4.62s.42-4.94-1.36-6.3c-3.15-2.4-8.11,2.85-11.33.55a15.21,15.21,0,0,1,11.21-3.73c1.31.11,1.83-1.65,1.88-3q1.07-26.44-.22-52.91a36.63,36.63,0,0,1-15-2l10.51-1.21c1.64-.19,3.47-.48,4.48-1.78a6,6,0,0,0,1-3.2,74.81,74.81,0,0,0-.56-18.64l-14.05-.24c2.64-4.62,11.09-1.52,14.25-5.81,2.25-3.06-.34-7.73-3.94-9s-7.52-.12-11.15,1c-2.76,5.06-2.81,11.11-2.79,16.88l.29,92.73c0,1.84-3.1,2-4.07.44s-.48-3.58-.09-5.37.57-4-.78-5.21c-1.59-1.47-4.11-.71-6.23-.26s-5.1-.16-5.2-2.33c3.29,1.51,7.41.28,9.88-2.36a14.1,14.1,0,0,0,3.36-10m-64-21.53a20.6,20.6,0,0,1-13.36-1c2.78-1.5,6.14-1.07,9.3-1.17s6.79-1.16,7.92-4.11c1.42-3.72-2-8.44.36-11.66,1.49-2.05-.34-5.12-2.73-6s-5-.25-7.54,0-5.43-.07-7-2.08c2.34-2.16,6-1.63,9.15-1.29s7.12-.12,8.34-3.06a8.17,8.17,0,0,0,.4-3.27L333.83,46A88.36,88.36,0,0,0,320,44.54c-1.19,0-2.56,0-3.32,1a4.05,4.05,0,0,0-.66,2.32q-3.4,45.54-3.12,91.25l17.14.55a63.17,63.17,0,0,0,1.83-19.43c-.13-2-1.53-4.8-3.36-3.89a11.27,11.27,0,0,1-12.34-1.77l13.16-1a2.25,2.25,0,0,0,2.63-2.6l.71-12.7c.15-2.62-1-6.37-3.51-5.71m-18.71,22.27L301.36,111c3.56.41,6.87-2.32,8.32-5.59s1.46-7,1.44-10.55l-.19-41c0-2.32-.46-5.24-2.69-5.86-1.24-.34-2.53.23-3.81.37s-2.92-.57-2.82-1.86c3.55.52,7-2.05,8.61-5.25s1.85-6.91,2-10.49.29-7.44-1.72-10.4-7-4-9.06-1.11q-2.3,59.61-2,119.28c2.8,2.26,7.32.57,9.19-2.5s1.79-6.92,1.46-10.5-.84-7.3.34-10.69m21.35-73.61c1.59.28,2.42-1.83,2.54-3.45a47.42,47.42,0,0,0-.66-12.21,93.1,93.1,0,0,0-10.38-1.56,3.93,3.93,0,0,1,3.62-1c1.3.19,2.55.68,3.86.76a3.38,3.38,0,0,0,3.34-1.59c.55-1.19-.55-2.93-1.8-2.54a19.15,19.15,0,0,1-11.67-.14c-1.92-.64-3.87,1.25-4.31,3.23s.06,4,0,6.05c-.09,4.7-3,9.82-.41,13.75a31.85,31.85,0,0,1,15.86-1.29m57.86-2.34a4.68,4.68,0,0,0,3.55-3.47,13.77,13.77,0,0,0,.17-5.21,3.17,3.17,0,0,0-1-2.46,3.13,3.13,0,0,0-1.58-.38l-8.41-.52a2.3,2.3,0,0,0-1.48.24,2.32,2.32,0,0,0-.7,1.77l-1,11.46,10.5-1.43m-41.8-9.35a21.56,21.56,0,0,0,5.06-.65,3.35,3.35,0,0,0,1.38-.7,4,4,0,0,0,.87-2.85c.06-1.55-.07-3.45-1.46-4.15a4.09,4.09,0,0,0-1.74-.3l-7.54-.2a8.13,8.13,0,0,0-2.73.24,4.22,4.22,0,0,0-2.47,5.46c1.3,3,5.37,3.31,8.64,3.15m101.94,101-1.43,1a1.9,1.9,0,0,0,1.54,1,1.64,1.64,0,0,0,.07-1.91Z"/><path d="M495.23,191.26c.89-1.27,1.23-3.17.14-4.27a4.52,4.52,0,0,0-1.36-.84l-7.53-3.5c.64-1.72,3.19-.84,4.77.09a18.07,18.07,0,0,0,8.6,2.45,17.61,17.61,0,0,1-8.51,12.08c-2.44,1.39-5.4,2.18-8.09,1.35.14,1.71-2.26,2.45-3.89,1.91s-3.1-1.74-4.82-1.67c-1.47.06-2.71,1-3.88,1.94s-2.53,1.79-4,1.61-2.67-2.07-1.69-3.17a9.15,9.15,0,0,0,8-3.34,26.44,26.44,0,0,0-9.44-1.93c1.58-2.37,5.16-1.66,7.9-.9a51.63,51.63,0,0,0,13.91,1.86c3.65,0,7.77-.67,9.87-3.66m-16.36,6.5a4,4,0,0,0,3.56,0,8.45,8.45,0,0,0-3.41-.25Z"/><path d="M381,178.87c1.48.26,2.93-1,4.41-.7a27.94,27.94,0,0,0,12.78-.67c3.13-.92,6.31,1,9.31,2.25s7.17,1.7,8.92-1.06a3,3,0,0,1-1.16,3.94,5.88,5.88,0,0,1-4.43.45c-4.64-1.06-9.25-4.92-13.58-2.94-2.57,1.17-5.5,1.22-8.33,1.25l-30.1.31c-.71-1.07.92-2.16,2.19-2.37a33.81,33.81,0,0,1,9.25-.25c2.26.25,4.91.6,6.46-1.06C377.75,176.88,379.44,178.6,381,178.87Z"/><path d="M335.79,181c1.21-.1,2.57.82,3.54.09.54-.4.7-1.17,1.23-1.57a2.44,2.44,0,0,1,2-.21c2,.41,3.9,1.22,5.91,1.12s4.18-1.59,4.06-3.6a2.34,2.34,0,0,1,4.66-.48,5.82,5.82,0,0,0-2.92,7.19c-4.78-2.47-10.39.4-15.56,1.88a58.79,58.79,0,0,1-6,1.26c-4.86.86-10.05,1.68-14.6-.25-1.25-.53-2.58-1.27-3.87-.87a24.44,24.44,0,0,1-15.71-.37c.37-1,1.67-1.13,2.71-1.12l9.66.12a47.19,47.19,0,0,1,9.55.77,13,13,0,0,0,2.4.41,9,9,0,0,0,2.43-.36,38.77,38.77,0,0,0,8.77-3.39A4.46,4.46,0,0,1,335.79,181Z"/><path d="M367.78,77.94l-.47,8.42c-.47,8.41-.95,16.82-1.54,25.22a4.27,4.27,0,0,1-.65,2.37,1.48,1.48,0,0,1-2.16.29,2.16,2.16,0,0,1-.32-1.54l1.84-42.09C367.39,71.06,367.94,75,367.78,77.94Z"/><path d="M362.3,152.48c2.87.06,5.1,2.49,7.84,3.35,4.42,1.39,9.09-1.52,13.71-1.18,3.73.28,7.74,2.6,10.93.65,1.29-.79,2.94-.15,4.37.34,5.82,2,12.16,1.17,18.31.88,2-.1,4.53.14,5.36,2l-9.94,1.67a8.08,8.08,0,0,1-4.61-.13,26.84,26.84,0,0,0-16-1.79c-2.49.49-5-.77-7.5-1-5.49-.58-11.64,3.41-16.17.25-2-1.37-3.78-4.07-6-3.24Z"/><path d="M25,17.61c-1.46.55-3.08,1.11-4.55.58s-2.34-2.71-1.13-3.69A3.36,3.36,0,0,1,21.25,14c2.86-.22,6.28-.19,7.9,2.17,1.78-1.92,4.73-2,7.35-1.92q8.11.3,16.16,1.33c.94.12,2.17.61,2,1.54-1.11,1.45-3.28,1.34-5.1,1.12a112.41,112.41,0,0,0-17-.71,5.61,5.61,0,0,0-3.64,1c-1,.86-1,2.74.17,3.23a9.64,9.64,0,0,1,7.12,1.48A14.45,14.45,0,0,1,31,24.51,4.91,4.91,0,0,1,26.5,22C25.85,20.59,26.1,18.74,25,17.61Z"/><path d="M292.13,206.46l9.93.41a2.6,2.6,0,0,0,2.1-.54c.5-.56,0-1.75-.68-1.5a4.48,4.48,0,0,1-5.61-2.88c3.17-1.27,6.72-.16,10,.59s7.32.92,9.62-1.61c.74-.81,2.22.29,2,1.38s-1.23,1.79-2.24,2.22a14.26,14.26,0,0,1-6.91,1.11c.3,1.11,1.76,1.39,2.89,1.22s2.35-.56,3.37,0,1,2.51-.13,2.48l-24.62-.67c-2.11-.06-4.86-.67-5.06-2.78a2.23,2.23,0,0,1,1.5-.93c.63,1.27,2.32,1.49,3.74,1.55Z"/><path d="M198.41,165.84a13.43,13.43,0,0,1,13.2,4.37c-6.29-1.67-13.51-2.89-18.88.78-4.21,2.87-9.64,3.05-14.74,3.06q-8,0-16-.21c0-2.36,3.18-3.08,5.54-3.06l16.85.14C189.4,171,193.54,167,198.41,165.84Z"/><path d="M72.08,311.08a40.42,40.42,0,0,0,10.28-18.51c1.74-7.1,6.34-13.11,10.83-18.88.86-1.11,2.11-2.36,3.45-1.92a67.07,67.07,0,0,1-7.91,13.39c-1.26,1.65-2.63,3.33-3.07,5.36a56.47,56.47,0,0,1-9,20.44A6.37,6.37,0,0,1,72.08,311.08Z"/><path d="M141.66,197.26c1-1.82,3.53-2.08,5.5-1.47s3.75,1.81,5.79,2.12c4.09.62,8.24-2.5,12.2-1.31a29,29,0,0,1,3.14,1.44,10.18,10.18,0,0,0,11.44-2.58,6.28,6.28,0,0,1,2.17-2c.93-.37,2.27.21,2.18,1.2a27.29,27.29,0,0,1-9.32,7.42,8.52,8.52,0,0,1-4.15,1.08,3.66,3.66,0,0,1-3.34-2.32c-.56-1.83-2.88-2.57-4.76-2.2s-3.5,1.51-5.26,2.28-3.93,1.14-5.49,0A20.82,20.82,0,0,0,141.66,197.26Z"/><path d="M63.3,175.24c3.72,1.1,7.73-3.32,11.2-1.59a37.35,37.35,0,0,0,18.7,3.88c3.64-4.33,12.09,1.23,16-2.87.12,2.24-2.68,3.3-4.89,3.68-8.72,1.49-18.14,2.88-26.06-1.07-1.86-.93-3.76-2.17-5.81-1.91-1.86.24-3.35,1.66-5.14,2.24s-4.41-.52-4-2.36Z"/><path d="M456.85,218.54c2.18-.13,5.13-.35,5.44-2.51a6.59,6.59,0,0,1,1,3.89,3.33,3.33,0,1,0,4.58-4.83c-1.21-1,.4-3,2-3.24s3.44.08,4.55-1.07,2.83-.44,4,.44,2.44,2,3.9,1.83c-1.8,1.25-4.22.76-6.42.79s-4.88,1.37-4.62,3.55c.38,3.18-3.54,6-6.42,4.58a13.36,13.36,0,0,0-11.07-.19c1.13.06,2.66.63,2.37,1.72a25.33,25.33,0,0,1-8.46-1A14.72,14.72,0,0,1,456.85,218.54Z"/><path d="M270.05,165.59c-2.37-2.5-6.5-2-9.66-.66s-6.18,3.42-9.62,3.54c.57-2.31,2.7-3.95,4.94-4.76,4-1.46,8.43-.85,12.67-.42a135.78,135.78,0,0,0,24.18.27c-.63,3.12-4.77,3.73-8,3.64l-10.14-.3C272.89,166.86,271.14,166.74,270.05,165.59Z"/><path d="M189.84,198.84c.84-.41,1.5-1.13,2.34-1.54,1.87-.9,4.08-.06,6.15-.1a14.24,14.24,0,0,0,3.63-.72l14.22-4.12c1.28-.37,3.39.08,2.9,1.31a1.63,1.63,0,0,1-.58.66c-4.08,3.08-10,2-14.55,4.39-1.7.89-3.37,2.29-5.27,2a31.84,31.84,0,0,0-16.22,2c-.58-1.49,1.09-2.94,2.66-3.22S188.41,199.55,189.84,198.84Z"/><path d="M419,197.21l4.95-1.08.35,1.68a3.52,3.52,0,0,1-2.09.31c-.65,1.71-2.64,2.49-4.46,2.64s-3.68-.15-5.46.28c-2.24.55-4.05,2.17-6.19,3s-5.18.51-6-1.65a20,20,0,0,0,5.54-.27,71.67,71.67,0,0,0-8-4.41,3.18,3.18,0,0,1,3.4-1.5,18.29,18.29,0,0,1,3.76,1.33C409.35,199.24,414.34,198.23,419,197.21Z"/><path d="M469.2,129.48c.65,3,1.31,6.07.57,9s-3.33,5.68-6.36,5.49c-.39-1.07.81-2,1.7-2.69a7.94,7.94,0,0,0,0-11.84,4.38,4.38,0,0,1-1.6-1.64c-.27-.72.31-1.77,1-1.55a2.83,2.83,0,0,0,1.72-5.4c1.47-1.18,1.34-3.4,1.25-5.28s.29-4.22,2.08-4.81a35.07,35.07,0,0,1-.16,16.25A5.42,5.42,0,0,0,469.2,129.48Z"/><path d="M176.87,151a42.12,42.12,0,0,1-29.16.5,8.06,8.06,0,0,0-2.66-.64c-1.33,0-2.53.71-3.81,1.07s-2.93.18-3.52-1a16.83,16.83,0,0,1,11.15-1.2,52.07,52.07,0,0,0,22.15.45C173.05,149.74,175.55,149.36,176.87,151Z"/><path d="M249.73,184.72a9.61,9.61,0,0,0,6.83-3.35c1.44,1.35,3.66,1.26,5.63,1.09l22.24-2c.75,1.21-1.13,2.31-2.54,2.51L265,185.39c-2.35.33-4.83.65-7-.28-1.48-.63-3.07.48-4.56,1.09s-3.88.13-3.73-1.48Z"/><path d="M98.57,246.23l-2.16,7.15a7.91,7.91,0,0,1,5.83,9.31,26.78,26.78,0,0,1-9.7-15.22c-.3-1.33-1.72-2-2.77-2.88s-1.65-2.77-.45-3.42c.8-.43,1.76.08,2.51.58Z"/><path d="M51.16,165.6a16.2,16.2,0,0,1,12.41,2.82l-18.23.34a3.31,3.31,0,0,1-2.39-.58c-1.1-1-2.82-.89-4.31-.68l-11.08,1.57c-.74-1.13.78-2.38,2.06-2.79a22,22,0,0,1,13.53.13C45.72,167.29,48.48,166.11,51.16,165.6Z"/><path d="M274.19,191l.33,2.48a40.23,40.23,0,0,1-22.19,4.07c-1-.11-2.35-.88-1.83-1.75a1.5,1.5,0,0,1,.72-.52,19.59,19.59,0,0,1,8.75-1.65,1.84,1.84,0,0,1,.32-3.11c.22,2.7,3.67,4,6.32,3.4S271.56,191.69,274.19,191Z"/><path d="M179.23,161.37a28.36,28.36,0,0,1,9.44-3.21,56.63,56.63,0,0,1,10.92-.24l12.2.52a1.55,1.55,0,0,1,1,.28c.92.82-.83,1.95-2.07,1.94l-16.79-.11c-3.33,0-6.76,0-9.86,1.2C182.37,162.41,179.83,163.1,179.23,161.37Z"/><path d="M41.59,218.57c1.83-.14,3.64-2,5.24-1.06A4.29,4.29,0,0,1,44,221a12.62,12.62,0,0,1-4.76.57l-12.35-.11a4,4,0,0,1-2.51-.59c-.68-.55-.82-1.81,0-2.21,2.44-1.23,5.78-2.32,7.57-.26a4.26,4.26,0,0,0,4.83,1.05,3.85,3.85,0,0,0-4.27-1.69c0-1.81,2.67-2.24,4.28-1.41S39.79,218.71,41.59,218.57Z"/><path d="M120.65,251.64a5.4,5.4,0,0,0-3.06-4.84,15.87,15.87,0,0,0-5.84-1.44l-4.12-.47A27.7,27.7,0,0,1,118.77,243c1.25,0,2.88-.09,3.19-1.3.76-.55,1.91.06,2.24.94a4.63,4.63,0,0,1-.13,2.76l-2.25,8.83c-.43,1.71-1.57,3.86-3.27,3.39A10.16,10.16,0,0,1,120.65,251.64Z"/><path d="M211.41,179.29a3.8,3.8,0,0,0-3.35,2.32c-4.19-3-10.37,2-15.09-.08-1.88-.85-3.79-2.82-5.61-1.86-.34-1.43,1.58-2.42,3-2.13s2.69,1.27,4.15,1.44c1.92.22,3.69-1,5.52-1.59,3.51-1.18,7.34-.24,10.92.7Z"/><path d="M116.59,150.18c.19.66-.47,1.3-1.15,1.44a14.1,14.1,0,0,1-2.06,0c-3,.2-5.23,4.06-8.09,3.19-4.19-1.29-8.57.78-12.65,2.39s-9.17,2.63-12.47-.25a38.48,38.48,0,0,0,16.88-4.11c2.33-1.18,5.11.28,7.72.15C108.92,152.82,112.74,148.61,116.59,150.18Z"/><path d="M290.77,173.51c3.07-2.35,7.69,1,11.28-.44,1.69-.67,3.77-2.26,5-.88a5.67,5.67,0,0,0,8.52-.41c.63-.88,2.18.14,2,1.22s-1.17,1.78-2.11,2.31c-2.36,1.33-5.44,2.44-7.64.85-1.23-.9-2.89-.88-4.41-.82l-9.35.34C292.51,175.73,290.3,175,290.77,173.51Z"/><path d="M227.72,181.43a4.37,4.37,0,0,0,.42-1.9c1.76.64,3.24-1.54,3.56-3.38s.48-4.09,2.15-4.94a4.77,4.77,0,0,1,2-.38,54.34,54.34,0,0,1,10.57.64,22.92,22.92,0,0,1-10.7,3.17c-1.17,0-1.69,1.43-2.12,2.52a10.59,10.59,0,0,1-13.75,5.46A14.75,14.75,0,0,1,227.72,181.43Z"/><path d="M321.86,203.72l5.09,2.41a2.79,2.79,0,0,0,1.65.39,3.54,3.54,0,0,0,1.57-1.08,6.88,6.88,0,0,1,10,1.37,9.48,9.48,0,0,0-9.85,3.78c-.49.73-1.61.44-2.41.08l-3.79-1.72a6.29,6.29,0,0,1-2.93-2.1C320.52,205.81,320.73,204.16,321.86,203.72Z"/><path d="M267.32,175.63c-3,1.39-6.65,3.3-9.37,1.4,7.83-5.13,17.73-7.71,26.74-5.16.36,1.08-1.36,1.51-2.49,1.38A28.18,28.18,0,0,0,267.32,175.63Z"/><path d="M139.7,15.56a28.12,28.12,0,0,1-11.63.43c-2.05-.36-4.31-.91-6.1.15-2.48,1.46-2.51,4.94-2.6,7.82,0,1.12-.64,2.63-1.71,2.32a18.78,18.78,0,0,1-.83-6.85c.29-2.3,1.65-4.61,3.84-5.36a9.39,9.39,0,0,1,3.52-.27l12.84.66C138,14.5,139.23,14.67,139.7,15.56Z"/><path d="M26.66,157.59c-.5-.61,0-1.6.79-1.85a4.24,4.24,0,0,1,2.32.17c5.35,1.3,11,.28,16.38-.74l8.74-1.65c1.21-.23,3,.12,2.8,1.33-3.44,1.61-7.31,2-11.09,2.34l-8.11.76C34.54,158.32,30.48,158.68,26.66,157.59Z"/><path d="M356.87,198.28c.94,1.24,0,3.17-1.37,3.83a7.92,7.92,0,0,1-4.59.2l-7.66-1.2c-3.44-.54-7.27-1.31-9.23-4.18a33,33,0,0,0,13.34.36c1.29-.23,1.82,1.57,2.72,2.52C351.87,201.67,354.94,200,356.87,198.28Z"/><path d="M415.39,146.52a57.26,57.26,0,0,0,20.14-.41c-3.62,3.13-8.68,4.19-13.45,3.88s-9.38-1.85-13.92-3.37C410.39,145.62,413,146.14,415.39,146.52Z"/><path d="M36.61,184.92a11.44,11.44,0,0,0-8,2.9c-1.1,1-2.84.71-4.18.1s-2.64-1.5-4.12-1.55-2.86.74-4.29,1.15-3.29.28-4-1c2-.73,3.66-2.25,5.63-3.09s4.71-.7,5.74,1.18c1.18,2.16,4.44,1.3,6.62.16S35.44,182.75,36.61,184.92Z"/><path d="M443.6,188.79c3,2.37,7.26-.09,11.05-.58,1.86-.24,3.76,0,5.61-.28s3.78-1.42,4.17-3.25c1.07,1.83-.06,4.31-1.86,5.44s-4,1.26-6.14,1.37l-7.57.37a8,8,0,0,1-3.47-.35A2.72,2.72,0,0,1,443.6,188.79Z"/><path d="M138.21,177.83a18.5,18.5,0,0,0,2.76-.25c.92,0,2,.42,2.15,1.34-1.83,1.87-5,1-7.35-.05s-5.42-2.08-7.41-.38A12.53,12.53,0,0,1,117.18,181a61.37,61.37,0,0,1,13.25-5.44,6,6,0,0,1,2.78-.3C135.06,175.65,136.33,177.6,138.21,177.83Z"/><path d="M21.84,160.25c1.16,0,2.79.42,2.58,1.56a181.07,181.07,0,0,1-18.62,2.4c-1.14.09-2.57,0-3-1.06,1.05-2,3.76-2.37,6-2.45Z"/><path d="M290,184.16c1.3-.75,2.85-.93,4.25-1.48s2.76-1.75,2.69-3.25c1.89,2.4,0,6.8-3,6.61-2-.12-3.73,1.33-5.1,2.8s-2.75,3.12-4.7,3.62-4.47-1-4.07-3c1.43,1.55,4.1.7,5.61-.78S288.18,185.22,290,184.16Z"/><path d="M234.4,185.57a2.28,2.28,0,0,1,1,3.72,21.72,21.72,0,0,1,14.77-.43c-.1,2.32-3.17,3.24-5.45,2.79s-4.59-1.6-6.82-.92c-1,.29-1.8.91-2.77,1.18a2.15,2.15,0,0,1-2.6-.89A7.39,7.39,0,0,0,234.4,185.57Z"/><path d="M153.72,280.78a62,62,0,0,0,17.09-1.61,6.34,6.34,0,0,1,3-.24,2,2,0,0,1,1.66,2.14,49.93,49.93,0,0,1-19.32,1.75C154.89,282.69,153.3,281.92,153.72,280.78Z"/><path d="M499.74,223.15a114.84,114.84,0,0,1-21.39.8c-1.42-.08-3.37-1.1-2.64-2.32q11.87-.18,23.73.27A1.24,1.24,0,0,1,499.74,223.15Z"/><path d="M499.67,167.23l-8.9-2c-2.61-.6-5.51-1.16-7.85.14a7.78,7.78,0,0,1-2,1c-.72.16-1.64-.19-1.73-.93a13.22,13.22,0,0,1,13.6-2.53c2.17.87,4.38,2.37,6.65,1.79A3.89,3.89,0,0,1,499.67,167.23Z"/><path d="M242.65,183.11a4.88,4.88,0,0,1-3.3.29c-1.06-.39-1.79-1.77-1.15-2.7,2.48,1.23,5.41-.42,7.44-2.3s4-4.19,6.78-4.52c1.1.1.73,1.82,0,2.64A24.1,24.1,0,0,1,242.65,183.11Z"/><path d="M369.77,221.33a16.63,16.63,0,0,1-13.44-2.85c2.42-1.13,4.92-2.28,7.59-2.38,2.38-.09,4.81.66,7.1,0-.32,1.09-1.79,1.19-2.92,1.3s-2.55,1-2,2Z"/><path d="M120.35,210.61c3.12-2.23,7.22-2.36,11.06-2.4,2.63,0,5.79.23,7,2.54-1.42,1.84-4.25.22-6.54-.14-2-.31-3.95.5-5.9,1S121.71,212.08,120.35,210.61Z"/><path d="M443.21,149.56c3.68-1.49,7.61-3,11.51-2.29,1.07.2,2.26.72,2.5,1.78-3.45,1.92-8-.24-11.63,1.23-1.64.66-2.94,2-4.52,2.77s-3.86.81-4.79-.7Z"/><path d="M448.74,173.57c-.61-1.58,1.21-3.17,2.9-3.23s3.28.77,4.94,1.1a12.73,12.73,0,0,0,6-.54,26.52,26.52,0,0,0,4.76-1.93c-1.88,2.51-4.84,5.32-7.66,4a2.11,2.11,0,0,0-2.81,2.24A15.1,15.1,0,0,0,448.74,173.57Z"/><path d="M338.38,165.44c.45.07.48.79.12,1.08a1.94,1.94,0,0,1-1.32.24,17,17,0,0,0-9.26,2.33,12.23,12.23,0,0,1-3.77,1.87c-1.39.26-3.09-.4-3.38-1.78a9.64,9.64,0,0,0,4.38-.69,3.3,3.3,0,0,0,1.91-3.65A25.07,25.07,0,0,1,338.38,165.44Z"/><path d="M128.08,203.37a4.8,4.8,0,0,1-1.52.75c-1.78.4-3.31-1.23-4.41-2.68,5.37-.36,10.18-6,15.22-4.13Z"/><path d="M232.63,165l-.34-1.52,16.49-.68c.85.71-.36,2-1.42,2.3A23.53,23.53,0,0,1,232.63,165Z"/><path d="M360.15,154.74a2.07,2.07,0,0,1,.31,1.57,31.58,31.58,0,0,1-20.09,3.93,1.29,1.29,0,0,1,0-1.78A26.27,26.27,0,0,0,349,158l2.58-.47A26.66,26.66,0,0,0,360.15,154.74Z"/><path d="M373.28,214.24a4.21,4.21,0,0,1,1.92.32c3.36.82,7-2.87,10-1.24-1.72,3.19-5.51,4.85-9.14,4.93a4.33,4.33,0,0,1-3.37-1C371.9,216.3,372.1,214.52,373.28,214.24Z"/><path d="M148,282.2c-3.24.35-7.11.45-9.05-2.16-.74-1-.26-3.08.87-2.58a18.61,18.61,0,0,0,10.09,1.42c1-.14,1.51,1.43.88,2.23A4,4,0,0,1,148,282.2Z"/><path d="M384.84,208.25l-8.36,2.32c-1.12.31-3-.21-2.42-1.23l7-3.8a5.85,5.85,0,0,1,3.81-1c1.32.27,2.34,2,1.45,3A2.92,2.92,0,0,1,384.84,208.25Z"/><path d="M187.47,122c-1.18,0-2.75-.33-2.82-1.51a52.21,52.21,0,0,1,17.68-.51,1.08,1.08,0,0,1-.26,1.6,3.12,3.12,0,0,1-1.8.37Z"/><path d="M199.58,20.47l-12.21,0c-1.29,0-3.14-.85-2.49-2,.33-.57,1.13-.62,1.79-.6l15,.44a1.11,1.11,0,0,1-.21,1.69A3.21,3.21,0,0,1,199.58,20.47Z"/><path d="M440.68,196.22l.56,1.89h3.13l.68-2a7.09,7.09,0,0,0,7.31-1.21c1.06,1-.48,2.59-1.81,3.19-4.08,1.84-9.16,3.59-12.71.87l.21-1.54C439,197.88,440,197,440.68,196.22Z"/><path d="M227.58,210.32a42.21,42.21,0,0,1,13.6-1.7c1.19,0,2.81.78,2.36,1.88-.28.68-1.16.8-1.89.82l-9.8.27C230.3,211.64,228.5,211.56,227.58,210.32Z"/><path d="M231.6,164.87a2.79,2.79,0,0,1-2.65,2.33,6.43,6.43,0,0,1-3.63-1.1,4.94,4.94,0,0,0-6.08,1.08,3.24,3.24,0,0,1-2.49-3.06A29,29,0,0,1,231.6,164.87Z"/><path d="M82.06,197.8l-10.22-.75-6.59-.49c-.58-1.07,1-2,2.2-2.17A21.84,21.84,0,0,1,82.06,197.8Z"/><path d="M340.92,104.39l2.32-7.66c.27-.9.86-2,1.79-1.85a1.69,1.69,0,0,1,.87.56,6.09,6.09,0,0,1,1.67,4l-1.79.31a2.24,2.24,0,0,1-1.66,2.45c-1.6.36.18,3.72-1.37,4.26A2.45,2.45,0,0,1,340.92,104.39Z"/><path d="M202,140.66l-17-.83a2.14,2.14,0,0,1-.29-1.72,121.21,121.21,0,0,1,15.39.68C201.18,138.92,202.63,139.77,202,140.66Z"/><path d="M152.21,40.37a12.79,12.79,0,0,0,1.71-7.8c-.17-1.65-.67-3.26-.7-4.92a4.88,4.88,0,0,1,1.94-4.33l.4,13.46a5.3,5.3,0,0,1-.57,3.17C154.38,40.85,152.89,41.22,152.21,40.37Z"/><path d="M241.43,147l-9.84,1.28c-1.12.15-2.83-.47-2.3-1.47.24-.45.82-.55,1.33-.6l16.82-1.68C246.09,146.29,243.64,146.71,241.43,147Z"/><path d="M492.89,213.11q-4.4.19-8.8,0a20.61,20.61,0,0,1,14.52-3C498.07,212.38,495.2,213,492.89,213.11Z"/><path d="M216.64,212.23a5.2,5.2,0,0,1,3.05.76,2.61,2.61,0,0,1,1,1.72,22,22,0,0,1-12,.07C210.23,212.3,213.71,212.13,216.64,212.23Z"/><path d="M170.59,276.26A122.28,122.28,0,0,1,157,277c-1.31,0-3.16-.9-2.48-2q6.73-.19,13.47-.15C169.06,274.84,170.52,275.16,170.59,276.26Z"/><path d="M341.52,147.69a38.61,38.61,0,0,1-10,2.25c-1.48.13-3.6-.58-3.16-2l13.27-1.75a.89.89,0,0,1-.09,1.49Z"/><path d="M496.09,221a38.14,38.14,0,0,1-10.53-1.68A84.26,84.26,0,0,1,499.39,218c.84.58.53,2-.32,2.58A4.77,4.77,0,0,1,496.09,221Z"/><path d="M322.45,180.64a37.93,37.93,0,0,1-9.17-.17,10,10,0,0,1,11.65-1.84C325.25,179.8,323.67,180.51,322.45,180.64Z"/><path d="M120.43,46.42q7.26.76,14.44,2.11a1.42,1.42,0,0,1,.29,1.44l-12.22-1a4,4,0,0,1-2.13-.59A1.39,1.39,0,0,1,120.43,46.42Z"/><path d="M110.3,71.48c-.12,1.42-1.24,3.36-2.4,2.53a70.39,70.39,0,0,1,1.36-12.73c1.34-.18,1.78,1.75,1.66,3.1Z"/><path d="M375.45,222.57a7.91,7.91,0,0,1,3.8-1.65,3.38,3.38,0,0,1,3.45,1.86,2.59,2.59,0,0,1-.3,2.4,9.1,9.1,0,0,1-4.35.47A3.12,3.12,0,0,1,375.45,222.57Z"/><path d="M367.25,162.49a20.54,20.54,0,0,1-10.79,2.2.83.83,0,0,1,.15-1.46l7-2.31a4.39,4.39,0,0,1,2.45-.31A1.52,1.52,0,0,1,367.25,162.49Z"/><path d="M268,30.74c-1.13-1.77.68-3.92,2.32-5.23a1.89,1.89,0,0,1,1.4-.59,1.75,1.75,0,0,1,1,.82,5.23,5.23,0,0,1,1.06,4.63c-.56,1.55-2.8,2.44-3.95,1.25a2.7,2.7,0,0,0,1.86-3.48Z"/><path d="M146.1,164.37c1.18-.43,1.57,1.85.49,2.48s-2.45.24-3.7.28c-1.85.07-3.5,1.11-5.25,1.7s-4,.54-5.05-1A72.49,72.49,0,0,0,146.1,164.37Z"/><path d="M344.9,78.13a4.54,4.54,0,0,1,2,7,2.54,2.54,0,0,1-2.22,1C342.38,84.35,343.54,80.7,344.9,78.13Z"/><path d="M495.66,199.94a1.76,1.76,0,0,1-1.67,1.67,5.12,5.12,0,0,1-2.51-.62,1.71,1.71,0,0,1-.8-.55c-.65-1,1-1.86,2.21-1.91l6.61-.25a15.26,15.26,0,0,1,.09,5.23l-3.69-3.73Z"/><path d="M159.93,163.26a17.49,17.49,0,0,0,8.24-1.64c1.39-.65,2.88-1.52,4.37-1.11-2.14,4.12-7.73,4.64-12.38,4.63Z"/><path d="M442.51,158.31l7.22-.09a6.2,6.2,0,0,0,2.15-.28c.81-.31,1.47-1,2.29-1.24s2,0,2.11.87a13.38,13.38,0,0,1-6.86,2.64c-2.3.2-4.64-.2-6.91.23A1.77,1.77,0,0,1,442.51,158.31Z"/><path d="M37.42,179.09a14.65,14.65,0,0,0-9.23,1.79A8.89,8.89,0,0,1,34.66,177a26.33,26.33,0,0,1,7.74.42C42.23,179.42,39.38,179.37,37.42,179.09Z"/><path d="M414.69,311.3c-.45-1.63-.88-3.47,0-4.92s3.62-1.53,3.9.14a14.24,14.24,0,0,1,0,4.58A9,9,0,0,1,414.69,311.3Z"/><path d="M214.55,153.47a33.42,33.42,0,0,1,12.14-2.38c.62,0,.9.9.57,1.42a2.48,2.48,0,0,1-1.6.88A24.55,24.55,0,0,1,214.55,153.47Z"/><path d="M307.82,160.8c-1.63.82-3.39,1.67-5.2,1.41s-3.45-2.21-2.71-3.87a9.46,9.46,0,0,0,8.94-.42,1.16,1.16,0,0,1,.51,1.67A3.37,3.37,0,0,1,307.82,160.8Z"/><path d="M367.95,206.86a5.3,5.3,0,0,1,4.19,5c-1.3-.29-2.66-.11-4-.32s-2.71-1-3-2.28,1.44-2.69,2.43-1.81Z"/><path d="M115.4,165.85c.54-1.1,2.05-1.34,3.22-1a29.43,29.43,0,0,1,3.26,1.67c2.18,1,4.69.82,7.08.63.4,1.65-2.12,2.24-3.78,1.9A43.52,43.52,0,0,1,115.4,165.85Z"/><path d="M323.33,174.74l10.33-3.43c.8-.27,2.12-.11,1.94.71a1.15,1.15,0,0,1-.4.57A11.62,11.62,0,0,1,323.33,174.74Z"/><path d="M62.25,144.58a28.58,28.58,0,0,1,11-1,2,2,0,0,1,1.6.73A13.31,13.31,0,0,1,62.25,144.58Z"/><path d="M318.68,150a3.88,3.88,0,0,1-2.24-.79,2,2,0,0,1-.58-1.61l9.34-.82a3.2,3.2,0,0,1-2.34,3.13A9.34,9.34,0,0,1,318.68,150Z"/><path d="M483.36,287.38c-.58,0-1.26,0-1.57-.49a.85.85,0,0,1,.17-1.07c2-2.8,7.24-2,8.37,1.26Z"/><path d="M445.64,174.56c.9.25.9,1.67.19,2.27a3.94,3.94,0,0,1-2.67.6l-5.06-.08-.29-1.79A10.23,10.23,0,0,1,445.64,174.56Z"/><path d="M428.79,172.64a6.94,6.94,0,0,1-6.17,1.65,12.64,12.64,0,0,1,11.51-4.4,30.26,30.26,0,0,1-5.2,2.94Z"/><path d="M400.12,202.08l-13.92,2.29A13,13,0,0,1,400.12,202.08Z"/><path d="M451.81,208.71c2-1.86,5-2,7.76-2.05,1.82,0,4.29.53,4.27,2.35Z"/><path d="M373.74,201.14a4.61,4.61,0,0,1-5.93-1,12.19,12.19,0,0,1,8.47-1.93,3.18,3.18,0,0,1-2.52,2.85Z"/><path d="M226.11,193.13a11.75,11.75,0,0,1,7.16,2.69,16.52,16.52,0,0,1-9.22-.36,1.2,1.2,0,0,1,.07-1.82A2.9,2.9,0,0,1,226.11,193.13Z"/><path d="M493.83,170.82a6.22,6.22,0,0,1,6.07-.8,15.49,15.49,0,0,1-9.42,4.14,3,3,0,0,1,3.34-3Z"/><path d="M307.61,170.83a8.5,8.5,0,0,1,9.6-3.35,3.67,3.67,0,0,1,1.74,1.09Z"/><path d="M142.28,174.32l9.62-2.69c1.56-.44,3.76-.57,4.28,1A35.34,35.34,0,0,1,142.28,174.32Z"/><path d="M73,258.22a2.25,2.25,0,0,0,.21-1.85,2.29,2.29,0,0,1,2.58,1.3,6.67,6.67,0,0,1,.48,3.09c-1.61-.62-3.47-.1-5.12-.59S68.43,257,70,256.37A3.61,3.61,0,0,0,73,258.22Z"/><path d="M477.77,137.18a4,4,0,0,1,1.43.18,2.06,2.06,0,0,1,1.26,2.16,7.82,7.82,0,0,1-8.91-2.37Z"/><path d="M117.56,202.33a5.63,5.63,0,0,1-4.12-2.84l6.06-.6a2.27,2.27,0,0,1,1.08.07c1,.39.87,1.9.09,2.57a4.57,4.57,0,0,1-2.93.73Z"/><path d="M427.08,177.85c2.74-.16,5.27-3.36,7.68-2a1.07,1.07,0,0,1,.65,1l-5.62,2.54a3.22,3.22,0,0,1-2.42.39C426.59,179.49,426.3,178.17,427.08,177.85Z"/><path d="M481.5,152.18a40.1,40.1,0,0,0,11.56,0c.85-.12,2.14.67,1.42,1.14l-13.26,1A2.87,2.87,0,0,1,481.5,152.18Z"/><path d="M112,135.83c1.14,1,3-.15,4.34.59a1.71,1.71,0,0,1,.84,1.29c-1.86.46-3.84.91-5.64.28s-3.18-2.84-2.23-4.51c.5-.46,1.34,0,1.68.59A6.22,6.22,0,0,0,112,135.83Z"/><path d="M139.46,201.86c1.24-.33,2.64-.63,3.73,0a9.94,9.94,0,0,1-10.2,2.48c-.24-.52.46-1,1-1.1Z"/><path d="M414,190.73c1.52-.21,3.79.34,3.42,1.84l-6,1.52c-1.18.3-3.08-.15-2.64-1.28l5.22-2.18Z"/><path d="M186.16,133.27a25.32,25.32,0,0,1,10.64-.58,19.85,19.85,0,0,0,4.28.21A24.12,24.12,0,0,1,186.16,133.27Z"/><path d="M423.81,82.81a4,4,0,0,0-1.7,2.85c-1.35,0-1.82-1.95-1.2-3.14a3.83,3.83,0,0,1,7.11.85l-4.08-.47Z"/><path d="M10.81,143.54c-1.88.07-3.93.1-5.43-1a27.34,27.34,0,0,1,13.77,0,13.56,13.56,0,0,1-5.24.91Z"/><path d="M469.92,163.17c-1.3-.14-2.94-1.28-2.23-2.37a61.19,61.19,0,0,1,10,.51A12.08,12.08,0,0,1,469.92,163.17Z"/><path d="M37.9,211.17l5.83.2a2.37,2.37,0,0,1,1.14.23,1.21,1.21,0,0,1,.57,1.15,16.69,16.69,0,0,1-9.9-.22C35.42,211.5,36.86,211.13,37.9,211.17Z"/><path d="M71.12,272.44a2.73,2.73,0,0,1-2.07-3.37,4.41,4.41,0,0,1,6.28.41,11.79,11.79,0,0,0-4.23,2.87Z"/><path d="M487.29,206c.06.82-.92,1.26-1.71,1.47-2.2.58-4.62,1.14-6.66.14a9.22,9.22,0,0,1,6.48-2.73C486.21,204.88,487.23,205.2,487.29,206Z"/><path d="M136.73,162.83h-4.34c-.79-1.16,1.22-2.15,2.62-2.13l7.5.07a5.8,5.8,0,0,1-5.65,1.6Z"/><path d="M340.34,88.19l.37-2.5,1.68-.25c-.4,1.44.64,2.84,1.1,4.27s-.38,3.59-1.82,3.16a7.14,7.14,0,0,1-1-4.62Z"/><path d="M97.46,165.64a3.16,3.16,0,0,1-3.69.61,5.78,5.78,0,0,1,8.35-2.21l-4.66,1.64Z"/><path d="M472.66,170.06a3.44,3.44,0,0,1-2.66.79,1.73,1.73,0,0,1-1.22-1.44,36.1,36.1,0,0,1,10-3.31Z"/><path d="M114.51,160.76a6.78,6.78,0,0,1-5.08,4.06,4.07,4.07,0,0,1-4.14-1.47A23.91,23.91,0,0,0,114.51,160.76Z"/><path d="M255,217.71l4.62.68a6.67,6.67,0,0,1-8.33.88,4.08,4.08,0,0,1,3.67-1.34Z"/><path d="M450.54,201.21l2.13,1.46a3.28,3.28,0,0,1-6.19-1.19,12,12,0,0,1,4.06-.25Z"/><path d="M42,253.82l1.57,1.58a9,9,0,0,1-6.82.56l0-1.88a19.69,19.69,0,0,1,5.27-.25Z"/><path d="M123,146.19a12.29,12.29,0,0,0,9.16-.93,2.33,2.33,0,0,1-3.42,1.93c.11,1.34-1.64,2.19-2.91,1.75A6.17,6.17,0,0,1,123,146.19Z"/><path d="M50.13,196.48a1.93,1.93,0,0,1-1.31-.32c-1-.91.71-2.37,2.08-2.39s3.29-.14,3.4-1.51c1.1.76.74,2.61-.33,3.4A6.37,6.37,0,0,1,50.13,196.48Z"/><path d="M149.09,271.18a4.56,4.56,0,0,1,.9,3.72,6.09,6.09,0,0,1-4.82-4.24,2.89,2.89,0,0,1,3.72.66Z"/><path d="M74.23,135.54l3.07.77a2,2,0,0,1,.33,1.6,11.27,11.27,0,0,1-8.2-2l4.76,0Z"/><path d="M89.56,200.3q-3.46-.79-6.84-1.9a26.91,26.91,0,0,1,10.47.78C92.88,200.56,90.94,200.61,89.56,200.3Z"/><path d="M123.33,126.42a3.08,3.08,0,0,1-1.78-.55,1.71,1.71,0,0,1-.59-1.07,10.85,10.85,0,0,1,8.48.83A15.68,15.68,0,0,1,123.33,126.42Z"/><path d="M114.75,205.31l3.8.6a6.35,6.35,0,0,1-6.61,1.34c-.79-1.43,1.64-3.14,2.72-1.92Z"/><path d="M157.21,165.48a4,4,0,0,1-4.29,1.86,6.08,6.08,0,0,1-3.66-2.09A23.94,23.94,0,0,1,157.21,165.48Z"/><path d="M295.29,158.8a4.14,4.14,0,0,1-4.7-1.94,23.22,23.22,0,0,1,7.44,0,2,2,0,0,1-2.77,1.46Z"/><path d="M362.09,45.3a10.31,10.31,0,0,1,6.38,3.44A4.47,4.47,0,0,1,362.09,45.3Z"/><path d="M89.31,188.52a12.52,12.52,0,0,1,5.31-2.16,6.51,6.51,0,0,1-7.82,3.39,2.47,2.47,0,0,1,2.27-1.43Z"/><path d="M365.79,202.08c.71.05,1,1.07.63,1.67a2.68,2.68,0,0,1-1.83,1,11.18,11.18,0,0,1-4.92-.12A13.07,13.07,0,0,1,365.79,202.08Z"/><path d="M141.13,303.24a1.23,1.23,0,0,1,.34-1,.64.64,0,0,1,.83.08,14.85,14.85,0,0,1-.08,9.21A26.48,26.48,0,0,1,141.13,303.24Z"/><path d="M83.64,166a7,7,0,0,1,7.16-1.45A5.59,5.59,0,0,1,83.64,166Z"/><path d="M100.9,184.06a4.07,4.07,0,0,1-6.62,1.19,6.77,6.77,0,0,1,5.88-1.21Z"/><path d="M272.87,86.15c1.11.32,1.18,2.14.2,2.74a2.2,2.2,0,0,1-2.92-1,3.59,3.59,0,0,1,.26-3.32L273,85.84Z"/><path d="M216.21,182.82A8.83,8.83,0,0,1,208,182l8-.55A1.56,1.56,0,0,1,216.21,182.82Z"/><path d="M161.65,113.29c-.39,0-.85-.09-1-.44a.55.55,0,0,1,.24-.69,25.88,25.88,0,0,1,10.86.9,75.71,75.71,0,0,1-10.1.23Z"/><path d="M182,146.8a3.24,3.24,0,0,1-1.8-.66,1.63,1.63,0,0,1-.5-1.18,29.67,29.67,0,0,0,7-.51,2.23,2.23,0,0,1-1.62,2.32A6.51,6.51,0,0,1,182,146.8Z"/><path d="M464.09,93.15a8.94,8.94,0,0,0-6.79,3.19,3.89,3.89,0,0,1,6.79-3.19Z"/><path d="M460.1,199.88a3.6,3.6,0,0,0-4,2.54c-1-.43-1-1.78-1-2.85a9.64,9.64,0,0,0,4.65-2.64,1.73,1.73,0,0,1,.33,2.75Z"/><path d="M97.57,137.5a8.66,8.66,0,0,1-7.5.82A6.33,6.33,0,0,1,97.57,137.5Z"/><path d="M64.73,263.54l2.71-2.22a3.16,3.16,0,0,1-.65,5l-2.35-2.77Z"/><path d="M274.07,58.05a4.93,4.93,0,0,1-5.38-1.16,6.26,6.26,0,0,1,3.64-1.3c1.31.11,2.56,1.48,2,2.68Z"/><path d="M459.48,59.11a4,4,0,0,1,5.73.58,4.14,4.14,0,0,1-5.92-.32Z"/><path d="M316.57,163.34A21.43,21.43,0,0,1,327,164.52,15.84,15.84,0,0,1,316.57,163.34Z"/><path d="M477.21,220.28a4.7,4.7,0,0,1-2.55-4.62l3.51,2.3c.86.56,1.73,1.9.84,2.41l-1.85,0Z"/><path d="M73.24,164.26a5.73,5.73,0,0,1,6.55-.85,5.79,5.79,0,0,1-6.26,1.44Z"/><path d="M415.54,171.78a3.22,3.22,0,0,1-5.09-.53,5.47,5.47,0,0,1,2.9-1.4c1.09-.05,2.28.86,2.08,1.93Z"/><path d="M438.78,279.81a2.46,2.46,0,0,1-.93-1.55l2.14-.89a3.22,3.22,0,0,1,.68,4.94,6.34,6.34,0,0,1-1.91-2.5Z"/><path d="M256.87,152.45a5,5,0,0,1,5.42,1.68l-9-.82c.37-1.27,2.18-1.21,3.46-.87Z"/><path d="M120.21,161.3a5.25,5.25,0,0,1,4.78,0,3.45,3.45,0,0,1,1.88,2.17,11.43,11.43,0,0,1-6.66-2.12Z"/><path d="M26.15,142.79c1.05.83.07,2.71-1.26,2.89s-2.55-.67-3.62-1.47a4,4,0,0,1,4.59-1Z"/><path d="M196.43,285.71l1.88,3.66c-1.74,1.32-4.63-1.13-3.6-3.06l1.72-.73Z"/><path d="M400.86,54.1a2.43,2.43,0,0,1,4.72,1.17l-4.28-.4Z"/><path d="M288.88,154.8c.37-.21.77.37.59.76a1.54,1.54,0,0,1-1.05.65c-1.71.48-4,.69-4.78-.91a5.63,5.63,0,0,1,5.44-.75Z"/><path d="M462.29,99c.91.12,1.9,1.19,1.24,1.83-2.08.24-4.39.43-6.06-.83a5.59,5.59,0,0,1,4.81-.85Z"/><path d="M336.78,157a7.38,7.38,0,0,1-6.44.46c-.56-.23-1.18-.87-.81-1.35A18,18,0,0,1,336.78,157Z"/><path d="M69.32,180.27l5.85-1.93a4.08,4.08,0,0,1-6.25,2.34Z"/><path d="M492.64,204.31a3.52,3.52,0,0,1,3.56,2.35,3.61,3.61,0,0,1-5-2.69.92.92,0,0,1,1.42.36Z"/><path d="M128.37,280.78c-1.15.46-2.24-1.15-1.82-2.32a4.93,4.93,0,0,1,2.73-2.37,3.2,3.2,0,0,1-1.25,4.27Z"/><path d="M75.5,284.19c-1,1.17-3.32-.19-2.79-1.62a9,9,0,0,1,4.95,0,1.72,1.72,0,0,1-2.18,1.51Z"/><path d="M407.19,141.07a7.11,7.11,0,0,1-5.47-.82,7.31,7.31,0,0,1,4.51-1.06,1.87,1.87,0,0,1,1.46.67c.3.47,0,1.27-.56,1.2Z"/><path d="M479.66,185.81c1.21-.52,2.58.39,3.33,1.47a3.23,3.23,0,0,1-5.09-.6l1.66-1Z"/><path d="M386.57,171.31a5.1,5.1,0,0,1-4.11.75,1.41,1.41,0,0,1,.05-1.91,2.46,2.46,0,0,0,2.23-.24,2.35,2.35,0,0,1,2.23-.19c.65.44.19,1.81-.51,1.46Z"/><path d="M438.48,57.27a3.22,3.22,0,0,1,1-4.84,4.07,4.07,0,0,1-.83,5.49Z"/><path d="M64.72,157.64a3.53,3.53,0,0,1,4.53-.34A17.12,17.12,0,0,1,63,159.5l1.61-2Z"/><path d="M128.06,136.76c.89.21,1.94,1.27,1.19,1.78a5.05,5.05,0,0,1-5.48-1.24,8.23,8.23,0,0,1,4.29-.44Z"/><path d="M198.66,46.83a4.69,4.69,0,0,1-.09-5.94,5.12,5.12,0,0,1,.5,5.34Z"/><path d="M425.19,136.93a3.37,3.37,0,0,1,3.89,1.4,2.29,2.29,0,0,1-4.24-1.57Z"/><path d="M464.9,271.37a4.67,4.67,0,0,1,5.22.73,20.75,20.75,0,0,1-7.5,0,2.08,2.08,0,0,1,2.15-1Z"/><path d="M173.38,166.08a4.15,4.15,0,0,1,5.9-.4,6.32,6.32,0,0,1-5.7.49Z"/><path d="M238.69,197.81c-1-.6-.66-2.36.39-3a5.22,5.22,0,0,1,3.54-.16,4.7,4.7,0,0,1-3.78,2.48Z"/><path d="M442.56,219.41l-1.87.42a4.33,4.33,0,0,1-1-3.06,11.38,11.38,0,0,1,4.93,2.11,3.22,3.22,0,0,1-2.15.24Z"/><path d="M437,188.15a2.33,2.33,0,0,1-1.95,3.06,1.89,1.89,0,1,1,2-3.21Z"/><path d="M109.22,175.21a4.06,4.06,0,0,1,5.79-1.6,11,11,0,0,1-5.82,1.6Z"/><path d="M272.92,122a2.53,2.53,0,0,1,0,2.48l-3.51-3.32a2.58,2.58,0,0,1,1.62-1L272.9,122Z"/><path d="M104.78,138.28a2.31,2.31,0,0,1-3.55-.9,4.09,4.09,0,0,1,2.83-1c1,.17,1.75,1.61.95,2.26Z"/><path d="M459.86,50.91a7.23,7.23,0,0,1,5.4.65c-1.19-.06-2.23.76-3.39,1s-2.73-.77-2.18-1.82Z"/><path d="M280.43,152.35a1.66,1.66,0,0,1-2.5,1.35,1.81,1.81,0,0,1,.3-2.94,2,2,0,0,1,2.69,1.45Z"/><path d="M53.79,289.1c-.33.25-.76-.32-.57-.68a1.31,1.31,0,0,1,1.07-.52,13.52,13.52,0,0,1,5,.33,4.31,4.31,0,0,1-5.28.59Z"/><path d="M226.44,176.55a1.18,1.18,0,0,1,.67,1.7,3.79,3.79,0,0,1-4.14-2.06,3.42,3.42,0,0,1,3.56.17Z"/><path d="M473.73,151l4.7-1.23c.73.92-.27,2.38-1.43,2.52a5.05,5.05,0,0,1-3.24-1.19Z"/><path d="M8.61,209.86a2.15,2.15,0,0,1-2.2,1.76,2.15,2.15,0,0,1-1.93-2.05,5,5,0,0,1,4.17.16Z"/><path d="M273.87,51.59a1.89,1.89,0,0,1-1-2.73L277,51.14a2.15,2.15,0,0,1-3.15.52Z"/><path d="M78,275.32a11.69,11.69,0,0,1-4.34-2A5.88,5.88,0,0,1,80,275.83a1.47,1.47,0,0,1-2.07-.37Z"/><path d="M493.82,138.55c-1.77.38-4.23.37-4.67-1.39a4.43,4.43,0,0,1,5.13,1.22Z"/><path d="M466.82,150.84a12.82,12.82,0,0,1,6.94,0A6.9,6.9,0,0,1,466.82,150.84Z"/><path d="M350.47,87.31A6.15,6.15,0,0,1,349,91.76a3.17,3.17,0,0,1,1.13-4.88Z"/><path d="M46.26,199.84a3.58,3.58,0,0,1-4.6-.13,3.44,3.44,0,0,1,5,0Z"/><path d="M57.51,220.39a2.48,2.48,0,0,1-.93-1.55,2.61,2.61,0,0,1,2.76-.88l.92,1.54a2.49,2.49,0,0,1-2.73.83Z"/><path d="M83.23,141.9a3.15,3.15,0,0,1-5.24.26,12.92,12.92,0,0,1,4.89-.35Z"/><path d="M313.61,225.61l-2.09-1.1a6.16,6.16,0,0,1,5.66-.06,3.36,3.36,0,0,1-3.39.8Z"/><path d="M170.45,192.81a9.39,9.39,0,0,1,5,0,6,6,0,0,1-2.69,1.48,2,2,0,0,1-2.38-1.46Z"/><path d="M476.33,281.77a3.61,3.61,0,0,1,.81,5.37,9.65,9.65,0,0,1-.92-5.17Z"/><path d="M149.42,53v-2c1.89.09,2.56,3.24.86,4.08a1.87,1.87,0,0,1-.84-2.05Z"/><path d="M221.88,158.09l4.16.39c.32.9-.72,1.8-1.67,1.73a4.36,4.36,0,0,1-2.43-1.38Z"/><path d="M55,295.28H53.17a2.26,2.26,0,0,1-.31-1.57,7.38,7.38,0,0,1,4.34,0A4.21,4.21,0,0,1,55,295.31Z"/><path d="M437.15,304.17c-.53.84-1.94-.35-1.53-1.26s1.55-1.17,2.53-1.32a1.71,1.71,0,0,1-.94,2.68Z"/><path d="M107.08,183.32a2.76,2.76,0,0,1-2.52.51,1.7,1.7,0,0,1-.28-1.47,4.12,4.12,0,0,1,2.75-1,1.67,1.67,0,0,1,.06,1.91Z"/><path d="M325.53,198.8c1.42-.24,3.51.1,3.37,1.53a8.66,8.66,0,0,1-3.39.24,1.55,1.55,0,0,1,0-1.87Z"/><path d="M434.12,160.74a.89.89,0,0,1,.34,1.47h-3.1a1.52,1.52,0,0,1,0-1.92l2.8.26Z"/><path d="M133.84,277.66c0-.94,1.35-1.09,2.27-.92l.92,2.13a2,2,0,0,1-3.11-1.22Z"/><path d="M121.9,40.21l3,.8c.49.36.2,1.22-.35,1.47a2.65,2.65,0,0,1-1.78-.08,2.29,2.29,0,0,1-1.38-.78c-.29-.45-.06-1.24.48-1.24Z"/><path d="M343,74.24a2.08,2.08,0,0,1-2.06,3.14,2.24,2.24,0,0,1,1.95-3Z"/><path d="M146.8,266.62l1.47,1.17a4.54,4.54,0,0,1-5.22-3.12l3.58,2.14Z"/><path d="M366.41,40.4c1.47-.32,3.34-.47,4.13.81a14.34,14.34,0,0,1-4.79.29c-.52-.36,0-1.38.6-1.17Z"/><path d="M123.74,34.05c1,0,1.83,1.22,1.23,2l-3.42-.3a1.7,1.7,0,0,1,2.16-1.56Z"/><path d="M497.33,287.92a1.35,1.35,0,0,1,2-1.22,4.33,4.33,0,0,1,.39,2.74,1.47,1.47,0,0,1-2-1.54Z"/><path d="M112,180.76a3,3,0,0,1-2.29-.33,3.44,3.44,0,0,1,5,.7,2.35,2.35,0,0,1-2.76-.31Z"/><path d="M129.63,286.33a3,3,0,0,1,4.29.59,4.84,4.84,0,0,1-4.52-.31Z"/><path d="M443.68,62.71c-.87-.24-.05-1.67.85-1.62s1.77.69,2.64.46a2.26,2.26,0,0,1-3.48,1.09Z"/><path d="M259.6,172.46a9.06,9.06,0,0,1-5,0,4.21,4.21,0,0,1,5.2-.25Z"/><path d="M391,146.31l-1.43-1.06a4.81,4.81,0,0,1,5-.53l-3.49,1.3Z"/><path d="M363.26,140c.68-.2,1.71.15,1.51.83a4.81,4.81,0,0,1-5-.53,6.91,6.91,0,0,1,3.49-.33Z"/><path d="M497.22,139.15c-.55-.36-.3-1.3.29-1.61a2.87,2.87,0,0,1,1.93,0,2.18,2.18,0,0,1,0,2.45l-2.16-.95Z"/><path d="M187.19,285.19l-2.79.24a2.07,2.07,0,0,1-.28-1.56,2,2,0,0,1,3.08,1.2Z"/><path d="M7.32,186.29a2.75,2.75,0,0,1,2.52-.51,1.65,1.65,0,0,1,.28,1.47,3.32,3.32,0,0,1-2,.48c-.68-.12-1.27-.89-.94-1.49Z"/><path d="M438.19,60.34c1.71.2,1.69,3.34,0,3.52a3.8,3.8,0,0,1,0-3.15Z"/><path d="M79.4,262.81c0-.78,1.06-1.22,1.73-.83a2.1,2.1,0,0,1,.83,2,1.55,1.55,0,0,1-2.4-1.23Z"/><path d="M16.39,207.77a4,4,0,0,1,4.42.38,4.51,4.51,0,0,1-4.64-.16Z"/><path d="M500,146.58c-.77,1.34-3.33,0-2.63-1.42a2,2,0,0,1,2.42,1.27Z"/><path d="M366,53.54a3.24,3.24,0,0,1,3.81-.54,2.17,2.17,0,0,1-3.65.49Z"/><path d="M347.79,147.94a1.79,1.79,0,0,1-1.54-.26,2.2,2.2,0,0,1,.3-1.64l2.85.29a1.75,1.75,0,0,1-1.61,1.43Z"/><path d="M90.91,172.78c.69-.15,1.78.18,1.47.81a3.08,3.08,0,0,1-3.87.52L91,172.78Z"/><path d="M263.62,217.86l5.21.18a5.28,5.28,0,0,1-5.52.38Z"/><path d="M205.39,185.71a2.75,2.75,0,0,1-1.91,1.35,2.12,2.12,0,0,1,.55-2.48c.78-.48,2,.52,1.48,1.24Z"/><path d="M263.62,167.16l1.83,0a1.28,1.28,0,1,1-2-.2Z"/><path d="M382.49,133.72c-.67-1-2.65.25-2,1.29S383.16,134.75,382.49,133.72Z"/><path d="M422.29,112.42l.79,1.79a2.31,2.31,0,0,1-1.62.33l-.93-2.16a1.59,1.59,0,0,1,1.89,0Z"/><path d="M440.3,309.7l1.54-.2.94,1.58a5.45,5.45,0,0,1-2.79.29l.27-1.55Z"/><path d="M339.18,65a3.92,3.92,0,0,0,.84,2.2,2.26,2.26,0,0,1-1.49.88,2.45,2.45,0,0,1,.47-3.25Z"/><path d="M372.55,164c-1,.12-2.38,0-2.77-.94a4.15,4.15,0,0,1,4.28.76l-1.5.29Z"/><path d="M411.42,164.65a2,2,0,0,1-2.73,1,1.86,1.86,0,0,1,3-1.16Z"/><path d="M119.32,174.48a2.67,2.67,0,0,1-3.95-.21,5,5,0,0,1,3.71,0Z"/><path d="M428.38,34.43a8.62,8.62,0,0,1-4.76,0,8.38,8.38,0,0,1,4.7-.72Z"/><path d="M446.19,55.12c-1.25.25-1.81-2.09-.58-2.41s1.82,2.06.57,2.32Z"/><path d="M269.06,100.06a1.29,1.29,0,1,1-1.72-1.58l1.54,1.53Z"/><path d="M222.13,187.6a1.34,1.34,0,0,1,1.5,1.19A1.2,1.2,0,0,1,222.2,190a1.51,1.51,0,0,1-.09-2.42Z"/><path d="M129.6,154.32l2.22-.22a1.51,1.51,0,0,1-2,1.85l-.36-1.45Z"/><path d="M194.68,218.26c.13-.79,1.49-.69,1.76.06a1.91,1.91,0,0,1-.91,2,2.08,2.08,0,0,1-.92-2.14Z"/><path d="M104.83,244.29c.43.79-.86,1.48-1.73,1.22s-1.74-.88-2.59-.56a2.15,2.15,0,0,1,3.52,0Z"/><path d="M460.07,127.82c.59-.59,1.63.47,1.28,1.23a2.27,2.27,0,0,1-2.15,1,3,3,0,0,1,.94-2.18Z"/><path d="M104.73,115.44l1.14-3.34c-.24.87.42,1.74.45,2.65s-1.5,1.62-1.61.73Z"/><path d="M132.09,41.82a1.58,1.58,0,0,1,2.43,1.25,1.51,1.51,0,0,1-2.34-1.25Z"/><path d="M462.34,156.69c.52-.41.94.7.56,1.25l-2.8-.27c-.25-.92,1.22-1.17,2.14-.93Z"/><path d="M470.36,204.85a6.44,6.44,0,0,1,2.75,1,1.62,1.62,0,0,1-1.52.76,1.6,1.6,0,0,1-1.44-1.73Z"/><path d="M428.88,152.36c.68-.24,1.69.18,1.52.87a3.58,3.58,0,0,1-3.07,0c-.32-.66.81-1,1.53-.88Z"/><path d="M176.67,160.21l-2.19.2a1.28,1.28,0,0,1,1.23-1.84,1.91,1.91,0,0,1,.92,1.48Z"/><path d="M101.83,199.08a1.68,1.68,0,0,1,2.38-.7c.25,1.32-2.13,2-2.6.73Z"/><path d="M461.33,149.54c-.09-.67.76-1.17,1.39-.95a1.94,1.94,0,0,1,1.13,1.56,1.62,1.62,0,0,1-2.4-.66Z"/><path d="M275.49,99a1.51,1.51,0,0,1-2.32,1.57,1.73,1.73,0,0,1,2.19-1.47Z"/><path d="M50.36,274a.89.89,0,0,1,.35,1.46c-1,.17-2.32-.51-2.18-1.54a1.6,1.6,0,0,1,1.89-.05Z"/><path d="M34,143a1.22,1.22,0,0,1-2.11-.39c.54-.52,1.22-1.08,1.94-.91s.81,1.55.07,1.49Z"/><path d="M55,175.15c-.68.24-1.69-.18-1.52-.87a3.6,3.6,0,0,1,3.07,0,2.4,2.4,0,0,1-1.55.91Z"/><path d="M498.21,176.48a1.92,1.92,0,0,1,1.59.27l-.18,2.12a2.39,2.39,0,0,1-1.58-2.43Z"/><path d="M211.59,187.68a1.23,1.23,0,0,1,.67,1.75c-1,.2-2.35-.56-2.2-1.61l1.55-.33Z"/><path d="M124.63,21.32a2.11,2.11,0,0,1,2.54,1.3,1.56,1.56,0,0,1-2.44-1.21Z"/><path d="M388.94,133.31l1.57-.24a2.37,2.37,0,0,1,.31,1.6,2.13,2.13,0,0,1-1.55.3,2,2,0,0,1-.28-1.54Z"/><path d="M386.16,140.44c-.87.26-2.27.1-2.12-.8a2.58,2.58,0,0,1,2-.34c.65.27.81,1.43.13,1.6Z"/><path d="M63.67,129.38a2.24,2.24,0,0,1,2,2.32,2.48,2.48,0,0,1-2.25-2.26Z"/><path d="M465,72.1l-.84,1.64a1.94,1.94,0,0,1,.14-3.09l.9,1.44Z"/><path d="M146,68.12a3.71,3.71,0,0,1,0,3.06,1.94,1.94,0,0,1-.11-3.22Z"/><path d="M384.92,185.1a1.2,1.2,0,0,1,2.09.35,2.14,2.14,0,0,1-1.53,1c-.63,0-1.06-1-.48-1.27Z"/><path d="M11.82,181.69c.36-1.19,2.08-1,3.26-.65a3.36,3.36,0,0,1-3.1.83Z"/><path d="M497.83,153.86c-.05-.86,1.1-1.19,2-1.23l-.16,2.11-1.73-.88Z"/><path d="M348.4,104.92a1.24,1.24,0,0,1,1.57-1.31,2.22,2.22,0,0,1-.34,1.78c-.43.45-1.45.17-1.32-.44Z"/><path d="M463.86,79c1.31-.27,1.37,2.13.2,2.79L463.78,79Z"/><path d="M108,80.81a1.76,1.76,0,0,1,.28-1.56,4.94,4.94,0,0,1,0,3.69,1.31,1.31,0,0,1-.34-2.15Z"/><path d="M431.77,311.42a1.68,1.68,0,0,1,1.43-1.8l.94,1.47a3.21,3.21,0,0,1-2.15.24Z"/><path d="M59.67,126.55c-1,.52-1.35-1.62-.3-2a1.22,1.22,0,0,1,.32,2.07Z"/><path d="M498.4,207.08c.1-.69,1.29-.54,1.51.12a2.4,2.4,0,0,1-.53,1.94,1.93,1.93,0,0,1-.85-2.07Z"/><path d="M440.7,162.81a1.38,1.38,0,0,1-1.34,1.89,1.32,1.32,0,0,1,1.28-1.85Z"/><path d="M423.93,159.12a5.7,5.7,0,0,1,2.78.31,2.39,2.39,0,0,1-1.54.92l-1.4-1Z"/><path d="M300.21,167.17a1.41,1.41,0,0,1-2.28.91c-.11-.91,1.28-1.06,2.16-.82Z"/><path d="M337.61,162l-1.86.58A2,2,0,0,1,336,161c.71-.11,1.81.23,1.5.89Z"/><path d="M420.25,177a1.22,1.22,0,0,1-.66-1.75,2.21,2.21,0,0,1,1.6.27,1.77,1.77,0,0,1-1,1.52Z"/><path d="M433.93,213.34l2,1a1.35,1.35,0,0,1-2.42-.7Z"/><path d="M113.9,124.26c-.76.26-.43-1.33.37-1.29s1.55.71,2.32.48a4.54,4.54,0,0,1-2.76.38Z"/><path d="M352.32,165.26a.89.89,0,0,1,1.34-.93,1.22,1.22,0,0,1-1.72,1.27Z"/><path d="M197.15,68.46a1.32,1.32,0,0,1,2.36,0,2.43,2.43,0,0,1-2.44,0Z"/><path d="M161.5,14.31a1.89,1.89,0,0,1,1.55.25,1.88,1.88,0,0,1-1.55.87c-.65,0-.66-1.25,0-1.28Z"/><path d="M42,0c.82-.31,1.11,1.12.68,1.88C41.86,2.22,41.56.79,42,0Z"/><path d="M101.43,272.4a2.49,2.49,0,0,1,0-2.46c.94.42,1,2.12,0,2.35Z"/><path d="M72.38,158.55c.52-.38,1,.7.58,1.15a1.73,1.73,0,0,1-1.68-.39l.94-.94Z"/><path d="M367.84,147a1.32,1.32,0,0,1-2.36,0,2.43,2.43,0,0,1,2.44,0Z"/><path d="M188.07,42.84a1.27,1.27,0,0,1,.68,1.78c-.83.32-1.1-1.13-.7-1.92Z"/><path d="M349.25,172.45c.43.9-1.44,1.57-1.68.6a1.3,1.3,0,0,1,1.8-.66Z"/><path d="M351.12,49.21c-.27.57-1.35,0-1-.55.28-.78,1.76.08,1.21.71Z"/><path d="M274.47,38.18a.73.73,0,1,1-.7-1l.83.82Z"/><path d="M381.83,145.44c-.68.24-1.71-.19-1.51-.89a1.09,1.09,0,0,1,1.65,1Z"/><path d="M455.52,141.84c.51-.4,1,.68.58,1.17a1.41,1.41,0,0,1-1.2-.44c-.24-.37.25-1,.58-.7Z"/><path d="M115.64,50.83a1.31,1.31,0,0,1,.66-1.8,1,1,0,0,1-.62,1.76Z"/><path d="M52.05,133.31l1-1.38c.91.4,0,2.12-.85,1.58Z"/><path d="M50.67,115.17a1.37,1.37,0,0,1,.12,1.72c-.92,0-1-1.72-.13-1.85Z"/><path d="M469.69,261.25c.38.78-1.39,1.18-1.38.31a.85.85,0,0,1,1.44-.31Z"/><path d="M185.7,182c-.13-.45.74-.56.92-.13a1.44,1.44,0,0,1-.37,1.3c-.55.35-1.08-.73-.58-1.16Z"/><path d="M413,277a2.41,2.41,0,0,1-2,.26l-1.7-6.46a4.35,4.35,0,0,1,4.41.7Z"/><path d="M380.73,271.61c-2.23-.12-4.72-.36-6.17-2.06-1.12-1.32-1.41-3.31-2.84-4.27.27-1.37,2.38-.63,3.34.38Z"/><path d="M387.59,276.26a2.63,2.63,0,0,1-4.15-3,3.42,3.42,0,0,1,4.3,3.2Z"/><path d="M393.11,282.42a3,3,0,0,1,1.74,3.33,10.16,10.16,0,0,1-3.74-6.36,2.13,2.13,0,0,1,2.78.75,1.56,1.56,0,0,0-.54,1.81Z"/><path d="M396.26,263a3.7,3.7,0,0,1,4.94,3.08,3.38,3.38,0,0,1-3.91-2.49Z"/><path d="M317.46,86c-.64.31-1.39-.4-1.42-1.11a3.27,3.27,0,0,1,.84-1.92,5.1,5.1,0,0,1,4,2.23,3.29,3.29,0,0,1-3.37.79Z"/><path d="M317.86,109.34c-.62.68-1.95-.08-1.84-1a1.6,1.6,0,0,1,2.12-1.14,2.57,2.57,0,0,1,1.51,2.15l-1.54.33Z"/><path d="M402.28,286.81a2,2,0,0,1-2.94-.75l-2.9-3.41c.84-1.46,3.12-.73,4.34.43s2.56,2.71,4.2,2.37Z"/><path d="M328,86.72c-.73-.23-.74-1.38-.18-1.9a3.37,3.37,0,0,1,2.17-.63,2,2,0,0,1-2,2.2Z"/><path d="M318.07,73.66a1.35,1.35,0,0,1-1.47-.31c-.8-.83,1-1.67,2.12-1.46.57.62.15,2-.65,1.75Z"/><path d="M327.62,131.51c.79-.56,1.8,1,1,1.51a1.06,1.06,0,0,1-1.39-.18c-.3-.42,0-1.15.52-1.13Z"/><path d="M302.36,94.81c.56-.66,1.58.16,2,.91,1.52,2.58,2.9,6.25.64,8.21-.52.57-1.33-.33-1.54-1.07A29.9,29.9,0,0,1,302.36,94.81Z"/><path d="M307.25,54.2q0,2.17,0,4.33a3.74,3.74,0,0,1-2.63.16c-.73-1.48-1.47-3.22-.75-4.71s3.61-1.38,3.52.27Z"/><path d="M305.92,20.84a5.91,5.91,0,0,1,1.91,3.2,1.86,1.86,0,1,1-2.1-2.93Z"/><path d="M304.56,36.73l1-1.21a1.81,1.81,0,1,1-.53,3.58,3.55,3.55,0,0,1-.24-2.23Z"/><path d="M303.13,61.44a2.93,2.93,0,0,1,.14,4.27,3,3,0,0,1-.08-4.41Z"/><path d="M303.47,75.38c-.13,2.13,1,4.19.9,6.32a2.82,2.82,0,0,1-1.43,2.55q-.35-7.76-.09-15.53a3.07,3.07,0,0,1,1.29,3.12C304,73,303.54,74.19,303.47,75.38Z"/><path d="M305.42,117.95a1.54,1.54,0,0,1-1.55,1.56L303,118a1.31,1.31,0,0,1,2.34,0Z"/><path d="M381.8,32.88a1.28,1.28,0,0,1,.64-1.79l1.53.82a1.28,1.28,0,0,1-2.18,1Z"/><path d="M391.12,31a2.51,2.51,0,0,1,.93,1.57,3.68,3.68,0,0,1-2.2.27A1.29,1.29,0,0,1,391.13,31Z"/><path d="M303.84,133.06c-.36.28-.92-.19-.87-.64a1.48,1.48,0,0,1,.85-1c.91.06.95,1.73,0,1.84Z"/><path d="M224.46,80.56l-5.33-3.39a2.69,2.69,0,0,1,2-3.61,3.64,3.64,0,0,1,3.77,2.36A5.73,5.73,0,0,1,224.46,80.56Z"/><path d="M225.41,48.35a2.61,2.61,0,0,1,1.51.52,2.73,2.73,0,0,1,.46,2.42,31.09,31.09,0,0,1-12.19-2.16A27.2,27.2,0,0,1,225.41,48.35Z"/><path d="M222.91,33.2,225,34.29a10.32,10.32,0,0,1-7.62-.39,13.19,13.19,0,0,1,5.39-.41Z"/><path d="M223.23,103.14a1.72,1.72,0,1,1-3.09-1.25,2.11,2.11,0,0,1,2.94,1.21Z"/><path d="M218.59,59.07a2.17,2.17,0,0,1,3.26.57,2.84,2.84,0,0,1-3.91-.52Z"/><path d="M220.46,110.53c.22-1.34,2.35-1,3.24,0a3.67,3.67,0,0,1-3.1,0Z"/><path d="M226.31,38.57c1.45.2,3.32,1.08,3,2.5a50.12,50.12,0,0,1-13.12.19c-1.21-.14-2.81-1.12-2.14-2.13a1.82,1.82,0,0,1,1.35-.6A41.17,41.17,0,0,1,226.31,38.57Z"/><path d="M218.45,83.6c-.82.3-1.11-1.12-.67-1.88.83-.29,1.13,1.13.71,1.91Z"/><path d="M247.52,123.84a1.55,1.55,0,0,1,2.7.87,3.76,3.76,0,0,1-5,.74l2.29-1.65Z"/><path d="M246.64,109.9a1.61,1.61,0,0,1-.93,1.44c-.84-.46.16-2.06.94-1.49Z"/><path d="M251.25,95.4c.38-.27.92.25.85.72a1.83,1.83,0,0,1-.87,1.07,1.55,1.55,0,0,1,0-1.86Z"/><path d="M250,72.39c-1.36.41-3.29-.75-2.7-2,1.24-1.14,3.6.68,2.83,2.17Z"/><path d="M251.78,60.21A8.37,8.37,0,0,1,249,57.83c1.26-1.11,3.59.76,2.77,2.23Z"/><path d="M253.74,39.07,245,39c-.59,0-1.33-.11-1.53-.67s.57-1.26,1.26-1.5a14.89,14.89,0,0,1,9.31-.12A4.25,4.25,0,0,1,253.74,39.07Z"/><path d="M242.56,30.32a21,21,0,0,1,10.07-1,3.73,3.73,0,0,1,2.23.9,1.46,1.46,0,0,1,0,2.14,17.74,17.74,0,0,0-12.93,1c-.77.37-1.58-.73-1.28-1.53A3,3,0,0,1,242.56,30.32Z"/></g></svg>