<svg id="Layer_1" data-name="Layer 1" xmlns="http://www.w3.org/2000/svg" viewBox="0 0 500 296.32"><title>Artboard 6</title><g id="Shape_8" data-name="Shape 8"><path d="M53,151.84c-3-5.07-6.11-10.24-7.51-16l97.84,160.46c-2.9-1-4.73-3.76-6.34-6.36Q94.52,221.2,53,151.84Z"/><path d="M145.84,287.92a7.15,7.15,0,0,1,2.46,6.3,1.87,1.87,0,0,1-.83,1.31A33,33,0,0,1,145.84,287.92Z"/><path d="M74.42,0c1.38,1.26.58,3.71-.94,4.79A13.78,13.78,0,0,1,74.2.28Z"/><path d="M18,22.91c-8.21,10.64-9.19,25.5-5.78,38.5S22.93,86,30.08,97.41L145.9,281.71c2.38,3.79,8,3.11,12.34,2l299.39-79.82c8.08-2.15,18.35-3.6,23.3,3.13l-6.3,3.27c2.49-.73,2.1-4.84-.16-6.13s-5.08-.66-7.59,0L147.18,289.05,9.36,66.82C8.25,65,7,63.11,5,62.36S.26,62.82.31,64.94A103.93,103.93,0,0,1,12.19,8.16L11.41,22.3c4.36-3.15,9.89,1.88,12.88,6.35q72.2,108,140.82,218.39c1.9,3,6.4,2.56,9.89,1.69l323.62-80.8Q427.72,95.31,352.31,27.28c-5.55-5-11.26-10.09-18.17-12.93C326.29,11.11,317.55,11,309.06,11L19.59,9.31,311,8.32c7.09,0,14.34,0,21,2.3,8,2.76,14.43,8.53,20.67,14.19q73.88,67,144.47,137.53c1.79,1.79,3.71,4.38,2.47,6.58-.78,1.38-2.48,1.88-4,2.26l-321.8,80.07c-2.36.59-5,1.15-7.12,0a9.92,9.92,0,0,1-3.29-3.6L18,22.91M9,51.59a6.36,6.36,0,0,0-5.9-1.81,10.83,10.83,0,0,0-1,4.18A3.69,3.69,0,0,0,4.26,57.4c1.36.47,3.15-.61,3-2s-2-2.16-3.47-1.78l5.19-2m-1.12-5.4L3.56,45a1.72,1.72,0,0,0,.11,2.46A5,5,0,0,0,6.2,48.52c.94.2,2.06.36,2.75-.31S8.89,46,8.07,46.47M8.5,35.6c1.53.22,3.83-.37,3.42-1.86L6,32.53c-1.11,1.38.8,3.78,2.4,3M11,31.28A1.77,1.77,0,0,0,12.5,31c.56-1-.81-2.09-2-2.26s-2.61-.22-3.14-1.27a2.56,2.56,0,0,0,.1,3.29,2.56,2.56,0,0,0,3.28.28m-2-5.25c.92.78,2,1.6,3.18,1.48s2.12-1.82,1.16-2.55a2.28,2.28,0,0,0-1-.35l-3.73-.75a1.2,1.2,0,0,0,.47,1.76M10.51,38a2.69,2.69,0,0,0-4.3,1.57,5.65,5.65,0,0,0,3.27.57c1.09-.26,2-1.5,1.52-2.51m-5.55,6a2.82,2.82,0,0,0,4.7-1.3,3.87,3.87,0,0,0-5.29,1.1M4.63,57.79l-1.41,1a1.77,1.77,0,0,0,2.64.64l-1-1.55Z"/></g></svg>