<svg id="Layer_1" data-name="Layer 1" xmlns="http://www.w3.org/2000/svg" viewBox="0 0 396.96 500"><title>Artboard 5</title><g id="Shape_18" data-name="Shape 18"><path d="M323.87,448.28c-2.13.05-4.8-.26-5.48-2.27l47.08-1.47c-1,2.37-4.1,2.79-6.67,2.86Z"/><path d="M397,497.71,50.77,500c-17.06.11-34.4.18-50.77-4.61L53.69,120.58,314.37,6.85c8.31-3.62,17-7.32,26.05-6.8l31.83,424.57c.12,1.61.19,3.4-.84,4.65s-2.57,1.49-4.05,1.75L27.79,489.63l360.36-3.94q-17-182.95-31.3-366.13c2.37-3.2,6.5,2.08,6.85,6L397,497.71M75,477.36a13,13,0,0,0-5,.35,15.56,15.56,0,0,0,8-.75,3.26,3.26,0,0,0-3.17.23m18.56-3.55A56.72,56.72,0,0,0,81.8,476a26.49,26.49,0,0,0,11.64-2.37m-28.85,6c-1.93-.71-4.07-.38-6.1,0L30.87,484.2a30.72,30.72,0,0,1-5.91.6c-2.23-.06-4.43-.61-6.67-.57s-4.64.82-5.81,2.72c1.44.79,3.19.61,4.81.41q18.6-2.35,37-6.25,5.13-1,10.34-1.51m-51.48,2.69,1.14-1.65a59.89,59.89,0,0,0,.94-15L12.92,478c-.26,1.44-.51,3,.19,4.29M15.6,454.5a3.85,3.85,0,0,0,0,4.55,9,9,0,0,0,.64-6.94l-.9,2.15m2.56-8-.34-1.58a5.37,5.37,0,0,0-.8,5.74l1-4.14Z"/><path d="M363.55,439.41l-.9,1.75a322,322,0,0,0-34.41,1.18l-.91-1.6a246,246,0,0,1,27.89-2.46C358,438.2,361,438.19,363.55,439.41Z"/><path d="M367.89,442.78a4.16,4.16,0,0,1,6.13-3.16l-.87,2A18.62,18.62,0,0,0,367.89,442.78Z"/><path d="M373.74,435.24a1.11,1.11,0,0,1-1.44,1.22,3.52,3.52,0,0,1-.11-2,1.22,1.22,0,0,1,1.63-.77l.32,1.51Z"/><path d="M286.68,448.36c.33,1.64-1.92,2.45-3.59,2.56l-14.89,1c-.52-.85.78-1.62,1.76-1.78A161.87,161.87,0,0,1,286.68,448.36Z"/></g></svg>