<svg id="Layer_1" data-name="Layer 1" xmlns="http://www.w3.org/2000/svg" viewBox="0 0 500 297.94"><title>Artboard 17</title><g id="Shape_16" data-name="Shape 16"><path d="M4,132.6l-.41,12.17a2.73,2.73,0,0,1-2.7,2.54A33.24,33.24,0,0,0,.68,129c.68-.83,2.14-.46,2.73.44A5.23,5.23,0,0,1,4,132.6Z"/><path d="M1.17,19.47l5,.9,5.37,1c.52.15.38,1-.11,1.25a2.92,2.92,0,0,1-1.6,0,11.36,11.36,0,0,0-4.18.68A5.3,5.3,0,0,1,1.56,23C.36,22.27,0,20.24,1.17,19.47Z"/><path d="M.78,109.23a6.66,6.66,0,0,1,3.26.58,2.29,2.29,0,0,1,1.14,2.82,7,7,0,0,0,0,6.18c-1.56-.08-2.32-1.89-2.72-3.4Z"/><path d="M2,62.34A2.52,2.52,0,0,1,1,61.79a1.26,1.26,0,0,1-.3-.55,24.63,24.63,0,0,1,14.2,6.34Z"/><path d="M.81,179.07a9.69,9.69,0,0,1,.24-1.72c.11-.42.6-.91.88-.57a33.68,33.68,0,0,1-.6,11.66A36.64,36.64,0,0,1,.81,179.07Z"/><path d="M.83,171.34c1.2.18,1.8,1.53,2.17,2.68l2.06-1.38a4,4,0,0,1-2.74,3,4.52,4.52,0,0,1-1.49-4.2Z"/><path d="M.94,192.47a7.21,7.21,0,0,1,.32,5.81,14.08,14.08,0,0,1-.39-5.74Z"/><path d="M.82,207.48a1.21,1.21,0,0,1,1,1.79c-.81.26-1.1-1-.93-1.87Z"/><path d="M276.22,197.54l5.45-11.75a72.14,72.14,0,0,0,5,52.13l4.22-2.08c.95,2,.37,4.33-.17,6.46s-1,4.55.2,6.41,4.63,2.1,5.23,0c-2.27-.4-3-3.23-3.3-5.51l-1.69-14c-.43-3.56,1.1-8.87,4.49-7.71a10.09,10.09,0,0,0-5.35-2.48l-7.76-6.1,11.21,1.64a8.91,8.91,0,0,1-8.26-10.07,17.12,17.12,0,0,1,2.62-5.72l7.34-11.89c.47-.76-.05-1.73-.56-2.46-2.88-4.16-6-8.52-10.61-10.6a6,6,0,0,1,6.25-.3l1.36-4.48c-3-3.13-8.2-3.09-12-1.1s-6.62,5.5-9.28,8.91c0-3.45,3-6.12,5.94-7.94s6.26-3.43,8-6.44.42-7.88-3-8.15c2.7-1.34,5.52-2.78,7.18-5.28s1.63-6.41-.89-8.07c3.53-.08,6.06,4.7,4,7.57l6.22-5.26a6.79,6.79,0,0,1-3.47,8.72,7.31,7.31,0,1,0,.22-14.62,5.46,5.46,0,0,1,3.25-3.19c5,2.32,6.25,8.7,7.3,14.12s3.65,11.79,9.14,12.43l-2.5-9.37a35.4,35.4,0,0,1-8.12-16.24c2.59-2.94,5.32-6.18,5.55-10.09s-3.55-8.15-7.21-6.76c-1.79.68-2.95,2.43-3.7,4.19a18.44,18.44,0,0,0-1,11.43c-.09-2.1-3.21-.21-4.67,1.31-3.14,3.28-9.85.6-9.88-3.94.56,2.59,5.06,2.21,5.84-.33s-1.4-5.21-3.94-6-5.27-.14-7.85.49a5.88,5.88,0,0,1-6.81,2.39c3.45-2,3.57-7.79.19-9.88a3.24,3.24,0,0,1-2.31,3.84c2.05-6,3.6-13.8-1.44-17.6-1.86-1.4-.88-4.66,1.18-5.73s4.55-.66,6.84-.22l11.62,2.25a9.47,9.47,0,0,1,7.44-.82c1.31-.65-1.59-2-1.83-.58s1.42,2.41,2.82,2.86a51,51,0,0,0,43.06-5.79c10.06-6.6,19.75-17.36,31.57-15.09,3.42.66,5.72,4.14,6.15,7.6s-.61,6.92-1.63,10.25l-1.58-11c-2.6,1.05-2.49,4.71-2,7.48A90.17,90.17,0,0,1,371,116c-.18,2.52-.57,5.25-2.39,7s-5.52,1.57-6.28-.84a87.82,87.82,0,0,0-15.44-28.68l16,33.8-5.19.6a4.8,4.8,0,0,0,7.06,1.32,11.8,11.8,0,0,0,5.94,6.69L364,147.67A26.15,26.15,0,0,0,375.62,154a10.56,10.56,0,0,1-2.06-6.61,14.09,14.09,0,0,1,11.38,3.25c6.48-.9,9.28-10.32,5-15.27-1.55-1.8,1.79-4.45,3.8-3.19s2.28,4.09,2,6.45-.94,4.87,0,7c1.14,1,3,.07,3.61-1.29a7.27,7.27,0,0,0,0-4.38l-3.63-17a16.16,16.16,0,0,1,7.81,6.17l-3.43.08A27.35,27.35,0,0,0,404,144.37q0-7.17,0-14.34a17,17,0,0,0,6.36,12.12l-3.62-14.75c12.29,21,29.42,38.78,46.38,56.28a30.33,30.33,0,0,1,8.4,22.33c.45-8.5,2.94-16.74,5.42-24.88l18.42-60.54A113.63,113.63,0,0,1,486.79,108l-2.44-3.32-3,3.63,1.28-6.85c-.66,1.11,1.7,1.8,2.37.7s.18-2.5.06-3.79.62-3,1.89-2.75l.55,5.28a18.63,18.63,0,0,0,5-11.46,5.91,5.91,0,0,1-6.54,4.2,54.42,54.42,0,0,1,9-8.91,4.23,4.23,0,0,0-4.47,1.48,6.23,6.23,0,0,1,5.81-5.59l-.24-6.24a3.09,3.09,0,0,1-4.15,2.39l-.88-6.3,8.31-4.09q.78,20.7-.19,41.42L497.36,93.4c-4.67,10.05,5.42,22.06,1.86,32.56-.72-3.84-6.43-5.5-9.1-2.65a21.65,21.65,0,0,0-1.68,11.95,4.7,4.7,0,0,1-3.31-5.81A46.73,46.73,0,0,1,476.79,155c1.75,1.84,4.42-1.08,5.24-3.48l4.55-13.42,2.36,5.21c1.91-3,7.57-1.46,7.74,2.07a2.93,2.93,0,0,0-2.64,4,4.81,4.81,0,0,1,5.8-1.5l-3.49,9.08,3.1-3.66q0,6.51,0,13l-1.65-1.35a322.51,322.51,0,0,1,.72,64.31,7.43,7.43,0,0,1,.95,4.46q0,28.14,0,56.29c-5.61,1.17-11.34-1.05-17.07-1.24s-12.65,3.28-12.31,9l-177.26-.07a12.63,12.63,0,0,0,5.12-8.51,22.2,22.2,0,0,0-6.7,8.57l-13.6,0a22.44,22.44,0,0,0-7.38-11.8c-2.09,1.26-.45,4.5,1.44,6s4.19,4,2.78,6l-3-4.76a4.39,4.39,0,0,0-1.72,4.19l-8.19,0a8.85,8.85,0,0,0,6.7-5.83l-2.91.06-7.4,6.06a5.35,5.35,0,0,0-6.59-4.7l3.57,2.88c-2.84-.11-5.19-2.29-8-2.86s-6.38,2.52-4.48,4.62l-9.87-.4A38.19,38.19,0,0,0,239,276.9c.11-6.38.12-15,6.35-16.42a16,16,0,0,1-4.53-8.45l4.09,3.63c.33-1.71,3.62-2.48,3-.86a7.6,7.6,0,0,0-3.45-5.6,8.65,8.65,0,0,0,7.37-7.55,10.86,10.86,0,0,1,.6,8,26.19,26.19,0,0,0,7.35-19.7,20.89,20.89,0,0,0-5.5-13.27c-1.2-1.23-2.67-2.43-3-4.13s1.7-3.65,3.05-2.58c1.69,6.16,10,9.33,15.4,5.84a28.44,28.44,0,0,1-10.91-5.41c-1.47-1.18-2.91-2.68-3.06-4.56s1.71-3.91,3.46-3.21c-3.34-.27-2.79-5.84.08-7.58s6.61-1.63,9.35-3.57c3.44-2.42,4.17-7.13,6.2-10.81s7.82-6.24,10.11-2.71a19.45,19.45,0,0,0-8.75,19.58M415.49,232.2c-1.17-.64-2.56.5-3.16,1.69s-1,2.64-2.14,3.32a11.53,11.53,0,0,1-2.51.71c-.83.26-1.68,1-1.5,1.86,1.63,1.44,4.06-.33,5.48-2l6.8-8a2.41,2.41,0,0,0-3,2.39M361.2,237c.86-.06,1-1.3.69-2.11s-.6-1.88.09-2.4a6.76,6.76,0,0,0,2.6-6.22L357.31,224a5.64,5.64,0,0,1-2.91,5.52,8.4,8.4,0,0,0-.08-8.61c-.5-.8-1.13-1.9-.45-2.56s-.1-1.75-.8-2.38-1.31-1.9-.48-2.37l2,.68A5.32,5.32,0,0,0,350,209.7a2.13,2.13,0,0,0,1.43-2.27,13.25,13.25,0,0,0-12.2,4.53c-1.67,2-2.4,5.59-.11,6.86l1.29-1Q344.79,228,350,237.9c1,2,2.53,4.21,4.76,4.18l-2.87-4.1a9.46,9.46,0,0,0,6-1.81,5.88,5.88,0,0,1-2.78-4.68,1.69,1.69,0,0,0-.38,1.55,3.31,3.31,0,0,1-4.28-1.17l6-1.43a3.76,3.76,0,0,1,1.57-.15,2.57,2.57,0,0,1,1.83,2.53,7.52,7.52,0,0,1-.91,3.23l2.29,1M345,269.88a68.08,68.08,0,0,1,2.27,8.9c.79,3.83,1.59,7.66,2.17,11.53,2.16-.84,1.41-4.07.28-6.1,1.6.85,3.68-.18,4.61-1.74a10.64,10.64,0,0,0,1-5.28c.1-4.44.13-8.88.15-13.32l0-2.48c0-.87,0-1.73,0-2.6a68.9,68.9,0,0,0-.81-9.75,6.13,6.13,0,0,0-1-2.88,2.23,2.23,0,0,0-2.72-.77c-.89.51-.9,2.14.09,2.42s1.14,1.79.47,2.58a4.62,4.62,0,0,1-2.79,1.24c-3.07-2.22,3-8.14,0-10.43A32.48,32.48,0,0,0,345,269.88m53-34.53-3.77.34a4.36,4.36,0,0,0,.8-4.25,26.55,26.55,0,0,0-4.22,8.59c-1.45-.25-.87-2.68-1.89-3.74a2.3,2.3,0,0,0-.68-.46,5.51,5.51,0,0,0-7.4,3.59c-.33,1.48,0,3.14-.8,4.45a8.2,8.2,0,0,1-1.76-8.18c.53-1.5,1.42-3.39.25-4.47-.88,2.2-2.91,3.68-4.59,5.36s-3.13,4.06-2.4,6.32c.88,2.68,4.26,3.54,7.08,3.49l.25,1.44a6.77,6.77,0,0,1-3.31,1.33,2.33,2.33,0,0,1-2.49-2.06c-.72-.79-2,.62-1.6,1.62s1.4,1.61,1.92,2.55a2.88,2.88,0,0,1-.73,3.55,12.78,12.78,0,0,1,12.09,0c-.67-2.88,2.53-5,4.79-6.88a14.9,14.9,0,0,0,5-8.79,3.38,3.38,0,0,0,3.47-3.79m-91.59,25.59a7,7,0,0,1,4.38-.12c-1.07,1.42-.42,3.94,1.33,4.26s3.1-2.52,1.57-3.42a3,3,0,0,1,4,.8,12.67,12.67,0,0,1-2.57,2.11c1.3.89,3.15.34,4.34-.69a38.46,38.46,0,0,0,3-3.61c3.23-3.55,8.61-4.45,11.93-7.92a2.71,2.71,0,0,0,.94-1.9c0-.73-.87-1.4-1.5-1-1.45.84-3.47-.29-3.92-1.91a4.7,4.7,0,0,1,1.58-4.51,13.84,13.84,0,0,1,4.37-2.42l.39-1.33c-2.62-.89-5.25,1.3-6.85,3.56s-3.07,5-5.72,5.78a103.09,103.09,0,0,0-12.83,4.93c-2.34,1.09-4.8,2.41-5.95,4.72s-.12,5.81,2.43,6.19l.93-1.69-1.87-1.82m-18.32-53.1,6.26-5.68c2.75-2.49,5.66-5.28,6.23-9a6.34,6.34,0,0,1,.47-2.07,4.68,4.68,0,0,1,1.3-1.35,95.93,95.93,0,0,0,20.5-22.63l-7,5.32c-3.77,2.85-7.54,5.71-11,8.92a74,74,0,0,0-17,23.28c-.5,1.07-.81,2.65.25,3.17M313,248.52c2.74.58,6.46-1,6.1-3.76a37.35,37.35,0,0,1,2.28-18.49c-3.09-1-6,2.28-6.71,5.46s-.38,6.66-2,9.51c-1.14,2.06-3.22,4.57-1.66,6.33a3.51,3.51,0,0,0,1.94,1m-44.59,15.73,2.23,1a14.19,14.19,0,0,1-.83,4.61c2.08.14,2.81-2.65,3.09-4.72a22.7,22.7,0,0,1,4-10.25,3.33,3.33,0,0,0,.86-1.87c0-.7-.8-1.39-1.39-1-1,.61-2.25.18-3.39,0s-2.67.06-2.89,1.19a28.78,28.78,0,0,1-5.93,12.54c-1.51,1.84-3.37,3.83-3.13,6.2a9.06,9.06,0,0,1,6.84-4.68l.54-2.91m181.79,25.49c1.63.62,3.41-.21,5.11-.58,3.18-.69,6.45.26,9.66.78s6.86.5,9.28-1.68q-19.54-2-39.15-3c-1.05-.06-2.6.64-2,1.53a46.44,46.44,0,0,1,17.13,3M366.83,85.54a2.45,2.45,0,0,0-4.51,1.73,1.07,1.07,0,1,1-.1-2.12,3.74,3.74,0,0,0-2.17-1.6c-.91-.16-2,.54-1.88,1.46a68,68,0,0,1-.09,16.31c.16.4.75.06,1-.31l6.71-10.51c1-1.5,1.94-3.42,1-5M279.46,244.16l-2.3,4.28c1.86,1,4.35-.47,5-2.5s-.09-4.25-1.1-6.12a21.19,21.19,0,0,0-6.38-7.23,3.16,3.16,0,0,0-1.93-.76c-1.51.09-2.15,2.22-1.41,3.54s2.25,2,3.65,2.56,2.91,1.24,3.64,2.57a1.87,1.87,0,0,1-2.46.2,3.39,3.39,0,0,0,3.3,3.47m126-11.06a11.49,11.49,0,0,0-5.93,5.14,2.39,2.39,0,0,1,2.91,1.67,11.52,11.52,0,0,1-4.43,2.37l.08,2.72a16.65,16.65,0,0,1,13.85,2c1-1.53-1.19-3.19-3-3.42s-4.1-.4-4.66-2.12c-.27-.83,0-1.78-.35-2.57-.77-1.67.6-3.54,2.07-4.64s3.25-2.12,3.73-3.9A5.81,5.81,0,0,0,403,232l2.47,1.08m-143.5,56a5.71,5.71,0,0,1-3.26.2,2,2,0,0,1-1.3-2.6c-.61,1.23-2.41,1.2-3.68.66s-2.51-1.41-3.88-1.23c-2,.25-3.73,2.6-5.45,1.63-.84.3-.79,1.63-.11,2.2a3.85,3.85,0,0,0,2.54.59l11.68-.06.69,2.36a7,7,0,0,0,2.77-3.75m-12.42-26c.67-.75,1.52-1.31,2.26-2a9.46,9.46,0,0,0,2.94-7.79c-2.08.23-1.61,3.48-2.74,5.25-1.35,2.1-5.23,2.16-5.54,4.64a42.08,42.08,0,0,1-4.19,13.7c-.66,1.29-.82,3.57.63,3.51l4.6-13.24a11.7,11.7,0,0,1,2-4.07m89.1-65.57c.83.71,2.47.92,2.71-.14.85.24,1,1.46.56,2.21a4.75,4.75,0,0,1-2.13,1.5,30.45,30.45,0,0,0-9.83,7.4q10-5.41,19.43-11.69a15,15,0,0,0-10.75.72m-83,79.48c.48.88,1.52-.58,2.46-.93.73-.27,1.49.27,2.08.78l9.6,8.28a1.63,1.63,0,0,0,1-2.16,4.71,4.71,0,0,0-1.78-2l-9.47-7.3a4.59,4.59,0,0,0-3.93,3.35m156.43,3.37a4.46,4.46,0,0,0-2.93.75,3.89,3.89,0,0,0-1,1.71,13.68,13.68,0,0,0-.26,8.15,5.7,5.7,0,0,0,1.82-5.63c-.51-2,2.24-3.27,4.33-3.22s4.68.27,5.75-1.54q-3.83-.26-7.68-.22m-55-141.14a10.15,10.15,0,0,0,4.61-1c1.38-.79,2.36-2.51,1.79-4-.93-2.41-4.42-2-6.86-1.16l-3.9,1.35a14.31,14.31,0,0,0,7.31.36,3.77,3.77,0,0,1,2-.1c.65.23,1.1,1.12.64,1.63a6.11,6.11,0,0,0-5.63,2.89m-77.16,95.1a78.09,78.09,0,0,0-4.06-11.68c-.62-1.4-1.46-2.94-3-3.29a14,14,0,0,1,1.61,8.86l5.4,6.11m60.72,21.85a25.34,25.34,0,0,1,2.44-10.23,11.89,11.89,0,0,0-5.68,10.6,2.43,2.43,0,0,0,3.24-.37M310,136c.19-3.8,2.79-7,5.26-9.9-.33-1.05-1.92-.72-2.8,0a11.27,11.27,0,0,0-4.2,10.23L310,136m77.6,118.14c2.24.65,3.45-2.52,5.25-4a4.27,4.27,0,0,1,3.78-.81c.48-1.07-.7-2.29-1.87-2.32a5.46,5.46,0,0,0-3.17,1.36c-2,1.43-4.23,3.34-4,5.78m-86.06,39.36a2.09,2.09,0,0,0,1.2,2.72,6.06,6.06,0,0,0,3.3.15l6.57-.92c.64-.59-.56-1.4-1.43-1.44l-9.64-.51m82.31-36.43-2.27-1.56a3.55,3.55,0,0,0,.18,5.45,5.14,5.14,0,0,0,6-2,5.2,5.2,0,0,1-4-1.79m-74.2,15.29-1.83,1.83,7-.24c1.12,0,2.7-.74,2.21-1.75-2.25.89-4.76,0-7-.82l-5-1.87a2.44,2.44,0,0,0-.41,1.77,9.49,9.49,0,0,0,5,1.08m28.9-28.14a2,2,0,0,1,1.67-.5c.57-.48,0-1.51-.68-1.66a3,3,0,0,0-2.08.64l-6.7,4.07,4.12.28a5.2,5.2,0,0,0,2.88-.36,1.79,1.79,0,0,0,.79-2.48m-71.69-50.4-2.92,2.22c1.93.42,4,.83,5.84.08s3.1-3.16,2-4.77a6.21,6.21,0,0,1-4.79,2.51M434,232.74a10.08,10.08,0,0,0-2,3.5,3.43,3.43,0,0,0,1.09,3.65,2.55,2.55,0,0,0,2.35.27L434,232.74m14.2,6a52.1,52.1,0,0,1-6.59,8.48,7.55,7.55,0,0,0,6.59-8.48M238.4,293.06a4.86,4.86,0,0,1-.72,3.14c1,.72,2.07-.81,2.37-2s1.43-2.71,2.4-1.94l.33-1.66a5.62,5.62,0,0,0-3.45-.19c-1.09.42-1.83,1.91-1.08,2.81M264.34,227a7.45,7.45,0,0,0-4.91-5,7.81,7.81,0,0,0,1.06,4.26c.87,1.2,2.8,1.75,3.85.7m216.27-70.36-3.4.27a8.64,8.64,0,0,0,7.06,2.85c1-.32.27-2-.76-2.23s-2.29-.05-3-.83m16.2,130.11c2.17-.31,2.42-3.33,2.08-5.5a1.67,1.67,0,0,0-1.67-.25,4.25,4.25,0,0,1-3.2,5,1.71,1.71,0,0,0,2.81.56m-54.28-64.36a4.66,4.66,0,0,0-3.66.21,2.23,2.23,0,0,0,2.64.74A2.51,2.51,0,0,0,441,226a5,5,0,0,1,5-2.58,2,2,0,0,0,.27-1.54,5,5,0,0,0-3.7,0m-54.45-69.31a4.82,4.82,0,0,1-.68,3.08c.83.77,2.07-.51,2.2-1.63s0-2.52.94-3.13,2.58-.42,2.54-1.47a5.24,5.24,0,0,0-5.59,2.93m106.58-44.1c.4-.62-.66-1.33-1.3-1a2.53,2.53,0,0,0-.9,1.94l-.39,2.74c1.53.23,3.38.34,4.33-.89L494,109.87a1.81,1.81,0,0,1,.22-1.52m-131.55,4L366.1,121a7,7,0,0,0-3.47-8.65M390.92,270.5l-2.54,3.06c-.7.58,0,1.87,1,1.85a2.43,2.43,0,0,0,2-1.68,16.76,16.76,0,0,1,1-2.54l-1.34-.81m-77.07,19.84a13.66,13.66,0,0,0-6.46.75,14.66,14.66,0,0,0,7.29.8c.45,0,.65-.66.39-1a1.7,1.7,0,0,0-1.21-.53M457.71,205.1a7,7,0,0,0-5.5,2.62,6.14,6.14,0,0,0,6.33-2.18l-.73-.81M336.49,104.59l-2.85-1.26a4.73,4.73,0,0,0,6.23,3.48l-3.4-2.16m155.89,11.16-3.94.11a3.79,3.79,0,0,0,6,.76,2,2,0,0,0-2.1-.85M438,216.43c-.45-.74-1.73.15-1.51,1s1.16,1.24,2,1.46a16.9,16.9,0,0,0,4.27.55l-4.52-3.15m-121-57.18a2.42,2.42,0,0,0-2.21,1.67,7.56,7.56,0,0,0,6.29-1.61,3.28,3.28,0,0,0-4.11-.09m-57.05,46.08,4.42,4.23a2.27,2.27,0,0,0-.47-3.05,6.59,6.59,0,0,0-3.16-1.23m-16.13,80.49a3.2,3.2,0,0,0,3.5-3.05,2.79,2.79,0,0,0-3.72,2.84M335,185.8a1.4,1.4,0,0,0,1.77-.92,3.06,3.06,0,0,0-3.27-.86,1.88,1.88,0,0,0-.67,2.94l2.11-.9m61.28,90.37L393.62,278c1.1,1.81,4.58.5,4.22-1.58a1.18,1.18,0,0,0-1.71,0m-31.32-171a4.78,4.78,0,0,0,2-5.69,7.16,7.16,0,0,0-2.19,5.31M307,267.13a4,4,0,0,0,6,.1,9.51,9.51,0,0,0-5.86-.14m19.8-25.52c.34.17.57-.49.26-.72a1.13,1.13,0,0,0-1.09.06,4.76,4.76,0,0,0-1.24,5.51l2-4.72m-3.56-6.44c1.59-1.23,1.27-3.67.8-5.63a5.53,5.53,0,0,0-1.22,5.37M368,113.92c0,.49.84.5,1,.05a1.39,1.39,0,0,0-.41-1.32,7,7,0,0,0-2.46-1.88,2.23,2.23,0,0,0,1.89,3.07m128.32,3.51a1.91,1.91,0,0,0,1,1.51,7,7,0,0,0,.57-5.21,5.25,5.25,0,0,0-1.37,3.68m-42.81,117.6a2.55,2.55,0,0,0-1.3,1.77,2,2,0,0,0,3.16-1.83,1.59,1.59,0,0,0-1.92,0m-65.88,43a1.83,1.83,0,0,0-1.52,2.27,3.25,3.25,0,0,0,2.14.24,1.67,1.67,0,0,0-.56-2.57M317,153.11c-1.43.13-1.39,2.24-.91,3.6a2.06,2.06,0,0,0,.91-3.46m-21.7,55.05c.32-.55-.78-1.13-1-.55a5.93,5.93,0,0,0-.61,3.42,2,2,0,0,0,1.58-2.8m64.3,44.18.2-1.56-2.19-.94a1.65,1.65,0,0,0,1.83,2.4m-6.25-138.2c-.08.32.49.43.67.16a1,1,0,0,0-.06-.93,8.7,8.7,0,0,0-2.53-3.27,8.07,8.07,0,0,0,1.75,4m2.53-18.45a1.9,1.9,0,0,0-1.74-2.88,2.6,2.6,0,0,0,1.58,2.94m-57.1,140a.87.87,0,0,0,1.45.34c.35-1.34-1.46-2.79-2.5-1.87a1.75,1.75,0,0,0,1,1.5m108.41,34.41c.12,1.51,2.94,1.46,3-.05a2.05,2.05,0,0,0-2.84.09m-74,20.89a1.43,1.43,0,1,0,2.82.08,2.33,2.33,0,0,0-2.43,0M269.3,208.29a1.87,1.87,0,0,0-.29-1.6l-2.05.94a2.65,2.65,0,0,0,1.14,1.38c.56.24,1.39-.14,1.32-.74m3.18,76.08a3.25,3.25,0,0,0,2.28,2.15,3.37,3.37,0,0,0-.52-2.24c-.51-.6-1.68-.62-1.93.12m153.71-56.07A4,4,0,0,0,424,230a2.84,2.84,0,0,0,2.42.1c.71-.45.52-1.89-.31-1.78M294.43,161.05c1.06-.57-.24-2.56-1.18-1.82a1.31,1.31,0,0,0-.38,1.43,1.94,1.94,0,0,0,1.52.29m-16.47-38.77.75-1a2.32,2.32,0,0,0-2.26-1,1.31,1.31,0,0,0,1.27,1.85m174.45,90.31c.52-.37,0-1.39-.6-1.2l-2.18,2.2a2.87,2.87,0,0,0,2.77-1M345.52,100a4.07,4.07,0,0,0-1.64-2.12,1.78,1.78,0,0,0,1.7,2.64m15,161.29a2.45,2.45,0,0,0,.6-3.2c-1.21.28-1.06,2-.62,3.2M332.13,263c.68.24,1.69-.18,1.52-.87a3.6,3.6,0,0,0-3.07,0,2.4,2.4,0,0,0,1.55.91m64.34,3.52c.48.13.86-.55.64-1a1.39,1.39,0,0,0-1.27-.62,2.24,2.24,0,0,0-.91,1.51,2,2,0,0,0,1.54.28M296.26,177.05c-.83-.32-1.09,1.14-.67,1.92a2,2,0,0,0,1.46-.81c.27-.51-.29-1.31-.78-1m64.3-35.33c.94-.07,1.88-1.2,1.24-1.89a2.48,2.48,0,0,0-1.6.73c-.36.48-.14,1.37.46,1.38M316.06,187.6c.25-.48-.31-1-.85-1a2.34,2.34,0,0,0-1.37.78,1.15,1.15,0,0,0,2.13.16M242,288.46c.21-1-1.74-1.43-2-.41s1.74,1.43,2,.41M421.6,227.6l-.76,1.06a2.37,2.37,0,0,0,1.58.94,1.06,1.06,0,0,0-.58-1.82M324.09,265.5a1.16,1.16,0,1,0,1.55,1.58l-1.56-1.55m31-94.7a.83.83,0,0,0,1.35.42,3.21,3.21,0,0,0-2.07-2.28,3.36,3.36,0,0,0,.64,1.89m-64.94,39c.27,1,2.08-.11,1.36-.81-.37-.89-2,.09-1.44.85m43.93,46.38c-.27-1-2.08.11-1.36.81.37.89,2-.09,1.44-.85m109.71-16.28c.83.51,1.8-1.09,1-1.59-.8-.21-1.56,1-.89,1.53M294.08,204a3.69,3.69,0,0,0,3.11,0,1.79,1.79,0,0,0-2.9.14m203.15,69.66,1.43-1a1.9,1.9,0,0,0-1.54-1,1.64,1.64,0,0,0-.07,1.91m-172-2c.58.13.7-.95.16-1.19a1.86,1.86,0,0,0-1.66.38,2.25,2.25,0,0,0,1.52.91m57.57,3.19a.89.89,0,0,0-.06,1.63c.91-.07.94-1.73,0-1.83m-47-64.31c.91.23,2.32,0,2.17-.89a1.91,1.91,0,0,0-2.3.93m66.61,61a2.27,2.27,0,1,0-.19.21m90.4-169.12c-.36.31.36.87.71.56a1.18,1.18,0,0,0,.1-1.33,2.17,2.17,0,0,1-.29-1.36,2.42,2.42,0,0,0-.33,2.14m-45.6,187.87c-.4-.35-1,.43-.66.86a1.35,1.35,0,0,0,1.48.25,1,1,0,0,0-.77-1.11m-119,2.17a3.09,3.09,0,0,0,1.82-1.37,1.31,1.31,0,0,0-1.83,1.29m34.71-183.79a1.27,1.27,0,0,0,1.78.68c.32-.82-1.13-1.1-1.91-.7M350.37,294.46c.89-.2.73-1.52.35-2.35a1.46,1.46,0,0,0-.28,2.13m-24.52-20c-.28-.37-.87.26-.64.65s.78.45,1.24.46c.54-.3,0-1.34-.56-1.07Z"/><path d="M428.95,37.24l-4,1.2a30.11,30.11,0,0,0-2.13-8.55L411,28.68c-2.65-.27-6.16-1.63-5.62-4.23a90.75,90.75,0,0,1-13.73-2.93,3,3,0,0,1-4.81-.38,4.53,4.53,0,0,1-2.13,2.49l-5.12-5c-.94,1.6-2.07,3.34-3.88,3.76s-4-1.66-2.9-3.17c.25,1.58,3.21-.24,1.91-1.18a4.16,4.16,0,1,0-8.28.47l4.46-3.59a10.68,10.68,0,0,1-1.15,6.75,6.08,6.08,0,0,0-6.16.75,3.86,3.86,0,0,1,1.1-2.94,12.57,12.57,0,0,1-5.62-3.94,3.64,3.64,0,0,0-.76,4.14A10.72,10.72,0,0,1,351.58,17c2.13.38,5.49-1.21,4-2.77-2.82,2-6.63.38-10-.16s-8.11,1.92-6.76,5.1l-3.35-4.06a4.94,4.94,0,0,0,4.3-2.16c-3.8,1-8,1.89-11.52.24S322.8,6,325.88,3.62a2.53,2.53,0,0,0-3.42-.56c-1,.19-1.48-1.41-.8-2.15a3.7,3.7,0,0,1,2.82-.8H499.18A304.6,304.6,0,0,1,499,35.4l-4.77-3.12a8.72,8.72,0,0,0,1.62,4.89L481.65,40,484,36.81a5.68,5.68,0,0,0-5.61,2.89,4.27,4.27,0,0,1,.67,7,37.19,37.19,0,0,1-3.46-9.53A42.17,42.17,0,0,1,462.23,40l-9.47-5.58,3.84-2a4,4,0,0,0,4.07,3.31,9.35,9.35,0,0,1-1-6.09,27.71,27.71,0,0,1-14.4-.59,9.55,9.55,0,0,1,6.86,6.65c.46,1.7,2.62,2.09,4.26,2.76s3,3.15,1.38,4l-11.25-8.58c-2.06-1.57-4.4-3.22-7-2.93-3.4.39-5.42,3.89-6.89,7l-4.17-4.45c-1.95.33-1.47,4,.5,3.82m41.54-2.32a13.11,13.11,0,0,0,4.79,1.51,4.46,4.46,0,0,0,4.26-2.15,2,2,0,0,1,2.48-.76,5.87,5.87,0,0,1,2.2,1.75,2.71,2.71,0,0,0-.93-3.45c-1.37-.85-3.18-.27-4.58.53s-2.79,1.84-4.4,1.88-3.35-1.59-2.64-3a4.14,4.14,0,0,0-1.16,3.73M328.44,3c-.12,1.86-1.18,3.58-1.22,5.45s1.93,3.95,3.49,2.92a2.64,2.64,0,0,1,3.54.75c1.31-.8.44-3.09-1.06-3.47s-3,.44-4.32,1.23a7.59,7.59,0,0,1,2.76-5.55L328.44,3M491,32.83a6.32,6.32,0,0,0,1.62-.71c.54-.35,1-1.09.61-1.58a17,17,0,0,0-8.41,2.53,12.29,12.29,0,0,0,6.17-.23m-22.79-9.22a4.69,4.69,0,0,0-3.35,1A3.86,3.86,0,0,0,470,25l-1.74-1.43m-91.37-6.92a3.41,3.41,0,0,1,3.21-1.92,2.43,2.43,0,0,0-4.15.52l.71,2.78c.57.31,1.07-.77.57-1.19m105.58,9.54a3.51,3.51,0,0,0-3.77-3.44l2.82,3.66a1.39,1.39,0,0,0,.93.67c.39,0,.73-.56.4-.78M419.4,24.85a9.84,9.84,0,0,0,1.26,3.72A2.88,2.88,0,0,1,423,25.75a2.36,2.36,0,0,0-3.42-.66m70.65.08-1.27,1.33a3.41,3.41,0,0,0,4.31-2.64,2.2,2.2,0,0,0-2.88,1.37m7.32,1.83,1.11-2.18A5.38,5.38,0,0,0,495.25,29a2.14,2.14,0,0,0,2.38-2M387.17,13.67l-2.2,1c-.09.81.81,1.44,1.62,1.4a4.26,4.26,0,0,0,2.18-1l-1.55-1.35m25.34,8.71-1.3-1.26a3,3,0,0,0,1.86,3.73,1.67,1.67,0,0,0-.51-2.58m61.22,2.58,2.48,2a2.88,2.88,0,0,0-.65-2.92c-.82-.66-2.42,0-2.17,1M428,32.26a1.52,1.52,0,0,0,0-1.91l-2.84.3a2,2,0,0,0,2.77,1.5M411.32,26.1l-2.49-2.49c-.73.9.15,2.19,1,3,.36.36.81.74,1.31.65s.64-1,.14-1m-27.49-9.08a2.2,2.2,0,0,0-2.19-.95,1.73,1.73,0,0,0,2,2.44l.34-1.48M370.76,5.38a3.26,3.26,0,0,0-2-2.82c0,1.47.86,3.6,2.15,2.89m95.81,32.22,1.69.25a2.16,2.16,0,0,0-2-2.35,1.3,1.3,0,0,0,.37,2M364.3,15a3.68,3.68,0,0,0-2.2.23,2.52,2.52,0,0,0,2.79.93c.54-.33,0-1.37-.58-1.12M468.26,29.29a1.25,1.25,0,0,0-.62,1.82l2.15-1c.33-.66-.8-1-1.54-.91m-50.79-3.84c.61-.19,0-1.26-.58-1.09s-.86.91-.95,1.54l1.58-.31m30.32-2.42c-.58-.13-.7.95-.16,1.19a1.86,1.86,0,0,0,1.66-.38,2.24,2.24,0,0,0-1.52-.91m-11.13,7.37-2.14.16a2.18,2.18,0,0,0,1.29.9c.54.06,1.11-.56.81-1Z"/><path d="M284.86,80.8a11.29,11.29,0,0,0-13.83-6c3.89-1.16,6-5.31,7.5-9.07q4.68-11.36,8.53-23c3.73-.47,3.86-5.71,4-9.47a20,20,0,0,1,6-13.47,82.19,82.19,0,0,1-10.82,34.35c7.32-5.89,9.37-16,10.93-25.28l5.59,1.49-2.6-5.08a24.13,24.13,0,0,0,18,6.19,3.53,3.53,0,0,1-2.9,3c-2.08,3.87,4.72,6.84,5.55,11.15.29,1.53-.22,3.1-.12,4.65s1.31,3.3,2.83,3l.4-4.68a10.46,10.46,0,0,1,3.89,6c2.79,9.75-2.47,21.15-11.69,25.36,5.36-.91,11.69-2.65,13.3-7.84l3.7-12a6.16,6.16,0,0,1,2-3.48c1.13-.77,3.08-.37,3.29,1a5.86,5.86,0,0,0,0,8.78l-4.17.26L339.82,71l-3.55.68c3.1,2.89,7.74,3.62,11.92,2.91s8-2.68,11.79-4.62a4.79,4.79,0,0,1,1.67,5.66c-2.89-2.55-8.3-.78-9.12,3l4.85-.71c.69,2.11-2.24,3.72-4.41,3.25s-4.07-2-6.28-2.11a98.5,98.5,0,0,0-33.61,3.79c-5.28,1.55-10.92,1-16.39.43l-8.68-.9c-1.22-.13-2.67-.41-3.15-1.54m31.77-14.5a6.93,6.93,0,0,1-3.27,3.92l.51-4.1c-1.54-1.24-4,.85-3.65,2.8s2.15,3.27,3.95,4.1a17.34,17.34,0,0,0,6.34-10.53,2.84,2.84,0,0,0-1.61,3.77l-2.27,0m-19.09-3.16a5.66,5.66,0,0,0,3.36,5.51c.94.39.57,1.82-.06,2.62s-1.39,1.89-.79,2.71l8.28-6.16a6.07,6.07,0,0,1-2.7-3.67,3.27,3.27,0,0,1,2.75.09,3.65,3.65,0,0,1,.87-4.83l5.14,4.28c.79-2.54-1.52-5.14-4.08-5.86s-5.27-.17-7.92,0-5.63-.24-7.33-2.27a40.06,40.06,0,0,1,29.84,6l-1.82-4.81-2.11.33a16.57,16.57,0,0,1-1.88-8.4,11.54,11.54,0,0,0-4.23-9.35A13.6,13.6,0,0,1,312,36.83c-.73-1-.86-2.68.14-3.46a4.07,4.07,0,0,0-5,6.19c1.16,1.41,3.08,1.88,4.75,2.6s3.4,2.16,3.21,4L310.48,44a22.48,22.48,0,0,0-2.71,4.82l2.75-.4c.53,1-.72,1.92-1.75,2.29a51.6,51.6,0,0,1-17.91,3.09c-2.62,0-4.4,2.57-5.58,4.91a78.19,78.19,0,0,0-4.54,11.09,2,2,0,0,0-2,2.22c3.4-1.07,6.48,2.15,8.8,4.86s6.22,5.39,9.11,3.31a5.71,5.71,0,0,1,.19-8.17L295,70.42a10.15,10.15,0,0,1,2.53-7.28m7.86,11.43c-1-.64-1.67,1.48-.65,2s2.23-.14,3.18-.77,2.19-1.27,3.19-.69l.34-1.68a4.72,4.72,0,0,0-5.81,1m-3.37-35.64a5.14,5.14,0,0,0,2.56,5.51,4.48,4.48,0,0,0-2.53-5.85m1.25,39-1.1-.71L299,79a3,3,0,0,0,4.44-1.19m6.89,1-1-.72a1.39,1.39,0,0,0-.11,2.46,2.23,2.23,0,0,0,.91-1.52m2.78.93c.82.31,1.11-1.12.68-1.87-.83-.3-1.13,1.13-.72,1.91m-18-29.72c.15.89,1.86.56,1.67-.32a1,1,0,0,0-1.52.33Z"/><path d="M493.3,40.47a4.68,4.68,0,0,1,2.57.39,4.19,4.19,0,0,1,1.45,1.77,20.31,20.31,0,0,1,2.1,12.22c-1.32.47-2.66-.53-3.83-1.29s-3-1.24-3.8-.11a6.07,6.07,0,0,1,4,7,1.94,1.94,0,0,1-1.49.3l-.92-2.23a24.42,24.42,0,0,0-5.08,16.13c.1,1.92.08,4.43-1.75,5Q485.4,73,484.15,66.45a3.6,3.6,0,0,1-1.73,1.15c-.69.13-1.54-.33-1.53-1,1.45,0,2.54-1.4,2.88-2.81a40.64,40.64,0,0,0,.35-4.32,8.77,8.77,0,0,1,5.48-6.92c-.94-1.44-3,.93-4.72.71-1.5-.2-1.86-2.19-1.82-3.71A3.68,3.68,0,0,1,481.37,51c-.73.23-1.72-.23-1.7-1,1.9.51,3.27-1.85,3.53-3.8s.43-4.33,2.21-5.18a5.08,5.08,0,0,1,2-.36Z"/><path d="M162.21,74.19c1.4-1.16,1.16-3.52,0-4.9a10.36,10.36,0,0,0-4.71-2.62c-1.78-.61-4-1.1-5.29.31a12.7,12.7,0,0,0-3.09-8.37,3.3,3.3,0,0,1-3.69,2,3.77,3.77,0,0,1,7.25-.88,5.17,5.17,0,0,0,9.47.37c1.21-2.51,4.86-2.1,7.54-1.31A41,41,0,0,1,164,61.91l18.9,3.33c1.16.2,2.67,1,2.26,2.07a17.24,17.24,0,0,1-11-2,2.56,2.56,0,0,0-3.21.7,2.52,2.52,0,0,1,1.32,2.53,1.63,1.63,0,0,1-2.07-1.47c-4.55,2-5.23,8-5.23,13l-9.25-2.84c-1.24-.38-3-.5-3.4.73-1.67-1.86-3.44-4.49-2.17-6.65a4.93,4.93,0,0,1,2.52-1.87,8.63,8.63,0,0,1,6.33-.32A5,5,0,0,1,162.21,74.19Z"/><path d="M250.65,37.44c-.52-9.65,7-19.07,16.54-20.69,3-.51,6.13-.33,9.16-.8,3.55-.56,6.92-2,10.49-2.42a32.9,32.9,0,0,1,10.83,1.12A205.32,205.32,0,0,1,338.18,28.4c13.08,6,26.66,14.88,30.15,28.85a68.8,68.8,0,0,0-21.42-22c-10.87-7-23.45-10.77-35.85-14.46-6.79-2-13.66-4.05-20.74-4.43-7.36-.39-14.69,1-21.93,2.45-5.21,1-11.19,2.63-13.29,7.5C253.47,30.13,254.3,35.54,250.65,37.44Z"/><path d="M257.21,71c1.15-.37,1.27-2,.68-3.09s-1.61-1.82-2.16-2.9a4.6,4.6,0,0,1,.81-5,6.57,6.57,0,0,1,4.84-2,2.14,2.14,0,0,0-1.68-2.28,6.24,6.24,0,0,0-3.09.22c-.15-.81,1-1.18,1.78-1.21l11.06-.42a4.66,4.66,0,0,1,3,.57c1.39,1,1.19,3.14.85,4.84-.65,3.23-1.88,7.08-5.1,7.78-1.72.38-3.6-.32-5.25.3s-2.6,2.51-3.93,3.79-4,1.65-4.62-.09l2.81-.51m9.06-10a2.4,2.4,0,0,0-.16-1.13c-.62-1.33-2.67-1-3.82-.1a6.78,6.78,0,0,0-2.2,7A6.27,6.27,0,0,0,266.26,61.07Z"/><path d="M233.75,102.2a5.38,5.38,0,0,1,.31,2.84l1.24.13a5.33,5.33,0,0,0,2.05-3.84,3.58,3.58,0,0,0-2.3-3.5c1.65-1.06,4,.08,4.89,1.82s.79,3.81.64,5.76L239.82,116c-.32,4.35-4,7.92-4.21,12.28a11.9,11.9,0,0,1-2.16-6.92,2.09,2.09,0,1,0-4.18,0c-.41-1-1.83-1.36-2-2.41s1-1.92,2.15-2,2.26.24,3.31-.13,1.7-2,.76-2.55c-1.52-.94-.88-3.22-.38-4.94s-.2-4.37-1.94-4a2.56,2.56,0,0,1,2.65-3.18M237,116.1a4.26,4.26,0,0,0-2.42-4,14.3,14.3,0,0,1,.72,8.18,2.81,2.81,0,0,0,1.75-4.08Z"/><path d="M330.1,93.12l-9.49,3.54a8.57,8.57,0,0,0,2.85-2.55,2.93,2.93,0,0,0-.22-3.56,3.32,3.32,0,0,0,1.82-2.93l-3.24.17A6.11,6.11,0,0,1,325,86.22l18.88-5.07c.68.65-.28,1.68-1.11,2.11L329.68,90c1.6,1.61,4.32,1,6.34-.08s4.17-2.4,6.37-1.85c-.87,1.59-2.87,2.07-4.51,2.84-2.88,1.35-5,3.92-7.36,6s-5.56,3.86-8.64,3l7.49-4.67C330.17,94.8,331,93.51,330.1,93.12Z"/><path d="M499.55,297.65l-27.09.08c-.27-2.51,1.78-4.81,4.16-5.66s5-.6,7.5-.28q7.62,1,15.15,2.52Z"/><path d="M440.72,73.42c-.61,2.77.86,5.87-.4,8.41s-4.3,3.16-7,3.59Q432.47,78,432,70.5a85.93,85.93,0,0,0-20.13,3.42c-.9-.67.42-1.92,1.5-2.2a117.37,117.37,0,0,1,13.14-2.63c6.16-.87,13-1.1,18,2.58l-3.81,1.76m-3,8.23a1.41,1.41,0,0,0,1.22-.16,1.6,1.6,0,0,0,.4-1.12,11,11,0,0,0-.47-5.56c-.79-1.71-2.86-3-4.58-2.22C432,75.68,434,80.84,437.71,81.65Z"/><path d="M90.34,279.45c-1,1.29.23,3.12,1.46,4.22s2.61,2.77,1.76,4.19A31.12,31.12,0,0,1,81.72,287a6.69,6.69,0,0,1-1.32-3.56c0-1.29,1.18-2.61,2.44-2.35.55.12,1,.5,1.56.6s1.26-.36,1.06-.89c-1.14-.85-1.55-2.33-2.26-3.56s-2.19-2.34-3.46-1.7A6.32,6.32,0,0,1,88.67,277c.5.8,1.06,1.87,2,1.78a3.32,3.32,0,0,1,2.95,4.82,6.84,6.84,0,0,0-3.28-4.2m-3.56,5.67c.87.49,1.76-1.22.87-1.65L86.72,285Z"/><path d="M471.93,70.48c-.14-1.27-.58-2.86-1.85-3a14.23,14.23,0,0,1-.34-6.36c.53-2.08,2.33-4,4.47-3.9,2.51.11,4.2,3,3.83,5.47-.41,2.71-2.54,4.87-3.13,7.55-.78,3.52,1,8-1.86,10.29l-1.12-10m.34-9.36a1,1,0,0,0-.35,1.52c.91,0,1.2-1.72.29-1.68Z"/><path d="M203.19,25.95c-2.7-1.78-5.61-3.84-6.37-7a4.3,4.3,0,0,0,3.69-3.09c-1.15-4.11-9.07-1.7-10.69-5.65,3.35-1.6,7.41,3.66,10.53,1.64.74-.48,2.18-.94,2.06-.07-.57-.45-1.46.23-1.47,1a3,3,0,0,0,1,1.88l5.78,6.51a3.33,3.33,0,0,0-1.31,3.57,9.75,9.75,0,0,0,1.88,3.57,4.17,4.17,0,0,1-3-1l-2.06-1.36m-1-2.33h2.48l.72-1.5a3.06,3.06,0,0,0-4.73-1.93,3.09,3.09,0,0,0,1.58,3.35Z"/><path d="M259,185.85a16.07,16.07,0,0,1-9.55,3.72c-3.66.16-6.63,3.08-8.56,6.2-1.15,1.86-3,4.21-5,3.33,3.22-5.36,7.48-11.35,13.73-11.54,2.9-.09,6-.55,8.13-2.55a13.82,13.82,0,0,0,2.22-3l6.16-10.28C265.24,177,263.12,182.38,259,185.85Z"/><path d="M464.11,83.27a40.5,40.5,0,0,0-.89-5.84c-1.2-4.74-4.14-9.34-3.21-14.14a4.06,4.06,0,0,1,1.78-2.91,2,2,0,0,1,2.84,1.05,52,52,0,0,1-.52,21.84m-1.74-14.11a1,1,0,0,0-.35,1.52c.91,0,1.2-1.72.29-1.68Z"/><path d="M255.47,75.5l.33,2.33a15.76,15.76,0,0,1-14.7-1.36c-1.88-1.26-5.33,1.4-6.32-.64-2-4.17-5.86-7.11-9.57-9.88a14.42,14.42,0,0,1,9.7,6.66,1.8,1.8,0,0,0,1.16.65l8.22,2.14C248,76.37,252.11,77.29,255.47,75.5Z"/><path d="M379,143.65a30.38,30.38,0,0,1,1.87-12.45,2.65,2.65,0,0,1,.65-1.12c1-.9,2.66.17,3.23,1.41,1.1,2.38.43,5.15.18,7.76s.23,5.75,2.57,6.93c-1.78,1.3-4.15-.92-4.62-3.07s-.23-4.64-1.7-6.28A11.77,11.77,0,0,1,379,143.65Z"/><path d="M225.95,295.29a1.74,1.74,0,0,0-1.14,2.08,2.29,2.29,0,1,1-1.21-4.15l-.27-1.81c-2.54.47-3.6,3.45-4.19,6a1.33,1.33,0,0,1-1.91-.11c1.5-.95.52-3.32,1.12-5,.71-2,3.33-2.36,5.43-2.26s4.63.15,5.83-1.58l-2.7,9.38A2.17,2.17,0,0,1,225.95,295.29Z"/><path d="M369.54,148.74l-.84-3.16c-.51-1.9-.87-4.29.66-5.53a4.65,4.65,0,0,0,2.2,1.72,8.3,8.3,0,0,0-3.58-11l-.31-1c1.46-.63,3.24-1.24,4.53-.31a4.14,4.14,0,0,1,1.35,2.39A18.53,18.53,0,0,1,369.54,148.74Z"/><path d="M446,88a31.26,31.26,0,0,1-5.92-.21A30.11,30.11,0,0,0,453,79.43c2-.57,3.7,1.93,3.19,3.9s-2.34,3.29-4.14,4.25-3.76,1.82-5,3.47A5.17,5.17,0,0,1,446,88m1.22.13L455.71,83a3.33,3.33,0,0,0-2.23-1.75A19.85,19.85,0,0,0,447.24,88.08Z"/><path d="M248.89,97.6c-1.27-1-3-.35-4.58.07s-3.63.31-4.13-1.2a30.91,30.91,0,0,1,11.26-1.18,6.23,6.23,0,0,0-3.88-4.44,7.48,7.48,0,0,1,5.58,1.83c.79,1.3.16,3-.49,4.34l-3.59,7.64Q248.81,101.13,248.89,97.6Z"/><path d="M210.35,100.11,196.49,98a3,3,0,0,1-2.23-3.05,6.23,6.23,0,0,1,1.67-3.69A14.66,14.66,0,0,1,201.74,87c.17,1.41-1,2.64-2.12,3.45s-2.52,1.48-3.24,2.71-.29,3.23,1.12,3.44l17,2.45C213.75,100.39,211.86,100.34,210.35,100.11Z"/><path d="M246.75,42.22l1.36-1.75c.78-.7,2.11.44,1.84,1.45a2.48,2.48,0,0,1-2.49,1.52c-1,0-2.07-.34-3.11-.37a5.49,5.49,0,0,0-5.44,4.6c-3.17.09-2.3,6.84-5.48,6.91a15.09,15.09,0,0,1,8.09-12.66C243.22,41.07,245.62,40.7,246.75,42.22Z"/><path d="M66.56,33.19c-.78-.85-.09-2.35,1-2.77a5.41,5.41,0,0,1,3.4.21L79.41,33c2.16.62,4.89,2.28,4,4.36l-8.7-4.51a2.73,2.73,0,0,0-.31,1.76Z"/><path d="M216.11,14a32,32,0,0,1-4.71-2.16,4.1,4.1,0,0,1-2,1.78c-.89.24-2-.47-1.85-1.37a7.81,7.81,0,0,1,6.63-.65,9.54,9.54,0,0,0,2.33.77c1.87.17,3.38-1.38,4.8-2.61s3.63-2.21,5.05-1l-10.07,6.85c-1.64,1.12-4.35,2-5.21.21a16,16,0,0,1,4.77-.26A2.18,2.18,0,0,0,216.11,14Z"/><path d="M222.68,115.56a3.55,3.55,0,0,1,.69-4.27c1.88,2.24,1.67,5.5,1.36,8.4-.09.84-1.21,1.85-1.46,1-.14-.48-.93-.38-1.17.05a2.36,2.36,0,0,0-.08,1.46,7.44,7.44,0,0,1-2.66,6.57A28.81,28.81,0,0,1,222.68,115.56Z"/><path d="M456.56,122.4c-2.46-5.1-.34-11.08.15-16.72.15-1.68.14-3.38.14-5.07A37,37,0,0,1,456.56,122.4Z"/><path d="M384.69,112.08l7.78,2.23c.29.58-.76.79-1.4.67a5.44,5.44,0,0,0-6.19,5.18c-1,.35-2-.79-1.9-1.84a3,3,0,0,1,2.06-2.2,2.08,2.08,0,0,0-2.86-1.45,9.54,9.54,0,0,1,.77-6.27A8.57,8.57,0,0,1,384.69,112.08Z"/><path d="M95.47,279.54c3.2.45,6.88,1.24,8.33,4.12a7,7,0,0,0,9.18,2.92c.65.94-.15,2.32-1.24,2.68a5.61,5.61,0,0,1-3.35-.3c-2.92-.88-6.34-2.3-6.83-5.31-.22-1.33-1.93-1.69-3.27-1.86S95.24,280.88,95.47,279.54Z"/><path d="M238.65,263.66a4.89,4.89,0,0,0-4.48.4,9.66,9.66,0,0,0-2.79,3.41,5.92,5.92,0,0,1,8.81-7.15Z"/><path d="M163.18,18.5a1.35,1.35,0,0,1-.79-1.72c3.31.9,6.7-.81,9.87-2.12s7.14-2.18,9.77,0a18.07,18.07,0,0,0-14.89,6.1l.68-3.19A21.48,21.48,0,0,0,163.18,18.5Z"/><path d="M453.88,72.11l-.18-7.51c.78-.32,1.64.45,1.83,1.27a11.69,11.69,0,0,1,0,2.53c0,2.46,1.89,4.44,3.24,6.49s2.13,5.1.31,6.75A14.85,14.85,0,0,0,453.88,72.11Z"/><path d="M231,83.81a3.37,3.37,0,0,1-3.84,2.71c2.06-.42,1.74-3.85-.12-4.81.54-.81,1.8-.55,2.62,0s1.66,1.24,2.62,1.09,1.25-1.92.28-1.92l7.78-.84A9.61,9.61,0,0,1,231,83.81Z"/><path d="M444.42,35.68l3.09,1.85a10.29,10.29,0,0,0-4.93,3.56c-.77,0-.83-1.21-.36-1.82s1.23-1.07,1.34-1.83c.21-1.45-2-1.92-3.34-1.32s-2.8,1.63-4.12,1a.79.79,0,0,1,.15-1.43C439,34.3,442,32.86,445,33.56A2.83,2.83,0,0,0,444.42,35.68Z"/><path d="M237.64,247.94a2.49,2.49,0,0,0,3.17-1.25,2.6,2.6,0,1,1-4.61,2.2,4,4,0,0,1,.73-3.09,8.16,8.16,0,0,1,7.67-3.57l0,2a10.86,10.86,0,0,0-6.38,2.41Z"/><path d="M411.7,43.08a57.36,57.36,0,0,1,1.19-11.71,1.55,1.55,0,0,1,1.44-.27,2,2,0,0,0,3.22.46c-.39,1.11,1.22,1.76,2.4,1.89s2.72,1.09,2.06,2.07l-5.87-1.61a1.6,1.6,0,0,0-.78-.08c-.52.12-.77.7-.94,1.21Z"/><path d="M145.65,18.95c-.69-.92.88-2.23.39-3.27-.36-.77-1.5-.67-2.24-.26-1.45.81-2.37,2.3-3.53,3.49s-2.93,2.14-4.45,1.46l3.87-4a9.94,9.94,0,0,1,3.6-2.74,3.41,3.41,0,0,1,4.05,1.13A10.58,10.58,0,0,0,148,19,2.1,2.1,0,0,1,145.65,18.95Z"/><path d="M238.76,242.65a15.16,15.16,0,0,0-6.88-2.63c-1-1,.8-2.5,2.23-2.54a8.33,8.33,0,0,1,5.84,2.19,2.6,2.6,0,0,1,1.71-2.55,1.88,1.88,0,0,1-2.36,2.94Z"/><path d="M436.44,128.22c-1.27-1.48-1-3.73-.39-5.58s1.55-3.7,1.38-5.64-1.56-4.37-.34-6.07A19,19,0,0,1,436.44,128.22Z"/><path d="M411.9,112.51a67.43,67.43,0,0,1-13.23,7.38l.64-4.82a10.32,10.32,0,0,0,8.85-1.42C409.31,112.84,410.74,111.76,411.9,112.51Z"/><path d="M471.75,41.09c-1.81,2.67-6,1.78-8.91,3.18a5.88,5.88,0,0,0-3.13,3.94c-1,.13-1.76-1.16-1.47-2.16a4.13,4.13,0,0,1,2.09-2.18A20.76,20.76,0,0,1,471.75,41.09Z"/><path d="M409.19,33.3a6.38,6.38,0,0,1-8.35-2.62l1.9-4.72c.9-.08,1.47,1,1.43,1.92a12.24,12.24,0,0,0-.25,2.7c.35,1.91,3.57,2.29,4.34.51A2.34,2.34,0,0,1,409.19,33.3Z"/><path d="M421,120.42c1.94,4.54,3.21,9.81,1.28,14.36-.09.22-.48.16-.55-.07a7.66,7.66,0,0,1-.23-6.67c.6-1.34-.51-2.75-1.25-4S419.57,120.58,421,120.42Z"/><path d="M448.85,113.19a7.24,7.24,0,0,1-2-5.53c-1.63-.24-2.52,1.85-2.68,3.49s-.52,3.74-2.14,4.07l1.51-6.64a4.19,4.19,0,0,1,.78-1.89c1.2-1.37,3.67-.49,4.47,1.14S449.21,111.41,448.85,113.19Z"/><path d="M137.11,281.9a15.69,15.69,0,0,1,8.39,1c2.16.89,4.14,2.27,6.44,2.67-.91,1.08-2.62.82-4,.43A74.83,74.83,0,0,1,137.11,281.9Z"/><path d="M193.79,63.16c2.5,1.25,2.25,5.65-.38,6.61s-5.65-2.24-4.55-4.81a.87.87,0,0,1,1.57.17c-1.24,1.17.91,3.37,2.42,2.57S194.51,64.71,193.79,63.16Z"/><path d="M110.53,76.84,92.41,78c-.92.06-2.06,0-2.49-.82C96.77,76.31,103.76,75.49,110.53,76.84Z"/><path d="M430.3,125.26l-.68,6.92c-1.17-.85-1.2-2.55-1.11-4l.68-11.66C430.83,119,430.6,122.28,430.3,125.26Z"/><path d="M250.78,170a13.36,13.36,0,0,0-5.74,5.63,4.06,4.06,0,0,1-3.18-5,2.81,2.81,0,0,0,5.42-.92A9.31,9.31,0,0,1,250.78,170Z"/><path d="M220.65,100.83a4.46,4.46,0,0,1,3.33-.47,22.09,22.09,0,0,1-1.36,10.6,6.85,6.85,0,0,1-.75-5.84,7.69,7.69,0,0,0,.78-2.83C222.57,101.3,221.49,100.32,220.65,100.83Z"/><path d="M412.49,130.05a29.18,29.18,0,0,1-.31-4.49c0-1.21,1-2.89,1.94-2.17a12,12,0,0,1,1.77,8l-1.68-3.25A7.41,7.41,0,0,0,412.49,130.05Z"/><path d="M203,254.69l-6.75,4.37a13.77,13.77,0,0,1-4,2A11.41,11.41,0,0,1,203,254.69Z"/><path d="M181.71,244.36a5.81,5.81,0,0,0-4.93,5.06,3.57,3.57,0,1,1,4.93-5.06Z"/><path d="M445.32,116.42l1-2.51a33,33,0,0,1-.76,12l-1.77-9.19A2.35,2.35,0,0,1,445.32,116.42Z"/><path d="M314.91,100.27a2.46,2.46,0,0,1-2.08.51,2.19,2.19,0,0,1-.9-.82,7.27,7.27,0,0,1,8.69-3.16Z"/><path d="M395.06,100.56a18,18,0,0,1-12.5-2.14C386.78,97.76,391.08,99,395.06,100.56Z"/><path d="M298.94.94a4.64,4.64,0,0,1,4-.73c1.51,2.19-1.15,5.69-3.67,4.82A11,11,0,0,1,299,1m1.48.27a1.35,1.35,0,0,0,1.26,1.89,1.75,1.75,0,0,0-1.19-1.94Z"/><path d="M151.13,292.59l-8.82-1.75a19.81,19.81,0,0,1,11,.22c.46.4.17,1.22-.37,1.49A2.8,2.8,0,0,1,151.13,292.59Z"/><path d="M427,58.56a9.66,9.66,0,0,1-2.74,4.79,37.21,37.21,0,0,1-.27-7.29,2.32,2.32,0,0,1,3,2.51Z"/><path d="M139.22,74.85l-6.67,3L130.06,79c1.87-3.67,6.4-4.92,10.43-5.81C140.73,73.94,139.91,74.53,139.22,74.85Z"/><path d="M230.2,12.3l-6,2.8-4.57,2.14A10.36,10.36,0,0,1,230.2,12.3Z"/><path d="M367.62,63.25l5.28,1.53a10,10,0,0,1-4.2.73,3.76,3.76,0,0,1-3.28-2.38c-.42-1.37.63-3.1,2.06-3l.3,2.8Z"/><path d="M378.25,122.57a53.71,53.71,0,0,1,12,.65A12.24,12.24,0,0,1,378.25,122.57Z"/><path d="M378.84,22.05A5,5,0,0,1,380,20.84a2.51,2.51,0,0,1,1.54-.42,4.93,4.93,0,0,1-5.58,5.5Z"/><path d="M265.77,169c-.63.37-1.48-.21-1.65-.92a3.58,3.58,0,0,1,.38-2.13l3.52-8.76Z"/><path d="M312.29,2.07A1.18,1.18,0,0,1,313,3.79a7,7,0,0,1-4.05-.4A3,3,0,0,1,307.2,0l5.23,1.64Z"/><path d="M236.5,66.07a8,8,0,0,1,3.25,4.11c-.94,1.08-2.87.57-3.68-.61a6.76,6.76,0,0,1-.73-4.17c.35-.53,1.38,0,1.16.59Z"/><path d="M83.09,270.91a26.79,26.79,0,0,1-10.34-1.35A10.4,10.4,0,0,1,83.09,270.91Z"/><path d="M490.88,137.32a4.51,4.51,0,0,1,1.37-5,10.06,10.06,0,0,1-.46,7.6c-1.06.75-1.93-1.34-1.31-2.48Z"/><path d="M127.75,56.06a14.8,14.8,0,0,1,1-8.77l.73,10.06C128.83,58,127.92,56.92,127.75,56.06Z"/><path d="M231,8.46,229.44,10l-1.58-.92a25.76,25.76,0,0,0,4.71-5.19l2.62.17-4.31,4.35Z"/><path d="M248.19,150.55c-.37.86.58,1.75,1.49,2a8.46,8.46,0,0,1,2.72.65c.79.51.89,2,0,2.18a66.26,66.26,0,0,1-7.81-4.6A7,7,0,0,1,248.19,150.55Z"/><path d="M395.51,31.38a5.87,5.87,0,0,0-2.81-2.24,4.76,4.76,0,0,1-1.89,3.16,8.07,8.07,0,0,0,.4-3.41,5,5,0,0,1,3.94-.88,11,11,0,0,1,1.8,4.85,1.54,1.54,0,0,1-1.36-1.5Z"/><path d="M190.38,93.85a7.39,7.39,0,0,1-1,4.06,9.64,9.64,0,0,1,1.72-9.5,7.17,7.17,0,0,1-.57,5.28Z"/><path d="M155.86,276.44a2.41,2.41,0,0,1,2.55,2.82,17.67,17.67,0,0,1-7-4.95,3.62,3.62,0,0,1,4.31,1.79Z"/><path d="M73,273.44a4.32,4.32,0,0,0,4.77.66,1.56,1.56,0,0,1-.5,2.39,71.44,71.44,0,0,1-7.88-3,3,3,0,0,1,3.53.06Z"/><path d="M244.59,102.5a2.07,2.07,0,0,1,2.55-1.87A14,14,0,0,0,245,107.9a3.29,3.29,0,0,1-.4-5.38Z"/><path d="M123.13,74.27a16.51,16.51,0,0,1-.95,9.88A13.85,13.85,0,0,1,123.13,74.27Z"/><path d="M483.14,85a20.58,20.58,0,0,1,4.26-2.09l.88,3.68a15.23,15.23,0,0,1-5.51-1Z"/><path d="M345.28,74.41a17.46,17.46,0,0,0-5.43-6.95C343.33,67.13,346.44,71.11,345.28,74.41Z"/><path d="M243.2,33.93a2.81,2.81,0,0,1,1.58-.24,1.43,1.43,0,0,1,1.05,1.18l-10.93,2.06Z"/><path d="M121.41,56.06A3.85,3.85,0,0,0,120,50.72c.77-1,2.51-.47,3.12.63a5.79,5.79,0,0,1,.23,3.69,2.37,2.37,0,0,1-.75,1.67c-.52.36-1.46,0-1.3-.64Z"/><path d="M187.74,5.46l-2.18,7.3a1.36,1.36,0,0,1-1.44.92A11.27,11.27,0,0,1,187.74,5.46Z"/><path d="M491.39,128.11a4.25,4.25,0,0,1,1.88-4.57,10.74,10.74,0,0,1-1,7,2.38,2.38,0,0,1-1.29-2.36Z"/><path d="M392.75,107.73a5.06,5.06,0,0,1-4.77-2.22,11.06,11.06,0,0,1,7.62,1.86,4.7,4.7,0,0,1-2.84.39Z"/><path d="M239.24,188.77a4.3,4.3,0,0,1-3.1-3.53,4.16,4.16,0,0,1,1.05-3.31Z"/><path d="M376.89,77.32a10.78,10.78,0,0,1-1.34,3.89A4.19,4.19,0,0,1,373.88,79a3.41,3.41,0,0,0,1.2-3.67,1,1,0,0,1,1.56.19A2.5,2.5,0,0,1,376.89,77.32Z"/><path d="M421.53,79.61l.12-5.16a4.25,4.25,0,0,1,1.5,5.63c-.27.77-1.74.33-1.53-.46Z"/><path d="M74.16,280.47A4.78,4.78,0,0,1,79,282.59a5.22,5.22,0,0,1-5.11-.6c-.65-.49-.42-2,.19-1.49Z"/><path d="M210.9,19.93A3.61,3.61,0,0,1,215,19a9.89,9.89,0,0,1-7.33,3.28L210.89,20Z"/><path d="M427.46,77.13a6.09,6.09,0,0,1,.9-3.44,3.85,3.85,0,0,1-.14,5.81,2.52,2.52,0,0,1-1.13-2.34Z"/><path d="M213.8,112l4.32,3.92a8.09,8.09,0,0,1-6.71-4.76C212.21,110.74,213.14,111.38,213.8,112Z"/><path d="M431.1,65c.91.1,1.87,1.13,1.28,1.82a12.13,12.13,0,0,1-6.08-3.49,3.9,3.9,0,0,1,4.68,1.8Z"/><path d="M187.19,75a1.88,1.88,0,1,1-2.82-1.74A2.4,2.4,0,0,1,186.73,75Z"/><path d="M416,77.76V75.91c.79-.89,1.89.83,1.74,2a14.73,14.73,0,0,1-1.34,4.6,10.87,10.87,0,0,1-.39-4.76Z"/><path d="M239,166.22l.22-2.07a5.41,5.41,0,0,1,3.73,4.06,4.06,4.06,0,0,1-3.79-2Z"/><path d="M451.26,51.79a2.42,2.42,0,0,1,.31-3.26,3.61,3.61,0,0,1,3.42-.63,7.82,7.82,0,0,1-3.55,3.38Z"/><path d="M415.26,131.31a7.59,7.59,0,0,1,.3,5.76,7.2,7.2,0,0,1-2-4.9l1.73-.9Z"/><path d="M475,47.92a7,7,0,0,1-1.46-3.41,1.79,1.79,0,0,1,.06-.92c.42-1,2.18-.55,2.5.52a4.14,4.14,0,0,1-.83,3.13Z"/><path d="M247.08,161.85a2.64,2.64,0,0,1-1.35-2,3.49,3.49,0,0,1,4.25,3.43,5.81,5.81,0,0,1-2.87-1.45Z"/><path d="M114,291.19l.27-2.25a4.58,4.58,0,0,1,1.25,5.74,2.43,2.43,0,0,1-1.27-3.38Z"/><path d="M428.21,41.91a4,4,0,0,1,3.09,4.24l-4.08-3.75a1.6,1.6,0,0,1-.08-1.5c.3-.43,1.22-.1,1,.36Z"/><path d="M162.95,278.82a1.88,1.88,0,0,1,.28-1.59,4.06,4.06,0,0,0,3.14-.48,1.94,1.94,0,0,1,.88,2.12,7.85,7.85,0,0,1-4.35.05Z"/><path d="M243.47,203.53a5.78,5.78,0,0,1-6.48.15A8.05,8.05,0,0,1,243.47,203.53Z"/><path d="M126.15,88a3.76,3.76,0,0,0-.93,3c-1.23.33-2.14-1.46-1.55-2.6s1.91-1.64,3.12-2a1.09,1.09,0,0,1-.73,1.51Z"/><path d="M188.13,120c.54,1.16-1.27,2.25-2.4,1.65s-1.55-2-1.88-3.21a4.06,4.06,0,0,1,3.61,2.09Z"/><path d="M182,62.91l0-4c1.1.61,2.26,1.5,2.36,2.75S182.67,64,181.92,63Z"/><path d="M228.83,196.22l-.89-1.52a2.76,2.76,0,0,1,1.38-1.54l1.64.92v2.49a2,2,0,0,1-2.12-.38Z"/><path d="M319.1,11.19c-1.33.27-3.31-.87-2.43-1.91a4.15,4.15,0,0,0,5.05-.42,2.4,2.4,0,0,1-.2,2.5,1.85,1.85,0,0,0-2.46-.23Z"/><path d="M61.25,34.39A2.92,2.92,0,0,1,57,35.81a4.93,4.93,0,0,0,2.9-2.91c.79-.25,1.35.75,1.56,1.54Z"/><path d="M221.18,51.81l1.41-4a5.39,5.39,0,0,1-1.71,6.41,1.93,1.93,0,0,1,.25-2.36Z"/><path d="M279.65,162.88a5.79,5.79,0,0,1-3.37,3.18,4.22,4.22,0,0,1,1.55-3.83l1.8.33Z"/><path d="M444.93,80.27a3.24,3.24,0,0,1-.86,3.46,4.47,4.47,0,0,1-.8-4.08,1,1,0,0,1,1.75.59Z"/><path d="M437.32,87.83l1.77,0a15,15,0,0,1-5.53,1.93,1.35,1.35,0,0,1,0-1.78h3.71Z"/><path d="M400.49,30.43l-2.1-.06a2.85,2.85,0,0,1,.66-4.3,5.61,5.61,0,0,0,1.49,4.3Z"/><path d="M457.31,53a1.16,1.16,0,0,1-1.7.66c-.19-1.45-.27-3.19.89-4.08a3.39,3.39,0,0,1,.83,3.43Z"/><path d="M181.73,87.34c.1.34-.45.56-.72.33a1.16,1.16,0,0,1-.27-1,8.07,8.07,0,0,1,1.63-4.33,5,5,0,0,1-.64,4.94Z"/><path d="M264.86,44a7.89,7.89,0,0,1-4.22-3.62,4.27,4.27,0,0,1,4.27,3.31Z"/><path d="M41.82,268.39c-4,3-3.06,9.15-1.67,14a87.45,87.45,0,0,0,35.07,8.92l-5.81-3.19,3.26-1.83c12.1,7.83,31.53.23,40.6,11.44l-71.39-.07a6.39,6.39,0,0,0,.75-4.88l-2.53,5H.52l2.06-19.44c.8-7.5,1.52-15.46-1.79-22.24a5.3,5.3,0,0,0,5-.92,6.46,6.46,0,0,1-5-4.54,46.29,46.29,0,0,0,27.09,5c4.7-.58,11.36-.56,12,4.13-11.93-.74-23.1,10.68-22.11,22.58a6,6,0,0,0,3.84-7.06c.53,2.32,4.07,1.32,5.92-.18l9.35-7.56-3.45.73a27.8,27.8,0,0,1,13.86-7.29,15,15,0,0,1-1.08-12l3.25,9.37a17.67,17.67,0,0,1,10.06-2.49c-4-2.38-4.6-8.76-1.21-11.89-1.86,4.89,1.75,11,6.92,11.81A6.72,6.72,0,0,0,62,250.32l-.91-23.51c-.12-3.07-.34-6.42-2.38-8.71s-6.6-2.39-7.64.5a17.2,17.2,0,0,0-16.89-13.51,25,25,0,0,1,13.67-9.46c-.87-2-3.82-1.8-5.59-.59s-3.07,3.1-5,3.94c-2.4,1-5.14.24-7.62-.54-9.09-2.88-19.94-8-20.12-17.52a7,7,0,0,1,8.89-2.5,7,7,0,0,1,2.95,8.76c3.12,1.09,6.52-.86,8.76-3.29s3.91-5.42,6.54-7.42c3.1-2.34,7.1-3,10.89-3.82s7.79-2.11,10.14-5.2S59.56,159,56,157.53l-19,2.24a3.58,3.58,0,0,0,4.94,2.17,4.16,4.16,0,0,0,4.19,5.33l-3.2,3.63c-4.8-4.62-9.22-12.06-5.33-17.47,2.51-3.48,7.3-4.22,11.56-4.66,7-.73,16.5.31,17.6,7.26a7.7,7.7,0,0,0-9,.18l5.39,8.42A4.29,4.29,0,0,1,66.8,161a24.1,24.1,0,0,1,.23,7.3,23.17,23.17,0,0,0,1.68-18.84c-5.34-4.38-12.26-9-18.61-6.29-2.13.92-3.87,2.59-6,3.53s-5.05.88-6.28-1.09,1.53-5.12,3.23-3.55a3.6,3.6,0,0,0,3.42,3.68c-1-5.65,4.45-10.18,9.34-13.2C61.73,127.71,70,123,79,121.09s19.28-.66,26.38,5.34c-3.16-1.31-6.59-2.65-9.91-1.83s-5.84,3.74-8,6.47l-12.87,16,22.34-6a6.83,6.83,0,0,0,1-6.91,61,61,0,0,1,31.24,11.43c3.49,2.54,6.72,5.46,10.44,7.63,5.65,3.31,12.18,4.76,18.65,5.77a157.45,157.45,0,0,0,46.13.3l-5.66-3.85c4.09.78,8.86,1.39,11.92-1.43s.48-9.73-3.35-8.11c-21.11,9-47.11,5-64.61-9.82a2.51,2.51,0,0,0,3.1-2.58l4,1.41c-2.35.66-1.8,4.72.54,5.42s4.78-1.16,5.75-3.4.9-4.76,1.11-7.19.83-5,2.73-6.56a11.19,11.19,0,0,0,4.82,12.67l-3.53,4a5.37,5.37,0,1,0-.89-10.69c2-4.61,4.13-9.48,3.64-14.51s-4.56-10.07-9.6-9.73c3.55-.7,2.7-6,1-9.19,1.37,2.21,4.63-.23,5.88-2.51l-4.75,2.23c.06-8.19-9.65-14.77-17.23-11.66s-9.9,14.6-4.11,20.4a36.5,36.5,0,0,1-25.9,8.73,307.27,307.27,0,0,0-42.89.27Q67.57,76.13,65.55,39L60.18,41.7c3.35,4,3.58,9.73,3.65,15l.73,56.93a28.15,28.15,0,0,0-12.81,5.55c1-8.41,2-17,.68-25.33S47,77.15,39.82,72.62l.26,3.16A180.23,180.23,0,0,1,7.86,58.63L1,58.48C-.93,57.35.16,54,2.27,53.2s4.46,0,6.65.52,4.84.7,6.4-.94a31.43,31.43,0,0,0-8-2.83A8.68,8.68,0,0,0,4.53,42a23.49,23.49,0,0,0,.65,9L.82,52.67l.1-25.49A135.52,135.52,0,0,0,34.66,33.1a20.4,20.4,0,0,0-13.38-5.76A61.55,61.55,0,0,1,45.65,33.2a8.12,8.12,0,0,0-10,.9c8.68,2.55,17.66,5.13,26.64,4a65.9,65.9,0,0,1,27.23,2.37,59.53,59.53,0,0,0-5.42,38.9c7.5,3.46,16.26,2.37,24.29,4.32s16.14,9.8,13,17.45A56.24,56.24,0,0,1,141.37,80a20.57,20.57,0,0,0-11.26,3.24,17.77,17.77,0,0,1,8.13-5.56c9.32-3.06,19.17,1.95,27.7,6.79l-3.16,12.47L169.69,87a4.65,4.65,0,0,0-3.61-3.22c-.21-3.14-.38-6.49,1.17-9.23s5.51-4.34,7.95-2.35,1.22,6.54-1.79,7.13a16.37,16.37,0,0,1-2.51,15.55,2.93,2.93,0,0,0,2.7-3.41c1.55,3.11,3.2,6.34,6,8.39s7.13,2.46,9.54,0a4.45,4.45,0,1,1-8.9.08c-3.12,1.68-6.46,3.21-10,3.24s-7.32-1.81-8.55-5.13c-2-.35-2.95,3-1.5,4.44S164,104,166,103.9l8.76-.34c5.46-.21,6.73,7.55,6,13l-3.47,27,3.09-3.67c1.44,3.31,3.1,6.87,6.31,8.53s8.23-.12,8.21-3.73l-.2-37.62c4.32,1.25,4.11,7.41,2.94,11.76s-1.49,10.47,2.8,11.83a24,24,0,0,1,10.66-19.86l5.45,29a14.45,14.45,0,0,0,13.25-5.18,7.29,7.29,0,0,1-8-1.9l6.25.25-1.75-10.78c2.69.37,3.54,3.75,4.07,6.42s2.45,5.93,5,5.13l.44-5c-.55,2,3,2.68,4.26,1s.88-4,1.09-6,1.79-4.44,3.78-3.91a5.59,5.59,0,0,0,0,7.31,68.81,68.81,0,0,0,9-22.86c-2.07,14.48,14.81,25.73,15,40.35a5.12,5.12,0,0,1-2.31-4.17c-2.48,4-1.28,9.1-1.26,13.79s-2.66,10.46-7.34,10.12c-2.13-2.78-.19-6.68,1.31-9.85s1.82-8-1.51-9.11a6.83,6.83,0,0,0-3.51.14l-14.62,3.17c-.64,4.19,4,8.21,8,7a10.36,10.36,0,0,1-6.85,3.39,17,17,0,0,0-4.37-7.85,17.05,17.05,0,0,1-1.21,16.92,5.68,5.68,0,0,1,4.33,1.23,8.11,8.11,0,0,0,.48,8.79,6.68,6.68,0,0,0-5.74,6.84l-3.42-1.37a13,13,0,0,1,5,12.08,38.25,38.25,0,0,1-9-10.4c-1.16,5.59-2,12.37,2.36,16.11,1.86,1.62,4.73,4.11,2.88,5.74a23.8,23.8,0,0,0-8.8-7.41c-1.25,6.84,7.89,12.9,13.7,9.08a17,17,0,0,0-2.66,14.91l-3.63.6c2.7.1,4.38,3.92,2.61,6a5.38,5.38,0,0,0-3.71-2.2,11.46,11.46,0,0,0,8.76,6,18.05,18.05,0,0,1-15.78-.78l-2,8.63a6.14,6.14,0,0,0,2.84-6.26c3.35-.18,6.16,2.92,6.85,6.2s-.19,6.67-1.07,9.91c-2.21.19-5.51-1.18-4.34-3.07,1.24,1.31,3.92-.31,3.34-2a8,8,0,0,0-11.78,1.06,3.67,3.67,0,0,1,3.6,4.76l-5.3-2.53c.08-10.45.24-21.27,4.59-30.77a8.2,8.2,0,0,0,8.81,2.86A9,9,0,0,1,231,214.6a9.53,9.53,0,0,1-11.9-4.28c-12.57,10.65-12.24,29.8-10.86,46.22l7.84-.3-5.53,2.54c2.25,2,4.9,4,7.93,4.1s6.34-2.24,6.09-5.27l-7.53,3a6.63,6.63,0,0,1,1.19-5,22.07,22.07,0,0,1,14.39.71,35,35,0,0,0-4,26.39,18.72,18.72,0,0,0-15,15.09l-4-2.86c1.77,0-.21,2.67-2,2.66l-63.93-.35A142.69,142.69,0,0,1,185.3,296a43.74,43.74,0,0,0-21-4.72l-9.41-1.2a16.87,16.87,0,0,1,6.84-1.6,19,19,0,0,1-11.15-5.77,29.44,29.44,0,0,1,15.26,3.85,53.53,53.53,0,0,1,25-7.94A12.12,12.12,0,0,0,176,280.31l-16.92-7.78,37.33,1.76-39.89-5.09a167.53,167.53,0,0,1-.28-24.11l10.16.34a10.52,10.52,0,0,1-4.16,6.67c3.37,1.59,3.25,6.55,5.77,9.3,1.87,2,4.88,2.51,7.64,2.72A89.26,89.26,0,0,0,210.22,260c-5.42-1.44-4.69-9.14-5.21-14.72-.73-7.93-8.74-15.47-16.27-12.87a27.74,27.74,0,0,0,11.09,4.7,14.7,14.7,0,0,1-15.87.85,4.59,4.59,0,0,1-1.71,5.42l-1-3.76a19.15,19.15,0,0,0-9,3.34,13.45,13.45,0,0,0,7.5,11.71c-.65-4.25,2.4-8.37,6.21-10.36s8.24-2.31,12.53-2.6a4.36,4.36,0,0,1,2.11.21c3,1.38-.21,5.75-3.24,7.09l6.23,2a68.16,68.16,0,0,1-15.09,4.25,6.1,6.1,0,0,1,6.72-3.4c2.25-3.65-2.15-9.09-6.19-7.66l1.82,3.89c-6.09-1.57-11.59,7.31-7.47,12.06a11.76,11.76,0,0,1-14.8-17.88l-24.77-1.52a10,10,0,0,0,8.26,3.75l-3.32,2.8,6.2,3-9.1-.77c4.91,5.61,2.48,17.2,9.69,19.08l-15.79-2.63-10.6,30,12.36,1.75-22.33,0-1.9-15.7c-.83-6.85-8.36-10.44-14.85-12.79a5.62,5.62,0,0,1,5.62-1.44,61.05,61.05,0,0,0-13.13-4.75,56.87,56.87,0,0,1,13.39-1.14c-20.36-3.46-41.17.61-61.42,4.66a12.43,12.43,0,0,0-5.06,1.81m40-133.08a6.2,6.2,0,0,0-7.56,2.88c-2-.52-4.35-1-6,.27,3.52,1.22,7.35-.07,10.85-1.35a4.9,4.9,0,0,0,2.74-1.8M38.14,43.08c-4.32-1.55-9.05-3.11-13.39-1.62a274.5,274.5,0,0,0,36.81,7.2c.23-1.6-1.87-2.38-3.48-2.56L47.45,44.88a41.19,41.19,0,0,1-9.31-1.8m42.81,62.26a2.39,2.39,0,0,1,.3,1.74,82.24,82.24,0,0,1-12.63-.73c-1,.88.74,2.19,2.06,2.34q6.58.76,13.22.87l-.17-13.71c0-1.72-.33-3.86-2-4.38a9.42,9.42,0,0,0,.44,7.62c-2.13,1.08-2.89,3.68-3.44,6l2.2.25M200.8,139.16a6.41,6.41,0,0,1,.47,4.48,55.13,55.13,0,0,0,8.73,1.19l2.08.57a14.06,14.06,0,0,0,.64-5.4,4.79,4.79,0,0,0-3.18-4.07c-1-.27-1.16-1.67-1.31-2.74s-1.28-2.32-2.09-1.61a6.23,6.23,0,0,1-7.18.59l.48,4.42c1.87.59,3.87-.13,5.82-.15s4.31,1.33,4,3.25a18.54,18.54,0,0,0-8.41-.55m-104,10.75c-.44-1.76-3-1.46-4.7-.74l-10.7,4.57.74-2.66q-4.59-.08-9.18-.22a9.79,9.79,0,0,1,2.05,11c-1.18,2.47,1.22,6.5-1.27,7.64a22.81,22.81,0,0,0-12.39,24.69,19,19,0,0,1-4.77-3.95,31.59,31.59,0,0,0,3.76,12.61,30.92,30.92,0,0,1,22.6-25.48c6.76-1.69,14.52-1.23,19.84-5.72l-18.35-1a104.8,104.8,0,0,1,18.08-3.2,29.47,29.47,0,0,1,12.94,1.78c-2.14-3.65-5.12-7.77-9.34-7.59l-20.79.92,10-4.49L89.19,155a12.4,12.4,0,0,1,7.6-5.11m82.84,52.19c6.42,5.05,15.56,5.8,21.62,11.29a17.79,17.79,0,0,1,5.49,9.8l8.15-11.79a14.93,14.93,0,0,0-8.48-1.56l.84-3-6-.47a17.16,17.16,0,0,0,3.81,5.53l-3.16,1.76c-6.9-14.94-6-32.1-7.22-48.51-.07-.93-.35-2.09-1.27-2.24s-1.61,1.08-2.17,2-2.25,1.26-2.34.23a31.56,31.56,0,0,0-.55,7.1c.06,1.74.27,3.48.48,5.21L190.44,191c.22,1.81.31,4-1.1,5.13a12.27,12.27,0,0,0-1.5,1.09c-1.5,1.69.8,4.13,2.91,4.92s4.86,2,4.59,4.22a136.31,136.31,0,0,0-14.65-6.2l-1.06,2M106.69,91.8a3.91,3.91,0,0,1,6.17-1.14l1.84-3.09c-2.07-1.39-5-1-7.07.33a19.68,19.68,0,0,0-5.13,5.38c-1.21,1.64,1.11,4.64-.59,5.77-1.56.12-1.83-2.14-2.53-3.54-.81-1.63-2.71-2.34-4.44-2.9-1-.33-2.18-.64-3.05,0s-.52,2.42.51,2.2c2.28-.49,4.42,1.26,5.86,3.09a23,23,0,0,1,3.94,7.59c.27.9-.28,2.41-1,1.85a3.08,3.08,0,0,0,.2,2.38c.48.66,1.81.58,1.88-.24a47,47,0,0,1,1-6.79,9.29,9.29,0,0,1,1.64-3.94,3.64,3.64,0,0,1,3.82-1.34c1.36.47,2.11,2.38,1.16,3.46A12.21,12.21,0,0,1,109,102c-.58.45-.91,1.45-.31,1.88,1.71,1.23-2.39,3.72-1.34,5.55.68,1.19,2.54.43,3.85.83,1.67.52,3.05,3,4.47,2a40.41,40.41,0,0,0,8-7.67c1-1.23,2.17-2.65,3.72-2.5l.33,1.82a3,3,0,0,0,2.46-3.58c-1.91-1.28-4.58-.85-6.5.43a17.67,17.67,0,0,0-4.53,5.15L117.36,89.5a2,2,0,0,0-2.25.07,5.15,5.15,0,0,1,.59,3.4,9.19,9.19,0,0,0-9-1.17m-7.28,96.31,9.26-3.43a27.94,27.94,0,0,0-13,2.16c-.85.36-1.66-.51-2.42-1-3.36-2.36-8.24,1.93-11.95.17-.53-1,1.28-1.28,2.39-1.28,1.41,0,2.67-.81,4-1.36,5.94-2.52,14.05-.09,18.27-5-1.9-.61-3.88.47-5.76,1.13-5.51,1.93-11.79.36-17.31,2.27a28.71,28.71,0,0,0-6,3.2c-3.68,2.36-7.66,5.13-8.68,9.38a22.62,22.62,0,0,1,20.15-4.54c3.65,1,7.48-.35,11-1.67m117.25-2.17c-1.19-2.43-3.06-5.26-5.75-5-1.7.18-3,1.63-3.77,3.17s-1.17,3.24-2.05,4.71c-1.08,1.8-2.8,3.14-3.94,4.9s-1.5,4.38.07,5.78c.71.63.29,1.77.27,2.72s1.4,1.9,1.7,1a7.43,7.43,0,0,1,1.52-7.06,5.78,5.78,0,0,1,6.9-1.16,43.25,43.25,0,0,0,5.05-9.09M78.79,61.66l-2.2.94a3.12,3.12,0,0,0-1.45-1.87A35.51,35.51,0,0,0,76.64,71a5.4,5.4,0,0,0,1.55,2.79,2.07,2.07,0,0,0,2.89-.16,3.05,3.05,0,0,0,.32-1.94L81,64a6.68,6.68,0,0,0-1.15-4.09c-.94-1.09-3-1.26-3.66,0a2.39,2.39,0,0,1,2.64,1.75m96,124.34c.38-4.15-4.07-6.9-7.87-8.6a5.86,5.86,0,0,0-3.21-.75c-1.1.17-2.13,1.28-1.78,2.34a2.77,2.77,0,0,0,.89,1.14,25.52,25.52,0,0,0,12,5.87M59.21,52.56a8.69,8.69,0,0,0-.73,6.54,18.42,18.42,0,0,1-3.15,8.16,36.75,36.75,0,0,1-7,6.94,8,8,0,0,0,6.39-2.43A13.27,13.27,0,0,0,56,70.2c3.58-5.15,6-12,3.25-17.64m9.16,143.81-5,9.77c-.54,1.05-1,2.49-.14,3.29a8.46,8.46,0,0,1,7.1-3.63c2,.06,2.25-3,1.13-4.58s-3-2.9-3.09-4.85m152,70.61c1.37,0,2.48,1.09,3.79,1.51s3.22-.86,2.41-2a53.68,53.68,0,0,0-23.43-.6c-.07,1.06,1.38,1.41,2.44,1.39l14.8-.33m24.5-126.67-1.68-1c-.57,2-3.56,1.31-5.16,0s-3.87-2.83-5.4-1.47a50.3,50.3,0,0,0,2.76,10.49c1.21.22,1.12-1.76.69-2.9a8.44,8.44,0,0,1,.2-6.37,4.63,4.63,0,0,0,8.59,1.26m-63.35,43.22a3,3,0,0,0-2.17-.24c-1,4.25,4.82,7.52,4.61,11.88-.08,1.52-.89,3.09-.28,4.49a6.6,6.6,0,0,0,2.06-7.44l2.93.86c.76-.88-.88-1.77-2-2a6.92,6.92,0,0,1-5.13-7.52M86.11,128.46a53.85,53.85,0,0,0-11.27-1.58c-1.06,0-2.31.07-2.86,1a10.81,10.81,0,0,0,14.13.6M22.45,261.53c.18-1.31.28-2.85-.71-3.73a28.54,28.54,0,0,1-12.62-2A2.79,2.79,0,0,0,7.79,258c0,.88.93,1.74,1.76,1.42a9.81,9.81,0,0,1,8.67.91c1.31.85,2.92,2.05,4.23,1.21m120.89-11.62-.17,9.93-.06,3.58c1.88.8,3.28-1.9,3.41-3.94.22-3.5-.38-7.47-3.18-9.57m31-142.13-7.6,1.1a2.3,2.3,0,0,0,1.79,1.14,3.32,3.32,0,1,0,4.05,5.18,17.5,17.5,0,0,0-3.65-2.69,6.66,6.66,0,0,0,5.41-4.73M8.21,261.87a3.5,3.5,0,0,0,2.4,3.44c2.81-1.69,7.07.63,7.16,3.91l3.82-4a42.91,42.91,0,0,0-13.38-3.37M220.1,179a3.51,3.51,0,0,0-3.13,1.58c-.53,1.11.58,2.77,1.7,2.27a8.15,8.15,0,0,1,7.95.85c1.14-.44.43-2.21-.56-2.92a9.48,9.48,0,0,0-6-1.78m-13-61.29a32.17,32.17,0,0,0-2.63,8.79c-.15,1,.23,2.52,1.23,2.3a13.82,13.82,0,0,1,3.75-7.6c1.37-1.4-.54-4.24-2.36-3.5m-93.67,29.42a3.77,3.77,0,0,0,4.37,4.34q3.89-1,7.84-1.68c-1.62-1.47-4.12-1.13-6.29-.88s-4.82.11-5.92-1.78M74.2,79.83l1.66,3.23L77,81.24a6.07,6.07,0,0,1-2.44-6.52,4,4,0,0,0-1.17-4,1.57,1.57,0,0,0-1.7.35A8.81,8.81,0,0,1,71.56,80a2.13,2.13,0,0,0,2.64-.18m87.5,139.32a4.62,4.62,0,0,0-2.28-3.14l-2.91-2a43.1,43.1,0,0,0,7.24,11.57l-2-6.39m-4.15-8.59a4.56,4.56,0,0,0-6-.32l10.85,3.87a4.81,4.81,0,0,0-4.73-3.65M70.23,47.51,80,49.29a3.3,3.3,0,0,0,1.5,0,1.67,1.67,0,0,0,1.1-1L68.93,45.74c-.82.5.36,1.6,1.3,1.77M14.3,282.87a8.17,8.17,0,0,1-4.61,1.4A14,14,0,0,0,11.3,293l.63-6.83a2.8,2.8,0,0,0,2.37-3.29M96.19,101.54A50,50,0,0,0,97,109.3c.11.58.76,1.32,1.11.84a11.24,11.24,0,0,0,1.13-5c-.14-1.7-1.32-3.45-3-3.64M43.5,38.75A38.47,38.47,0,0,0,29.17,36.3,26.42,26.42,0,0,0,43.5,38.75m168.86,94.7c1.12.31,1.29-1.63.64-2.59s-1.42-2.47-.42-3.06a6.13,6.13,0,0,0-4.93,2.46l4.25,2.94a1.57,1.57,0,0,0,.46.25M45.19,39.59l11.57,2.92c.86.22,1.94.36,2.47-.35a23.47,23.47,0,0,0-14-2.57m14.3,39.87a23.9,23.9,0,0,0,.33-11.38,4,4,0,0,0,0,4.05,4,4,0,0,1-3.33,0,14.53,14.53,0,0,1,3,7.34M217.7,194.89a4.72,4.72,0,0,0,3-.17c.89-.47,1.34-1.85.57-2.5a2,2,0,0,0-1.3-.37,6.86,6.86,0,0,0-5.06,2.19l2.8,1M64.84,143a5.55,5.55,0,0,0-5.71,0L70,145.45a4.32,4.32,0,0,0-5.15-2.32M17.48,38.44a18.51,18.51,0,0,0-5.63,1.95l2.37,1.75a3.34,3.34,0,0,1,1.11-2.44,8,8,0,0,0,6.12.92,7.24,7.24,0,0,0-3.95-1.76M39.45,291.58a1.32,1.32,0,0,0,.85.25.75.75,0,0,0,.61-.57q-1.85-3.4-4-6.61a6.11,6.11,0,0,0,2.56,6.93M185,181a3.49,3.49,0,0,0,.53,4.06l1.87-1.28a8.29,8.29,0,0,1-.28-6.58,2.9,2.9,0,0,0-1.82,3.83M112,160.44a1.4,1.4,0,0,0-.68.9c-.12,1.11,1.69,1,2.64.38l4.37-2.79a8.73,8.73,0,0,0-6.33,1.51m112.1,102a6,6,0,0,0,5.41-5,9.25,9.25,0,0,0-5.41,5M179,147.07l3.05-1.84-1-1.69-3.25,1.17a4.08,4.08,0,0,0-.74,2.34,1.65,1.65,0,0,0,1.91.06M29.91,48.64a1.42,1.42,0,0,0,2.29-1.06,4.26,4.26,0,0,0-4.83-1.5l2.52,2.6M46.47,288.2a2.61,2.61,0,0,0-4.3.63l4.18,1.31a1.3,1.3,0,0,0,.16-2m6.55-81a1.9,1.9,0,0,0,1.21-2.55l-5,3.35a2.41,2.41,0,0,0,3.72-.66m100.27-37.69a8.38,8.38,0,0,0-4.32-1.69,8.58,8.58,0,0,0,5.59,3.45,1.86,1.86,0,0,0,.28-1.46,2,2,0,0,0-1.53-.28M72.48,58.27a6.1,6.1,0,0,0,2.44-6.44.92.92,0,0,0-1.41-.16,9.24,9.24,0,0,1-1,6.6M174.14,253a3.47,3.47,0,0,0-1.86,4.45,3.53,3.53,0,0,0,2-4.65m13.08-78.2a5.18,5.18,0,0,0-2-2.82c-1-.55-2.7,0-2.67,1.23l4.71,1.46m-110-73.3,1.47-1.07a3,3,0,0,0-4.34-.11l.92,1.71,1.88-.47m-44,190.21a1.79,1.79,0,1,0,1.54,2.92l-1.5-2.24M93.3,110.29c1.57.09,1.73-2.28,1.28-3.79a2.67,2.67,0,0,0-1.58,4M5.88,30.58c-.89.54-.37,2.08.62,2.42a4.2,4.2,0,0,0,3-.55,3,3,0,0,0-3.4-1.31M72.39,89.26l1.36-1.06c.36-.72-.18-1.57-.82-2.05a6.2,6.2,0,0,0-1.45,4.94,2,2,0,0,0,1.08-1.57M75,88.9a6.78,6.78,0,0,0,1,2.77l1.5-3.38a1.68,1.68,0,0,0-2.56.56M47.81,53.62,46.64,52a6.33,6.33,0,0,1-2.43,4.36,3.4,3.4,0,0,0,3.56-2.74M173.93,277.29a4.38,4.38,0,0,0-.82-2.47,5.65,5.65,0,0,0-2.74.28,5.27,5.27,0,0,0,3.34,2.33M8.41,281.21a6.22,6.22,0,0,0-4.52-3.13L8,282M78.48,181a2.9,2.9,0,0,0-2.61,2.86c.49-.82,1.65-.82,2.52-1.23s1-2.11.09-2m9.9-33.32c.62,0,.64-1.07.06-1.32a2,2,0,0,0-1.74.41A2.33,2.33,0,0,1,85,147a2.3,2.3,0,0,0,3.42.4m-22.3-13.66a2.53,2.53,0,0,0-2.19,1.52,12.07,12.07,0,0,0,4.4-1.11c.26-1-1.54-1.21-2.21-.41M23.58,283.59c.47-.74-.7-1.63-1.5-1.28a3.16,3.16,0,0,0-1.43,2.11,1.82,1.82,0,0,0,2.61-1m49.35-86a8.21,8.21,0,0,0,1.51,4.29A3.38,3.38,0,0,0,73,197.26m23.09-20a2.9,2.9,0,0,0-3.17,2.05A2.29,2.29,0,0,0,96,177.36m50,69.11c.88-1-1-2.66-1.89-1.68s1,2.66,1.89,1.68m81.05-3.18A2.42,2.42,0,0,0,225,240.2a2.78,2.78,0,0,0,1.94,3.09M142.8,166.56a2.82,2.82,0,0,0-2.26.35,14,14,0,0,0,3.53,1.43,1.09,1.09,0,1,0-1.25-1.78m-14-68.4c.26-1.19-.29-2.9-1.5-2.72a2.07,2.07,0,0,0,1.55,3M49.72,294.29a1.81,1.81,0,0,0-3.14-.64,2.41,2.41,0,0,0,3.12.66m92.2-73.52c1.45-.16,1.36-2.31.84-3.67-1.15.58-1,2.24-.74,3.5M79.72,79.93a2.29,2.29,0,0,0-.65,3c.66.29,1.4-.41,1.43-1.13a3,3,0,0,0-.85-1.92M137.11,166a2.75,2.75,0,0,0-3.48-.22,6.27,6.27,0,0,0,3.21,1c.4,0,.87-.07,1-.44s-.52-.75-.62-.37M54.58,56.9c-.72-.31-1,1.27-.26,1.27l2.89-1.32a2.16,2.16,0,0,0-2.55-.13m206.82,74-1.1-.7-.95,2.2a2.15,2.15,0,0,0,1.55.3,2,2,0,0,0,.28-1.54m-30,51.12c.64,0,.65-1.1.09-1.4a2.21,2.21,0,0,0-1.84.21,1.37,1.37,0,0,0-.43,1.48,1.58,1.58,0,0,0,2-1m-111.85-11.7a3.68,3.68,0,0,0-2.2.23,2.52,2.52,0,0,0,2.79.93c.54-.33,0-1.37-.58-1.12M26,57.57a2.8,2.8,0,0,0-3.58-.86,3.31,3.31,0,0,0,3.43.85M115.5,182.37l-2.76.92a1.79,1.79,0,0,0,3-.6m108.8-39.64a1.2,1.2,0,1,0-2.18-.94l2.13.92M170.34,249.13l-1.25,1.28c.77.25,1.76.39,2.26-.25s-.7-1.72-1-1M6,274.84a2.34,2.34,0,0,0,2.8.32,2,2,0,0,0-3-.58M75.37,85.53c.95,0,1.85-1.2,1.24-1.92-.94,0-1.84,1.18-1.23,1.89M5.79,38.77c.46.6,1.37,1.18,1.87.61A1.88,1.88,0,0,0,6.86,38c-.5-.25-1.27.3-1,.78M97.64,89.23a1.77,1.77,0,0,0-1.55.27L97.64,91a1,1,0,0,0,0-1.8M205,164.36a1.07,1.07,0,0,0-.23-1.94,1.14,1.14,0,0,0,.25,2.12M193.32,280c.17.61,1.25.08,1.09-.53s-.87-.88-1.49-1a1,1,0,0,0,.32,1.55M27.2,52.78a.8.8,0,1,0-1.42-.42.75.75,0,0,0,1.33.31m145.6,44.77c-.6.62.22,1.86,1,1.55a1,1,0,0,0-1-1.56M42,50.23c.26-1-1.31-1.55-2.16-1a2.1,2.1,0,0,0,2.16.95m30,105.49a1.89,1.89,0,0,0-.25-1.55,1.88,1.88,0,0,0-.87,1.55c0,.65,1.25.66,1.28,0m138.1,42.91a.89.89,0,0,0,.06-1.63c-.91.07-.94,1.73,0,1.83M12,279.34c-1,0-.52,1.62.28,2.24a1.49,1.49,0,0,0-.32-2.13M198.14,144.62a.9.9,0,1,0-.88,1.46,2.18,2.18,0,0,0,.91-1.52m-20.1-26.89c.26-1-1.31-1.55-2.16-1a2.1,2.1,0,0,0,2.16.95m-129-66.5c-.22.61.83,1.13,1.18.59a1.63,1.63,0,0,0-.37-1.67l-.94.94m28.12-8.69a2,2,0,0,0-2.13-.54,1.4,1.4,0,0,0,2.45.51m97.89,83.89c.88-.18.74-1.48.39-2.3a2,2,0,0,0-.53,2.2M16.32,288.62c-.92.08-.61,1.86.29,1.67a1,1,0,0,0-.34-1.52M101.06,89a1,1,0,0,0-.35,1.52c.91,0,1.2-1.72.29-1.68m77.4,24.29c-.45-.13-.56.74-.13.92a1.44,1.44,0,0,0,1.3-.37c.35-.55-.73-1.08-1.16-.58m22.83,57c.92-.08.61-1.86-.29-1.67a1,1,0,0,0,.34,1.52Z"/><path d="M318.8,6.64a2.29,2.29,0,0,1-.3-2.8A6.31,6.31,0,0,1,321.94,6l-3.09.65Z"/><path d="M242.35,184.17a1.18,1.18,0,0,1-1.19-1.64l3.37.35c.62,1.17-1.2,2.62-2.2,1.74Z"/><path d="M97.27,287.47a1.8,1.8,0,0,1-2.48.7c.14-1.06.43-2.32,1.44-2.68s2,1.51.92,1.71Z"/><path d="M61.78,272.26l-1.71-1a4.76,4.76,0,0,1,5.19.47,3.64,3.64,0,0,1-3.45.53Z"/><path d="M172.81,60.43l-1.23-1.23a2.29,2.29,0,0,1,3.08,0,4.62,4.62,0,0,1-.44,2.89l-1.47-1.61Z"/><path d="M496.4,139.75l-1.58.22a7.32,7.32,0,0,1,0-4.38,4.6,4.6,0,0,1,1.61,4Z"/><path d="M492.34,64.42a2.38,2.38,0,0,1,2.87-.28,2.73,2.73,0,0,1-2.85,2.2,1.58,1.58,0,0,1,0-1.91Z"/><path d="M132.61,59c1.65.41,1.37,3.38-.31,3.61a3.46,3.46,0,0,1,.22-3.51Z"/><path d="M371,69.63a6.69,6.69,0,0,1-4.16-.41,1,1,0,0,1,.57-1.59A8.28,8.28,0,0,0,370.8,69Z"/><path d="M311.71,6.3h2.48a2.15,2.15,0,0,1,.3,1.55,5.31,5.31,0,0,1-2.78.31,1.59,1.59,0,0,1,0-1.89Z"/><path d="M349.67,17.8a1,1,0,0,1-.84,1.48,9.53,9.53,0,0,1-2.19-2.82,2.19,2.19,0,0,1,2.94,1.33Z"/><path d="M382.47,104.35l.25-1.44c1.82.48,1.83,3.67,0,4.16l-.26-2.7Z"/><path d="M499.78,59.82c-.11.87-1.54.87-2,.13a3.26,3.26,0,0,1,0-2.55,1.25,1.25,0,0,1,1.42-.35,4.81,4.81,0,0,1,.32,2.77Z"/><path d="M383.38,29.3a2.47,2.47,0,0,1,.12-3.37,4.65,4.65,0,0,1,.83,4.16c-.32.54-1.36,0-1.09-.58Z"/><path d="M249.53,242.94a2.45,2.45,0,0,1-1.54.93l-2.18-2.2a3.73,3.73,0,0,1,3.86,1.19Z"/><path d="M185,108.07a1.5,1.5,0,1,1-2.48-1.06l2.11.81Z"/><path d="M229.42,108.38a2.52,2.52,0,0,1-.94-1.57,3.48,3.48,0,0,1,2.17-.26,5,5,0,0,1,.27,2.84l-1.58-.86Z"/><path d="M308.15,5.46l1.32,3.36a5.35,5.35,0,0,1-2.87-4.13l1.73.64Z"/><path d="M316.23,1.26A2,2,0,0,1,319.42.5a1.58,1.58,0,0,1-2.76.83Z"/><path d="M131.06,22.39a4.48,4.48,0,0,1,4-1.61A13,13,0,0,1,132,23.16a1.14,1.14,0,0,1-1,.17c-.33-.17-.25-.82.11-.77Z"/><path d="M252,87.75a1.42,1.42,0,0,1,1.31,1.18A3,3,0,0,1,249.51,87l2.5.61Z"/><path d="M275.52,39.51l-2.83.26a1.41,1.41,0,1,1,2.7-.4Z"/><path d="M278,152.78a4.14,4.14,0,0,1-3.82-2.14,3.44,3.44,0,0,1,3.8,2Z"/><path d="M448.74,41.23a1.77,1.77,0,0,1-.87-2.79l2.71,3.47a1.22,1.22,0,0,1-1.73-.7Z"/><path d="M395.82,26.73a1.72,1.72,0,0,1,1.9-2.45,1.79,1.79,0,0,1-1.87,2.44Z"/><path d="M252.71,57.36l-.3,1.51A3.54,3.54,0,0,1,251,55.12a1.76,1.76,0,0,1,1.62,2.19Z"/><path d="M373.84,69.61c1.18-.49,2.45,1.31,1.6,2.26a2.1,2.1,0,0,1-1.85-.49c-.44-.49-.31-1.47.34-1.62Z"/><path d="M91.53,72.75l.81-4a3.35,3.35,0,0,1-.18,4.5Z"/><path d="M230.67,97.87a2.79,2.79,0,0,1-1.32,3.79,3.51,3.51,0,0,1,1.34-3.75Z"/><path d="M373.27,24.55l1.26,1.3a2.86,2.86,0,0,1-3-.75,1.61,1.61,0,0,1,.31-1.63l1.54,1Z"/><path d="M388,29.67a2,2,0,0,1,.51,2.18c-1.77-.36-1.83-3.49-.07-3.92a1,1,0,0,1-.32,1.52Z"/><path d="M230.1,112.06a2.39,2.39,0,0,1-1.25,3.13,2,2,0,0,1,1.18-3.13Z"/><path d="M138.14,9.69a1.83,1.83,0,0,1,3.1.6A2.45,2.45,0,0,1,138,9.83Z"/><path d="M485.16,90.09a1.21,1.21,0,0,1-1.73.67,1.81,1.81,0,0,1,2.14-2.16.86.86,0,0,1-.34,1.44Z"/><path d="M253.8,82.38a1.92,1.92,0,0,1-3.09,1.47,2.68,2.68,0,0,1,2.85-1.43Z"/><path d="M445,46.1a5.06,5.06,0,0,1,3.71,1.26,2.58,2.58,0,0,1-3.82-1.11Z"/><path d="M188.23,124.07c1.15-.51,2.44,1.27,1.6,2.2a2.74,2.74,0,0,1-1.77-.61c-.44-.46-.36-1.42.27-1.55Z"/><path d="M134.45,292.42a3.17,3.17,0,0,1,3.18,1.14,2,2,0,0,1-3.19-1.09Z"/><path d="M400.79,36a3,3,0,0,1-2.23-.3l2.23-1.54,1.55,1.56a2,2,0,0,1-1.54.29Z"/><path d="M213.09,25.17l-.2,2.13a3,3,0,0,1-1.76-2.77,1.26,1.26,0,0,1,1.81.66Z"/><path d="M293.77.11l.93,2.18a3.65,3.65,0,0,1-2.26.29A2.05,2.05,0,0,1,293.81.26Z"/><path d="M156.54,15l1.1-.69,2.19,2.21a2.14,2.14,0,0,1-2.92-1.31Z"/><path d="M14.63,26.34l-2.87-.94a2.13,2.13,0,0,1,3.58.55Z"/><path d="M390,145.17a1.43,1.43,0,0,1-1.82.06,11.06,11.06,0,0,1,2.17-2.85,2.27,2.27,0,0,1-.49,2.65Z"/><path d="M411.65,96.17c-.36-.12.08-.72.41-.53s.34.65.31,1l-.3,4.28a5.4,5.4,0,0,1-.47-4.64Z"/><path d="M221.72,59.81,223,63.06c-1.63.24-2.67-2.39-1.32-3.33Z"/><path d="M99.52,288.94a1.26,1.26,0,0,1-.64-1.81,3.55,3.55,0,0,1,2.74,2.3,2.2,2.2,0,0,1-2.08-.45Z"/><path d="M391.53,25.48c-.69.29-1-.84-.92-1.58a3.58,3.58,0,0,1,2.18-.27,1.29,1.29,0,0,1-1.27,1.83Z"/><path d="M435.38,94.8a1.42,1.42,0,0,1,.72-1.86,2.65,2.65,0,0,1,.86,2.77.85.85,0,0,1-1.3-.88Z"/><path d="M140.31,27.32c-.35.57-.69-.71-.14-1.07a4.17,4.17,0,0,1,3.09-.6,2.63,2.63,0,0,1-2.92,1.65Z"/><path d="M247.73,72.69l-.7-1.1L248.6,70a2.43,2.43,0,0,1,.92,1.55,2.35,2.35,0,0,1-1.54.92Z"/><path d="M152.42,277.47c.68.32.22,1.49-.52,1.59a2.67,2.67,0,0,1-2-.92c0-1,1.54-1,2.48-.58Z"/><path d="M182.14,132.65a1.5,1.5,0,0,1-1.05-2,11.18,11.18,0,0,1,2.85,2.14,1,1,0,0,1-1.79,0Z"/><path d="M206,89.85a2.72,2.72,0,0,1,2.8-1c-.6.15-1,.73-1.33,1.23s-.92,1-1.52.85-.64-1.28,0-1.22Z"/><path d="M231,14.48l2.19-.2a1.28,1.28,0,0,1-1.23,1.84,1.91,1.91,0,0,1-.92-1.48Z"/><path d="M411.61,104.36c1.26-.29,1.48,2,.39,2.69a2.13,2.13,0,0,1-.51-2.78Z"/><path d="M224.13,129.41l-1.2-3A1.73,1.73,0,0,1,224.6,129Z"/><path d="M269,92.11c-.68.5-2,.75-2.06-.09a3.49,3.49,0,0,1,3.65-.71,2.3,2.3,0,0,1-1.57,1Z"/><path d="M342.33,88a2.86,2.86,0,0,1,3.21-1.59,2.79,2.79,0,0,1-3.19,1.53Z"/><path d="M239,47.83a2.15,2.15,0,0,1,2.47,2.36,3.34,3.34,0,0,1-2.39-2.46Z"/><path d="M469.76,67.55a2.53,2.53,0,0,1-.27,1.9l-2.16-.2a3.28,3.28,0,0,1,2.44-1.79Z"/><path d="M268.15,156.21l-.73-1.08,1.6-2.26a2.62,2.62,0,0,1-.7,3Z"/><path d="M107.88,22.09a.76.76,0,0,1-1.31.55,2.88,2.88,0,0,1,2.23-2.11.88.88,0,0,1-.89,1.34Z"/><path d="M449.59,57.1A2.85,2.85,0,0,1,449,61a6.06,6.06,0,0,1,.78-3.9Z"/><path d="M434.79,38.61A2.11,2.11,0,0,1,436.17,41a2,2,0,0,1-1.7-2.68Z"/><path d="M183.34,18.28a.92.92,0,0,1-.3-1.52l2.2,1a1.09,1.09,0,0,1-1.87.6Z"/><path d="M478.12,106.52a1.61,1.61,0,0,1,1.33-2.44,2.09,2.09,0,0,1-1.3,2.49Z"/><path d="M398.61,93.85a2,2,0,0,1-.93,2.15,5.12,5.12,0,0,1,0-3.7l.86,1.58Z"/><path d="M281.75,2.77a1.92,1.92,0,0,1-1-2.67,3.34,3.34,0,0,1,1.42,2.83Z"/><path d="M136.42,26.42a1.21,1.21,0,0,1-2,.59,1.86,1.86,0,0,1,.81-1.44c.52-.25,1.29.35,1,.82Z"/><path d="M157,292.81a1.59,1.59,0,0,1,2.09,1.36,1.87,1.87,0,0,1-2.43-1.39Z"/><path d="M64.74,287.73a2.67,2.67,0,0,1,2-1.19,1.56,1.56,0,0,1,0,2l-1.8-.79Z"/><path d="M281.29,4.86a1.9,1.9,0,0,1-2.73.5c0-1,1.57-1.06,2.55-.66Z"/><path d="M499.45,63.53a1.8,1.8,0,0,1-.26,1.54,2.31,2.31,0,0,1-1.61-.27c0-.95,1.18-1.89,1.89-1.27Z"/><path d="M218.93,134.27a1.25,1.25,0,0,1-.62-1.82l2.15,1a2.36,2.36,0,0,1-1.55.93Z"/><path d="M244.63,117.85l-.7-1.1,1.58-1.57a1.62,1.62,0,0,1-.65,2.4Z"/><path d="M360.46,23.25l-2.12-1A2.38,2.38,0,0,1,360,21.13l.64,1.84Z"/><path d="M69.5,279.08,72.62,278a2.58,2.58,0,0,1-2.79,1.64Z"/><path d="M496.29,127.94a2.1,2.1,0,0,1-.24,2.69,2.26,2.26,0,0,1-.88-1.51l1-1.41Z"/><path d="M418.24,85.16c.37-1.18,2.07-1,3.25-.65a3.19,3.19,0,0,1-3.1.82Z"/><path d="M326.57,15.54c1,.06,1.86,1.32,1.15,2l-2-1.69c-.4-.35.62-.68.88-.21Z"/><path d="M207.77,16.78c.95,0,1.85,1.2,1.24,1.92-.94,0-1.84-1.18-1.23-1.89Z"/><path d="M426.8,102.18a1.59,1.59,0,0,1,2.24-.3,1.38,1.38,0,0,1-2.41.39Z"/><path d="M240.28,14.64l-.44-1.56a3.19,3.19,0,0,1,2.25,1.58,1.57,1.57,0,0,1-1.87,0Z"/><path d="M441.14,93.09l1-1.43a1.9,1.9,0,0,1,1,1.54,1.64,1.64,0,0,1-1.91.07Z"/><path d="M373.55,122.51c-.87.24-2.24.09-2.11-.81a1.35,1.35,0,0,1,2.2.9Z"/><path d="M377.31,33.5c-.55-.33,0-1.29.61-1.29a2.26,2.26,0,0,1,1.55,1,3.35,3.35,0,0,1-2.17.23Z"/><path d="M288.49,2.31A2.89,2.89,0,0,1,290.24,5a3,3,0,0,1-1.78-2.74Z"/><path d="M267.8,124.52c.51-.39,1,.68.59,1.16a3.71,3.71,0,0,1-2.18-.22,2.28,2.28,0,0,1,1.57-1Z"/><path d="M188.92,108.2l-1.57.23a3.08,3.08,0,0,1-.34-1.67,1.27,1.27,0,0,1,1.65,1.29Z"/><path d="M343.88,19.25c.95,0,1.85,1.2,1.24,1.92-.94,0-1.84-1.18-1.23-1.89Z"/><path d="M179.31,95.4a1.65,1.65,0,0,1,.6-2.41,1.62,1.62,0,0,1-.57,2.51Z"/><path d="M286.06,147.07c.33-.55,1.29,0,1.29.61a2.26,2.26,0,0,1-1,1.55,3.35,3.35,0,0,1-.23-2.17Z"/><path d="M204.09,103.41c-1,.2-1.67-1.69-.65-1.71a1.22,1.22,0,0,1,.64,1.75Z"/><path d="M184.93,113.29a.9.9,0,1,1,1.46-.88,2.18,2.18,0,0,1-1.52.91Z"/><path d="M177.58,16.89l1.06-.76a2.61,2.61,0,0,1,1,1.64,3.66,3.66,0,0,1-1.84-.66Z"/><path d="M250.93,201.27a3.05,3.05,0,0,1,.17-3.17,3.74,3.74,0,0,1,0,3.08Z"/><path d="M341.77,17.11c-.38-.52.7-1,1.15-.58a1.73,1.73,0,0,1-.39,1.68l-.94-.94Z"/><path d="M287.81,95.63a1,1,0,0,1-1.74-.52,1.06,1.06,0,0,1,1.82.57Z"/><path d="M140.54,4.4A1.66,1.66,0,0,1,139,6.18a1.28,1.28,0,0,1,1.34-1.72Z"/><path d="M305.37,86.68c.2-.42.9.12.7.54s-.75.51-1.21.54c-.85,0-.4-1.72.33-1.29Z"/><path d="M20.2,27.58l-2.11-1a1.31,1.31,0,0,1,2.27.71Z"/><path d="M297.09,4.1a1.27,1.27,0,0,1-1.78.68c-.32-.82,1.13-1.1,1.91-.7Z"/><path d="M143.81,23.26c-.27-.64,1.16-.57,1.11.12s-.85,1-1.52,1.21a.75.75,0,0,1,.4-1.21Z"/><path d="M187.7,17.79a1.31,1.31,0,0,1-1.8-.66,1,1,0,0,1,1.76.62Z"/><path d="M49.41,34.14c-.8.32-1.13-1.08-.71-1.82a1.37,1.37,0,0,1,.73,1.84Z"/><path d="M119,10.34c.37.28-.26.87-.65.64s-.45-.78-.46-1.24c.3-.54,1.34,0,1.07.56Z"/><path d="M366.51,23.19l1.79.69a2.1,2.1,0,0,1-1.48.48c-.52-.11-.87-.88-.43-1.19Z"/><path d="M388.5,24.22a.73.73,0,1,1-1,.7l.82-.83Z"/><path d="M116.2,297.65c-.68.24-1.71-.19-1.51-.89a1.09,1.09,0,0,1,1.66,1Z"/><path d="M183.34,139c.18.62-.84,1.13-1.23.61,0-.46.07-1,.47-1.23s1,.38.63.64Z"/><path d="M144.13,104.05c-1.08.14-1.56-1.31-1.64-2.4-.28-4-.25-8.77,3-11.17a5.94,5.94,0,0,1,3.27,5.94,4.94,4.94,0,0,0-3.6,1c0,1.89,1.25,3.88,3.12,4.11s3.71-2,2.78-3.64c1.42-.27,2.44,1.63,1.95,3s-1.84,2.18-3.1,2.89c.12,2.08.07,4.56-1.66,5.74-2.26,1.54-5.28-.51-6.81-2.78a2.84,2.84,0,0,1,4.17-.51,3.73,3.73,0,0,0,.26,2.23,3.08,3.08,0,0,0,2.07-1.61A3.55,3.55,0,0,0,144.13,104.05Z"/><path d="M139.62,124.78c1.15-1.82-1.19-3.87-3.24-4.54s-4.68-1.66-4.62-3.82a16.44,16.44,0,0,1,5.86,1,5.58,5.58,0,0,1,3.53,4.47,18.76,18.76,0,0,0,4.74,11.37L129.63,125l6.62.4a3.18,3.18,0,0,0-3.35-1.52,2.72,2.72,0,0,1-.32-1.71,7.51,7.51,0,0,1,7,2.62m-2.1,1.88a6.84,6.84,0,0,0,3.61,2.7,3.21,3.21,0,0,0-3.76-3.12Z"/><path d="M41.92,235.49c1.33-.44,2.77.71,3.15,2.06a7.9,7.9,0,0,1-.34,4.15,6.62,6.62,0,0,0,4-8.48c-.5-1.21.79-2.54,2.09-2.61A6.23,6.23,0,0,1,54.38,232L43,248.27a5.87,5.87,0,0,0-3.5,6c-2-.82-2-3.78-.81-5.6s3-3.19,3.84-5.17C43.58,241,42.76,238.11,41.92,235.49Z"/><path d="M27.84,176.9c.94-.81,2.55-.11,3,1.06a4.13,4.13,0,0,1-.68,3.53,9.17,9.17,0,0,1-6.24,4.11c-.86.13-2.06-.17-2-1,1.06-1.2.6-3,.42-4.62s.52-3.7,2.12-3.63C25.66,176.36,26.94,177.69,27.84,176.9Z"/><path d="M98.78,131.32a2.29,2.29,0,0,0-2.72-2.5,18.56,18.56,0,0,1,.1,7.12c-.58,2.32-2.3,4.52-4.66,4.91a4.8,4.8,0,0,1,.87-5.92,11.67,11.67,0,0,0,2.14-1.82c.53-.77.4-2.12-.52-2.34-1.2-.28-2.47,1.58-3.39.76a2.14,2.14,0,0,1,1-2.67,6.21,6.21,0,0,1,3-.64l4.15-.17a6.57,6.57,0,0,1,3.37.46,2.26,2.26,0,0,1,1.16,2.87A4.26,4.26,0,0,0,98.78,131.32Z"/><path d="M101,118a4.68,4.68,0,0,0-4.15-.8l2.27,2.27L87,117.26c0-.94,1.23-1.29,2.16-1.37,5.65-.46,11.88-.76,16.39,2.68a4.74,4.74,0,0,0,2.27,1.25c.87.08,1.85-.82,1.44-1.6.71-.18,1.2.82,1,1.51l-4.61,4.08a4.34,4.34,0,0,0-5.24-3.76Z"/><path d="M32.85,127.45a1.64,1.64,0,0,1,1.24.34,1.71,1.71,0,0,1,.34,1.13l.42,8c.19,3.63,0,8-3.13,9.84a15,15,0,0,1,1-5.06,7.17,7.17,0,0,0,0-5.07c-.76-1.55-3-2.46-4.29-1.35-.65-.59,0-1.72.78-2s1.75-.25,2.54-.63,1.23-1.64.48-2.08a3.5,3.5,0,0,0-3.24.18,3,3,0,0,0-2.17-2.21A19.7,19.7,0,0,1,32.85,127.45Z"/><path d="M50.61,243.62c.34-1.88,1.1-4,2.92-4.58C57,238,58.36,233,56,230.28a3.05,3.05,0,0,1-.83-1.22c-.11-.49.28-1.11.77-1a14.94,14.94,0,0,1,3.61,5.27c.66,2,.23,4.6-1.56,5.78-1.16.76-2.67.84-3.83,1.6-3.84,2.51-.75,9.3-3.8,12.72A32.52,32.52,0,0,1,50.61,243.62Z"/><path d="M52.25,169.1A4.7,4.7,0,0,1,54,165.27c-2.36.39-4.86.84-7.07-.06s-3.8-3.76-2.48-5.75l1.3-.44c.16,2.18,2.94,3,5.12,3s4.9.27,5.73,2.29A5.84,5.84,0,0,0,54,168.79Z"/><path d="M158.75,108.63c.86.68-.19,2-1.2,2.44s-2.33,1.19-2,2.22c1.05,3-3.9,5.32-3.37,8.43.26,1.52,1.54,3.63.09,4.16a11.56,11.56,0,0,1-.68-9.21c1-2.87,3.23-5.83,2.06-8.65A3.53,3.53,0,0,0,158.75,108.63Z"/><path d="M9,110.51l-4.43-4.94-2.6-1L3.11,103c.91-.71,2.26.13,2.82,1.15s.77,2.25,1.62,3,2.69.47,2.61-.68c-.06-.91,1.27-1.36,2-.85a3.1,3.1,0,0,1,1,2.42l-2.36.65a18,18,0,0,0,.64,11.37,11.42,11.42,0,0,1-3.38-3.94c-.68-1.61-.44-3.76,1-4.72C9.44,111.24,9.22,110.78,9,110.51Z"/><path d="M29.24,168.4l2.19,1.2,1.55-.91a22.33,22.33,0,0,0-4.76-6.36L29.87,161c.12,2,2.16,3.3,4.07,3.93s4,1,5.4,2.47a3,3,0,0,1-4.66.31,4.32,4.32,0,0,0-.45,2.9A3.35,3.35,0,0,1,29.24,168.4Z"/><path d="M8.17,126.54l3.36.42A69.08,69.08,0,0,1,8.91,139l-2,6.26-.12-9.51a5.22,5.22,0,0,1,.43-2.64,1.79,1.79,0,0,1,2.27-.87Z"/><path d="M2.76,161.89Q1.85,157,1.39,152a3.44,3.44,0,0,1,.28-2.17c.4-.63,1.42-.89,1.87-.3a24.34,24.34,0,0,1,1.25,13.15Z"/><path d="M32.6,233.24a8,8,0,0,1,6.32,3.11,3.9,3.9,0,0,1,.92,2.38,14.15,14.15,0,0,1-9-2.88A2.89,2.89,0,0,0,32.6,233.24Z"/><path d="M25.55,109.63l-4.5.14a4.73,4.73,0,0,0-6.34,3.07c-.89-.69-1.89-1.81-1.32-2.79,1.8-3.31,6.63-2.85,10.28-1.92C24.51,108.35,25.52,108.77,25.55,109.63Z"/><path d="M10,204.88,8.18,204a33.4,33.4,0,0,1,.69-3.75c-1,.16-1.4-1.33-1.32-2.38l.93-12.43a25.32,25.32,0,0,1,.79,13.55l2.09,1.2-1.92,1.3A2.85,2.85,0,0,1,10,204.88Z"/><path d="M13.72,244.26A66.62,66.62,0,0,1,26.61,243c1,0,2.14.15,2.55,1A32.64,32.64,0,0,1,13.72,244.26Z"/><path d="M144.93,113q3.26-.89,6.55-1.68a9.31,9.31,0,0,1-5.49,5.8A8.28,8.28,0,0,1,144.93,113Z"/><path d="M18.72,174.14l.23-2.07c2.16,1.6,5.14.25,7.74-.46.82-.22,1.86-.31,2.37.38a1.59,1.59,0,0,1-.7,2.18,4.62,4.62,0,0,1-2.53.34Z"/><path d="M4.62,210c1.85,3.16,1.17,7.13.43,10.72A3.11,3.11,0,0,1,3.82,223,48.05,48.05,0,0,1,4.62,210Z"/><path d="M119.09,135.49a1.2,1.2,0,0,1,.83-1.55,3.2,3.2,0,0,1,2,.23,27.92,27.92,0,0,1,7.07,3.7,16.82,16.82,0,0,1-9.1-1.75A1.66,1.66,0,0,1,119.09,135.49Z"/><path d="M138.77,140a9.79,9.79,0,0,1-10.58,1.73Q133.46,140.76,138.77,140Z"/><path d="M7.82,172.64l.65-8,2.18,2.76a17,17,0,0,0-1.54,6.8C8.45,174.85,7.74,173.53,7.82,172.64Z"/><path d="M138.52,92.9a6.42,6.42,0,0,1-2.91,5.33c-1.69-2,.3-5.62,2.86-5.26Z"/><path d="M51.64,119.06a19.21,19.21,0,0,1-6.3,5.91,6.86,6.86,0,0,1,6.3-5.91Z"/><path d="M38.1,125.43l1.34-11.91a5,5,0,0,1,.57-2.13v8.07C40,121.63,39.84,124.13,38.1,125.43Z"/><path d="M135.38,132.49a24.57,24.57,0,0,1-5.89-.27,5.66,5.66,0,0,1,7.47-.05,2,2,0,0,1-1.56.32Z"/><path d="M11.64,120a9.05,9.05,0,0,0,4,5.83A22,22,0,0,1,12,126.91Z"/><path d="M150.85,95.15a11.53,11.53,0,0,1,.87-5.34,3.61,3.61,0,0,1-.23,5.76Z"/><path d="M31.19,150.86a5,5,0,0,1,.15,4.68,2.39,2.39,0,0,1-.71-2.93,2.47,2.47,0,0,1-2-1.8,1.59,1.59,0,0,1,2.24.26Z"/><path d="M3.93,242.32a9.92,9.92,0,0,1,.3-4.06l1.36,6a2.1,2.1,0,0,1-2.94.52l1.24-2.47Z"/><path d="M54,225.63l.4,1.64a4.27,4.27,0,0,1-2.87-4.14,1.65,1.65,0,0,1,1.5-.25,4.94,4.94,0,0,1,1,2.74Z"/><path d="M28.69,87a45.94,45.94,0,0,1-6.42.84c-.84,0-2-.22-2-1.07A49.51,49.51,0,0,1,28.69,87Z"/><path d="M17.79,252.23a9.87,9.87,0,0,1-7.23-.53A10.7,10.7,0,0,1,17.79,252.23Z"/><path d="M29.28,168.39l-1.66,0a2,2,0,0,1-2.06,2.29,3.52,3.52,0,0,1,1-3.12c.89-.71,2.56-.33,2.69.8Z"/><path d="M21.57,73.7A12.4,12.4,0,0,1,18.35,70a8.49,8.49,0,0,1,5.22,4.74,1.65,1.65,0,0,1-1.91-1.11Z"/><path d="M117.45,130.63a6.07,6.07,0,0,1-2.86-2.1,3.27,3.27,0,0,1,4.34,1.22,2.18,2.18,0,0,1-1.5.89Z"/><path d="M146.52,88.59l-.78-1.53a1.83,1.83,0,0,1,2-1.58l.92,2.18a2.15,2.15,0,0,1-2.16.92Z"/><path d="M65.11,161.11a7.23,7.23,0,0,1-4.2-3.7A4.72,4.72,0,0,1,65.26,161Z"/><path d="M5.78,188.5a4.82,4.82,0,0,1-1,3.35A3.73,3.73,0,0,1,4.94,187l.92,1.47Z"/><path d="M58.36,220.05v3.82a1.85,1.85,0,1,1,0-3.68Z"/><path d="M13.36,117.1a3,3,0,0,1-1.19-3.3,4,4,0,0,1,2.26,1.83c.38.92-.4,2.26-1.35,2Z"/><path d="M4.82,177.08a16.14,16.14,0,0,1,.27,7.6A14.23,14.23,0,0,1,4.82,177.08Z"/><path d="M135.67,113.1a2,2,0,0,1,1.21,2.14,7.22,7.22,0,0,1-3.62-2.87,1.61,1.61,0,0,1,2.36.68Z"/><path d="M6.08,207.92c-.73.64-2,0-2.22-1a4.33,4.33,0,0,1,.56-2.79,6.19,6.19,0,0,1,1.22,3.54Z"/><path d="M43.9,257.47a1.46,1.46,0,0,1-.79,1.89,4.06,4.06,0,0,1-.5-4.35,3.12,3.12,0,0,1,1,2.47Z"/><path d="M32.31,80.71,30.56,77a4.2,4.2,0,0,1,2.84,3.51Z"/><path d="M34.14,174.86a1.23,1.23,0,0,1-1.77.66,5.93,5.93,0,0,1,.31-2.82,1.7,1.7,0,0,1,1.48,2.17Z"/><path d="M38.75,171.2c.07-.51,1-.24,1,.27s-.49.87-.92,1.15a3.65,3.65,0,0,1-2.25.8c-.81-.09-1.53-1-1.1-1.71l3.1-.43Z"/><path d="M4.44,200.9c0-1.07,1.59-1.08,2.58-.69a1.35,1.35,0,0,1-.88,1.7,1.35,1.35,0,0,1-1.62-1Z"/><path d="M146.83,124.16a2.52,2.52,0,0,1-1.57.93,3.44,3.44,0,0,1-.26-2.18,2.05,2.05,0,0,1,1.53-.3,2,2,0,0,1,.28,1.54Z"/><path d="M16.29,132.62a1.84,1.84,0,0,1,.23,3.67,3.85,3.85,0,0,0-.11-3.55Z"/><path d="M24,165.2a2.05,2.05,0,0,1,1.24,2.57,2.13,2.13,0,0,1-1.61-.29l.13-2.19Z"/><path d="M133.61,135.64c.14-.29.65,0,.62.28s-.35.53-.65.65a4,4,0,0,1-2.86,0,2.45,2.45,0,0,1,2.79-.93Z"/><path d="M24.68,128.82a2,2,0,0,1-3.46.23,8.86,8.86,0,0,1,3.42-.24Z"/><path d="M15.37,131.88c-.67.32-1-.81-.91-1.54a1.32,1.32,0,0,1,1.8,0,1.09,1.09,0,0,1-.89,1.53Z"/><path d="M39.5,96a2.35,2.35,0,0,1-.64-3.08,2.38,2.38,0,0,1,.65,3.1Z"/><path d="M38.2,242.05c-.59-.78,1.12-1.75,1.49-.85.71.72-1.13,1.77-1.4.8Z"/><path d="M33,244.39c-.66.33-1-1.05-.3-1.35s1.42.19,2,.64a.94.94,0,0,1-1.69.44Z"/><path d="M11.36,146.62c1.24-.14,1-2.5-.26-2.36S10.12,146.76,11.36,146.62Z"/><path d="M2.37,84.25a3.69,3.69,0,0,1,0,3.11,1.79,1.79,0,0,1,.14-2.9Z"/><path d="M31.6,146.83a1.76,1.76,0,0,1-.73,2.46,1.61,1.61,0,0,1,.86-2.52Z"/><path d="M39.2,82.64a1,1,0,0,1-.35-1.52c.91,0,1.2,1.72.29,1.68Z"/><path d="M13.79,136.6a1,1,0,0,1,.35,1.52c-.91,0-1.2-1.72-.29-1.68Z"/><path d="M77.59,171.84a4.18,4.18,0,0,1,4.34-.66,3.92,3.92,0,0,1-4.37.57Z"/><path d="M192.29,170.82c.93.07,1.87,1.18,1.24,1.88-1.23.13-3-.32-2.77-1.53a2,2,0,0,1,1.54-.28Z"/><path d="M192.64,197c1.13.46.55,2.22-.38,3a2.33,2.33,0,0,1,.5-2.66Z"/><path d="M211.11,188.1a6.51,6.51,0,0,0,2.53-3.15,5.19,5.19,0,0,1-2.56,6.18,8.74,8.74,0,0,1-1.76-3.29l1.51-.36Z"/><path d="M209.93,144.25a3.84,3.84,0,0,1-3.15-1.59,2,2,0,0,1,3.12,1.6Z"/><path d="M116.48,100a1.87,1.87,0,0,1-.22,1.49c-.54-.35-1.15-.84-1.07-1.48s1.36-.62,1.15,0Z"/><path d="M78.13,67.32a1.84,1.84,0,0,1-1-2.31c.93-.17,1.15,1.26.93,2.19Z"/><path d="M351.83,281.66a37.51,37.51,0,0,1-2.87-9.73,3.42,3.42,0,0,1,2.26,2.88l3.76-.22A13.69,13.69,0,0,0,351.83,281.66Z"/><path d="M68.65,202.51c.4-.35,1,.43.66.86a1.35,1.35,0,0,1-1.48.25,1,1,0,0,1,.77-1.11Z"/><path d="M376.42,240.47a2.12,2.12,0,0,1-2.88,2.09,14.59,14.59,0,0,1-.26-4.57,2.24,2.24,0,0,1,1.62-.3,3.62,3.62,0,0,0,1.46,2.78Z"/><path d="M322.29,255.88a8.74,8.74,0,0,1-2.36,4.27c-1.93-2-.44-6,2.31-6.23.81.31,1.08,1.69.27,2Z"/><path d="M311.75,258.6a19.34,19.34,0,0,1-4.22-1.84c1.63-2,4.87-.39,6.84,1.32a1.27,1.27,0,0,1-2.33.47Z"/><path d="M326.27,254.88l-1.45,0a3.28,3.28,0,0,1,.51-5.42l1.47,5.09Z"/><path d="M386.26,246a8.43,8.43,0,0,1-4.65.73c.65-1.17,2.15-1.52,3.15-2.4s.86-3.13-.46-3l3.56-1a2.77,2.77,0,0,1,1.88-.1c1.07.47,1,2.17.15,2.95a4.15,4.15,0,0,1-3.34.66A3.57,3.57,0,0,0,386.26,246Z"/><path d="M315.74,242.93a1.72,1.72,0,0,1,.59,1.85l-2.8,1a2.13,2.13,0,0,1,2.2-2.72Z"/><path d="M271.71,257.54a5.75,5.75,0,0,1,.51,4.18,2.53,2.53,0,0,1-.5-4.36Z"/><path d="M271.85,257.46c-.42-.83.64-1.65,1.55-1.84a1.36,1.36,0,0,1-1.58,1.81Z"/><path d="M302.78,133.77a1.23,1.23,0,1,1,.25-2.4,1.35,1.35,0,0,1-.31,2Z"/><path d="M303.41,61.68c-.17-.68.17-1.74.82-1.49a3.44,3.44,0,0,1,.73,3.65,4.28,4.28,0,0,1-1.63-2.17Z"/><path d="M314.51,52.41l1.56-.91A2.26,2.26,0,0,1,317,53a2.39,2.39,0,0,1-1.54.92,2.35,2.35,0,0,1-.92-1.54Z"/><path d="M288.85,62c.14-.63,1.33-.42,1.25.22a5.55,5.55,0,0,1-5.24,4.29,10.87,10.87,0,0,1,3.93-4.57Z"/><path d="M436.84,77.25a1.38,1.38,0,0,1-.79,2.09A7.69,7.69,0,0,1,436,75a2.05,2.05,0,0,1,1,2.16Z"/><path d="M293.85,59.48a.83.83,0,1,1-1.53-.23.81.81,0,0,1,1.37.3Z"/></g></svg>