<svg id="Layer_1" data-name="Layer 1" xmlns="http://www.w3.org/2000/svg" viewBox="0 0 500 500"><title>Artboard 11</title><g id="Shape_15" data-name="Shape 15"><path d="M215.86,379.77c1.32,0,2.31,1.16,3.24,2.11s2.25,1.86,3.48,1.35.73-3-.49-2.47a77.31,77.31,0,0,0,17.52,11.7L252.68,389c2.12,1-.81,4-3.11,3.66s-5.68-.62-6,1.69l21.33.6c2.18.06,4.82-3,2.66-3.27,3.83,3.91,11.9-.71,10.48-6l10.25-5.19.78-4.2a7.5,7.5,0,0,0-8.11,6.13l-1.63-8.68c5.09.87,10.35-.59,14.92-3,13.64-7.15,21.54-21.6,28.67-35.25l17.31-33.18A142.05,142.05,0,0,1,319,350.69c-1.46,2.13-2.93,5.19-1.09,7-7.55,3.82-10.87,12.55-15.29,19.76-13.78,22.44-44.55,32.66-69,22.9A54.64,54.64,0,0,1,222,394a53.08,53.08,0,0,1-16.67-19.7c-3.12-6.37-5.36-13.86-11.43-17.53a11.64,11.64,0,0,0-5.87-13.54,167.37,167.37,0,0,0,4.76,59.32,2.42,2.42,0,0,0,3.28-2.43,16.84,16.84,0,0,0,9.19,8.23l-.38,4.43a2.82,2.82,0,0,1,3.86,2c-1.56-2.54-5.62-.68-7.25,1.82s-3.06,5.83-6,6.14l8.06-.07-4.86,2.42a23.45,23.45,0,0,1,9,1.45c1,2.63-4.59,3.77-4.75,1a12.07,12.07,0,0,1-14.38,4.55c-1.2-.5-2.45-1.4-2.53-2.7s1.88-2.37,2.56-1.26a4.65,4.65,0,0,0-4.33-2.18,105.15,105.15,0,0,0,1.19,25,27.19,27.19,0,0,1-.38-8.8,31.53,31.53,0,0,1,5.45,13.06,23.08,23.08,0,0,1,7.09,8.64L193.05,465a16.94,16.94,0,0,1,13.19,8.43c-1.18,3.95-7.1,5.38-10,2.4a9.58,9.58,0,0,0,8.18-2,8,8,0,0,0-6.92-5.52l1.27,4.15-8.8-6.84c2.8,7.31,5.71,14.79,10.92,20.62s13.33,9.74,20.91,7.79c4.25-1.09,7.85-3.85,11.32-6.54,23.28-18.06,47.5-37.3,59.06-64.4,1.11-2.6,2.15-5.33,4.18-7.29a141.16,141.16,0,0,0,33.37-49.71c3.16-8,4.2-19.55-3.74-22.84,4-1.29,8.27.73,12,2.7l77.51,40.81c3.81,2,7.79,4.17,10.07,7.81,2.42,3.87,2.48,8.71,2.48,13.27L428,500H71.89l0-146.52a980.5,980.5,0,0,0,105.17-24c3-.87,6.81-3.06,5.83-6.06a197.34,197.34,0,0,1-9.37-49.7,253.58,253.58,0,0,0,24.77,72.72,88.56,88.56,0,0,0,23.52,28.43,7.35,7.35,0,0,0-6,4.91M201.76,408c-3.19-.63-6.61-1.39-8.78-3.81l-1.06,4.63c-.2.89.2,2.32,1,1.91.6-.3.35-1.21.62-1.82.36-.82,1.55-.83,2.36-.46a8,8,0,0,0,2.42,1.11,3.05,3.05,0,0,1,3.42-1.57m-11.92,9a1.86,1.86,0,0,0,3.26-1.74c-.3-.79,1.08-1,1.86-.63l4.39,1.92c.66-.65-.2-1.7-1-2.12a12.17,12.17,0,0,0-7.13-1.17L189.84,417m-.4,9.13a2.72,2.72,0,0,0,1.24,1.24c.56.2,1.34-.18,1.29-.77a1.36,1.36,0,0,0-.37-.7,6.3,6.3,0,0,0-2-1.86,2.15,2.15,0,0,0-2.55.37l2.19,1.78M229.61,392a1.89,1.89,0,0,0,2.66-1.75,8.11,8.11,0,0,0-3.29-1.16,2.26,2.26,0,0,0,.64,2.89m-41.46,69.4a2.44,2.44,0,0,0,1.66,2.9,31.33,31.33,0,0,0-2.22-7.28,4.05,4.05,0,0,0,.58,4.28m3.79,1.34a5.83,5.83,0,0,0,.56-3.06c-.8-.73-1.82.64-2,1.71s-.09,2.52,1,2.58l.69-1.13m92.94-75c.74.08,1.68,0,2-.65a2,2,0,0,0-3.44,0,1.36,1.36,0,0,0,1.48.61M198.61,411a2.15,2.15,0,0,0,2.76,1.83,2.25,2.25,0,0,0-2.7-2m-1,18.16,1.06-.86-3-1.42a1.71,1.71,0,0,0,1.86,2.11m-4.18,1.58a1.17,1.17,0,0,0-1.78-.9,2.24,2.24,0,0,0,1.11,2.4,1.42,1.42,0,0,0,.63-1.5m2.66-11.9a1.46,1.46,0,0,0-1.8.31,1.18,1.18,0,0,0,.31,1.71l1.36-1.76m85.39-44a1.19,1.19,0,0,0,1.82.89,1.19,1.19,0,0,0-1.82-.89Z"/><path d="M273.12,247.17a5.06,5.06,0,0,0,2.7,1.94l0-2.77c2.62,1.87,6.24.71,9.22-.5l9.32-3.8-2-.94,5.13-1,20.5-4.09a2.26,2.26,0,0,1-2.69-1.89,82.87,82.87,0,0,1,13.82,1c-.84,3.57-4.06,6.18-7.54,7.33s-7.23,1.07-10.89,1c-.52,1.35,1.65,2,3.1,1.82a35.06,35.06,0,0,1,16.7,2.45c2.13.87,4.35,2.17,5.06,4.35s-1.25,5.11-3.43,4.4c1,.38.34,2.15-.74,2.17s-1.89-1-2.4-1.9a6,6,0,0,0-1.85-2.59,13.57,13.57,0,0,1-7.15,7l5.27-6.81a2,2,0,0,0,.59-1.41,1.94,1.94,0,0,0-1-1.23,22,22,0,0,0-7.51-3c.64,5.19-2.57,10.84-7.62,12.18s-11.05-2.72-11-7.95c0-1.33.31-2.9-.66-3.82-2,1.2-4.17,2.54-5.08,4.71s.25,5.3,2.6,5.43a8.67,8.67,0,0,1,6.57,3.68l-15.83-3.32c-1.73-.36-3.73-.94-4.38-2.59a13.32,13.32,0,0,0-10.84-8.2l2.09-1.64m17.1,9.7a3.24,3.24,0,0,0-4.9-1.46c-.43.35-.76,1-.43,1.44l5.32,0m24.61-6.68-.6-1.11c-.75-.35-1.6.5-1.58,1.33a3.69,3.69,0,0,0,1.12,2.15,2.29,2.29,0,0,0,1.12-2.41M304,251.25a1.31,1.31,0,1,0-2.26.57,1.42,1.42,0,0,0,2.21-.6M289.5,246a3.35,3.35,0,0,0-1.37,1.75,7.3,7.3,0,0,0,4.45-2.44,3.43,3.43,0,0,0-3,.74m29.25-5.53a1.72,1.72,0,0,0,2.71-1,1.89,1.89,0,0,0-2.56.95m8.53,9.46,1.37.9a1.41,1.41,0,0,0-.4-1.75c-.57-.32-1.44.45-1,.95Z"/><path d="M223,250.06c-1.51,5.07-7.53,8.39-12.54,6.7s-7.76-8.28-5.2-12.91c.54-1-1.17-1.61-2.27-1.4a23.16,23.16,0,0,0-12.67,7.21c-.37.41-.46,1.35.08,1.24a7.92,7.92,0,0,1-7.14-5.09,10.78,10.78,0,0,0,3.82,1.14,1.81,1.81,0,0,0,1,2,17.85,17.85,0,0,1,7.17-7.57,6,6,0,0,0-5,1.38,8.8,8.8,0,0,1-1.88,1.58,1.53,1.53,0,0,1-2.1-.6A1.9,1.9,0,0,1,187,242a9,9,0,0,1,9.84-1.91,32.1,32.1,0,0,0,9.57-1.16,17.06,17.06,0,0,1-8.22-4.06,10.67,10.67,0,0,0-2.73-2.11,2.58,2.58,0,0,0-3.13.62l2.91,2.89-5.53-2.67a5.6,5.6,0,0,1,2.4-2,4,4,0,0,0-4.26-.2c-.64-.09-.71-1.1-.22-1.52a2.57,2.57,0,0,1,1.85-.36l13.1.82a8.88,8.88,0,0,1,4.28,1,28.57,28.57,0,0,0,13.35,4.38c1.39.09,3.25.56,3.18,1.94-2.37-.29-5.56.05-6,2.39a.73.73,0,0,0,1.35.09,8.43,8.43,0,0,1,8.44.29,10.78,10.78,0,0,0,2.12,1.28c1.29.46,2.7.07,4.06.11s3,.88,2.91,2.24a5.23,5.23,0,0,1-5.41-.54c-1.09.77.49,2.22,1.67,2.85a7,7,0,0,1,3.52,4.92,2.07,2.07,0,0,0,1.64-2.14,2.5,2.5,0,0,1-3.87,3.16,3.12,3.12,0,0,0-4.73.33L227.5,251c-.82,1.22.12,3,1.47,3.57a7.6,7.6,0,0,0,4.35.05c.81-.15,1.26,1.11.75,1.77a3.15,3.15,0,0,1-2.24.9l-12.34,1.44a8.13,8.13,0,0,1,3.2-2.53l2.86-7.89c-.27-.62-1.23-.59-1.72-.12a4,4,0,0,0-.83,1.82m-13.53-3.63a1.45,1.45,0,0,0-2.63.18c.31,1.38,2.82,1.22,3-.18m-8.15-12.55c.71-.3.34-1.53-.42-1.7a2.81,2.81,0,0,0-2.12.74,2.33,2.33,0,0,0,2.44.61m5.1-.58-1.11-.65a1.47,1.47,0,0,0-.62,1,1.18,1.18,0,0,0,1.82-.39Z"/><path d="M288.32,344.06a21,21,0,0,1,6.73,2.84l-3.47,3.17a6.86,6.86,0,0,0,6.13,0l-2.62-1.84c3.14-1.13,6.81,2.44,5.78,5.61l-5.09.17A2.92,2.92,0,0,0,299,355.6a7.76,7.76,0,0,0,.14,5.8c-1.88.81-3.94-.68-5.22-2.27s-2.52-3.51-4.51-4c-3.24-.73-6.3,2.92-9.52,2.13-3.42-.84-7,.36-10.37,1.24a57.12,57.12,0,0,1-35.41-2.41c-.76-.31-1.47.48-2.13,1-2.66,2-6.23-.67-8.57-3s-6.46-4.54-8.59-2c-1.48,1.78-4.67-.31-4.59-2.62s2-4.1,3.73-5.61c3-2.6,7.82-5.16,10.53-2.22a9.46,9.46,0,0,0-8.94,6.93c3-2.12,7.74-4,9.94-1l-5.35.64c6.79,4.32,15.71,1.54,23.67,2.73,2.83.43,5.56,1.37,8.38,1.85a51.65,51.65,0,0,0,11.54.2l21.69-1.24c1.33-.08,2.8-.21,3.74-1.16s.71-3-.61-3.18l-2.3,2,2.12-5.35m3.83,9.28a2.9,2.9,0,0,0-1.13,1.56,6,6,0,0,0,2.43.17l.61-1.56a1.17,1.17,0,0,0-1.85-.12m-60.8,1.44a1,1,0,0,0-1.31.49,1.44,1.44,0,0,0,1.51.65.7.7,0,0,0-.24-1.06Z"/><path d="M161.1,224.65a25.42,25.42,0,0,0,4.52,16.12c1.59,2.27,3.67,5,2.45,7.5l-3.76-4.06a18.89,18.89,0,0,1,3.13,9.53,18.85,18.85,0,0,0,.35,4.19c1,3.77,5.54,6.92,4.1,10.55-1.16-2.73-2.66-5.3-3.88-8a87.31,87.31,0,0,1-3.83-10.9c-2.81-9.29-5.62-18.6-7.25-28.17a115.82,115.82,0,0,1-1.61-17.23c-.06-3.31.45-7.33,3.47-8.7,3.33-1.52,7,1.45,8.93,4.56a27.3,27.3,0,0,1,2.9,22.12,43.37,43.37,0,0,0-3.3-15c.45.6-.58,1.39-1.25,1a2.78,2.78,0,0,1-1.12-1.88c-.82-2.86-3-6-6-5.51l.14-3.34c-2.3,1-2.65,4.2-1.69,6.5s2.79,4.15,3.76,6.44c1.86,4.41.22,9.41-.09,14.19m-2.86-6a10.16,10.16,0,0,0-.64-6.33A9.84,9.84,0,0,0,158.24,218.67Z"/><path d="M311.26,110a11.87,11.87,0,0,1-7.29-.12A7.48,7.48,0,0,1,299.7,105c2.45-1.3,5.09-2.64,7.85-2.32.76.09,1.66.27,2.2-.27a2.18,2.18,0,0,0,.47-1c1-3.3,1.92-6.68,1.74-10.12-.06-1.11,1.05-1.85,1.76-2.7s.63-2.63-.48-2.57c-1.3.07-1.26,2.61-2.56,2.66-1,0-1.22-1.43-1-2.44a1.54,1.54,0,0,1,2,.19c-.18-1.55,2.34-2.18,3.4-1s.89,3,.4,4.46a7.52,7.52,0,0,1,9.33,8.6A2.11,2.11,0,0,0,327,99c.74-.39.84-1.7.06-2a2.43,2.43,0,0,1,.55-4.71,6.07,6.07,0,0,0,3.52,7,4.48,4.48,0,0,1,2.63,5c-.24,1,1.22,1.51,2.28,1.51a2,2,0,0,1-3.91-.33,8.22,8.22,0,0,1,.11-1.48,3.91,3.91,0,0,0-6.72-3c-.59.61-1.7.1-2-.68a6.79,6.79,0,0,1-.2-2.51,6.21,6.21,0,0,0-4.58-5.7c-1.45-.36-3.24-.31-4-1.56-.74-.22-1.26.9-.87,1.57a3.47,3.47,0,0,0,1.92,1.19c2.46.94,4.77,3,4.82,5.65a7.4,7.4,0,0,0,2.44,5.3,4,4,0,0,0-2.05.91,2.56,2.56,0,0,0,1.79.31,2.24,2.24,0,0,1,3.14-1.58l5.36,2.93a2,2,0,0,1-2.31.93c-.92-.29-1.49-1.21-2.29-1.75s-2.27-.36-2.3.61a1.51,1.51,0,0,0,1.05.8c.21.81-.93,1.39-1.73,1.12a10.84,10.84,0,0,1-2.07-1.42c-1.35-.84-3.09-.68-4.6-1.2s-2.77-2.52-1.63-3.63a4.34,4.34,0,0,0,4.92,1.59,12.56,12.56,0,0,0-5.94-3.56c.19-1.87,3.85-2.38,3.24-4.15a1.55,1.55,0,0,0-2.12-.64,4.49,4.49,0,0,0-1.67,1.82,12.41,12.41,0,0,0-1.69,3.5,12.45,12.45,0,0,0,.5,5.9l.69,2.75a6.49,6.49,0,0,1,6.51.91c-1,1.06-2.81.86-4.22.39s-2.89-1.16-4.34-.81m-1.13-3.19a3.71,3.71,0,0,0-2.4-1.5c-1,0-1.87,1.26-1.18,1.93a4,4,0,0,0,2.57,1.46c1,0,2-1.26,1.3-2m-7.06.36a1.28,1.28,0,0,0,1.59,1.08,1,1,0,0,0,0-1.33l-1.56.09Z"/><path d="M364.6,225.59c-.25-2-.65-4.15-.11-6.14a13.41,13.41,0,0,1,1.17-2.68l2.18-4.13a3.53,3.53,0,0,1,.68-1,2.35,2.35,0,0,1,3.09.29,5.34,5.34,0,0,1,1.31,3.1c.81,5.41-1.15,10.8-3.08,15.91l-8.59,22.77c-1.52-.54-3,1-3.52,2.56s-.86,3.3-2.2,4.21a8.88,8.88,0,0,1,.86-6.79c1.06-2.09,2.56-3.92,3.82-5.89C364.32,241.31,365.55,233.24,364.6,225.59Z"/><path d="M286.14,359.32l.7-.38c.55,1.17-.38,2.57-1.54,3.14a20.67,20.67,0,0,1-3.76,1,7.94,7.94,0,0,0-4.39,3.12,1.5,1.5,0,0,1-1.32-1.32l-6.41,4.83c-.7.52-1.47,1.21-1.37,2.08.14,1.24,1.78,1.54,3,1.62s2.88.81,2.57,2q-8.72.72-17.48.63c-5.69-.06-11.45-.39-16.84-2.18a32.17,32.17,0,0,1-8.11-4,41.59,41.59,0,0,0,9.8,1.89c2.72.08,5.56-.35,8.07.7a4.1,4.1,0,0,0,2.58.62c4.87-1.38,10.54,2.28,14.91-.28a29.29,29.29,0,0,0-9.17-4.05c.16-1.14,1.75-1.32,2.85-1s2.39.83,3.3.13a76.59,76.59,0,0,1,9.7-6.39,2.41,2.41,0,1,0,4.75-.78c2.48,1.46,5.6.08,8.13-1.3M266.27,370c.66-.06.44-1.33-.21-1.19a.73.73,0,0,0,.24,1.09Z"/><path d="M271.39,346.59a2.91,2.91,0,0,1-1-1.34,1.08,1.08,0,0,1,.68-1.35c1.11-.22,1.53-1.59,1.53-2.71s-.17-2.38.52-3.28,2.6-.56,2.4.55a2.32,2.32,0,0,0,4,2,1.92,1.92,0,0,1,2.49,0,4.53,4.53,0,0,1,1.33,2.33c.85,2.85.41,6.68-2.37,7.75-1.81.7-3.85-.12-5.52-1.11a26.44,26.44,0,0,1-4-2.91m5.83-1.08a2.12,2.12,0,0,0,.56,3.56,8,8,0,0,1,1.91-4.39,2,2,0,0,0-2.36.79m-2-3.16a1.92,1.92,0,0,0-2.39,1.46,1.85,1.85,0,0,0,2.77-1.56m4.77.25a.92.92,0,0,0,1.3.47,1.43,1.43,0,0,0-.57-1c-.36-.19-.93.2-.71.55Z"/><path d="M257.65,346.67a5.32,5.32,0,0,1-2.87.39,1.83,1.83,0,0,1-1.46-2.15c.37-1.06,1.75-1.2,2.81-1.54s2-1.88,1-2.43l-4.25,1.68q1.25-2.16,2.64-4.23a3.17,3.17,0,0,1,1.51-1.42c.67-.21,1.58.25,1.51,1a4.41,4.41,0,0,0,3.35,4.55,8.18,8.18,0,0,1,4.93,3.27c.6.86-.16,2.13-1.17,2.43a5,5,0,0,1-3.07-.42,5.15,5.15,0,0,0,1.12-2.16c-.69-.62-1.77-.36-2.65-.07Z"/><path d="M166.59,221.83c-.92.74-.16,2.39,1,2.69a4.88,4.88,0,0,0,3.36-.83q-1,8.14-2.15,16.26c-2.29-1.67-3.14-4.7-3.29-7.53s.27-5.69-.18-8.49a3,3,0,0,1,0-1.57C165.51,221.87,166.16,221.52,166.59,221.83Z"/><path d="M197.55,370.08c-.37,1.3,1.59,1.89,2.94,1.75s3.3.23,3.13,1.57a7.92,7.92,0,0,1-5.51-.4c-1.07-.49-2.76-1-3.06.16a3.24,3.24,0,0,1,1.71,3.76,27.19,27.19,0,0,1-2.7-2.44,1.72,1.72,0,0,1-.5-.75c-.15-.61.35-1.15.62-1.72a4.84,4.84,0,0,0-.11-3.4,5.72,5.72,0,0,1-.3-3.41c.38-1.1,1.87-1.86,2.74-1.09l1.06-2,1.11.65v2.63a5.69,5.69,0,0,1-2.93.7c-.28,1,1,1.72,2,2s2.32.75,2.26,1.8A6,6,0,0,1,197.55,370.08Z"/><path d="M310.48,380.42c1.47-.47,1.21-2.61.64-4l-2,.47c1,1.68-1,3.52-2.63,4.5a15.46,15.46,0,0,1,3.47-7,3.45,3.45,0,0,1,2.74-1.49,2,2,0,0,1,1.6,2.46c-.23.72-.86,1.25-1.12,2s.27,1.77,1,1.51c1.54-2.13,3.15-4.84,2-7.21.74-.35,1.45.59,1.59,1.4a6.8,6.8,0,0,1-2,5.54,20.13,20.13,0,0,1-4.91,3.55,2.39,2.39,0,0,0,1.22,2.59,2.29,2.29,0,1,1-1.65-4.26Z"/><path d="M230.61,345l-.09,2.65a1.49,1.49,0,0,1-.21.87c-.54.7-1.73-.14-1.74-1a11,11,0,0,1,.77-2.51c.31-1.3-.25-2.66-.07-4s2-2.51,2.78-1.44a4.3,4.3,0,0,0-1.85,2.39c-.17,1,.86,2.21,1.79,1.76a18.78,18.78,0,0,0,6-4.56c.93-1.07,2.88,0,3.06,1.43s-.72,2.7-1.57,3.84A57.13,57.13,0,0,0,230.61,345Z"/><path d="M232,362.18,231,359.61l3.23.79a6.36,6.36,0,0,1,6,6l.65,2.63a14,14,0,0,1-3.95.21,3.6,3.6,0,0,0-2.22-2.22,1.71,1.71,0,0,1-.84-2.15,5,5,0,0,1,1.57-2,4.6,4.6,0,0,0-3.37-.67m4,4a1.21,1.21,0,0,0,1.07-1.55.95.95,0,1,0-1.06,1.52Z"/><path d="M258.43,425.95c.78-.8,2,.26,3,.71,2.18.94,4.38-1.21,6.68-1.81a5.27,5.27,0,0,1,3.43.28c.53.57-.38,1.35-1.12,1.59-2.79.92-5.58,1.84-8.43,2.56s-6.31,1-8-1.33a6.73,6.73,0,0,0,4.45-2m2,3c.54-.55-.06-1.57-.83-1.69a3.23,3.23,0,0,0-2.14.74,2.24,2.24,0,0,0,2.86.79Z"/><path d="M214.06,418.43c-.53-.26-.1-1-.12-1.64s-.51-1-.94-1.33a19.26,19.26,0,0,1-5-6.37,2,2,0,0,1,3.51-2,3.11,3.11,0,0,0-2.19.4c-.59.48-.58,1.65.16,1.83a7.65,7.65,0,0,1,5.37,4.92,1.51,1.51,0,0,0,2.53.38,3.78,3.78,0,0,1,.7,3.15A4.11,4.11,0,0,0,214.06,418.43Z"/><path d="M258.26,330.31c3-.17,6.12-.39,8.56-2.1a5.23,5.23,0,0,1,1.85-1.05c.7-.14,1.58.29,1.58,1a17.09,17.09,0,0,1-17.06,2.44Z"/><path d="M219.57,265.87a1.53,1.53,0,0,1,.16-.82,5.23,5.23,0,0,1,8-1.6c.24-.19.58.2.48.48a1.08,1.08,0,0,1-.7.53l-5.28,2C221.27,266.84,219.73,266.92,219.57,265.87Z"/><path d="M288.21,114c-5.21-6.12-2.82-16.74,4.17-20.71,1.1,6.1,7.92,11,6.35,17-.9-.91-2.35-.85-3.63-1s-2.79-.79-2.83-2.07,2.62-1.21,2.07-.05a3.08,3.08,0,0,0,.8-4.86,14.44,14.44,0,0,1-4.26,3.5l-2.78-6.69c-1.31,6.72,4.15,14,11,14.54-7.85,2.14-16.13,1.8-24.25,1.44a4.6,4.6,0,0,1,5.57-1.91l-1.61-3.86a4.3,4.3,0,0,1-5.11,2.62,5.93,5.93,0,0,0,2.66-4.75,25.83,25.83,0,0,1-19.25,8.36l1.54-.78a7.92,7.92,0,0,0,3.55-2.76c.76-1.32.44-3.36-1-3.88a6.56,6.56,0,0,1-6.85,4.84l1.09,3-5.06-1.2a5.33,5.33,0,0,1,3.63-2.14,9.86,9.86,0,0,0-3.3-2.07,27.23,27.23,0,0,1,9.12-16.8,4.68,4.68,0,0,0,4.57,5.37c-.81-1.83,1.54-3.51,3.53-3.73s4.36-.07,5.57-1.66l-2.89.59c-.58-2.47-3.37-3.9-5.9-3.8s-4.87,1.34-7.1,2.55A23.45,23.45,0,0,0,250,107.32c-.45,3.26-4.1,5.28-7.38,5.11s-6.25-1.92-9.06-3.62l3.17-8.13-7.62,7.12c-2,0-2.89-2.62-2.4-4.53s1.79-3.56,2.12-5.5-1.09-4.43-3-4l-4.3,9.14a9.54,9.54,0,0,0,4.59-7.43c2.15,1.09.68,4.29-.68,6.28s-1.21,6,1.15,5.47a17,17,0,0,1-12.55.93,2.92,2.92,0,0,0,2.64-3.1,18.4,18.4,0,0,1-15.21-1.14,2.13,2.13,0,0,0,2.12-2.43l-4.45-.68a4.14,4.14,0,0,0,1.29-5.28l6.23,0A12.49,12.49,0,0,1,203.55,88a3.85,3.85,0,0,0-.59,5.5l-4.1-.2a5.78,5.78,0,0,0,.21,5.84,22.52,22.52,0,0,0-7,7.2L186,103.5c-7.72,12.72-11.4,27.4-15,41.84a113,113,0,0,0-3.15,15.9,113,113,0,0,0,.05,17.36l1.15,21.25c-7.58-25.92-5.28-54.14,3.67-79.61A119.48,119.48,0,0,1,189.4,88.06a95,95,0,0,1,147.67-5.53c15,17.16,23.4,39.46,25.83,62.11s-.89,45.64-7.36,67.48c2.05-2.65,4.26-5.41,7.38-6.63s7.39-.15,8.46,3c-.67-2.35-4.25-1.35-6.17.17-3.55,2.81-7,5.9-9.21,9.87s-2.92,9-.9,13l5.29-4.89a23.08,23.08,0,0,1-5.76,23.45c-1.34-11.1-2.68-22.32-1.49-33.44,1.82-17,9.53-33.85,6.16-50.63,1,.29,1.57-1.08,1.66-2.1a51.59,51.59,0,0,0-2.09-19.63c.3,4.27.56,8.77-1.3,12.63a96.34,96.34,0,0,0-13.1-49.27,38,38,0,0,0-4-5.77,23.86,23.86,0,0,0-12.09-7.45l6.74,1.06A10.34,10.34,0,0,0,334,89.41a4.56,4.56,0,0,0-.48,4.53,10.45,10.45,0,0,1-5.92-9.45,6.48,6.48,0,0,0-3.1,5.11l-1-3.1c-.72,2.44-5.25,1.71-5.18-.83a5.52,5.52,0,0,0,6-1.18c-1.33-4.11-10.28,2.29-11.25-1.92A8.42,8.42,0,0,0,320,80.5c-1.91-1-4.16.06-6.22.64s-5,.19-5.38-1.9a8.41,8.41,0,0,0,9.37-4.61,2.92,2.92,0,0,0-3.68-1.73c2,1.06.06,4.29-2.16,4.58s-4.59-.66-6.67.19-1.89,5,.26,4.4a1.82,1.82,0,0,1,1.86-2.54,8.45,8.45,0,0,0,1.47,5.5l-3.25,1.76c-.39,2,2.35,3.71,4,2.51a15.21,15.21,0,0,1-7.93,13.94,8.44,8.44,0,0,1-2.75-6.68l-1.57,3.59c-1.14-.13-1.6-1.68-1.14-2.74a8.34,8.34,0,0,1,2.32-2.52A11.37,11.37,0,0,0,302,84.75a2.82,2.82,0,0,0,2.84.18l-4.12-4.15a8.51,8.51,0,0,0-1.45,3.49,1.78,1.78,0,0,1-1.41-2.56c-1-.34-1.82,1.2-1.39,2.2s1.43,1.63,2.13,2.47c2.44,2.91-.5,8.26-4.26,7.76a26.61,26.61,0,0,1,2.83-4.44,27.62,27.62,0,0,0-14.29,8.61c1.71,2.65.65,6.1.47,9.24s1.83,7.17,4.9,6.49M292,69.63l-4.16,5.76a5.51,5.51,0,0,1-2.06,2,1.9,1.9,0,0,1-2.49-.75c-.3-.73-1.5,0-1.43.82s.68,1.47.71,2.26c0,1.1-1.05,2.08-.8,3.15.17.73.89,1.16,1.45,1.65s1,1.35.58,1.95.3,1.83,1.22,2,1.87-.15,2.8,0,1.89,1.06,1.46,1.89a3.11,3.11,0,0,0,3.58-1.76l-4-2.3a11.45,11.45,0,0,1-3.31-2.51,3.89,3.89,0,0,1-.75-3.9,2.39,2.39,0,0,1,3.46-1.06,5.36,5.36,0,0,1,1.24,2.51c.32.89,1.07,1.83,2,1.68,0-1.31,1.54-2,2.84-2.2s2.82-.26,3.57-1.34c.56-.81.46-1.88.71-2.83s1.31-1.88,2.13-1.34a5.47,5.47,0,0,0,6.31-.34c-.7-1.5-2.75-1.66-4.4-1.48s-3.6.37-4.69-.88l-.56,2.88-3.94-.57c-.6.55-.07,1.65.72,1.87a3.49,3.49,0,0,0,2.34-.49,1.68,1.68,0,0,1,.15,1.49,4.27,4.27,0,0,1-3.92,1.09,3,3,0,0,1-2.17-3.2c.21-1.14,1.18-2,1.78-3s.67-2.59-.4-3M291.37,61a4.23,4.23,0,0,1-1.59,1.81L284.35,67c-.41.31-1.14.55-1.31.06-.42-1.17-2.28-1.09-3.06-.13a5.37,5.37,0,0,0-.78,3.56c-1-.7-2.16.67-2.61,1.81S275,74.84,274,74.18a.89.89,0,0,0-.31,1.41c-.26,1-1.43,1.3-2.36,1.68s-1.88,1.45-1.29,2.27-.71,1.48-1.63,1.57-2.16.83-1.62,1.57l1,.64c.36-.72,1.4-.77,2.14-.48a11.65,11.65,0,0,0,2.21,1c.79.13,1.8-.43,1.66-1.22s.88-1.15,1.56-.88a6.8,6.8,0,0,1,1.67,1.38c.55.47,1.45.75,2,.24a6.45,6.45,0,0,0-3.45-3.75c-.47-.21-1-.4-1.24-.88a1.77,1.77,0,0,1,.39-1.62,18.65,18.65,0,0,1,3.88-4.26,2.22,2.22,0,0,1,0,2.76c.61.72,1.91.24,2.3-.63a4.48,4.48,0,0,0-.05-2.79,4.88,4.88,0,0,1,0-3.23c.49-1,2-1.51,2.71-.7a5.79,5.79,0,0,0,10-3.23c-.58-.4-1.23.4-1.56,1-.6,1.1-1.7,2.13-2.94,2s-1.84-2.24-.66-2.68a8.92,8.92,0,0,0,5.14-5.14l-1-1c-.83-.07-.94,1.14-1.21,1.92M188.81,101.1a6.17,6.17,0,0,0,6.95-3.17,6.52,6.52,0,0,0-4.5,2.51,11,11,0,0,1,3.36-6.37,107,107,0,0,0,12.13-13.39c-.05-.65-1-.89-1.53-.59a4.2,4.2,0,0,0-1.28,1.44,15.05,15.05,0,0,1-2.78,2.7A66.21,66.21,0,0,0,186,102.34c0,.63,1.08.41,1.42-.12s.75-1.29,1.36-1.12M263,85.17l-2.31,1.29a6.24,6.24,0,0,1,1-3.9c.82.69,2.13-.37,2.08-1.44a4.62,4.62,0,0,0-1.58-2.7,31.31,31.31,0,0,1-4.8-6.86c-1.2.48-1.1,2.3-.34,3.35s1.94,1.8,2.46,3a4.42,4.42,0,0,0-2.73.29,2.06,2.06,0,0,0-1.11,2.31,1.36,1.36,0,0,0,2.21.54,3.76,3.76,0,0,1,1.93-1.58c.83-.19,1.87.51,1.65,1.33a1.87,1.87,0,0,1-.64.85l-2.2,2a5.27,5.27,0,0,1-3.38,4.89A17.69,17.69,0,0,1,257,83.63a6.44,6.44,0,0,0-2.91,9.1c.79.15,1.43-.69,1.62-1.48a6.23,6.23,0,0,1,.65-2.32,3.25,3.25,0,0,1,2.95-.92,5.89,5.89,0,0,0,3.18-.23c1-.5,1.37-2.06.45-2.61m15.54,16.76a1.63,1.63,0,0,0,1.71,1.8,7.48,7.48,0,0,1,1.55-3.19,4.12,4.12,0,0,1-4-2.8l.77-.75a8.09,8.09,0,0,0-4.59-.54c-1.51.42-2.74,2.16-2,3.56a2.86,2.86,0,0,1-.53,2.93A14.06,14.06,0,0,1,269,105c-2.1,1.71-3.75,4.33-3.34,7,.69.37,1.51-.28,1.87-1s.6-1.53,1.27-1.94,1.84.27,1.44.94c1.71-.37,2.76-2,3.61-3.57a15.89,15.89,0,0,0-3.87.46l-.24-1.36,4.22-1.07c.59-.15,1.34-.67,1-1.17a5.18,5.18,0,0,1-1.26-3.31c.13-1.2,1.61-2.24,2.57-1.51a4,4,0,0,1-.77,3.23,8.29,8.29,0,0,0,3,.22m-42.2-31.12a4.55,4.55,0,0,1,3.94,6.14,7.48,7.48,0,0,0,4.88-.12,1.58,1.58,0,0,0,.82-.56c.4-.63-.21-1.51-.94-1.67a3.54,3.54,0,0,0-2.15.48,8,8,0,0,1-1.5-3.68,5.91,5.91,0,0,0-.58-2.49c-.47-.72-1.68-1-2.16-.31a1.75,1.75,0,0,1-2.33.3,3.74,3.74,0,0,1-1.39-2.14,9.21,9.21,0,0,1-.33-3.81l-4.09,5.26c-.75,1,0,2.38,1,3.13s2.17,1.34,2.62,2.47c.28.72.19,1.53.41,2.27s1,1.45,1.69,1.13c.65-1.48-.32-3.17-1.42-4.34s-2.46-2.3-2.8-3.88l.53-1.08h1.35c.38,1.32,1.1,2.91,2.47,2.91m-3.65,24a4.51,4.51,0,0,0,4.6-1.79c.6-.87.87-1.93,1.47-2.8a2.3,2.3,0,0,1,2.69-1.08c.33,1.25,1.16,2.81,2.41,2.5.76-.19,1.15-1,1.44-1.76a9.63,9.63,0,0,0,1-4.66c-.21-1.59-1.53-3.16-3.13-3-.82.06-1.24,1.1-1.06,1.9a9.85,9.85,0,0,0,1.13,2.19,2.09,2.09,0,0,1,0,2.32c-.56.61-1.91.13-1.67-.66s-.79-1-1.5-1a13.38,13.38,0,0,0-4.22,1l1.35,1.41a10.75,10.75,0,0,1-4.45,5.46m-13.42-6a2,2,0,0,1-1.5,2.51,10.89,10.89,0,0,1,1.76,4.91c1.32.12,2.14-1.35,2.62-2.59a2.9,2.9,0,0,1-.74-3.59c.47-.85-.89-1.91-1.6-1.24a1.3,1.3,0,0,1,.05-1.89,4.28,4.28,0,0,1,1.94-.88,9.09,9.09,0,0,0,4.26-2.3,4.4,4.4,0,0,0,1.08-4.52L224.9,82c-1,1.25-2.58,2.65-4,1.9-1.24-.66-2.58.7-3.21,2s-1.48,2.79-2.88,2.71a3.9,3.9,0,0,0,4.44.26m6.69,2.64c.49.56,1.41.19,2-.23a24.34,24.34,0,0,0,4.56-4.14,5.5,5.5,0,0,0-3.57.88c-.35-1,.62-2.08,1.64-2.47a30.07,30.07,0,0,0,3.15-.89c1-.49,1.7-1.81,1-2.68-.16-.57-1-.47-1.5-.12s-1,.85-1.57.67c-1.42-.46.59-3.19-.64-4a6.76,6.76,0,0,0-1.38,5.93,7,7,0,0,0-4,6.07,1.43,1.43,0,0,0,.25,1m51-22.59-.57-1a2,2,0,0,1-2.65,0L280,63.81c1.3-.83,3-1.68,4.28-.88,1.58,1,3-2.89,4.66-2.05.4-.23.27-.9-.12-1.14a1.93,1.93,0,0,0-1.35-.1,25.82,25.82,0,0,0-11.22,5A20.48,20.48,0,0,1,273,66.2c-1.07.56-2,1.71-1.72,2.87a2.35,2.35,0,0,0,2.71,1.4,6.86,6.86,0,0,0,2.9-1.59m-11.43-2.49a4.35,4.35,0,0,0-1.93,1.7,4.23,4.23,0,0,1,3.26,3.35,12.4,12.4,0,0,1-.16,4.93c1.17,1,3.11-.34,3.26-1.88s-.75-3-1.47-4.32-1.29-3.07-.51-4.41c.83-.54,2,.64,2.87.12.65-.4.4-1.51-.27-1.89a3.36,3.36,0,0,0-2.25-.12l-3.64.65a5.62,5.62,0,0,0,.83,1.86M215.08,79.58l-1.34-.53c.49.8-.34,1.77-1.17,2.23s-1.85.93-2,1.87a2.58,2.58,0,0,1-3.19,2.08,4.26,4.26,0,0,0,2,4.47,3.66,3.66,0,0,0,4.65-1,6.73,6.73,0,0,0,.26-6.94,4,4,0,0,0,.75-2.14m33.8,18.83c-1.17.18-2.31-.52-3.49-.5s-2.32,1.68-1.3,2.28a6.11,6.11,0,0,1,4.09-.27c.13,1.33-2.09,1.4-2.89,2.47a2.93,2.93,0,0,0-.43,1.1l-.65,2.74c.68.65,1.74-.19,2.27-1a78.06,78.06,0,0,0,4.77-8,6,6,0,0,0,.88-2.73,2.18,2.18,0,0,0-1.54-2.19,25.77,25.77,0,0,1-1.69,6.06m4-26.24a1.38,1.38,0,0,0,1.66-.57c.38-.52.55-1.16.88-1.71a3.19,3.19,0,0,1,5.9,1.75A5.48,5.48,0,0,0,265.91,77a8.78,8.78,0,0,1-2.54-5.65,6.66,6.66,0,0,0-.25-2,1.52,1.52,0,0,0-1.57-1.06c-1.22.25-2.27-.89-3.48-1.19a3.65,3.65,0,0,0-3.55,1.44,10.75,10.75,0,0,0-1.68,3.65m4.49-16.75a3.6,3.6,0,0,0-.83,5.15c1,1.22,2.78,1.62,3.83,2.82a9.73,9.73,0,0,0,1.4,1.67c.59.42,1.63.36,1.84-.34a4.35,4.35,0,0,0-4.18-3.87,2,2,0,1,1,.52-3.86,1.26,1.26,0,0,0-.53-1.8,2.17,2.17,0,0,0-2,.23m-27.48,20.5c-1.64-.07-2.93-1.55-4.56-1.76a3.2,3.2,0,0,0-3.21,4.11,6.27,6.27,0,0,1,2-1.9,2.14,2.14,0,0,1,2.54.29,3.45,3.45,0,0,0,4.15.9c1.33-.77,1.64-3,.4-3.86a5.4,5.4,0,0,0-1.28,2.21M266.91,56c-1.52-.37-1.69-3.3-3.23-3l-1.6,5.91a1.33,1.33,0,0,0,.05,1.16c.35.45,1.12.23,1.49-.2s.54-1,.91-1.46c1.26-1.48,4.12-.6,5.24-2.2-.53-.86-1.88,0-2.86-.21M277.5,90.5a5.33,5.33,0,0,1,1.63,4.41c1.51,0,2.79-2.14,1.57-3-1-.7-.5-2.24.15-3.25s1.42-2.3.77-3.31l-1.11-.19c.51,1-.73,2-1.74,2.63s-2.07,1.89-1.27,2.73M213.3,97.66c1.29-.63,1.42-2.38,1.36-3.82,0-.75-.46-1.79-1.16-1.5a4.28,4.28,0,0,1-5.09-1.67.66.66,0,0,0-1,.05,1.39,1.39,0,0,0-.11,1.18,3.5,3.5,0,0,0,5,2,4.59,4.59,0,0,0,1,3.79m41.65-24a3.57,3.57,0,0,1-3.6,1c.54,1.29-.8,2.59-2.08,3.15s-2.84,1-3.34,2.33c3.48.68,6.58-2.13,9-4.7.53-.56.77-1.82,0-1.76m-18.3,26.75c1.13.61,2.48-.11,3.55-.82l6.17-4.06-3.09-1.55a6.17,6.17,0,0,1-6.42,4.52l-.21,1.91M324.17,75.3a72.34,72.34,0,0,0,2.15,7.35c.79-.28.83-1.37.72-2.2a9.42,9.42,0,0,0-1.42-4.61c-1-1.3-3-2-4.28-1s-.62,3.66,1,3.47a2.57,2.57,0,0,1,1.84-3M269.93,89.62c-.1,1.25,1.8,1.58,2.92,1a5.39,5.39,0,0,0,2.26-2.2c-.46-.58-1.36-.2-2,.07s-1.82,0-1.66-.68A3,3,0,0,0,268,84.45a6.62,6.62,0,0,1,1.94,5.18M294.45,63.7c1.7.21,3.54-1.32,5-.41,1.12.71,1.69,2.72,2.94,2.3-.24-.83.56-1.54,1.2-2.12s1.15-1.68.47-2.21c-.81.06-1.3.88-1.83,1.49s-1.6,1-2.07.38a4.54,4.54,0,0,0-4-1.83l-1.7,2.4M242,103.35a2.55,2.55,0,0,0,.62-2.24,18.45,18.45,0,0,0-6.22,7c.9,1.05,2.54-.19,3.31-1.34l2.29-3.4M280.27,56.1a2.19,2.19,0,0,1-3.42,2.47l-2.32,4.69,5.35-3.44a3.87,3.87,0,0,0,1.89-2c.24-.91-.64-2.08-1.51-1.71m29.82,10.29a3.31,3.31,0,0,0-6.42,1.41,1.6,1.6,0,0,0,.37.87c1.91-.12,2.92-3.62,4.61-2.73.49.26,1.08.86,1.45.45m-47.57,38.74c-.51.42-.07,1.34.58,1.47a2.41,2.41,0,0,0,1.81-.64,16.28,16.28,0,0,0,3.58-3.65c-.7-1-2.35-.39-3.17.54s-1.56,2.17-2.8,2.28M312.58,70c.37-.43,0-1.15-.5-1.35a2.68,2.68,0,0,0-1.66.08C308.34,69.3,306,70,305,71.93l6.85-1.55a1.34,1.34,0,0,0,.75-.35m-13.11-5.14A18.27,18.27,0,0,0,295.74,71a1.14,1.14,0,0,0-.07.82c.33.77,1.49.07,1.91-.66,1.13-1.93,2.2-4.1,1.89-6.32M283.35,54.42c-.64.64.4,1.63,1.3,1.74s2.07.15,2.34,1c.21.67,1.32.64,1.66,0a1.56,1.56,0,0,0-.53-1.87,4.55,4.55,0,0,0-2-.74l-1.51-.32a1.42,1.42,0,0,0-1.31.16m20.68,35a5.78,5.78,0,0,0,.19,4.78,1.84,1.84,0,0,0,1.15,1.07L306.91,92A3.28,3.28,0,0,1,304,89.39M237.4,81.14a1.31,1.31,0,0,0,1.42,1.09,5.41,5.41,0,0,0-.73-3.73c-.82-1-2.8-1-3.15.23l2.41,2.42m10-21.79a1.85,1.85,0,0,0,.63-1.94,2.18,2.18,0,1,0,0,4.16,1.9,1.9,0,0,0-.57-2M259,108.24a3.82,3.82,0,0,0,1.42-1.48,1.32,1.32,0,0,0-.59-1.75,28.9,28.9,0,0,1-4.06,4.29,1,1,0,0,0,.2,1.11l3-2.17M206.94,96.39a6.09,6.09,0,0,0-2.82,2.06c-.61,1-.4,2.61.71,3A9.51,9.51,0,0,1,208,96.85a.85.85,0,0,0-1-.46m45.6-11.56a2.06,2.06,0,0,0-.16-3.25,6.66,6.66,0,0,0-1.44,5.36c.94.32,1.49-1,1.55-2M214.8,102.8,216,99.45a4.62,4.62,0,0,0-3.32.36,1,1,0,0,0-.26,1,1.65,1.65,0,0,1,1.27,2.14.74.74,0,0,0,1.12-.2m124.1-10.24a.84.84,0,0,0-1.32.16,1.91,1.91,0,0,0-.06,1.53A6,6,0,0,0,340.83,98c.84-1.92-3.25-3.82-1.94-5.46m6.48,13a14.87,14.87,0,0,1,5.17,5.1,1,1,0,0,0,1-.15,7.2,7.2,0,0,0-6.18-4.95m-86.6-2.16a5,5,0,0,0,1.82-2.31,4.09,4.09,0,0,0-4.09,4.1,2,2,0,0,0,1.18.22l1.1-2m35.95-16.16c1-1.31,0-3.15-1-4.48l-1.32,4.36a1.19,1.19,0,0,0,1.94-.16M251.55,62.14a2.81,2.81,0,0,0,3.85,1,3.25,3.25,0,0,0-3.25-1.05,4.65,4.65,0,0,0,.18-3.61,2.69,2.69,0,0,0-.75,3.63m61.17,10.54a2.75,2.75,0,0,0-3,2.54c.16.92,1.57,1.08,2.23.42a3.35,3.35,0,0,0,.66-2.63m-93.4,32.6c-.25.94,1.39,1.39,2,.62a1.69,1.69,0,1,0-2.66-.72m-.75-5.88a5,5,0,0,0-.7,4.32l1.67-2.62a2.17,2.17,0,0,0,.48-1.92c-.27-.63-1.52-.54-1.4.14m2.94-20.34a2.35,2.35,0,0,0-2.21-1.84,5.94,5.94,0,0,0,.62,3.86,2,2,0,0,0,1.58-2M209.42,102a2.25,2.25,0,0,0-2.43-1.33,4.86,4.86,0,0,0,3.47,3.43,1.68,1.68,0,0,0-.93-2.17m61.05-43.43.82,2.07a2.36,2.36,0,0,0,1.41-1.83A1.55,1.55,0,0,0,271.45,57a1.16,1.16,0,0,0-1,1.67M221.19,72.63a8.75,8.75,0,0,0-3.89,3.95,4.3,4.3,0,0,0,3.89-3.95m131.89,46.79a2.68,2.68,0,0,0-1.46-4.33,6.94,6.94,0,0,0,1.29,3.83M244.64,67.25a1.16,1.16,0,0,0,.41-1.3,2.75,2.75,0,0,0-3.53.9,2.88,2.88,0,0,0,3.11.37m57.3,30.64c-.2.28.1.7.44.7a1,1,0,0,0,.79-.57,2,2,0,0,0-1.9-2.75,6,6,0,0,0,.63,2.67M317.42,71.1c-.61.75.41,2,1.34,1.73a1.69,1.69,0,0,0,.77-2.41l-2.05.54m-108,28.31h1.85a1.71,1.71,0,0,0-3.31-.63,1.32,1.32,0,0,0,1.47.61m34.67,10.85a1.33,1.33,0,0,0,1.59,0,3.19,3.19,0,0,0-.8-1.92c-.53-.47-1.56-.39-1.75.29s.44,1.19,1,1.56M282.66,91.1a1.42,1.42,0,0,0,.18,1.13,2,2,0,0,0,1-3.13,2.35,2.35,0,0,0-1.24,2M254.69,107a.65.65,0,0,0-1.1-.37,2.28,2.28,0,0,0,.05,2.83,3.68,3.68,0,0,0,1.2-2.48m-6.06-37.08-2,.66A1.84,1.84,0,0,0,250,70.3L248.86,70m46.28-11.88L295,59.26a2.86,2.86,0,0,0,3.14-.37,3.68,3.68,0,0,0-2.9-.68m-47.91,6.57a1.39,1.39,0,0,0,2.5.71,1.59,1.59,0,0,0-2.39-.77m111.86,73a1.15,1.15,0,0,0-2,.67l1.08,1.08a1.87,1.87,0,0,0,1-1.75M267.84,62.16h1.33a1.39,1.39,0,0,0,.2-1.09,3.1,3.1,0,0,0-2-.7,1.18,1.18,0,0,0,.46,1.73m-42,8.45a2.79,2.79,0,0,0-2.87-.19,1.5,1.5,0,0,0,2.66.38M269,52.64a6.94,6.94,0,0,0,3,1.54,1.9,1.9,0,0,0-2.7-1.59m15.17,20.77a1,1,0,0,0,.92-.8,3.43,3.43,0,0,0-2.71,0,1.18,1.18,0,0,0,1.79.9m-42.87,35.27a.68.68,0,0,0,.2-1.12,3.27,3.27,0,0,0-2,2.06,1.1,1.1,0,0,0,1.71-.88m64.26-13-.18,2a1.48,1.48,0,0,0,1.12.2,1.42,1.42,0,0,0-.86-2.2m-63.6-32.29c.66.32,1.48-.35,1.51-1.08A2,2,0,0,0,242,62.3c-.5.32-.35,1.35.24,1.26m6.41,26.23a.83.83,0,0,0,1.05,1.06l.67-1.53a1.16,1.16,0,0,0-1.72.46M300.5,71.39a1.19,1.19,0,0,0,.5-1.7,1.18,1.18,0,0,0-1.47.6c-.2.55.42,1.25,1,1m18.21,7.49a1,1,0,1,0-2-.05,1.66,1.66,0,0,0,1.74,0m-74.89-6.41h1.33a1.66,1.66,0,0,0,.22-1.13,2.36,2.36,0,0,0-1.55-.18,1.08,1.08,0,0,0,0,1.33m14.64,27.83a1,1,0,0,0-.9-1.34l-.63,1.1a.91.91,0,0,0,1.52.23m-.89-35.35a1.1,1.1,0,0,0,1.6.19c-.26-.54-.62-1.16-1.22-1.22s-1,1-.37,1.11M301,77.18c-.88-.06-1.34,1.53-.47,1.64a1.79,1.79,0,0,0,1-.79c.17-.4-.14-1-.56-.89m-35.52,10a1.51,1.51,0,0,0,.18,1.14c.63,0,1.25-.66,1.05-1.26s-1.35-.48-1.28.15M226.53,69.53c1-.06,1-1.57.66-2.53a2.36,2.36,0,0,0-.58,2.43m-56.85,75.35a1.68,1.68,0,0,0,.46-2.2,1.7,1.7,0,0,0-.47,2.22m68.74-60.36a1,1,0,0,0-1.35.93,1.56,1.56,0,0,0,1.11.21,1.45,1.45,0,0,0,.2-1.1m57-17.09a1.16,1.16,0,0,0,1.27-1,1.26,1.26,0,0,0-1-.19,1.44,1.44,0,0,0-.2,1.09M331,86.43c-.35.5.44,1.24.91.87a1.1,1.1,0,0,0,.19-1.14L331,86.5m-55.2,7.08a.72.72,0,0,0,.38,1.26l.67-1.14-1.08-.24m-38-29.56c.69-.2.21-1.51-.44-1.22a.77.77,0,0,0,.48,1.16M235,99c-.59-.37-1.29.76-.69,1.12.44.28.72-.54.6-1.05M348.09,103a.57.57,0,1,0-.3,1,.53.53,0,0,0,.22-1M248,74.49c.27.2.66-.16.61-.49a1.29,1.29,0,0,0-.61-.76.69.69,0,0,0,0,1.24m-1.1,18.34a.94.94,0,0,0-1.29.47.74.74,0,0,0,1.26-.44M193,103.44a.94.94,0,0,0-1.29.47.74.74,0,0,0,1.26-.44Z"/><path d="M300.07,383.8c1,2.43,2.69,5.33,5.26,4.9.64.91-.53,2.21-1.65,2.1A4.56,4.56,0,0,1,301,389a4.34,4.34,0,0,0-2.74-1.77c-1-.05-1.51-1.52-.93-2.38A2.91,2.91,0,0,1,300.07,383.8Z"/><path d="M283.27,262.34a25.87,25.87,0,0,1,5.3,9.33c.16.51.25,1.18-.19,1.47L281,262.75A2.84,2.84,0,0,1,283.27,262.34Z"/><path d="M199.3,479.66c2.51.5,5-1.16,6.68-3.05a6.65,6.65,0,0,1,2.5-2.07c1-.36,2.46.17,2.56,1.26a5.17,5.17,0,0,0-4.78,2.6,7.23,7.23,0,0,1-5.59,3.64A1.91,1.91,0,0,1,199.3,479.66Z"/><path d="M339.63,235.48c-2,1.61-4.72-1.87-7.23-1.31a4.36,4.36,0,0,1-4.65-2.16c1.71-1.15,4-.42,5.86.52s3.78,2.11,5.81,1.74Z"/><path d="M211.44,259.8c-4.53,1.14-9.36-1.21-12.51-4.67a.75.75,0,0,1,.43-1.19A33.85,33.85,0,0,0,211.44,259.8Z"/><path d="M317.87,360.33a5,5,0,0,1-2.12,5.81c-.48.28-.4,1-.11,1.49a3.45,3.45,0,0,1,.74,1.47c0,.82-.87,1.41-1.69,1.36a4.41,4.41,0,0,1-2.19-1,1,1,0,0,1-.44-.49,1,1,0,0,1,.12-.67,7.53,7.53,0,0,1,4.53-4A2.5,2.5,0,0,1,317.87,360.33Z"/><path d="M300.33,268.94a6,6,0,0,0,3.16,1.61,10.24,10.24,0,0,1,2.36.43,1.65,1.65,0,0,1,1.08,1.89,9.12,9.12,0,0,1-9.66-5.54c1.12-.51,2.17.75,3.06,1.61Z"/><path d="M232.43,320.64a9.28,9.28,0,0,1,7.77,4.08A7.53,7.53,0,0,1,232.43,320.64Z"/><path d="M206.09,433.85a5.82,5.82,0,0,0-3.61,1c-1,.83-1.11,2.67,0,3.21a1.08,1.08,0,0,1,.42,1.5A3,3,0,0,1,200.6,437a8.81,8.81,0,0,1,.35-3.64c.19-.79.64-1.78,1.45-1.69Z"/><path d="M262.06,98a6.66,6.66,0,0,1,.37-4.07,3.13,3.13,0,0,1,3.4-1.78A8.21,8.21,0,0,1,262.06,98Z"/><path d="M208.81,267.07a74.23,74.23,0,0,1,8.26-1.59,2,2,0,0,1,.16,1.43A9.45,9.45,0,0,1,208.81,267.07Z"/><path d="M276,423.73l6.09-1a1.15,1.15,0,0,1,.78.06.59.59,0,0,1,.12.87,9.73,9.73,0,0,1-6.54,1.69c-.71-.08-1.63-.69-1.22-1.28A1.11,1.11,0,0,1,276,423.73Z"/><path d="M184.12,308.84l4.05,6.58c.5.81.74,2.24-.2,2.37A15.37,15.37,0,0,1,184.12,308.84Z"/><path d="M208.6,419.76a10.06,10.06,0,0,1,.24,3.59,2.71,2.71,0,0,1-3-.56,5,5,0,0,0,.7-5.35,2,2,0,0,1,1.87,2.36Z"/><path d="M282.78,321.78a9.89,9.89,0,0,1-6.49,3.3A5.37,5.37,0,0,1,282.78,321.78Z"/><path d="M196.66,251.33a1.22,1.22,0,0,1-.08,2.08,1.86,1.86,0,0,1-2.26-.71,4,4,0,0,1-.56-2.48c0-.73.41-1.69,1.13-1.56l1.83,2.59Z"/><path d="M283.63,428.57c-1-.71-.31-2.53.91-2.86a5,5,0,0,1,3.56.9c1,.52.45,2.25-.63,2.42a2.16,2.16,0,0,1-2.24-1.92A2.59,2.59,0,0,0,283.63,428.57Z"/><path d="M207.86,343.49a3,3,0,0,1,.83-1.28,1.81,1.81,0,0,1,1.18-.39,7.21,7.21,0,0,1-2.58,6.46A9.42,9.42,0,0,1,207.86,343.49Z"/><path d="M310.74,387a10.89,10.89,0,0,1-6.09-.05.67.67,0,0,1-.26-1A4.8,4.8,0,0,1,310.74,387Z"/><path d="M229.91,261.91a1.65,1.65,0,0,1-2.85-1.67,14.19,14.19,0,0,1,4.74-.94,8.47,8.47,0,0,1-2,2.55Z"/><path d="M207.19,357.71c-.45-.68.32-1.54,1.09-1.8s1.69-.36,2.16-1a2.66,2.66,0,0,0,.32-1.54l2.55,2A15.22,15.22,0,0,1,207.19,357.71Z"/><path d="M262.74,341.47a2,2,0,0,1-2.25-1.54,2.65,2.65,0,0,1,4.19,1.16,2.7,2.7,0,0,1-1.91.62Z"/><path d="M304.91,112.15a1.09,1.09,0,0,1,.72.24c.57.59-.57,1.31-1.39,1.35l-4.17.17a1.87,1.87,0,0,1,.49-2.14Z"/><path d="M353.32,272.13a8.33,8.33,0,0,1-2.78,3.83c-.51.39-1.29.69-1.72.23A7.9,7.9,0,0,1,353.32,272.13Z"/><path d="M204.4,418.09a1.71,1.71,0,0,1-1.06,2.89,16.15,16.15,0,0,1-.71-3.81,1.13,1.13,0,0,1,1.76.86Z"/><path d="M310.31,390l-4.24,4.19c-.28.42-.8-.3-.78-.8A6.6,6.6,0,0,1,310.31,390Z"/><path d="M250.94,341.62a3.2,3.2,0,0,1-2.68,2.74,6.91,6.91,0,0,1,1.87-4.32,1.56,1.56,0,0,1,.7,1.56Z"/><path d="M331,238.5l-1.15-.19c-.18-.86.68-1.66,1.55-1.75a4.79,4.79,0,0,1,2.51.68,2.52,2.52,0,0,1-2.88,1.16Z"/><path d="M230.38,365.22a3.66,3.66,0,0,1-1.41-4.36c.86-.15,1.47.89,1.47,1.76A9.11,9.11,0,0,0,230.38,365.22Z"/><path d="M208.73,438a6.5,6.5,0,0,1,1.79,3.21l-4.26-3.58C206.83,436.92,208.05,437.38,208.73,438Z"/><path d="M284.86,432.62a2.1,2.1,0,0,1-1.14-2.78,3.05,3.05,0,0,1,2.59,2.77,1.43,1.43,0,0,1-1.45.08Z"/><path d="M290.81,394h1.77a1.6,1.6,0,0,1,.22,1.12,4.72,4.72,0,0,1-3.31.63,1.33,1.33,0,0,1-.21-1.07l1.57-.58Z"/><path d="M205.73,481.75c.86,1.34-.91,3.35-2.35,2.66a.87.87,0,0,1-.26-1L205.6,482Z"/><path d="M185.66,232.26l1.16,1.21a2.67,2.67,0,0,1-3.61-1.43,2.43,2.43,0,0,1,2.48.16Z"/><path d="M194.05,227l3.5-1c.61.53.09,1.65-.69,1.86a3.44,3.44,0,0,1-2.33-.5Z"/><path d="M274.59,378.27a2.44,2.44,0,0,1,3.81.43,3.4,3.4,0,0,1-3.5-.17Z"/><path d="M332.63,240.28a2.33,2.33,0,0,1-3.6,1,3,3,0,0,1,3.28-1Z"/><path d="M245.05,342.92a2.3,2.3,0,0,1-2.28,1,2.81,2.81,0,0,1,2.53-2.42,1,1,0,0,1-.24,1.48Z"/><path d="M341.65,240.13a.81.81,0,0,1-.46-1.21,4,4,0,0,1,3.34-.25,5.1,5.1,0,0,1-2.92,1.45Z"/><path d="M209.82,390.13a2.25,2.25,0,0,1-.26-2.48,5,5,0,0,1,1.93,2.58,1,1,0,0,1-1.65-.08Z"/><path d="M267.82,342.84a2.06,2.06,0,0,1-2.78-1.71,1.81,1.81,0,0,1,2.53,1.36Z"/><path d="M192.05,376.49c-.37-.34.61-.43.84,0a4.59,4.59,0,0,1,.5,2.64l-1.16.67a12.78,12.78,0,0,1-.15-3.3Z"/><path d="M190.74,319.52v1.81a1.28,1.28,0,0,1-1.48-1.28,2.08,2.08,0,0,1,1.27-1.74l.26,1.19Z"/><path d="M276.73,440.4a1.68,1.68,0,0,1,.76,2.6l-1.46-.65c-.14-.65,0-1.61.64-1.58Z"/><path d="M198.53,183a2.28,2.28,0,0,1-2,1.94,3,3,0,0,1,.43-2c.45-.55,1.52-.57,1.74.1Z"/><path d="M328.15,103.47q0-.88,0-1.77a1.55,1.55,0,0,1,1.1-.22l.62,1.53a1.94,1.94,0,0,1-.86,1c-.41.16-1-.11-.95-.54Z"/><path d="M291.29,276.33a1.66,1.66,0,0,1-1-2.13l3,2.43a1.5,1.5,0,0,1-1.9-.29Z"/><path d="M359.66,256.32c-.17-.34.51-.54.71-.22a1.14,1.14,0,0,1-.13,1.07c-.4.81-1,1.75-1.92,1.67a2,2,0,0,1,1.25-2.39Z"/><path d="M255.66,456.05a1.19,1.19,0,0,1-.22,1.13l-1.94-3.45a2.32,2.32,0,0,1,2.2,2.31Z"/><path d="M209.69,478.06a1.62,1.62,0,0,1,2.41.22l-4.5.73a1.24,1.24,0,0,1,1.83-1Z"/><path d="M328.14,360.17a1.15,1.15,0,0,1,1.7,1.26c-.75.86-2.45-.38-1.84-1.35Z"/><path d="M245.31,453.44a2,2,0,0,1-1.59-.87,2.85,2.85,0,0,1,3.17.32,1.56,1.56,0,0,1-1.58.72Z"/><path d="M172.69,272.17a2.5,2.5,0,0,1-.38-3.28,9.33,9.33,0,0,1,.91,3.09c0,.27,0,.61-.22.75s-.57-.29-.31-.39Z"/><path d="M183.92,237.53a1.8,1.8,0,0,1-.92-1.25c1-.14,2.26-.21,2.91.6a1.83,1.83,0,0,1-2,.63Z"/><path d="M252.74,430a1.31,1.31,0,0,1-2.34-.51l1.54-.66a1.71,1.71,0,0,1,.65,1.11Z"/><path d="M311,264.6c.53.4-.14,1.34-.79,1.2a1.75,1.75,0,0,1-1.11-1.51,1.24,1.24,0,0,1,1.81.46Z"/><path d="M248.18,430a1.67,1.67,0,0,1,1.08-.65l.62,1.56a1.38,1.38,0,0,1-1,.62,1.48,1.48,0,0,1-.65-1.53Z"/><path d="M325.13,347.83l.58-1.14c.72-.11,1.65.35,1.54,1.07a2,2,0,0,1-2.27.15Z"/><path d="M208.2,431.52c-.13-1-2.05-.75-1.92.25S208.34,432.52,208.2,431.52Z"/><path d="M226.54,409.67a1,1,0,0,1,1.28,0,1.85,1.85,0,0,1-.63,2,1.82,1.82,0,0,1-.62-2Z"/><path d="M317.79,265.07c-.63,0-.71-1.08-.15-1.36a1.47,1.47,0,0,1,1.66.57,1.52,1.52,0,0,1-1.54.67Z"/><path d="M169.53,159.14a1.79,1.79,0,0,1,1.11-1.57,2.06,2.06,0,0,1,.1,1.73c-.31.51-1.34.42-1.29-.18Z"/><path d="M188.29,437.69c-.91.22-1.24-1.57-.31-1.72s1.24,1.59.33,1.81Z"/><path d="M251.27,330.12l-.9-.95a2.53,2.53,0,0,1,2.65,1,1.74,1.74,0,0,1-1.76,0Z"/><path d="M233.79,346.76a.86.86,0,0,1,.48,1.24,1.29,1.29,0,0,1-1.54-1.53.61.61,0,0,1,1,.24Z"/><path d="M232.41,111.82l-1.51-.72a1.5,1.5,0,0,1,1.58-.77,1.1,1.1,0,0,1,0,1.34Z"/><path d="M219.13,356.6c-.56-.32,0-1.29.68-1.18s1,.74,1.31,1.31l-1.87-.39Z"/><path d="M276.51,373.13c.24-.14.36.39.1.49s-.52-.11-.73-.3c-.54-.51-1.1-1.4-.54-1.89a3.15,3.15,0,0,1,1.13,1.53Z"/><path d="M232,459.49l-1-.74a1.46,1.46,0,0,1,2.28.81.76.76,0,0,1-1.14-.2Z"/><path d="M198.22,381.83a1.18,1.18,0,0,1-1.07,1.51,1.33,1.33,0,0,1,1.14-1.87Z"/><path d="M211.95,341.61c-.21-.6.85-.78,1.39-.44a2.66,2.66,0,0,1-1.16,1.52.71.71,0,0,1-.24-1.11Z"/><path d="M291.2,402.78a.63.63,0,0,1-1,.25,1.36,1.36,0,0,1,.65-1.5.94.94,0,0,1,.47,1.29Z"/><path d="M213.11,480.87c-.38-.77.93-1.61,1.47-.95a.92.92,0,0,1-1.32.87Z"/><path d="M297.42,392.71a2.85,2.85,0,0,1-1.51-1.17c.66-.61,1.94.3,1.59,1.13Z"/><path d="M266.32,433.5a.64.64,0,0,1-.69.66l-.67-1.55a.92.92,0,0,1,1.31.89Z"/><path d="M202,400.59a1.13,1.13,0,0,1-1.61.21,1.53,1.53,0,0,1,.88-.93c.43-.11,1,.37.71.75Z"/><path d="M217.06,259.67a1.67,1.67,0,0,1-2,.23,1.46,1.46,0,0,1,2.11-.41Z"/><path d="M335.87,239.3a1,1,0,0,1-1.42.3c.18-.45.43-1,.91-1.08s1,.62.54.86Z"/><path d="M211,433.41a1.77,1.77,0,0,1,2.18,1.09,2.57,2.57,0,0,1-2.14-1Z"/><path d="M325.47,367.68a1.26,1.26,0,0,1-.59,1.46,1,1,0,0,1,.65-1.65Z"/><path d="M307.81,101.25c.52-.43,1.33.22,1.36.89-.51.44-1.33-.21-1.37-.89Z"/><path d="M298,363.46l.17,1.11a.93.93,0,0,1-1.33-.44,1.52,1.52,0,0,1,1.07-.64Z"/><path d="M243.75,360.6a1.61,1.61,0,0,1-2.22-.49,2,2,0,0,1,2.17.55Z"/><path d="M241,387.89a1.3,1.3,0,0,1-1.69.11c-.18-.7,1.07-.76,1.57-.23Z"/><path d="M357.7,353.63l.54.76a2,2,0,0,1-1.17.71.88.88,0,0,1,.48-1.26Z"/><path d="M190.05,348.95a1.23,1.23,0,0,1,.51,1.72,1.34,1.34,0,0,1-.55-1.79Z"/><path d="M192.08,353.09c-.71.18-1.11-.94-.7-1.54a1.5,1.5,0,0,1,.68,1.54Z"/><path d="M213.19,428c-.16.37-.8.19-.9-.2a1.5,1.5,0,0,1,.33-1.13c.55-.28.73.75.48,1.32Z"/><path d="M204,444.69a1.77,1.77,0,0,1-1.73-1.12,1.55,1.55,0,0,1,1.64,1Z"/><path d="M249.73,367.47a1.17,1.17,0,0,1-.89-1.79l.89,1.77Z"/><path d="M243.11,364.84c.37-.27.74.5.41.82a1.23,1.23,0,0,1-1.2-.28l.67-.67Z"/><path d="M207.57,454.26c-.2-.27.16-.66.49-.6a1.29,1.29,0,0,1,.75.61.69.69,0,0,1-1.24,0Z"/><path d="M308.54,271.55c-.2-.36.19-.83.6-.83a1.06,1.06,0,0,1,.89.74l-1.53.17Z"/><path d="M261.49,456.53a.71.71,0,0,1,1.25.37.76.76,0,0,1-1.3-.41Z"/><path d="M236.93,245.5a1.74,1.74,0,0,1,0,1.75.94.94,0,0,1,0-1.69Z"/><path d="M205.16,265.82a.59.59,0,1,1-1.09-.16.58.58,0,0,1,1,.21Z"/><path d="M298.41,345.81c-.11.64-1.33.4-1.19-.23a.72.72,0,0,1,1.08.23Z"/><path d="M247.63,421.5a1.82,1.82,0,0,1-2.11,0l2-.21Z"/><path d="M208.65,487.55c-.41.09-.5-.68-.11-.85a1.33,1.33,0,0,1,1.19.27,1.6,1.6,0,0,1-1.09.65Z"/><path d="M212.59,421.42a.91.91,0,0,1,.48,1.27c-.59.23-.78-.8-.5-1.37Z"/><path d="M318.88,381.76a.68.68,0,0,1-.25-1.09c.65,0,.86,1.23.21,1.2Z"/><path d="M242.49,246.65a.74.74,0,0,1,1.28.44.89.89,0,0,1-1.27-.49Z"/><path d="M302.27,392.64a.69.69,0,0,1-1.08.68c-.23-.48.58-.74,1.11-.66Z"/><path d="M211.16,85.34a2,2,0,0,1,2.08-2A7.54,7.54,0,0,1,211.85,88a1.39,1.39,0,0,1-.45.45c-.63.33-1.38-.42-1.34-1.13a3.08,3.08,0,0,1,1-1.81Z"/></g><g id="Shape_11" data-name="Shape 11"><path d="M191.58,286.81a43.46,43.46,0,0,0,17.49,2.26q2.49-.15,5-.51c.54-.08,1.24-.09,1.47.41a43.05,43.05,0,0,1-27.28-2.82A6.56,6.56,0,0,1,191.58,286.81Z"/><path d="M268.56,258.9c.4.15.47.68.47,1.1l0,7.5c-.21.22-.49-.19-.51-.5l-.47-6.26a2.06,2.06,0,0,1,.48-1.86Z"/><path d="M268,257.09a6.86,6.86,0,0,1,0-3.12,6.55,6.55,0,0,1,.64,3.75c-.3.18-.58-.28-.63-.63Z"/><path d="M215.93,290.31l-1.45-.26a4.67,4.67,0,0,1,3-.61,1.6,1.6,0,0,1-1.49.77Z"/><path d="M297.53,292.21a1.63,1.63,0,0,1,1.49.54,1.51,1.51,0,0,1-1.52-.53Z"/><path d="M269.75,271a.37.37,0,0,1,.37-.56,1,1,0,0,1,.09.73c-.12.19-.48,0-.4-.21Z"/><path d="M296.88,292c.18-.14.37.24.2.4a.66.66,0,0,1-.75-.34l.54-.11Z"/><path d="M347.08,269.53a19.82,19.82,0,0,0,3.7-7.84c2.6-.24,2.93,4,1.09,5.89s-4.68,2.72-5.9,5c-7.52,14.22-24.3,23-40.27,20.95s-30.07-14.6-33.84-30.25a4.4,4.4,0,0,1-.87,4.1c.77-6.31.85-14.13-4.63-17.36-3-1.8-6.86-1.46-10.35-.9-2.19.35-4.48.81-6.21,2.2-2.86,2.29-3.4,6.33-4.2,9.9-3,13.47-14.12,25.63-27.86,26.92a36.91,36.91,0,0,0,26.77-25.28c-6.58,17-25.58,28.13-43.59,25.63s-33.26-18.41-35-36.51c-.52-5.47-5.74-9-9.9-12.62s-7.82-9.77-4.64-14.25c2-2.87,5.95-3.54,9.44-4,12.49-1.54,25-3.08,37.61-2.92a140.25,140.25,0,0,1,40.75,6.59c5.9,1.88,12.22,1.7,18.41,1.5l28.6-.92a118.26,118.26,0,0,1-35.77,2l23.26,2c.62.05,1.43,0,1.63-.59s-1.15-.73-.84-.19a171.93,171.93,0,0,1,91.3,3.08c2.31,6.24-1.88,13.17-7.23,17.11a19.2,19.2,0,0,1-6.84,3.39,58.89,58.89,0,0,1-4.63,17.31m-35.92,23.11c9.77.06,20.15-2.82,26.41-10.31-11.78,10.13-29.51,12.18-43.82,6.13a33.87,33.87,0,0,1-8.44-5c-8.25-6.83-11.66-17.9-13.17-28.51a36.58,36.58,0,0,0,24.06,35.18,44.6,44.6,0,0,0,15,2.5M209.47,220.57c12,1,23.76,4.12,35.43,7.21a6.35,6.35,0,0,0,3.39.26A259.94,259.94,0,0,0,212.94,220c-1.21-.19-2.64-.3-3.47.6m90.3,5.58,4.09-.5,3.82-.47,3.42-.42a16.77,16.77,0,0,0-4.95-.18,146.06,146.06,0,0,0-24.5,3.77l18.11-2.21M161.51,231a9.69,9.69,0,0,1-4.91.34c-.43-.06-1,0-1,.44a6.21,6.21,0,0,0,7.29-.24.86.86,0,0,0,.36-.5c0-.31-.22-.56-.47-.75a6.61,6.61,0,0,0-6.7-.51c-.42.21-.87.64-.68,1.07a18.44,18.44,0,0,1,6.15.15m195.15,8.55c-.15,0-.32.06-.39.2-.13.29.34.46.66.42a20.1,20.1,0,0,0,3.93-.9,1.12,1.12,0,0,0,.71-.49c.2-.45-.22-.92-.62-1.19a6.52,6.52,0,0,0-7.66.52c1.67,0,3.51.11,4.74,1.25l-1.37.2m-9.17,21a56.56,56.56,0,0,0-6.62-8.86,1.09,1.09,0,0,0-.55-.39c-.22,0-.5.12-.48.34a8.87,8.87,0,0,1,1.54,1.77l6.54,9a2.2,2.2,0,0,0-.43-1.91m-5.91,12a32.58,32.58,0,0,0-1.79-4.54l.44,9c.08.19.39.19.53,0a.93.93,0,0,0,.18-.59,14.41,14.41,0,0,0-.34-4.2,1,1,0,0,1,1,.32m-75.85-42.87-11.56-.81c-.38,0-.89,0-1,.42a44.82,44.82,0,0,0,12.51.4M360.39,245c.92.18,1.56-1,1.52-1.92s-.39-1.91-.07-2.79a2.14,2.14,0,0,0-2.08,1.33,1.27,1.27,0,0,0,1-.13,10.66,10.66,0,0,1-.37,3.51m-106.31,1.17c1.14-1,2.91-.66,4.36-1.12a1.44,1.44,0,0,0,.71-.42A6.29,6.29,0,0,0,252,248.2c1-.19,1.37-1.38,2.12-2m11.07,1c.22-.52-.32-1-.82-1.32a10.44,10.44,0,0,0-4.52-1.3c-.2.43.43.73.9.81a10.8,10.8,0,0,1,4.44,1.82m65.36-14.48a.88.88,0,0,0,.62.13l-.67,4.08a6.76,6.76,0,0,0,1.34-3.2,1.9,1.9,0,0,0,0-1.27c-.2-.39-.82-.56-1.06-.2a.3.3,0,0,0-.23.46m-19.42-6.8a4.8,4.8,0,0,0,3.17.31c.18,0,.41-.21.31-.37a3.49,3.49,0,0,0-3.48.06m37.31,22.5c.57-1,.13-2.29-.32-3.36-.1-.25-.34-.55-.58-.41-.11.64.62,1.16.63,1.81,0,.41-.28.77-.37,1.18s.25,1,.63.78M337.34,226.7l-1.6.06a2.23,2.23,0,0,0,2.88.46l-1.29-.49M309.7,230.6a1.39,1.39,0,0,0,.17,2,1.18,1.18,0,0,0-.15-2m-120.91,53.1a11.91,11.91,0,0,0-3.65-2.17,9,9,0,0,0,3.65,2.17m122.63-51.15a.62.62,0,0,0,0-1.06,3.6,3.6,0,0,0-1,1.61.65.65,0,0,0,1-.53m-33.61-3.49a.71.71,0,0,0-.79-.46,2.08,2.08,0,0,0-.9.42l1.63.07M265,227a3.16,3.16,0,0,0,1.76,0,1.23,1.23,0,0,0-1.71,0m83.79,30.72a1.45,1.45,0,0,0-.17,1.55,1.4,1.4,0,0,0,.19-1.53m-78.18-31a1.38,1.38,0,0,0,1.56-.15,1.33,1.33,0,0,0-1.54.21m58.79,10.07a2.38,2.38,0,0,0,.31-1.08.63.63,0,0,0-.3,1.1m-140.1-14.38a.59.59,0,0,0,.27-.81.94.94,0,0,0-.5.39c-.09.2,0,.49.25.47m56,33.25,0,.86c.29-.26.45-.91.06-.88m-.63,3.74a.61.61,0,0,0-.25.84.66.66,0,0,0,.27-.88Z"/></g></svg>