<svg id="Layer_1" data-name="Layer 1" xmlns="http://www.w3.org/2000/svg" xmlns:xlink="http://www.w3.org/1999/xlink" viewBox="0 0 669.58 668.11"><defs><clipPath id="clip-path" transform="translate(0.5 0.5)"><rect width="500" height="500" fill="none"/></clipPath></defs><title>Lexis-Logo-Long-Shadow</title><rect x="0.5" y="0.5" width="500" height="500" fill="#f42626" stroke="#f42626" stroke-miterlimit="10"/><g clip-path="url(#clip-path)"><g opacity="0.55"><path d="M650.63,667.61H443.52l.06-4h5.06a25.63,25.63,0,0,0,25.62-25.15V416.75a25.63,25.63,0,0,0-25.62-25.15h-5.06l-.06-4H565l-.06,4h-5.06a25.64,25.64,0,0,0-25.63,25.15V650.51h52.51c40,0,65.89-24.83,78.29-64.52h4Z" transform="translate(0.5 0.5)"/><path d="M649.63,666.61H442.52l.06-4h5.06a25.63,25.63,0,0,0,25.62-25.15V415.75a25.63,25.63,0,0,0-25.62-25.15h-5.06l-.06-4H564l-.06,4h-5.06a25.64,25.64,0,0,0-25.63,25.15V649.51h52.51c40,0,65.89-24.83,78.29-64.52h4Z" transform="translate(0.5 0.5)"/><path d="M648.63,665.61H441.52l.06-4h5.06a25.63,25.63,0,0,0,25.62-25.15V414.75a25.63,25.63,0,0,0-25.62-25.15h-5.06l-.06-4H563l-.06,4h-5.06a25.64,25.64,0,0,0-25.63,25.15V648.51h52.51c40,0,65.89-24.83,78.29-64.52h4Z" transform="translate(0.5 0.5)"/><path d="M647.63,664.61H440.52l.06-4h5.06a25.63,25.63,0,0,0,25.62-25.15V413.75a25.63,25.63,0,0,0-25.62-25.15h-5.06l-.06-4H562l-.06,4h-5.06a25.64,25.64,0,0,0-25.63,25.15V647.51h52.51c40,0,65.89-24.83,78.29-64.52h4Z" transform="translate(0.5 0.5)"/><path d="M646.63,663.61H439.52l.06-4h5.06a25.63,25.63,0,0,0,25.62-25.15V412.75a25.63,25.63,0,0,0-25.62-25.15h-5.06l-.06-4H561l-.06,4h-5.06a25.64,25.64,0,0,0-25.63,25.15V646.51h52.51c40,0,65.89-24.83,78.29-64.52h4Z" transform="translate(0.5 0.5)"/><path d="M645.63,662.61H438.52l.06-4h5.06a25.63,25.63,0,0,0,25.62-25.15V411.75a25.63,25.63,0,0,0-25.62-25.15h-5.06l-.06-4H560l-.06,4h-5.06a25.64,25.64,0,0,0-25.63,25.15V645.51h52.51c40,0,65.89-24.83,78.29-64.52h4Z" transform="translate(0.5 0.5)"/><path d="M644.63,661.61H437.52l.06-4h5.06a25.63,25.63,0,0,0,25.62-25.15V410.75a25.63,25.63,0,0,0-25.62-25.15h-5.06l-.06-4H559l-.06,4h-5.06a25.64,25.64,0,0,0-25.63,25.15V644.51h52.51c40,0,65.89-24.83,78.29-64.52h4Z" transform="translate(0.5 0.5)"/><path d="M643.63,660.61H436.52l.06-4h5.06a25.63,25.63,0,0,0,25.62-25.15V409.75a25.63,25.63,0,0,0-25.62-25.15h-5.06l-.06-4H558l-.06,4h-5.06a25.64,25.64,0,0,0-25.63,25.15V643.51h52.51c40,0,65.89-24.83,78.29-64.52h4Z" transform="translate(0.5 0.5)"/><path d="M642.63,659.61H435.52l.06-4h5.06a25.63,25.63,0,0,0,25.62-25.15V408.75a25.63,25.63,0,0,0-25.62-25.15h-5.06l-.06-4H557l-.06,4h-5.06a25.64,25.64,0,0,0-25.63,25.15V642.51h52.51c40,0,65.89-24.83,78.29-64.52h4Z" transform="translate(0.5 0.5)"/><path d="M641.63,658.61H434.52l.06-4h5.06a25.63,25.63,0,0,0,25.62-25.15V407.75a25.63,25.63,0,0,0-25.62-25.15h-5.06l-.06-4H556l-.06,4h-5.06a25.64,25.64,0,0,0-25.63,25.15V641.51h52.51c40,0,65.89-24.83,78.29-64.52h4Z" transform="translate(0.5 0.5)"/><path d="M640.63,657.61H433.52l.06-4h5.06a25.63,25.63,0,0,0,25.62-25.15V406.75a25.63,25.63,0,0,0-25.62-25.15h-5.06l-.06-4H555l-.06,4h-5.06a25.64,25.64,0,0,0-25.63,25.15V640.51h52.51c40,0,65.89-24.83,78.29-64.52h4Z" transform="translate(0.5 0.5)"/><path d="M639.63,656.61H432.52l.06-4h5.06a25.63,25.63,0,0,0,25.62-25.15V405.75a25.63,25.63,0,0,0-25.62-25.15h-5.06l-.06-4H554l-.06,4h-5.06a25.64,25.64,0,0,0-25.63,25.15V639.51h52.51c40,0,65.89-24.83,78.29-64.52h4Z" transform="translate(0.5 0.5)"/><path d="M638.63,655.61H431.52l.06-4h5.06a25.63,25.63,0,0,0,25.62-25.15V404.75a25.63,25.63,0,0,0-25.62-25.15h-5.06l-.06-4H553l-.06,4h-5.06a25.64,25.64,0,0,0-25.63,25.15V638.51h52.51c40,0,65.89-24.83,78.29-64.52h4Z" transform="translate(0.5 0.5)"/><path d="M637.63,654.61H430.52l.06-4h5.06a25.63,25.63,0,0,0,25.62-25.15V403.75a25.63,25.63,0,0,0-25.62-25.15h-5.06l-.06-4H552l-.06,4h-5.06a25.64,25.64,0,0,0-25.63,25.15V637.51h52.51c40,0,65.89-24.83,78.29-64.52h4Z" transform="translate(0.5 0.5)"/><path d="M636.63,653.61H429.52l.06-4h5.06a25.63,25.63,0,0,0,25.62-25.15V402.75a25.63,25.63,0,0,0-25.62-25.15h-5.06l-.06-4H551l-.06,4h-5.06a25.64,25.64,0,0,0-25.63,25.15V636.51h52.51c40,0,65.89-24.83,78.29-64.52h4Z" transform="translate(0.5 0.5)"/><path d="M635.63,652.61H428.52l.06-4h5.06a25.63,25.63,0,0,0,25.62-25.15V401.75a25.63,25.63,0,0,0-25.62-25.15h-5.06l-.06-4H550l-.06,4h-5.06a25.64,25.64,0,0,0-25.63,25.15V635.51h52.51c40,0,65.89-24.83,78.29-64.52h4Z" transform="translate(0.5 0.5)"/><path d="M634.63,651.61H427.52l.06-4h5.06a25.63,25.63,0,0,0,25.62-25.15V400.75a25.63,25.63,0,0,0-25.62-25.15h-5.06l-.06-4H549l-.06,4h-5.06a25.64,25.64,0,0,0-25.63,25.15V634.51h52.51c40,0,65.89-24.83,78.29-64.52h4Z" transform="translate(0.5 0.5)"/><path d="M633.63,650.61H426.52l.06-4h5.06a25.63,25.63,0,0,0,25.62-25.15V399.75a25.63,25.63,0,0,0-25.62-25.15h-5.06l-.06-4H548l-.06,4h-5.06a25.64,25.64,0,0,0-25.63,25.15V633.51h52.51c40,0,65.89-24.83,78.29-64.52h4Z" transform="translate(0.5 0.5)"/><path d="M632.63,649.61H425.52l.06-4h5.06a25.63,25.63,0,0,0,25.62-25.15V398.75a25.63,25.63,0,0,0-25.62-25.15h-5.06l-.06-4H547l-.06,4h-5.06a25.64,25.64,0,0,0-25.63,25.15V632.51h52.51c40,0,65.89-24.83,78.29-64.52h4Z" transform="translate(0.5 0.5)"/><path d="M631.63,648.61H424.52l.06-4h5.06a25.63,25.63,0,0,0,25.62-25.15V397.75a25.63,25.63,0,0,0-25.62-25.15h-5.06l-.06-4H546l-.06,4h-5.06a25.64,25.64,0,0,0-25.63,25.15V631.51h52.51c40,0,65.89-24.83,78.29-64.52h4Z" transform="translate(0.5 0.5)"/><path d="M630.63,647.61H423.52l.06-4h5.06a25.63,25.63,0,0,0,25.62-25.15V396.75a25.63,25.63,0,0,0-25.62-25.15h-5.06l-.06-4H545l-.06,4h-5.06a25.64,25.64,0,0,0-25.63,25.15V630.51h52.51c40,0,65.89-24.83,78.29-64.52h4Z" transform="translate(0.5 0.5)"/><path d="M629.63,646.61H422.52l.06-4h5.06a25.63,25.63,0,0,0,25.62-25.15V395.75a25.63,25.63,0,0,0-25.62-25.15h-5.06l-.06-4H544l-.06,4h-5.06a25.64,25.64,0,0,0-25.63,25.15V629.51h52.51c40,0,65.89-24.83,78.29-64.52h4Z" transform="translate(0.5 0.5)"/><path d="M628.63,645.61H421.52l.06-4h5.06a25.63,25.63,0,0,0,25.62-25.15V394.75a25.63,25.63,0,0,0-25.62-25.15h-5.06l-.06-4H543l-.06,4h-5.06a25.64,25.64,0,0,0-25.63,25.15V628.51h52.51c40,0,65.89-24.83,78.29-64.52h4Z" transform="translate(0.5 0.5)"/><path d="M627.63,644.61H420.52l.06-4h5.06a25.63,25.63,0,0,0,25.62-25.15V393.75a25.63,25.63,0,0,0-25.62-25.15h-5.06l-.06-4H542l-.06,4h-5.06a25.64,25.64,0,0,0-25.63,25.15V627.51h52.51c40,0,65.89-24.83,78.29-64.52h4Z" transform="translate(0.5 0.5)"/><path d="M626.63,643.61H419.52l.06-4h5.06a25.63,25.63,0,0,0,25.62-25.15V392.75a25.63,25.63,0,0,0-25.62-25.15h-5.06l-.06-4H541l-.06,4h-5.06a25.64,25.64,0,0,0-25.63,25.15V626.51h52.51c40,0,65.89-24.83,78.29-64.52h4Z" transform="translate(0.5 0.5)"/><path d="M625.63,642.61H418.52l.06-4h5.06a25.63,25.63,0,0,0,25.62-25.15V391.75a25.63,25.63,0,0,0-25.62-25.15h-5.06l-.06-4H540l-.06,4h-5.06a25.64,25.64,0,0,0-25.63,25.15V625.51h52.51c40,0,65.89-24.83,78.29-64.52h4Z" transform="translate(0.5 0.5)"/><path d="M624.63,641.61H417.52l.06-4h5.06a25.63,25.63,0,0,0,25.62-25.15V390.75a25.63,25.63,0,0,0-25.62-25.15h-5.06l-.06-4H539l-.06,4h-5.06a25.64,25.64,0,0,0-25.63,25.15V624.51h52.51c40,0,65.89-24.83,78.29-64.52h4Z" transform="translate(0.5 0.5)"/><path d="M623.63,640.61H416.52l.06-4h5.06a25.63,25.63,0,0,0,25.62-25.15V389.75a25.63,25.63,0,0,0-25.62-25.15h-5.06l-.06-4H538l-.06,4h-5.06a25.64,25.64,0,0,0-25.63,25.15V623.51h52.51c40,0,65.89-24.83,78.29-64.52h4Z" transform="translate(0.5 0.5)"/><path d="M622.63,639.61H415.52l.06-4h5.06a25.63,25.63,0,0,0,25.62-25.15V388.75a25.63,25.63,0,0,0-25.62-25.15h-5.06l-.06-4H537l-.06,4h-5.06a25.64,25.64,0,0,0-25.63,25.15V622.51h52.51c40,0,65.89-24.83,78.29-64.52h4Z" transform="translate(0.5 0.5)"/><path d="M621.63,638.61H414.52l.06-4h5.06a25.63,25.63,0,0,0,25.62-25.15V387.75a25.63,25.63,0,0,0-25.62-25.15h-5.06l-.06-4H536l-.06,4h-5.06a25.64,25.64,0,0,0-25.63,25.15V621.51h52.51c40,0,65.89-24.83,78.29-64.52h4Z" transform="translate(0.5 0.5)"/><path d="M620.63,637.61H413.52l.06-4h5.06a25.63,25.63,0,0,0,25.62-25.15V386.75a25.63,25.63,0,0,0-25.62-25.15h-5.06l-.06-4H535l-.06,4h-5.06a25.64,25.64,0,0,0-25.63,25.15V620.51h52.51c40,0,65.89-24.83,78.29-64.52h4Z" transform="translate(0.5 0.5)"/><path d="M619.63,636.61H412.52l.06-4h5.06a25.63,25.63,0,0,0,25.62-25.15V385.75a25.63,25.63,0,0,0-25.62-25.15h-5.06l-.06-4H534l-.06,4h-5.06a25.64,25.64,0,0,0-25.63,25.15V619.51h52.51c40,0,65.89-24.83,78.29-64.52h4Z" transform="translate(0.5 0.5)"/><path d="M618.63,635.61H411.52l.06-4h5.06a25.63,25.63,0,0,0,25.62-25.15V384.75a25.63,25.63,0,0,0-25.62-25.15h-5.06l-.06-4H533l-.06,4h-5.06a25.64,25.64,0,0,0-25.63,25.15V618.51h52.51c40,0,65.89-24.83,78.29-64.52h4Z" transform="translate(0.5 0.5)"/><path d="M617.63,634.61H410.52l.06-4h5.06a25.63,25.63,0,0,0,25.62-25.15V383.75a25.63,25.63,0,0,0-25.62-25.15h-5.06l-.06-4H532l-.06,4h-5.06a25.64,25.64,0,0,0-25.63,25.15V617.51h52.51c40,0,65.89-24.83,78.29-64.52h4Z" transform="translate(0.5 0.5)"/><path d="M616.63,633.61H409.52l.06-4h5.06a25.63,25.63,0,0,0,25.62-25.15V382.75a25.63,25.63,0,0,0-25.62-25.15h-5.06l-.06-4H531l-.06,4h-5.06a25.64,25.64,0,0,0-25.63,25.15V616.51h52.51c40,0,65.89-24.83,78.29-64.52h4Z" transform="translate(0.5 0.5)"/><path d="M615.63,632.61H408.52l.06-4h5.06a25.63,25.63,0,0,0,25.62-25.15V381.75a25.63,25.63,0,0,0-25.62-25.15h-5.06l-.06-4H530l-.06,4h-5.06a25.64,25.64,0,0,0-25.63,25.15V615.51h52.51c40,0,65.89-24.83,78.29-64.52h4Z" transform="translate(0.5 0.5)"/><path d="M614.63,631.61H407.52l.06-4h5.06a25.63,25.63,0,0,0,25.62-25.15V380.75a25.63,25.63,0,0,0-25.62-25.15h-5.06l-.06-4H529l-.06,4h-5.06a25.64,25.64,0,0,0-25.63,25.15V614.51h52.51c40,0,65.89-24.83,78.29-64.52h4Z" transform="translate(0.5 0.5)"/><path d="M613.63,630.61H406.52l.06-4h5.06a25.63,25.63,0,0,0,25.62-25.15V379.75a25.63,25.63,0,0,0-25.62-25.15h-5.06l-.06-4H528l-.06,4h-5.06a25.64,25.64,0,0,0-25.63,25.15V613.51h52.51c40,0,65.89-24.83,78.29-64.52h4Z" transform="translate(0.5 0.5)"/><path d="M612.63,629.61H405.52l.06-4h5.06a25.63,25.63,0,0,0,25.62-25.15V378.75a25.63,25.63,0,0,0-25.62-25.15h-5.06l-.06-4H527l-.06,4h-5.06a25.64,25.64,0,0,0-25.63,25.15V612.51h52.51c40,0,65.89-24.83,78.29-64.52h4Z" transform="translate(0.5 0.5)"/><path d="M611.63,628.61H404.52l.06-4h5.06a25.63,25.63,0,0,0,25.62-25.15V377.75a25.63,25.63,0,0,0-25.62-25.15h-5.06l-.06-4H526l-.06,4h-5.06a25.64,25.64,0,0,0-25.63,25.15V611.51h52.51c40,0,65.89-24.83,78.29-64.52h4Z" transform="translate(0.5 0.5)"/><path d="M610.63,627.61H403.52l.06-4h5.06a25.63,25.63,0,0,0,25.62-25.15V376.75a25.63,25.63,0,0,0-25.62-25.15h-5.06l-.06-4H525l-.06,4h-5.06a25.64,25.64,0,0,0-25.63,25.15V610.51h52.51c40,0,65.89-24.83,78.29-64.52h4Z" transform="translate(0.5 0.5)"/><path d="M609.63,626.61H402.52l.06-4h5.06a25.63,25.63,0,0,0,25.62-25.15V375.75a25.63,25.63,0,0,0-25.62-25.15h-5.06l-.06-4H524l-.06,4h-5.06a25.64,25.64,0,0,0-25.63,25.15V609.51h52.51c40,0,65.89-24.83,78.29-64.52h4Z" transform="translate(0.5 0.5)"/><path d="M608.63,625.61H401.52l.06-4h5.06a25.63,25.63,0,0,0,25.62-25.15V374.75a25.63,25.63,0,0,0-25.62-25.15h-5.06l-.06-4H523l-.06,4h-5.06a25.64,25.64,0,0,0-25.63,25.15V608.51h52.51c40,0,65.89-24.83,78.29-64.52h4Z" transform="translate(0.5 0.5)"/><path d="M607.63,624.61H400.52l.06-4h5.06a25.63,25.63,0,0,0,25.62-25.15V373.75a25.63,25.63,0,0,0-25.62-25.15h-5.06l-.06-4H522l-.06,4h-5.06a25.64,25.64,0,0,0-25.63,25.15V607.51h52.51c40,0,65.89-24.83,78.29-64.52h4Z" transform="translate(0.5 0.5)"/><path d="M606.63,623.61H399.52l.06-4h5.06a25.63,25.63,0,0,0,25.62-25.15V372.75a25.63,25.63,0,0,0-25.62-25.15h-5.06l-.06-4H521l-.06,4h-5.06a25.64,25.64,0,0,0-25.63,25.15V606.51h52.51c40,0,65.89-24.83,78.29-64.52h4Z" transform="translate(0.5 0.5)"/><path d="M605.63,622.61H398.52l.06-4h5.06a25.63,25.63,0,0,0,25.62-25.15V371.75a25.63,25.63,0,0,0-25.62-25.15h-5.06l-.06-4H520l-.06,4h-5.06a25.64,25.64,0,0,0-25.63,25.15V605.51h52.51c40,0,65.89-24.83,78.29-64.52h4Z" transform="translate(0.5 0.5)"/><path d="M604.63,621.61H397.52l.06-4h5.06a25.63,25.63,0,0,0,25.62-25.15V370.75a25.63,25.63,0,0,0-25.62-25.15h-5.06l-.06-4H519l-.06,4h-5.06a25.64,25.64,0,0,0-25.63,25.15V604.51h52.51c40,0,65.89-24.83,78.29-64.52h4Z" transform="translate(0.5 0.5)"/><path d="M603.63,620.61H396.52l.06-4h5.06a25.63,25.63,0,0,0,25.62-25.15V369.75a25.63,25.63,0,0,0-25.62-25.15h-5.06l-.06-4H518l-.06,4h-5.06a25.64,25.64,0,0,0-25.63,25.15V603.51h52.51c40,0,65.89-24.83,78.29-64.52h4Z" transform="translate(0.5 0.5)"/><path d="M602.63,619.61H395.52l.06-4h5.06a25.63,25.63,0,0,0,25.62-25.15V368.75a25.63,25.63,0,0,0-25.62-25.15h-5.06l-.06-4H517l-.06,4h-5.06a25.64,25.64,0,0,0-25.63,25.15V602.51h52.51c40,0,65.89-24.83,78.29-64.52h4Z" transform="translate(0.5 0.5)"/><path d="M601.63,618.61H394.52l.06-4h5.06a25.63,25.63,0,0,0,25.62-25.15V367.75a25.63,25.63,0,0,0-25.62-25.15h-5.06l-.06-4H516l-.06,4h-5.06a25.64,25.64,0,0,0-25.63,25.15V601.51h52.51c40,0,65.89-24.83,78.29-64.52h4Z" transform="translate(0.5 0.5)"/><path d="M600.63,617.61H393.52l.06-4h5.06a25.63,25.63,0,0,0,25.62-25.15V366.75a25.63,25.63,0,0,0-25.62-25.15h-5.06l-.06-4H515l-.06,4h-5.06a25.64,25.64,0,0,0-25.63,25.15V600.51h52.51c40,0,65.89-24.83,78.29-64.52h4Z" transform="translate(0.5 0.5)"/><path d="M599.63,616.61H392.52l.06-4h5.06a25.63,25.63,0,0,0,25.62-25.15V365.75a25.63,25.63,0,0,0-25.62-25.15h-5.06l-.06-4H514l-.06,4h-5.06a25.64,25.64,0,0,0-25.63,25.15V599.51h52.51c40,0,65.89-24.83,78.29-64.52h4Z" transform="translate(0.5 0.5)"/><path d="M598.63,615.61H391.52l.06-4h5.06a25.63,25.63,0,0,0,25.62-25.15V364.75a25.63,25.63,0,0,0-25.62-25.15h-5.06l-.06-4H513l-.06,4h-5.06a25.64,25.64,0,0,0-25.63,25.15V598.51h52.51c40,0,65.89-24.83,78.29-64.52h4Z" transform="translate(0.5 0.5)"/><path d="M597.63,614.61H390.52l.06-4h5.06a25.63,25.63,0,0,0,25.62-25.15V363.75a25.63,25.63,0,0,0-25.62-25.15h-5.06l-.06-4H512l-.06,4h-5.06a25.64,25.64,0,0,0-25.63,25.15V597.51h52.51c40,0,65.89-24.83,78.29-64.52h4Z" transform="translate(0.5 0.5)"/><path d="M596.63,613.61H389.52l.06-4h5.06a25.63,25.63,0,0,0,25.62-25.15V362.75a25.63,25.63,0,0,0-25.62-25.15h-5.06l-.06-4H511l-.06,4h-5.06a25.64,25.64,0,0,0-25.63,25.15V596.51h52.51c40,0,65.89-24.83,78.29-64.52h4Z" transform="translate(0.5 0.5)"/><path d="M595.63,612.61H388.52l.06-4h5.06a25.63,25.63,0,0,0,25.62-25.15V361.75a25.63,25.63,0,0,0-25.62-25.15h-5.06l-.06-4H510l-.06,4h-5.06a25.64,25.64,0,0,0-25.63,25.15V595.51h52.51c40,0,65.89-24.83,78.29-64.52h4Z" transform="translate(0.5 0.5)"/><path d="M594.63,611.61H387.52l.06-4h5.06a25.63,25.63,0,0,0,25.62-25.15V360.75a25.63,25.63,0,0,0-25.62-25.15h-5.06l-.06-4H509l-.06,4h-5.06a25.64,25.64,0,0,0-25.63,25.15V594.51h52.51c40,0,65.89-24.83,78.29-64.52h4Z" transform="translate(0.5 0.5)"/><path d="M593.63,610.61H386.52l.06-4h5.06a25.63,25.63,0,0,0,25.62-25.15V359.75a25.63,25.63,0,0,0-25.62-25.15h-5.06l-.06-4H508l-.06,4h-5.06a25.64,25.64,0,0,0-25.63,25.15V593.51h52.51c40,0,65.89-24.83,78.29-64.52h4Z" transform="translate(0.5 0.5)"/><path d="M592.63,609.61H385.52l.06-4h5.06a25.63,25.63,0,0,0,25.62-25.15V358.75a25.63,25.63,0,0,0-25.62-25.15h-5.06l-.06-4H507l-.06,4h-5.06a25.64,25.64,0,0,0-25.63,25.15V592.51h52.51c40,0,65.89-24.83,78.29-64.52h4Z" transform="translate(0.5 0.5)"/><path d="M591.63,608.61H384.52l.06-4h5.06a25.63,25.63,0,0,0,25.62-25.15V357.75a25.63,25.63,0,0,0-25.62-25.15h-5.06l-.06-4H506l-.06,4h-5.06a25.64,25.64,0,0,0-25.63,25.15V591.51h52.51c40,0,65.89-24.83,78.29-64.52h4Z" transform="translate(0.5 0.5)"/><path d="M590.63,607.61H383.52l.06-4h5.06a25.63,25.63,0,0,0,25.62-25.15V356.75a25.63,25.63,0,0,0-25.62-25.15h-5.06l-.06-4H505l-.06,4h-5.06a25.64,25.64,0,0,0-25.63,25.15V590.51h52.51c40,0,65.89-24.83,78.29-64.52h4Z" transform="translate(0.5 0.5)"/><path d="M589.63,606.61H382.52l.06-4h5.06a25.63,25.63,0,0,0,25.62-25.15V355.75a25.63,25.63,0,0,0-25.62-25.15h-5.06l-.06-4H504l-.06,4h-5.06a25.64,25.64,0,0,0-25.63,25.15V589.51h52.51c40,0,65.89-24.83,78.29-64.52h4Z" transform="translate(0.5 0.5)"/><path d="M588.63,605.61H381.52l.06-4h5.06a25.63,25.63,0,0,0,25.62-25.15V354.75a25.63,25.63,0,0,0-25.62-25.15h-5.06l-.06-4H503l-.06,4h-5.06a25.64,25.64,0,0,0-25.63,25.15V588.51h52.51c40,0,65.89-24.83,78.29-64.52h4Z" transform="translate(0.5 0.5)"/><path d="M587.63,604.61H380.52l.06-4h5.06a25.63,25.63,0,0,0,25.62-25.15V353.75a25.63,25.63,0,0,0-25.62-25.15h-5.06l-.06-4H502l-.06,4h-5.06a25.64,25.64,0,0,0-25.63,25.15V587.51h52.51c40,0,65.89-24.83,78.29-64.52h4Z" transform="translate(0.5 0.5)"/><path d="M586.63,603.61H379.52l.06-4h5.06a25.63,25.63,0,0,0,25.62-25.15V352.75a25.63,25.63,0,0,0-25.62-25.15h-5.06l-.06-4H501l-.06,4h-5.06a25.64,25.64,0,0,0-25.63,25.15V586.51h52.51c40,0,65.89-24.83,78.29-64.52h4Z" transform="translate(0.5 0.5)"/><path d="M585.63,602.61H378.52l.06-4h5.06a25.63,25.63,0,0,0,25.62-25.15V351.75a25.63,25.63,0,0,0-25.62-25.15h-5.06l-.06-4H500l-.06,4h-5.06a25.64,25.64,0,0,0-25.63,25.15V585.51h52.51c40,0,65.89-24.83,78.29-64.52h4Z" transform="translate(0.5 0.5)"/><path d="M584.63,601.61H377.52l.06-4h5.06a25.63,25.63,0,0,0,25.62-25.15V350.75a25.63,25.63,0,0,0-25.62-25.15h-5.06l-.06-4H499l-.06,4h-5.06a25.64,25.64,0,0,0-25.63,25.15V584.51h52.51c40,0,65.89-24.83,78.29-64.52h4Z" transform="translate(0.5 0.5)"/><path d="M583.63,600.61H376.52l.06-4h5.06a25.63,25.63,0,0,0,25.62-25.15V349.75a25.63,25.63,0,0,0-25.62-25.15h-5.06l-.06-4H498l-.06,4h-5.06a25.64,25.64,0,0,0-25.63,25.15V583.51h52.51c40,0,65.89-24.83,78.29-64.52h4Z" transform="translate(0.5 0.5)"/><path d="M582.63,599.61H375.52l.06-4h5.06a25.63,25.63,0,0,0,25.62-25.15V348.75a25.63,25.63,0,0,0-25.62-25.15h-5.06l-.06-4H497l-.06,4h-5.06a25.64,25.64,0,0,0-25.63,25.15V582.51h52.51c40,0,65.89-24.83,78.29-64.52h4Z" transform="translate(0.5 0.5)"/><path d="M581.63,598.61H374.52l.06-4h5.06a25.63,25.63,0,0,0,25.62-25.15V347.75a25.63,25.63,0,0,0-25.62-25.15h-5.06l-.06-4H496l-.06,4h-5.06a25.64,25.64,0,0,0-25.63,25.15V581.51h52.51c40,0,65.89-24.83,78.29-64.52h4Z" transform="translate(0.5 0.5)"/><path d="M580.63,597.61H373.52l.06-4h5.06a25.63,25.63,0,0,0,25.62-25.15V346.75a25.63,25.63,0,0,0-25.62-25.15h-5.06l-.06-4H495l-.06,4h-5.06a25.64,25.64,0,0,0-25.63,25.15V580.51h52.51c40,0,65.89-24.83,78.29-64.52h4Z" transform="translate(0.5 0.5)"/><path d="M579.63,596.61H372.52l.06-4h5.06a25.63,25.63,0,0,0,25.62-25.15V345.75a25.63,25.63,0,0,0-25.62-25.15h-5.06l-.06-4H494l-.06,4h-5.06a25.64,25.64,0,0,0-25.63,25.15V579.51h52.51c40,0,65.89-24.83,78.29-64.52h4Z" transform="translate(0.5 0.5)"/><path d="M578.63,595.61H371.52l.06-4h5.06a25.63,25.63,0,0,0,25.62-25.15V344.75a25.63,25.63,0,0,0-25.62-25.15h-5.06l-.06-4H493l-.06,4h-5.06a25.64,25.64,0,0,0-25.63,25.15V578.51h52.51c40,0,65.89-24.83,78.29-64.52h4Z" transform="translate(0.5 0.5)"/><path d="M577.63,594.61H370.52l.06-4h5.06a25.63,25.63,0,0,0,25.62-25.15V343.75a25.63,25.63,0,0,0-25.62-25.15h-5.06l-.06-4H492l-.06,4h-5.06a25.64,25.64,0,0,0-25.63,25.15V577.51h52.51c40,0,65.89-24.83,78.29-64.52h4Z" transform="translate(0.5 0.5)"/><path d="M576.63,593.61H369.52l.06-4h5.06a25.63,25.63,0,0,0,25.62-25.15V342.75a25.63,25.63,0,0,0-25.62-25.15h-5.06l-.06-4H491l-.06,4h-5.06a25.64,25.64,0,0,0-25.63,25.15V576.51h52.51c40,0,65.89-24.83,78.29-64.52h4Z" transform="translate(0.5 0.5)"/><path d="M575.63,592.61H368.52l.06-4h5.06a25.63,25.63,0,0,0,25.62-25.15V341.75a25.63,25.63,0,0,0-25.62-25.15h-5.06l-.06-4H490l-.06,4h-5.06a25.64,25.64,0,0,0-25.63,25.15V575.51h52.51c40,0,65.89-24.83,78.29-64.52h4Z" transform="translate(0.5 0.5)"/><path d="M574.63,591.61H367.52l.06-4h5.06a25.63,25.63,0,0,0,25.62-25.15V340.75a25.63,25.63,0,0,0-25.62-25.15h-5.06l-.06-4H489l-.06,4h-5.06a25.64,25.64,0,0,0-25.63,25.15V574.51h52.51c40,0,65.89-24.83,78.29-64.52h4Z" transform="translate(0.5 0.5)"/><path d="M573.63,590.61H366.52l.06-4h5.06a25.63,25.63,0,0,0,25.62-25.15V339.75a25.63,25.63,0,0,0-25.62-25.15h-5.06l-.06-4H488l-.06,4h-5.06a25.64,25.64,0,0,0-25.63,25.15V573.51h52.51c40,0,65.89-24.83,78.29-64.52h4Z" transform="translate(0.5 0.5)"/><path d="M572.63,589.61H365.52l.06-4h5.06a25.63,25.63,0,0,0,25.62-25.15V338.75a25.63,25.63,0,0,0-25.62-25.15h-5.06l-.06-4H487l-.06,4h-5.06a25.64,25.64,0,0,0-25.63,25.15V572.51h52.51c40,0,65.89-24.83,78.29-64.52h4Z" transform="translate(0.5 0.5)"/><path d="M571.63,588.61H364.52l.06-4h5.06a25.63,25.63,0,0,0,25.62-25.15V337.75a25.63,25.63,0,0,0-25.62-25.15h-5.06l-.06-4H486l-.06,4h-5.06a25.64,25.64,0,0,0-25.63,25.15V571.51h52.51c40,0,65.89-24.83,78.29-64.52h4Z" transform="translate(0.5 0.5)"/><path d="M570.63,587.61H363.52l.06-4h5.06a25.63,25.63,0,0,0,25.62-25.15V336.75a25.63,25.63,0,0,0-25.62-25.15h-5.06l-.06-4H485l-.06,4h-5.06a25.64,25.64,0,0,0-25.63,25.15V570.51h52.51c40,0,65.89-24.83,78.29-64.52h4Z" transform="translate(0.5 0.5)"/><path d="M569.63,586.61H362.52l.06-4h5.06a25.63,25.63,0,0,0,25.62-25.15V335.75a25.63,25.63,0,0,0-25.62-25.15h-5.06l-.06-4H484l-.06,4h-5.06a25.64,25.64,0,0,0-25.63,25.15V569.51h52.51c40,0,65.89-24.83,78.29-64.52h4Z" transform="translate(0.5 0.5)"/><path d="M568.63,585.61H361.52l.06-4h5.06a25.63,25.63,0,0,0,25.62-25.15V334.75a25.63,25.63,0,0,0-25.62-25.15h-5.06l-.06-4H483l-.06,4h-5.06a25.64,25.64,0,0,0-25.63,25.15V568.51h52.51c40,0,65.89-24.83,78.29-64.52h4Z" transform="translate(0.5 0.5)"/><path d="M567.63,584.61H360.52l.06-4h5.06a25.63,25.63,0,0,0,25.62-25.15V333.75a25.63,25.63,0,0,0-25.62-25.15h-5.06l-.06-4H482l-.06,4h-5.06a25.64,25.64,0,0,0-25.63,25.15V567.51h52.51c40,0,65.89-24.83,78.29-64.52h4Z" transform="translate(0.5 0.5)"/><path d="M566.63,583.61H359.52l.06-4h5.06a25.63,25.63,0,0,0,25.62-25.15V332.75a25.63,25.63,0,0,0-25.62-25.15h-5.06l-.06-4H481l-.06,4h-5.06a25.64,25.64,0,0,0-25.63,25.15V566.51h52.51c40,0,65.89-24.83,78.29-64.52h4Z" transform="translate(0.5 0.5)"/><path d="M565.63,582.61H358.52l.06-4h5.06a25.63,25.63,0,0,0,25.62-25.15V331.75a25.63,25.63,0,0,0-25.62-25.15h-5.06l-.06-4H480l-.06,4h-5.06a25.64,25.64,0,0,0-25.63,25.15V565.51h52.51c40,0,65.89-24.83,78.29-64.52h4Z" transform="translate(0.5 0.5)"/><path d="M564.63,581.61H357.52l.06-4h5.06a25.63,25.63,0,0,0,25.62-25.15V330.75a25.63,25.63,0,0,0-25.62-25.15h-5.06l-.06-4H479l-.06,4h-5.06a25.64,25.64,0,0,0-25.63,25.15V564.51h52.51c40,0,65.89-24.83,78.29-64.52h4Z" transform="translate(0.5 0.5)"/><path d="M563.63,580.61H356.52l.06-4h5.06a25.63,25.63,0,0,0,25.62-25.15V329.75a25.63,25.63,0,0,0-25.62-25.15h-5.06l-.06-4H478l-.06,4h-5.06a25.64,25.64,0,0,0-25.63,25.15V563.51h52.51c40,0,65.89-24.83,78.29-64.52h4Z" transform="translate(0.5 0.5)"/><path d="M562.63,579.61H355.52l.06-4h5.06a25.63,25.63,0,0,0,25.62-25.15V328.75a25.63,25.63,0,0,0-25.62-25.15h-5.06l-.06-4H477l-.06,4h-5.06a25.64,25.64,0,0,0-25.63,25.15V562.51h52.51c40,0,65.89-24.83,78.29-64.52h4Z" transform="translate(0.5 0.5)"/><path d="M561.63,578.61H354.52l.06-4h5.06a25.63,25.63,0,0,0,25.62-25.15V327.75a25.63,25.63,0,0,0-25.62-25.15h-5.06l-.06-4H476l-.06,4h-5.06a25.64,25.64,0,0,0-25.63,25.15V561.51h52.51c40,0,65.89-24.83,78.29-64.52h4Z" transform="translate(0.5 0.5)"/><path d="M560.63,577.61H353.52l.06-4h5.06a25.63,25.63,0,0,0,25.62-25.15V326.75a25.63,25.63,0,0,0-25.62-25.15h-5.06l-.06-4H475l-.06,4h-5.06a25.64,25.64,0,0,0-25.63,25.15V560.51h52.51c40,0,65.89-24.83,78.29-64.52h4Z" transform="translate(0.5 0.5)"/><path d="M559.63,576.61H352.52l.06-4h5.06a25.63,25.63,0,0,0,25.62-25.15V325.75a25.63,25.63,0,0,0-25.62-25.15h-5.06l-.06-4H474l-.06,4h-5.06a25.64,25.64,0,0,0-25.63,25.15V559.51h52.51c40,0,65.89-24.83,78.29-64.52h4Z" transform="translate(0.5 0.5)"/><path d="M558.63,575.61H351.52l.06-4h5.06a25.63,25.63,0,0,0,25.62-25.15V324.75a25.63,25.63,0,0,0-25.62-25.15h-5.06l-.06-4H473l-.06,4h-5.06a25.64,25.64,0,0,0-25.63,25.15V558.51h52.51c40,0,65.89-24.83,78.29-64.52h4Z" transform="translate(0.5 0.5)"/><path d="M557.63,574.61H350.52l.06-4h5.06a25.63,25.63,0,0,0,25.62-25.15V323.75a25.63,25.63,0,0,0-25.62-25.15h-5.06l-.06-4H472l-.06,4h-5.06a25.64,25.64,0,0,0-25.63,25.15V557.51h52.51c40,0,65.89-24.83,78.29-64.52h4Z" transform="translate(0.5 0.5)"/><path d="M556.63,573.61H349.52l.06-4h5.06a25.63,25.63,0,0,0,25.62-25.15V322.75a25.63,25.63,0,0,0-25.62-25.15h-5.06l-.06-4H471l-.06,4h-5.06a25.64,25.64,0,0,0-25.63,25.15V556.51h52.51c40,0,65.89-24.83,78.29-64.52h4Z" transform="translate(0.5 0.5)"/><path d="M555.63,572.61H348.52l.06-4h5.06a25.63,25.63,0,0,0,25.62-25.15V321.75a25.63,25.63,0,0,0-25.62-25.15h-5.06l-.06-4H470l-.06,4h-5.06a25.64,25.64,0,0,0-25.63,25.15V555.51h52.51c40,0,65.89-24.83,78.29-64.52h4Z" transform="translate(0.5 0.5)"/><path d="M554.63,571.61H347.52l.06-4h5.06a25.63,25.63,0,0,0,25.62-25.15V320.75a25.63,25.63,0,0,0-25.62-25.15h-5.06l-.06-4H469l-.06,4h-5.06a25.64,25.64,0,0,0-25.63,25.15V554.51h52.51c40,0,65.89-24.83,78.29-64.52h4Z" transform="translate(0.5 0.5)"/><path d="M553.63,570.61H346.52l.06-4h5.06a25.63,25.63,0,0,0,25.62-25.15V319.75a25.63,25.63,0,0,0-25.62-25.15h-5.06l-.06-4H468l-.06,4h-5.06a25.64,25.64,0,0,0-25.63,25.15V553.51h52.51c40,0,65.89-24.83,78.29-64.52h4Z" transform="translate(0.5 0.5)"/><path d="M552.63,569.61H345.52l.06-4h5.06a25.63,25.63,0,0,0,25.62-25.15V318.75a25.63,25.63,0,0,0-25.62-25.15h-5.06l-.06-4H467l-.06,4h-5.06a25.64,25.64,0,0,0-25.63,25.15V552.51h52.51c40,0,65.89-24.83,78.29-64.52h4Z" transform="translate(0.5 0.5)"/><path d="M551.63,568.61H344.52l.06-4h5.06a25.63,25.63,0,0,0,25.62-25.15V317.75a25.63,25.63,0,0,0-25.62-25.15h-5.06l-.06-4H466l-.06,4h-5.06a25.64,25.64,0,0,0-25.63,25.15V551.51h52.51c40,0,65.89-24.83,78.29-64.52h4Z" transform="translate(0.5 0.5)"/><path d="M550.63,567.61H343.52l.06-4h5.06a25.63,25.63,0,0,0,25.62-25.15V316.75a25.63,25.63,0,0,0-25.62-25.15h-5.06l-.06-4H465l-.06,4h-5.06a25.64,25.64,0,0,0-25.63,25.15V550.51h52.51c40,0,65.89-24.83,78.29-64.52h4Z" transform="translate(0.5 0.5)"/><path d="M549.63,566.61H342.52l.06-4h5.06a25.63,25.63,0,0,0,25.62-25.15V315.75a25.63,25.63,0,0,0-25.62-25.15h-5.06l-.06-4H464l-.06,4h-5.06a25.64,25.64,0,0,0-25.63,25.15V549.51h52.51c40,0,65.89-24.83,78.29-64.52h4Z" transform="translate(0.5 0.5)"/><path d="M548.63,565.61H341.52l.06-4h5.06a25.63,25.63,0,0,0,25.62-25.15V314.75a25.63,25.63,0,0,0-25.62-25.15h-5.06l-.06-4H463l-.06,4h-5.06a25.64,25.64,0,0,0-25.63,25.15V548.51h52.51c40,0,65.89-24.83,78.29-64.52h4Z" transform="translate(0.5 0.5)"/><path d="M547.63,564.61H340.52l.06-4h5.06a25.63,25.63,0,0,0,25.62-25.15V313.75a25.63,25.63,0,0,0-25.62-25.15h-5.06l-.06-4H462l-.06,4h-5.06a25.64,25.64,0,0,0-25.63,25.15V547.51h52.51c40,0,65.89-24.83,78.29-64.52h4Z" transform="translate(0.5 0.5)"/><path d="M546.63,563.61H339.52l.06-4h5.06a25.63,25.63,0,0,0,25.62-25.15V312.75a25.63,25.63,0,0,0-25.62-25.15h-5.06l-.06-4H461l-.06,4h-5.06a25.64,25.64,0,0,0-25.63,25.15V546.51h52.51c40,0,65.89-24.83,78.29-64.52h4Z" transform="translate(0.5 0.5)"/><path d="M545.63,562.61H338.52l.06-4h5.06a25.63,25.63,0,0,0,25.62-25.15V311.75a25.63,25.63,0,0,0-25.62-25.15h-5.06l-.06-4H460l-.06,4h-5.06a25.64,25.64,0,0,0-25.63,25.15V545.51h52.51c40,0,65.89-24.83,78.29-64.52h4Z" transform="translate(0.5 0.5)"/><path d="M544.63,561.61H337.52l.06-4h5.06a25.63,25.63,0,0,0,25.62-25.15V310.75a25.63,25.63,0,0,0-25.62-25.15h-5.06l-.06-4H459l-.06,4h-5.06a25.64,25.64,0,0,0-25.63,25.15V544.51h52.51c40,0,65.89-24.83,78.29-64.52h4Z" transform="translate(0.5 0.5)"/><path d="M543.63,560.61H336.52l.06-4h5.06a25.63,25.63,0,0,0,25.62-25.15V309.75a25.63,25.63,0,0,0-25.62-25.15h-5.06l-.06-4H458l-.06,4h-5.06a25.64,25.64,0,0,0-25.63,25.15V543.51h52.51c40,0,65.89-24.83,78.29-64.52h4Z" transform="translate(0.5 0.5)"/><path d="M542.63,559.61H335.52l.06-4h5.06a25.63,25.63,0,0,0,25.62-25.15V308.75a25.63,25.63,0,0,0-25.62-25.15h-5.06l-.06-4H457l-.06,4h-5.06a25.64,25.64,0,0,0-25.63,25.15V542.51h52.51c40,0,65.89-24.83,78.29-64.52h4Z" transform="translate(0.5 0.5)"/><path d="M541.63,558.61H334.52l.06-4h5.06a25.63,25.63,0,0,0,25.62-25.15V307.75a25.63,25.63,0,0,0-25.62-25.15h-5.06l-.06-4H456l-.06,4h-5.06a25.64,25.64,0,0,0-25.63,25.15V541.51h52.51c40,0,65.89-24.83,78.29-64.52h4Z" transform="translate(0.5 0.5)"/><path d="M540.63,557.61H333.52l.06-4h5.06a25.63,25.63,0,0,0,25.62-25.15V306.75a25.63,25.63,0,0,0-25.62-25.15h-5.06l-.06-4H455l-.06,4h-5.06a25.64,25.64,0,0,0-25.63,25.15V540.51h52.51c40,0,65.89-24.83,78.29-64.52h4Z" transform="translate(0.5 0.5)"/><path d="M539.63,556.61H332.52l.06-4h5.06a25.63,25.63,0,0,0,25.62-25.15V305.75a25.63,25.63,0,0,0-25.62-25.15h-5.06l-.06-4H454l-.06,4h-5.06a25.64,25.64,0,0,0-25.63,25.15V539.51h52.51c40,0,65.89-24.83,78.29-64.52h4Z" transform="translate(0.5 0.5)"/><path d="M538.63,555.61H331.52l.06-4h5.06a25.63,25.63,0,0,0,25.62-25.15V304.75a25.63,25.63,0,0,0-25.62-25.15h-5.06l-.06-4H453l-.06,4h-5.06a25.64,25.64,0,0,0-25.63,25.15V538.51h52.51c40,0,65.89-24.83,78.29-64.52h4Z" transform="translate(0.5 0.5)"/><path d="M537.63,554.61H330.52l.06-4h5.06a25.63,25.63,0,0,0,25.62-25.15V303.75a25.63,25.63,0,0,0-25.62-25.15h-5.06l-.06-4H452l-.06,4h-5.06a25.64,25.64,0,0,0-25.63,25.15V537.51h52.51c40,0,65.89-24.83,78.29-64.52h4Z" transform="translate(0.5 0.5)"/><path d="M536.63,553.61H329.52l.06-4h5.06a25.63,25.63,0,0,0,25.62-25.15V302.75a25.63,25.63,0,0,0-25.62-25.15h-5.06l-.06-4H451l-.06,4h-5.06a25.64,25.64,0,0,0-25.63,25.15V536.51h52.51c40,0,65.89-24.83,78.29-64.52h4Z" transform="translate(0.5 0.5)"/><path d="M535.63,552.61H328.52l.06-4h5.06a25.63,25.63,0,0,0,25.62-25.15V301.75a25.63,25.63,0,0,0-25.62-25.15h-5.06l-.06-4H450l-.06,4h-5.06a25.64,25.64,0,0,0-25.63,25.15V535.51h52.51c40,0,65.89-24.83,78.29-64.52h4Z" transform="translate(0.5 0.5)"/><path d="M534.63,551.61H327.52l.06-4h5.06a25.63,25.63,0,0,0,25.62-25.15V300.75a25.63,25.63,0,0,0-25.62-25.15h-5.06l-.06-4H449l-.06,4h-5.06a25.64,25.64,0,0,0-25.63,25.15V534.51h52.51c40,0,65.89-24.83,78.29-64.52h4Z" transform="translate(0.5 0.5)"/><path d="M533.63,550.61H326.52l.06-4h5.06a25.63,25.63,0,0,0,25.62-25.15V299.75a25.63,25.63,0,0,0-25.62-25.15h-5.06l-.06-4H448l-.06,4h-5.06a25.64,25.64,0,0,0-25.63,25.15V533.51h52.51c40,0,65.89-24.83,78.29-64.52h4Z" transform="translate(0.5 0.5)"/><path d="M532.63,549.61H325.52l.06-4h5.06a25.63,25.63,0,0,0,25.62-25.15V298.75a25.63,25.63,0,0,0-25.62-25.15h-5.06l-.06-4H447l-.06,4h-5.06a25.64,25.64,0,0,0-25.63,25.15V532.51h52.51c40,0,65.89-24.83,78.29-64.52h4Z" transform="translate(0.5 0.5)"/><path d="M531.63,548.61H324.52l.06-4h5.06a25.63,25.63,0,0,0,25.62-25.15V297.75a25.63,25.63,0,0,0-25.62-25.15h-5.06l-.06-4H446l-.06,4h-5.06a25.64,25.64,0,0,0-25.63,25.15V531.51h52.51c40,0,65.89-24.83,78.29-64.52h4Z" transform="translate(0.5 0.5)"/><path d="M530.63,547.61H323.52l.06-4h5.06a25.63,25.63,0,0,0,25.62-25.15V296.75a25.63,25.63,0,0,0-25.62-25.15h-5.06l-.06-4H445l-.06,4h-5.06a25.64,25.64,0,0,0-25.63,25.15V530.51h52.51c40,0,65.89-24.83,78.29-64.52h4Z" transform="translate(0.5 0.5)"/><path d="M529.63,546.61H322.52l.06-4h5.06a25.63,25.63,0,0,0,25.62-25.15V295.75a25.63,25.63,0,0,0-25.62-25.15h-5.06l-.06-4H444l-.06,4h-5.06a25.64,25.64,0,0,0-25.63,25.15V529.51h52.51c40,0,65.89-24.83,78.29-64.52h4Z" transform="translate(0.5 0.5)"/><path d="M528.63,545.61H321.52l.06-4h5.06a25.63,25.63,0,0,0,25.62-25.15V294.75a25.63,25.63,0,0,0-25.62-25.15h-5.06l-.06-4H443l-.06,4h-5.06a25.64,25.64,0,0,0-25.63,25.15V528.51h52.51c40,0,65.89-24.83,78.29-64.52h4Z" transform="translate(0.5 0.5)"/><path d="M527.63,544.61H320.52l.06-4h5.06a25.63,25.63,0,0,0,25.62-25.15V293.75a25.63,25.63,0,0,0-25.62-25.15h-5.06l-.06-4H442l-.06,4h-5.06a25.64,25.64,0,0,0-25.63,25.15V527.51h52.51c40,0,65.89-24.83,78.29-64.52h4Z" transform="translate(0.5 0.5)"/><path d="M526.63,543.61H319.52l.06-4h5.06a25.63,25.63,0,0,0,25.62-25.15V292.75a25.63,25.63,0,0,0-25.62-25.15h-5.06l-.06-4H441l-.06,4h-5.06a25.64,25.64,0,0,0-25.63,25.15V526.51h52.51c40,0,65.89-24.83,78.29-64.52h4Z" transform="translate(0.5 0.5)"/><path d="M525.63,542.61H318.52l.06-4h5.06a25.63,25.63,0,0,0,25.62-25.15V291.75a25.63,25.63,0,0,0-25.62-25.15h-5.06l-.06-4H440l-.06,4h-5.06a25.64,25.64,0,0,0-25.63,25.15V525.51h52.51c40,0,65.89-24.83,78.29-64.52h4Z" transform="translate(0.5 0.5)"/><path d="M524.63,541.61H317.52l.06-4h5.06a25.63,25.63,0,0,0,25.62-25.15V290.75a25.63,25.63,0,0,0-25.62-25.15h-5.06l-.06-4H439l-.06,4h-5.06a25.64,25.64,0,0,0-25.63,25.15V524.51h52.51c40,0,65.89-24.83,78.29-64.52h4Z" transform="translate(0.5 0.5)"/><path d="M523.63,540.61H316.52l.06-4h5.06a25.63,25.63,0,0,0,25.62-25.15V289.75a25.63,25.63,0,0,0-25.62-25.15h-5.06l-.06-4H438l-.06,4h-5.06a25.64,25.64,0,0,0-25.63,25.15V523.51h52.51c40,0,65.89-24.83,78.29-64.52h4Z" transform="translate(0.5 0.5)"/><path d="M522.63,539.61H315.52l.06-4h5.06a25.63,25.63,0,0,0,25.62-25.15V288.75a25.63,25.63,0,0,0-25.62-25.15h-5.06l-.06-4H437l-.06,4h-5.06a25.64,25.64,0,0,0-25.63,25.15V522.51h52.51c40,0,65.89-24.83,78.29-64.52h4Z" transform="translate(0.5 0.5)"/><path d="M521.63,538.61H314.52l.06-4h5.06a25.63,25.63,0,0,0,25.62-25.15V287.75a25.63,25.63,0,0,0-25.62-25.15h-5.06l-.06-4H436l-.06,4h-5.06a25.64,25.64,0,0,0-25.63,25.15V521.51h52.51c40,0,65.89-24.83,78.29-64.52h4Z" transform="translate(0.5 0.5)"/><path d="M520.63,537.61H313.52l.06-4h5.06a25.63,25.63,0,0,0,25.62-25.15V286.75a25.63,25.63,0,0,0-25.62-25.15h-5.06l-.06-4H435l-.06,4h-5.06a25.64,25.64,0,0,0-25.63,25.15V520.51h52.51c40,0,65.89-24.83,78.29-64.52h4Z" transform="translate(0.5 0.5)"/><path d="M519.63,536.61H312.52l.06-4h5.06a25.63,25.63,0,0,0,25.62-25.15V285.75a25.63,25.63,0,0,0-25.62-25.15h-5.06l-.06-4H434l-.06,4h-5.06a25.64,25.64,0,0,0-25.63,25.15V519.51h52.51c40,0,65.89-24.83,78.29-64.52h4Z" transform="translate(0.5 0.5)"/><path d="M518.63,535.61H311.52l.06-4h5.06a25.63,25.63,0,0,0,25.62-25.15V284.75a25.63,25.63,0,0,0-25.62-25.15h-5.06l-.06-4H433l-.06,4h-5.06a25.64,25.64,0,0,0-25.63,25.15V518.51h52.51c40,0,65.89-24.83,78.29-64.52h4Z" transform="translate(0.5 0.5)"/><path d="M517.63,534.61H310.52l.06-4h5.06a25.63,25.63,0,0,0,25.62-25.15V283.75a25.63,25.63,0,0,0-25.62-25.15h-5.06l-.06-4H432l-.06,4h-5.06a25.64,25.64,0,0,0-25.63,25.15V517.51h52.51c40,0,65.89-24.83,78.29-64.52h4Z" transform="translate(0.5 0.5)"/><path d="M516.63,533.61H309.52l.06-4h5.06a25.63,25.63,0,0,0,25.62-25.15V282.75a25.63,25.63,0,0,0-25.62-25.15h-5.06l-.06-4H431l-.06,4h-5.06a25.64,25.64,0,0,0-25.63,25.15V516.51h52.51c40,0,65.89-24.83,78.29-64.52h4Z" transform="translate(0.5 0.5)"/><path d="M515.63,532.61H308.52l.06-4h5.06a25.63,25.63,0,0,0,25.62-25.15V281.75a25.63,25.63,0,0,0-25.62-25.15h-5.06l-.06-4H430l-.06,4h-5.06a25.64,25.64,0,0,0-25.63,25.15V515.51h52.51c40,0,65.89-24.83,78.29-64.52h4Z" transform="translate(0.5 0.5)"/><path d="M514.63,531.61H307.52l.06-4h5.06a25.63,25.63,0,0,0,25.62-25.15V280.75a25.63,25.63,0,0,0-25.62-25.15h-5.06l-.06-4H429l-.06,4h-5.06a25.64,25.64,0,0,0-25.63,25.15V514.51h52.51c40,0,65.89-24.83,78.29-64.52h4Z" transform="translate(0.5 0.5)"/><path d="M513.63,530.61H306.52l.06-4h5.06a25.63,25.63,0,0,0,25.62-25.15V279.75a25.63,25.63,0,0,0-25.62-25.15h-5.06l-.06-4H428l-.06,4h-5.06a25.64,25.64,0,0,0-25.63,25.15V513.51h52.51c40,0,65.89-24.83,78.29-64.52h4Z" transform="translate(0.5 0.5)"/><path d="M512.63,529.61H305.52l.06-4h5.06a25.63,25.63,0,0,0,25.62-25.15V278.75a25.63,25.63,0,0,0-25.62-25.15h-5.06l-.06-4H427l-.06,4h-5.06a25.64,25.64,0,0,0-25.63,25.15V512.51h52.51c40,0,65.89-24.83,78.29-64.52h4Z" transform="translate(0.5 0.5)"/><path d="M511.63,528.61H304.52l.06-4h5.06a25.63,25.63,0,0,0,25.62-25.15V277.75a25.63,25.63,0,0,0-25.62-25.15h-5.06l-.06-4H426l-.06,4h-5.06a25.64,25.64,0,0,0-25.63,25.15V511.51h52.51c40,0,65.89-24.83,78.29-64.52h4Z" transform="translate(0.5 0.5)"/><path d="M510.63,527.61H303.52l.06-4h5.06a25.63,25.63,0,0,0,25.62-25.15V276.75a25.63,25.63,0,0,0-25.62-25.15h-5.06l-.06-4H425l-.06,4h-5.06a25.64,25.64,0,0,0-25.63,25.15V510.51h52.51c40,0,65.89-24.83,78.29-64.52h4Z" transform="translate(0.5 0.5)"/><path d="M509.63,526.61H302.52l.06-4h5.06a25.63,25.63,0,0,0,25.62-25.15V275.75a25.63,25.63,0,0,0-25.62-25.15h-5.06l-.06-4H424l-.06,4h-5.06a25.65,25.65,0,0,0-25.63,25.15V509.51h52.51c40,0,65.89-24.83,78.29-64.52h4Z" transform="translate(0.5 0.5)"/><path d="M508.63,525.61H301.52l.06-4h5.06a25.63,25.63,0,0,0,25.62-25.15V274.75a25.63,25.63,0,0,0-25.62-25.15h-5.06l-.06-4H423l-.06,4h-5.06a25.65,25.65,0,0,0-25.63,25.15V508.51h52.51c40,0,65.89-24.83,78.29-64.52h4Z" transform="translate(0.5 0.5)"/><path d="M507.63,524.61H300.52l.06-4h5.06a25.63,25.63,0,0,0,25.62-25.15V273.75a25.63,25.63,0,0,0-25.62-25.15h-5.06l-.06-4H422l-.06,4h-5.06a25.65,25.65,0,0,0-25.63,25.15V507.51h52.51c40,0,65.89-24.83,78.29-64.52h4Z" transform="translate(0.5 0.5)"/><path d="M506.63,523.61H299.52l.06-4h5.06a25.63,25.63,0,0,0,25.62-25.15V272.75a25.63,25.63,0,0,0-25.62-25.15h-5.06l-.06-4H421l-.06,4h-5.06a25.65,25.65,0,0,0-25.63,25.15V506.51h52.51c40,0,65.89-24.83,78.29-64.52h4Z" transform="translate(0.5 0.5)"/><path d="M505.63,522.61H298.52l.06-4h5.06a25.63,25.63,0,0,0,25.62-25.15V271.75a25.63,25.63,0,0,0-25.62-25.15h-5.06l-.06-4H420l-.06,4h-5.06a25.65,25.65,0,0,0-25.63,25.15V505.51h52.51c40,0,65.89-24.83,78.29-64.52h4Z" transform="translate(0.5 0.5)"/><path d="M504.63,521.61H297.52l.06-4h5.06a25.63,25.63,0,0,0,25.62-25.15V270.75a25.63,25.63,0,0,0-25.62-25.15h-5.06l-.06-4H419l-.06,4h-5.06a25.65,25.65,0,0,0-25.63,25.15V504.51h52.51c40,0,65.89-24.83,78.29-64.52h4Z" transform="translate(0.5 0.5)"/><path d="M503.63,520.61H296.52l.06-4h5.06a25.63,25.63,0,0,0,25.62-25.15V269.75a25.63,25.63,0,0,0-25.62-25.15h-5.06l-.06-4H418l-.06,4h-5.06a25.65,25.65,0,0,0-25.63,25.15V503.51h52.51c40,0,65.89-24.83,78.29-64.52h4Z" transform="translate(0.5 0.5)"/><path d="M502.63,519.61H295.52l.06-4h5.06a25.63,25.63,0,0,0,25.62-25.15V268.75a25.63,25.63,0,0,0-25.62-25.15h-5.06l-.06-4H417l-.06,4h-5.06a25.65,25.65,0,0,0-25.63,25.15V502.51h52.51c40,0,65.89-24.83,78.29-64.52h4Z" transform="translate(0.5 0.5)"/><path d="M501.63,518.61H294.52l.06-4h5.06a25.63,25.63,0,0,0,25.62-25.15V267.75a25.63,25.63,0,0,0-25.62-25.15h-5.06l-.06-4H416l-.06,4h-5.06a25.65,25.65,0,0,0-25.63,25.15V501.51h52.51c40,0,65.89-24.83,78.29-64.52h4Z" transform="translate(0.5 0.5)"/><path d="M500.63,517.61H293.52l.06-4h5.06a25.63,25.63,0,0,0,25.62-25.15V266.75a25.63,25.63,0,0,0-25.62-25.15h-5.06l-.06-4H415l-.06,4h-5.06a25.65,25.65,0,0,0-25.63,25.15V500.51h52.51c40,0,65.89-24.83,78.29-64.52h4Z" transform="translate(0.5 0.5)"/><path d="M499.63,516.61H292.52l.06-4h5.06a25.63,25.63,0,0,0,25.62-25.15V265.75a25.63,25.63,0,0,0-25.62-25.15h-5.06l-.06-4H414l-.06,4h-5.06a25.65,25.65,0,0,0-25.63,25.15V499.51h52.51c40,0,65.89-24.83,78.29-64.52h4Z" transform="translate(0.5 0.5)"/><path d="M498.63,515.61H291.52l.06-4h5.06a25.63,25.63,0,0,0,25.62-25.15V264.75a25.63,25.63,0,0,0-25.62-25.15h-5.06l-.06-4H413l-.06,4h-5.06a25.64,25.64,0,0,0-25.63,25.15V498.51h52.51c40,0,65.89-24.83,78.29-64.52h4Z" transform="translate(0.5 0.5)"/><path d="M497.63,514.61H290.52l.06-4h5.06a25.63,25.63,0,0,0,25.62-25.15V263.75a25.63,25.63,0,0,0-25.62-25.15h-5.06l-.06-4H412l-.06,4h-5.06a25.64,25.64,0,0,0-25.63,25.15V497.51h52.51c40,0,65.89-24.83,78.29-64.52h4Z" transform="translate(0.5 0.5)"/><path d="M496.63,513.61H289.52l.06-4h5.06a25.63,25.63,0,0,0,25.62-25.15V262.75a25.63,25.63,0,0,0-25.62-25.15h-5.06l-.06-4H411l-.06,4h-5.06a25.64,25.64,0,0,0-25.63,25.15V496.51h52.51c40,0,65.89-24.83,78.29-64.52h4Z" transform="translate(0.5 0.5)"/><path d="M495.63,512.61H288.52l.06-4h5.06a25.63,25.63,0,0,0,25.62-25.15V261.75a25.63,25.63,0,0,0-25.62-25.15h-5.06l-.06-4H410l-.06,4h-5.06a25.64,25.64,0,0,0-25.63,25.15V495.51h52.51c40,0,65.89-24.83,78.29-64.52h4Z" transform="translate(0.5 0.5)"/><path d="M494.63,511.61H287.52l.06-4h5.06a25.63,25.63,0,0,0,25.62-25.15V260.75a25.63,25.63,0,0,0-25.62-25.15h-5.06l-.06-4H409l-.06,4h-5.06a25.64,25.64,0,0,0-25.63,25.15V494.51h52.51c40,0,65.89-24.83,78.29-64.52h4Z" transform="translate(0.5 0.5)"/><path d="M493.63,510.61H286.52l.06-4h5.06a25.63,25.63,0,0,0,25.62-25.15V259.75a25.63,25.63,0,0,0-25.62-25.15h-5.06l-.06-4H408l-.06,4h-5.06a25.64,25.64,0,0,0-25.63,25.15V493.51h52.51c40,0,65.89-24.83,78.29-64.52h4Z" transform="translate(0.5 0.5)"/><path d="M492.63,509.61H285.52l.06-4h5.06a25.63,25.63,0,0,0,25.62-25.15V258.75a25.63,25.63,0,0,0-25.62-25.15h-5.06l-.06-4H407l-.06,4h-5.06a25.64,25.64,0,0,0-25.63,25.15V492.51h52.51c40,0,65.89-24.83,78.29-64.52h4Z" transform="translate(0.5 0.5)"/><path d="M491.63,508.61H284.52l.06-4h5.06a25.63,25.63,0,0,0,25.62-25.15V257.75a25.63,25.63,0,0,0-25.62-25.15h-5.06l-.06-4H406l-.06,4h-5.06a25.64,25.64,0,0,0-25.63,25.15V491.51h52.51c40,0,65.89-24.83,78.29-64.52h4Z" transform="translate(0.5 0.5)"/><path d="M490.63,507.61H283.52l.06-4h5.06a25.63,25.63,0,0,0,25.62-25.15V256.75a25.63,25.63,0,0,0-25.62-25.15h-5.06l-.06-4H405l-.06,4h-5.06a25.64,25.64,0,0,0-25.63,25.15V490.51h52.51c40,0,65.89-24.83,78.29-64.52h4Z" transform="translate(0.5 0.5)"/><path d="M489.63,506.61H282.52l.06-4h5.06a25.63,25.63,0,0,0,25.62-25.15V255.75a25.63,25.63,0,0,0-25.62-25.15h-5.06l-.06-4H404l-.06,4h-5.06a25.64,25.64,0,0,0-25.63,25.15V489.51h52.51c40,0,65.89-24.83,78.29-64.52h4Z" transform="translate(0.5 0.5)"/><path d="M488.63,505.61H281.52l.06-4h5.06a25.63,25.63,0,0,0,25.62-25.15V254.75a25.63,25.63,0,0,0-25.62-25.15h-5.06l-.06-4H403l-.06,4h-5.06a25.64,25.64,0,0,0-25.63,25.15V488.51h52.51c40,0,65.89-24.83,78.29-64.52h4Z" transform="translate(0.5 0.5)"/><path d="M487.63,504.61H280.52l.06-4h5.06a25.63,25.63,0,0,0,25.62-25.15V253.75a25.63,25.63,0,0,0-25.62-25.15h-5.06l-.06-4H402l-.06,4h-5.06a25.64,25.64,0,0,0-25.63,25.15V487.51h52.51c40,0,65.89-24.83,78.29-64.52h4Z" transform="translate(0.5 0.5)"/><path d="M486.63,503.61H279.52l.06-4h5.06a25.63,25.63,0,0,0,25.62-25.15V252.75a25.63,25.63,0,0,0-25.62-25.15h-5.06l-.06-4H401l-.06,4h-5.06a25.64,25.64,0,0,0-25.63,25.15V486.51h52.51c40,0,65.89-24.83,78.29-64.52h4Z" transform="translate(0.5 0.5)"/><path d="M485.63,502.61H278.52l.06-4h5.06a25.63,25.63,0,0,0,25.62-25.15V251.75a25.63,25.63,0,0,0-25.62-25.15h-5.06l-.06-4H400l-.06,4h-5.06a25.64,25.64,0,0,0-25.63,25.15V485.51h52.51c40,0,65.89-24.83,78.29-64.52h4Z" transform="translate(0.5 0.5)"/><path d="M484.63,501.61H277.52l.06-4h5.06a25.63,25.63,0,0,0,25.62-25.15V250.75a25.63,25.63,0,0,0-25.62-25.15h-5.06l-.06-4H399l-.06,4h-5.06a25.64,25.64,0,0,0-25.63,25.15V484.51h52.51c40,0,65.89-24.83,78.29-64.52h4Z" transform="translate(0.5 0.5)"/><path d="M483.63,500.61H276.52l.06-4h5.06a25.63,25.63,0,0,0,25.62-25.15V249.75a25.63,25.63,0,0,0-25.62-25.15h-5.06l-.06-4H398l-.06,4h-5.06a25.64,25.64,0,0,0-25.63,25.15V483.51h52.51c40,0,65.89-24.83,78.29-64.52h4Z" transform="translate(0.5 0.5)"/><path d="M482.63,499.61H275.52l.06-4h5.06a25.63,25.63,0,0,0,25.62-25.15V248.75a25.63,25.63,0,0,0-25.62-25.15h-5.06l-.06-4H397l-.06,4h-5.06a25.64,25.64,0,0,0-25.63,25.15V482.51h52.51c40,0,65.89-24.83,78.29-64.52h4Z" transform="translate(0.5 0.5)"/><path d="M481.63,498.61H274.52l.06-4h5.06a25.63,25.63,0,0,0,25.62-25.15V247.75a25.63,25.63,0,0,0-25.62-25.15h-5.06l-.06-4H396l-.06,4h-5.06a25.64,25.64,0,0,0-25.63,25.15V481.51h52.51c40,0,65.89-24.83,78.29-64.52h4Z" transform="translate(0.5 0.5)"/><path d="M480.63,497.61H273.52l.06-4h5.06a25.63,25.63,0,0,0,25.62-25.15V246.75a25.63,25.63,0,0,0-25.62-25.15h-5.06l-.06-4H395l-.06,4h-5.06a25.64,25.64,0,0,0-25.63,25.15V480.51h52.51c40,0,65.89-24.83,78.29-64.52h4Z" transform="translate(0.5 0.5)"/><path d="M479.63,496.61H272.52l.06-4h5.06a25.63,25.63,0,0,0,25.62-25.15V245.75a25.63,25.63,0,0,0-25.62-25.15h-5.06l-.06-4H394l-.06,4h-5.06a25.64,25.64,0,0,0-25.63,25.15V479.51h52.51c40,0,65.89-24.83,78.29-64.52h4Z" transform="translate(0.5 0.5)"/><path d="M478.63,495.61H271.52l.06-4h5.06a25.63,25.63,0,0,0,25.62-25.15V244.75a25.63,25.63,0,0,0-25.62-25.15h-5.06l-.06-4H393l-.06,4h-5.06a25.64,25.64,0,0,0-25.63,25.15V478.51h52.51c40,0,65.89-24.83,78.29-64.52h4Z" transform="translate(0.5 0.5)"/><path d="M477.63,494.61H270.52l.06-4h5.06a25.63,25.63,0,0,0,25.62-25.15V243.75a25.63,25.63,0,0,0-25.62-25.15h-5.06l-.06-4H392l-.06,4h-5.06a25.64,25.64,0,0,0-25.63,25.15V477.51h52.51c40,0,65.89-24.83,78.29-64.52h4Z" transform="translate(0.5 0.5)"/><path d="M476.63,493.61H269.52l.06-4h5.06a25.63,25.63,0,0,0,25.62-25.15V242.75a25.63,25.63,0,0,0-25.62-25.15h-5.06l-.06-4H391l-.06,4h-5.06a25.64,25.64,0,0,0-25.63,25.15V476.51h52.51c40,0,65.89-24.83,78.29-64.52h4Z" transform="translate(0.5 0.5)"/><path d="M475.63,492.61H268.52l.06-4h5.06a25.63,25.63,0,0,0,25.62-25.15V241.75a25.63,25.63,0,0,0-25.62-25.15h-5.06l-.06-4H390l-.06,4h-5.06a25.64,25.64,0,0,0-25.63,25.15V475.51h52.51c40,0,65.89-24.83,78.29-64.52h4Z" transform="translate(0.5 0.5)"/><path d="M474.63,491.61H267.52l.06-4h5.06a25.63,25.63,0,0,0,25.62-25.15V240.75a25.63,25.63,0,0,0-25.62-25.15h-5.06l-.06-4H389l-.06,4h-5.06a25.64,25.64,0,0,0-25.63,25.15V474.51h52.51c40,0,65.89-24.83,78.29-64.52h4Z" transform="translate(0.5 0.5)"/><path d="M473.63,490.61H266.52l.06-4h5.06a25.63,25.63,0,0,0,25.62-25.15V239.75a25.63,25.63,0,0,0-25.62-25.15h-5.06l-.06-4H388l-.06,4h-5.06a25.64,25.64,0,0,0-25.63,25.15V473.51h52.51c40,0,65.89-24.83,78.29-64.52h4Z" transform="translate(0.5 0.5)"/><path d="M472.63,489.61H265.52l.06-4h5.06a25.63,25.63,0,0,0,25.62-25.15V238.75a25.63,25.63,0,0,0-25.62-25.15h-5.06l-.06-4H387l-.06,4h-5.06a25.64,25.64,0,0,0-25.63,25.15V472.51h52.51c40,0,65.89-24.83,78.29-64.52h4Z" transform="translate(0.5 0.5)"/><path d="M471.63,488.61H264.52l.06-4h5.06a25.63,25.63,0,0,0,25.62-25.15V237.75a25.63,25.63,0,0,0-25.62-25.15h-5.06l-.06-4H386l-.06,4h-5.06a25.64,25.64,0,0,0-25.63,25.15V471.51h52.51c40,0,65.89-24.83,78.29-64.52h4Z" transform="translate(0.5 0.5)"/><path d="M470.63,487.61H263.52l.06-4h5.06a25.63,25.63,0,0,0,25.62-25.15V236.75a25.63,25.63,0,0,0-25.62-25.15h-5.06l-.06-4H385l-.06,4h-5.06a25.64,25.64,0,0,0-25.63,25.15V470.51h52.51c40,0,65.89-24.83,78.29-64.52h4Z" transform="translate(0.5 0.5)"/><path d="M469.63,486.61H262.52l.06-4h5.06a25.63,25.63,0,0,0,25.62-25.15V235.75a25.63,25.63,0,0,0-25.62-25.15h-5.06l-.06-4H384l-.06,4h-5.06a25.64,25.64,0,0,0-25.63,25.15V469.51h52.51c40,0,65.89-24.83,78.29-64.52h4Z" transform="translate(0.5 0.5)"/><path d="M468.63,485.61H261.52l.06-4h5.06a25.63,25.63,0,0,0,25.62-25.15V234.75a25.63,25.63,0,0,0-25.62-25.15h-5.06l-.06-4H383l-.06,4h-5.06a25.64,25.64,0,0,0-25.63,25.15V468.51h52.51c40,0,65.89-24.83,78.29-64.52h4Z" transform="translate(0.5 0.5)"/><path d="M467.63,484.61H260.52l.06-4h5.06a25.63,25.63,0,0,0,25.62-25.15V233.75a25.63,25.63,0,0,0-25.62-25.15h-5.06l-.06-4H382l-.06,4h-5.06a25.64,25.64,0,0,0-25.63,25.15V467.51h52.51c40,0,65.89-24.83,78.29-64.52h4Z" transform="translate(0.5 0.5)"/><path d="M466.63,483.61H259.52l.06-4h5.06a25.63,25.63,0,0,0,25.62-25.15V232.75a25.63,25.63,0,0,0-25.62-25.15h-5.06l-.06-4H381l-.06,4h-5.06a25.64,25.64,0,0,0-25.63,25.15V466.51h52.51c40,0,65.89-24.83,78.29-64.52h4Z" transform="translate(0.5 0.5)"/><path d="M465.63,482.61H258.52l.06-4h5.06a25.63,25.63,0,0,0,25.62-25.15V231.75a25.63,25.63,0,0,0-25.62-25.15h-5.06l-.06-4H380l-.06,4h-5.06a25.64,25.64,0,0,0-25.63,25.15V465.51h52.51c40,0,65.89-24.83,78.29-64.52h4Z" transform="translate(0.5 0.5)"/><path d="M464.63,481.61H257.52l.06-4h5.06a25.63,25.63,0,0,0,25.62-25.15V230.75a25.63,25.63,0,0,0-25.62-25.15h-5.06l-.06-4H379l-.06,4h-5.06a25.64,25.64,0,0,0-25.63,25.15V464.51h52.51c40,0,65.89-24.83,78.29-64.52h4Z" transform="translate(0.5 0.5)"/><path d="M463.63,480.61H256.52l.06-4h5.06a25.63,25.63,0,0,0,25.62-25.15V229.75a25.63,25.63,0,0,0-25.62-25.15h-5.06l-.06-4H378l-.06,4h-5.06a25.64,25.64,0,0,0-25.63,25.15V463.51h52.51c40,0,65.89-24.83,78.29-64.52h4Z" transform="translate(0.5 0.5)"/><path d="M462.63,479.61H255.52l.06-4h5.06a25.63,25.63,0,0,0,25.62-25.15V228.75a25.63,25.63,0,0,0-25.62-25.15h-5.06l-.06-4H377l-.06,4h-5.06a25.64,25.64,0,0,0-25.63,25.15V462.51h52.51c40,0,65.89-24.83,78.29-64.52h4Z" transform="translate(0.5 0.5)"/><path d="M461.63,478.61H254.52l.06-4h5.06a25.63,25.63,0,0,0,25.62-25.15V227.75a25.63,25.63,0,0,0-25.62-25.15h-5.06l-.06-4H376l-.06,4h-5.06a25.64,25.64,0,0,0-25.63,25.15V461.51h52.51c40,0,65.89-24.83,78.29-64.52h4Z" transform="translate(0.5 0.5)"/><path d="M460.63,477.61H253.52l.06-4h5.06a25.63,25.63,0,0,0,25.62-25.15V226.75a25.63,25.63,0,0,0-25.62-25.15h-5.06l-.06-4H375l-.06,4h-5.06a25.64,25.64,0,0,0-25.63,25.15V460.51h52.51c40,0,65.89-24.83,78.29-64.52h4Z" transform="translate(0.5 0.5)"/><path d="M459.63,476.61H252.52l.06-4h5.06a25.63,25.63,0,0,0,25.62-25.15V225.75a25.63,25.63,0,0,0-25.62-25.15h-5.06l-.06-4H374l-.06,4h-5.06a25.64,25.64,0,0,0-25.63,25.15V459.51h52.51c40,0,65.89-24.83,78.29-64.52h4Z" transform="translate(0.5 0.5)"/><path d="M458.63,475.61H251.52l.06-4h5.06a25.63,25.63,0,0,0,25.62-25.15V224.75a25.63,25.63,0,0,0-25.62-25.15h-5.06l-.06-4H373l-.06,4h-5.06a25.64,25.64,0,0,0-25.63,25.15V458.51h52.51c40,0,65.89-24.83,78.29-64.52h4Z" transform="translate(0.5 0.5)"/><path d="M457.63,474.61H250.52l.06-4h5.06a25.63,25.63,0,0,0,25.62-25.15V223.75a25.63,25.63,0,0,0-25.62-25.15h-5.06l-.06-4H372l-.06,4h-5.06a25.64,25.64,0,0,0-25.63,25.15V457.51h52.51c40,0,65.89-24.83,78.29-64.52h4Z" transform="translate(0.5 0.5)"/><path d="M456.63,473.61H249.52l.06-4h5.06a25.63,25.63,0,0,0,25.62-25.15V222.75a25.63,25.63,0,0,0-25.62-25.15h-5.06l-.06-4H371l-.06,4h-5.06a25.64,25.64,0,0,0-25.63,25.15V456.51h52.51c40,0,65.89-24.83,78.29-64.52h4Z" transform="translate(0.5 0.5)"/><path d="M455.63,472.61H248.52l.06-4h5.06a25.63,25.63,0,0,0,25.62-25.15V221.75a25.63,25.63,0,0,0-25.62-25.15h-5.06l-.06-4H370l-.06,4h-5.06a25.64,25.64,0,0,0-25.63,25.15V455.51h52.51c40,0,65.89-24.83,78.29-64.52h4Z" transform="translate(0.5 0.5)"/><path d="M454.63,471.61H247.52l.06-4h5.06a25.63,25.63,0,0,0,25.62-25.15V220.75a25.63,25.63,0,0,0-25.62-25.15h-5.06l-.06-4H369l-.06,4h-5.06a25.64,25.64,0,0,0-25.63,25.15V454.51h52.51c40,0,65.89-24.83,78.29-64.52h4Z" transform="translate(0.5 0.5)"/><path d="M453.63,470.61H246.52l.06-4h5.06a25.63,25.63,0,0,0,25.62-25.15V219.75a25.63,25.63,0,0,0-25.62-25.15h-5.06l-.06-4H368l-.06,4h-5.06a25.64,25.64,0,0,0-25.63,25.15V453.51h52.51c40,0,65.89-24.83,78.29-64.52h4Z" transform="translate(0.5 0.5)"/><path d="M452.63,469.61H245.52l.06-4h5.06a25.63,25.63,0,0,0,25.62-25.15V218.75a25.63,25.63,0,0,0-25.62-25.15h-5.06l-.06-4H367l-.06,4h-5.06a25.64,25.64,0,0,0-25.63,25.15V452.51h52.51c40,0,65.89-24.83,78.29-64.52h4Z" transform="translate(0.5 0.5)"/><path d="M451.63,468.61H244.52l.06-4h5.06a25.63,25.63,0,0,0,25.62-25.15V217.75a25.63,25.63,0,0,0-25.62-25.15h-5.06l-.06-4H366l-.06,4h-5.06a25.64,25.64,0,0,0-25.63,25.15V451.51h52.51c40,0,65.89-24.83,78.29-64.52h4Z" transform="translate(0.5 0.5)"/><path d="M450.63,467.61H243.52l.06-4h5.06a25.63,25.63,0,0,0,25.62-25.15V216.75a25.63,25.63,0,0,0-25.62-25.15h-5.06l-.06-4H365l-.06,4h-5.06a25.64,25.64,0,0,0-25.63,25.15V450.51h52.51c40,0,65.89-24.83,78.29-64.52h4Z" transform="translate(0.5 0.5)"/><path d="M449.63,466.61H242.52l.06-4h5.06a25.63,25.63,0,0,0,25.62-25.15V215.75a25.63,25.63,0,0,0-25.62-25.15h-5.06l-.06-4H364l-.06,4h-5.06a25.64,25.64,0,0,0-25.63,25.15V449.51h52.51c40,0,65.89-24.83,78.29-64.52h4Z" transform="translate(0.5 0.5)"/><path d="M448.63,465.61H241.52l.06-4h5.06a25.63,25.63,0,0,0,25.62-25.15V214.75a25.63,25.63,0,0,0-25.62-25.15h-5.06l-.06-4H363l-.06,4h-5.06a25.64,25.64,0,0,0-25.63,25.15V448.51h52.51c40,0,65.89-24.83,78.29-64.52h4Z" transform="translate(0.5 0.5)"/><path d="M447.63,464.61H240.52l.06-4h5.06a25.63,25.63,0,0,0,25.62-25.15V213.75a25.63,25.63,0,0,0-25.62-25.15h-5.06l-.06-4H362l-.06,4h-5.06a25.64,25.64,0,0,0-25.63,25.15V447.51h52.51c40,0,65.89-24.83,78.29-64.52h4Z" transform="translate(0.5 0.5)"/><path d="M446.63,463.61H239.52l.06-4h5.06a25.63,25.63,0,0,0,25.62-25.15V212.75a25.63,25.63,0,0,0-25.62-25.15h-5.06l-.06-4H361l-.06,4h-5.06a25.64,25.64,0,0,0-25.63,25.15V446.51h52.51c40,0,65.89-24.83,78.29-64.52h4Z" transform="translate(0.5 0.5)"/><path d="M445.63,462.61H238.52l.06-4h5.06a25.63,25.63,0,0,0,25.62-25.15V211.75a25.63,25.63,0,0,0-25.62-25.15h-5.06l-.06-4H360l-.06,4h-5.06a25.64,25.64,0,0,0-25.63,25.15V445.51h52.51c40,0,65.89-24.83,78.29-64.52h4Z" transform="translate(0.5 0.5)"/><path d="M444.63,461.61H237.52l.06-4h5.06a25.63,25.63,0,0,0,25.62-25.15V210.75a25.63,25.63,0,0,0-25.62-25.15h-5.06l-.06-4H359l-.06,4h-5.06a25.64,25.64,0,0,0-25.63,25.15V444.51h52.51c40,0,65.89-24.83,78.29-64.52h4Z" transform="translate(0.5 0.5)"/><path d="M443.63,460.61H236.52l.06-4h5.06a25.63,25.63,0,0,0,25.62-25.15V209.75a25.63,25.63,0,0,0-25.62-25.15h-5.06l-.06-4H358l-.06,4h-5.06a25.64,25.64,0,0,0-25.63,25.15V443.51h52.51c40,0,65.89-24.83,78.29-64.52h4Z" transform="translate(0.5 0.5)"/><path d="M442.63,459.61H235.52l.06-4h5.06a25.63,25.63,0,0,0,25.62-25.15V208.75a25.63,25.63,0,0,0-25.62-25.15h-5.06l-.06-4H357l-.06,4h-5.06a25.64,25.64,0,0,0-25.63,25.15V442.51h52.51c40,0,65.89-24.83,78.29-64.52h4Z" transform="translate(0.5 0.5)"/><path d="M441.63,458.61H234.52l.06-4h5.06a25.63,25.63,0,0,0,25.62-25.15V207.75a25.63,25.63,0,0,0-25.62-25.15h-5.06l-.06-4H356l-.06,4h-5.06a25.64,25.64,0,0,0-25.63,25.15V441.51h52.51c40,0,65.89-24.83,78.29-64.52h4Z" transform="translate(0.5 0.5)"/><path d="M440.63,457.61H233.52l.06-4h5.06a25.63,25.63,0,0,0,25.62-25.15V206.75a25.63,25.63,0,0,0-25.62-25.15h-5.06l-.06-4H355l-.06,4h-5.06a25.64,25.64,0,0,0-25.63,25.15V440.51h52.51c40,0,65.89-24.83,78.29-64.52h4Z" transform="translate(0.5 0.5)"/><path d="M439.63,456.61H232.52l.06-4h5.06a25.63,25.63,0,0,0,25.62-25.15V205.75a25.63,25.63,0,0,0-25.62-25.15h-5.06l-.06-4H354l-.06,4h-5.06a25.64,25.64,0,0,0-25.63,25.15V439.51h52.51c40,0,65.89-24.83,78.29-64.52h4Z" transform="translate(0.5 0.5)"/><path d="M438.63,455.61H231.52l.06-4h5.06a25.63,25.63,0,0,0,25.62-25.15V204.75a25.63,25.63,0,0,0-25.62-25.15h-5.06l-.06-4H353l-.06,4h-5.06a25.64,25.64,0,0,0-25.63,25.15V438.51h52.51c40,0,65.89-24.83,78.29-64.52h4Z" transform="translate(0.5 0.5)"/><path d="M437.63,454.61H230.52l.06-4h5.06a25.63,25.63,0,0,0,25.62-25.15V203.75a25.63,25.63,0,0,0-25.62-25.15h-5.06l-.06-4H352l-.06,4h-5.06a25.64,25.64,0,0,0-25.63,25.15V437.51h52.51c40,0,65.89-24.83,78.29-64.52h4Z" transform="translate(0.5 0.5)"/><path d="M436.63,453.61H229.52l.06-4h5.06a25.63,25.63,0,0,0,25.62-25.15V202.75a25.63,25.63,0,0,0-25.62-25.15h-5.06l-.06-4H351l-.06,4h-5.06a25.64,25.64,0,0,0-25.63,25.15V436.51h52.51c40,0,65.89-24.83,78.29-64.52h4Z" transform="translate(0.5 0.5)"/><path d="M435.63,452.61H228.52l.06-4h5.06a25.63,25.63,0,0,0,25.62-25.15V201.75a25.63,25.63,0,0,0-25.62-25.15h-5.06l-.06-4H350l-.06,4h-5.06a25.64,25.64,0,0,0-25.63,25.15V435.51h52.51c40,0,65.89-24.83,78.29-64.52h4Z" transform="translate(0.5 0.5)"/><path d="M434.63,451.61H227.52l.06-4h5.06a25.63,25.63,0,0,0,25.62-25.15V200.75a25.63,25.63,0,0,0-25.62-25.15h-5.06l-.06-4H349l-.06,4h-5.06a25.64,25.64,0,0,0-25.63,25.15V434.51h52.51c40,0,65.89-24.83,78.29-64.52h4Z" transform="translate(0.5 0.5)"/><path d="M433.63,450.61H226.52l.06-4h5.06a25.63,25.63,0,0,0,25.62-25.15V199.75a25.63,25.63,0,0,0-25.62-25.15h-5.06l-.06-4H348l-.06,4h-5.06a25.64,25.64,0,0,0-25.63,25.15V433.51h52.51c40,0,65.89-24.83,78.29-64.52h4Z" transform="translate(0.5 0.5)"/><path d="M432.63,449.61H225.52l.06-4h5.06a25.63,25.63,0,0,0,25.62-25.15V198.75a25.63,25.63,0,0,0-25.62-25.15h-5.06l-.06-4H347l-.06,4h-5.06a25.64,25.64,0,0,0-25.63,25.15V432.51h52.51c40,0,65.89-24.83,78.29-64.52h4Z" transform="translate(0.5 0.5)"/><path d="M431.63,448.61H224.52l.06-4h5.06a25.63,25.63,0,0,0,25.62-25.15V197.75a25.63,25.63,0,0,0-25.62-25.15h-5.06l-.06-4H346l-.06,4h-5.06a25.64,25.64,0,0,0-25.63,25.15V431.51h52.51c40,0,65.89-24.83,78.29-64.52h4Z" transform="translate(0.5 0.5)"/><path d="M430.63,447.61H223.52l.06-4h5.06a25.63,25.63,0,0,0,25.62-25.15V196.75a25.63,25.63,0,0,0-25.62-25.15h-5.06l-.06-4H345l-.06,4h-5.06a25.64,25.64,0,0,0-25.63,25.15V430.51h52.51c40,0,65.89-24.83,78.29-64.52h4Z" transform="translate(0.5 0.5)"/><path d="M429.63,446.61H222.52l.06-4h5.06a25.63,25.63,0,0,0,25.62-25.15V195.75a25.63,25.63,0,0,0-25.62-25.15h-5.06l-.06-4H344l-.06,4h-5.06a25.64,25.64,0,0,0-25.63,25.15V429.51h52.51c40,0,65.89-24.83,78.29-64.52h4Z" transform="translate(0.5 0.5)"/><path d="M428.63,445.61H221.52l.06-4h5.06a25.63,25.63,0,0,0,25.62-25.15V194.75a25.63,25.63,0,0,0-25.62-25.15h-5.06l-.06-4H343l-.06,4h-5.06a25.64,25.64,0,0,0-25.63,25.15V428.51h52.51c40,0,65.89-24.83,78.29-64.52h4Z" transform="translate(0.5 0.5)"/><path d="M427.63,444.61H220.52l.06-4h5.06a25.63,25.63,0,0,0,25.62-25.15V193.75a25.63,25.63,0,0,0-25.62-25.15h-5.06l-.06-4H342l-.06,4h-5.06a25.64,25.64,0,0,0-25.63,25.15V427.51h52.51c40,0,65.89-24.83,78.29-64.52h4Z" transform="translate(0.5 0.5)"/><path d="M426.63,443.61H219.52l.06-4h5.06a25.63,25.63,0,0,0,25.62-25.15V192.75a25.63,25.63,0,0,0-25.62-25.15h-5.06l-.06-4H341l-.06,4h-5.06a25.64,25.64,0,0,0-25.63,25.15V426.51h52.51c40,0,65.89-24.83,78.29-64.52h4Z" transform="translate(0.5 0.5)"/><path d="M425.63,442.61H218.52l.06-4h5.06a25.63,25.63,0,0,0,25.62-25.15V191.75a25.63,25.63,0,0,0-25.62-25.15h-5.06l-.06-4H340l-.06,4h-5.06a25.64,25.64,0,0,0-25.63,25.15V425.51h52.51c40,0,65.89-24.83,78.29-64.52h4Z" transform="translate(0.5 0.5)"/><path d="M424.63,441.61H217.52l.06-4h5.06a25.63,25.63,0,0,0,25.62-25.15V190.75a25.63,25.63,0,0,0-25.62-25.15h-5.06l-.06-4H339l-.06,4h-5.06a25.64,25.64,0,0,0-25.63,25.15V424.51h52.51c40,0,65.89-24.83,78.29-64.52h4Z" transform="translate(0.5 0.5)"/><path d="M423.63,440.61H216.52l.06-4h5.06a25.63,25.63,0,0,0,25.62-25.15V189.75a25.63,25.63,0,0,0-25.62-25.15h-5.06l-.06-4H338l-.06,4h-5.06a25.64,25.64,0,0,0-25.63,25.15V423.51h52.51c40,0,65.89-24.83,78.29-64.52h4Z" transform="translate(0.5 0.5)"/><path d="M422.63,439.61H215.52l.06-4h5.06a25.63,25.63,0,0,0,25.62-25.15V188.75a25.63,25.63,0,0,0-25.62-25.15h-5.06l-.06-4H337l-.06,4h-5.06a25.64,25.64,0,0,0-25.63,25.15V422.51h52.51c40,0,65.89-24.83,78.29-64.52h4Z" transform="translate(0.5 0.5)"/><path d="M421.63,438.61H214.52l.06-4h5.06a25.63,25.63,0,0,0,25.62-25.15V187.75a25.63,25.63,0,0,0-25.62-25.15h-5.06l-.06-4H336l-.06,4h-5.06a25.64,25.64,0,0,0-25.63,25.15V421.51h52.51c40,0,65.89-24.83,78.29-64.52h4Z" transform="translate(0.5 0.5)"/><path d="M420.63,437.61H213.52l.06-4h5.06a25.63,25.63,0,0,0,25.62-25.15V186.75a25.63,25.63,0,0,0-25.62-25.15h-5.06l-.06-4H335l-.06,4h-5.06a25.64,25.64,0,0,0-25.63,25.15V420.51h52.51c40,0,65.89-24.83,78.29-64.52h4Z" transform="translate(0.5 0.5)"/><path d="M419.63,436.61H212.52l.06-4h5.06a25.63,25.63,0,0,0,25.62-25.15V185.75a25.63,25.63,0,0,0-25.62-25.15h-5.06l-.06-4H334l-.06,4h-5.06a25.64,25.64,0,0,0-25.63,25.15V419.51h52.51c40,0,65.89-24.83,78.29-64.52h4Z" transform="translate(0.5 0.5)"/><path d="M418.63,435.61H211.52l.06-4h5.06a25.63,25.63,0,0,0,25.62-25.15V184.75a25.63,25.63,0,0,0-25.62-25.15h-5.06l-.06-4H333l-.06,4h-5.06a25.64,25.64,0,0,0-25.63,25.15V418.51h52.51c40,0,65.89-24.83,78.29-64.52h4Z" transform="translate(0.5 0.5)"/><path d="M417.63,434.61H210.52l.06-4h5.06a25.63,25.63,0,0,0,25.62-25.15V183.75a25.63,25.63,0,0,0-25.62-25.15h-5.06l-.06-4H332l-.06,4h-5.06a25.64,25.64,0,0,0-25.63,25.15V417.51h52.51c40,0,65.89-24.83,78.29-64.52h4Z" transform="translate(0.5 0.5)"/><path d="M416.63,433.61H209.52l.06-4h5.06a25.63,25.63,0,0,0,25.62-25.15V182.75a25.63,25.63,0,0,0-25.62-25.15h-5.06l-.06-4H331l-.06,4h-5.06a25.64,25.64,0,0,0-25.63,25.15V416.51h52.51c40,0,65.89-24.83,78.29-64.52h4Z" transform="translate(0.5 0.5)"/><path d="M415.63,432.61H208.52l.06-4h5.06a25.63,25.63,0,0,0,25.62-25.15V181.75a25.63,25.63,0,0,0-25.62-25.15h-5.06l-.06-4H330l-.06,4h-5.06a25.64,25.64,0,0,0-25.63,25.15V415.51h52.51c40,0,65.89-24.83,78.29-64.52h4Z" transform="translate(0.5 0.5)"/><path d="M414.63,431.61H207.52l.06-4h5.06a25.63,25.63,0,0,0,25.62-25.15V180.75a25.63,25.63,0,0,0-25.62-25.15h-5.06l-.06-4H329l-.06,4h-5.06a25.64,25.64,0,0,0-25.63,25.15V414.51h52.51c40,0,65.89-24.83,78.29-64.52h4Z" transform="translate(0.5 0.5)"/><path d="M413.63,430.61H206.52l.06-4h5.06a25.63,25.63,0,0,0,25.62-25.15V179.75a25.63,25.63,0,0,0-25.62-25.15h-5.06l-.06-4H328l-.06,4h-5.06a25.64,25.64,0,0,0-25.63,25.15V413.51h52.51c40,0,65.89-24.83,78.29-64.52h4Z" transform="translate(0.5 0.5)"/><path d="M412.63,429.61H205.52l.06-4h5.06a25.63,25.63,0,0,0,25.62-25.15V178.75a25.63,25.63,0,0,0-25.62-25.15h-5.06l-.06-4H327l-.06,4h-5.06a25.64,25.64,0,0,0-25.63,25.15V412.51h52.51c40,0,65.89-24.83,78.29-64.52h4Z" transform="translate(0.5 0.5)"/><path d="M411.63,428.61H204.52l.06-4h5.06a25.63,25.63,0,0,0,25.62-25.15V177.75a25.63,25.63,0,0,0-25.62-25.15h-5.06l-.06-4H326l-.06,4h-5.06a25.64,25.64,0,0,0-25.63,25.15V411.51h52.51c40,0,65.89-24.83,78.29-64.52h4Z" transform="translate(0.5 0.5)"/><path d="M410.63,427.61H203.52l.06-4h5.06a25.63,25.63,0,0,0,25.62-25.15V176.75a25.63,25.63,0,0,0-25.62-25.15h-5.06l-.06-4H325l-.06,4h-5.06a25.64,25.64,0,0,0-25.63,25.15V410.51h52.51c40,0,65.89-24.83,78.29-64.52h4Z" transform="translate(0.5 0.5)"/><path d="M409.63,426.61H202.52l.06-4h5.06a25.63,25.63,0,0,0,25.62-25.15V175.75a25.63,25.63,0,0,0-25.62-25.15h-5.06l-.06-4H324l-.06,4h-5.06a25.64,25.64,0,0,0-25.63,25.15V409.51h52.51c40,0,65.89-24.83,78.29-64.52h4Z" transform="translate(0.5 0.5)"/><path d="M408.63,425.61H201.52l.06-4h5.06a25.63,25.63,0,0,0,25.62-25.15V174.75a25.63,25.63,0,0,0-25.62-25.15h-5.06l-.06-4H323l-.06,4h-5.06a25.64,25.64,0,0,0-25.63,25.15V408.51h52.51c40,0,65.89-24.83,78.29-64.52h4Z" transform="translate(0.5 0.5)"/><path d="M407.63,424.61H200.52l.06-4h5.06a25.63,25.63,0,0,0,25.62-25.15V173.75a25.63,25.63,0,0,0-25.62-25.15h-5.06l-.06-4H322l-.06,4h-5.06a25.64,25.64,0,0,0-25.63,25.15V407.51h52.51c40,0,65.89-24.83,78.29-64.52h4Z" transform="translate(0.5 0.5)"/><path d="M406.63,423.61H199.52l.06-4h5.06a25.63,25.63,0,0,0,25.62-25.15V172.75a25.63,25.63,0,0,0-25.62-25.15h-5.06l-.06-4H321l-.06,4h-5.06a25.64,25.64,0,0,0-25.63,25.15V406.51h52.51c40,0,65.89-24.83,78.29-64.52h4Z" transform="translate(0.5 0.5)"/><path d="M405.63,422.61H198.52l.06-4h5.06a25.63,25.63,0,0,0,25.62-25.15V171.75a25.63,25.63,0,0,0-25.62-25.15h-5.06l-.06-4H320l-.06,4h-5.06a25.64,25.64,0,0,0-25.63,25.15V405.51h52.51c40,0,65.89-24.83,78.29-64.52h4Z" transform="translate(0.5 0.5)"/><path d="M404.63,421.61H197.52l.06-4h5.06a25.63,25.63,0,0,0,25.62-25.15V170.75a25.63,25.63,0,0,0-25.62-25.15h-5.06l-.06-4H319l-.06,4h-5.06a25.64,25.64,0,0,0-25.63,25.15V404.51h52.51c40,0,65.89-24.83,78.29-64.52h4Z" transform="translate(0.5 0.5)"/><path d="M403.63,420.61H196.52l.06-4h5.06a25.63,25.63,0,0,0,25.62-25.15V169.75a25.63,25.63,0,0,0-25.62-25.15h-5.06l-.06-4H318l-.06,4h-5.06a25.64,25.64,0,0,0-25.63,25.15V403.51h52.51c40,0,65.89-24.83,78.29-64.52h4Z" transform="translate(0.5 0.5)"/><path d="M402.63,419.61H195.52l.06-4h5.06a25.63,25.63,0,0,0,25.62-25.15V168.75a25.63,25.63,0,0,0-25.62-25.15h-5.06l-.06-4H317l-.06,4h-5.06a25.64,25.64,0,0,0-25.63,25.15V402.51h52.51c40,0,65.89-24.83,78.29-64.52h4Z" transform="translate(0.5 0.5)"/><path d="M401.63,418.61H194.52l.06-4h5.06a25.63,25.63,0,0,0,25.62-25.15V167.75a25.63,25.63,0,0,0-25.62-25.15h-5.06l-.06-4H316l-.06,4h-5.06a25.64,25.64,0,0,0-25.63,25.15V401.51h52.51c40,0,65.89-24.83,78.29-64.52h4Z" transform="translate(0.5 0.5)"/><path d="M400.63,417.61H193.52l.06-4h5.06a25.63,25.63,0,0,0,25.62-25.15V166.75a25.63,25.63,0,0,0-25.62-25.15h-5.06l-.06-4H315l-.06,4h-5.06a25.64,25.64,0,0,0-25.63,25.15V400.51h52.51c40,0,65.89-24.83,78.29-64.52h4Z" transform="translate(0.5 0.5)"/><path d="M399.63,416.61H192.52l.06-4h5.06a25.63,25.63,0,0,0,25.62-25.15V165.75a25.63,25.63,0,0,0-25.62-25.15h-5.06l-.06-4H314l-.06,4h-5.06a25.64,25.64,0,0,0-25.63,25.15V399.51h52.51c40,0,65.89-24.83,78.29-64.52h4Z" transform="translate(0.5 0.5)"/><path d="M398.63,415.61H191.52l.06-4h5.06a25.63,25.63,0,0,0,25.62-25.15V164.75a25.63,25.63,0,0,0-25.62-25.15h-5.06l-.06-4H313l-.06,4h-5.06a25.64,25.64,0,0,0-25.63,25.15V398.51h52.51c40,0,65.89-24.83,78.29-64.52h4Z" transform="translate(0.5 0.5)"/><path d="M397.63,414.61H190.52l.06-4h5.06a25.63,25.63,0,0,0,25.62-25.15V163.75a25.63,25.63,0,0,0-25.62-25.15h-5.06l-.06-4H312l-.06,4h-5.06a25.64,25.64,0,0,0-25.63,25.15V397.51h52.51c40,0,65.89-24.83,78.29-64.52h4Z" transform="translate(0.5 0.5)"/><path d="M396.63,413.61H189.52l.06-4h5.06a25.63,25.63,0,0,0,25.62-25.15V162.75a25.63,25.63,0,0,0-25.62-25.15h-5.06l-.06-4H311l-.06,4h-5.06a25.64,25.64,0,0,0-25.63,25.15V396.51h52.51c40,0,65.89-24.83,78.29-64.52h4Z" transform="translate(0.5 0.5)"/><path d="M395.63,412.61H188.52l.06-4h5.06a25.63,25.63,0,0,0,25.62-25.15V161.75a25.63,25.63,0,0,0-25.62-25.15h-5.06l-.06-4H310l-.06,4h-5.06a25.64,25.64,0,0,0-25.63,25.15V395.51h52.51c40,0,65.89-24.83,78.29-64.52h4Z" transform="translate(0.5 0.5)"/><path d="M394.63,411.61H187.52l.06-4h5.06a25.63,25.63,0,0,0,25.62-25.15V160.75a25.63,25.63,0,0,0-25.62-25.15h-5.06l-.06-4H309l-.06,4h-5.06a25.64,25.64,0,0,0-25.63,25.15V394.51h52.51c40,0,65.89-24.83,78.29-64.52h4Z" transform="translate(0.5 0.5)"/><path d="M393.63,410.61H186.52l.06-4h5.06a25.63,25.63,0,0,0,25.62-25.15V159.75a25.63,25.63,0,0,0-25.62-25.15h-5.06l-.06-4H308l-.06,4h-5.06a25.64,25.64,0,0,0-25.63,25.15V393.51h52.51c40,0,65.89-24.83,78.29-64.52h4Z" transform="translate(0.5 0.5)"/><path d="M392.63,409.61H185.52l.06-4h5.06a25.63,25.63,0,0,0,25.62-25.15V158.75a25.63,25.63,0,0,0-25.62-25.15h-5.06l-.06-4H307l-.06,4h-5.06a25.64,25.64,0,0,0-25.63,25.15V392.51h52.51c40,0,65.89-24.83,78.29-64.52h4Z" transform="translate(0.5 0.5)"/><path d="M391.63,408.61H184.52l.06-4h5.06a25.63,25.63,0,0,0,25.62-25.15V157.75a25.63,25.63,0,0,0-25.62-25.15h-5.06l-.06-4H306l-.06,4h-5.06a25.64,25.64,0,0,0-25.63,25.15V391.51h52.51c40,0,65.89-24.83,78.29-64.52h4Z" transform="translate(0.5 0.5)"/><path d="M390.63,407.61H183.52l.06-4h5.06a25.63,25.63,0,0,0,25.62-25.15V156.75a25.63,25.63,0,0,0-25.62-25.15h-5.06l-.06-4H305l-.06,4h-5.06a25.64,25.64,0,0,0-25.63,25.15V390.51h52.51c40,0,65.89-24.83,78.29-64.52h4Z" transform="translate(0.5 0.5)"/><path d="M389.63,406.61H182.52l.06-4h5.06a25.63,25.63,0,0,0,25.62-25.15V155.75a25.63,25.63,0,0,0-25.62-25.15h-5.06l-.06-4H304l-.06,4h-5.06a25.64,25.64,0,0,0-25.63,25.15V389.51h52.51c40,0,65.89-24.83,78.29-64.52h4Z" transform="translate(0.5 0.5)"/><path d="M388.63,405.61H181.52l.06-4h5.06a25.63,25.63,0,0,0,25.62-25.15V154.75a25.63,25.63,0,0,0-25.62-25.15h-5.06l-.06-4H303l-.06,4h-5.06a25.64,25.64,0,0,0-25.63,25.15V388.51h52.51c40,0,65.89-24.83,78.29-64.52h4Z" transform="translate(0.5 0.5)"/><path d="M387.63,404.61H180.52l.06-4h5.06a25.63,25.63,0,0,0,25.62-25.15V153.75a25.63,25.63,0,0,0-25.62-25.15h-5.06l-.06-4H302l-.06,4h-5.06a25.64,25.64,0,0,0-25.63,25.15V387.51h52.51c40,0,65.89-24.83,78.29-64.52h4Z" transform="translate(0.5 0.5)"/><path d="M386.63,403.61H179.52l.06-4h5.06a25.63,25.63,0,0,0,25.62-25.15V152.75a25.63,25.63,0,0,0-25.62-25.15h-5.06l-.06-4H301l-.06,4h-5.06a25.64,25.64,0,0,0-25.63,25.15V386.51h52.51c40,0,65.89-24.83,78.29-64.52h4Z" transform="translate(0.5 0.5)"/><path d="M385.63,402.61H178.52l.06-4h5.06a25.63,25.63,0,0,0,25.62-25.15V151.75a25.63,25.63,0,0,0-25.62-25.15h-5.06l-.06-4H300l-.06,4h-5.06a25.64,25.64,0,0,0-25.63,25.15V385.51h52.51c40,0,65.89-24.83,78.29-64.52h4Z" transform="translate(0.5 0.5)"/><path d="M384.63,401.61H177.52l.06-4h5.06a25.63,25.63,0,0,0,25.62-25.15V150.75a25.63,25.63,0,0,0-25.62-25.15h-5.06l-.06-4H299l-.06,4h-5.06a25.64,25.64,0,0,0-25.63,25.15V384.51h52.51c40,0,65.89-24.83,78.29-64.52h4Z" transform="translate(0.5 0.5)"/><path d="M383.63,400.61H176.52l.06-4h5.06a25.63,25.63,0,0,0,25.62-25.15V149.75a25.63,25.63,0,0,0-25.62-25.15h-5.06l-.06-4H298l-.06,4h-5.06a25.64,25.64,0,0,0-25.63,25.15V383.51h52.51c40,0,65.89-24.83,78.29-64.52h4Z" transform="translate(0.5 0.5)"/><path d="M382.63,399.61H175.52l.06-4h5.06a25.63,25.63,0,0,0,25.62-25.15V148.75a25.63,25.63,0,0,0-25.62-25.15h-5.06l-.06-4H297l-.06,4h-5.06a25.64,25.64,0,0,0-25.63,25.15V382.51h52.51c40,0,65.89-24.83,78.29-64.52h4Z" transform="translate(0.5 0.5)"/><path d="M381.63,398.61H174.52l.06-4h5.06a25.63,25.63,0,0,0,25.62-25.15V147.75a25.63,25.63,0,0,0-25.62-25.15h-5.06l-.06-4H296l-.06,4h-5.06a25.64,25.64,0,0,0-25.63,25.15V381.51h52.51c40,0,65.89-24.83,78.29-64.52h4Z" transform="translate(0.5 0.5)"/><path d="M380.63,397.61H173.52l.06-4h5.06a25.63,25.63,0,0,0,25.62-25.15V146.75a25.63,25.63,0,0,0-25.62-25.15h-5.06l-.06-4H295l-.06,4h-5.06a25.64,25.64,0,0,0-25.63,25.15V380.51h52.51c40,0,65.89-24.83,78.29-64.52h4Z" transform="translate(0.5 0.5)"/><path d="M379.63,396.61H172.52l.06-4h5.06a25.63,25.63,0,0,0,25.62-25.15V145.75a25.63,25.63,0,0,0-25.62-25.15h-5.06l-.06-4H294l-.06,4h-5.06a25.64,25.64,0,0,0-25.63,25.15V379.51h52.51c40,0,65.89-24.83,78.29-64.52h4Z" transform="translate(0.5 0.5)"/><path d="M378.63,395.61H171.52l.06-4h5.06a25.63,25.63,0,0,0,25.62-25.15V144.75a25.63,25.63,0,0,0-25.62-25.15h-5.06l-.06-4H293l-.06,4h-5.06a25.64,25.64,0,0,0-25.63,25.15V378.51h52.51c40,0,65.89-24.83,78.29-64.52h4Z" transform="translate(0.5 0.5)"/><path d="M377.63,394.61H170.52l.06-4h5.06a25.63,25.63,0,0,0,25.62-25.15V143.75a25.63,25.63,0,0,0-25.62-25.15h-5.06l-.06-4H292l-.06,4h-5.06a25.64,25.64,0,0,0-25.63,25.15V377.51h52.51c40,0,65.89-24.83,78.29-64.52h4Z" transform="translate(0.5 0.5)"/><path d="M376.63,393.61H169.52l.06-4h5.06a25.63,25.63,0,0,0,25.62-25.15V142.75a25.63,25.63,0,0,0-25.62-25.15h-5.06l-.06-4H291l-.06,4h-5.06a25.64,25.64,0,0,0-25.63,25.15V376.51h52.51c40,0,65.89-24.83,78.29-64.52h4Z" transform="translate(0.5 0.5)"/><path d="M375.63,392.61H168.52l.06-4h5.06a25.63,25.63,0,0,0,25.62-25.15V141.75a25.63,25.63,0,0,0-25.62-25.15h-5.06l-.06-4H290l-.06,4h-5.06a25.64,25.64,0,0,0-25.63,25.15V375.51h52.51c40,0,65.89-24.83,78.29-64.52h4Z" transform="translate(0.5 0.5)"/><path d="M374.63,391.61H167.52l.06-4h5.06a25.63,25.63,0,0,0,25.62-25.15V140.75a25.63,25.63,0,0,0-25.62-25.15h-5.06l-.06-4H289l-.06,4h-5.06a25.64,25.64,0,0,0-25.63,25.15V374.51h52.51c40,0,65.89-24.83,78.29-64.52h4Z" transform="translate(0.5 0.5)"/><path d="M373.63,390.61H166.52l.06-4h5.06a25.63,25.63,0,0,0,25.62-25.15V139.75a25.63,25.63,0,0,0-25.62-25.15h-5.06l-.06-4H288l-.06,4h-5.06a25.64,25.64,0,0,0-25.63,25.15V373.51h52.51c40,0,65.89-24.83,78.29-64.52h4Z" transform="translate(0.5 0.5)"/><path d="M372.63,389.61H165.52l.06-4h5.06a25.63,25.63,0,0,0,25.62-25.15V138.75a25.63,25.63,0,0,0-25.62-25.15h-5.06l-.06-4H287l-.06,4h-5.06a25.64,25.64,0,0,0-25.63,25.15V372.51h52.51c40,0,65.89-24.83,78.29-64.52h4Z" transform="translate(0.5 0.5)"/><path d="M371.63,388.61H164.52l.06-4h5.06a25.63,25.63,0,0,0,25.62-25.15V137.75a25.63,25.63,0,0,0-25.62-25.15h-5.06l-.06-4H286l-.06,4h-5.06a25.64,25.64,0,0,0-25.63,25.15V371.51h52.51c40,0,65.89-24.83,78.29-64.52h4Z" transform="translate(0.5 0.5)"/><path d="M370.63,387.61H163.52l.06-4h5.06a25.63,25.63,0,0,0,25.62-25.15V136.75a25.63,25.63,0,0,0-25.62-25.15h-5.06l-.06-4H285l-.06,4h-5.06a25.64,25.64,0,0,0-25.63,25.15V370.51h52.51c40,0,65.89-24.83,78.29-64.52h4Z" transform="translate(0.5 0.5)"/><path d="M369.63,386.61H162.52l.06-4h5.06a25.63,25.63,0,0,0,25.62-25.15V135.75a25.63,25.63,0,0,0-25.62-25.15h-5.06l-.06-4H284l-.06,4h-5.06a25.64,25.64,0,0,0-25.63,25.15V369.51h52.51c40,0,65.89-24.83,78.29-64.52h4Z" transform="translate(0.5 0.5)"/><path d="M368.63,385.61H161.52l.06-4h5.06a25.63,25.63,0,0,0,25.62-25.15V134.75a25.63,25.63,0,0,0-25.62-25.15h-5.06l-.06-4H283l-.06,4h-5.06a25.64,25.64,0,0,0-25.63,25.15V368.51h52.51c40,0,65.89-24.83,78.29-64.52h4Z" transform="translate(0.5 0.5)"/><path d="M367.63,384.61H160.52l.06-4h5.06a25.63,25.63,0,0,0,25.62-25.15V133.75a25.63,25.63,0,0,0-25.62-25.15h-5.06l-.06-4H282l-.06,4h-5.06a25.64,25.64,0,0,0-25.63,25.15V367.51h52.51c40,0,65.89-24.83,78.29-64.52h4Z" transform="translate(0.5 0.5)"/><path d="M366.63,383.61H159.52l.06-4h5.06a25.63,25.63,0,0,0,25.62-25.15V132.75a25.63,25.63,0,0,0-25.62-25.15h-5.06l-.06-4H281l-.06,4h-5.06a25.64,25.64,0,0,0-25.63,25.15V366.51h52.51c40,0,65.89-24.83,78.29-64.52h4Z" transform="translate(0.5 0.5)"/><path d="M365.63,382.61H158.52l.06-4h5.06a25.63,25.63,0,0,0,25.62-25.15V131.75a25.63,25.63,0,0,0-25.62-25.15h-5.06l-.06-4H280l-.06,4h-5.06a25.64,25.64,0,0,0-25.63,25.15V365.51h52.51c40,0,65.89-24.83,78.29-64.52h4Z" transform="translate(0.5 0.5)"/><path d="M364.63,381.61H157.52l.06-4h5.06a25.63,25.63,0,0,0,25.62-25.15V130.75a25.63,25.63,0,0,0-25.62-25.15h-5.06l-.06-4H279l-.06,4h-5.06a25.64,25.64,0,0,0-25.63,25.15V364.51h52.51c40,0,65.89-24.83,78.29-64.52h4Z" transform="translate(0.5 0.5)"/><path d="M363.63,380.61H156.52l.06-4h5.06a25.63,25.63,0,0,0,25.62-25.15V129.75a25.63,25.63,0,0,0-25.62-25.15h-5.06l-.06-4H278l-.06,4h-5.06a25.64,25.64,0,0,0-25.63,25.15V363.51h52.51c40,0,65.89-24.83,78.29-64.52h4Z" transform="translate(0.5 0.5)"/><path d="M362.63,379.61H155.52l.06-4h5.06a25.63,25.63,0,0,0,25.62-25.15V128.75a25.63,25.63,0,0,0-25.62-25.15h-5.06l-.06-4H277l-.06,4h-5.06a25.64,25.64,0,0,0-25.63,25.15V362.51h52.51c40,0,65.89-24.83,78.29-64.52h4Z" transform="translate(0.5 0.5)"/><path d="M361.63,378.61H154.52l.06-4h5.06a25.63,25.63,0,0,0,25.62-25.15V127.75a25.63,25.63,0,0,0-25.62-25.15h-5.06l-.06-4H276l-.06,4h-5.06a25.64,25.64,0,0,0-25.63,25.15V361.51h52.51c40,0,65.89-24.83,78.29-64.52h4Z" transform="translate(0.5 0.5)"/><path d="M360.63,377.61H153.52l.06-4h5.06a25.63,25.63,0,0,0,25.62-25.15V126.75a25.63,25.63,0,0,0-25.62-25.15h-5.06l-.06-4H275l-.06,4h-5.06a25.64,25.64,0,0,0-25.63,25.15V360.51h52.51c40,0,65.89-24.83,78.29-64.52h4Z" transform="translate(0.5 0.5)"/><path d="M359.63,376.61H152.52l.06-4h5.06a25.63,25.63,0,0,0,25.62-25.15V125.75a25.63,25.63,0,0,0-25.62-25.15h-5.06l-.06-4H274l-.06,4h-5.06a25.64,25.64,0,0,0-25.63,25.15V359.51h52.51c40,0,65.89-24.83,78.29-64.52h4Z" transform="translate(0.5 0.5)"/><path d="M358.63,375.61H151.52l.06-4h5.06a25.63,25.63,0,0,0,25.62-25.15V124.75a25.63,25.63,0,0,0-25.62-25.15h-5.06l-.06-4H273l-.06,4h-5.06a25.64,25.64,0,0,0-25.63,25.15V358.51h52.51c40,0,65.89-24.83,78.29-64.52h4Z" transform="translate(0.5 0.5)"/><path d="M357.63,374.61H150.52l.06-4h5.06a25.63,25.63,0,0,0,25.62-25.15V123.75a25.63,25.63,0,0,0-25.62-25.15h-5.06l-.06-4H272l-.06,4h-5.06a25.64,25.64,0,0,0-25.63,25.15V357.51h52.51c40,0,65.89-24.83,78.29-64.52h4Z" transform="translate(0.5 0.5)"/><path d="M356.63,373.61H149.52l.06-4h5.06a25.63,25.63,0,0,0,25.62-25.15V122.75a25.63,25.63,0,0,0-25.62-25.15h-5.06l-.06-4H271l-.06,4h-5.06a25.64,25.64,0,0,0-25.63,25.15V356.51h52.51c40,0,65.89-24.83,78.29-64.52h4Z" transform="translate(0.5 0.5)"/><path d="M355.63,372.61H148.52l.06-4h5.06a25.63,25.63,0,0,0,25.62-25.15V121.75a25.63,25.63,0,0,0-25.62-25.15h-5.06l-.06-4H270l-.06,4h-5.06a25.64,25.64,0,0,0-25.63,25.15V355.51h52.51c40,0,65.89-24.83,78.29-64.52h4Z" transform="translate(0.5 0.5)"/><path d="M354.63,371.61H147.52l.06-4h5.06a25.63,25.63,0,0,0,25.62-25.15V120.75a25.63,25.63,0,0,0-25.62-25.15h-5.06l-.06-4H269l-.06,4h-5.06a25.64,25.64,0,0,0-25.63,25.15V354.51h52.51c40,0,65.89-24.83,78.29-64.52h4Z" transform="translate(0.5 0.5)"/><path d="M353.63,370.61H146.52l.06-4h5.06a25.63,25.63,0,0,0,25.62-25.15V119.75a25.63,25.63,0,0,0-25.62-25.15h-5.06l-.06-4H268l-.06,4h-5.06a25.64,25.64,0,0,0-25.63,25.15V353.51h52.51c40,0,65.89-24.83,78.29-64.52h4Z" transform="translate(0.5 0.5)"/><path d="M352.63,369.61H145.52l.06-4h5.06a25.63,25.63,0,0,0,25.62-25.15V118.75a25.63,25.63,0,0,0-25.62-25.15h-5.06l-.06-4H267l-.06,4h-5.06a25.64,25.64,0,0,0-25.63,25.15V352.51h52.51c40,0,65.89-24.83,78.29-64.52h4Z" transform="translate(0.5 0.5)"/><path d="M351.63,368.61H144.52l.06-4h5.06a25.63,25.63,0,0,0,25.62-25.15V117.75a25.63,25.63,0,0,0-25.62-25.15h-5.06l-.06-4H266l-.06,4h-5.06a25.64,25.64,0,0,0-25.63,25.15V351.51h52.51c40,0,65.89-24.83,78.29-64.52h4Z" transform="translate(0.5 0.5)"/><path d="M350.63,367.61H143.52l.06-4h5.06a25.63,25.63,0,0,0,25.62-25.15V116.75a25.63,25.63,0,0,0-25.62-25.15h-5.06l-.06-4H265l-.06,4h-5.06a25.64,25.64,0,0,0-25.63,25.15V350.51h52.51c40,0,65.89-24.83,78.29-64.52h4Z" transform="translate(0.5 0.5)"/></g></g><path d="M350.63,367.61H143.52l.06-4h5.06a25.63,25.63,0,0,0,25.62-25.15V116.75a25.63,25.63,0,0,0-25.62-25.15h-5.06l-.06-4H265l-.06,4h-5.06a25.64,25.64,0,0,0-25.63,25.15V350.51h52.51c40,0,65.89-24.83,78.29-64.52h4Z" transform="translate(0.5 0.5)" fill="#fff"/></svg>