<svg id="Layer_1" data-name="Layer 1" xmlns="http://www.w3.org/2000/svg" viewBox="0 0 500 500"><title>Artboard 7</title><g id="Shape_18" data-name="Shape 18"><path d="M339.68,391.34c-1.53.06-3.45-.14-4-1.59l33.8-1.44c-.69,1.71-2.92,2-4.77,2.11Z" fill="#1b2021"/><path d="M392.58,426.24l-248.66,4.45c-12.25.22-24.71.41-36.51-2.9l35.51-269.65L329.25,74.32c5.94-2.67,12.15-5.4,18.66-5.1l26.33,304.72a3.47,3.47,0,0,1-3.46,4.63L127.33,423.45l258.83-5.77q-13.7-131.28-25.47-262.74c1.68-2.32,4.68,1.44,5,4.29l26.93,267m-231.45-12a9.33,9.33,0,0,0-3.55.29,11.18,11.18,0,0,0,5.74-.6,2.34,2.34,0,0,0-2.27.19m13.3-2.7a40.74,40.74,0,0,0-8.34,1.8,19,19,0,0,0,8.34-1.8m-20.67,4.51a8.63,8.63,0,0,0-4.38,0l-19.81,3.56a22.07,22.07,0,0,1-4.24.48c-1.6,0-3.19-.4-4.79-.36a4.88,4.88,0,0,0-4.15,2,5.71,5.71,0,0,0,3.46.25q13.34-1.84,26.49-4.79,3.68-.75,7.41-1.17m-37,2.35.81-1.19a43,43,0,0,0,.55-10.79l-1.53,8.9a4.69,4.69,0,0,0,.17,3.08m1.56-20a2.77,2.77,0,0,0,0,3.27,6.44,6.44,0,0,0,.41-5l-.63,1.55m1.77-5.79-.26-1.13a3.85,3.85,0,0,0-.53,4.13l.68-3Z" fill="#1b2021"/><path d="M368.11,384.64l-.63,1.27A231.35,231.35,0,0,0,342.76,387l-.67-1.14a176.7,176.7,0,0,1,20-2A12.83,12.83,0,0,1,368.11,384.64Z" fill="#1b2021"/><path d="M371.25,387a3,3,0,0,1,4.38-2.32l-.61,1.44A13.37,13.37,0,0,0,371.25,387Z" fill="#1b2021"/><path d="M375.39,381.56a.8.8,0,0,1-1,.89,2.53,2.53,0,0,1-.09-1.46.87.87,0,0,1,1.17-.57l.24,1.08Z" fill="#1b2021"/><path d="M313,391.7c.25,1.18-1.36,1.77-2.56,1.87l-10.68.83c-.38-.6.55-1.17,1.25-1.29A116.28,116.28,0,0,1,313,391.7Z" fill="#1b2021"/></g></svg>