<svg id="Layer_1" data-name="Layer 1" xmlns="http://www.w3.org/2000/svg" viewBox="0 0 357.65 500"><title>Artboard 12</title><g id="Shape_20" data-name="Shape 20"><path d="M41.4,351.42.13,349.18v-4.57l163.62,4.5c.93,3.5,5.43,4.35,9,4.52L333,361.41l-114.38-8.64,114.22,6q-8.2-73.53-14.41-147.26c2.45,4.27,3,9.34,3.48,14.24l13.55,135.38c.28,2.75.17,6.22-2.33,7.39a6.79,6.79,0,0,1-3.34.34l-171.67-11.1,7.3,4.34a152.56,152.56,0,0,1-49.56-4.37,24,24,0,0,1-19.3-.44,10.31,10.31,0,0,0,4.6,3.41,45.48,45.48,0,0,1-11.87-1.4q2.44-.89,4.92-1.67l-39.77-.23,3.8-2.78L36.61,353l4.78-1.57m24.93,3.9c.74-.33,1.51-1,2.25-.63a5.85,5.85,0,0,0,5-.08,13.56,13.56,0,0,0-10.81,0,3.25,3.25,0,0,0,3.6.7m65.34,3.25a4.16,4.16,0,0,0,4,.64,10,10,0,0,0-8.28-1.11,3.31,3.31,0,0,0,4.07.38m7,0-1.12-.65a1.52,1.52,0,0,0-.63,1.06,4.07,4.07,0,0,0,6,0l-4.21-.4M83.5,355.32a2.19,2.19,0,0,0-3,0,10.84,10.84,0,0,0,7-.13,2.36,2.36,0,0,0-3.75,0m-27.11-2.77c.88.25,2.11-.28,2-1.18l-2.87-.14a.94.94,0,0,0,.89,1.36m106.25-.26,1.11,1.6a2.3,2.3,0,0,0-1.37-2.73.77.77,0,0,0,.19,1.16M74,356.31a1.29,1.29,0,0,0,1.9.38,1.12,1.12,0,0,0-1.93-.54M48.69,352c.66.16,1.7,0,1.53-.68l-2-.18a.54.54,0,0,0,.41.91m30.62-.4c-.49-.11-1.29.16-1,.59.31.62,1.47-.1,1.06-.66m35.95,2.29c.34-.62-.83-1.28-1.18-.67a.68.68,0,0,0,1,.55m215,10.77c-.37-.28-.75.5-.41.82a1.24,1.24,0,0,0,1.21-.28l-.68-.68Z" fill="#1b2021"/><path d="M290.06.06l2,6c2.76-1,6.13-3.27,5.1-6h27.91l-1.92,5.86A10.91,10.91,0,0,0,326.83.06h30.59l.12,6.14A218,218,0,0,1,217.48,2.94c4.75,3.39,10.37,5.34,16,7a208.92,208.92,0,0,0,35.9,7.36c2.88.33,6.42,1.13,7.12,3.95-21.31-2.25-42.92-5.9-61.88-15.88C209.34,2.62,202.66-.53,198,3.15A5.21,5.21,0,0,1,195.17.07H256.4a16.56,16.56,0,0,0,10,13.24A25.66,25.66,0,0,1,258.5.08h20c.39,2-.28,4.13-.81,6.14s-.93,4.23-.05,6.12,3.54,3,5.13,1.7a5.27,5.27,0,0,0,1.38-3.44L285.6.06h4.46m14.72,4.58c-4.38-.86-8.71,1.35-12.63,3.49-2.67,1.46-5.44,3-7.17,5.51a4.56,4.56,0,0,0,4.44-2.26c.27-.49,1.12-.13,1.22.42a2.85,2.85,0,0,1-.43,1.6A1.4,1.4,0,0,0,290.3,15a10,10,0,0,0,5,0c1.58-.56,2.9-2.26,2.42-3.87a4.45,4.45,0,0,1,3-5.36c1.94-.5,3.95.39,5.76,1.26.83-.86-.54-2.13-1.71-2.36m14.75,5.68a1.24,1.24,0,0,0-.42,1.83,6.13,6.13,0,0,0,3.14-5,3.25,3.25,0,0,0-2.53,3.12m-121-9.08a1.51,1.51,0,0,0-1.54-.67,1,1,0,0,0,0,1.29c.65.14,1.62,0,1.57-.64Z" fill="#1b2021"/><path d="M2.79,324.44q20.34-58.37,38.14-117.59c.53-1.78,1.27-3.78,3-4.44,1.93-.74.5-5.07,2.57-5Q25.28,269.74.66,341.07C-1,335.62.92,329.81,2.79,324.44Z" fill="#1b2021"/><path d="M357.41,10.33a203,203,0,0,1-63.13,11.32c-6.43.12-13.17-.15-18.75-3.36,27.46-.18,55.58-.47,81.31-10.07A1.86,1.86,0,0,1,357.41,10.33Z" fill="#1b2021"/><path d="M7.31,146.15l-1.64.25-.55-1.88a33.86,33.86,0,0,0-3.61,5.41,3.75,3.75,0,0,1,1.56,2.17L0,151.22a14.41,14.41,0,0,1,2.21-5.15l24.28-40.92c.48-.81.92-1.94.24-2.59l2.78.1a29.18,29.18,0,0,0-5.1,10.09,22.62,22.62,0,0,1,10.47,2.65c-1,1.45-3.16,1.34-4.78.68s-3.19-1.7-4.94-1.58c-2.44.17-4.08,2.5-5.36,4.59L7.43,139.39C6.11,141.56,5.08,144.95,7.31,146.15Z" fill="#1b2021"/><path d="M3.68,52.22l-1.37.87c-.07,1.06,1.68,1.13,2.43.38S6,51.56,7,51.26a12.16,12.16,0,0,1,5.95,2.23,7.06,7.06,0,0,1-5-.44l-.47,2.13A58.07,58.07,0,0,0,.06,56.37L1.59,54,.12,53.26v-2.2C1.46,50.93,3.13,51,3.68,52.22Z" fill="#1b2021"/><path d="M.17,351.09c2.21,1.75,6.13-.38,8,1.7a2.54,2.54,0,0,1,.62,2.12c-.22,1.24-1.28,2.72-.33,3.54,1.23,1.06,2.9-1.4,4.49-1-1,1-1.58,2.4-2.81,3.06a3,3,0,0,1-4.09-3.16c1.25-.13,1.76-1.91,1.08-3a4.14,4.14,0,0,0-3.29-1.56,21.39,21.39,0,0,1-3.76-.26Z" fill="#1b2021"/><path d="M.18,361.28c-.18-.8,0-2,.82-1.88a4.26,4.26,0,0,1,.22-2,3.93,3.93,0,0,1,2.35,2.91,1.64,1.64,0,0,0-.76,1.44,3.88,3.88,0,0,1,5.57,2.1c-.76.71-1.84-.45-2.86-.65-1.95-.38-3.78,2.87-5.34,1.65l0-1.65,1.28-.56A1.71,1.71,0,0,0,.18,361.28Z" fill="#1b2021"/><path d="M78.14.07H88.79l-1.17,3c-1.08.6-2.35-1.18-3.49-.71-2.08.86-4.42-.17-6.44-1.18A1.17,1.17,0,0,0,78.14.07Z" fill="#1b2021"/><path d="M124.67.08a12,12,0,0,1,1.88,3.7c-.91.47-1.69-1.23-2.71-1.11s-.8,1.9-.06,2.77c-.28.7-1.4.57-1.87,0a7.7,7.7,0,0,1-.82-2.1c-.28-.7-1-1.39-1.7-1.16a1.38,1.38,0,0,0-.47-2.06h2.27a1.25,1.25,0,0,0,1.12,1.82,4,4,0,0,0,.17-1.85Z" fill="#1b2021"/><path d="M280.83,3.23a5.08,5.08,0,0,1,.55-2.28,1.74,1.74,0,0,1,2-.84,66.68,66.68,0,0,0-1.91,11.7c-.64.56-1.29-.7-1.22-1.55Z" fill="#1b2021"/><path d="M.12,63.45V58.56a12.5,12.5,0,0,0,6.45-.83c.64.59.11,1.76-.7,2.09a6.7,6.7,0,0,1-2.6.14,2.21,2.21,0,0,0-2.2,1.1,6,6,0,0,1,1.74,2.2A7.21,7.21,0,0,1,.12,63.45Z" fill="#1b2021"/><path d="M7.24,49.46c-.9,1.66-3.41,1.21-5.1.37C1,49.24-.36,48,.28,46.85a6.59,6.59,0,0,0,4.09,1.48C5.49,48.34,7.05,48.35,7.24,49.46Z" fill="#1b2021"/><path d="M357.38,138c-1.55-.59-3.27-.26-4.93-.18s-3.56-.26-4.44-1.66l9.4.51Z" fill="#1b2021"/><path d="M95.06,1.87q-2.72.22-5.45.33L90.12.07h4A2.84,2.84,0,0,0,95.06,1.87Z" fill="#1b2021"/><path d="M313.42,498.26a5.34,5.34,0,0,1,6.35,1.74A16.33,16.33,0,0,1,313.42,498.26Z" fill="#1b2021"/><path d="M.13,114c1.39.43,3.09-.78,4.25.09A1.46,1.46,0,0,1,5,115.31a5.7,5.7,0,0,0-4.76.57Z" fill="#1b2021"/><path d="M357.4,444.18a4.67,4.67,0,0,1-4.53-1.06,19,19,0,0,1,4.55-.2Z" fill="#1b2021"/><path d="M.15,65.75a2.51,2.51,0,0,1,2.51.48A2.87,2.87,0,0,1,.13,68.38V65.67Z" fill="#1b2021"/><path d="M129.38.25a5.29,5.29,0,0,1,1.45,3,6.48,6.48,0,0,1-3.11-3,2.91,2.91,0,0,1,1.84-.21Z" fill="#1b2021"/><path d="M.13,74.51A3.46,3.46,0,0,0,3,73.65a2.45,2.45,0,0,1,.18,1.54,3.39,3.39,0,0,1-1.9.71c-.69,0-1.37-.71-1.15-1.36Z" fill="#1b2021"/><path d="M.13,99a2.45,2.45,0,0,1,2.7,1.55,7.76,7.76,0,0,1-2.71.18V99Z" fill="#1b2021"/><path d="M173.05.12a2.88,2.88,0,0,1-4,0L173,0Z" fill="#1b2021"/><path d="M357.39,460.35l-2.65-.46a1.9,1.9,0,0,1,2.92.11Z" fill="#1b2021"/><path d="M133.57.07A1.28,1.28,0,0,1,132,1.38a1.79,1.79,0,0,1-.19-1.31h1.79Z" fill="#1b2021"/><path d="M1.88,86.12.14,85.58V84.27a1.87,1.87,0,0,1,1.79,1.79Z" fill="#1b2021"/><path d="M.2,405.5l1.76.7a1.66,1.66,0,0,1-1.83.8v-1.32Z" fill="#1b2021"/><path d="M.21,95.17l1.73.76a4,4,0,0,1-1.81.79V95.37Z" fill="#1b2021"/><path d="M.13,355.53l1.75.22a2.26,2.26,0,0,1-1.76,1.18v-1.41Z" fill="#1b2021"/><path d="M.14,70.14c.59-.29,1.19.44,1.32,1.09a2.12,2.12,0,0,1-1.33.2V70.14Z" fill="#1b2021"/><path d="M188.08,0c.27.36-.19.89-.64.85a1.78,1.78,0,0,1-1.08-.73L188.08,0Z" fill="#1b2021"/><path d="M.12,370.29a.87.87,0,0,1,.71,1.29c-.58.19-.79-.74-.67-1.34Z" fill="#1b2021"/><path d="M.12,139.78a.87.87,0,0,1,.71,1.29c-.58.19-.79-.74-.67-1.34Z" fill="#1b2021"/><path d="M167.16,192a14.64,14.64,0,0,0,4.19,4.07,5,5,0,0,0,5.53-.19l-1.57,5.84c-11.24-12.84-28.82-18.21-45.76-20.18-25.34-2.94-50.94.39-76.24,3.71a4.68,4.68,0,0,0-2.37.76,4.68,4.68,0,0,0-1.29,2.28l-2.08,6.17c-.08-4,.79-9.32,4.78-10,25.42-4.25,51.33-8.51,76.85-4.88q6.09.87,12.08,2.32c3.58.87,7.13,1.9,10.67,2.93l16.45,4.78A1.67,1.67,0,0,0,167.16,192Z" fill="#1b2021"/><path d="M188,187.62c23.38-4.13,47.25,2.19,69.9,9.3,6.35,2,12.75,4.07,19.38,4.64l16.22,5.14c3.88,1.23,7.86,2.47,11.92,2.2s8.76-2,12.2.33A72,72,0,0,1,289.19,207c-21.4-6.07-42.82-12.14-64.61-16.59a116.39,116.39,0,0,0-18.43-2.61,67.2,67.2,0,0,0-28.49,5.09C179.78,189.56,184,188.31,188,187.62Z" fill="#1b2021"/><path d="M156.67,345.2c-17-12.34-37.93-18.25-58.82-20.1s-41.92.14-62.79,2.29q-10.6,1.09-21.2,2.24c-1.79.19-3.7.37-5.31-.44l15.23-1.83c37.46-4.49,76.65-8.8,111.93,4.59C143.51,334.93,151.21,338.88,156.67,345.2Z" fill="#1b2021"/><path d="M158.76,337.13l8.66-76.52c2-17.6,4-35.21,7.12-52.64q-6.9,66.72-15,133.31C158.52,340.28,158.6,338.58,158.76,337.13Z" fill="#1b2021"/><path d="M303,354.72c-31-.8-61.21-9.42-91.83-14.32-4.61-.74-9.24-1.39-13.89-1.87-6-.62-12.11-.94-18.18-1.26,20.36-1.69,40.6,3.28,60.61,7.38Q271.16,351.08,303,354.72Z" fill="#1b2021"/><path d="M41.45,57.79a4.2,4.2,0,0,1,.09,5.64c-.23.25,0,.65.23.89a5.79,5.79,0,0,0,6.15,1.21,2.44,2.44,0,0,1,3.19,1.79L47,67a3.86,3.86,0,0,0-.52,2.69c.28.89,1.61,1.42,2.16.67a2.28,2.28,0,0,1,1.59-.69,16.93,16.93,0,0,1,6.1-.15,5.75,5.75,0,0,1,4.45,3.77l-6.29.3c-.92,0-2.24-.42-1.91-1.28,1.08-.21,2.1.55,3.2.7s2.41-1.18,1.56-1.89a1.65,1.65,0,0,0-1-.27l-5.22-.22c-.94,0-2.12.07-2.44,1a5.09,5.09,0,0,1-2.9-.48,1.76,1.76,0,0,1-.59-2.54c.65-.68-.57-1.8-1.42-1.4a2.66,2.66,0,0,0-1.13,2.43A2.9,2.9,0,0,0,39,71.78c.89.57,2,.31,3.09.24s2.36.24,2.61,1.27l-6.93.23c-3.79.12-7.58.25-11.37.23-.36-1.22,1.47-1.94,2.69-1.59s2.51,1.13,3.68.61a10,10,0,0,0,1.44-1.09,1.29,1.29,0,0,1,1.66,0c.65.74,1.87-.28,1.92-1.26s-.39-2,0-2.92c-1.84.94-3.78-1.28-4.19-3.3s-.33-4.39-1.87-5.77c-.59-.53-1.35-.83-2-1.34A1.81,1.81,0,0,1,29.1,55c2.6,1.32,5.54,3.11,5.84,6a3,3,0,0,0,6-.19c0-1.06-.38-2.36.46-3m-.53,9.88.51-1.77a2.42,2.42,0,0,0-1.62-.2,2.81,2.81,0,0,0-.2,2.48l1.3-.48m-3.85-2.41A4.08,4.08,0,0,0,34.64,64,9.79,9.79,0,0,0,37,66.68a1.18,1.18,0,0,0,.16-1.44Z" fill="#1b2021"/><path d="M153.89,20a130.15,130.15,0,0,0-14-2.15l3.19,3.23a4.76,4.76,0,0,1,1.64,2.64c.11,1.05-.88,2.24-1.87,1.88a1.86,1.86,0,0,0-3.15-1.24,2.78,2.78,0,0,0,2.66,1.85l-.94,3.13-10.68,3.5c-1.92.63-4.73.84-5.29-1.11,1.16.57,2.53,1.15,3.7.59s1.16-2.8-.14-2.8l4.34.84c-1.57-1.93-4.76-3.84-6.09-1.74a9.21,9.21,0,0,0-4.89-.5l-6.72.53a28,28,0,0,0,11.49,7.17l-1.42,2.83c.47-1.2-1-2.24-2.13-2.76l-5.05-2.22-2,4.09a9,9,0,0,1-4.48-4,3.41,3.41,0,0,0,5.29-1.68l-3.42-1a2.32,2.32,0,0,0-2.22-3,10.23,10.23,0,0,0,2.38,5.1,10.54,10.54,0,0,0-5.82,1,6.68,6.68,0,0,0,4.58,2.53A6.72,6.72,0,0,0,108,41.7a3.58,3.58,0,0,1,4.57-.7c-1.61,2.9-6.47,3.07-8.28.29a3.34,3.34,0,0,0,3-3.27c-2,.53-4.77.68-5.45-1.27A18.52,18.52,0,0,1,107,36.6l-1.69-1.79,1-2c-2.15-2-4.63-4.06-7.53-3.9-1.5.08-2.94.78-4.44.74s-3.17-1.38-2.67-2.79a6.05,6.05,0,0,0-.42,5.27L100.6,30l-1.55,2.39a10.9,10.9,0,0,1,5.23.64l-1.69,2.21a10.75,10.75,0,0,0-14.18,1.2l5.27,1.05-4,1.8c1,.72.19,2.56-1.05,2.77s-2.42-.56-3.45-1.29a3.47,3.47,0,0,0,2.72-4L83.39,40.2a1.8,1.8,0,0,1-.18,2.65A19.77,19.77,0,0,0,73.47,48l5.11-.8c2.25-.35,4.6-.7,6.77,0s4.08,2.78,3.77,5l-4.29-3.47c-2.8-1-5.8.55-8.66,1.39s-6.87.3-7.51-2.62a3.13,3.13,0,0,0,1.71,4.76c-.1,1.06-1.77.58-2.52-.19l-2.76-2.8a4,4,0,0,0-.42-3.15c-.74-.86-1.16,1.18-1.74,2.16a2.65,2.65,0,0,1-2.26.92,92.51,92.51,0,0,1-31.35-3.66c-.2,1.7,1.62,3,3.3,3.29s3.5.15,5,.91,2.41,3.14,1,4.15a15.35,15.35,0,0,0,8.67-2.62c-.32,2.93-3.47,4.92-6.42,4.87s-5.65-1.63-8-3.41c-1.8-1.36-3.57-2.92-5.75-3.47s-5,.32-5.6,2.48c1.44-.76,3-1.55,4.62-1.28s3,2.16,2.12,3.54a8.08,8.08,0,0,0-1.07,5.74,7.09,7.09,0,0,1-1.94-3.5c-.16-1.34.8-2.91,2.15-2.85.73-1-1.51-1.71-2.28-.73s-.81,2.47-1.8,3.23a4.46,4.46,0,0,0-4.92-3.18,4.46,4.46,0,0,0-3.53,4.67,3.46,3.46,0,0,1,.43-5.69l-3.69-.91a10.69,10.69,0,0,0,2.45-3.36A9.33,9.33,0,0,0,18.91,51,11.13,11.13,0,0,0,23,46.34c-2.28,1.6-6,2.93-7.34.51l3-2.14c-1.61-1.67-3.82,1.36-6,2.15a3.24,3.24,0,0,1-3.32-.75,4.22,4.22,0,0,1,.91,4.95L7.17,45.69l-2.09,1.5c-1.23-1.58-3.47-3.3-5-2l0-27.94a2.84,2.84,0,0,1,.47-1.93c.45-.51,1.48-.48,1.64.18.59-1-.92-1.94-2.08-2.17V.08a122.47,122.47,0,0,1,13.77.3Q45.62-.3,77.35.24a6.9,6.9,0,0,1-4.89,3.65L94.53,5.65A4.21,4.21,0,0,1,92,2.93l9,3.51L95.42.09l5.78,0a4.67,4.67,0,0,1-.8,2.78,4.78,4.78,0,0,0,6.1.49L101.25,1.6a23.47,23.47,0,0,1,15.6-.28,1.36,1.36,0,0,1-1,2.31c2.15,4.31,9,5.12,12.12,1.43a4.83,4.83,0,0,0,6.71,2.59c.79-.46,1.44-1.14,2.26-1.54a2,2,0,0,1,2.49.34c.53.75-.37,2.07-1.15,1.59l14.77,1.66c2.59.29,5.8,1.12,6.28,3.68a21.84,21.84,0,0,1-5.72.91A17.44,17.44,0,0,0,164,16.61l-2.75-3.18a5.53,5.53,0,0,1,7.07-2.59l-3.14,1.71q4.78,1.64,9.62,3.05a15.75,15.75,0,0,1-9.19-.82l.76,3.65a5.34,5.34,0,0,1-5.8-.17,2,2,0,0,0-1.19,2.57,14.44,14.44,0,0,1,11.47,2.1l-4.78,2.22a1.46,1.46,0,0,0,.2-2.33,3.08,3.08,0,0,0-2.64-.52,7.5,7.5,0,0,0-4.87,3.17L158.41,21c-1.51-.34-3-.69-4.53-1m-38.77,3.68a7.13,7.13,0,0,0-4.61-2.39l.89-2a3.34,3.34,0,0,0-3.09,1.39c1.31.09,2.28,1.2,3.26,2.08s2.44,1.63,3.55.93m38.35-5.91A2.32,2.32,0,0,0,151.34,16a6.78,6.78,0,0,0-2.93.54,1,1,0,0,0,0,1.38,10.61,10.61,0,0,1,5-.11m-18.53,2c-1.38-2.3-4.46-2.77-7.14-3a4.62,4.62,0,0,1,.19,4.43c-.26.52.44,1,1,1.24a7.54,7.54,0,0,1,2.73,3.3,7.41,7.41,0,0,0,2.75,3.29c1.29.67,3.23.27,3.63-1.13l1.47.71c.94,0,1.18-1.53.44-2.11a2.69,2.69,0,0,0-2.7,0,8.64,8.64,0,0,1-2.62,1c-.42-.74-.06-1.66.07-2.5s-.23-2-1.08-1.95a4.54,4.54,0,0,1-3.24-1,2.48,2.48,0,0,1-.51-3.14,1.72,1.72,0,0,1,2.85.15A11.36,11.36,0,0,0,138.36,25c-.56-.73.14-1.83,1-2.18s1.84-.31,2.68-.68a3.87,3.87,0,0,0-5.17-1c-.74.5-1.47-.59-1.93-1.36M90.42,32.14A2.81,2.81,0,0,1,88.82,29l-1.33-.15c.07,1.86-.19,4.22-2,4.79-1.6.51-3.39-.92-5-.31a1.86,1.86,0,0,1,.2-1.89c-.16-.63-1.21-.48-1.49.1a3,3,0,0,0,.05,1.9A1.76,1.76,0,0,1,79,35.26l2.39,1.81.63-2c1.07,1.36,3.2,1.44,4.75.67a11.46,11.46,0,0,0,3.7-3.58m36-14.28a2.24,2.24,0,0,0-2.9,3.36c-2.18.41-4.93-.08-6.18,1.75a2.59,2.59,0,0,0,3.17,3.84c-.1-.68-.78-1.08-1.2-1.62s-.33-1.62.36-1.59a10.87,10.87,0,0,0,5.94-1.51,2.91,2.91,0,0,1,.8-4.22M69.39,36a2.94,2.94,0,0,1-1.66-1.77,13.45,13.45,0,0,0-3.87.22c1.31,2.51,4.88,2.46,7.68,2A3.9,3.9,0,0,0,74.4,35C75,34,74,32.45,73,32.93l-.46,2.28L69.5,32.81,69.39,36M82,37.37a4.62,4.62,0,0,1-2.92,1.71,7.71,7.71,0,0,0-2.5-4.49c-.29,1.12-1.42,1.78-2.06,2.74s-.3,2.76.84,2.6a10.23,10.23,0,0,1,1.27-3.22,10.25,10.25,0,0,1,1.12,4.65,19.19,19.19,0,0,0,4.51-2.21c.54-.36,1.11-1,.72-1.55a.78.78,0,0,0-1-.23M20.15,43.24a3.16,3.16,0,0,0,2,.28c.2-1.09-1.29-2.26-.59-3.12.39-.49,1.14-.36,1.76-.32s1.45-.27,1.36-.88c1.72,0,4,.54,4,2.25a12.58,12.58,0,0,0-.19,1.63c.08.55.85,1,1.16.54A3.63,3.63,0,0,0,28.18,39a6.15,6.15,0,0,0-5.24-.23c-1.89.69-3.74,2.73-2.79,4.51M135.44,16.67a3.39,3.39,0,0,0-3.19-4.19c-2.9.09-5.49-1.68-7.84-3.38a8.47,8.47,0,0,0,8.53,4.64c.8-.11,1,1,1.05,1.85s1,1.76,1.45,1.08m7.34-1,1-2.13a4,4,0,0,0,5.6,0,17.37,17.37,0,0,1-4.26-.35c-3-.77-6-3.18-8.94-2.09,2.84.53,6.32,1.71,6.6,4.59M102.41,6.79q2.87.05,5.73,0C110,6.7,111.26,5,112.26,3.43a2,2,0,0,0-2.83.79c-1.09,2.44-6.07.07-7,2.57M54.2,34.1a7.45,7.45,0,0,0,5.46-2.38,3.23,3.23,0,0,0-2.37-.11l-4.21.88c.15.83-.08,1.69.08,2.52s1,1.65,1.77,1.27a3.42,3.42,0,0,0-.73-2.18M52.58,44.74c1,.18,2.49-.3,2-1.18a43.19,43.19,0,0,0-6-.93A2.45,2.45,0,0,0,47,40.87a1.69,1.69,0,0,0,.24,2.39,4.91,4.91,0,0,0,2.49,1l2.89.53m48.23-19.17c-2-1-5.22,1.11-6.44-.8-.24-.38-.32-.86-.57-1.24s-.81-.64-1.15-.35c-.5,1.43.67,3,2.09,3.51a8.77,8.77,0,0,0,4.48,0c.68-.12,1.52-.4,1.58-1.09M74.71,40.94l-1.19,2.23a2,2,0,0,0-3.29,2.06l2.34-.49a4.55,4.55,0,0,0,2.77-1.3c.65-.82.39-2.35-.64-2.51M62.26,43a7.08,7.08,0,0,0-6.94,3.53c.38.57,1,1.22,1.64.88A13.19,13.19,0,0,1,62.26,43m6.52-31.87c.17-.8-1.34-.94-1.61-.18s.32,1.58,1,2.06c1.29.94,3.75.77,3.81-.82a3.94,3.94,0,0,1-3-1M60.15,39a1.52,1.52,0,0,0-.27-2.65,1.88,1.88,0,0,1-2.94.31,2.35,2.35,0,0,0,3.17,2.23m2.63,1A2.15,2.15,0,0,0,63,41.34a1.08,1.08,0,0,0,.9.44,4.65,4.65,0,0,0-.78-5.48l-.33,3.57M41.9,47.25c1.06.6,2-.9,2.36-2.08A8,8,0,0,1,39.62,45,2.64,2.64,0,0,0,42,47.11m2.63-27.5-2.19-.56a1.15,1.15,0,0,0-.17,1.1,3.35,3.35,0,0,0,5.24-1.39l-2.81,1m38.73,9.38a1.45,1.45,0,0,0,1.16,2.43,3.72,3.72,0,0,1,2.09-3.2,2.49,2.49,0,0,0-3.2.79m-61.18-9.8a3.43,3.43,0,0,0-3.46-.2l3.56,1.68c.83.39,2.35.26,2.07-.62a4.86,4.86,0,0,0-2-1.05M114.55,5.51a1.66,1.66,0,0,0-2.76.48,5.13,5.13,0,0,0,4.51,1.1l-1.59-1.71M13.8,41.08a.91.91,0,0,0-1.33-.43,1.59,1.59,0,0,1-.76,2c-.66.31-.41,1.46.29,1.66a1.55,1.55,0,0,0,1.7-1,4.51,4.51,0,0,0,.11-2.16M127.49,16a30.62,30.62,0,0,0-4-4.84c-.34-.33-1-.61-1.18-.18a14.3,14.3,0,0,0,5.2,5M110.7,24.41a4.26,4.26,0,0,1-2.73.45A2.18,2.18,0,0,0,109.81,27a3.16,3.16,0,0,0,1.3-1.12,1.09,1.09,0,0,0-.38-1.5m-20-15.54a5,5,0,0,0-4.86-.49c-.4.18-.77.79-.36,1a13.13,13.13,0,0,0,5.22-.46m29.68,4a2.69,2.69,0,0,0,3.54,2.87q-1.57-1.58-3.2-3.11M8.74,44.36c.64-.76-.22-2-1.21-2.08A3.52,3.52,0,0,0,5,43.62l3.82.48m33.94-1.88a1.75,1.75,0,0,0,2.11-1.91A6.84,6.84,0,0,1,40,41.85a1.58,1.58,0,0,0,2.7.56m61.65-13.8a1.83,1.83,0,0,0,3.1-.34,2,2,0,0,0-3.23.31m3,1.51a1.69,1.69,0,0,0,3.28.85,5.73,5.73,0,0,0-2.9-.78m-73.14,5.4c-.48-.16-1.22.12-1.09.61a4.62,4.62,0,0,0,4-.34,2.2,2.2,0,0,0-3-.37m46.14-9.69a.54.54,0,0,0-1,.17,3.23,3.23,0,0,0,3.56,1.92,6.08,6.08,0,0,0-2.56-2.11M43.34,36.46a2.3,2.3,0,0,0,2-1.12l-2.86-1.13a1.69,1.69,0,0,0,.91,2.22m-7,3.69a1.85,1.85,0,0,0-2.26,2.3,2.59,2.59,0,0,0,2.39-2.06M19.22,35.15a2.74,2.74,0,0,0,3.2-2.21l-4.59,2.31a1.06,1.06,0,0,0,1.36.09m45.26-11.6a6.47,6.47,0,0,0,3.58,2,3.33,3.33,0,0,0-3.67-2.22m48.06-11.27a4.09,4.09,0,0,0-4.18-1.32A10.4,10.4,0,0,0,112,12.62m5.6,6.26a1.39,1.39,0,0,0,1.5.66,1.43,1.43,0,0,0-1.32-2.2,2.46,2.46,0,0,0-.19,1.56M28.36,30.57A4.59,4.59,0,0,0,31.2,31.9c-.05-1.05-1.2-1.64-2.19-2a1.08,1.08,0,0,0-1,0c-.28.22,0,.84.28.64M68.83,46.83V44.62a1.11,1.11,0,0,0-1-.16,1.66,1.66,0,0,0,1,2.62M26.78,36a1.32,1.32,0,1,0-2.61.34,5.37,5.37,0,0,0,2.31-.36m45.68,4.24c.62-.07.63-1.1.1-1.43a2.33,2.33,0,0,0-1.83,0,.83.83,0,0,0,0,1.24h1.77m56.29-29.23a1.47,1.47,0,0,0,1.41.43A1.37,1.37,0,0,0,128,9.46a.74.74,0,0,0,.44,1.15M66.18,27.24l-2-.18A1.51,1.51,0,0,0,64,28.2a2.71,2.71,0,0,0,1.61.3c.54-.13,1-.77.71-1.25M3.45,31.54H1.66a1,1,0,0,0,.6,1.31,2.85,2.85,0,0,0,1.62,0,.78.78,0,0,0-.46-1.18M33.59,45.28a3.89,3.89,0,0,0,.22-2,1.13,1.13,0,0,0-1.74.88,2.85,2.85,0,0,0,1.51,1.13m23.28-18a.49.49,0,0,0,.64.56,2.17,2.17,0,0,0,1.59-1.41,1.45,1.45,0,0,0-2.25.83m15.52,20a1.65,1.65,0,0,0-2.63,0,1.82,1.82,0,0,0,2.78.12M37.14,20.89a1.91,1.91,0,0,0,2-1.13,2.47,2.47,0,0,0-2.42.32c-.42.17,0,1,.35.76M58,12.1a4.46,4.46,0,0,0-3.41.43,2.94,2.94,0,0,0,3.54-.37M11.21,28.67c.06-.88-1.54-1.35-1.65-.47A2.17,2.17,0,0,0,11,29.86l.25-1.18M71.76,16.61a2.4,2.4,0,0,0-2.46,1.6,1.93,1.93,0,0,0,2.45-1.29m-45,27a1.57,1.57,0,0,0-1.14,1.57c0,.62,1,.81,1.38.33a1.34,1.34,0,0,0-.2-1.69M40,38c-.24-.39-1,0-.83.4.6.88,1.88,1.58,2.66.86l-1.74-1.36m38.7-20.94c-.76-.62-1.94.83-1.18,1.45s1.94-.83,1.18-1.45M60.4,29.55a2,2,0,0,0,2,.63,1.14,1.14,0,0,0,0-1.43l-2,.54m13.16.49a1.16,1.16,0,0,0-.58,1.09A1.39,1.39,0,0,0,74.47,32a2.66,2.66,0,0,0-1-2.23M58.9,41.65A2.11,2.11,0,0,0,61.31,41c-.63.16-1.25-.31-1.9-.34s-1.2,1-.57,1.16M69.33,8a1.37,1.37,0,0,0,2.21,1.05,2,2,0,0,0-2-1M25.38,24.19a1.36,1.36,0,0,0,1.1-1.49,2.08,2.08,0,0,0-1.72.61c-.36.52.25,1.46.76,1.09m15.82-7.27.89-1a5.27,5.27,0,0,0-2.7.59,1.12,1.12,0,0,0,1.79.36M38,32a3.91,3.91,0,0,0,2-.24,2.42,2.42,0,0,0-2.43-.59c-.39.23,0,1,.42.78M89.46,18.76c-.52-.45-1.45.18-1.32.85a1.15,1.15,0,0,0,1.64.68l-.61-1.35M34.45,31.48a2.26,2.26,0,0,0,.87-2.79,3.68,3.68,0,0,0-.88,2.86m34.62,8a1.3,1.3,0,0,0-1.1.18,1.6,1.6,0,0,0,.18,1.12,1.48,1.48,0,0,0,1.26-.25c.31-.32.08-1-.35-.93M103.17,16a1,1,0,0,0-1.47-.24.89.89,0,1,0,1.74.21M50.2,34.1A1.68,1.68,0,0,0,52,32.64a1.53,1.53,0,0,0-1.11-.21L50.31,34M101,10.84c-.25-.39-.92-.25-1.17.15a2.13,2.13,0,0,0-.16,1.37,1,1,0,0,0,1-1.39m38.46,3.33a1.75,1.75,0,0,0-.92,1.29h1.34a.78.78,0,0,0-.44-1.33m-84,15.54a1,1,0,0,0-1.78-.62,1.07,1.07,0,0,0,1.61.65M73,27.57a1.29,1.29,0,0,0-1.1.18,1.48,1.48,0,0,0,.2,1.12,1.61,1.61,0,0,0,1.16-.21l-.14-1.13m9.39-8.19a1.33,1.33,0,0,0-.18-1.1,2.86,2.86,0,0,0-1.12,1.52.78.78,0,0,0,1.33-.41m-4.22-10a.8.8,0,0,0,1.44-.21c-.15-.75-1.57-.53-1.48.23M65.77,31.27c-.57-.4-1.29.74-.68,1.08a.76.76,0,0,0,1-.13c.21-.3,0-.82-.37-.81M31.22,20.9A1.28,1.28,0,0,0,33,22a1.86,1.86,0,0,0-1.65-1m-20.2-6.75c-.5.23-.31,1.08.2,1.31A2.21,2.21,0,0,0,13,15.37l-1.78-.9m4.93,18.71-.54.75a1.6,1.6,0,0,0,1.63.71,1.9,1.9,0,0,0-.94-1.29M5.76,37.44l1-.75a1.36,1.36,0,0,0-1.11-.74,1.17,1.17,0,0,0,0,1.37M109.41,16.87c.37.28.73-.49.42-.83a2.66,2.66,0,0,0-1.56.16,1.63,1.63,0,0,0,1.13.7M19.45,45.33a1.1,1.1,0,0,0,.38,1.77,1.19,1.19,0,0,0-.44-1.77M4.82,20a1,1,0,0,0-1-1.35A.94.94,0,0,0,4.78,20M49.06,46.63c-.08.82,1.51.92,1.54.1l-1.49-.16m87.77-34c-.49-.16-1.23.13-1.08.62a1,1,0,0,0,1,.21c.31-.14.39-.69.07-.81m-47,3a.92.92,0,0,0,.5-1.27.88.88,0,0,0-.93.45.57.57,0,0,0,.49.78M31.6,35.76c.22-.6-.83-.77-1.39-.47a.81.81,0,0,0,1.37.45M59.33,15.07c-.46-.12-.52.79-.06.91s.89-.28,1.14-.69l-1.11-.21M20.54,30a1.34,1.34,0,0,0,.63,1.51,1,1,0,0,0-.66-1.55m26.3-5.1c.28-.27-.14-.79-.51-.68a.9.9,0,0,0-.51,1,.72.72,0,0,0,1.07-.24m81.6,0c.08-.6-.79-1.15-1.15-.67a.73.73,0,0,0,1.09.59M63,20.69c.09.66,1.29.63,1.35,0a1,1,0,0,0-1.27,0m-45.4.22c.08-.6-.79-1.15-1.15-.67a.73.73,0,0,0,1.09.59M14.74,9.11c.33.09.4-.54.08-.67a1,1,0,0,0-.94.27c-.18.42.58.81.81.41Z" fill="#1b2021"/><path d="M23.73,55.63l2,5.21c.28.74-.17,1.53-.36,2.3s.22,1.86,1,1.73l-4.51,1.61-3.34-3.27A11.65,11.65,0,0,0,19.12,57a.88.88,0,0,0-1.36.09,2.55,2.55,0,0,0-.39,1.52l-.18,4.63-1.09.43a3.39,3.39,0,0,1,2.05,1.44c.37.77-.27,2-1.09,1.71a9.79,9.79,0,0,1-4.83-3.31l-2.41-.29a2.29,2.29,0,0,1,3-1.5,1.88,1.88,0,0,0,2.59,1.62c.38-1.92,0-3.95.57-5.83s2.55-3.64,4.33-2.82l1.65,9Z" fill="#1b2021"/><path d="M216.46,17.43l5.07-1.14a2.64,2.64,0,0,1,0-2l5.66.13c1,0,2.21.23,2.45,1.18a9.06,9.06,0,0,0,2.11,3.91c-3.4-.84-6.73,2.21-10.21,1.8a20.56,20.56,0,0,1-2.47-.61,10.85,10.85,0,0,0-7.88,1.08,3.5,3.5,0,0,0,.94-3.48,9.69,9.69,0,0,0,4.1.4,1.87,1.87,0,0,0,.22-1.23m8.2-1-1,.17c1.58,1.25,4,2.45,5.38.94a10.12,10.12,0,0,0-4.33-1.06m-1.36,3a.86.86,0,0,0,.47-1.25,10.66,10.66,0,0,0-3.46.22,2.17,2.17,0,0,0,2.93,1Z" fill="#1b2021"/><path d="M190.07,16.7a3.91,3.91,0,0,1,2.07,2l-6.67.77a4.7,4.7,0,0,1-2.69-.22A1.62,1.62,0,0,1,182,17a.91.91,0,1,0-.11-1.77c.36.55-.5,1.34-1,.93.62-.45.28-1.5-.37-1.9a8.45,8.45,0,0,0-2.2-.6c-.73-.21-1.5-.8-1.4-1.56a1.78,1.78,0,0,0,2.11-.88l-2.89-1.39-.35,5.79c0-1.9-2.63-2.31-4.18-3.42a7.7,7.7,0,0,1-1.39-1.41l-6.19-7.44c.5-.43,1.24.08,1.68.56l6.38,6.84,4-1.52a7.81,7.81,0,0,1-2.22-2.67c2.93-.36,4.45,5,7.29,4.17a3.67,3.67,0,0,0,4.54,3.62c-.88.61,0,2.08,1.09,2.27S189,16.38,190.07,16.7Z" fill="#1b2021"/><path d="M270.76,63.92a2.32,2.32,0,0,0-1.2-1.07c-2.67-.61-4.5-3-6.57-4.77a18.4,18.4,0,0,0-6.17-3.54c.41-1.15,2-1.44,3.13-1a13.68,13.68,0,0,1,2.92,2.2,3.45,3.45,0,0,0,3.39.82c-.39,1.28.78,2.46,1.85,3.27a109.29,109.29,0,0,0,11.7,7.75A2.63,2.63,0,0,1,278,69.48,15.85,15.85,0,0,1,270.76,63.92Z" fill="#1b2021"/><path d="M201.26,15.33c.71.69,1.87.37,2.86.46s2,1.43,1.13,1.93a15.25,15.25,0,0,1-9.44-2.58,2.14,2.14,0,0,0-3.17,1.49,5.27,5.27,0,0,1-.1-6.13,1.29,1.29,0,0,0,.75,1.55,3.14,3.14,0,0,0,1.87.09,3.14,3.14,0,0,0,2.26-1.24c.45-.77,0-2-.91-2L198,8.06a2.31,2.31,0,0,1,1,2c-.11,2,2.28,3.19,4.25,3.76Z" fill="#1b2021"/><path d="M175.45,20.52a2.76,2.76,0,0,0,.23-1.58,4.28,4.28,0,0,1,6.19,1.75,5.8,5.8,0,0,1-4,3.77,17.13,17.13,0,0,1-5.67.5l1.24-2.58a3.59,3.59,0,0,1-3.3-2.35l5.3.49m3.66,1.72.16-1.6A1.44,1.44,0,0,0,177.52,22a.87.87,0,0,0,1.48.24Z" fill="#1b2021"/><path d="M288.68,29.75c1.27-1.28,3.4-.71,5.15-.24a23.2,23.2,0,0,0,11.43.1.88.88,0,0,1-.14,1.28,2.49,2.49,0,0,1-1.38.42,83.17,83.17,0,0,1-22.38-.94c-1-.17-2.14-.56-2.31-1.53,1.1-1,2.77-2,3.9-1.06a6.39,6.39,0,0,0,4.77,1.45,11.35,11.35,0,0,0-3.12-2.88A3.18,3.18,0,0,1,288.68,29.75Z" fill="#1b2021"/><path d="M105.6,50.72a1.1,1.1,0,0,0,.75-1.44l-5,2-2-.68a1.39,1.39,0,0,1-.62-.34c-.39-.45,0-1.21.54-1.42a2.79,2.79,0,0,1,1.75.14c.44-3.09-1.41-6-3.18-8.57a11.41,11.41,0,0,1,7.68,3.7l-3.51.93a3.23,3.23,0,0,1,.41,3.79l4.17-1a3.23,3.23,0,0,1,1,2.56C107.4,51.31,105.81,51.64,105.6,50.72Z" fill="#1b2021"/><path d="M42.24,82.76A1.26,1.26,0,0,1,42,81.13a3.9,3.9,0,0,1,2,3c-1.5.31-3.41,1.19-3.12,2.7l11.31,1.89c-.78,1.29-2.63,1.23-4.12,1L30.15,87.07c-.54-.08-1.21-.3-1.24-.84A16.62,16.62,0,0,1,37.2,87c1.1.4,2.24-.55,2.86-1.54S41.19,83.28,42.24,82.76Z" fill="#1b2021"/><path d="M10.51,87.52c3.56-.16,7.52-.19,10.18,2.18A30.73,30.73,0,0,1,8.4,88.09c-1.18-.41-2.46,0-3.7.07S1.94,87.53,2,86.28H6.59a6.65,6.65,0,0,0,2.94-.44,2.27,2.27,0,0,0,1.37-2.41L11.67,85A2.05,2.05,0,0,0,10.51,87.52Z" fill="#1b2021"/><path d="M152.58,179.29c.87-1.1,2.62.06,4-.13a3.74,3.74,0,0,0,2.37-2,5.47,5.47,0,0,1,2.11-2.31c1-.43,2.42.16,2.36,1.22a4.11,4.11,0,0,0-1.9,6.11C158.35,182.56,155.34,180.89,152.58,179.29Z" fill="#1b2021"/><path d="M206.61,15l1.46-.69A13.41,13.41,0,0,1,201.59,11a17.56,17.56,0,0,1,5.82.83c.87.28,1.9,1.06,1.48,1.87-.54,1,.8,2.15,2,2.13s2.27-.63,3.43-.61,2.43,1.26,1.79,2.23a3.16,3.16,0,0,0-4-.08c-.26.22-.67.48-.89.22-.87-1-2.93.09-2.55,1.38A7.29,7.29,0,0,1,206.61,15Z" fill="#1b2021"/><path d="M39.68,359a4.13,4.13,0,0,1-4.26,0,3.5,3.5,0,0,0,.65,3.79,3.38,3.38,0,0,1-2.07.38c-.69-.17-1.24-1-.84-1.62a3.82,3.82,0,0,0-.13-4.35c-.89.5-1.49,1.43-2.43,1.84s-2.4-.28-2.06-1.24a6.9,6.9,0,0,0,5-2.77C33.89,357.56,38.22,356.9,39.68,359Z" fill="#1b2021"/><path d="M167.91,33.76,167,32l-3.52-.16a3.84,3.84,0,0,0,2-.52,1.32,1.32,0,0,0,.43-1.78c-.48-.61-1.43-.43-2.17-.19L159,30.86c-.69-.38,0-1.41.61-1.86s1.29-1.49.59-1.86l3.46,1.16a2.56,2.56,0,0,1,4.39,2.37c-.23.84.94,1.34,1.81,1.31s2,0,2.3.78A11.2,11.2,0,0,1,167.91,33.76Z" fill="#1b2021"/><path d="M43.9,357.45a7.72,7.72,0,0,0,6.77-1.72,1.55,1.55,0,0,1,0,1.91,2.5,2.5,0,0,1,2.59,1.84c-1.9,1-4.62-1.77-6.15-.25a3.15,3.15,0,0,1-3.83.1,9.21,9.21,0,0,1-2.62-3.17,4.76,4.76,0,0,0,3.55-.75A2.1,2.1,0,0,1,43.9,357.45Z" fill="#1b2021"/><path d="M48.95,60.54a2.18,2.18,0,1,1-4.12,1.19,8.5,8.5,0,0,1,2.49.43.86.86,0,0,0,.12-1L44,57.72,48,59c2.71.9,5.69,2,6.94,4.59A2.24,2.24,0,0,0,53.27,66a30.52,30.52,0,0,0,3.16.3,2.42,2.42,0,0,1-3.95-.06,4,4,0,0,0-2.58-5.46A.56.56,0,0,0,48.95,60.54Z" fill="#1b2021"/><path d="M53.69,367.75a32.5,32.5,0,0,1,6.2,5.94l-8-1.05a.7.7,0,0,1-.49-.2c-.29-.38.34-.79.82-.85l3.06-.44c.67-.51-.46-1.35-1.29-1.41l-5.79-.4a2.06,2.06,0,0,1,0-1.88A6.1,6.1,0,0,0,53.69,367.75Z" fill="#1b2021"/><path d="M194.73,20.8l1.63,1.8c1.44.7,2.64-1.22,3.84-2.29a4.19,4.19,0,0,1,2.4-1,2.82,2.82,0,0,1,2.38.82,1.73,1.73,0,0,1,0,2.36,4.34,4.34,0,0,0-2.56-1.35c-2.9-.07-3.83,5.21-6.71,4.88a.92.92,0,0,1-.53-.2,1.19,1.19,0,0,1-.27-.87Z" fill="#1b2021"/><path d="M28,365.19a8.28,8.28,0,0,0-2-2.74,2.37,2.37,0,1,1,2.17,4.21c-4.23-.15-8.33-1.44-12.37-2.72a1.55,1.55,0,0,1,1-1.68,7,7,0,0,0,7.52,1.47A2.79,2.79,0,0,0,28,365.19Z" fill="#1b2021"/><path d="M189.44,2a2.27,2.27,0,0,1,2.22.59,3.9,3.9,0,0,1-1.38,1.26c1,.52,2.14,0,3.22-.23s2.58.17,2.58,1.27a18.17,18.17,0,0,0-6.68,1.22c.09-1.4-1.94-1.77-3.31-1.44s-3.21.64-3.83-.62a10.67,10.67,0,0,1,7-1Z" fill="#1b2021"/><path d="M150.32,2c.1,1.34-1.84,1.63-3.18,1.48-1.92-.21-3.86-.26-5.8-.31L132.75,3a8.63,8.63,0,0,1,2.93-2,2.94,2.94,0,0,1,3.26.77c.68.91,2.07.84,3.13.44a9.11,9.11,0,0,1,3.2-1.05A5.81,5.81,0,0,0,150.32,2Z" fill="#1b2021"/><path d="M114.66,48.34l-.22,2.26a14.16,14.16,0,0,1,4.21.29c1.33.47,2.44,2.05,1.75,3.29a1.81,1.81,0,0,0-2-.81c-.78.14-1.51.52-2.29.6a2.94,2.94,0,0,1-1.42-5.63Z" fill="#1b2021"/><path d="M87.63,44.23a1.15,1.15,0,0,1,0-1.3c.75-1.5,3.59.33,4.59-1,.52-.7.06-1.68-.41-2.42a11.23,11.23,0,0,1,6.42,4A61.72,61.72,0,0,0,87.63,44.23Z" fill="#1b2021"/><path d="M241.94,18.22c.55.65,0,1.73-.8,2a4,4,0,0,1-2.49-.23l-4.57-1.44a4.75,4.75,0,0,1-2.28-1.21,1.64,1.64,0,0,1,.06-2.32A6.82,6.82,0,0,0,239,16.95c.89-.31.19,2.12,1.13,2.13Z" fill="#1b2021"/><path d="M301.32,87.43l-7.58-1.49a6.71,6.71,0,0,0-2.54-.17c-1.07.21-2.28.9-3.14.22l-2.89-2.27c1.18-1.37,3.44,1.6,5,.68,3.36-2,7.8,3.65,11.06,1.51A1.1,1.1,0,0,1,301.32,87.43Z" fill="#1b2021"/><path d="M215.2,26.42a5.48,5.48,0,0,1-6.53-.89,4.8,4.8,0,0,0-3.77-1.43c1-1.19,2.92.05,4.5.22,1.38.15,2.71-.63,4.1-.6S216.28,25.55,215.2,26.42Z" fill="#1b2021"/><path d="M74.17,372.61l-7.37.1c-.82,0-1.87-.13-2.09-.93s-1.39-.66-2.18-.39-2,.23-2.05-.61c.92-.8,2.29-.7,3.51-.56l10,1.17Z" fill="#1b2021"/><path d="M36,70l-3.43.78a3.22,3.22,0,0,1-2.05,0c-1.89-.88-.77-4.32-2.53-5.43a4.48,4.48,0,0,1,2.55.86c.82.4,2,.53,2.48-.26a3.62,3.62,0,0,1-1.41,2.75A4.44,4.44,0,0,1,36,70Z" fill="#1b2021"/><path d="M172.29,338.24l-4.17,1.21c-2.42.7-5.33,2-5.34,4.54-.76.46-1.79-.37-1.82-1.26a3.14,3.14,0,0,1,1.26-2.26A10.64,10.64,0,0,1,172.29,338.24Z" fill="#1b2021"/><path d="M309.11,22.41c1,1-.12,2.73-1.34,3.53a15.12,15.12,0,0,1-13.05,1.6c.82-1.16,2.58-.45,4-.11C302.6,28.41,306.26,25.29,309.11,22.41Z" fill="#1b2021"/><path d="M177.49,59.51a25.92,25.92,0,0,1-12.21-.75c-.47-.15-1-.72-.62-1l9.68.56c1.17.07,2.5.23,3.15,1.2Z" fill="#1b2021"/><path d="M141.77,122.77c3.61-.53,7.29,0,10.9.49a6.15,6.15,0,0,1,2.25.62c-.59,1.12-2.17,1.15-3.43,1A58.55,58.55,0,0,1,141.77,122.77Z" fill="#1b2021"/><path d="M108.64,88.5l-1.32,1.06c-.84-.37-.61-1.76.19-2.2a3.76,3.76,0,0,1,2.68,0l6.72,1.61c.46.45.08,1.31-.52,1.54a2.94,2.94,0,0,1-1.88-.15Z" fill="#1b2021"/><path d="M129.79,35.59A14.73,14.73,0,0,1,138,33a4.22,4.22,0,0,1,3.22,1c-.91,1.15-2.69.69-4.14.46s-3.5.63-3,2Z" fill="#1b2021"/><path d="M147.73,56.65a82.44,82.44,0,0,1,13.06.55,1,1,0,0,1,.46.14c.34.25.2.84-.16,1.06a2,2,0,0,1-1.23.16l-10.91-1C148.37,57.52,147.59,57.22,147.73,56.65Z" fill="#1b2021"/><path d="M248.8,60.57c.68,1-.58,2.08-1.64,2.58l-3.22,1.51a8,8,0,0,1-3.25,1A2.73,2.73,0,0,1,238,63.93a6.22,6.22,0,0,0,3.95-.28A33.32,33.32,0,0,0,248.8,60.57Z" fill="#1b2021"/><path d="M10.93,56.85l-.14-2c.23-.5,1.07-.12,1.17.42a9.34,9.34,0,0,1-.17,1.63A1.74,1.74,0,0,0,14,58.47c.36.23.24.84-.11,1.08a2,2,0,0,1-1.24.21l-4.82-.24C7.18,57.87,9.38,56,10.93,56.85Z" fill="#1b2021"/><path d="M36.1,174.59c-.28,1.14-1.89,1.16-3,.9l-10-2.18c.44-.87,1.68-.82,2.63-.65Z" fill="#1b2021"/><path d="M21.41,367.49c-3.7.54-7.46-.28-11-1.41-.75-.24-1.68-.92-1.27-1.6A95.16,95.16,0,0,1,21.41,367.49Z" fill="#1b2021"/><path d="M56.63,63.53a6.61,6.61,0,0,1-1.15-3,19.63,19.63,0,0,1,7.57-.89c.24.76-1,1.07-1.74,1s-2,.27-1.68,1a6.27,6.27,0,0,1,3,1.34,6.43,6.43,0,0,1-4.89-1.53A6.64,6.64,0,0,1,56.63,63.53Z" fill="#1b2021"/><path d="M76,113.39a18.93,18.93,0,0,1-8.36-1.26,2,2,0,0,1-.94-.61,1.06,1.06,0,0,1,0-1.18l7,1.49C74.66,112,75.81,112.42,76,113.39Z" fill="#1b2021"/><path d="M310.52,88.21a19.6,19.6,0,0,1,2.74-.39c.52,0,1.13.32,1.16.84a21.16,21.16,0,0,1-12-.47c.95-1.05,2.6-1.08,4-.77A14,14,0,0,0,310.52,88.21Z" fill="#1b2021"/><path d="M227.65,368.27a26.14,26.14,0,0,1-10.73-.93c-.71-.22-1.57-.91-1.14-1.51a4.28,4.28,0,0,1,4,.92c1.06,1,2.7.61,4.11.35S227.1,367,227.65,368.27Z" fill="#1b2021"/><path d="M228.39,64.05c-2.66.41-5.79.68-7.65-1.27l9.23-.65a1,1,0,0,1-.12,1.39A2.79,2.79,0,0,1,228.39,64.05Z" fill="#1b2021"/><path d="M160.56,10a2.42,2.42,0,0,1-1.24.27c-1.52-.21-1.24-2.49-1.9-3.88a25.94,25.94,0,0,1,7.67,1.71L160.56,10M161,7.82a1.13,1.13,0,0,0-1.74.89,1.46,1.46,0,0,0,1.07.65A1.49,1.49,0,0,0,161,7.82Z" fill="#1b2021"/><path d="M76.35,150.46a42.63,42.63,0,0,1,11.77,1.35c.56.15,1.27.58,1,1.11L78.4,151.59C77.58,151.49,76.59,151.25,76.35,150.46Z" fill="#1b2021"/><path d="M230.65,85.44h10.5a.59.59,0,0,1,.34,1l-6.85.54C233.1,87.1,231.08,86.93,230.65,85.44Z" fill="#1b2021"/><path d="M79.54,365.66a10.24,10.24,0,0,1-9.38-.66.86.86,0,0,1-.15-1.27,8.25,8.25,0,0,0,6.1,1,6.52,6.52,0,0,1,2-.33A1.47,1.47,0,0,1,79.54,365.66Z" fill="#1b2021"/><path d="M168.57,51.1a17.93,17.93,0,0,1,8.32,2,15.89,15.89,0,0,1-7.24.57A4.1,4.1,0,0,0,168.57,51.1Z" fill="#1b2021"/><path d="M307.15,29.26a53.51,53.51,0,0,1,6.23-6.5c.51-.45,1.41-.84,1.76-.26A14.5,14.5,0,0,1,307.15,29.26Z" fill="#1b2021"/><path d="M59.69,57.6l-3.37.27-3,.24a3,3,0,0,1-2.37-.49,12.77,12.77,0,0,1,10.42-.84C61.12,57.4,60.33,57.55,59.69,57.6Z" fill="#1b2021"/><path d="M43.21,105c-.81,0-1.95-.21-1.88-1a30.11,30.11,0,0,1,10.27-.46c0,.76-1,1-1.74,1.09Z" fill="#1b2021"/><path d="M117.22,41.65a11.38,11.38,0,0,0,2.84,4.92,14.56,14.56,0,0,1-7.29-2.92c-.13-.32.29-.64.64-.6a5.62,5.62,0,0,1,1,.38C115.53,43.79,116.56,42.65,117.22,41.65Z" fill="#1b2021"/><path d="M5.46,95.69a2.91,2.91,0,0,0,1.06,3.66,8.48,8.48,0,0,0,4,1.21c-1.77.86-4.05,1.11-5.58-.13S3.56,96.18,5.46,95.69Z" fill="#1b2021"/><path d="M76.35,81.54a8.33,8.33,0,0,1-5.83-.13,1.6,1.6,0,0,1-.67-.43.9.9,0,0,1-.12-.91c.57-.54,1.46,0,2.22.2a2.29,2.29,0,0,0,2.68-2.33Z" fill="#1b2021"/><path d="M121.28,50.8c-.75.39-1.63-.6-1.42-1.41a2.41,2.41,0,0,1,1.88-1.51,5.63,5.63,0,0,1,6,2.53c-.35,1-1.9.44-2.59-.37s-1.75-1.83-2.61-1.21C121.92,49.3,122,50.43,121.28,50.8Z" fill="#1b2021"/><path d="M42.08,362.92c-.43-.54.41-1.3,1.09-1.17s1.2.68,1.85.95c1,.4,2.05.11,3.09.18s2.23.86,2,1.87A15.57,15.57,0,0,1,42.08,362.92Z" fill="#1b2021"/><path d="M242.29,21a10.24,10.24,0,0,1-8.62,3c-.47-.06-1.08-.44-.85-.85l6.5-1.58A19.65,19.65,0,0,1,242.29,21Z" fill="#1b2021"/><path d="M123.88,46.66a4.68,4.68,0,0,0-1.61-4.05,1.59,1.59,0,0,1-2.8-.5,4.19,4.19,0,0,1,5.84,2C125.76,45.21,125.07,47,123.88,46.66Z" fill="#1b2021"/><path d="M209.49,5.49a8.81,8.81,0,0,0,4.43,1.6,2.47,2.47,0,0,1,1.22.28c.35.24.51.81.19,1.08a19,19,0,0,1-4.54-.14,2.94,2.94,0,0,1-2.15-1C208.2,6.56,208.68,5.36,209.49,5.49Z" fill="#1b2021"/><path d="M317.08,86.51l-6.83-.89L305.4,85A14,14,0,0,1,317.08,86.51Z" fill="#1b2021"/><path d="M133.18,38.93a8.31,8.31,0,0,1,3.3-.47,2.83,2.83,0,0,1,2.47,2c.32,1.41-.87,2.78-.77,4.23-.74.63-1.55-.85-1.17-1.74s1.18-1.83.73-2.69C137,38.75,134.13,40.31,133.18,38.93Z" fill="#1b2021"/><path d="M44.37,370.92l-.67.89a7,7,0,0,1-6-4.92c.64-.36,1.43.19,1.82.81s.66,1.38,1.28,1.76C42,370.18,44.2,369.56,44.37,370.92Z" fill="#1b2021"/><path d="M211.68,10l1.23-.14c-.32,1.32,1.08,2.41,2.37,2.82s2.8.62,3.6,1.71l-1.1.68c-1.17-.86-2.69-1.08-4-1.69S211.25,11.36,211.68,10Z" fill="#1b2021"/><path d="M351.91,31.9c-.9,0-1.67.59-2.53.84a3.07,3.07,0,0,1-1.75,0c1.58-1.18,3.54-2.25,5.46-1.75s3,3.42,1.34,4.51C354.17,33.92,353.5,32,351.91,31.9Z" fill="#1b2021"/><path d="M105.83,368a10,10,0,0,1-4.53-1.5q4.41-.1,8.81.06C109.69,368.18,107.47,368.27,105.83,368Z" fill="#1b2021"/><path d="M115,361.37a41.39,41.39,0,0,1,7.67-.78c.63,0,1.48.21,1.47.84A14.08,14.08,0,0,1,115,361.37Z" fill="#1b2021"/><path d="M241.2,364.71l5.21,2.28a9.62,9.62,0,0,1-8.27-2.43C239,363.88,240.21,364.28,241.2,364.71Z" fill="#1b2021"/><path d="M312.71,133.35a14,14,0,0,1,7.65-.45c.45.1.88.79.43.84A13.37,13.37,0,0,1,312.71,133.35Z" fill="#1b2021"/><path d="M138.07,364.83a3,3,0,0,1,1.26.48,1.47,1.47,0,0,1,.46.64,7.36,7.36,0,0,1-7.78-2.4Z" fill="#1b2021"/><path d="M203.57,60.76a4.16,4.16,0,0,1-3.16.36,2.08,2.08,0,0,1-1.15-1.4,18.06,18.06,0,0,1,7.42-.19Z" fill="#1b2021"/><path d="M105.1,163.75a4,4,0,0,1,4.16.4,7.69,7.69,0,0,1,3,3.57Z" fill="#1b2021"/><path d="M84.24,58.21a5.82,5.82,0,0,0-2.39,2.51,1.66,1.66,0,0,1-1-2.33L85.14,57a1.8,1.8,0,0,1,.56,3.15,1.45,1.45,0,0,0-1.46-2Z" fill="#1b2021"/><path d="M97.95,38.35c.55.64-.61,1.54-1.37,1.18s-1.07-1.25-1.51-2a5.09,5.09,0,0,0-2.7-2.16,1,1,0,0,1,1-1.15A46.68,46.68,0,0,0,97.95,38.35Z" fill="#1b2021"/><path d="M348.52,29.43l-.32-2.34a7.32,7.32,0,0,1,7.29.24c0,.68-.88,1-1.54.88a20.13,20.13,0,0,1-1.85-.83A2.87,2.87,0,0,0,348.52,29.43Z" fill="#1b2021"/><path d="M65.72,178.07c.45-.75,1.56-.63,2.41-.41l7,1.79c-.45.95-1.82.81-2.82.52Z" fill="#1b2021"/><path d="M94.69,46.41a2,2,0,0,1,2.86-1.36l-.73,5.14a2.19,2.19,0,0,1-.52-2.1,1.68,1.68,0,0,1-1.81-1.71Z" fill="#1b2021"/><path d="M97,50.64a1.6,1.6,0,0,1,.1,1.45,2.31,2.31,0,0,1-3.77-2.65,1.54,1.54,0,0,1,1.72,2Z" fill="#1b2021"/><path d="M192.79,59.48a3.62,3.62,0,0,1,2.12-.39,1.85,1.85,0,0,1,1.39,1.71l-7.58.31Z" fill="#1b2021"/><path d="M10.69,71.5c-.79-.67-.42-2.07.44-2.65a5.09,5.09,0,0,1,3-.54l2,.05a1.85,1.85,0,0,1-.17,1.21A5.2,5.2,0,0,0,10.69,71.5Z" fill="#1b2021"/><path d="M188.66,12.73a3.26,3.26,0,0,1,1.26.5,1,1,0,0,1,.32.73c-.84.83-2.25.19-3.19-.52s-2.2-1.5-3.19-.87c-.44-1,1-1.8,2.05-1.44S187.65,12.39,188.66,12.73Z" fill="#1b2021"/><path d="M229.12,421l2.32.15c.47,0,1.1.26,1,.72a19.8,19.8,0,0,1-10.73-1.36Z" fill="#1b2021"/><path d="M58.45,65.72a3.57,3.57,0,0,1,4.2-.63,3.71,3.71,0,0,1-1.37,1.7,1.33,1.33,0,0,1-.48,2.29A3.81,3.81,0,0,0,58.45,65.72Z" fill="#1b2021"/><path d="M272.14,28.3a13.72,13.72,0,0,1-5.43-3.24,6.11,6.11,0,0,1,5.91,2.35Z" fill="#1b2021"/><path d="M18.78,360.43a4.71,4.71,0,0,1,4.11,1.28,4.15,4.15,0,0,1-5.95-1.47,1.93,1.93,0,0,1,1.82,0Z" fill="#1b2021"/><path d="M181.82,130a6.32,6.32,0,0,1-7.25,2.2A23.27,23.27,0,0,1,181.82,130Z" fill="#1b2021"/><path d="M227.28,39l-4.08-1.93a7.17,7.17,0,0,1-1.57-.91A4,4,0,0,1,227.28,39Z" fill="#1b2021"/><path d="M31.89,367.2l4.77,2.88A17.79,17.79,0,0,1,30.82,369c-.3-.78-.24-2.08.59-2A1.23,1.23,0,0,1,31.89,367.2Z" fill="#1b2021"/><path d="M91.87,111.67c1,.09,2.31.85,1.74,1.65a5.29,5.29,0,0,1-5.79-2Z" fill="#1b2021"/><path d="M233.52,364.9h-2.65c-.62-.5.47-1.3,1.27-1.29a15.59,15.59,0,0,1,5.79,1.18,3.86,3.86,0,0,1-4.29,0Z" fill="#1b2021"/><path d="M64.36,79.43c1.45.13,2.85-1.56,4.15-.89a1.34,1.34,0,0,1,.69,1.33c-.72-.49-1.7,0-2.42.45s-1.54,1.1-2.38.86S63.49,79.35,64.36,79.43Z" fill="#1b2021"/><path d="M163.77,53.32l-3-1.6a5.82,5.82,0,0,1,6,1.33,4,4,0,0,1-3.26.79Z" fill="#1b2021"/><path d="M50.34,52.86a2.09,2.09,0,0,1-.86-2.28,6.57,6.57,0,0,1,2.74,2.82c.47,1.25-.18,3-1.51,3.1a5.53,5.53,0,0,0-.38-3.5Z" fill="#1b2021"/><path d="M55.31,52.82H52.65A2.27,2.27,0,0,1,52.53,51a5.87,5.87,0,0,0,5.14-.65,2,2,0,0,1-2.31,2.22Z" fill="#1b2021"/><path d="M254.06,486.75a18.26,18.26,0,0,1-6-1.57,24.18,24.18,0,0,1,7.14.27c.42.11.43.78.09,1.06A1.71,1.71,0,0,1,254.06,486.75Z" fill="#1b2021"/><path d="M246.21,39.2a4.4,4.4,0,0,0,4,1.47c-.61,1.28-2.52,1.41-3.7.61a7.47,7.47,0,0,1-2.33-3.49c.84-.19,1.44.75,2,1.4Z" fill="#1b2021"/><path d="M43.63,118.23a4.36,4.36,0,0,1-5.51-1.18,13.12,13.12,0,0,1,5.22.16Z" fill="#1b2021"/><path d="M260.56,24l-1.17-1.22a3.75,3.75,0,0,1,5.06,1.89A4,4,0,0,1,260.6,24Z" fill="#1b2021"/><path d="M118.68,75.92a2.49,2.49,0,0,1,1.23,1.66,4.59,4.59,0,0,1-5.36-2.67L118.67,76Z" fill="#1b2021"/><path d="M239.3,36.71l3.49.48a5.82,5.82,0,0,1-6.94-.05,8.21,8.21,0,0,1,3.42-.26Z" fill="#1b2021"/><path d="M15,109.71c-1.21.33-1.21,2.16-.44,3.15s2,1.58,2.7,2.6a6.46,6.46,0,0,1-5-4.92Z" fill="#1b2021"/><path d="M121.65,173.2a7.7,7.7,0,0,1-4.74-.45c-.26-.11-.54-.28-.59-.56a.47.47,0,0,1,.42-.52c.36-1.06,2-.6,2.87.06Z" fill="#1b2021"/><path d="M63,96.8a5.9,5.9,0,0,1,7.35,1.62Z" fill="#1b2021"/><path d="M153.31,21.54c1.68.39,1.89,2.67,1.73,4.39l-2.83-2.25a1.76,1.76,0,0,1,1.1-1.81Z" fill="#1b2021"/><path d="M331.22,24.91a12.67,12.67,0,0,1,5.24.53c.39.12.84.37.82.77A5.38,5.38,0,0,1,331.22,24.91Z" fill="#1b2021"/><path d="M12.29,76.76a2.12,2.12,0,0,1-3.1.4l4.06-3.68a3.91,3.91,0,0,1-1,3.23Z" fill="#1b2021"/><path d="M154,27.85a.86.86,0,0,1,.85,1,7.56,7.56,0,0,1-2.78-1l-1,2.33c-1.23-.07-1.56-2-.59-2.79a2.71,2.71,0,0,1,3.37.45Z" fill="#1b2021"/><path d="M110.8,73.95a1.09,1.09,0,1,1,.46,2.12,9.36,9.36,0,0,1-3.79-2.5,3.7,3.7,0,0,1,3.22.15Z" fill="#1b2021"/><path d="M11,67l-1.23.45A3.08,3.08,0,0,1,9,63.93l3.6,2.32A1.51,1.51,0,0,1,11,67Z" fill="#1b2021"/><path d="M238.36,156.68l4,1.29c-.45.76-1.58.58-2.42.31L235,156.7c.68-1,2.27-.62,3.39-.08Z" fill="#1b2021"/><path d="M78.38,92.4c1.23-.19,2.06-1.33,2.75-2.37a4.52,4.52,0,0,1-3,3.88,2.36,2.36,0,0,1-1.92-.09,1.25,1.25,0,0,1-.47-1.7,1.94,1.94,0,0,0,2.59.07Z" fill="#1b2021"/><path d="M120.36,30.32l4.81-.52a2.49,2.49,0,0,1-4.81.52Z" fill="#1b2021"/><path d="M236.45,28.66a4.33,4.33,0,0,1-.73,2,2.63,2.63,0,0,1-3.19-2.11l2.34.9.37-2.25a1.51,1.51,0,0,1,1.22,1.49Z" fill="#1b2021"/><path d="M143.45,32.09,142,30.31l2.74.5a1.66,1.66,0,0,1-1.25,3,2.74,2.74,0,0,1-.17-1.61Z" fill="#1b2021"/><path d="M26.89,68.77,26.53,71a9.24,9.24,0,0,0-2.94-3.08,3.86,3.86,0,0,1,2.34-.81c.84.09,1.6,1,1.18,1.78Z" fill="#1b2021"/><path d="M174,29.14a2.1,2.1,0,0,1-4-1.2,5.3,5.3,0,0,0,3.77.2l.18,1Z" fill="#1b2021"/><path d="M56.73,125.87a6.44,6.44,0,0,1,4.79.95,2.92,2.92,0,0,1-4.79-.95Z" fill="#1b2021"/><path d="M160,489.45l3,1.38a13.32,13.32,0,0,1-6.42-.91,2.08,2.08,0,0,1,3.18-.27Z" fill="#1b2021"/><path d="M22,75.57a1.09,1.09,0,0,1,.66-.44,4.18,4.18,0,0,1,4.51,1.5l-3.43.2C22.88,76.87,21.59,76.34,22,75.57Z" fill="#1b2021"/><path d="M337.44,444.63a13.08,13.08,0,0,1-5.85-.05c-.5-.12-1-.86-.53-1A13.7,13.7,0,0,1,337.44,444.63Z" fill="#1b2021"/><path d="M39.61,107.67c-.76.14-1.7.2-2.13-.44a1,1,0,0,1-.09-.93,4.51,4.51,0,0,1,5,.87Z" fill="#1b2021"/><path d="M86.55,44.1a5.46,5.46,0,0,0-3.65,1.46c-.51.48-1.51,1-1.71.29a18,18,0,0,1,3.08-2.61A1.79,1.79,0,0,1,86.55,44.1Z" fill="#1b2021"/><path d="M148.43,20.84a2.17,2.17,0,0,1,1.51,1.52,7.32,7.32,0,0,1-5.28-2.6,3.31,3.31,0,0,1,3.73,1.16Z" fill="#1b2021"/><path d="M158.65,30.87a2.28,2.28,0,0,1,.88,2.12,4.54,4.54,0,0,0-1.84-1,1.56,1.56,0,0,0-1.78.82l-1.23-.67a3.69,3.69,0,0,1,4.11-1.37Z" fill="#1b2021"/><path d="M63.49,115.63a6.73,6.73,0,0,1,5.95.58A6.06,6.06,0,0,1,63.49,115.63Z" fill="#1b2021"/><path d="M296.41,486.58c-.15-.49.32-1,.82-1.06a2.68,2.68,0,0,1,1.46.35l3.76,1.71A11.64,11.64,0,0,1,296.41,486.58Z" fill="#1b2021"/><path d="M38.44,80.9l-2.92-.49a5.21,5.21,0,0,1,4.91-.76c.38,1-1.32,2-2,1.11Z" fill="#1b2021"/><path d="M98,79.42a3.17,3.17,0,0,1-1.11-2.13c0-.82.87-1.64,1.62-1.31l-.4,2.36a3.08,3.08,0,0,1,2.19,1.3C100,80.53,98.63,80.09,98,79.42Z" fill="#1b2021"/><path d="M218.19,59.19a5.62,5.62,0,0,1-5.1-1.32l4.93-.08A1.76,1.76,0,0,1,218.19,59.19Z" fill="#1b2021"/><path d="M334.78,33.07a1.89,1.89,0,0,1-1.24.93,2.61,2.61,0,0,1,4.84-1.69,9.24,9.24,0,0,0-3.65.57Z" fill="#1b2021"/><path d="M11.48,361.68a5.64,5.64,0,0,0,3,.56l.67,1.12a6.12,6.12,0,0,1-5.3-.9,1.54,1.54,0,0,1,1.55-.66Z" fill="#1b2021"/><path d="M205.47,369.19a6.29,6.29,0,0,1-5.91-.68A6,6,0,0,1,205.47,369.19Z" fill="#1b2021"/><path d="M180.33,363.08l-2.54-.67a3,3,0,0,1,5,.88l-2.41-.23Z" fill="#1b2021"/><path d="M321.73,24.46A2.45,2.45,0,0,1,324.21,26c-.08.43-.7,0-1-.32-.75-.83-2.09-.45-3.2-.31s-2.65-.57-2.27-1.62l3.94.91Z" fill="#1b2021"/><path d="M36.25,91.38h1.33a1.59,1.59,0,0,1,.21,1.14,6.59,6.59,0,0,1-5.42-1.85,6,6,0,0,1,3.9.67Z" fill="#1b2021"/><path d="M40.24,443.36l-1.09-1.08a3.21,3.21,0,0,1,4.42,2.38,6.19,6.19,0,0,1-3.26-1.38Z" fill="#1b2021"/><path d="M205.91,126.22a8.62,8.62,0,0,1,5.4-.62c.27.06.58.17.65.44A7,7,0,0,1,205.91,126.22Z" fill="#1b2021"/><path d="M349.89,462.28a2.57,2.57,0,0,1,2.3,1.32,7.18,7.18,0,0,1-5.67-1.77,3.78,3.78,0,0,1,3.34.4Z" fill="#1b2021"/><path d="M37,374.8l4.78,0a1.16,1.16,0,0,1,.84.22c.21.21.13.68-.17.68A5,5,0,0,1,37,374.8Z" fill="#1b2021"/><path d="M277.76,154.46a9.12,9.12,0,0,1-4.78.13c-.45-.11-1-.58-.66-.91A6.49,6.49,0,0,1,277.76,154.46Z" fill="#1b2021"/><path d="M45.63,108.26a1.77,1.77,0,0,0,3.16.49,1.57,1.57,0,0,0,.07-1.24c1.23.16,1,2.27-.15,2.75s-2.44,0-3.64-.34A1.92,1.92,0,0,1,45.63,108.26Z" fill="#1b2021"/><path d="M87.9,362a2.92,2.92,0,0,1-1.24-2.39l4.41,1.95a2.81,2.81,0,0,1-3.16.44Z" fill="#1b2021"/><path d="M82.41,171.85a13.83,13.83,0,0,1-4-1.73,6.58,6.58,0,0,1,5.51,1.25,1.53,1.53,0,0,1-1.56.69Z" fill="#1b2021"/><path d="M31.35,63.85a5.13,5.13,0,0,1-2.45-4.63L30.18,59Z" fill="#1b2021"/><path d="M25.82,148a1.45,1.45,0,0,1,.87,1.49l-4.63-1.52c-.42-.7.8-1.31,1.55-1s1.42,1,2.23.89Z" fill="#1b2021"/><path d="M283.55,94.68c-.84-.56-.14-2,.86-2.17a3.82,3.82,0,0,1,2.7,1.15,4.25,4.25,0,0,1-3.48.79Z" fill="#1b2021"/><path d="M150.28,498.53a5.93,5.93,0,0,1-4.84-1.19,1,1,0,0,1-.37-.87A8,8,0,0,1,150.28,498.53Z" fill="#1b2021"/><path d="M126.16,113.27a6.21,6.21,0,0,1-5.06-.5A3.57,3.57,0,0,1,126.16,113.27Z" fill="#1b2021"/><path d="M154.16,2.13l.55,3-2.88-2.61a2.65,2.65,0,0,1,1.28-1.38c.61-.21,1.44.32,1.25.93Z" fill="#1b2021"/><path d="M147.34,7.43c-.39.5-1.32,0-1.29-.63a1.3,1.3,0,0,1,1.37-1.05,3.77,3.77,0,0,1,1.77.66,1.24,1.24,0,0,1,.07,1.71l-1.74-.5Z" fill="#1b2021"/><path d="M97.87,72.8l-4.14.43a4.17,4.17,0,0,1,5.55-1L98,72.91Z" fill="#1b2021"/><path d="M143.29,42.14a3.75,3.75,0,0,1-2-5c.14-.27.71-.34.57-.07A19.39,19.39,0,0,0,143.29,42.14Z" fill="#1b2021"/><path d="M62.84,364.53a6.6,6.6,0,0,1,3.44,1.4,3.92,3.92,0,0,1-2.81.72c-1-.26-1.51-1.73-.67-2.26Z" fill="#1b2021"/><path d="M78.85,80.69a1,1,0,0,1-.57-1.41,4.15,4.15,0,0,1,4,2.6l-3.53-1.06Z" fill="#1b2021"/><path d="M183.6,38.62A5.32,5.32,0,0,1,186.27,40c-.35,1-2,.63-2.59-.23s-1-2-1.95-2.49c.64-.82,2.26.14,1.85,1.1Z" fill="#1b2021"/><path d="M247.71,128.64a6.86,6.86,0,0,1,3,.23,5.88,5.88,0,0,1-6.38-.37,3.62,3.62,0,0,1,3.39.17Z" fill="#1b2021"/><path d="M159.69,40.16a1.91,1.91,0,0,0,.87-2.15c.44-.48,1.32.08,1.33.72a2.21,2.21,0,0,1-1,1.6,12.22,12.22,0,0,1-3.49,2,2.28,2.28,0,0,1,2.27-1.87Z" fill="#1b2021"/><path d="M126,55.62a3.64,3.64,0,0,1,4.56-2.12,2.3,2.3,0,0,1,1.2.94A8.54,8.54,0,0,0,126,55.62Z" fill="#1b2021"/><path d="M263.67,131.3c.47-.08.67.88.28.63a4.66,4.66,0,0,1-4.7-.13,7,7,0,0,1,4.44-.79Z" fill="#1b2021"/><path d="M188.75,9.82h1.47c.07,1-1.23,1.63-2.19,1.31a4.66,4.66,0,0,1-2.14-2,3.61,3.61,0,0,1,2.85.75Z" fill="#1b2021"/><path d="M211.18,89.51a6.26,6.26,0,0,1-4.8.3c-.41-.14-.87-.62-.56-.93A9.19,9.19,0,0,1,211.18,89.51Z" fill="#1b2021"/><path d="M71.64,68.59a4.68,4.68,0,0,1,5.24-.77A5.88,5.88,0,0,1,71.64,68.59Z" fill="#1b2021"/><path d="M25.61,356h1.77a1.42,1.42,0,0,1,.21,1.09l-2.46,1.48a1.49,1.49,0,0,1,.49-2.6Z" fill="#1b2021"/><path d="M222.22,24.31a3,3,0,0,0-2.49,2.47,2.86,2.86,0,0,1,.13-3.58,2,2,0,0,1,2.4,1Z" fill="#1b2021"/><path d="M91.17,49.29c.25.35-.2.85-.63.81a1.57,1.57,0,0,1-1-.74,11,11,0,0,1-1.63-3.16,4.06,4.06,0,0,1,3,3.13Z" fill="#1b2021"/><path d="M183.64,88a4.13,4.13,0,0,1,4.07,1.53,3.28,3.28,0,0,1-4.3-1.33Z" fill="#1b2021"/><path d="M147.51,27.59a5.92,5.92,0,0,1-3.71,1.26c-.2-1.7,2.42-2.83,3.52-1.53Z" fill="#1b2021"/><path d="M103.36,71.75l1.87,2.36a5.82,5.82,0,0,1-4-.78l1.87-1.58Z" fill="#1b2021"/><path d="M163.5,135.22l1.52.71a1.28,1.28,0,0,1-.34,1.25,6,6,0,0,0-5.06-1.69,2.35,2.35,0,0,1,3.68-.1Z" fill="#1b2021"/><path d="M68,64.55a7.62,7.62,0,0,1,3.83-2.38A2.73,2.73,0,0,1,68,64.55Z" fill="#1b2021"/><path d="M51.55,381.88a5.61,5.61,0,0,1,3.8-.81c.44.06,1,.56.61.82A3.59,3.59,0,0,1,51.55,381.88Z" fill="#1b2021"/><path d="M316,437a7.71,7.71,0,0,1,4.58.26c.32.12.68.32.72.67A6.15,6.15,0,0,1,316,437Z" fill="#1b2021"/><path d="M124.48,397.82a2.48,2.48,0,0,1,2.53,1.55,8.22,8.22,0,0,1-4.62-1.1,1.53,1.53,0,0,1,2-.46Z" fill="#1b2021"/><path d="M177.47,84.14a4.1,4.1,0,0,1-4.07-1.63c-.21-.3-.1-.94.22-.75A6.51,6.51,0,0,1,177.47,84.14Z" fill="#1b2021"/><path d="M91.68,372.93a3.76,3.76,0,0,0-1.12-3.39,6.33,6.33,0,0,0,3.62,1.31,2.6,2.6,0,0,1-2.74,2Z" fill="#1b2021"/><path d="M2.75,121.7l1.59-1.08c.76.2.52,1.4-.08,1.91s-1.46.89-1.59,1.67a1.32,1.32,0,0,1,.14-2.35Z" fill="#1b2021"/><path d="M67.79,68.23c.76.43-.18,1.61-1,1.57s-1.8-.51-2.55-.08c-.7-.46.22-1.55,1.05-1.52s1.72.49,2.46.09Z" fill="#1b2021"/><path d="M64.41,394.29l-2-.16c-.34-.39,0-1.06.5-1.22a2.41,2.41,0,0,1,1.51.18l2.77,1a2.27,2.27,0,0,1-2.75.28Z" fill="#1b2021"/><path d="M219.94,406a8.79,8.79,0,0,1,5.8.46A6.41,6.41,0,0,1,219.94,406Z" fill="#1b2021"/><path d="M131.18,367.35a4.11,4.11,0,0,1-4.28-1.51,4.21,4.21,0,0,1,4.39,1.16Z" fill="#1b2021"/><path d="M195.81,18.65c-1.14.29-2.56-.71-2.27-1.84l5.1,2.3a2,2,0,0,1-2.75-.46Z" fill="#1b2021"/><path d="M18.44,357.16a2,2,0,0,1,3-1.33,6.38,6.38,0,0,0-2,2.89,1.23,1.23,0,0,1-1.08-1.56Z" fill="#1b2021"/><path d="M97,366a5,5,0,0,1-3.6-1.17,5.75,5.75,0,0,1,5.52,1.65,1.74,1.74,0,0,1-1.94-.26Z" fill="#1b2021"/><path d="M337.53,137.43a1.39,1.39,0,0,1,1.67,1.4l-4.46-1.18a1.44,1.44,0,0,1,2.55-.3Z" fill="#1b2021"/><path d="M32.93,75.65l1.19-1.15a3.21,3.21,0,0,1,0,3A6.51,6.51,0,0,1,31.6,77l1.32-1.32Z" fill="#1b2021"/><path d="M348.34,435.27a4,4,0,0,1-2.55-1.44,13.25,13.25,0,0,1,3.9-.23,1.49,1.49,0,0,1-1.37,1.77Z" fill="#1b2021"/><path d="M213.55,79.83a3.45,3.45,0,0,1,4.32.61,5.29,5.29,0,0,1-4.48-.23Z" fill="#1b2021"/><path d="M21,96.43a1.72,1.72,0,0,1-.92-1.79,2.82,2.82,0,0,1,3.25,1.8,2.64,2.64,0,0,1-2.34,0Z" fill="#1b2021"/><path d="M38,120.74a6.82,6.82,0,0,1,3.79,1.53,2.74,2.74,0,0,1-4-1.11Z" fill="#1b2021"/><path d="M113.43,113.65a3.25,3.25,0,0,1,4.21-.77,3.32,3.32,0,0,1-4,.85Z" fill="#1b2021"/><path d="M51.77,94.21c.5.58-.68,1.26-1.36.89S49.24,94,48.47,93.92a4.24,4.24,0,0,0-1.5.49c-.5.17-1.22,0-1.32-.47A10,10,0,0,1,51.77,94.21Z" fill="#1b2021"/><path d="M49.31,175.93a.51.51,0,0,1,.2.91A3.64,3.64,0,0,1,45.6,176a5.5,5.5,0,0,1,3.74-.13Z" fill="#1b2021"/><path d="M25.07,86c-1.17,1.19-3.64-.21-3.21-1.83l3.51,1.52Z" fill="#1b2021"/><path d="M39.35,150.76c.44-.14.77.56.49.94a1.39,1.39,0,0,1-1.28.38,4.88,4.88,0,0,1-2.53-1,2.64,2.64,0,0,1,3.28-.21Z" fill="#1b2021"/><path d="M101.47,52.11l3.38.51a7.56,7.56,0,0,1-5.47.55,1.69,1.69,0,0,1,2-.75Z" fill="#1b2021"/><path d="M181.74,32.41l.36,1.41A8.37,8.37,0,0,1,178.35,30a1.28,1.28,0,0,1,1-.18,9.51,9.51,0,0,0,2.26,2.62Z" fill="#1b2021"/><path d="M58.43,358.29c1.38-.17,3.1-.16,3.74,1.07a5.7,5.7,0,0,1-4.54-.47l.64-.74Z" fill="#1b2021"/><path d="M253.67,84.23a1.6,1.6,0,1,1-3.12.74,3.92,3.92,0,0,1,2.91-.66Z" fill="#1b2021"/><path d="M182.3,8.68a3.17,3.17,0,0,1,3.07.49,8.19,8.19,0,0,1-3.77,1.16,1.17,1.17,0,0,1,.73-1.51Z" fill="#1b2021"/><path d="M5.58,69.54c-.53.5-1.51-.24-1.32-.94A1.34,1.34,0,0,1,6,67.88,2.69,2.69,0,0,1,7.4,69.51l-1.72.22Z" fill="#1b2021"/><path d="M341.67,440.79a8,8,0,0,1,3,.82,4,4,0,0,1-4.7-.51,1.79,1.79,0,0,1,1.73-.37Z" fill="#1b2021"/><path d="M333.67,65.3l1.19.63a2.72,2.72,0,0,1-4.15-1,3.73,3.73,0,0,1,2.91.39Z" fill="#1b2021"/><path d="M36.88,57.49l1.34,2.64-1.63.6a1.68,1.68,0,0,0-.38-1.45,2,2,0,0,1-.49-1.44c.12-.51,1-.75,1.13-.26Z" fill="#1b2021"/><path d="M95.66,368a1.79,1.79,0,0,1,1.58,1.13A3.79,3.79,0,0,1,93,367.85a2.2,2.2,0,0,1,2.51.25Z" fill="#1b2021"/><path d="M236.28,62.87l1,.78a4.23,4.23,0,0,1-4.53-.93,3.15,3.15,0,0,1,3.4.29Z" fill="#1b2021"/><path d="M341.68,25.33a3.39,3.39,0,0,1,2.88,1.14,11.43,11.43,0,0,1-5,0l2.07-1.06Z" fill="#1b2021"/><path d="M283.9,130.13a2.72,2.72,0,0,1-4.17.38,5.77,5.77,0,0,1,3.87-.51Z" fill="#1b2021"/><path d="M66.55,439.53a1.85,1.85,0,0,1,2.81.48,3.47,3.47,0,0,1-2.3.84c-.83-.11-1.49-1.21-.91-1.81Z" fill="#1b2021"/><path d="M266.1,39.13c-.08-.77.83-1.34,1.6-1.24a3.9,3.9,0,0,1,2,1.17,3,3,0,0,1-3.37.07Z" fill="#1b2021"/><path d="M312.42,467.3a6.77,6.77,0,0,0,3.35,2.06,4.8,4.8,0,0,1-5-2.25,1.4,1.4,0,0,1,1.61.23Z" fill="#1b2021"/><path d="M59.75,55a3.46,3.46,0,0,1-2.41-.7,4,4,0,0,1,1.89-1.11,1.37,1.37,0,0,1,1.62,1.11L59.73,55Z" fill="#1b2021"/><path d="M30.66,123a2.65,2.65,0,0,1-4-.14,4.13,4.13,0,0,1,3.55-.16Z" fill="#1b2021"/><path d="M102.22,371.08a2.72,2.72,0,0,1-3.85-.73,2.74,2.74,0,0,1,3.56.63Z" fill="#1b2021"/><path d="M45.45,83.76a5.09,5.09,0,0,1,3.4-1.22l-3.24,2.62-1.26-.76.9-.88Z" fill="#1b2021"/><path d="M70.32,167a6.94,6.94,0,0,1,4,1.34,9,9,0,0,1-3.92.07,1,1,0,0,1,0-1.29Z" fill="#1b2021"/><path d="M90.34,365.31c.65.14,1.39,1,.76,1.24a2.71,2.71,0,0,1-3.26,0,3.67,3.67,0,0,1,2.49-1.21Z" fill="#1b2021"/><path d="M79.56,361.19a5.4,5.4,0,0,1,4.08-2l-3.38,2.48c-.4.29-.95.59-1.35.3s.3-1.06.46-.59Z" fill="#1b2021"/><path d="M188.28,469.45c-.64.17-1.64,0-1.53-.62a10.08,10.08,0,0,1,5.06.13,4.23,4.23,0,0,1-3.48.49Z" fill="#1b2021"/><path d="M86.36,364.47a4.31,4.31,0,0,0-1.71,1.71c-1-.47-.43-2.14.56-2.72a1.3,1.3,0,0,1,1.33-.15c.39.26.26,1.06-.2,1Z" fill="#1b2021"/><path d="M353.69,46.21c.45-.53-.06-1.29-.42-1.87s-.3-1.67.39-1.62c1.41.6,1.07,2.67.48,4.09-.32.18-.69-.39-.39-.61Z" fill="#1b2021"/><path d="M123.57,78.56,122,77.88c-.13-.68.63-1.27,1.32-1.23a3.49,3.49,0,0,1,1.85.89,1.74,1.74,0,0,1-1.54.93Z" fill="#1b2021"/><path d="M107.76,363.64a2.2,2.2,0,0,1,2.62-1,5.12,5.12,0,0,1-4.82,1.76c0-.84,1.21-.93,2-.7Z" fill="#1b2021"/><path d="M182.42,27.16c0-.41.57-.52,1-.39a3.14,3.14,0,0,1,2.05,3,4.52,4.52,0,0,1-2.7-2.75Z" fill="#1b2021"/><path d="M352.45,38.72a2.07,2.07,0,0,1-3.11-1.84,5.26,5.26,0,0,1,3.1,1.63Z" fill="#1b2021"/><path d="M303.64,159.52l-4-.34c-.33,0-.79-.22-.68-.54A3.76,3.76,0,0,1,303.64,159.52Z" fill="#1b2021"/><path d="M96.06,54.65a.69.69,0,0,1,0,1.15,3.2,3.2,0,0,1-3.47-.28,10.2,10.2,0,0,1,3.56-.89Z" fill="#1b2021"/><path d="M259.32,85.49l-3.84.08a2.64,2.64,0,0,1,3.67-.85Z" fill="#1b2021"/><path d="M128,39.06,129.33,37c.75,0,1.15,1,.79,1.65a2.61,2.61,0,0,1-1.89,1.06c-.36.07-.54-.63-.3-.37Z" fill="#1b2021"/><path d="M188.32,148.16c.36-.29.71.48.42.85l-3.12,0c-.5-.46,0-1.37.68-1.48a2.75,2.75,0,0,1,1.86.68Z" fill="#1b2021"/><path d="M187.75,23.75c-.73-.59-.66-1.71-.52-2.64a2.28,2.28,0,0,1,1.53-.2,1.88,1.88,0,0,1-.94,2.56Z" fill="#1b2021"/><path d="M95,120.92a4.1,4.1,0,0,1,3.55-1.47,2.22,2.22,0,0,1-3.24,1.46Z" fill="#1b2021"/><path d="M304.47,136.9l2.91.45a3.36,3.36,0,0,1-2.17,1.17c-.84,0-1.61-1.09-1-1.71Z" fill="#1b2021"/><path d="M75.09,71.81a3.16,3.16,0,0,1-4.1-.42,3.83,3.83,0,0,1,3.69.27Z" fill="#1b2021"/><path d="M45.73,367.31a2.5,2.5,0,0,1-4.12-1l4.16,1.11Z" fill="#1b2021"/><path d="M153.15,84.56a3,3,0,0,1-3.66,0,9.25,9.25,0,0,1,3.19-.86,1.06,1.06,0,0,1,.94.25c.21.26-.06.79-.36.64Z" fill="#1b2021"/><path d="M200.95,28.4a1.79,1.79,0,0,1-1.63-2.15,7.62,7.62,0,0,1,3,1l-1.37,1Z" fill="#1b2021"/><path d="M186.79,34.42a1.19,1.19,0,0,1-1.14,1.08,4.33,4.33,0,0,1-1.59-2,3.83,3.83,0,0,1,2-.23l.62,1.13Z" fill="#1b2021"/><path d="M224.61,134.71l-2.62-.37a1.22,1.22,0,0,1-.2-1,2.29,2.29,0,0,1,3.14,1Z" fill="#1b2021"/><path d="M110.82,171l-3.24.29c-.49-.55.12-1.51.85-1.6a3.12,3.12,0,0,1,2,.77Z" fill="#1b2021"/><path d="M28.71,80.79l-2.19-.56a1,1,0,0,1-.21-1,2,2,0,0,1,2.91,1.59Z" fill="#1b2021"/><path d="M263.83,31.32a6.16,6.16,0,0,1-3.89.81,2.8,2.8,0,0,1,3.52-1.27Z" fill="#1b2021"/><path d="M110.2,51.7a1.21,1.21,0,1,1-1.56.87,3.14,3.14,0,0,0,1.64-1.08Z" fill="#1b2021"/><path d="M108,159.87a.8.8,0,0,1-.88-1,2.91,2.91,0,0,1,3.47,1.56l-2.54-.35Z" fill="#1b2021"/><path d="M99.88,59.24A1.27,1.27,0,0,1,100.1,61c-.24.79-1.51,0-1.4-.87s.74-1.6.5-2.39a.92.92,0,0,1,.53,1.46Z" fill="#1b2021"/><path d="M303.15,95.28c.67.15,0,1.22-.7,1.13s-1.43-.53-2-.12a1,1,0,0,1,0-1.35,4.14,4.14,0,0,1,2.64.47Z" fill="#1b2021"/><path d="M281.55,72.52A2.89,2.89,0,0,1,282.73,71a5.55,5.55,0,0,0,2.48,1.94,3.49,3.49,0,0,1-3.52-.49Z" fill="#1b2021"/><path d="M8.27,117.47l1.81-1.23,1.22.75-2.62,1.64c-.14.26-.59.09-.66-.2a1.12,1.12,0,0,1,.28-.82Z" fill="#1b2021"/><path d="M10.08,114l-1.25-.2a1.54,1.54,0,0,1,1.6-1.36,2.12,2.12,0,0,1,1.77,1.33L10.1,114Z" fill="#1b2021"/><path d="M352.3,435.43c-.69-.12.08-1.24.75-1.05s1.33.8,2,.53l.24,1.27a4.43,4.43,0,0,1-2.9-.85Z" fill="#1b2021"/><path d="M48,57a1.42,1.42,0,0,1-1.7-.05,1.13,1.13,0,1,1,1.67.15Z" fill="#1b2021"/><path d="M213.14,467.61l4.29.42a4.39,4.39,0,0,1-4.53.14Z" fill="#1b2021"/><path d="M72.16,75.43l1.6,1.08a1.85,1.85,0,0,1-3.16-.88,2.41,2.41,0,0,1,1.56-.19Z" fill="#1b2021"/><path d="M78.37,373.28c-.83.12-2.07-.15-1.91-1,1.06-.6,2.86-.89,3.08.31l-1.19.66Z" fill="#1b2021"/><path d="M2.76,474.6a2.36,2.36,0,0,1,3.6.42,3.85,3.85,0,0,1-3.66-.29Z" fill="#1b2021"/><path d="M17.87,71.29a1.15,1.15,0,1,0,1.29,1.51A1.21,1.21,0,0,0,17.87,71.29Z" fill="#1b2021"/><path d="M342.61,53.57A2.21,2.21,0,0,1,341.1,52a2.8,2.8,0,0,1,3.08,2.38,2.09,2.09,0,0,1-1.61-.67Z" fill="#1b2021"/><path d="M120.59,38.5l1.08.81a2.64,2.64,0,0,1-3.58-.1,2.39,2.39,0,0,1,2.36-.51Z" fill="#1b2021"/><path d="M33.49,101a2.83,2.83,0,0,1-3.29.3,1.85,1.85,0,0,1,2.93-.57Z" fill="#1b2021"/><path d="M19.84,125.92c.65.11,1.37.88.87,1.3-1.17.24-2.87.09-2.91-1.1l2-.21Z" fill="#1b2021"/><path d="M97.29,35.84a2.88,2.88,0,0,1,1.53-.64c.56,0,1.16.49,1,1a2.63,2.63,0,0,1-2.48.58l-.26-1.06Z" fill="#1b2021"/><path d="M49.55,80.77a3.45,3.45,0,0,1-2.44-1.11c1.35-.4,3.32-.47,3.62.9l-1.16.25Z" fill="#1b2021"/><path d="M255.52,22.44c-.32-.57.45-1.41,1-1a2.88,2.88,0,0,1,.64,1.5c0,.55-.45,1.15-1,1.06a1.52,1.52,0,0,1-.66-1.53Z" fill="#1b2021"/><path d="M212,35.26a1.31,1.31,0,0,1,2.22.43,5.84,5.84,0,0,1-2.92.77.91.91,0,0,1,.47-1.3Z" fill="#1b2021"/><path d="M206.5,8.86A3.27,3.27,0,0,1,208,10l-4.95-.62a2.43,2.43,0,0,1,3.27-.28Z" fill="#1b2021"/><path d="M180.77,83l1.15,1.18a2.88,2.88,0,0,1-3.16-.17,1.41,1.41,0,0,1,2-.92Z" fill="#1b2021"/><path d="M156.41,27.15c.88-.25,2.11.28,2,1.18l-2.87.14a.94.94,0,0,1,.89-1.36Z" fill="#1b2021"/><path d="M205.19,411.53a2.79,2.79,0,0,1,3.36,1.5,5.5,5.5,0,0,1-3.69-1.29Z" fill="#1b2021"/><path d="M94.09,58.27l1.13-.16.63,2.56a4.17,4.17,0,0,1-2.16-.55A1.67,1.67,0,0,0,94,58.38Z" fill="#1b2021"/><path d="M215.79,32.37l2.41.22a2.3,2.3,0,0,1-3.55.53,1.76,1.76,0,0,1,1.13-.69Z" fill="#1b2021"/><path d="M291.59,36.88c.75-.09,1.7,0,2,.67a2.64,2.64,0,0,1-3.56,0l1.57-.68Z" fill="#1b2021"/><path d="M199.6,487.77l3.38-.14c.31.73-.55,1.5-1.34,1.44a3.5,3.5,0,0,1-2-1.18Z" fill="#1b2021"/><path d="M298.58,83.59l-1.52-.78a3.83,3.83,0,0,1,4.16.35,1.82,1.82,0,0,1-2.4.08Z" fill="#1b2021"/><path d="M288.93,458.87l-3.1,0c-.51-.27,0-1,.61-1.16a3,3,0,0,1,2.82,1Z" fill="#1b2021"/><path d="M203.3,122.64a1.41,1.41,0,0,1-1.85.93,4.08,4.08,0,0,1-1.78-1.5,7.58,7.58,0,0,1,3.49.57Z" fill="#1b2021"/><path d="M347.87,445.53c.16-.41.49.4.16.69a4.38,4.38,0,0,1-3.72,1,3.65,3.65,0,0,1,3.53-1.37Z" fill="#1b2021"/><path d="M240.62,44.88a3.43,3.43,0,0,1,2.79.61,3.25,3.25,0,0,1-2.24.8c-.8-.13-1.39-1.26-.76-1.78Z" fill="#1b2021"/><path d="M136.72,68.07c-.58-.57.19-1.64,1-1.61a3.1,3.1,0,0,1,2,1.31l-2.83.16Z" fill="#1b2021"/><path d="M352.68,452.91l-3.38-1.05a2.64,2.64,0,0,1,3.69.59Z" fill="#1b2021"/><path d="M17.47,103.3a2.66,2.66,0,0,1-1.2-3.1,2,2,0,0,1,1.4,2.72Z" fill="#1b2021"/><path d="M277,87c1-.17,2.52.07,2.42,1.1a3,3,0,0,1-3.44-1l1-.16Z" fill="#1b2021"/><path d="M342.76,34.47c.19.31-.42.68-.6.35l-3.38-.68a4.39,4.39,0,0,1,4.18,0Z" fill="#1b2021"/><path d="M247.28,86a4.78,4.78,0,0,1,2.41-2.09l-1.13,2.55c-.75.26-2,0-1.72-.71Z" fill="#1b2021"/><path d="M92.89,46.36c.23.73-.85,1.3-1.53.95a3,3,0,0,1-1.19-1.89,4.37,4.37,0,0,1,2.59,1Z" fill="#1b2021"/><path d="M4.52,71.67a1.18,1.18,0,0,1-1,1.51,2.84,2.84,0,0,1,.36-3.11,1.57,1.57,0,0,1,.72,1.58Z" fill="#1b2021"/><path d="M204,146.16a2.8,2.8,0,0,1,1.35.89,3.21,3.21,0,0,1-3.7-1.35,2,2,0,0,1,2.28.49Z" fill="#1b2021"/><path d="M250.12,26.37a2.17,2.17,0,0,1,2.7,1.47,11,11,0,0,1-3.41-.78.6.6,0,0,1,.72-.54Z" fill="#1b2021"/><path d="M208.89,480a.61.61,0,0,1,.24,1,3.51,3.51,0,0,1-3-.79,2.28,2.28,0,0,1,2.72-.25Z" fill="#1b2021"/><path d="M243.27,27.16l-1-.18a2.15,2.15,0,0,1,1.18-1.58c.65-.23,1.52.36,1.31,1a1.24,1.24,0,0,1-1.45.66Z" fill="#1b2021"/><path d="M48.21,372.47a1.94,1.94,0,0,1-2-1.66,2.75,2.75,0,0,1,2,.17c.58.4.6,1.51-.09,1.66Z" fill="#1b2021"/><path d="M75.92,60.58a1.71,1.71,0,0,1-2.25.44,2.05,2.05,0,0,1,2.48-1.52.67.67,0,0,1-.24,1Z" fill="#1b2021"/><path d="M186.48,97.1a2.49,2.49,0,0,1-3.3-.16,2.17,2.17,0,0,1,3.15,0Z" fill="#1b2021"/><path d="M340.94,64c.63.4.25,1.49-.46,1.73a3,3,0,0,1-2.14-.4,2.15,2.15,0,0,1,2.43-.94Z" fill="#1b2021"/><path d="M168.31,363.66a2.59,2.59,0,0,1,1.57,2.45l-3.19-2.61a1.06,1.06,0,0,1,1.65,0Z" fill="#1b2021"/><path d="M204.29,417.74a4.43,4.43,0,0,1,4.31.92,8.1,8.1,0,0,1-4.46-.75Z" fill="#1b2021"/><path d="M169.93,4.42a2.19,2.19,0,0,1,1.39,3.33,3.29,3.29,0,0,1-1.11-3.19Z" fill="#1b2021"/><path d="M85,72.32l2,1.12a2.44,2.44,0,0,1-2.43.61L83.92,73a1.67,1.67,0,0,1,1.1-.65Z" fill="#1b2021"/><path d="M252.8,443.57a3.22,3.22,0,0,1,3.62.86,3.34,3.34,0,0,1-3.71-.77Z" fill="#1b2021"/><path d="M176.76,36.87c.09-.44.76-.49,1.08-.17a1.9,1.9,0,0,1,.4,1.24,2.66,2.66,0,0,1-1.91.7,1.18,1.18,0,0,1,.46-1.74Z" fill="#1b2021"/><path d="M189.93,361.34a1.41,1.41,0,0,1,1.7-.88,4.1,4.1,0,0,1,1.77,1.11,4.5,4.5,0,0,1-3.37-.12Z" fill="#1b2021"/><path d="M107.62,59.47h-1.84a1.58,1.58,0,0,1,1.81-1.64c.73,0,.68,1.3,0,1.59Z" fill="#1b2021"/><path d="M45.8,124.4a1.41,1.41,0,0,1,.2-1.15l2.51.24a1.73,1.73,0,0,1-2.67.86Z" fill="#1b2021"/><path d="M48.22,74.09c.51-.18.74.63.66,1.17a2,2,0,0,1-2.6-1,1.19,1.19,0,0,1,1.87-.12Z" fill="#1b2021"/><path d="M166.8,42l-1.34-1.37a3,3,0,0,1,3.24,1.31,1.78,1.78,0,0,1-1.9.06Z" fill="#1b2021"/><path d="M345.76,42.22l.78-.54,2.53,1.48a2.19,2.19,0,0,1-3.1-.8Z" fill="#1b2021"/><path d="M4.76,64.8a1.33,1.33,0,0,1,.49-2.25A2.34,2.34,0,0,1,6,64.14c0,.59-.81,1.1-1.25.7Z" fill="#1b2021"/><path d="M99,111.16a2.16,2.16,0,0,1,2.67.26,3.12,3.12,0,0,1-1.74.87c-.66,0-1.37-.6-1.16-1.23Z" fill="#1b2021"/><path d="M11.87,172.48c-.43.28-.72-.53-.62-1a1.77,1.77,0,0,1,2.7.89l-2.08.22Z" fill="#1b2021"/><path d="M160.59,384.64l1.38.51a2.94,2.94,0,0,1-3.6-.2c.28-.79,1.44-.63,2.22-.32Z" fill="#1b2021"/><path d="M103.09,94.18l-1-.77a2.14,2.14,0,0,1,3.16,0,1.82,1.82,0,0,1-2,.63Z" fill="#1b2021"/><path d="M75.17,163.65,75,162.47A2.27,2.27,0,0,1,77.8,164a5.46,5.46,0,0,1-2.52-.36Z" fill="#1b2021"/><path d="M49,86.2l-1.08-.82a2.24,2.24,0,0,1,3.21.17,1.57,1.57,0,0,1-2,.4Z" fill="#1b2021"/><path d="M204.52,5a1.86,1.86,0,0,1-1.25-1.87,4.79,4.79,0,0,1,2.65,1.91,1.2,1.2,0,0,1-1.43.15Z" fill="#1b2021"/><path d="M206.3,26.93a1.52,1.52,0,0,1,2.25.41l-3,1.17.68-1.63Z" fill="#1b2021"/><path d="M191,85.42c1,.49.39,2.09-.44,2.9l-.7-1.59L191,85.62Z" fill="#1b2021"/><path d="M220.5,58.34a1.1,1.1,0,0,1,.43-1.37.9.9,0,0,1,1.26.52l-1.08,2c-.48.23-.73-.58-.65-1.1Z" fill="#1b2021"/><path d="M267.51,32.12c-.4-.51.55-1.1,1.13-.82s.92.93,1.5,1.2a1.67,1.67,0,0,1-2.56-.48Z" fill="#1b2021"/><path d="M224.16,126.4a2.76,2.76,0,0,1-2.86.2,1.77,1.77,0,0,1,2.84-.53Z" fill="#1b2021"/><path d="M252.28,131c.64.4.24,1.51-.49,1.72a3,3,0,0,1-2.15-.49,4.69,4.69,0,0,1,2.49-.84Z" fill="#1b2021"/><path d="M63.52,52.61a2,2,0,0,1-2,.64,2.38,2.38,0,0,1-.2-1.55,2.4,2.4,0,0,1,2.32.82Z" fill="#1b2021"/><path d="M318.65,441.59c.2-1.37,2.59-1.54,3-.22a8.36,8.36,0,0,1-3,.2Z" fill="#1b2021"/><path d="M250.51,64.11a.9.9,0,0,1-1.34.42,4.93,4.93,0,0,1,2.6-2.46A1.87,1.87,0,0,1,250.55,64Z" fill="#1b2021"/><path d="M161.92,365.15a2.83,2.83,0,0,1,1.35.88,3.26,3.26,0,0,1-3.56-.92,2.63,2.63,0,0,1,2.21,0Z" fill="#1b2021"/><path d="M268.55,455.69,271,456a8,8,0,0,1-3.43,1.1.9.9,0,0,1,.92-1.15Z" fill="#1b2021"/><path d="M40.4,113.68a4.43,4.43,0,0,1-4,.5,6.69,6.69,0,0,1,4.15-.77Z" fill="#1b2021"/><path d="M277,40.74a2.68,2.68,0,0,1-2.51-1.39,1.77,1.77,0,0,1,2.64,1.49Z" fill="#1b2021"/><path d="M169.68,46.16a1.46,1.46,0,0,1-2.45-.65l1.1-.58a2.19,2.19,0,0,1,1.46,1.19Z" fill="#1b2021"/><path d="M313.07,96.4a2.24,2.24,0,0,1,2.72,1.46,2.21,2.21,0,0,1-2.73-1.37Z" fill="#1b2021"/><path d="M156.34,43.44a3,3,0,0,1-2.83.32,3.35,3.35,0,0,1,1.65-1.22c.68-.15,1.53.34,1.46,1Z" fill="#1b2021"/><path d="M179.29,150.08a1.91,1.91,0,0,1-3.29-.55,12.09,12.09,0,0,1,3,.48Z" fill="#1b2021"/><path d="M62.73,107.34c.27-1.18,2.08-1.06,3-.28a2.42,2.42,0,0,1-2.92.38Z" fill="#1b2021"/><path d="M17,85a1.72,1.72,0,0,1-2.22-1.45A1.8,1.8,0,0,1,17.23,85Z" fill="#1b2021"/><path d="M183.88,105.15a1.5,1.5,0,0,1,1.23.24,2,2,0,0,1-3.22.41l2-.66Z" fill="#1b2021"/><path d="M247.95,151a2.81,2.81,0,0,1,3.18.41,2.19,2.19,0,0,1-3.25-.41Z" fill="#1b2021"/><path d="M309.32,494.35a3.07,3.07,0,0,1-2.46-1.21,6.84,6.84,0,0,1,4,1.06l-1.54.2Z" fill="#1b2021"/><path d="M12.76,79l1.07,2a1.14,1.14,0,1,1-1.06-1.85Z" fill="#1b2021"/><path d="M98.54,174.87a.88.88,0,0,1-.89-.79l1.11-.64a2.85,2.85,0,0,1,1.53,1.53,1.92,1.92,0,0,1-1.77,0Z" fill="#1b2021"/><path d="M81.47,67.93a1.22,1.22,0,0,1,1.48.62A1.15,1.15,0,0,1,82.37,70a1.87,1.87,0,0,1-1-2.18Z" fill="#1b2021"/><path d="M108.59,175.43l1.48.71a1.5,1.5,0,0,1-2.71-.36l1.13-.24Z" fill="#1b2021"/><path d="M201.33,24.17c1-.59,2.38,1,1.61,1.94a1.94,1.94,0,0,1-1.62-1.88Z" fill="#1b2021"/><path d="M335.09,64.43a1.9,1.9,0,0,1,2.81.13,1.66,1.66,0,0,1-2.65,0Z" fill="#1b2021"/><path d="M342.7,308.4l1.62.89a3.2,3.2,0,0,1-3.29-.1c-.05-.63.9-.7,1.51-.52Z" fill="#1b2021"/><path d="M143.09,48.33l2,.22a3.48,3.48,0,0,1-1.71,1c-.67.1-1.46-.36-1.44-1l1.14-.22Z" fill="#1b2021"/><path d="M34.06,378.57a.89.89,0,0,1-.47-1.28,3.55,3.55,0,0,1,2.52.78,1.56,1.56,0,0,1-2,.45Z" fill="#1b2021"/><path d="M348.76,401.62a4.55,4.55,0,0,1-3.39-.41,3,3,0,0,1,3.6.25Z" fill="#1b2021"/><path d="M249,30.19a2.39,2.39,0,0,1-2.41.78,1.59,1.59,0,0,1,2.66-1Z" fill="#1b2021"/><path d="M351.47,46.26c.63.35.23,1.45-.48,1.61a2.76,2.76,0,0,1-2-.63,2.43,2.43,0,0,1,2.43-.56Z" fill="#1b2021"/><path d="M103.55,432.45l-1.48-.71a1.5,1.5,0,0,1,2.71.36l-1.13.24Z" fill="#1b2021"/><path d="M338.26,128.85a1.29,1.29,0,0,1-2.58,0,2.66,2.66,0,0,1,2.23,0Z" fill="#1b2021"/><path d="M223,480.12a3.35,3.35,0,0,1,3.36-.05,3,3,0,0,1-3.2.26Z" fill="#1b2021"/><path d="M205.54,363.45a2.53,2.53,0,0,1,2.51.66,2,2,0,0,1-2.93-.44Z" fill="#1b2021"/><path d="M55.54,364.67a.49.49,0,0,1-.64.56,2.23,2.23,0,0,1-1.62-1.47,1.73,1.73,0,0,1,2.29.89Z" fill="#1b2021"/><path d="M279,415.71a1.76,1.76,0,0,1,2.67.82,2.07,2.07,0,0,1-2.77-.85Z" fill="#1b2021"/><path d="M46.89,119.78a1.18,1.18,0,0,1-.87-1.83l2,1.18a.69.69,0,0,1-1.06.54Z" fill="#1b2021"/><path d="M58.85,81.17a1.86,1.86,0,0,1-2-1.2,4.1,4.1,0,0,1,3.19,1,1.4,1.4,0,0,1-1.13.23Z" fill="#1b2021"/><path d="M8.32,78.53l-1.38,0a1.19,1.19,0,0,1,1.74-1.24c.54.26.22,1.27-.36,1.19Z" fill="#1b2021"/><path d="M169.34,81.39c.36-1,2.18-.63,2.33.44a1.76,1.76,0,0,1-2.33-.33Z" fill="#1b2021"/><path d="M202.26,72a2.65,2.65,0,0,1,2.22,1,8.06,8.06,0,0,1-2.93.15l.61-1.13Z" fill="#1b2021"/><path d="M282.27,24a.73.73,0,0,1,0,1.29l-2.44-1.56a2.2,2.2,0,0,1,2.37.33Z" fill="#1b2021"/><path d="M255.44,464a2.23,2.23,0,0,1,2.6-.46,1.71,1.71,0,0,1-2.74.62Z" fill="#1b2021"/><path d="M214.46,62.12A1.78,1.78,0,0,1,216,63.26a6.67,6.67,0,0,1-2.5.2.87.87,0,0,1,.9-1.15Z" fill="#1b2021"/><path d="M286.25,61.62c-.64.17-1.64,0-1.54-.62a5.53,5.53,0,0,1,3.19,0,1,1,0,0,1-1.55.6Z" fill="#1b2021"/><path d="M128.55,62.43l1,.76a1.65,1.65,0,0,1-2.66,0,1.48,1.48,0,0,1,1.53-.66Z" fill="#1b2021"/><path d="M289.37,24a1.54,1.54,0,0,1,1.39,1.77,4.62,4.62,0,0,1-2.5-1.54,1.46,1.46,0,0,1,1.11-.21Z" fill="#1b2021"/><path d="M147.5,62.17l-1.57-.7.19-1a2.47,2.47,0,0,1,1.61.49c.41.4.37,1.26-.18,1.4Z" fill="#1b2021"/><path d="M311.08,105.09c-.37.28-.73-.48-.42-.83a6.89,6.89,0,0,1,3,.25,2.23,2.23,0,0,1-2.54.52Z" fill="#1b2021"/><path d="M225.45,58.72l-1-.76a1.65,1.65,0,0,1,2.66,0,1.48,1.48,0,0,1-1.53.66Z" fill="#1b2021"/><path d="M74.78,54.66l1.12.57a1.53,1.53,0,0,1-2.7-.42,2.57,2.57,0,0,1,1.61-.2Z" fill="#1b2021"/><path d="M153,53.93c.22.85-1.37,1.3-1.63.46a2.29,2.29,0,0,1,1.48-1.67l.26,1.19Z" fill="#1b2021"/><path d="M12.68,359.49a1.63,1.63,0,0,1,2.41.72,2,2,0,0,1-2.68-.43Z" fill="#1b2021"/><path d="M137.32,410.56a1.78,1.78,0,0,1-1.58-1.14,6.67,6.67,0,0,1,2.5-.2.87.87,0,0,1-.9,1.15Z" fill="#1b2021"/><path d="M114.25,397.22c-.37.29-.71-.49-.41-.85a3.4,3.4,0,0,1,2.88,1.13,2.25,2.25,0,0,1-2.36-.34Z" fill="#1b2021"/><path d="M132.29,45.44l-.44-.66a5.73,5.73,0,0,1,2.6-1.92,2.71,2.71,0,0,1-2,2.23Z" fill="#1b2021"/><path d="M48.2,153.83a2.13,2.13,0,0,1-2.46-1,1.86,1.86,0,0,1,2.71,1Z" fill="#1b2021"/><path d="M233.25,447.09a2.55,2.55,0,0,1-2.67.53,1.79,1.79,0,0,1,2.86-.63Z" fill="#1b2021"/><path d="M44.24,99.38a1.56,1.56,0,0,1,1.22.22,1.53,1.53,0,0,1-2.66.35,1.29,1.29,0,0,1,1.43-.56Z" fill="#1b2021"/><path d="M311.6,436.15a3.94,3.94,0,0,1,3,.76,6.92,6.92,0,0,1-4.26-.77,1.18,1.18,0,0,1,1.15-.3Z" fill="#1b2021"/><path d="M211.3,497.83a1.63,1.63,0,0,1,2.48.68,1.88,1.88,0,0,1-2.6-.53Z" fill="#1b2021"/><path d="M340.38,452.37c.51-1.06,2.11-.24,2.88.65a2.1,2.1,0,0,1-2.55-.68Z" fill="#1b2021"/><path d="M244.6,77.2a1.63,1.63,0,0,1-.65-1.09,3.12,3.12,0,0,1,2.08-.71A1.41,1.41,0,0,1,244.62,77Z" fill="#1b2021"/><path d="M23.6,371.35a1.66,1.66,0,0,1-.22-2c1.15-.07,1.42,2.05.29,2.27Z" fill="#1b2021"/><path d="M68.22,360.56a2.22,2.22,0,0,1,2.42.41,2,2,0,0,1-2.93-.41Z" fill="#1b2021"/><path d="M20.13,376.45c-.2,1.13-2.32.89-2.26-.25a1.66,1.66,0,0,1,2,.2Z" fill="#1b2021"/><path d="M186.18,125.1a1.36,1.36,0,0,1,1.94-.71,2.4,2.4,0,0,1-1.11,1.4c-.57.23-1.39-.3-1.16-.87Z" fill="#1b2021"/><path d="M212.4,123.71c.2-1.13,2.32-.89,2.26.25a1.66,1.66,0,0,1-2-.2Z" fill="#1b2021"/><path d="M22,121.33a3.11,3.11,0,0,1,2.44.44,1.63,1.63,0,0,1-2.7-.11Z" fill="#1b2021"/><path d="M178.35,53.1c-.59-.08,0-.95.63-1l1.11.52a1.66,1.66,0,0,1-.26,1.26l-1.58-.63Z" fill="#1b2021"/><path d="M171.81,18.38l-1-.73a1.86,1.86,0,0,1,2.76.76,1.16,1.16,0,0,1-1.65-.14Z" fill="#1b2021"/><path d="M83,93.88a.63.63,0,0,1,.25,1c-.89.09-2.18-.24-2-1.11a1.92,1.92,0,0,1,1.8,0Z" fill="#1b2021"/><path d="M8.48,72.59a.72.72,0,0,1-.61,1.06,1.94,1.94,0,0,1-.63-2,.91.91,0,0,1,1.29.92Z" fill="#1b2021"/><path d="M339.91,136.19c-.67-.05-1.34-.85-.89-1.35.88-.09,2.17.23,2,1.1a1.46,1.46,0,0,1-1.1.2Z" fill="#1b2021"/><path d="M12.54,354.91a1.11,1.11,0,0,1-.22-1.58,2,2,0,0,1,1.56,2.05,2.6,2.6,0,0,1-1.33-.47Z" fill="#1b2021"/><path d="M264.63,138.14c.27-.87,1.52-.75,2.38-.45a1.19,1.19,0,0,1-2.18.43Z" fill="#1b2021"/><path d="M144.46,174.8c.51-.42,1.27.41,1.06,1l-1.54.67a1.16,1.16,0,0,1,.46-1.72Z" fill="#1b2021"/><path d="M63.21,362.06a2.15,2.15,0,0,1,2.47.81,2.07,2.07,0,0,1-2.72-.41Z" fill="#1b2021"/><path d="M2.59,78.5a.94.94,0,0,1-.46,1.29,2.17,2.17,0,0,1-1.16-2,1.15,1.15,0,0,1,1.49.73Z" fill="#1b2021"/><path d="M15.41,356.88c.67.05,1.34.85.89,1.35-.88.09-2.17-.23-2-1.1a1.47,1.47,0,0,1,1.1-.2Z" fill="#1b2021"/><path d="M253,142.32c-.37.29-.71-.49-.41-.85a3.21,3.21,0,0,1,2.37.69,1.24,1.24,0,0,1-2,.22Z" fill="#1b2021"/><path d="M219.23,493.14l-1-.77a1.9,1.9,0,0,1,2-.67,1.36,1.36,0,0,1,.22,1.08,1.44,1.44,0,0,1-1.1.2Z" fill="#1b2021"/><path d="M153.48,416.6a.63.63,0,0,1,.25,1c-.89.09-2.18-.23-2-1.11a1.75,1.75,0,0,1,1.78,0Z" fill="#1b2021"/><path d="M334.15,88.76c-.67-.05-1.34-.85-.89-1.35.88-.09,2.17.23,2,1.1a1.46,1.46,0,0,1-1.1.2Z" fill="#1b2021"/><path d="M340.36,483.93a2.68,2.68,0,0,1,2,.76,2.5,2.5,0,0,1-1.94.34c-.63-.25-.82-1.35-.17-1.54Z" fill="#1b2021"/><path d="M131.6,177.88a2.41,2.41,0,0,1-2.45.19,2.53,2.53,0,0,1,1.28-1.11c.56-.14,1.28.33,1.13.89Z" fill="#1b2021"/><path d="M100.15,114.54a1.6,1.6,0,0,1-2.43-1.29l2.38,1.15Z" fill="#1b2021"/><path d="M136.89,176.52a1.43,1.43,0,0,1,1.14.18,1.21,1.21,0,0,1-2.21.45,1.53,1.53,0,0,1,1.07-.64Z" fill="#1b2021"/><path d="M333.26,450.42c.68,0,1.32.87.88,1.4a4.32,4.32,0,0,1-2-.72c-.24-.47.58-.71,1.09-.61Z" fill="#1b2021"/><path d="M219.57,41.08c-.26-.46.55-.73,1.07-.64a2.85,2.85,0,0,1,.69,2,3.51,3.51,0,0,1-1.75-1.39Z" fill="#1b2021"/><path d="M322.64,90.87a.88.88,0,0,1-.47-1.27,4.1,4.1,0,0,1,2.05.25,1.69,1.69,0,0,1-1.6,1Z" fill="#1b2021"/><path d="M49.46,99.21a1.27,1.27,0,0,1,2.09-.08,4,4,0,0,1-2.95.66.57.57,0,0,1,.71-.57Z" fill="#1b2021"/><path d="M296.91,41.25c-.48.18-1.21-.13-1.09-.64a2,2,0,0,1,2-.63.9.9,0,0,1-.93,1.14Z" fill="#1b2021"/><path d="M287.14,477.37a2.53,2.53,0,0,1-2.54-1.53,3.8,3.8,0,0,1,2.83,1.45Z" fill="#1b2021"/><path d="M265.15,451.3c.22-1.13,2.35-.85,2.27.3a1.63,1.63,0,0,1-1.87-.37Z" fill="#1b2021"/><path d="M38.9,361.86a.91.91,0,0,1,.46,1.31,4.76,4.76,0,0,1-2-.72c-.09-.65.9-.76,1.53-.58Z" fill="#1b2021"/><path d="M189.39,77.62a1.57,1.57,0,0,1-1.09-2.27,1.49,1.49,0,0,1,1,2Z" fill="#1b2021"/><path d="M75.93,50.6H77a1.67,1.67,0,0,1,0,1.77,1.38,1.38,0,0,1-1.12-.21V50.6Z" fill="#1b2021"/><path d="M113.78,38.23a1.83,1.83,0,0,1,.55,1.62A1.91,1.91,0,0,1,112.66,38a.7.7,0,0,1,1.12.23Z" fill="#1b2021"/><path d="M194.47,499c-.66-.15-.53-1.27.1-1.54a2.47,2.47,0,0,1,2,.3l-2,1Z" fill="#1b2021"/><path d="M261.22,35.33a1.08,1.08,0,0,1,1.7.81,1.15,1.15,0,0,1-1.91-.87Z" fill="#1b2021"/><path d="M293,94.2a2.5,2.5,0,0,1-3-.35,3.29,3.29,0,0,1,3,.11Z" fill="#1b2021"/><path d="M233.21,34.93l1.87,1.68A1.5,1.5,0,0,1,232.91,35Z" fill="#1b2021"/><path d="M120.89,70.62l1.17.61a1.53,1.53,0,0,1-2.61-.56l1.47-.17Z" fill="#1b2021"/><path d="M26.83,354.45c0,.63-1.09.71-1.36.14a1.48,1.48,0,0,1,.57-1.67,1.52,1.52,0,0,1,.67,1.55Z" fill="#1b2021"/><path d="M191.85,23.54a1.18,1.18,0,0,1,.89,1.81,2.17,2.17,0,0,1-1.31-.73c-.28-.43-.06-1.17.45-1.17Z" fill="#1b2021"/><path d="M276.58,24a.65.65,0,0,1,1.08-.22l-1.53,2-.7-1.14a1.64,1.64,0,0,1,1.09-.65Z" fill="#1b2021"/><path d="M140,63.82a1.45,1.45,0,0,1-2.39-.58,1.63,1.63,0,0,1,2.2.44Z" fill="#1b2021"/><path d="M177.93,34.48a3,3,0,0,1-3.17.35,2.84,2.84,0,0,1,3.11-.38Z" fill="#1b2021"/><path d="M246.77,51.9a.91.91,0,0,1,1.55.69,3.33,3.33,0,0,1-1.94.22c-.37-.26,0-1,.43-.85Z" fill="#1b2021"/><path d="M119.69,167.2c-.14,1.07-2.18.85-2.08-.23a1.66,1.66,0,0,1,2,.19Z" fill="#1b2021"/><path d="M19.8,263.84a1.49,1.49,0,0,1,.94-1.81,3.9,3.9,0,0,1,.23,2,.71.71,0,0,1-1.08-.24Z" fill="#1b2021"/><path d="M10.74,97.17a1.57,1.57,0,0,1-2.26,1.1,1.47,1.47,0,0,1,2-1Z" fill="#1b2021"/><path d="M43.89,131.47c.36-1.05,2.22-.56,2.35.54a2.09,2.09,0,0,1-2.18-.57Z" fill="#1b2021"/><path d="M184.91,53.56l.53.73a2.13,2.13,0,0,1-1.38.65c-.52,0-1-.55-.84-1a2.11,2.11,0,0,1,1.52-.18Z" fill="#1b2021"/><path d="M43.18,95.2a1.69,1.69,0,0,1,1.74-.51,5.41,5.41,0,0,0-1.57,2c-.7.19-.75-1.07-.22-1.57Z" fill="#1b2021"/><path d="M227.26,26.72a1.07,1.07,0,0,1-.35,1.74,3.14,3.14,0,0,1-.72-2,.73.73,0,0,1,1.1.23Z" fill="#1b2021"/><path d="M5.33,171.41a1,1,0,0,1,1.26-.63,2.4,2.4,0,0,1,1.14,1.08,2,2,0,0,1-2.22-.52Z" fill="#1b2021"/><path d="M210,57.22a.72.72,0,0,1,0-1.28l1.54,1a1,1,0,0,1-1.56.31Z" fill="#1b2021"/><path d="M99,55.7a2.52,2.52,0,0,1-.18,1.59,2.21,2.21,0,0,1-.47-2.69c.47-.24.72.57.62,1.09Z" fill="#1b2021"/><path d="M216.72,10.64c-.49-.34,0-1.21.62-1.18a1.82,1.82,0,0,1,1.31,1.1l-2,.19Z" fill="#1b2021"/><path d="M133.94,6a1.05,1.05,0,0,1-1.74-.39L133.77,5A.74.74,0,0,1,134,6.07Z" fill="#1b2021"/><path d="M29.61,360.89a3.17,3.17,0,0,1,2.45,1.19,3.05,3.05,0,0,1-2.86-1Z" fill="#1b2021"/><path d="M113.51,370c.15-1,1.68-.71,2.34,0a1.3,1.3,0,0,1-2.09-.1Z" fill="#1b2021"/><path d="M66.17,91.61l1.55-.66a1.73,1.73,0,0,1,.66,1.1,1.64,1.64,0,0,1-2.21-.44Z" fill="#1b2021"/><path d="M295.6,107.41a2.37,2.37,0,0,1,2.4.53,2.05,2.05,0,0,1-2.77-.38Z" fill="#1b2021"/><path d="M29.38,233.92c-.19-.59.82-.85,1.32-.47a1.27,1.27,0,0,1-1.14,1.6l-.24-1.13Z" fill="#1b2021"/><path d="M52.21,126.84a1.69,1.69,0,0,1-.45-2.22,1.29,1.29,0,0,1,.46,2.25Z" fill="#1b2021"/><path d="M148.13,486.59c0-.56.76-.87,1.25-.58a1.52,1.52,0,0,1,.59,1.48,2.46,2.46,0,0,1-1.77-.91Z" fill="#1b2021"/><path d="M345.9,211.32a2.16,2.16,0,0,1,2.65.38,2.5,2.5,0,0,1-2.8-.24Z" fill="#1b2021"/><path d="M121.77,51.59a1.74,1.74,0,0,1,1,2.2,1.49,1.49,0,0,1-1-2.28Z" fill="#1b2021"/><path d="M94.09,75.7a.67.67,0,0,1,.23,1.1,4.37,4.37,0,0,1-2-.72,1.34,1.34,0,0,1,1.78-.49Z" fill="#1b2021"/><path d="M209.8,123.53a1.13,1.13,0,0,1-1.74-.89,1.31,1.31,0,0,1,2,.89Z" fill="#1b2021"/><path d="M10.74,154.06a1.46,1.46,0,0,1,1.78.88,1.2,1.2,0,0,1-2-.84Z" fill="#1b2021"/><path d="M74.29,385l-1.52-.73a1.5,1.5,0,0,1,1.45-.78c.57.14.73,1.14.16,1.26Z" fill="#1b2021"/><path d="M126.36,100.1,124,98.93a1.4,1.4,0,0,1,2.26.68Z" fill="#1b2021"/><path d="M57.66,392.28c.28.44-.25,1-.77,1a2.17,2.17,0,0,1-1.31-.76c-.08-.79,1.23-.56,1.81,0Z" fill="#1b2021"/><path d="M121,364.46a2.71,2.71,0,0,1,2.83-.21,2.24,2.24,0,0,1-2.66.41Z" fill="#1b2021"/><path d="M37.14,83.83c-.75.09-1.72,0-2-.69A6.28,6.28,0,0,1,37.58,83c.37.26,0,1-.43.84Z" fill="#1b2021"/><path d="M33.51,150.87c-.36-.43.28-1.1.83-1s.89.65,1.16,1.14a1.59,1.59,0,0,1-1.94-.24Z" fill="#1b2021"/><path d="M4.34,118c-.67-.05-1.34-.85-.89-1.35.74-.07,1.68,0,2,.65l-1.11.62Z" fill="#1b2021"/><path d="M28.28,84.71a1.61,1.61,0,0,1-.33-2.32l1,1.17-.65,1.16Z" fill="#1b2021"/><path d="M175.8,47.19l-1-.76a3.2,3.2,0,0,1,2-.74A.94.94,0,0,1,175.9,47Z" fill="#1b2021"/><path d="M277.34,193.72a2,2,0,0,1-2.45.25c.22-.85,1.46-.73,2.29-.42Z" fill="#1b2021"/><path d="M270.53,49.94l.9.93a2.1,2.1,0,0,1-2.19-.53c-.26-.56.77-.7,1.32-.43Z" fill="#1b2021"/><path d="M267.62,86.62a1.41,1.41,0,0,1,1,1.68l-2-1.12a1.7,1.7,0,0,1,1.11-.66Z" fill="#1b2021"/><path d="M183.68,77a.91.91,0,0,1,.86-1.05,1,1,0,0,1,.87,1.07,1.74,1.74,0,0,1-1.77,0Z" fill="#1b2021"/><path d="M42,152.35c-.54,0-.38-1,.15-1.09s1,.33,1.37.72a.77.77,0,0,1-1.45.09Z" fill="#1b2021"/><path d="M82.56,121.3a1.06,1.06,0,0,1-1.36,0l.69-1.57c.65-.1.78.9.61,1.54Z" fill="#1b2021"/><path d="M112.52,482.83a1.65,1.65,0,0,1-2.45-.24,3.19,3.19,0,0,1,2.54,0Z" fill="#1b2021"/><path d="M105.41,111.37c.48-.18,1.21.13,1.09.63a2.58,2.58,0,0,1-2.2,0c-.23-.47.58-.72,1.09-.63Z" fill="#1b2021"/><path d="M324,481.93a1.93,1.93,0,0,1,2,1.11,1.42,1.42,0,0,1-2-1.12Z" fill="#1b2021"/><path d="M340.84,210.72c.74-.22,1.84-.23,2,.53a2.46,2.46,0,0,1-1.41.36c-.49-.08-.93-.6-.73-1.05Z" fill="#1b2021"/><path d="M295.34,494.07a1.74,1.74,0,0,1,2.27,1,1.59,1.59,0,0,1-2.14-1Z" fill="#1b2021"/><path d="M94.56,64.15a2.77,2.77,0,0,1-1.57.19.9.9,0,0,1,.89-1.27,1.36,1.36,0,0,1,.66,1.06Z" fill="#1b2021"/><path d="M341.26,157.94c.66-.16,1.7,0,1.53.68l-2,.18a.54.54,0,0,1,.41-.91Z" fill="#1b2021"/><path d="M71.27,360.91H73a.83.83,0,0,1-.42,1.23A2.14,2.14,0,0,1,71.16,361Z" fill="#1b2021"/><path d="M15.65,376.66a1.79,1.79,0,0,1-1.81,0,4.44,4.44,0,0,1,2-1.09.7.7,0,0,1-.24,1.06Z" fill="#1b2021"/><path d="M223.86,485.65c.31-.88,1.6-.7,2.47-.35a1.65,1.65,0,0,1-2.31.35Z" fill="#1b2021"/><path d="M5,107.57a1.19,1.19,0,0,1-1.82.9A1.2,1.2,0,0,1,5,107.54Z" fill="#1b2021"/><path d="M310.4,445.81c-.06-.48.54-.84,1-.68a1.39,1.39,0,0,1,.81,1.11,1.16,1.16,0,0,1-1.72-.47Z" fill="#1b2021"/><path d="M69.13,58.14c-.22.53-1.14-.28-.64-.56A1.8,1.8,0,0,1,70.67,57l-1.6,1.13Z" fill="#1b2021"/><path d="M204,55.7a1.76,1.76,0,0,1,1.11-.66l1.11,1.1A1.65,1.65,0,0,1,204,55.7Z" fill="#1b2021"/><path d="M120,95.75l1,.21a.81.81,0,1,1-1.13-.35Z" fill="#1b2021"/><path d="M173.81,338.21a1.47,1.47,0,0,1,2.37-.44,1.62,1.62,0,0,1-2,.42Z" fill="#1b2021"/><path d="M162.59,86.93a1.35,1.35,0,0,1-1.11-.18,1.73,1.73,0,0,1,2.25-.47.72.72,0,0,1-1.08.6Z" fill="#1b2021"/><path d="M86.73,173.2c-.48-.19-.28-1,.2-1.18a2,2,0,0,1,1.47.29,1,1,0,0,1-1.54.53Z" fill="#1b2021"/><path d="M332.39,44.33a.89.89,0,0,1-.45-1.3l1.57.69a.71.71,0,0,1-1.08.6Z" fill="#1b2021"/><path d="M202.6,417.07l1.05.82a2.45,2.45,0,0,1-2.68-.56l1.51-.18Z" fill="#1b2021"/><path d="M119.15,415.88l1.58,1.08a1.94,1.94,0,0,1-1.56.2c-.49-.23-.55-1.14,0-1.22Z" fill="#1b2021"/><path d="M98.79,165.44c-.43.65-1.69.09-1.5-.67a.9.9,0,0,1,1.49.66Z" fill="#1b2021"/><path d="M235.34,406.22a2.28,2.28,0,0,1,2.56.52,2.22,2.22,0,0,1-2.61-.62Z" fill="#1b2021"/><path d="M347.1,46.42l1.49.78a3.11,3.11,0,0,1-2,.29c-.38-.26,0-1,.43-.85Z" fill="#1b2021"/><path d="M155.31,494.6a1.61,1.61,0,0,1,2.27.34,1.65,1.65,0,0,1-2.29-.38Z" fill="#1b2021"/><path d="M328.8,36c.46,0,.59.73.3,1.09a2,2,0,0,1-1.24.55l-.16-1,1.15-.66Z" fill="#1b2021"/><path d="M348.32,51.49a1.63,1.63,0,0,1-.41,2.2,1.75,1.75,0,0,1,.33-2.33Z" fill="#1b2021"/><path d="M325.95,51.46a1.21,1.21,0,0,1,1.16,1.39l-2.45-1.64a1.18,1.18,0,0,1,1.33,0Z" fill="#1b2021"/><path d="M80.6,54.18c-.65-.05-1.33-.76-.94-1.29a5.83,5.83,0,0,0,2,.55,1.58,1.58,0,0,1-1.11.69Z" fill="#1b2021"/><path d="M65.53,146.83c.37-.28.73.49.42.83a2.88,2.88,0,0,1-1.57-.14c0-.61.79-1.25,1.13-.74Z" fill="#1b2021"/><path d="M346.95,140.57c-.17-.45.28-.93.76-1A2.37,2.37,0,0,1,349,140a1.16,1.16,0,0,1-1.81.34Z" fill="#1b2021"/><path d="M107,371.4a2.79,2.79,0,0,1-2.65-.55,2.29,2.29,0,0,1,2.66.44Z" fill="#1b2021"/><path d="M117.34,371.2c-.49-.14-.3-1,.19-1.12a1.81,1.81,0,0,1,1.41.44,1,1,0,0,1-1.49.46Z" fill="#1b2021"/><path d="M68.79,59.41c.22.86-1.51,1.15-1.58.27a.8.8,0,0,1,1.41-.2Z" fill="#1b2021"/><path d="M247.49,34.43a1.63,1.63,0,0,1,2.2.41,1.75,1.75,0,0,1-2.33-.33Z" fill="#1b2021"/><path d="M107.6,133c.37.4-.26,1.07-.79.93s-.83-.67-1.07-1.16a1.09,1.09,0,0,1,1.6.52Z" fill="#1b2021"/><path d="M256.35,491a.53.53,0,0,1-.65.6,1.93,1.93,0,0,1-1.17-1,1.18,1.18,0,0,1,1.76.44Z" fill="#1b2021"/><path d="M353.39,63.75a1,1,0,0,1,.65-1.57,1,1,0,0,1-.64,1.68Z" fill="#1b2021"/><path d="M245.53,133l-1.14-.58a1.38,1.38,0,0,1,1.53-.66.77.77,0,0,1-.44,1.31Z" fill="#1b2021"/><path d="M151.75,34.63a1.51,1.51,0,0,1,1.62-1.31A1,1,0,0,1,152,34.56Z" fill="#1b2021"/><path d="M206.73,131.52a2.26,2.26,0,0,1,2.26-.95,1.78,1.78,0,0,1-2.31,1Z" fill="#1b2021"/><path d="M204.48,32.65a1.73,1.73,0,0,1-1.11.66,1.74,1.74,0,0,1-.66-1.11,1.16,1.16,0,0,1,1.72.47Z" fill="#1b2021"/><path d="M68,129.1a1.21,1.21,0,0,1-2.23.1l1.95-.19Z" fill="#1b2021"/><path d="M196.32,33.33c-.43.65-1.69.09-1.5-.67a.91.91,0,0,1,1.49.66Z" fill="#1b2021"/><path d="M352.12,124.43a.92.92,0,0,1-1.32-.87c.51-.65,1.79.16,1.41.9Z" fill="#1b2021"/><path d="M276.2,92.1a1.59,1.59,0,0,1-2-1,1.34,1.34,0,0,1,1.83.76Z" fill="#1b2021"/><path d="M266.22,92.41l-1-.78a2.61,2.61,0,0,1,2.25,0,.7.7,0,0,1-1.07.58Z" fill="#1b2021"/><path d="M91.83,123.51l.2-1.07a2.13,2.13,0,0,1,1.22,2,1.81,1.81,0,0,1-1.32-.94Z" fill="#1b2021"/><path d="M277,83.77c-.63.18-1.63.07-1.52-.58a1.84,1.84,0,0,1,1.45-.24c.47.19.58,1,.09,1.14Z" fill="#1b2021"/><path d="M133.58,474.64a.92.92,0,0,1-1.32-.87c.51-.65,1.79.16,1.41.9Z" fill="#1b2021"/><path d="M281.85,92.31c.37-.28.73.49.42.83A2.89,2.89,0,0,1,280.7,93c0-.61.79-1.25,1.13-.74Z" fill="#1b2021"/><path d="M168.38,104.27c-.37-.4.26-1.07.79-.93s.83.67,1.07,1.16a1.09,1.09,0,0,1-1.6-.52Z" fill="#1b2021"/><path d="M31.92,103.6l1.49.78a3.11,3.11,0,0,1-2,.29c-.38-.26,0-1,.43-.85Z" fill="#1b2021"/><path d="M330.58,499.14c-.63.17-1.62.05-1.52-.59a1.75,1.75,0,0,1,1.2-.28c.41.11.67.7.35,1Z" fill="#1b2021"/><path d="M344.86,112.21a.8.8,0,1,1-1.57-.2,1,1,0,0,1,1.49.22Z" fill="#1b2021"/><path d="M149.92,6.06c.05-.67.85-1.34,1.35-.89a1.47,1.47,0,0,1-.2,1.14l-1.13-.14Z" fill="#1b2021"/><path d="M159.49,46.17l-1.1-1.1a1.39,1.39,0,0,1,1.11-.7,1.8,1.8,0,0,1,0,1.8Z" fill="#1b2021"/><path d="M5.16,105.31l-2-.66a1.28,1.28,0,0,1,2.14.43Z" fill="#1b2021"/><path d="M137.1,159.87a1.2,1.2,0,0,1,1.73.42,1.43,1.43,0,0,1-2.08-.31Z" fill="#1b2021"/><path d="M203.78,110.79c.43-.08.54.68.17.9a1.44,1.44,0,0,1-1.25-.1c-.06-.6.78-1.21,1.12-.71Z" fill="#1b2021"/><path d="M245.25,19.79a.93.93,0,0,1-1.31.9,1.59,1.59,0,0,1,.21-1.16l1.13.14Z" fill="#1b2021"/><path d="M262.48,479.93c0-.79,1.23-.75,2-.43a1.19,1.19,0,0,1-1.86.41Z" fill="#1b2021"/><path d="M155.11,46.18A.65.65,0,0,1,156.2,46c-.16.51-.43,1.1-1,1.16s-.67-1-.15-.89Z" fill="#1b2021"/><path d="M105,102.68a.89.89,0,0,1,.94,1.12,1.59,1.59,0,0,1-1.28-.25c-.32-.31-.12-1,.32-.95Z" fill="#1b2021"/><path d="M4.14,479.92a1.29,1.29,0,0,1,.18-1.1,1.55,1.55,0,0,1,1.13.2A1,1,0,0,1,4.1,480Z" fill="#1b2021"/><path d="M346.29,423.57a1.08,1.08,0,0,1-1.75-.33,1.22,1.22,0,0,1,1.87.33Z" fill="#1b2021"/><path d="M303.82,478.21a1.08,1.08,0,0,1,1.75.33,1.22,1.22,0,0,1-1.87-.33Z" fill="#1b2021"/><path d="M197.25,497.27l1.52.71c-.28.88-2,.36-1.69-.52Z" fill="#1b2021"/><path d="M33.82,120.42a2.64,2.64,0,0,1-2.2,0,1.27,1.27,0,0,1,2.16,0Z" fill="#1b2021"/><path d="M146.21,479.24a1.9,1.9,0,0,1-.94-1.29,1.67,1.67,0,0,1,1.37.32c.33.36,0,1.13-.44,1Z" fill="#1b2021"/><path d="M67.75,120.65c.19-.69,1.49.08,1,.58-.26.64-1.47-.07-1-.61Z" fill="#1b2021"/><path d="M246.83,424.37c.63-.18,1.62-.06,1.52.59a1.75,1.75,0,0,1-1.2.28c-.41-.11-.67-.7-.34-1Z" fill="#1b2021"/><path d="M147.1,425.7c.63-.17,1.62-.06,1.52.59a1.75,1.75,0,0,1-1.2.28c-.41-.11-.67-.7-.34-1Z" fill="#1b2021"/><path d="M212.71,472.13c.32.29,0,.87-.38,1a1.83,1.83,0,0,1-1.23-.27c-.09-.65.91-.77,1.54-.6Z" fill="#1b2021"/><path d="M11.84,124.15c-.37.3-.68-.5-.41-.88l1.57.11a.74.74,0,0,1-1.07.73Z" fill="#1b2021"/><path d="M18.5,387c-.63.17-1.61.06-1.51-.59a1.74,1.74,0,0,1,1.2-.28c.41.11.67.71.34,1Z" fill="#1b2021"/><path d="M280.68,431.11a1.08,1.08,0,0,1-1.75-.33,1.22,1.22,0,0,1,1.87.33Z" fill="#1b2021"/><path d="M225.07,465.49c-.37.3-.68-.5-.41-.88l1.57.11a.74.74,0,0,1-1.07.73Z" fill="#1b2021"/><path d="M275.11,36c.35.37-.14,1-.65,1a2,2,0,0,1-1.25-.81,1.73,1.73,0,0,1,1.76,0Z" fill="#1b2021"/><path d="M60.36,178a1.05,1.05,0,0,1-1.74-.32,1.21,1.21,0,0,1,1.87.32Z" fill="#1b2021"/><path d="M91.43,372.87a1.86,1.86,0,0,1-2.38.64,1.93,1.93,0,0,1,2.33-.53Z" fill="#1b2021"/><path d="M33.18,124.24c.67-.34,1.47.39,1.52,1.13A1.43,1.43,0,0,1,33,124.2Z" fill="#1b2021"/><path d="M120.05,144.17c.37-.28.73.49.42.83a2.74,2.74,0,0,1-1.56-.15c-.25-.49.57-.78,1.11-.7Z" fill="#1b2021"/><path d="M325.7,457.47c-.63.17-1.62.05-1.52-.59a1.75,1.75,0,0,1,1.2-.28c.41.11.67.7.35,1Z" fill="#1b2021"/><path d="M160.15,4.51A1.05,1.05,0,0,1,162,3.93a1.05,1.05,0,0,1-1.53.47Z" fill="#1b2021"/><path d="M4.78,372.9a1.29,1.29,0,0,1,1.1.18,1.66,1.66,0,0,1-.2,1.15c-.68,0-1.36-.84-.91-1.36Z" fill="#1b2021"/><path d="M333.27,455.7a.91.91,0,0,1-.45-1.32,2.73,2.73,0,0,1,1.53,1.17,1.47,1.47,0,0,1-1.1.2Z" fill="#1b2021"/><path d="M64.35,439.52a1.05,1.05,0,0,1-1.74-.32,1.21,1.21,0,0,1,1.87.32Z" fill="#1b2021"/><path d="M316.15,492.73a1.08,1.08,0,0,1-1.75-.33,1.22,1.22,0,0,1,1.87.33Z" fill="#1b2021"/><path d="M17.21,78.06a1.9,1.9,0,0,1-.94-1.29,1.67,1.67,0,0,1,1.37.32c.33.36,0,1.13-.44,1Z" fill="#1b2021"/><path d="M145,77.87a1,1,0,0,1,.3,1.42c-.46-.19-1-.44-1.08-.91s.62-1,.86-.54Z" fill="#1b2021"/><path d="M137.3,76.27c-.37.3-.68-.5-.41-.88l1.57.11a.74.74,0,0,1-1.07.73Z" fill="#1b2021"/><path d="M293.19,447.18a1.08,1.08,0,0,1,1.75.33,1.22,1.22,0,0,1-1.87-.33Z" fill="#1b2021"/><path d="M327.32,449.9c.54-.19.74.95.17,1l-1.58-1a1.1,1.1,0,0,1,1.37-.09Z" fill="#1b2021"/><path d="M53.81,441a1.08,1.08,0,0,1,1.75.33,1.22,1.22,0,0,1-1.87-.33Z" fill="#1b2021"/><path d="M71.73,57.67a1.19,1.19,0,0,1,.79,1.92,2,2,0,0,1-.73-1.88Z" fill="#1b2021"/><path d="M115.61,367.11c-.48.22-.74-.59-.66-1.11a1.07,1.07,0,0,1,1.34,0,1.25,1.25,0,0,1-.71,1.08Z" fill="#1b2021"/><path d="M20.81,488.56c-.35-.37.15-1,.66-1a2,2,0,0,1,1.25.81,1.9,1.9,0,0,1-1.79,0Z" fill="#1b2021"/><path d="M151,366.63c.48-.63,1.73,0,1.52.74a1.27,1.27,0,0,1-1.56-.67Z" fill="#1b2021"/><path d="M239.65,32.73a1.36,1.36,0,0,1-2,.36c0-.75,1.13-.76,1.83-.47Z" fill="#1b2021"/><path d="M85.45,67a1.32,1.32,0,0,1-1.1-.18,3.11,3.11,0,0,1,1.56-1.15.88.88,0,0,1-.47,1.28Z" fill="#1b2021"/><path d="M57.1,132.68c.63-.18,1.62-.06,1.52.59a1.74,1.74,0,0,1-1.21.28c-.41-.11-.67-.71-.33-1Z" fill="#1b2021"/><path d="M306,35.37a.65.65,0,0,1,.21,1.08c-.51-.16-1.1-.43-1.16-1s1-.67.89-.15Z" fill="#1b2021"/><path d="M121,62.13a1,1,0,0,1-1.63.65c-.08-.65.91-.76,1.55-.59Z" fill="#1b2021"/><path d="M296.27,222.64A1,1,0,0,1,298,222a1.42,1.42,0,0,1-1.49.62Z" fill="#1b2021"/><path d="M304.94,133.12c-.45.14-.57-.74-.13-.89s.9.21,1.14.61a.69.69,0,0,1-1.09.24Z" fill="#1b2021"/><path d="M281,61.2l1.56.14c-.27.38-.6.8-1.06.84s-.89-.63-.5-.9Z" fill="#1b2021"/><path d="M116.4,70.82a1,1,0,0,1-1.85-.08,1.7,1.7,0,0,1,1.72,0Z" fill="#1b2021"/><path d="M143.1,368a.73.73,0,0,1,0-1.29l1.11,1.1a1.47,1.47,0,0,1-1.11.21Z" fill="#1b2021"/><path d="M344.11,135.93a1.18,1.18,0,0,1,1.73.43A1.16,1.16,0,0,1,344,136Z" fill="#1b2021"/><path d="M114.28,129.91l1.56.14c-.27.38-.6.8-1.06.84s-.89-.63-.5-.9Z" fill="#1b2021"/><path d="M204.09,30.34l-.54-.76a2,2,0,0,1,1.17-.71.89.89,0,0,1-.48,1.27Z" fill="#1b2021"/><path d="M320.85,446.42c-.49.14-1.25-.13-1.06-.6a1.3,1.3,0,0,1,1.17-.29c.38.17.28.94-.12.83Z" fill="#1b2021"/><path d="M32.1,82.78a.9.9,0,0,1,1.63-.07,1.1,1.1,0,0,1-1.73.05Z" fill="#1b2021"/><path d="M329.28,488.06c-.42.08-.49-.7-.09-.87a1.36,1.36,0,0,1,1.2.3.69.69,0,0,1-1.06.56Z" fill="#1b2021"/><path d="M144.88,37.24a.92.92,0,0,1-.47-1.3,1.43,1.43,0,0,1,1,.58c.19.36-.21.93-.55.71Z" fill="#1b2021"/><path d="M91.51,84.11c.12-.44.89-.06.78.38s-.62.63-1.07.71a.74.74,0,0,1,.23-1.11Z" fill="#1b2021"/><path d="M282.55,463.54a1.27,1.27,0,0,1,1.83-.45,1.19,1.19,0,0,1-1.86.42Z" fill="#1b2021"/><path d="M186.49,363c.42-.09.55.67.18.9a1.42,1.42,0,0,1-1.25-.1c-.26-.47.57-.76,1.1-.68Z" fill="#1b2021"/><path d="M20.3,169.84a1.14,1.14,0,0,1,1.61-.21,1,1,0,0,1-1.73.27Z" fill="#1b2021"/><path d="M52.41,117.27a1,1,0,0,1,1.32.5,1.62,1.62,0,0,1-1.08.65,1.48,1.48,0,0,1-.2-1.1Z" fill="#1b2021"/><path d="M251.85,493.82c-.36-.2-.13-.82.27-.92a1.57,1.57,0,0,1,1.15.36.76.76,0,0,1-1.32.39Z" fill="#1b2021"/><path d="M8.24,469.78a1,1,0,0,1-1.85-.08,1.87,1.87,0,0,1,1.75,0Z" fill="#1b2021"/><path d="M317.51,484.76a1,1,0,0,1,1.35,1,.94.94,0,0,1-1.33-.92Z" fill="#1b2021"/><path d="M336,90.5a1,1,0,0,1-1.63.65c-.07-.65.91-.76,1.55-.59Z" fill="#1b2021"/><path d="M314.08,119.75c.18-.64,1.13-.51,1.74-.23a.85.85,0,0,1-1.56.21Z" fill="#1b2021"/><path d="M22.06,100.22c.68,0,1.33.86.89,1.38-.67,0-1.32-.84-.88-1.35Z" fill="#1b2021"/><path d="M110.55,48.31c.47-.2,1,.55.61.91-.48,0-1-.14-1.25-.57s.52-1,.73-.56Z" fill="#1b2021"/><path d="M305.65,485c.18-.64,1.13-.51,1.74-.23a.85.85,0,0,1-1.56.21Z" fill="#1b2021"/><path d="M284,119.24c-.62.18-1.61.06-1.52-.58a1,1,0,0,1,1.58.65Z" fill="#1b2021"/><path d="M158.37,410.33a1.18,1.18,0,0,1,1.72.43,1.16,1.16,0,0,1-1.8-.41Z" fill="#1b2021"/><path d="M167.62,18.93c0-.76,1.12-.79,1.83-.51a1.33,1.33,0,0,1-1.79.54Z" fill="#1b2021"/><path d="M169.24,173.42c-.68,0-1.33-.86-.89-1.38.67,0,1.32.84.88,1.35Z" fill="#1b2021"/><path d="M321.08,41.91a.68.68,0,0,1-.24-1.1c.45.1,1,.28,1.09.73s-.7.8-.77.35Z" fill="#1b2021"/><path d="M187,71.11c.47-.36,1.44-.49,1.39.1-.15.75-1.57.54-1.49-.22Z" fill="#1b2021"/><path d="M236.54,413.7c-.34-.62.83-1.28,1.18-.67a.68.68,0,0,1-1,.55Z" fill="#1b2021"/><path d="M275.19,42.66c.49-.18,1.23.15,1.07.64a1.39,1.39,0,0,1-1.24-.09c-.33-.28-.06-1,.33-.83Z" fill="#1b2021"/><path d="M92.92,156.59c-.34-.62.83-1.28,1.18-.67a.68.68,0,0,1-1,.54Z" fill="#1b2021"/><path d="M168.78,154.73c-.37.28-.74-.49-.42-.83a1.4,1.4,0,0,1,1.11.17.56.56,0,0,1-.66.63Z" fill="#1b2021"/><path d="M277,418.94c-.49.11-1.29-.16-1-.59.31-.61,1.47.1,1.05.65Z" fill="#1b2021"/><path d="M212.72,418.93c.37.25,0,.9-.45.89a1.59,1.59,0,0,1-1.07-.73l1.48-.16Z" fill="#1b2021"/><path d="M244.88,406.83a.71.71,0,0,1,1.25.37.76.76,0,0,1-1.31-.41Z" fill="#1b2021"/><path d="M169.9,4.55l-2.21-.23,1.11-.68,1.17.76Z" fill="#1b2021"/><path d="M175.7,50.83c-.11-.49.16-1.29.59-1,.61.31-.1,1.47-.65,1.05Z" fill="#1b2021"/><path d="M190.37,151.9a.84.84,0,0,1-1.4.44c-.25-.57.79-.75,1.35-.49Z" fill="#1b2021"/><path d="M49.55,381.61c-.44.15-.45-.76,0-.82s.81.37,1.07.75a1.45,1.45,0,0,1-1.07.18Z" fill="#1b2021"/><path d="M329.79,133.77l1.51.71a.94.94,0,0,1-1.63-.51Z" fill="#1b2021"/><path d="M6,133c.08-.44.86-.2.87.25s-.41.77-.78,1a1,1,0,0,1,0-1.3Z" fill="#1b2021"/><path d="M1.88,169.63a1.34,1.34,0,0,1-.15,1.07c-.39-.25-.82-.61-.77-1.06s1-.45.82,0Z" fill="#1b2021"/><path d="M95.56,128.75l-1-.77a1.44,1.44,0,0,1,1.25-.18c.39.2.32,1-.11.92Z" fill="#1b2021"/><path d="M63.34,54.61c-.08-.33.54-.4.67-.08a1,1,0,0,1-.27.94,1,1,0,0,1-.87-.3c-.18-.27.17-.73.41-.51Z" fill="#1b2021"/><path d="M33.76,128.35a.71.71,0,0,1-1.25-.37.76.76,0,0,1,1.31.41Z" fill="#1b2021"/><path d="M237.33,57.94a1.24,1.24,0,0,1,1.72-.51,1.34,1.34,0,0,1-1.8.55Z" fill="#1b2021"/><path d="M347.74,441.81a.84.84,0,0,1-1.4.44c-.25-.57.79-.75,1.35-.49Z" fill="#1b2021"/><path d="M185.21,61.2c-.49.11-1.29-.16-1-.59.31-.61,1.47.1,1.05.65Z" fill="#1b2021"/><path d="M177.21,15.62c.49-.11,1.29.16,1,.59-.31.61-1.47-.1-1.05-.65Z" fill="#1b2021"/><path d="M33.93,366a2.85,2.85,0,0,1,2.55,0,6,6,0,0,1-2.44.18Z" fill="#1b2021"/><path d="M65.72,118.66c.46.14.24,1-.23.92a.56.56,0,1,1,.3-1Z" fill="#1b2021"/><path d="M252.59,32a.85.85,0,0,1-1.48-.23,1.17,1.17,0,0,1,1.62.12Z" fill="#1b2021"/><path d="M22.64,72.1a.44.44,0,1,1-.7-.37c.12-.6,1.28,0,.87.44Z" fill="#1b2021"/><path d="M54.07,113.85l1,.74a1.34,1.34,0,0,1-1.2.34c-.4-.17-.32-1,.1-.86Z" fill="#1b2021"/><path d="M173.67,31.56a1.34,1.34,0,0,1,1.07.15c-.25.39-.61.82-1.06.77s-.44-1,0-.82Z" fill="#1b2021"/><path d="M203.77,482.42a.71.71,0,0,1-.37,1.25.76.76,0,0,1,.41-1.31Z" fill="#1b2021"/><path d="M162.29,103a1.24,1.24,0,0,1-1.64.14.91.91,0,0,1,1.52-.26Z" fill="#1b2021"/><path d="M170.6,96.63,169.45,96a2.23,2.23,0,0,1,1.55-.18c.38.25,0,1-.42.82Z" fill="#1b2021"/><path d="M23,358.23a.6.6,0,1,1-1.09-.16.59.59,0,0,1,1,.21Z" fill="#1b2021"/><path d="M166.2,94.44c.37.59-.77,1.29-1.13.7-.28-.44.55-.72,1.06-.61Z" fill="#1b2021"/><path d="M291.6,79.18c0,.43-.68.55-1,.27a1.81,1.81,0,0,1-.48-1.17,2,2,0,0,1,1.24.93Z" fill="#1b2021"/><path d="M210.61,80.4a1.24,1.24,0,0,1-1.64.14.91.91,0,0,1,1.52-.26Z" fill="#1b2021"/><path d="M329.42,455a1,1,0,0,1-1.63-.36,1,1,0,0,1,1.48.25Z" fill="#1b2021"/><path d="M329.41,476.26a1.24,1.24,0,0,1-1.64.14.91.91,0,0,1,1.52-.26Z" fill="#1b2021"/><path d="M356.55,456.5l-1.36.42a1.34,1.34,0,0,1,.54-1.06c.36-.19.94.19.73.55Z" fill="#1b2021"/><path d="M61.73,85a2.22,2.22,0,0,1-1.3-1,1.58,1.58,0,0,1,1.1-.2,1.46,1.46,0,0,1,.2,1.1Z" fill="#1b2021"/><path d="M110.89,470.16a1,1,0,0,1-1.69,0,1.92,1.92,0,0,1,1.77,0Z" fill="#1b2021"/><path d="M59.52,364.23c.16.43-.6.81-.85.42a1.17,1.17,0,0,1,.27-1.2l.67.68Z" fill="#1b2021"/><path d="M310.69,52.3a.8.8,0,0,1-.53-1.09c.43.13.93.32,1.06.76s-.54.91-.76.52Z" fill="#1b2021"/><path d="M288.92,461.57c.49-.11,1.29.16,1,.59-.31.61-1.47-.1-1.05-.65Z" fill="#1b2021"/><path d="M71.7,84.73c.59-.22.8.8.48,1.34-.6.21-.81-.81-.51-1.37Z" fill="#1b2021"/><path d="M338.94,87c0-.72,1.16-.37,1.61.2a1.06,1.06,0,0,1-1.52-.23Z" fill="#1b2021"/><path d="M233.14,20.9a.64.64,0,0,1,1.11-.14c-.28.39-.68.84-1.15.74s-.3-1.07.11-.81Z" fill="#1b2021"/><path d="M199.68,465.3a.84.84,0,0,1-1.4.44c-.25-.57.79-.75,1.35-.49Z" fill="#1b2021"/><path d="M253.54,21.76c.35.62-.87,1.26-1.18.62l1.07-.66Z" fill="#1b2021"/><path d="M74.82,87.43c.49-.17,1.22.14,1.08.64a.78.78,0,0,1-1.19-.7Z" fill="#1b2021"/><path d="M24.28,90.5c-.08-.6.79-1.15,1.15-.67a.73.73,0,0,1-1.09.59Z" fill="#1b2021"/><path d="M175.28,471.09a.75.75,0,0,1,1.28.43.89.89,0,0,1-1.27-.49Z" fill="#1b2021"/><path d="M93.6,92a.74.74,0,0,1-1.28-.44.89.89,0,0,1,1.27.49Z" fill="#1b2021"/><path d="M250.81,23.14a1.43,1.43,0,0,1,1.1.16c-.21.31-.49.65-.87.64s-.56-.68-.19-.73Z" fill="#1b2021"/><path d="M180.1,92.91a1,1,0,0,1-1.24.08c0-.66,1.23-.74,1.33-.09Z" fill="#1b2021"/><path d="M237.52,457.09a.5.5,0,1,1,.57-.65c.19.3-.23.74-.54.56Z" fill="#1b2021"/><path d="M341.22,476.56c-.36.29-.72-.49-.42-.84a1,1,0,0,1,.86.31c.17.27-.19.72-.42.5Z" fill="#1b2021"/><path d="M9.19,93.56c-.36.29-.72-.49-.42-.84a1,1,0,0,1,.86.31c.17.27-.19.72-.42.5Z" fill="#1b2021"/><path d="M223.6,29.13c.19-.41,1,0,.73.39-.2.56-1.26-.06-.87-.51Z" fill="#1b2021"/><path d="M170.8,77a1.78,1.78,0,0,1-1.8,0,1.08,1.08,0,0,1,1.7.07Z" fill="#1b2021"/><path d="M299.13,478.86c.49-.17,1.22.14,1.08.64a.78.78,0,0,1-1.18-.7Z" fill="#1b2021"/><path d="M258.29,448.62c-.29.25-.7-.31-.47-.61a1,1,0,0,1,1.06-.18.75.75,0,0,1-.55.79Z" fill="#1b2021"/><path d="M277.37,102.57c.38.08.17.76-.22.76s-.67-.37-.84-.72l1.09-.2Z" fill="#1b2021"/><path d="M52.62,447.89c.38.08.17.76-.22.76s-.67-.37-.84-.71l1.09-.2Z" fill="#1b2021"/><path d="M158,2.05a.82.82,0,0,1-1.36.46A1,1,0,0,1,158,2Z" fill="#1b2021"/><path d="M280.48,110a.69.69,0,0,1-1.08.68c-.23-.48.58-.74,1.11-.66Z" fill="#1b2021"/><path d="M96.71,448a.74.74,0,0,1-1.28-.44.89.89,0,0,1,1.27.49Z" fill="#1b2021"/><path d="M353.88,72.11c-.59.06-1.18-.79-.68-1.11s.73.58.64,1.1Z" fill="#1b2021"/><path d="M235.31,67.54c-.22.26-.62-.25-.4-.51a.85.85,0,0,1,1-.07,1.55,1.55,0,0,0,1,.21,1.74,1.74,0,0,1-1.53.24Z" fill="#1b2021"/><path d="M80.14,63.86c-.49.17-1.22-.14-1.08-.64a.78.78,0,0,1,1.19.7Z" fill="#1b2021"/><path d="M78.61,367.76c-.26-.2.18-.63.47-.46s.32.56.33.89c-.22.39-1,0-.76-.41Z" fill="#1b2021"/><path d="M191.76,36.11l-1-.72c.28-.65,1.51,0,1.14.6Z" fill="#1b2021"/><path d="M331.11,440.06c-.46.18-.5-.8,0-.86s.86.42,1.12.83l-1.19-.16Z" fill="#1b2021"/><path d="M8.54,256.93a1,1,0,0,1-1.24.08c0-.66,1.23-.74,1.33-.09Z" fill="#1b2021"/><path d="M338.17,308.94c-.38-.08-.17-.76.22-.76s.67.37.84.71l-1.09.2Z" fill="#1b2021"/><path d="M31,53.12l1,.72c-.28.65-1.51,0-1.14-.6Z" fill="#1b2021"/><path d="M254.79,53.28a1.43,1.43,0,0,1,1.1.16c-.21.31-.49.65-.87.64s-.56-.68-.19-.73Z" fill="#1b2021"/><path d="M335.24,435.65c.32-.09.4.53.09.66a1,1,0,0,1-.93-.27c-.26-.39.52-.77.83-.42Z" fill="#1b2021"/><path d="M215.67,52.05a1.53,1.53,0,0,1-.43-1.41,1,1,0,0,1,.49,1.64Z" fill="#1b2021"/><path d="M149.09,41.56a.53.53,0,1,1-.5-.71l.6.59Z" fill="#1b2021"/><path d="M129.79,42.18l-.89.89c-.5-.56.49-1.55,1.05-1.06Z" fill="#1b2021"/><path d="M184.31,50.2c.49-.17,1.22.14,1.08.63a.78.78,0,0,1-1.18-.69Z" fill="#1b2021"/><path d="M290,44.59c-.19.41-1,0-.73-.39.2-.56,1.26.06.87.51Z" fill="#1b2021"/><path d="M180.78,156.54a.5.5,0,1,1,.57-.65c.19.3-.23.74-.54.56Z" fill="#1b2021"/><path d="M129.86,165.83c.35.62-.87,1.26-1.18.62l1.07-.66Z" fill="#1b2021"/><path d="M185.22,156.15c.36-.29.72.49.41.84a1,1,0,0,1-.86-.31c-.17-.27.18-.72.41-.5Z" fill="#1b2021"/><path d="M8.27,463.25c-.29.25-.7-.31-.47-.61a1,1,0,0,1,1.06-.18.74.74,0,0,1-.55.79Z" fill="#1b2021"/></g></svg>