<svg id="Layer_1" data-name="Layer 1" xmlns="http://www.w3.org/2000/svg" viewBox="0 0 500 500"><title>Artboard 1</title><g id="Shape_7" data-name="Shape 7"><path d="M310.32,401a104.88,104.88,0,0,1-13.43-10.36Q324.4,408.95,351.41,428c-.37.73-1.48.36-2.15-.11Z" fill="#ff1d25" stroke="#000" stroke-miterlimit="10"/><path d="M290.78,387.41l-10.08-7.46a13.27,13.27,0,0,1-2.66-2.37,179.27,179.27,0,0,1,19,13.25A17.72,17.72,0,0,1,290.78,387.41Z" fill="#ff1d25" stroke="#000" stroke-miterlimit="10"/><path d="M273.8,375.36l-11.9-8.16c-.5-.34-.93-1.22-.35-1.38q7.36,4.65,14.3,9.92C275.26,376.2,274.42,375.78,273.8,375.36Z" fill="#ff1d25" stroke="#000" stroke-miterlimit="10"/><path d="M259.93,365.21a14.29,14.29,0,0,1-5.58-4A10.92,10.92,0,0,1,259.93,365.21Z" fill="#ff1d25" stroke="#000" stroke-miterlimit="10"/><path d="M21.77,200.51a.81.81,0,0,1-.39-1.19l1.34.67c.45.5-.72,1.21-1,.59Z" fill="#ff1d25" stroke="#000" stroke-miterlimit="10"/><path d="M173.64,297.56a1.7,1.7,0,0,1,1.84,1,1.67,1.67,0,0,1-1.93-1Z" fill="#ff1d25" stroke="#000" stroke-miterlimit="10"/><path d="M332.09,296.13a.92.92,0,0,1,1.61.42,1,1,0,0,1-1.53-.43Z" fill="#ff1d25" stroke="#000" stroke-miterlimit="10"/><path d="M243.45,329.68,93.32,244.95c-.32,8.77,4.19,17.17,10.36,23.43s13.88,10.7,21.5,15.07l117.36,67.36c3.13,1.8,6.88-.86,9.5-3.35L395.34,211.41c1.44-2,5,0,5.1,2.46s-1.83,4.52-3.61,6.25L252.92,360.26l-5.84,2.31L101.5,275.88C91,269.65,88,256.17,85.95,244.17c-.29-1.68-.56-3.5.2-5S88.49,236.75,90,236l167.93-88.15c4.41-2.31,9-4.67,13.92-5.15,5.29-.51,10.51,1.18,15.56,2.86q54.17,18,107.76,37.68c2.75,1,5.92,2.5,6.4,5.39L249.71,328.86a4.23,4.23,0,0,1-6.25.82M133.62,263.49h-1.86a1.3,1.3,0,0,0-2.06-1,22.44,22.44,0,0,0,8,4.3c.32-.95-1-1.57-2-1.69s-2.31-.58-2.15-1.56m150.45,29.17L247.8,325.85a4.18,4.18,0,0,1-2.16,1.28c-2.17.27-3.55-2.77-5.74-2.81a10.39,10.39,0,0,0,2.74,3.87,3.56,3.56,0,0,0,4.41.14l35.22-32.42c.95-.87,2-2,1.81-3.24m-36.54,62.1a9.82,9.82,0,0,0,2.41,5.17l34.57-33.36a10.56,10.56,0,0,0-4.73,3Q267,341.23,255,353.88a8.72,8.72,0,0,1-3.76,2.77c-1.52.42-3.48-.33-3.76-1.88m68.26-91.11-7.18,6.55c-.62.56-1.27,1.49-.74,2.14q15.51-13.91,30.7-28.17c-1-.3-1.93.44-2.68,1.13l-4.62,4.22-15.48,14.13M284.9,293.14q10.84-9.34,21.3-19.12c.53-.49.83-1.66.11-1.66l-18.84,17.2a7.18,7.18,0,0,0-2.56,3.58m69-62.65,8.51-8.12c.42-.4.87-.93.72-1.48a59.84,59.84,0,0,0-14.74,13.93,24.44,24.44,0,0,0,5.51-4.33m2.34,25.34a88,88,0,0,0,10.08-9.4,2.32,2.32,0,0,0,.66-1.07,1.22,1.22,0,0,0-1.33-1.36c-1,5-8.3,6.81-9.41,11.84M295.75,313q-5.25,5.23-10.07,10.88c-.42.49-.78,1.34-.23,1.66q6.25-6.6,12.48-13.23c-.66-.53-1.59.09-2.19.69M96.32,242a9.64,9.64,0,0,1,.88-4.32c-.47-.62-1.42.14-1.72.86s-.88,1.67-1.59,1.35c-1.27-.57-2,2.66-3.23,2a.81.81,0,0,0-1.32-.56A3.26,3.26,0,0,0,91,245.06a6.81,6.81,0,0,0,1.86-3,1.48,1.48,0,0,1,1.63-.9,4.32,4.32,0,0,1,1.82.84m213.62,58.16-11.59,10.82c.63.29,1.33-.17,1.86-.6a117.53,117.53,0,0,0,11.86-11c-.74-.33-1.54.26-2.13.81m-92.58,10.7c-.63-.37-1.55-.69-2-.1L228.82,319c.64-.59-.2-1.58-.95-2l-10.51-6.14m-70.18-38.89q-3.25-2.33-6.6-4.51c-.64-.42-1.68-.73-2,0a74.33,74.33,0,0,0,6.07,4.29c.78.49,1.9.94,2.52.26m229.45-88c.54-.5,0-1.39-.63-1.82a3.48,3.48,0,0,0-2.14-.79,1.59,1.59,0,0,0-1.55,1.43c.33,1.33,2.11,1.52,3.47,1.44a1.36,1.36,0,0,0,.86-.26M229.69,319.1a19.92,19.92,0,0,0,5.3,2.33.94.94,0,0,0,.54-.86,6.15,6.15,0,0,0-5.84-1.48m-66.15-38.25a3.54,3.54,0,0,0,3.54,1.82,13.34,13.34,0,0,1-4.27-4.34,2,2,0,0,0,.61,2.58M214.83,310a5.46,5.46,0,0,0-4.95-3.12,9.38,9.38,0,0,0,4.95,3.12M115.1,227.76a2.6,2.6,0,0,0-1.64,3,7,7,0,0,0,2.85-2.67l-1.16-.32m-13.27,45.31a2.67,2.67,0,0,0,1.46-1.49,2.19,2.19,0,0,0-3.22,1.32,1.3,1.3,0,0,0,1.73.16m241.66-4a2.65,2.65,0,0,0,1.29-2.35,3.23,3.23,0,0,0-2.65,2.62,1.3,1.3,0,0,0,1.35-.27M320,291.35a4.15,4.15,0,0,0,2.84-3.8,7.33,7.33,0,0,0-2.84,3.8m-160-13-2.05-.87c-.63.38-.31,1.46.36,1.75a3.06,3.06,0,0,0,2.14-.17.54.54,0,0,0-.43-.69m226.45-52.06a1.46,1.46,0,0,0-.8,2,7.76,7.76,0,0,0,2.5-2.82,1.21,1.21,0,0,0-1.64.69m-15.23-12.57a5.91,5.91,0,0,0-3.5,3.12,5.94,5.94,0,0,0,3.5-3.12m-3.9,30.57a3.12,3.12,0,0,0,3.16-2,3.44,3.44,0,0,0-3.05,1.89M92.1,256.85l1,.6A7.21,7.21,0,0,0,94.95,256a2,2,0,0,0-2.92.83m3.45,1.46a2.37,2.37,0,0,0-2.64,1.34,2.09,2.09,0,0,0,2.87-1.33m6.06-11.92a3.38,3.38,0,0,0,3.12,1.76,4.62,4.62,0,0,0-3.13-2.09m-10.3,4.62c-.59-.29-1.33.3-1.37,1a2.07,2.07,0,0,0,2.73-.8.81.81,0,0,0-1.36-.2m-.17-1.84a1,1,0,0,0,.74-1.33,7.63,7.63,0,0,0-2.37.59c-.21.78,1.08,1.38,1.54.73m19.9-16.58,1.4-.95a1.35,1.35,0,0,0-1.91-.72c-.63.47-.24,1.76.54,1.63m23.33-12.91a1.24,1.24,0,0,0-1.34,2.09,2.05,2.05,0,0,0,1.07-1.78m182,75.58-.7-.47A4,4,0,0,0,314.1,297a2.24,2.24,0,0,0,2-1.69M93.31,254.11c.47-.1.36-.91-.09-1.05a1.35,1.35,0,0,0-1.28.48,3.32,3.32,0,0,1-1.1.9,2,2,0,0,0,2.38-.43m2.46,8a.54.54,0,0,0,.22-.92,2.06,2.06,0,0,0-2.2,1,1.16,1.16,0,0,0,1.86-.11m250-24.93a3.84,3.84,0,0,0-2.33,1.84,2,2,0,0,0,2.43-1.87M96.89,267.22a.83.83,0,0,0,.61-1.33l-1.81.6a.87.87,0,0,0,1.21.83m200.35,40.77a1.31,1.31,0,0,0,1.49-1.66,2.19,2.19,0,0,0-1.73,1.68m43.48-65.78a1.64,1.64,0,0,0,1.11-1.78,4.36,4.36,0,0,0-1.52,1,.87.87,0,0,0-.31.79c.09.28.6.34.63,0m-230.74,34.7a1.24,1.24,0,0,0-2-.95,1.76,1.76,0,0,0,1.84.93M167.26,201l-1,.53a1.33,1.33,0,0,0,.21,1.08,4.55,4.55,0,0,0,1.78-1.5l-1-.24m13.08,88.8a1.39,1.39,0,0,0-2.12-.74,1.62,1.62,0,0,0,2.08.83m-51.16-39.9.8,1.19a1.93,1.93,0,0,0-.32-2.41.91.91,0,0,0-.48,1.2M95.26,264.58a1.62,1.62,0,0,0,2-.94,1.54,1.54,0,0,0-2,.85m10.85-21.63a1.36,1.36,0,0,0-1-.57.89.89,0,0,0,0,1.56l1-1M143.38,220a1.63,1.63,0,0,0,1,.6,2.38,2.38,0,0,0,.17-1.42.84.84,0,0,0-1.18.82m10.2,54.72c-.38-.19-.7.6-.29.69a1.47,1.47,0,0,0,1.75.29l-1.45-1M98.8,244.06a.86.86,0,0,0,1.57,0,1,1,0,0,0-1.61-.12M238.6,354a.61.61,0,0,0,1,.21,1.14,1.14,0,0,0-1.42-1c-.35.22,0,.89.38.73m110-90.75a1.12,1.12,0,0,0,1.08-1.4,1.24,1.24,0,0,0-1.21,1.44M113.93,248.59c-.7,0-.69,1.07-.44,1.72.69.06.72-1,.47-1.66m128.25-88.39c.49,0,.22-1-.28-.92s-.81.54-1,1a.82.82,0,0,0,1.23-.25M141,261.36a1.84,1.84,0,0,0,.16-2.35,4.59,4.59,0,0,0-.21,2.27m211.75-1.46a.83.83,0,0,0,.43-1.18,1.3,1.3,0,0,0-.93.52c-.17.33.19.84.5.65m-233.4-32.23a.61.61,0,0,0,.21-1c-.4.09-.88.26-1,.66s.63.73.7.32M154.79,304l-1-.33c0,.42.16.91.55,1.05s.82-.52.43-.68m91.59,2.52c-.54-.06-1.07.71-.62,1s.66-.52.58-1m-122-63.17a.82.82,0,0,0,.44-1.15c-.53-.21-.71.73-.45,1.24m266.84-21.39-.89.65c.26.58,1.36,0,1-.54Z" fill="#ff1d25" stroke="#000" stroke-miterlimit="10"/></g></svg>