<?xml version="1.0" encoding="utf-8"?>
<!-- Generator: Adobe Illustrator 20.1.0, SVG Export Plug-In . SVG Version: 6.00 Build 0)  -->
<svg version="1.1" id="Layer_1" xmlns="http://www.w3.org/2000/svg" xmlns:xlink="http://www.w3.org/1999/xlink" x="0px" y="0px"
	 viewBox="0 0 333.7 234.4" style="enable-background:new 0 0 333.7 234.4;" xml:space="preserve">
<style type="text/css">
	.st0{fill:#FFFFFF;}
</style>
<title>Asset 8</title>
<g id="Layer_2">
	<g id="Layer_1-2">
		<g id="Book_2">
			<path d="M132,196.8l1.5,1.5c-0.2,0.4-0.7,0.6-1.2,0.5c0,0,0,0-0.1,0c-0.4-0.2-0.8-0.6-1-1L132,196.8L132,196.8z"/>
			<path d="M3.6,115.7l175-111.6c2.5-1.6,5.1-3.2,7.9-3.8c3.3-0.7,6.8,0,10.1,0.6c43.2,8.8,86.2,18.6,128.9,29.3
				c3.3,0.8,7,2.1,8.1,5.3L144.8,206.1c-0.8,0.9-1.9,1.5-3,1.9c-1.8,0.4-3.6-0.6-5.2-1.6L10.4,127.2c0.6,10.8,10.5,18.3,19.5,24.3
				L133,220.6c1.3,0.9,2.7,1.8,4.3,1.6c1.4-0.3,2.6-1,3.6-2L318,63.2c4.1-3.6-0.9-13.5,4.5-14.6l-1,8.2l5,2.8
				c0.4,5.3-3.7,9.6-7.6,13.3L147,234.4l2.3-5.7c-0.9,3.3-4.8,5-8.2,4.6s-6.4-2.3-9.2-4.2L24.6,158c-4.9-3.2-9.8-6.5-13.6-11
				c-5.4-6.4-8-14.7-10.3-22.8c-0.5-1.8-1-3.8-0.3-5.5C1.1,117.5,2.2,116.4,3.6,115.7 M109.4,183c-2.1-0.8-4.2-1.9-6.1-3.1
				c-17.8-10.4-35.3-21.3-52.5-32.5c-7.7-4-15.3-8.4-22.6-13.1c-6.6-4.7-13.5-8.8-20.8-12.3c43.4,28.9,89.4,53.8,132.6,83
				c-3-2.4-5.2-5.6-6.3-9.2c-1.3,1.1-3.2,0.4-4.7-0.4C122.1,191.8,115.6,187.7,109.4,183 M105.6,167.6c-0.9,0.4-1.9-0.4-2.3-1.3
				s-0.6-1.9-1.4-2.5c-0.4-0.3-1.2-0.2-1.1,0.3c1.3,2.6,3,4.9,5.1,6.9C105.6,169.9,105.5,168.7,105.6,167.6 M63.9,146.3
				c-1.4-2.3-4.5-2.8-7.2-3c0.7,0.5,1.3,1.2,1.6,2c0.5-0.9,1.9-0.7,2.8-0.2S62.9,146.4,63.9,146.3 M87.9,158.1
				c-0.3-0.3-0.8,0.1-0.8,0.5c0.1,0.4,0.4,0.7,0.8,0.9c0.7,0.4,1.5,0.8,2.3,1c-0.4-1.1-1.3-1.9-2.4-2.2 M73.9,125.1l0.8-0.6
				c-0.4-0.8-1.1-1.5-1.9-2C72.7,123.4,73.1,124.4,73.9,125.1 M68.1,146.3c0.5,1,1.5,1.5,2.5,1.4l-1.2-1.9L68.1,146.3 M153.9,191.2
				l2-2.3c-1,0.1-1.9,0.7-2.3,1.6 M65.7,146.3c0.4,0.1,0.9,0,1.3-0.2l-2.2-2.6l1.1,2.7 M97.6,170.1c-0.2-0.3-0.4-0.5-0.8-0.6
				l0.3,2.2c0.4-0.2,0.8-0.4,1.1-0.8C98.1,170.6,97.9,170.3,97.6,170.1 M71.2,114c-0.5,0.2-0.8,0.8-0.6,1.3c0.2,0.5,0.5,0.9,1,1.2
				c0-0.8-0.2-1.5-0.5-2.2 M98.4,153.8c0.7,0.7,1.7,1.1,2.6,1.2c-0.6-0.8-1.5-1.3-2.5-1.5 M139.8,195.9c0.3-0.5,0.2-1.1-0.2-1.4
				c0,0,0,0,0,0c-0.4-0.3-1-0.5-1.5-0.5L139.8,195.9 M129,186.4c-0.5,0.4-0.6,1.2-0.2,1.7c0.1,0.2,0.3,0.3,0.5,0.4l-0.3-1.9
				 M81.7,153.7c0.3-0.4,0.2-1-0.2-1.2c0,0,0,0,0,0c-0.3,0.5-0.5,1-0.2,1.5s1.2,0.1,0.9-0.3 M76,152.4l1.2,1.1
				c0.1-0.5-0.1-1-0.5-1.4c-0.4-0.3-1.2,0-1.1,0.4 M106.7,152.6c0,0.3,0.2,0.6,0.6,0.7c0.2,0,0.3,0,0.4-0.1c0-0.3-0.2-0.6-0.4-0.9
				c-0.3-0.2-0.8,0-0.7,0.3 M140.1,189.8c0.2,0.7,0.5,1.3,1,1.8C141.7,191.1,140.8,190.2,140.1,189.8 M73.6,148.5
				c0-0.4-0.4-0.8-0.8-0.8c-0.1,0.7,0.3,1.4,0.9,1.7C73.8,149.1,73.8,148.8,73.6,148.5C73.6,148.6,73.6,148.6,73.6,148.5
				 M44.3,132.1c-0.3-0.5-1-1-1.3-0.6c0.1,0.5,0.5,0.8,0.9,0.7C44.1,132.3,44.2,132.2,44.3,132.1 M125.8,182.4
				c0.6-0.3,0.1-1.3-0.5-1.4C125.2,181.6,125.4,182.1,125.8,182.4 M65.5,150.6c-0.1-0.5-0.9-0.1-0.8,0.4s0.7,0.6,1.2,0.7l-0.6-1
				 M114.4,134.2c0.3,0.2,0.6-0.4,0.3-0.6c-0.3-0.2-0.7-0.2-1-0.1l0.6,0.8 M114.3,180.7c-0.2-0.1-0.5,0-0.6,0.2
				c-0.1,0.2,0,0.5,0.2,0.6c0.2,0.1,0.4,0,0.5-0.1v-0.7L114.3,180.7z"/>
		</g>
		<path class="st0" d="M319.9,48c0,0,0.2,11.8-1,14.2c-1.2,2.3-179.8,159.5-179.8,159.5s-2.4,1.5-6.1-1S20.9,144.9,20.9,144.9
			S9.1,135,10.4,127.2L140,208c0,0,2.2,0.4,4.8-1.9L319.9,48z"/>
	</g>
</g>
</svg>
