<svg xmlns="http://www.w3.org/2000/svg" viewBox="0 0 333.67 234.41"><title>Asset 6</title><g id="Layer_2" data-name="Layer 2"><g id="Layer_1-2" data-name="Layer 1"><g id="Book_2" data-name="Book 2"><path d="M132,196.8l1.52,1.51a.88.88,0,0,1-1.21.43,2.54,2.54,0,0,1-1-1l.62-.93Z" fill="#fff"/><path d="M3.57,115.74l175-111.61c2.49-1.59,5.05-3.21,7.94-3.82,3.31-.71,6.75,0,10.07.64q64.78,13.2,128.93,29.29c3.28.82,7,2.08,8.14,5.27L144.8,206.15a7.11,7.11,0,0,1-3,1.9c-1.81.42-3.61-.61-5.18-1.6L10.39,127.16c.62,10.78,10.51,18.33,19.48,24.34L133,220.61c1.3.87,2.74,1.78,4.3,1.62a6.82,6.82,0,0,0,3.58-2L318,63.21c4.11-3.64-.88-13.54,4.51-14.56l-1.05,8.2,5,2.78c.42,5.26-3.74,9.64-7.59,13.26L147,234.41l2.28-5.71c-.92,3.28-4.82,5-8.21,4.59s-6.37-2.33-9.22-4.21L24.57,158c-4.88-3.23-9.84-6.53-13.61-11C5.55,140.59,3,132.26.66,124.19c-.53-1.79-1-3.77-.26-5.46a7.83,7.83,0,0,1,3.16-3M109.45,183a36.9,36.9,0,0,1-6.14-3.09Q76.65,164.3,50.79,147.37q-11.59-6-22.6-13.1A140.23,140.23,0,0,0,7.44,122c43.44,28.87,89.39,53.82,132.63,83a19.1,19.1,0,0,1-6.34-9.25c-1.26,1.12-3.23.42-4.73-.36A132.9,132.9,0,0,1,109.45,183m-3.87-15.42c-.86.45-1.86-.39-2.26-1.28s-.6-1.94-1.37-2.53c-.4-.31-1.23-.18-1.11.31a25.34,25.34,0,0,0,5.08,6.85,8,8,0,0,1-.34-3.35m-41.7-21.26c-1.4-2.32-4.52-2.77-7.22-3a5.18,5.18,0,0,1,1.64,2c.52-.89,1.88-.71,2.77-.19s1.79,1.26,2.82,1.13m24,11.8c-.28-.3-.83.1-.79.5a1.36,1.36,0,0,0,.76.91,9,9,0,0,0,2.3,1,3.71,3.71,0,0,0-2.38-2.24M73.93,125.07l.8-.6a4.57,4.57,0,0,0-1.92-2A2.88,2.88,0,0,0,73.88,125m-5.77,21.34a2.55,2.55,0,0,0,2.52,1.42l-1.24-1.91-1.22.54m85.75,44.78,2-2.27a2.76,2.76,0,0,0-2.28,1.61M65.69,146.31A1.58,1.58,0,0,0,67,146.1l-2.22-2.6,1.11,2.72m31.73,23.92a1.16,1.16,0,0,0-.78-.57l.27,2.21a2.09,2.09,0,0,0,1.07-.84,1.21,1.21,0,0,0-.55-.8M71.22,114a1.07,1.07,0,0,0-.58,1.34,2.6,2.6,0,0,0,1,1.23,4.87,4.87,0,0,0-.52-2.23m27.23,39.5A4.38,4.38,0,0,0,101,155a4.37,4.37,0,0,0-2.49-1.51m41.33,42.37a1,1,0,0,0-.26-1.4,3,3,0,0,0-1.5-.48l1.67,1.86M129,186.38a1.22,1.22,0,0,0,.35,2.1l-.3-1.93M81.72,153.69a.88.88,0,0,0-.28-1.24c-.26.46-.53,1-.25,1.49s1.23.1.94-.34M76,152.38l1.25,1.07a1.88,1.88,0,0,0-.46-1.43c-.39-.33-1.2,0-1.08.45m31,.17a.62.62,0,0,0,1,.54,1.3,1.3,0,0,0-.45-.86c-.28-.18-.77,0-.71.34m33.5,37.15a4.46,4.46,0,0,0,1,1.8c.6-.56-.28-1.45-1-1.78m-66.48-41.3a.91.91,0,0,0-.82-.84,1.73,1.73,0,0,0,.9,1.68.54.54,0,0,0-.11-.79M44.29,132.15c-.28-.49-1-1-1.29-.58a.85.85,0,0,0,1.37.57m81.46,50.29c.55-.32.1-1.26-.52-1.38a1.31,1.31,0,0,0,.53,1.37M65.51,150.65c-.05-.48-.92-.09-.77.37s.71.6,1.19.67l-.55-1m49-16.5c.29.18.57-.36.33-.61a1,1,0,0,0-1-.08l.55.8m0,46.42a.46.46,0,1,0,.13.75v-.73Z" fill="#fff"/></g></g></g></svg>