<svg id="Layer_1" data-name="Layer 1" xmlns="http://www.w3.org/2000/svg" xmlns:xlink="http://www.w3.org/1999/xlink" viewBox="0 0 333.67 234.41"><defs><clipPath id="clip-path" transform="translate(-33.17 -82.8)"><rect x="33.17" y="82.8" width="333.67" height="234.41" fill="none"/></clipPath></defs><title>Book-Red</title><g clip-path="url(#clip-path)"><path d="M165.16,279.59l1.52,1.51a.88.88,0,0,1-1.21.43,2.54,2.54,0,0,1-1-1l.62-.93Z" transform="translate(-33.17 -82.8)"/><path d="M36.73,198.53l175-111.61c2.49-1.59,5.05-3.21,7.94-3.82,3.32-.71,6.75,0,10.07.64Q294.55,96.93,358.7,113c3.28.82,7,2.08,8.14,5.27L178,289a7.12,7.12,0,0,1-3,1.9c-1.81.42-3.61-.61-5.18-1.6L43.56,210c.62,10.78,10.51,18.33,19.48,24.34l103.1,69.11c1.3.87,2.74,1.78,4.3,1.62a6.82,6.82,0,0,0,3.58-2L351.13,146c4.11-3.64-.88-13.54,4.51-14.56l-1.05,8.2,5,2.78c.42,5.26-3.74,9.64-7.59,13.26L180.17,317.2l2.28-5.71c-.92,3.28-4.82,5-8.21,4.59s-6.37-2.33-9.22-4.21l-107.29-71c-4.88-3.23-9.84-6.53-13.61-11-5.42-6.44-7.92-14.77-10.3-22.84-.53-1.79-1-3.77-.26-5.46a7.83,7.83,0,0,1,3.16-3m105.88,67.28a36.92,36.92,0,0,1-6.14-3.09Q109.82,247.09,84,230.16q-11.59-6-22.6-13.1A140.28,140.28,0,0,0,40.6,204.84c43.44,28.87,89.39,53.82,132.63,83a19.11,19.11,0,0,1-6.34-9.25c-1.26,1.12-3.23.42-4.73-.36a133,133,0,0,1-19.54-12.4m-3.87-15.42c-.86.45-1.86-.39-2.26-1.28s-.6-1.94-1.37-2.53c-.4-.31-1.23-.18-1.11.31a25.35,25.35,0,0,0,5.08,6.85,8,8,0,0,1-.34-3.35M97,229.13c-1.4-2.32-4.52-2.77-7.22-3a5.18,5.18,0,0,1,1.64,2c.51-.89,1.88-.71,2.77-.19S96,229.26,97,229.13m24,11.79c-.28-.3-.83.1-.79.5a1.36,1.36,0,0,0,.76.91,9,9,0,0,0,2.31,1,3.71,3.71,0,0,0-2.38-2.24M107.1,207.87l.8-.6a4.57,4.57,0,0,0-1.92-2,2.88,2.88,0,0,0,1.07,2.49m-5.77,21.34a2.55,2.55,0,0,0,2.52,1.42l-1.24-1.91-1.22.54M187.09,274l2-2.27a2.77,2.77,0,0,0-2.28,1.61M98.85,229.11a1.58,1.58,0,0,0,1.35-.21L98,226.3,99.1,229m31.73,23.92a1.16,1.16,0,0,0-.78-.57l.27,2.21a2.1,2.1,0,0,0,1.07-.84,1.21,1.21,0,0,0-.55-.8M104.39,196.8a1.07,1.07,0,0,0-.58,1.34,2.6,2.6,0,0,0,1,1.23,4.86,4.86,0,0,0-.52-2.23m27.23,39.5a4.39,4.39,0,0,0,2.63,1.19,4.37,4.37,0,0,0-2.49-1.51M173,278.69a1,1,0,0,0-.26-1.4,3,3,0,0,0-1.5-.48l1.67,1.86m-10.73-9.49a1.22,1.22,0,0,0,.35,2.1l-.3-1.93m-47.36-32.86a.88.88,0,0,0-.28-1.24c-.26.46-.53,1-.25,1.49s1.23.1.94-.34m-6.08-1.21,1.25,1.07a1.89,1.89,0,0,0-.46-1.43c-.39-.33-1.2,0-1.08.45m31,.17a.62.62,0,0,0,1,.54,1.3,1.3,0,0,0-.45-.86c-.28-.18-.77,0-.71.34m33.5,37.15a4.45,4.45,0,0,0,1,1.8c.6-.56-.28-1.45-1-1.78m-66.48-41.3a.91.91,0,0,0-.82-.83,1.73,1.73,0,0,0,.9,1.68.54.54,0,0,0-.11-.79M77.46,214.95c-.28-.49-1-1-1.29-.58a.85.85,0,0,0,1.38.57M159,265.24c.55-.32.1-1.26-.52-1.38a1.31,1.31,0,0,0,.53,1.37M98.68,233.45c-.05-.48-.92-.09-.77.37s.71.6,1.19.67l-.55-1m49-16.5c.28.18.57-.36.33-.61a1,1,0,0,0-1-.08l.55.8m0,46.42a.46.46,0,1,0,.13.75c0-.24,0-.49,0-.73Z" transform="translate(-33.17 -82.8)" fill="#f42626"/><path d="M353.06,130.74s.19,11.82-1,14.16-179.8,159.47-179.8,159.47-2.38,1.51-6.08-1S54.08,227.65,54.08,227.65,42.3,217.84,43.56,210l129.63,80.88s2.22.42,4.77-1.89l175.1-158.21" transform="translate(-33.17 -82.8)" fill="#fff"/></g></svg>